<?xml version="1.0" encoding="utf-8"?>
<!-- Generator: Adobe Illustrator 23.0.3, SVG Export Plug-In . SVG Version: 6.00 Build 0)  -->
<svg version="1.1" id="Capa_1" xmlns="http://www.w3.org/2000/svg" xmlns:xlink="http://www.w3.org/1999/xlink" x="0px" y="0px"
	 width="72px" height="72px" viewBox="0 0 72 72" enable-background="new 0 0 72 72" xml:space="preserve">
<g>
	<path fill="#CF2A27" d="M71.1,58.6L41.9,6.6c-2.5-4.5-9.3-4.5-11.8,0L0.9,58.6c-2.5,4.5,0.7,10.2,5.9,10.2H65
		C70.5,68.5,73.6,63.1,71.1,58.6z"/>
	<path fill="#FFFFFF" d="M36,10L65.2,62H6.8L36,10L36,10z"/>
	<g>
		<path fill="#1C1D1E" d="M31.2,33.8l1.8,12c0.2,1.4,1.4,2.5,2.9,2.5l0,0c1.4,0,2.7-1.1,2.9-2.5l1.8-12c0.5-2.9-1.8-5.4-4.8-5.4l0,0
			C33.1,28.4,31,30.9,31.2,33.8z"/>
		<circle fill="#1C1D1E" cx="36" cy="53.6" r="2.7"/>
	</g>
</g>
</svg>
