<?xml version="1.0" encoding="utf-8"?>
<!-- Generator: Adobe Illustrator 23.0.3, SVG Export Plug-In . SVG Version: 6.00 Build 0)  -->
<svg version="1.1" id="logo" xmlns="http://www.w3.org/2000/svg" xmlns:xlink="http://www.w3.org/1999/xlink" x="0px" y="0px"
	 width="400px" height="400px" viewBox="0 0 400 400" enable-background="new 0 0 400 400" xml:space="preserve">
<g id="Group_786" transform="translate(-0.075)">
	<path id="Path_584" fill="#6FA8DC" d="M269.4,140.8c-4.9,4.9-5.6,12-2.1,17.6h-0.7l2.1,2.1l19.7,19.7c16.2,16.9,16.2,42.9,0,59.8
		L230,298.5c-14.8,15.5-38.7,17.6-56.3,4.9c-18.3-14.1-21.8-40.8-7.7-59.8c0.7-1.4,2.1-2.8,3.5-3.5l39.4-39.4
		c4.9-4.9,12.7-6.3,18.3-2.1c6.3,4.9,7.7,13.4,2.8,19.7c0,0.7-0.7,0.7-0.7,1.4l-39.4,39.4c-4.9,4.9-6.3,12.7-2.1,18.3
		c4.9,6.3,13.4,7.7,19.7,2.8c0.7,0,0.7-0.7,1.4-0.7l50-50c11.3-10.6,11.3-28.9,0.7-39.4c0,0,0,0-0.7-0.7l-88.7-88.7
		c-4.9-5.6-14.1-5.6-19-0.7c0,0,0,0-0.7,0.7l-64.7,64.7c-24.6,24.6-24.6,64.7,0,89.4l69.7,69.7c24.6,24.6,64.7,24.6,89.4,0
		l69.7-69.7c24.6-24.6,24.6-64.7,0-89.4l-24.6-24.6C284.2,135.2,275,135.2,269.4,140.8z"/>
	<path id="Path_585" fill="#B8DDFF" d="M189.9,61.3L189.9,61.3c4.9-5.6,14.1-5.6,19-0.7c0,0,0,0,0.7,0.7l40.1,39.4
		c5.6,4.9,5.6,14.1,0.7,19c0,0,0,0-0.7,0.7l0,0c-4.9,5.6-14.1,5.6-19,0.7c0,0,0,0-0.7-0.7l-40.1-40.1c-4.9-4.9-5.6-12.7-0.7-18.3
		C189.2,62,189.9,61.3,189.9,61.3z"/>
</g>
</svg>
