<?xml version="1.0" encoding="utf-8"?>
<!-- Generator: Adobe Illustrator 23.0.3, SVG Export Plug-In . SVG Version: 6.00 Build 0)  -->
<svg version="1.1" id="icon-quality" xmlns="http://www.w3.org/2000/svg" xmlns:xlink="http://www.w3.org/1999/xlink" x="0px"
	 y="0px" width="64px" height="64px" viewBox="0 0 64 64" enable-background="new 0 0 64 64" xml:space="preserve">
<path fill="#2D3748" d="M6.7,49.4h11.7l2.9,5.1c0.2,0.4,0.6,0.6,1,0.7c0.4,0.1,0.8,0.1,1.2-0.2l1.6-0.9c0.9-0.5,2.2,0.1,2.2,1.2v1.9
	c0,0.9,0.7,1.6,1.6,1.6h6.3c0.9,0,1.6-0.7,1.6-1.6v-1.8c0-1.1,1.3-1.8,2.3-1.2l1.5,0.9c0.8,0.4,1.7,0.2,2.2-0.6l2.9-5.1h11.7
	c0.9,0,1.6-0.7,1.6-1.6V6.7c0-0.9-0.7-1.6-1.6-1.6h-19c-2.6,0-4.9,1.2-6.3,3.2c-1.4-1.9-3.7-3.2-6.3-3.2h-19c-0.9,0-1.6,0.7-1.6,1.6
	v41.2C5.1,48.7,5.8,49.4,6.7,49.4L6.7,49.4z"/>
<path fill="#A1E4FF" d="M33.6,33.7V34c0,3.6,4,5.7,7.1,3.9l0.1-0.1l1.6,2.7l-0.2,0.1c-3,1.8-3.1,6.2,0,8l0.3,0.2l-1.6,2.7l-0.1-0.1
	c-3.1-1.8-7,0.4-7,4v0.3h-3.2v-0.3c0-3.5-3.9-5.7-7-4l-0.2,0.1l-1.6-2.7l0.4-0.2c3.1-1.8,2.8-6.2-0.2-8l-0.2-0.1l1.6-2.7l0.2,0.1
	c3.1,1.8,7-0.5,7-4v-0.3L33.6,33.7z"/>
<path fill="#2D3748" d="M27.3,44.7c0,2.6,2.1,4.7,4.7,4.7s4.7-2.1,4.7-4.7c0-2.6-2.1-4.7-4.7-4.7S27.3,42.1,27.3,44.7z M32,43.1
	c0.9,0,1.6,0.7,1.6,1.6c0,0.9-0.7,1.6-1.6,1.6s-1.6-0.7-1.6-1.6C30.4,43.8,31.1,43.1,32,43.1z"/>
<path fill="#FFE9B3" d="M33.6,13c0-2.6,2.1-4.7,4.7-4.7h17.4v38H44.6c-0.1,0-0.2,0-0.4,0L43.6,46c-1-0.6-0.9-2,0-2.5l1.6-0.9
	c0.8-0.4,1-1.4,0.6-2.2l-3.2-5.5c-0.4-0.8-1.4-1-2.2-0.6l-1.5,0.9c-1,0.6-2.3-0.1-2.3-1.2v-1.8c0-0.9-0.7-1.6-1.6-1.6h-1.6L33.6,13
	L33.6,13z"/>
<path fill="#FFE9B3" d="M8.3,8.3h17.4c2.6,0,4.7,2.1,4.7,4.7v17.5h-1.6c-0.9,0-1.6,0.7-1.6,1.6V34c0,1.1-1.3,1.8-2.3,1.3l-1.6-0.9
	c-0.8-0.4-1.7-0.2-2.2,0.6l-3.2,5.5c-0.4,0.8-0.2,1.7,0.6,2.2l1.5,0.9c1,0.6,1.2,2,0.2,2.5l-0.7,0.4c-0.1,0-0.2,0-0.4,0H8.3L8.3,8.3
	z"/>
<path fill="#D1B882" d="M13,17.8h12.7c0.9,0,1.6-0.7,1.6-1.6c0-0.9-0.7-1.6-1.6-1.6H13c-0.9,0-1.6,0.7-1.6,1.6
	C11.4,17.1,12.1,17.8,13,17.8z"/>
<path fill="#D1B882" d="M27.3,22.5c0-0.9-0.7-1.6-1.6-1.6H13c-0.9,0-1.6,0.7-1.6,1.6c0,0.9,0.7,1.6,1.6,1.6h12.7
	C26.6,24.1,27.3,23.4,27.3,22.5z"/>
<path fill="#D1B882" d="M38.3,24.1H51c0.9,0,1.6-0.7,1.6-1.6c0-0.9-0.7-1.6-1.6-1.6H38.3c-0.9,0-1.6,0.7-1.6,1.6
	C36.7,23.4,37.4,24.1,38.3,24.1z"/>
<path fill="#D1B882" d="M38.3,17.8H51c0.9,0,1.6-0.7,1.6-1.6c0-0.9-0.7-1.6-1.6-1.6H38.3c-0.9,0-1.6,0.7-1.6,1.6
	C36.7,17.1,37.4,17.8,38.3,17.8z"/>
</svg>
