<?xml version="1.0" encoding="utf-8"?>
<!-- Generator: Adobe Illustrator 23.0.3, SVG Export Plug-In . SVG Version: 6.00 Build 0)  -->
<svg version="1.1" id="Layer_1" xmlns="http://www.w3.org/2000/svg" xmlns:xlink="http://www.w3.org/1999/xlink" x="0px" y="0px"
	 width="64px" height="64px" viewBox="0 0 64 64" style="enable-background:new 0 0 64 64;" xml:space="preserve">
<style type="text/css">
	.st0{fill:#FFD15C;}
</style>
<g id="icon-quality-03" transform="translate(-0.999 -1.036)">
	<path id="Path_1525" class="st0" d="M52.3,40.9l-4.7-0.7l-2.1-4.5c-0.4-0.7-1.3-0.9-2-0.5c-0.2,0.1-0.4,0.3-0.5,0.5l-2.1,4.5
		L36,40.9c-0.8,0.1-1.3,0.8-1.2,1.6c0,0.3,0.2,0.5,0.4,0.8l3.5,3.6l-0.8,5c-0.1,0.8,0.4,1.5,1.2,1.6c0.3,0,0.6,0,0.9-0.2l4.2-2.3
		l4.2,2.3c0.7,0.4,1.5,0.1,1.9-0.6c0.1-0.3,0.2-0.6,0.2-0.9l-0.8-5l3.5-3.6c0.5-0.6,0.5-1.4,0-2C52.9,41.1,52.6,41,52.3,40.9z"/>
	<path id="Path_1526" class="st0" d="M29.9,40.9l-4.7-0.7l-2.1-4.5c-0.4-0.7-1.3-0.9-2-0.5c-0.2,0.1-0.4,0.3-0.5,0.5l-2.1,4.5
		l-4.7,0.7c-0.8,0.1-1.3,0.8-1.2,1.6c0,0.3,0.2,0.5,0.4,0.8l3.5,3.6l-0.8,5c-0.1,0.8,0.4,1.5,1.2,1.6c0.3,0,0.6,0,0.9-0.2l4.2-2.3
		l4.2,2.3c0.7,0.4,1.5,0.1,1.9-0.6c0.1-0.3,0.2-0.6,0.2-0.9l-0.8-5l3.5-3.6c0.5-0.6,0.5-1.4,0-2C30.5,41.1,30.2,41,29.9,40.9z"/>
	<path id="Path_1527" class="st0" d="M29.9,18.6l-4.7-0.7l-2.1-4.5c-0.4-0.7-1.3-0.9-2-0.5c-0.2,0.1-0.4,0.3-0.5,0.5l-2.1,4.5
		l-4.7,0.7c-0.8,0.1-1.3,0.8-1.2,1.6c0,0.3,0.2,0.5,0.4,0.8l3.5,3.6l-0.8,5c-0.1,0.8,0.4,1.5,1.2,1.6c0.3,0,0.6,0,0.9-0.2l4.2-2.3
		L26,31c0.7,0.4,1.5,0.1,1.9-0.6c0.1-0.3,0.2-0.6,0.2-0.9l-0.8-5l3.5-3.6c0.5-0.6,0.5-1.4,0-2C30.5,18.7,30.2,18.6,29.9,18.6z"/>
	<path id="Path_1528" class="st0" d="M38.7,24.5l-0.8,5c-0.1,0.8,0.4,1.5,1.2,1.6c0.3,0,0.6,0,0.9-0.2l4.2-2.3l4.2,2.3
		c0.7,0.4,1.5,0.1,1.9-0.6c0.1-0.3,0.2-0.6,0.2-0.9l-0.8-5l3.5-3.6c0.5-0.6,0.5-1.4,0-2c-0.2-0.2-0.5-0.3-0.8-0.4l-4.7-0.7l-2.1-4.5
		c-0.4-0.7-1.3-0.9-2-0.5c-0.2,0.1-0.4,0.3-0.5,0.5l-2.1,4.5L36,18.6c-0.8,0.1-1.3,0.8-1.2,1.6c0,0.3,0.2,0.5,0.4,0.8L38.7,24.5z"/>
</g>
</svg>
