<?xml version="1.0" encoding="utf-8"?>
<!-- Generator: Adobe Illustrator 23.0.3, SVG Export Plug-In . SVG Version: 6.00 Build 0)  -->
<svg version="1.1" id="icon-payment" xmlns="http://www.w3.org/2000/svg" xmlns:xlink="http://www.w3.org/1999/xlink" x="0px"
	 y="0px" width="64px" height="64px" viewBox="0 0 64 64" style="enable-background:new 0 0 64 64;" xml:space="preserve">
<style type="text/css">
	.st0{fill:#2D3748;}
	.st1{fill:#A1E4FF;}
	.st2{fill:#FFE9B3;}
</style>
<path class="st0" d="M51,27.4h-0.1v-3.2c0-10.3-8.3-18.6-18.6-18.6S13.7,14,13.7,24.2v3.2H13c-2.9,0-5.1,2.5-5.1,5.5v8.1
	c-0.1,2.8,2.2,5.2,5,5.3c0,0,0,0,0.1,0h4.8c0.7,0,1.2-0.6,1.2-1.3c0,0,0,0,0-0.1V29c0-0.8-0.5-1.6-1.2-1.6h-1.4v-3.2
	c0-8.8,7.2-16,16-16s16,7.2,16,16v3.2h-1.4c-0.7,0-1.2,0.8-1.2,1.6v16c-0.1,0.7,0.4,1.3,1.1,1.4c0,0,0,0,0.1,0h1.5l-0.1,0.2
	c-2,2.6-5,4.1-8.3,4.1c-0.7-3.5-4.1-5.7-7.6-5c-3,0.6-5.1,3.2-5.2,6.3c0,3.6,2.9,6.5,6.5,6.5c1.8,0,3.5-0.8,4.7-2
	c0.8-0.9,1.4-1.9,1.6-3.1c4.1,0,7.9-1.9,10.4-5.1l1.2-1.8c2.8-0.2,4.6-2,4.6-4.5v-8.1C56.1,30.8,54,27.4,51,27.4z"/>
<path class="st1" d="M16.4,43.7H13c-1.4,0-2.5-1.2-2.5-2.6c0,0,0,0,0-0.1v-8.1c0-1.5,1-2.9,2.5-2.9h3.4V43.7z"/>
<path class="st2" d="M36.5,54.5c-0.7,0.8-1.7,1.2-2.8,1.2c-2.1,0-3.8-1.7-3.9-3.8c0-2.1,1.7-3.8,3.8-3.8c2.1,0,3.8,1.7,3.8,3.8
	c0,0,0,0,0,0C37.5,52.8,37.2,53.8,36.5,54.5z"/>
<path class="st1" d="M53.5,41.7c0,1.8-1.7,2-2.5,2h-2.7V30H51c1.4,0,2.5,2,2.5,3.5V41.7z"/>
</svg>
