<?xml version="1.0" encoding="utf-8"?>
<!-- Generator: Adobe Illustrator 23.0.3, SVG Export Plug-In . SVG Version: 6.00 Build 0)  -->
<svg version="1.1" id="icon-payment-05" xmlns="http://www.w3.org/2000/svg" xmlns:xlink="http://www.w3.org/1999/xlink" x="0px"
	 y="0px" width="64px" height="64px" viewBox="0 0 64 64" style="enable-background:new 0 0 64 64;" xml:space="preserve">
<style type="text/css">
	.st0{fill:#2A4054;}
</style>
<g id="Group_1548" transform="translate(0)">
	<path id="Path_1531" class="st0" d="M46.3,26.9h-2.5v-3.4c-0.1-6.5-5.4-11.8-11.9-11.7c-6.4,0.1-11.6,5.3-11.7,11.7v3.4h-2.5
		c-0.5,0-0.8,0.4-0.8,0.8c0,0,0,0,0,0v21.1c0,1.9,1.5,3.4,3.4,3.4h23.6c1.9,0,3.4-1.5,3.4-3.4V27.8C47.2,27.3,46.8,26.9,46.3,26.9
		C46.3,26.9,46.3,26.9,46.3,26.9z M34.5,44.6c0.1,0.5-0.3,0.9-0.7,0.9c0,0-0.1,0-0.1,0h-3.4c-0.5,0-0.8-0.4-0.8-0.8c0,0,0-0.1,0-0.1
		l0.5-4.8c-0.9-0.6-1.4-1.6-1.4-2.7c0-1.9,1.5-3.4,3.4-3.4s3.4,1.5,3.4,3.4c0,1.1-0.5,2.1-1.4,2.7L34.5,44.6z M38.7,26.9H25.2v-3.4
		c0-3.7,3-6.8,6.8-6.8s6.8,3,6.8,6.8V26.9z"/>
</g>
</svg>
