<?xml version="1.0" encoding="utf-8"?>
<!-- Generator: Adobe Illustrator 23.0.3, SVG Export Plug-In . SVG Version: 6.00 Build 0)  -->
<svg version="1.1" id="icon-satisfaction" xmlns="http://www.w3.org/2000/svg" xmlns:xlink="http://www.w3.org/1999/xlink" x="0px"
	 y="0px" width="64px" height="64px" viewBox="0 0 64 64" style="enable-background:new 0 0 64 64;" xml:space="preserve">
<style type="text/css">
	.st0{fill:#2D3748;}
</style>
<g>
	<path class="st0" d="M12,53.6c0,2.5,2.1,4.6,4.6,4.6H52c0-2.3,0-49.6,0-52.5H16.6c-2.5,0-4.6,2.1-4.6,4.6V53.6z M48.9,55.2H16.6
		c-0.8,0-1.5-0.7-1.5-1.5v-39c0.5,0.2,1,0.3,1.5,0.3h32.3V55.2z M16.6,8.8h32.3v3.1H16.6c-0.8,0-1.5-0.7-1.5-1.5S15.8,8.8,16.6,8.8z
		"/>
	<path class="st0" d="M32,48.9c7.6,0,13.8-6.2,13.8-13.8S39.6,21.2,32,21.2S18.2,27.4,18.2,35S24.4,48.9,32,48.9z M32,24.3
		c5.9,0,10.8,4.8,10.8,10.8S37.9,45.8,32,45.8S21.2,41,21.2,35.1S26.1,24.3,32,24.3z"/>
	<path class="st0" d="M30.5,33.5h3.1v9.2h-3.1C30.5,42.7,30.5,33.5,30.5,33.5z"/>
	<path class="st0" d="M30.5,27.4h3.1v3.1h-3.1C30.5,30.5,30.5,27.4,30.5,27.4z"/>
</g>
</svg>
