<?xml version="1.0" encoding="utf-8"?>
<!-- Generator: Adobe Illustrator 23.0.3, SVG Export Plug-In . SVG Version: 6.00 Build 0)  -->
<svg version="1.1" id="icon-quality-04" xmlns="http://www.w3.org/2000/svg" xmlns:xlink="http://www.w3.org/1999/xlink" x="0px"
	 y="0px" width="64px" height="64px" viewBox="0 0 64 64" style="enable-background:new 0 0 64 64;" xml:space="preserve">
<style type="text/css">
	.st0{fill:#2A4054;}
</style>
<g id="Group_1550" transform="translate(26.156 7.133)">
	<g id="Group_1549">
		<path id="Path_1532" class="st0" d="M17.7,11.7h-2.4c-0.7,0-1.2,0.5-1.2,1.2c0,0.7,0.5,1.2,1.2,1.2h2.4c0.7,0,1.2-0.5,1.2-1.2
			C18.9,12.3,18.4,11.8,17.7,11.7L17.7,11.7z"/>
	</g>
</g>
<g id="Group_1552" transform="translate(14.266 0)">
	<g id="Group_1551">
		<path id="Path_1533" class="st0" d="M17.6,14.8l-1.2-2.4c-0.3-0.6-1-0.8-1.6-0.5s-0.8,1-0.5,1.6l0,0l1.2,2.4
			c0.3,0.6,1,0.8,1.6,0.5S17.9,15.4,17.6,14.8L17.6,14.8z"/>
	</g>
</g>
<g id="Group_1554" transform="translate(22.588 0)">
	<g id="Group_1553">
		<path id="Path_1534" class="st0" d="M17.1,11.9c-0.6-0.3-1.3-0.1-1.6,0.5c0,0,0,0,0,0l-1.2,2.4c-0.3,0.6-0.1,1.3,0.5,1.6
			c0.6,0.3,1.3,0.1,1.6-0.5l1.2-2.4C17.9,12.9,17.7,12.2,17.1,11.9C17.1,11.9,17.1,11.9,17.1,11.9z"/>
	</g>
</g>
<g id="Group_1556" transform="translate(9.511 7.133)">
	<g id="Group_1555">
		<path id="Path_1535" class="st0" d="M17.7,11.7h-2.4c-0.7,0-1.2,0.5-1.2,1.2c0,0.7,0.5,1.2,1.2,1.2c0,0,0,0,0,0h2.4
			c0.7,0,1.2-0.5,1.2-1.2C18.9,12.3,18.4,11.8,17.7,11.7C17.7,11.7,17.7,11.7,17.7,11.7z"/>
	</g>
</g>
<g id="Group_1558" transform="translate(0 19.101)">
	<g id="Group_1557">
		<path id="Path_1536" class="st0" d="M20.1,11.7h-4.8c-0.7,0-1.2,0.5-1.2,1.2v19c0,0.7,0.5,1.2,1.2,1.2h4.8c0.7,0,1.2-0.5,1.2-1.2
			v-19C21.3,12.3,20.8,11.7,20.1,11.7z"/>
	</g>
</g>
<g id="Group_1560" transform="translate(9.511 7.212)">
	<g id="Group_1559">
		<path id="Path_1537" class="st0" d="M40.3,26.8c-0.3-1.9-1.9-3.2-3.8-3.2h-9.3c0.8-1.4,1.2-5.4,1.2-7c-0.1-2.7-2.3-4.9-5-4.9h-1
			c-0.7,0-1.2,0.5-1.2,1.2c0,0,0,0,0,0c0,2.7-1.1,7.7-3.1,9.7c-1.2,1.1-2.5,2-4,2.6v17.8c3.1,1.2,6.4,1.9,9.8,1.9h7.8
			c2,0.1,3.7-1.4,3.8-3.4c0-0.5-0.1-1-0.2-1.5c1.9-0.5,3-2.5,2.5-4.4c0-0.1-0.1-0.3-0.1-0.4c1.9-0.5,3-2.5,2.5-4.4
			c-0.1-0.5-0.4-1-0.8-1.4C40.1,28.8,40.4,27.8,40.3,26.8z"/>
	</g>
</g>
</svg>
