<?xml version="1.0" encoding="utf-8"?>
<!-- Generator: Adobe Illustrator 23.0.3, SVG Export Plug-In . SVG Version: 6.00 Build 0)  -->
<svg version="1.1" id="icon-payment-02" xmlns="http://www.w3.org/2000/svg" xmlns:xlink="http://www.w3.org/1999/xlink" x="0px"
	 y="0px" width="64px" height="64px" viewBox="0 0 64 64" style="enable-background:new 0 0 64 64;" xml:space="preserve">
<style type="text/css">
	.st0{fill:#455A64;}
	.st1{fill:#FFC107;}
</style>
<path id="Path_1516" class="st0" d="M32,7C24.5,7,18.4,13,18.4,20.5v8.3c0,0.6,0.5,1,1,1h4.2c0.6,0,1-0.5,1-1v-8.3
	c0-4,3.3-7.3,7.3-7.3c4,0,7.3,3.3,7.3,7.3v8.3c0,0.6,0.5,1,1,1l0,0h4.2c0.6,0,1-0.5,1-1c0,0,0,0,0,0v-8.3C45.6,13,39.5,7,32,7z"/>
<path id="Path_1517" class="st1" d="M19.5,27.8h25c2.9,0,5.2,2.3,5.2,5.2l0,0v18.8c0,2.9-2.3,5.2-5.2,5.2c0,0,0,0,0,0h-25
	c-2.9,0-5.2-2.3-5.2-5.2l0,0V33C14.3,30.2,16.6,27.8,19.5,27.8C19.5,27.8,19.5,27.8,19.5,27.8z"/>
<path id="Path_1518" class="st0" d="M37.2,39.3c0-2.9-2.3-5.2-5.2-5.2c-2.9,0-5.2,2.3-5.2,5.2c0,2,1.1,3.8,2.9,4.7l-0.8,5.6
	c-0.1,0.6,0.3,1.1,0.9,1.2c0,0,0.1,0,0.1,0h4.2c0.6,0,1-0.5,1.1-1c0-0.1,0-0.1,0-0.2L34.3,44C36.1,43.1,37.2,41.3,37.2,39.3z"/>
</svg>
