<?xml version="1.0" encoding="utf-8"?>
<!-- Generator: Adobe Illustrator 23.0.3, SVG Export Plug-In . SVG Version: 6.00 Build 0)  -->
<svg version="1.1" id="icon-satisfaction" xmlns="http://www.w3.org/2000/svg" xmlns:xlink="http://www.w3.org/1999/xlink" x="0px"
	 y="0px" width="64px" height="64px" viewBox="0 0 64 64" enable-background="new 0 0 64 64" xml:space="preserve">
<path id="Path_1429" fill="#FFC15A" d="M16.1,40.6L36.8,52l20.8-11.4V17.8L36.9,6.4L16.1,17.8V40.6z"/>
<path id="Path_1430" fill="#FFCB7C" d="M57.6,17.8v22.8L36.8,52l0,0V29.2L57.6,17.8L57.6,17.8z"/>
<path id="Path_1431" fill="#FFE6C0" d="M57.6,17.8L57.6,17.8L36.9,29.2L16.1,17.8l0,0L36.9,6.4L57.6,17.8z"/>
<path id="Path_1432" fill="#FFFFFF" d="M24.3,13.3l20.8,11.4l4.4-2.5L28.8,10.8L24.3,13.3z"/>
<path id="Path_1433" fill="#FFFFFF" d="M45.1,24.7v7.1l4.4-2.4v-7.2L45.1,24.7z"/>
<path id="Path_1434" fill="#91DEF5" d="M32,44.8c0,7.1-5.7,12.8-12.8,12.8c-7.1,0-12.8-5.7-12.8-12.8c0-7.1,5.7-12.8,12.8-12.8
	C26.3,32,32,37.7,32,44.8L32,44.8z"/>
<path id="Path_1435" d="M58.1,16.9L37.3,5.5c-0.3-0.2-0.7-0.2-1,0l-7.8,4.3c-0.2,0-0.3,0.1-0.4,0.2l-12.5,6.9
	c-0.3,0.2-0.5,0.5-0.5,0.9v13.8C7.7,33.9,3.7,41.7,6,49c0.2,0.7,0.5,1.3,0.8,1.9c0.3,0.5,0.9,0.7,1.4,0.4c0.5-0.3,0.7-0.9,0.5-1.4
	C5.8,44.1,8.2,37.1,14,34.2c5.8-2.9,12.9-0.4,15.7,5.4c2.9,5.8,0.4,12.9-5.4,15.7c-3.3,1.6-7.1,1.6-10.3,0c-0.5-0.2-1.1,0-1.4,0.5
	c-0.2,0.5,0,1.1,0.5,1.4c6.9,3.4,15.2,0.5,18.5-6.4c0.1-0.1,0.1-0.3,0.2-0.4l4.5,2.5c0.3,0.2,0.7,0.2,1,0l20.8-11.4
	c0.3-0.2,0.5-0.5,0.5-0.9v-7.2c0-0.6-0.5-1-1-1s-1,0.5-1,1V40L37.9,50.2V29.8l6.2-3.4v5.4c0,0.6,0.5,1,1,1c0.2,0,0.3,0,0.5-0.1
	l4.5-2.5c0.3-0.2,0.5-0.5,0.5-0.9v-6.5l6-3.3V25c0,0.6,0.5,1,1,1s1-0.5,1-1l0,0v-7.2C58.7,17.4,58.4,17.1,58.1,16.9L58.1,16.9z
	 M36.8,7.6l18.6,10.2L49.6,21L31,10.8L36.8,7.6z M36.8,28L18.3,17.8l6.1-3.3l18.6,10.2L36.8,28z M45.1,23.5L26.5,13.3l2.3-1.3
	l18.6,10.2L45.1,23.5z M29,35c-2.6-2.6-6.1-4.1-9.8-4.1c-0.7,0-1.4,0.1-2.1,0.2V19.6l18.7,10.3v20.4l-3.2-1.8
	c0.3-1.2,0.5-2.4,0.5-3.7C33.1,41.1,31.6,37.6,29,35L29,35z M48.5,28.7L46.1,30v-4.7l2.4-1.3V28.7z"/>
<path id="Path_1436" d="M57.6,28.1c-0.6,0-1,0.5-1,1c0,0.6,0.5,1,1,1c0.6,0,1-0.5,1-1c0-0.3-0.1-0.5-0.3-0.7
	C58.1,28.2,57.9,28.1,57.6,28.1z"/>
<path id="Path_1437" d="M15.7,45.8c0.6,0,1-0.5,1-1c0-0.3-0.1-0.5-0.3-0.7l-0.7-0.7h6.1c1.5,0,2.7,1.2,2.7,2.7
	c0,1.5-1.2,2.7-2.7,2.7h-3.6c-0.6,0-1.1,0.4-1.1,1s0.4,1.1,1,1.1c0,0,0,0,0.1,0h3.6c2.6,0,4.8-2.1,4.8-4.8c0-2.6-2.1-4.8-4.8-4.8
	c0,0,0,0,0,0h-6.1l0.7-0.7c0.4-0.4,0.4-1.1,0-1.5c-0.4-0.4-1.1-0.4-1.5,0c0,0,0,0,0,0l-2.5,2.5c-0.4,0.4-0.4,1.1,0,1.5l2.5,2.5
	C15.2,45.7,15.4,45.8,15.7,45.8z"/>
<path id="Path_1438" d="M10.1,54.9c-0.3,0-0.6-0.1-0.8-0.4l0,0C9,54.1,9,53.4,9.5,53.1c0.4-0.4,1.1-0.3,1.5,0.1
	c0.4,0.4,0.3,1.1-0.1,1.5C10.6,54.8,10.4,54.9,10.1,54.9L10.1,54.9z"/>
</svg>
