<?xml version="1.0" encoding="utf-8"?>
<!-- Generator: Adobe Illustrator 23.0.3, SVG Export Plug-In . SVG Version: 6.00 Build 0)  -->
<svg version="1.1" id="icon-quality-02" xmlns="http://www.w3.org/2000/svg" xmlns:xlink="http://www.w3.org/1999/xlink" x="0px"
	 y="0px" width="64px" height="64px" viewBox="0 0 64 64" style="enable-background:new 0 0 64 64;" xml:space="preserve">
<style type="text/css">
	.st0{fill:#FFD15C;}
	.st1{fill:#40596B;}
	.st2{fill:#F8B64C;}
	.st3{fill:#FFFFFF;}
</style>
<circle id="Ellipse_94" class="st0" cx="32" cy="26.9" r="19.7"/>
<g id="Group_1544" transform="translate(0 31.221)">
	<path id="Path_1505" class="st1" d="M16,7.2L9.2,19l7.9-0.4l3.6,7.1L27,14.7C22.5,13.6,18.7,10.9,16,7.2z"/>
	<path id="Path_1506" class="st1" d="M48,7.1c-2.7,3.7-6.6,6.4-11,7.6l6.3,10.9l3.6-7.1l7.9,0.4L48,7.1z"/>
</g>
<circle id="Ellipse_95" class="st2" cx="32" cy="26.9" r="14.3"/>
<path id="Path_1507" class="st3" d="M41.8,25.3c0.3-0.3,0.3-0.8,0-1.1c-0.1-0.1-0.3-0.2-0.4-0.2l-5.6-0.8c-0.2,0-0.5-0.2-0.6-0.4
	l-2.5-5.1c-0.2-0.4-0.6-0.5-1-0.3c-0.1,0.1-0.3,0.2-0.3,0.3l-2.5,5.1c-0.1,0.2-0.3,0.4-0.6,0.4l-5.6,0.8c-0.4,0.1-0.7,0.4-0.6,0.9
	c0,0.2,0.1,0.3,0.2,0.4l4.1,4c0.2,0.2,0.3,0.4,0.2,0.7l-1,5.6c-0.1,0.4,0.2,0.8,0.6,0.9c0.2,0,0.3,0,0.5-0.1l5-2.7
	c0.2-0.1,0.5-0.1,0.7,0l5,2.7c0.4,0.2,0.8,0,1-0.3c0.1-0.1,0.1-0.3,0.1-0.5l-1-5.6c0-0.2,0-0.5,0.2-0.7L41.8,25.3z"/>
</svg>
