<?xml version="1.0" encoding="utf-8"?>
<!-- Generator: Adobe Illustrator 23.0.3, SVG Export Plug-In . SVG Version: 6.00 Build 0)  -->
<svg version="1.1" id="Layer_1" xmlns="http://www.w3.org/2000/svg" xmlns:xlink="http://www.w3.org/1999/xlink" x="0px" y="0px"
	 width="64px" height="64px" viewBox="0 0 64 64" style="enable-background:new 0 0 64 64;" xml:space="preserve">
<style type="text/css">
	.st0{fill:#FFD15C;}
</style>
<g id="icon-satisfaction-03" transform="translate(0 -49.095)">
	<g id="Group_1546" transform="translate(0 49.095)">
		<path id="Path_1529" class="st0" d="M53,47.3l-2.2-7.8c-2.6-9.1-10.2-15.8-19.6-17.3v-5.9c0-0.8-0.6-1.4-1.4-1.4
			c-0.3,0-0.5,0.1-0.7,0.2L11.5,26.6c-0.6,0.4-0.8,1.3-0.4,1.9c0.1,0.2,0.2,0.3,0.4,0.4l17.6,11.4c0.6,0.4,1.5,0.2,1.9-0.4
			c0.1-0.2,0.2-0.5,0.2-0.7v-5.5c9.9,1.3,13.7,7.6,19.4,14.8c0.5,0.6,1.3,0.7,1.9,0.2C53,48.4,53.2,47.8,53,47.3L53,47.3z"/>
	</g>
</g>
</svg>
