<?xml version="1.0" encoding="utf-8"?>
<!-- Generator: Adobe Illustrator 23.0.3, SVG Export Plug-In . SVG Version: 6.00 Build 0)  -->
<svg version="1.1" id="Layer_1" xmlns="http://www.w3.org/2000/svg" xmlns:xlink="http://www.w3.org/1999/xlink" x="0px" y="0px"
	 width="64px" height="64px" viewBox="0 0 64 64" style="enable-background:new 0 0 64 64;" xml:space="preserve">
<style type="text/css">
	.st0{fill:#00DD80;}
	.st1{fill:#FFFFFF;}
	.st2{fill:#455A64;}
</style>
<g id="icon-payment-03" transform="translate(-0.5 0)">
	<path id="Path_1519" class="st0" d="M50.9,40.1c-1.2,3.4-3.2,6.6-5.9,9.1c-3.3,3.1-7.2,5.4-11.4,6.8c-0.4,0.1-0.7,0.2-1.1,0.2h0
		c-0.2,0-0.5,0-0.7-0.1c-0.2,0-0.3-0.1-0.5-0.1c-4.3-1.4-8.2-3.7-11.5-6.8c-2.6-2.6-4.6-5.7-5.9-9.1c-2.4-6.4-2.2-13.5-2.1-19.2
		v-0.1c0-0.5,0-1,0-1.5c0-2.7,2.2-4.9,4.8-5c5.1-0.1,9.9-2.2,13.6-5.7l0,0c1.2-1.1,3-1.1,4.2,0l0,0c3.6,3.6,8.5,5.6,13.6,5.7
		c2.7,0.2,4.8,2.3,4.8,5c0,0.5,0,1,0,1.5v0C53.2,26.6,53.3,33.7,50.9,40.1z"/>
	<path id="Path_1521" class="st1" d="M44.6,32c0,6.6-5.4,12-12,12.1h0c-6.7,0-12.1-5.4-12.1-12.1c0-6.7,5.4-12.1,12.1-12.1
		c0,0,0,0,0,0h0C39.2,20,44.6,25.4,44.6,32z"/>
	<path id="Path_1523" class="st2" d="M38,30.3l-5.4,5.4l-1.2,1.2c-0.6,0.6-1.5,0.6-2,0l-2.5-2.5c-0.6-0.6-0.6-1.5,0-2s1.5-0.6,2,0
		l1.5,1.5l5.6-5.6c0.6-0.6,1.5-0.6,2,0S38.5,29.7,38,30.3L38,30.3z"/>
</g>
</svg>
