<?xml version="1.0" encoding="utf-8"?>
<!-- Generator: Adobe Illustrator 23.0.3, SVG Export Plug-In . SVG Version: 6.00 Build 0)  -->
<svg version="1.1" id="icon-quality" xmlns="http://www.w3.org/2000/svg" xmlns:xlink="http://www.w3.org/1999/xlink" x="0px"
	 y="0px" width="64px" height="64px" viewBox="0 0 64 64" enable-background="new 0 0 64 64" xml:space="preserve">
<path id="Path_1459" fill="#FFBFAB" d="M49.8,38.9c1.7,0,3.1,1.4,3.1,3.1c0,1.7-1.4,3.1-3.1,3.1h-1.4l0,0.1c1.7,0.4,2.7,2.1,2.3,3.8
	c-0.3,1.4-1.6,2.4-3.1,2.4h-2.1c1.7,0,3.1,1.4,3.1,3.1c0,1.7-1.4,3.1-3.1,3.1H34.3c-5.7,0-7.2-0.7-12.8-2.1V34.7
	c0.1-0.1,16.7-3.1,16.7-13.2v-1c0-1.7,1.4-3.1,3.1-3.1c1.7,0,3.1,1.4,3.1,3.1c0.3,4.2-0.4,8.3-2.1,12.1h9.4c1.7,0,3.1,1.4,3.1,3.1
	c0,1.7-1.4,3.1-3.1,3.1L49.8,38.9z"/>
<path id="Path_1460" fill="#7BD8E8" d="M21.6,34.7v20.9c0,1.2-0.9,2.1-2.1,2.1c0,0,0,0,0,0H9V32.6h10.4
	C20.6,32.6,21.6,33.6,21.6,34.7C21.6,34.7,21.6,34.7,21.6,34.7z"/>
<path id="Path_1461" d="M42.4,11.1V6.3c0-0.6-0.5-1-1-1s-1,0.5-1,1c0,0,0,0,0,0v4.8c0,0.6,0.5,1,1,1C42,12.2,42.4,11.7,42.4,11.1
	C42.4,11.1,42.4,11.1,42.4,11.1z"/>
<path id="Path_1462" d="M17.4,37.9c-0.6,0-1,0.5-1,1c0,0.6,0.5,1,1,1c0.6,0,1-0.5,1-1C18.4,38.3,18,37.9,17.4,37.9
	C17.4,37.9,17.4,37.9,17.4,37.9z"/>
<path id="Path_1463" d="M51.9,31.6h-7.8c1.2-3.2,1.7-6.6,1.6-10c0-0.4,0-0.8-0.1-1.2c0-2.3-1.9-4.2-4.2-4.1c-2.3,0-4.2,1.9-4.1,4.2
	l0,0v1c0,6.6-8.5,10.3-14.9,11.9c-0.5-1.1-1.6-1.9-2.9-1.9H9c-0.6,0-1,0.5-1,1v0v25.1c0,0.6,0.5,1,1,1h10.4c1.2,0,2.4-0.7,2.9-1.9
	c0.5,0.1,1,0.3,1.5,0.4c3.4,1,7,1.5,10.5,1.5h11.2c2.3,0,4.2-1.9,4.2-4.2c0-0.8-0.2-1.6-0.7-2.3c2.2-0.8,3.3-3.2,2.6-5.3
	c-0.1-0.3-0.3-0.6-0.5-0.9c2.2-0.8,3.3-3.2,2.6-5.3c-0.1-0.3-0.3-0.6-0.5-0.9c2.2-0.8,3.3-3.2,2.6-5.3
	C55.2,32.7,53.6,31.6,51.9,31.6L51.9,31.6z M20.5,55.6c0,0.6-0.5,1-1,1h-9.4v-23h9.4c0.6,0,1,0.5,1,1V55.6z M51.9,37.9h-5.2
	c-0.6,0-1,0.5-1,1s0.5,1,1,1c0,0,0,0,0,0h3.1c1.2,0,2.1,1,2,2.1c0,1.1-0.9,2-2,2h-5.2c-0.6,0-1,0.5-1,1c0,0.6,0.5,1,1,1h3.1
	c1.2,0,2.1,0.9,2.1,2c0,1.2-0.9,2.1-2,2.1c0,0-0.1,0-0.1,0h-5.2c-0.6,0-1,0.5-1,1c0,0.6,0.5,1,1,1h3.1c1.2,0,2.1,1,2,2.1
	c0,1.1-0.9,2-2,2H34.3c-3.4,0.1-6.8-0.4-10-1.4c-0.5-0.1-1.1-0.3-1.7-0.4V35.6c7.6-1.8,16.7-6.2,16.7-14v-1c0-1.2,1-2.1,2.1-2
	c1.1,0,2,0.9,2,2l0,0c0.3,3.8-0.3,7.6-1.7,11.1h-3.5c-0.6,0-1,0.5-1,1c0,0.6,0.5,1,1,1h13.6c1.2,0,2.1,0.9,2.1,2
	C54,36.9,53.1,37.8,51.9,37.9C51.9,37.9,51.9,37.9,51.9,37.9L51.9,37.9z"/>
<path id="Path_1464" d="M17.4,42c-0.6,0-1,0.5-1,1l0,0v8.4c0,0.6,0.5,1,1,1c0.6,0,1-0.5,1-1v-8.4C18.4,42.5,17.9,42,17.4,42z"/>
<path id="Path_1465" d="M27.8,19.5c0,0.6,0.5,1,1,1H33c0.6,0,1-0.5,1-1c0-0.6-0.5-1-1-1c0,0,0,0,0,0h-4.2
	C28.3,18.4,27.8,18.9,27.8,19.5z"/>
<path id="Path_1466" d="M48.7,19.5c0,0.6,0.5,1,1,1l0,0h4.2c0.6,0,1-0.5,1-1c0-0.6-0.5-1-1-1h-4.2C49.2,18.4,48.7,18.9,48.7,19.5
	C48.7,19.5,48.7,19.5,48.7,19.5z"/>
<path id="Path_1467" d="M49.5,9.9l-3,3c-0.4,0.4-0.4,1.1,0,1.5c0.4,0.4,1.1,0.4,1.5,0l0,0l3-3c0.4-0.4,0.4-1.1,0-1.5
	C50.6,9.5,49.9,9.5,49.5,9.9z"/>
<path id="Path_1468" d="M36.2,14.3c0.4-0.4,0.4-1.1,0-1.5c0,0,0,0,0,0l-3-3c-0.4-0.4-1.1-0.4-1.5,0c-0.4,0.4-0.4,1.1,0,1.5l3,3
	C35.2,14.7,35.8,14.7,36.2,14.3C36.2,14.3,36.2,14.3,36.2,14.3z"/>
</svg>
