<?xml version="1.0" encoding="utf-8"?>
<!-- Generator: Adobe Illustrator 23.0.3, SVG Export Plug-In . SVG Version: 6.00 Build 0)  -->
<svg version="1.1" id="icon-payment" xmlns="http://www.w3.org/2000/svg" xmlns:xlink="http://www.w3.org/1999/xlink" x="0px"
	 y="0px" width="64px" height="64px" viewBox="0 0 64 64" enable-background="new 0 0 64 64" xml:space="preserve">
<path id="Path_1469" fill="#ACD5DF" d="M20.4,29.9h4.3v-5.8l-2.2-2.9l-2.2,2.9V29.9z"/>
<path id="Path_1470" fill="#ACD5DF" d="M39.3,24.2v5.8h4.3v-5.8l-2.2-2.9L39.3,24.2z"/>
<path id="Path_1471" fill="#91DEF5" d="M43.6,19.7c0-6.4-5.2-11.6-11.7-11.6c-6.4,0-11.6,5.2-11.6,11.6v4.4h4.3v-4.4
	c0-4,3.3-7.3,7.3-7.3c4,0,7.3,3.3,7.3,7.3v4.4h4.3V19.7z"/>
<path id="Path_1472" fill="#373E9F" d="M43.6,27h-2.9v4.3h4.3v-2.9C45.1,27.7,44.4,27,43.6,27L43.6,27z"/>
<path id="Path_1473" fill="#6241EA" d="M40.8,27H20.4c-0.8,0-1.4,0.6-1.4,1.4c0,0,0,0,0,0v2.9h23.3v-2.9C42.2,27.7,41.6,27,40.8,27
	L40.8,27z"/>
<path id="Path_1474" fill="#FFB820" d="M48,55.9h-2.9L35,42.9l10.1-13H48V55.9z"/>
<path id="Path_1475" fill="#FFD06A" d="M16,29.9h29.1v26H16V29.9z"/>
<path id="Path_1476" fill="#373E9F" d="M34.2,41.5c0-1.2-1-2.2-2.2-2.2c-1.2,0-2.2,1-2.2,2.2c0,0.6,0.3,1.2,0.7,1.6v3.4h2.9v-3.4
	C33.9,42.7,34.2,42.1,34.2,41.5z"/>
<path id="Path_1477" d="M32,38.6c-1.6,0-2.9,1.3-2.9,2.9c0,0.7,0.3,1.4,0.7,1.9v3.1c0,0.4,0.3,0.7,0.7,0.7h2.9
	c0.4,0,0.7-0.3,0.7-0.7v-3.1c1.1-1.2,0.9-3-0.2-4.1C33.4,38.9,32.7,38.6,32,38.6L32,38.6z M33,42.6c-0.2,0.1-0.2,0.3-0.2,0.5v2.7
	h-1.4v-2.7c0-0.2-0.1-0.4-0.2-0.5c-0.6-0.5-0.6-1.4-0.1-2c0.5-0.6,1.4-0.6,2-0.1c0.6,0.5,0.6,1.4,0.1,2C33,42.5,33,42.5,33,42.6
	L33,42.6z"/>
<path id="Path_1478" d="M48,29.2h-2.2v-0.7c0-0.9-0.6-1.7-1.4-2v-6.7c0.1-6.8-5.4-12.4-12.3-12.5c-6.8-0.1-12.4,5.4-12.5,12.3
	c0,0.1,0,0.1,0,0.2v6.7c-0.9,0.3-1.4,1.1-1.4,2v0.7H16c-0.4,0-0.7,0.3-0.7,0.7l0,0v26c0,0.4,0.3,0.7,0.7,0.7l0,0h32
	c0.4,0,0.7-0.3,0.7-0.7l0,0v-26C48.7,29.5,48.4,29.2,48,29.2L48,29.2z M32,8.8c6,0,10.9,4.9,10.9,10.9v6.6H40v-6.6c0-4.4-3.6-8-8-8
	c-1.5,0-3.1,0.4-4.4,1.3c-0.3,0.2-0.4,0.7-0.2,1c0.2,0.3,0.6,0.4,1,0.2c3.1-2,7.1-1.1,9.1,1.9c0.7,1.1,1.1,2.3,1.1,3.6v6.6H25.4
	v-6.6c0-1.3,0.4-2.6,1.1-3.7c0.2-0.3,0.1-0.8-0.2-1s-0.8-0.1-1,0.2c0,0,0,0,0,0c-0.9,1.3-1.4,2.9-1.4,4.5v6.6h-2.9v-6.6
	C21.1,13.7,26,8.8,32,8.8z M19.6,28.5c0-0.4,0.3-0.7,0.7-0.7h23.3c0.4,0,0.7,0.3,0.7,0.7v0.7H19.6V28.5z M47.3,55.2H16.7V30.7h30.5
	L47.3,55.2z"/>
</svg>
