<?xml version="1.0" encoding="utf-8"?>
<!-- Generator: Adobe Illustrator 23.0.3, SVG Export Plug-In . SVG Version: 6.00 Build 0)  -->
<svg version="1.1" id="icon-satisfaction-04" xmlns="http://www.w3.org/2000/svg" xmlns:xlink="http://www.w3.org/1999/xlink"
	 x="0px" y="0px" width="64px" height="64px" viewBox="0 0 64 64" style="enable-background:new 0 0 64 64;" xml:space="preserve">
<style type="text/css">
	.st0{fill:#2A4054;}
</style>
<g id="Group_1547">
	<path id="Path_1530" class="st0" d="M32,11.7c-11.2,0-20.3,9.1-20.3,20.3S20.8,52.2,32,52.2S52.2,43.2,52.2,32
		C52.2,20.8,43.2,11.8,32,11.7z M43.8,32.8c0,0.5-0.4,0.8-0.8,0.8c0,0,0,0,0,0H25.6l3.6,3.6c0.2,0.2,0.2,0.4,0.2,0.6v1.7
		c0,0.5-0.4,0.8-0.8,0.8c-0.2,0-0.4-0.1-0.6-0.2l-7.6-7.6c-0.3-0.3-0.3-0.9,0-1.2c0,0,0,0,0,0l7.6-7.6c0.3-0.3,0.9-0.3,1.2,0
		c0.2,0.2,0.2,0.4,0.2,0.6v1.7c0,0.2-0.1,0.4-0.2,0.6l-3.6,3.6H43c0.5,0,0.8,0.4,0.8,0.8c0,0,0,0,0,0L43.8,32.8z"/>
</g>
</svg>
