<?xml version="1.0" encoding="utf-8"?>
<!-- Generator: Adobe Illustrator 23.0.3, SVG Export Plug-In . SVG Version: 6.00 Build 0)  -->
<svg version="1.1" id="icon-quality" xmlns="http://www.w3.org/2000/svg" xmlns:xlink="http://www.w3.org/1999/xlink" x="0px"
	 y="0px" width="64px" height="64px" viewBox="0 0 64 64" style="enable-background:new 0 0 64 64;" xml:space="preserve">
<style type="text/css">
	.st0{fill:#2D3748;}
	.st1{fill:#FFFFFF;}
</style>
<path class="st0" d="M35,7.9l1.6,1.4c0.9,0.8,2,1.2,3.2,1.2l2.1-0.1c2.3-0.1,4.3,1.6,4.5,3.8l0.3,2.1c0.2,1.2,0.8,2.2,1.7,2.9
	l1.7,1.3c1.8,1.4,2.3,3.9,1,5.8l-1.1,1.8c-0.6,1-0.8,2.2-0.6,3.3l0.5,2.1c0.5,2.2-0.8,4.5-3,5.1l-2,0.6c-1.1,0.3-2,1.1-2.6,2.2
	l-1,1.9c-1.1,2-3.5,2.9-5.6,2l-2-0.8c-1.1-0.4-2.3-0.4-3.4,0l-2,0.8c-2.1,0.9-4.5,0-5.6-2l-1-1.9c-0.5-1-1.5-1.8-2.6-2.2l-2-0.6
	c-2.2-0.7-3.5-2.9-3-5.1l0.5-2.1c0.3-1.1,0-2.3-0.6-3.3L13,26.4c-1.2-1.9-0.8-4.5,1-5.8l1.7-1.3c0.9-0.7,1.5-1.8,1.7-2.9l0.3-2.1
	c0.3-2.3,2.3-3.9,4.5-3.8l2.1,0.1c1.2,0.1,2.3-0.4,3.2-1.2L29,7.9C30.7,6.4,33.3,6.4,35,7.9z"/>
<circle class="st1" cx="32" cy="26.2" r="13.1"/>
<g>
	<path class="st0" d="M29.7,32.6c-0.4,0-0.9-0.2-1.2-0.5l-4.7-4.7c-0.7-0.7-0.7-1.8,0-2.5c0.7-0.7,1.8-0.7,2.5,0l3.5,3.5l8-8
		c0.7-0.7,1.8-0.7,2.5,0c0.7,0.7,0.7,1.8,0,2.5L31,32.1C30.6,32.5,30.2,32.6,29.7,32.6z"/>
</g>
<path class="st0" d="M26.7,47.5c-2.3,0-4.4-1.3-5.4-3.3l-1-1.9c-0.3-0.6-0.9-1.1-1.6-1.3l-1.9-0.6L15,44.1l-4,8
	c-0.2,0.4-0.3,0.9-0.1,1.3c0.1,0.4,0.4,0.8,0.8,0.9l6.8-2.5l2.1,6.9c0.4,0.2,0.8,0.2,1.2,0c0.4-0.2,0.7-0.5,1-0.9l4-8l1.3-2.6
	C27.6,47.4,27.1,47.5,26.7,47.5z"/>
<path class="st0" d="M49,44.1l-1.8-3.7L45.3,41c-0.7,0.2-1.2,0.7-1.6,1.3l-1,1.9c-1.1,2-3.1,3.3-5.4,3.3c-0.5,0-0.9-0.1-1.4-0.2
	l1.3,2.6l4,8c0.2,0.4,0.6,0.7,1,0.9c0.4,0.2,0.8,0.2,1.2,0l2.1-6.9l6.8,2.5c0.4-0.2,0.6-0.5,0.8-0.9c0.1-0.4,0.1-0.9-0.1-1.3
	L49,44.1z"/>
</svg>
