<?xml version="1.0" encoding="utf-8"?>
<!-- Generator: Adobe Illustrator 23.0.3, SVG Export Plug-In . SVG Version: 6.00 Build 0)  -->
<svg version="1.1" id="icon-satisfaction" xmlns="http://www.w3.org/2000/svg" xmlns:xlink="http://www.w3.org/1999/xlink" x="0px"
	 y="0px" width="64px" height="64px" viewBox="0 0 64 64" enable-background="new 0 0 64 64" xml:space="preserve">
<path fill="#2D3748" d="M12,53.6c0,2.5,2.1,4.6,4.6,4.6H52c0-2.3,0-49.6,0-52.5H16.6c-2.5,0-4.6,2.1-4.6,4.6V53.6z"/>
<path fill="#FFE9B3" d="M48.9,55.2H16.6c-0.8,0-1.5-0.7-1.5-1.5V14.7c0.5,0.2,1,0.3,1.5,0.3h32.3V55.2z"/>
<path fill="#FFE9B3" d="M16.6,8.8h32.3v3.1H16.6c-0.8,0-1.5-0.7-1.5-1.5S15.8,8.8,16.6,8.8z"/>
<circle fill="#2D3748" cx="32" cy="35.1" r="13.8"/>
<circle fill="#A1E4FF" cx="32" cy="35.1" r="10.8"/>
<path fill="#2D3748" d="M30.5,33.5h3.1v9.2h-3.1V33.5z"/>
<path fill="#2D3748" d="M30.5,27.4h3.1v3.1h-3.1V27.4z"/>
</svg>
