<?xml version="1.0" encoding="utf-8"?>
<!-- Generator: Adobe Illustrator 23.0.3, SVG Export Plug-In . SVG Version: 6.00 Build 0)  -->
<svg version="1.1" id="icon-satisfaction-02" xmlns="http://www.w3.org/2000/svg" xmlns:xlink="http://www.w3.org/1999/xlink"
	 x="0px" y="0px" width="64px" height="64px" viewBox="0 0 64 64" style="enable-background:new 0 0 64 64;" xml:space="preserve">
<style type="text/css">
	.st0{fill:#F7CAA5;}
	.st1{fill:#FEDB41;}
	.st2{fill:#455A64;}
	.st3{fill:#EDB288;}
	.st4{fill:#FFD15C;}
	.st5{fill:#91DEF5;}
</style>
<path id="Path_1508" class="st0" d="M41.4,47.9l7-3.3c1.6-0.8,3.4-0.2,4.3,1.3l-14.3,9.3c-1.9,0.9-4.1,1.1-6.1,0.7l-9.9-2.8
	c-0.9-0.3-1.9-0.1-2.7,0.3l-2.1,1.1l0.3-10.1H18c3-2.1,6.8-2.4,10-0.7l0.6,0.3c0.9,0.5,1.9,0.7,3,0.8l5.8,0.2
	C39.2,45,40.8,46.2,41.4,47.9L41.4,47.9z"/>
<path id="Path_1509" class="st1" d="M43.3,30.3c0,6-4.9,10.8-10.8,10.8s-10.8-4.9-10.8-10.8c0-6,4.9-10.8,10.8-10.8c0,0,0,0,0,0
	C38.5,19.4,43.3,24.3,43.3,30.3z"/>
<path id="Path_1510" class="st2" d="M32.5,29.4c-1,0-1.8-0.8-1.8-1.8s0.8-1.8,1.8-1.8c1,0,1.8,0.8,1.8,1.8c0,0.4,0.4,0.8,0.8,0.8
	c0.4,0,0.8-0.4,0.8-0.8c0-1.6-1.1-3-2.7-3.4v-0.7c0-0.4-0.4-0.8-0.8-0.8c-0.4,0-0.8,0.4-0.8,0.8l0,0v0.8c-1.8,0.5-2.9,2.4-2.4,4.2
	C29.6,30,31,31,32.5,31c1,0,1.8,0.8,1.9,1.8c0,1-0.8,1.8-1.8,1.9l0,0c-0.1,0-0.2,0-0.3,0c-0.9-0.1-1.6-0.9-1.6-1.8
	c0-0.4-0.4-0.8-0.8-0.8c-0.4,0-0.8,0.4-0.8,0.8l0,0c0,1.5,1,2.9,2.5,3.3v0.8c0,0.4,0.4,0.8,0.8,0.8c0.4,0,0.8-0.4,0.8-0.8v-0.8
	c1.9-0.4,3-2.2,2.6-4.1C35.5,30.5,34.1,29.4,32.5,29.4L32.5,29.4z"/>
<path id="Path_1511" class="st3" d="M41.6,50.2L41.6,50.2l-9.6-0.3c-0.4,0-0.8-0.4-0.8-0.8c0-0.4,0.4-0.8,0.8-0.8l8.6,0.2
	c0-0.1-0.1-0.3-0.1-0.4c-0.5-1.4-1.8-2.4-3.3-2.4l-5.8-0.2c-1.2,0-2.3-0.3-3.3-0.9l-0.6-0.3c-2.9-1.5-6.5-1.3-9.2,0.6
	c-0.4,0.3-0.9,0.2-1.1-0.2c-0.3-0.4-0.2-0.9,0.2-1.1l0,0c3.2-2.3,7.4-2.6,10.9-0.8l0.6,0.3c0.8,0.4,1.7,0.7,2.6,0.7l5.8,0.2
	c2.8,0.1,5.1,2.4,5,5.3c0,0,0,0,0,0C42.4,49.8,42.1,50.2,41.6,50.2L41.6,50.2z"/>
<g id="Group_1545" transform="translate(14.43)">
	<path id="Path_1512" class="st4" d="M18.1,17.2c-0.4,0-0.8-0.4-0.8-0.8c0,0,0,0,0,0V8.7c0-0.4,0.4-0.8,0.8-0.8
		c0.4,0,0.8,0.4,0.8,0.8v7.6C18.9,16.8,18.5,17.2,18.1,17.2C18.1,17.2,18.1,17.2,18.1,17.2z"/>
	<path id="Path_1513" class="st4" d="M24.1,17.2c-0.4,0-0.8-0.4-0.8-0.8v-3.6c0-0.4,0.4-0.8,0.8-0.8c0.4,0,0.8,0.4,0.8,0.8l0,0v3.6
		C24.9,16.8,24.5,17.2,24.1,17.2C24.1,17.2,24.1,17.2,24.1,17.2z"/>
	<path id="Path_1514" class="st4" d="M12.1,17.2c-0.4,0-0.8-0.4-0.8-0.8c0,0,0,0,0,0v-3.6c0-0.4,0.4-0.8,0.8-0.8
		c0.4,0,0.8,0.4,0.8,0.8v3.6C12.9,16.8,12.5,17.2,12.1,17.2C12.1,17.2,12.1,17.2,12.1,17.2z"/>
</g>
<path id="Path_1515" class="st5" d="M17.6,54.5l0,1.1l-6.4-0.2l0.4-14l6.4,0.2l-0.1,2.8L17.6,54.5z"/>
</svg>
