<?xml version="1.0" encoding="utf-8"?>
<!-- Generator: Adobe Illustrator 23.0.3, SVG Export Plug-In . SVG Version: 6.00 Build 0)  -->
<svg version="1.1" id="icon-satisfaction" xmlns="http://www.w3.org/2000/svg" xmlns:xlink="http://www.w3.org/1999/xlink" x="0px"
	 y="0px" width="64px" height="64px" viewBox="0 0 64 64" style="enable-background:new 0 0 64 64;" xml:space="preserve">
<style type="text/css">
	.st0{fill:#2D3748;}
</style>
<path class="st0" d="M32,57.4c-11.4,0-21.4-7.7-24.2-18.8c-0.1-0.5,0.2-0.9,0.6-1.1c0.5-0.1,0.9,0.2,1.1,0.6
	C12.1,48.5,21.4,55.7,32,55.7c12.8,0,23.3-10.4,23.3-23.3c0-0.5,0.4-0.9,0.9-0.9c0.5,0,0.9,0.4,0.9,0.9C57,46.2,45.8,57.4,32,57.4z"
	/>
<path class="st0" d="M7.8,32.4C7.4,32.4,7,32,7,31.6c0-13.8,11.2-25,25-25c11.4,0,21.4,7.7,24.2,18.8c0.1,0.5-0.2,0.9-0.6,1.1
	c-0.5,0.1-0.9-0.2-1.1-0.6C51.9,15.5,42.6,8.3,32,8.3C19.2,8.3,8.7,18.7,8.7,31.6C8.7,32,8.3,32.4,7.8,32.4z"/>
<path class="st0" d="M7.8,32.4c-0.2,0-0.4-0.1-0.6-0.3l-2.6-2.6c-0.3-0.3-0.3-0.9,0-1.2C5,28,5.5,28,5.9,28.4L8.5,31
	c0.3,0.3,0.3,0.9,0,1.2C8.3,32.3,8.1,32.4,7.8,32.4z"/>
<path class="st0" d="M7.8,32.4c-0.2,0-0.4-0.1-0.6-0.3c-0.3-0.3-0.3-0.9,0-1.2l2.6-2.6c0.3-0.3,0.9-0.3,1.2,0c0.3,0.3,0.3,0.9,0,1.2
	l-2.6,2.6C8.3,32.3,8.1,32.4,7.8,32.4z"/>
<path class="st0" d="M58.7,35c-0.2,0-0.4-0.1-0.6-0.3l-2.6-2.6c-0.3-0.3-0.3-0.9,0-1.2c0.3-0.3,0.9-0.3,1.2,0l2.6,2.6
	c0.3,0.3,0.3,0.9,0,1.2C59.2,34.9,59,35,58.7,35z"/>
<path class="st0" d="M53.6,35c-0.2,0-0.4-0.1-0.6-0.3c-0.3-0.3-0.3-0.9,0-1.2l2.6-2.6c0.3-0.3,0.9-0.3,1.2,0c0.3,0.3,0.3,0.9,0,1.2
	l-2.6,2.6C54,34.9,53.8,35,53.6,35z"/>
<path class="st0" d="M16.5,51.8c-0.5,0-0.9-0.4-0.9-0.9V29c0-0.5,0.4-0.9,0.9-0.9c0.5,0,0.9,0.4,0.9,0.9v22
	C17.3,51.4,16.9,51.8,16.5,51.8z"/>
<path class="st0" d="M47.5,51.8c-0.5,0-0.9-0.4-0.9-0.9V29c0-0.5,0.4-0.9,0.9-0.9c0.5,0,0.9,0.4,0.9,0.9v22
	C48.4,51.4,48,51.8,47.5,51.8z"/>
<path class="st0" d="M47.5,29.8H16.5c-0.5,0-0.9-0.4-0.9-0.9c0-0.5,0.4-0.9,0.9-0.9h31.1c0.5,0,0.9,0.4,0.9,0.9
	C48.4,29.4,48,29.8,47.5,29.8z"/>
<path class="st0" d="M16.5,29.8c-0.2,0-0.3,0-0.4-0.1c-0.4-0.2-0.5-0.8-0.3-1.2l2.6-4.3c0.2-0.4,0.8-0.5,1.2-0.3
	c0.4,0.2,0.5,0.8,0.3,1.2l-2.6,4.3C17,29.7,16.8,29.8,16.5,29.8z"/>
<path class="st0" d="M47.5,29.8c-0.3,0-0.6-0.1-0.7-0.4l-2.6-4.3c-0.2-0.4-0.1-0.9,0.3-1.2c0.4-0.2,0.9-0.1,1.2,0.3l2.6,4.3
	c0.2,0.4,0.1,0.9-0.3,1.2C47.8,29.8,47.7,29.8,47.5,29.8z"/>
<path class="st0" d="M44.9,25.5H19.1c-0.5,0-0.9-0.4-0.9-0.9c0-0.5,0.4-0.9,0.9-0.9h25.9c0.5,0,0.9,0.4,0.9,0.9
	C45.8,25.1,45.4,25.5,44.9,25.5z"/>
<path class="st0" d="M28.5,29.8c-0.1,0-0.1,0-0.2,0c-0.5-0.1-0.8-0.5-0.7-1l0.9-4.3c0.1-0.5,0.5-0.8,1-0.7c0.5,0.1,0.8,0.5,0.7,1
	l-0.9,4.3C29.3,29.6,29,29.8,28.5,29.8z"/>
<path class="st0" d="M35.4,29.8c-0.4,0-0.8-0.3-0.8-0.7l-0.9-4.3c-0.1-0.5,0.2-0.9,0.7-1c0.5-0.1,0.9,0.2,1,0.7l0.9,4.3
	c0.1,0.5-0.2,0.9-0.7,1C35.6,29.8,35.5,29.8,35.4,29.8z"/>
<path class="st0" d="M28.5,35c-0.5,0-0.9-0.4-0.9-0.9V29c0-0.5,0.4-0.9,0.9-0.9c0.5,0,0.9,0.4,0.9,0.9v5.2C29.4,34.6,29,35,28.5,35z
	"/>
<path class="st0" d="M35.5,35c-0.5,0-0.9-0.4-0.9-0.9V29c0-0.5,0.4-0.9,0.9-0.9c0.5,0,0.9,0.4,0.9,0.9v5.2
	C36.3,34.6,35.9,35,35.5,35z"/>
<path class="st0" d="M35.5,35c-0.1,0-0.1,0-0.2,0l-3.5-0.9c-0.5-0.1-0.7-0.6-0.6-1c0.1-0.5,0.6-0.7,1-0.6l3.5,0.9
	c0.5,0.1,0.7,0.6,0.6,1C36.2,34.8,35.8,35,35.5,35z"/>
<path class="st0" d="M28.5,35c-0.4,0-0.7-0.3-0.8-0.7c-0.1-0.5,0.2-0.9,0.6-1l3.5-0.9c0.5-0.1,0.9,0.2,1,0.6c0.1,0.5-0.2,0.9-0.6,1
	L28.8,35C28.7,35,28.6,35,28.5,35z"/>
<path class="st0" d="M39.8,45.4H24.2c-0.5,0-0.9-0.4-0.9-0.9c0-0.5,0.4-0.9,0.9-0.9h15.5c0.5,0,0.9,0.4,0.9,0.9
	C40.6,45,40.2,45.4,39.8,45.4z"/>
<path class="st0" d="M39.8,41.9H24.2c-0.5,0-0.9-0.4-0.9-0.9c0-0.5,0.4-0.9,0.9-0.9h15.5c0.5,0,0.9,0.4,0.9,0.9
	C40.6,41.5,40.2,41.9,39.8,41.9z"/>
<path class="st0" d="M35.5,48.8h-6.9c-0.5,0-0.9-0.4-0.9-0.9c0-0.5,0.4-0.9,0.9-0.9h6.9c0.5,0,0.9,0.4,0.9,0.9
	C36.3,48.4,35.9,48.8,35.5,48.8z"/>
</svg>
