<?xml version="1.0" encoding="utf-8"?>
<!-- Generator: Adobe Illustrator 23.0.3, SVG Export Plug-In . SVG Version: 6.00 Build 0)  -->
<svg version="1.1" id="icon-payment" xmlns="http://www.w3.org/2000/svg" xmlns:xlink="http://www.w3.org/1999/xlink" x="0px"
	 y="0px" width="64px" height="64px" viewBox="0 0 64 64" style="enable-background:new 0 0 64 64;" xml:space="preserve">
<style type="text/css">
	.st0{fill:#2D3748;}
</style>
<g>
	<g>
		<path class="st0" d="M51.8,13.2H10.5c-1.5,0-2.6,1.2-2.6,2.6v27c0,1.5,1.2,2.6,2.6,2.6h28.8c0.5,0,0.8-0.4,0.8-0.8
			c0-0.5-0.4-0.8-0.8-0.8H10.5c-0.5,0-1-0.4-1-1v-27c0-0.5,0.4-1,1-1h41.4c0.5,0,1,0.4,1,1v11.7c0,0.5,0.4,0.8,0.8,0.8
			c0.5,0,0.8-0.4,0.8-0.8V15.8C54.5,14.4,53.3,13.2,51.8,13.2z"/>
	</g>
</g>
<g>
	<g>
		<path class="st0" d="M22.2,19.5H15c-1,0-1.7,0.8-1.7,1.7v5.4c0,1,0.8,1.7,1.7,1.7h7.2c1,0,1.7-0.8,1.7-1.7v-5.4
			C23.9,20.3,23.1,19.5,22.2,19.5z M16.8,26.7H15c0,0-0.1,0-0.1-0.1v-5.4c0,0,0-0.1,0.1-0.1h1.9V26.7z M22.2,26.6
			C22.2,26.6,22.2,26.7,22.2,26.6l-3.7,0.1v-1.9h1c0.5,0,0.8-0.4,0.8-0.8s-0.4-0.8-0.8-0.8h-1v-1.9h3.7c0,0,0.1,0,0.1,0.1V26.6z"/>
	</g>
</g>
<g>
	<g>
		<path class="st0" d="M44.2,18.6c-1,0-1.9,0.3-2.7,0.8c-0.8-0.5-1.7-0.8-2.7-0.8c-2.7,0-4.9,2.2-4.9,4.9s2.2,4.9,4.9,4.9
			c1,0,1.9-0.3,2.7-0.8c0.8,0.5,1.7,0.8,2.7,0.8c2.7,0,4.9-2.2,4.9-4.9S46.9,18.6,44.2,18.6z M40.2,26.3c-0.4,0.2-0.9,0.3-1.4,0.3
			c-1.8,0-3.2-1.4-3.2-3.2c0-1.8,1.4-3.2,3.2-3.2c0.5,0,1,0.1,1.4,0.3c-0.6,0.8-0.9,1.8-0.9,2.9C39.3,24.5,39.6,25.5,40.2,26.3z
			 M44.2,26.7c-0.5,0-1-0.1-1.4-0.3c0.6-0.8,0.9-1.8,0.9-2.9c0-0.5-0.4-0.8-0.8-0.8c-0.5,0-0.8,0.4-0.8,0.8c0,0.6-0.2,1.2-0.5,1.7
			c-0.3-0.5-0.5-1.1-0.5-1.7c0-1.8,1.4-3.2,3.2-3.2c1.8,0,3.2,1.4,3.2,3.2C47.4,25.2,46,26.7,44.2,26.7z"/>
	</g>
</g>
<g>
	<g>
		<path class="st0" d="M21.3,33h-7.2c-0.5,0-0.8,0.4-0.8,0.8c0,0.5,0.4,0.8,0.8,0.8h7.2c0.5,0,0.8-0.4,0.8-0.8
			C22.1,33.3,21.7,33,21.3,33z"/>
	</g>
</g>
<g>
	<g>
		<path class="st0" d="M40.1,38.3H14.1c-0.5,0-0.8,0.4-0.8,0.8c0,0.5,0.4,0.8,0.8,0.8h26.1c0.5,0,0.8-0.4,0.8-0.8
			S40.6,38.3,40.1,38.3z"/>
	</g>
</g>
<g>
	<g>
		<path class="st0" d="M32.1,33h-7.2c-0.5,0-0.8,0.4-0.8,0.8c0,0.5,0.4,0.8,0.8,0.8h7.2c0.5,0,0.8-0.4,0.8-0.8S32.5,33,32.1,33z"/>
	</g>
</g>
<g>
	<g>
		<path class="st0" d="M41,33h-5.4c-0.5,0-0.8,0.4-0.8,0.8c0,0.5,0.4,0.8,0.8,0.8H41c0.5,0,0.8-0.4,0.8-0.8C41.9,33.3,41.5,33,41,33
			z"/>
	</g>
</g>
<g>
	<g>
		<path class="st0" d="M56.3,39.4v-3.8c0-3.4-2.8-6.2-6.2-6.2s-6.2,2.8-6.2,6.2v3.8c-1,0.4-1.8,1.3-1.8,2.5V50
			c0,1.5,1.2,2.6,2.6,2.6h10.8c1.5,0,2.6-1.2,2.6-2.6v-8.1C58.1,40.7,57.3,39.7,56.3,39.4z M45.5,35.6c0-2.5,2-4.6,4.6-4.6
			s4.6,2,4.6,4.6v3.7h-9.1L45.5,35.6L45.5,35.6z M56.4,50c0,0.5-0.4,1-1,1H44.6c-0.5,0-1-0.4-1-1v-8.1c0-0.5,0.4-1,1-1h10.8
			c0.5,0,1,0.4,1,1V50z"/>
	</g>
</g>
<g>
	<g>
		<path class="st0" d="M50,42.8c-1.2,0-2.2,1-2.2,2.2c0,0.9,0.6,1.7,1.3,2v1.1c0,0.5,0.4,0.8,0.8,0.8c0.5,0,0.8-0.4,0.8-0.8v-1.1
			c0.8-0.3,1.3-1.1,1.3-2C52.2,43.8,51.2,42.8,50,42.8z M50,45.5c-0.3,0-0.5-0.2-0.5-0.5c0-0.3,0.2-0.5,0.5-0.5
			c0.3,0,0.5,0.2,0.5,0.5S50.3,45.5,50,45.5z"/>
	</g>
</g>
</svg>
