<?xml version="1.0" encoding="utf-8"?>
<!-- Generator: Adobe Illustrator 23.0.3, SVG Export Plug-In . SVG Version: 6.00 Build 0)  -->
<svg version="1.1" id="logo" xmlns="http://www.w3.org/2000/svg" xmlns:xlink="http://www.w3.org/1999/xlink" x="0px" y="0px"
	 width="42px" height="42px" viewBox="0 0 42 42" enable-background="new 0 0 42 42" xml:space="preserve">
<g id="Group_786" transform="translate(-0.075)">
	<path id="Path_584" fill="#6FA8DC" d="M30.9,12.6c-0.7,0.7-0.8,1.7-0.3,2.5h-0.1l0.3,0.3l2.8,2.8c2.3,2.4,2.3,6.1,0,8.5L25.3,35
		c-2.1,2.2-5.5,2.5-8,0.7c-2.6-2-3.1-5.8-1.1-8.5c0.1-0.2,0.3-0.4,0.5-0.5l5.6-5.6c0.7-0.7,1.8-0.9,2.6-0.3c0.9,0.7,1.1,1.9,0.4,2.8
		c0,0.1-0.1,0.1-0.1,0.2l-5.6,5.6c-0.7,0.7-0.9,1.8-0.3,2.6c0.7,0.9,1.9,1.1,2.8,0.4c0.1,0,0.1-0.1,0.2-0.1l7.1-7.1
		c1.6-1.5,1.6-4.1,0.1-5.6c0,0,0,0-0.1-0.1L16.8,6.9c-0.7-0.8-2-0.8-2.7-0.1c0,0,0,0-0.1,0.1l-9.2,9.2c-3.5,3.5-3.5,9.2,0,12.7
		l9.9,9.9c3.5,3.5,9.2,3.5,12.7,0l9.9-9.9c3.5-3.5,3.5-9.2,0-12.7l-3.5-3.5C33,11.8,31.7,11.8,30.9,12.6z"/>
	<path id="Path_585" fill="#B8DDFF" d="M19.6,1.3L19.6,1.3c0.7-0.8,2-0.8,2.7-0.1c0,0,0,0,0.1,0.1l5.7,5.6c0.8,0.7,0.8,2,0.1,2.7
		c0,0,0,0-0.1,0.1l0,0c-0.7,0.8-2,0.8-2.7,0.1c0,0,0,0-0.1-0.1L19.6,4c-0.7-0.7-0.8-1.8-0.1-2.6C19.5,1.4,19.6,1.3,19.6,1.3z"/>
</g>
</svg>
