<?xml version="1.0" encoding="utf-8"?>
<!-- Generator: Adobe Illustrator 23.0.3, SVG Export Plug-In . SVG Version: 6.00 Build 0)  -->
<svg version="1.1" id="Layer_1" xmlns="http://www.w3.org/2000/svg" xmlns:xlink="http://www.w3.org/1999/xlink" x="0px" y="0px"
	 width="42px" height="42px" viewBox="0 0 42 42" style="enable-background:new 0 0 42 42;" xml:space="preserve">
<style type="text/css">
	.st0{fill:#8FC6EF;}
	.st1{fill:#6FA8DC;}
</style>
<g id="logo-3" transform="translate(-476.729 -223.725)">
	<path id="Path_1503" class="st0" d="M517.9,241.7h-3.8c-0.4-2.3-1.3-4.4-2.6-6.3l2.7-2.7c0.3-0.3,0.3-0.9,0-1.2c0,0,0,0,0,0
		l-3.1-3.1c-0.3-0.3-0.9-0.3-1.2,0c0,0,0,0,0,0l-2.7,2.7c-1.9-1.3-4.1-2.2-6.3-2.6v-3.8c0-0.5-0.4-0.9-0.9-0.9h-4.4
		c-0.5,0-0.9,0.4-0.9,0.9v3.8c-2.3,0.4-4.4,1.3-6.3,2.6l-2.7-2.7c-0.3-0.3-0.9-0.3-1.2,0c0,0,0,0,0,0l-3.1,3.1
		c-0.3,0.3-0.3,0.9,0,1.2l2.7,2.7c-1.3,1.9-2.2,4.1-2.6,6.3h-3.8c-0.5,0-0.9,0.4-0.9,0.9v4.4c0,0.5,0.4,0.9,0.9,0.9h3.8
		c0.4,2.3,1.3,4.4,2.6,6.3l-2.7,2.7c-0.3,0.3-0.3,0.9,0,1.2l3.1,3.1c0.3,0.3,0.9,0.3,1.2,0l2.7-2.7c1.9,1.3,4.1,2.2,6.3,2.6v3.8
		c0,0.5,0.4,0.9,0.9,0.9h4.4c0.5,0,0.9-0.4,0.9-0.9v-3.8c1.6-0.3,3.2-0.8,4.6-1.6l-4-4c-5.9,2-12.4-1.1-14.4-7.1
		c-2-5.9,1.1-12.4,7.1-14.4c5.9-2,12.4,1.1,14.4,7.1c0.8,2.4,0.8,5,0,7.4l4,4c0.8-1.4,1.3-3,1.6-4.6h3.8c0.5,0,0.9-0.4,0.9-0.9v-4.4
		C518.7,242.1,518.3,241.7,517.9,241.7z"/>
	<path id="Path_1504" class="st1" d="M513.6,256.2l-7.9-7.9c2-4.4,0.1-9.6-4.3-11.6c-1.9-0.9-4.1-1-6.1-0.4l2.1,2.1l2.1,2.1
		l-1.7,4.2l-4.2,1.7l-2.1-2.1l-2.1-2.1c-1.4,4.6,1.3,9.5,5.9,10.9c2,0.6,4.2,0.4,6.1-0.4l7.9,7.9c1.2,1.2,3.1,1.2,4.3,0
		C514.8,259.4,514.8,257.4,513.6,256.2L513.6,256.2z"/>
</g>
</svg>
