<?xml version="1.0" standalone="no"?>
<!DOCTYPE svg PUBLIC "-//W3C//DTD SVG 20010904//EN"
 "http://www.w3.org/TR/2001/REC-SVG-20010904/DTD/svg10.dtd">
<svg version="1.0" xmlns="http://www.w3.org/2000/svg"
 width="700.000000pt" height="700.000000pt" viewBox="0 0 700.000000 700.000000"
 preserveAspectRatio="xMidYMid meet">
<metadata>
Created by potrace 1.11, written by Peter Selinger 2001-2013
</metadata>
<g transform="translate(0.000000,700.000000) scale(0.100000,-0.100000)"
fill="#000000" stroke="none">
<path d="M3395 5980 c-91 -47 -145 -131 -141 -220 2 -30 10 -73 20 -94 11 -28
133 -156 399 -423 406 -407 426 -423 518 -423 71 0 120 21 176 75 55 54 76
104 75 183 -2 87 -19 107 -421 502 -210 206 -396 383 -413 394 -46 29 -161 33
-213 6z"/>
<path d="M2705 5290 c-48 -23 -1275 -1251 -1321 -1320 -16 -25 -32 -47 -35
-50 -4 -3 -30 -53 -58 -112 -93 -192 -130 -410 -106 -618 9 -79 50 -231 80
-296 14 -30 25 -57 25 -59 0 -8 90 -154 109 -178 41 -52 168 -182 758 -771
444 -445 653 -648 706 -684 193 -133 431 -207 654 -203 64 1 147 9 173 16 8 2
29 7 46 10 54 9 167 46 234 78 172 80 196 102 910 816 372 372 686 688 698
703 274 343 324 802 132 1193 -27 55 -57 111 -67 124 -74 97 -147 176 -359
387 -269 268 -292 284 -401 281 -58 -2 -125 -28 -167 -65 -39 -35 -69 -102
-73 -165 -8 -108 6 -130 239 -366 218 -220 279 -298 324 -418 90 -235 55 -506
-90 -708 -52 -72 -1130 -1149 -1202 -1201 -247 -178 -604 -180 -856 -6 -200
138 -323 403 -303 654 13 166 94 362 185 447 14 13 189 186 390 385 209 208
380 369 400 378 92 43 203 25 269 -43 50 -49 80 -127 74 -188 -8 -93 -35 -126
-427 -521 -338 -340 -374 -380 -388 -425 -52 -163 56 -316 222 -317 111 -1
120 6 643 531 346 349 480 490 500 527 74 141 71 327 -8 471 -38 69 -1654
1685 -1712 1713 -57 27 -145 27 -198 0z"/>
</g>
</svg>
