<svg xmlns="http://www.w3.org/2000/svg" width="24" height="24" viewBox="0 0 24 24"><path fill="#32B7E9" d="M12 0C5.4 0 .1 5.3.1 11.9c0 4.9 3 9.3 7.6 11-.1-1.1-.1-2.3 0-3.4.1-.9 1.3-6 1.3-6-.2-.5-.3-1.1-.3-1.6 0-1.6.9-2.8 2.1-2.8.8 0 1.5.6 1.5 1.4v.2c-.2 1.4-.5 2.7-1 4-.2.9.3 1.8 1.2 2 .2 0 .4.1.6 0 2.1 0 3.7-2.2 3.7-5.5.1-2.6-2-4.8-4.6-4.9h-.3c-2.9 0-5.3 2.2-5.4 5v.3c0 1 .3 1.9.9 2.7.1.1.2.3.1.4-.1.4-.2.9-.3 1.3 0 .1-.1.3-.4.1-1.5-.7-2.4-2.8-2.4-4.6 0-3.7 2.7-7.2 7.9-7.2 4.2 0 7.3 3 7.3 6.9 0 4.2-2.5 7.5-6.3 7.5-1.1.1-2.1-.4-2.7-1.3 0 0-.6 2.2-.7 2.8-.4 1.1-.9 2.1-1.5 3.1 1.2.5 2.4.7 3.6.7 6.6 0 12-5.4 12-12S18.6 0 12 0z"/></svg>