<svg xmlns="http://www.w3.org/2000/svg" width="32" height="32" viewBox="0 0 32 32"><path fill="#32B7E9" d="M21.3 4c1.8-.1 3.6.6 4.8 2 1.1-.2 2.2-.5 3.2-1.1.3-.2.5-.3.8-.4-.5 1.1-1.2 2.1-2.1 2.9-.1.2-.5.3-.6.4 1.2-.1 2.4-.4 3.5-.9-.5.9-1.2 1.7-2.1 2.4-.3.3-.6.4-.9.8.1 1.3 0 2.6-.3 3.9-1.5 6.8-5.6 11.4-11.9 13.4-2.8.9-5.7 1-8.6.3-1.2-.3-2.4-.7-3.6-1.2-.6-.3-1.1-.6-1.7-.9-.2-.1-.3-.1-.6-.3.6.1 1.3.1 2 0 .6-.3 1.2-.1 1.8-.3 1.3-.3 2.5-.7 3.6-1.4.4-.3 1.4-.6 1.7-1.1-.6 0-1.2-.1-1.8-.3-1.8-.6-3.3-2.1-3.9-3.9.9.1 1.8.1 2.7-.1-.7-.1-1.4-.3-2-.8-1.8-1.1-2.9-3.1-2.9-5.3.2.1.5.1.6.3.4.2.8.3 1.2.3.2 0 .6.1.9 0-.5 0-.9-.3-1.2-.6-1.3-1.5-1.8-3.6-1.3-5.6.1-.4.4-.9.6-1.5.2.3.4.4.6.8.5.6 1.1 1.2 1.8 1.6 2.1 1.8 4.6 3 7.4 3.6.9.2 1.8.3 2.7.3-.2-.9-.2-1.9 0-2.9.4-1.8 1.7-3.3 3.5-4l1.2-.4h.9z"/></svg>