<svg xmlns="http://www.w3.org/2000/svg" width="24" height="24.002" viewBox="0 0 24 24.002"><path data-name="Path 574" d="M23.765 20.299l-4.777-4.775 3.408-1.968a.8.8 0 00-.1-1.441l-15.2-6.062a.8.8 0 00-1.043 1.046l6.061 15.2a.8.8 0 001.441.1l1.968-3.408 4.776 4.777a.8.8 0 001.135 0l2.331-2.331a.8.8 0 000-1.138z" fill="#afb7be"/><path data-name="Path 575" d="M3.524 2.389a.803.803 0 00-1.135 1.135l1.783 1.785a.803.803 0 101.135-1.135z" fill="#afb7be"/><path data-name="Path 576" d="M4.128 7.938a.8.8 0 00-.8-.8H.803a.802.802 0 100 1.605h2.522a.8.8 0 00.803-.805z" fill="#afb7be"/><path data-name="Path 577" d="M3.801 10.418l-1.784 1.784a.803.803 0 001.135 1.135l1.784-1.784a.803.803 0 10-1.135-1.135z" fill="#afb7be"/><path data-name="Path 578" d="M7.937 4.128a.8.8 0 00.8-.8V.8a.801.801 0 00-1.603 0v2.525a.8.8 0 00.803.803z" fill="#afb7be"/><path data-name="Path 579" d="M10.981 5.173a.8.8 0 00.568-.235l1.783-1.784a.803.803 0 10-1.135-1.135l-1.78 1.784a.8.8 0 00.568 1.37z" fill="#afb7be"/></svg>