<svg xmlns="http://www.w3.org/2000/svg" width="24" height="24" viewBox="0 0 24 24"><g fill="#AFB7BE"><path d="M7.9 9.9c-.3.3-.3.7 0 1l3.6 3.6c.1.1.3.2.5.2s.4-.1.5-.2l3.6-3.6c.3-.3.2-.7 0-1-.3-.2-.7-.2-.9 0l-2.4 2.4V.7c-.1-.4-.4-.7-.8-.7s-.7.3-.7.7v11.6L8.9 9.9c-.3-.3-.7-.3-1 0z"/><path d="M23.1 15.4l-2.4-8.5c-.1-.2-.2-.4-.4-.4h-.1c-.1 0-.2-.1-.3-.1h-4.2c-.4 0-.7.3-.7.7s.3.7.7.7h3.8l2 7.2h-5.3c-.4 0-.7.3-.7.7v.6c0 .9-.7 1.6-1.6 1.6H9.8c-.9 0-1.6-.7-1.6-1.6v-.6c0-.4-.3-.7-.7-.7h-5l2-7.2h3.8c.4 0 .7-.3.7-.7s-.4-.8-.7-.8H4c-.1 0-.2 0-.3.1h-.1c-.1.1-.2.3-.3.5L.9 15.4v3.8c0 2.7 2.2 4.9 4.9 4.9h12.4c2.7 0 4.9-2.2 4.9-4.9v-3.8zm-1.4 3.7c0 1.9-1.6 3.5-3.5 3.5H5.8c-1.9 0-3.5-1.6-3.5-3.5v-2.9h4.6c0 1.6 1.4 2.9 3 2.9H14c1.6 0 2.9-1.3 3-2.9h4.8l-.1 2.9z"/></g></svg>