<svg xmlns="http://www.w3.org/2000/svg" width="24" height="24" viewBox="0 0 24 24"><path fill="#32B7E9" d="M12.2 2.1H17c.8 0 1.5.2 2.3.5.5.2 1 .5 1.4.9.4.3.8.8.9 1.4.2.7.4 1.5.5 2.3v9.7c0 .8-.2 1.5-.5 2.3-.2.5-.5 1-.9 1.4-.3.4-.8.8-1.4.9-.7.2-1.5.4-2.3.5H7.3c-.8 0-1.5-.2-2.3-.5-.5-.2-1-.5-1.4-.9-.3-.6-.7-1-.8-1.6-.2-.7-.4-1.5-.5-2.3V7.1c0-.8.2-1.5.5-2.3.2-.5.5-1 .9-1.4.3-.4.8-.7 1.4-.8.7-.2 1.5-.3 2.3-.3 1.5-.2 3.1-.3 4.8-.2m0-2.1h-5c-1 0-2 .2-2.9.6-.8.3-1.5.8-2.1 1.4C1.5 2.6 1 3.4.7 4.2.4 5.2.2 6.1.1 7.1v10c0 1 .2 2 .6 2.9.3.7.7 1.4 1.3 2s1.3 1.1 2.1 1.4c1 .3 1.9.5 2.9.6h10c1 0 2-.2 2.9-.6 1.6-.6 2.9-1.9 3.5-3.5.3-.9.5-1.9.6-2.9V7c0-1-.2-2-.6-2.9-.4-.7-.8-1.4-1.4-2S20.7 1 19.9.7C18.9.4 18 .2 17 .2c-1.6-.2-3.2-.3-4.8-.2z"/><path fill="#32B7E9" d="M12.2 5.9C8.7 5.9 6 8.7 6 12.1s2.8 6.2 6.2 6.2 6.2-2.8 6.2-6.2-2.7-6.2-6.2-6.2zm0 10.3c-2.3 0-4.1-1.8-4.1-4.1S9.9 8 12.2 8s4.1 1.8 4.1 4.1c-.1 2.2-1.9 4-4.1 4.1z"/><circle fill="#32B7E9" cx="18.6" cy="5.6" r="1.5"/></svg>