<svg xmlns="http://www.w3.org/2000/svg" width="24" height="24" viewBox="0 0 24 24"><path data-name="Path 581" d="M12 0a9.187 9.187 0 00-9.177 9.177v8.47a2.118 2.118 0 104.235 0v-7.059A2.12 2.12 0 004.94 8.47a2.094 2.094 0 00-.676.121 7.757 7.757 0 0115.47-.006 2.08 2.08 0 00-.676-.115 2.12 2.12 0 00-2.118 2.118v7.059a2.12 2.12 0 002.118 2.118 2.093 2.093 0 00.706-.13v.836a.707.707 0 01-.706.706h-5.069a2.118 2.118 0 100 1.412h5.071a2.12 2.12 0 002.118-2.118V9.177A9.187 9.187 0 0012 0zm0 0" fill="#afb7be"/><path data-name="Path 582" d="M22.588 10.015v8.21A2.114 2.114 0 0024 16.237v-4.235a2.115 2.115 0 00-1.412-1.987zm0 0" fill="#afb7be"/><path data-name="Path 583" d="M0 11.999v4.235a2.114 2.114 0 001.412 1.988v-8.208A2.114 2.114 0 000 12zm0 0" fill="#afb7be"/></svg>