<svg xmlns="http://www.w3.org/2000/svg" width="24" height="24" viewBox="0 0 24 24"><g fill="#AFB7BE"><path d="M3.7 2.8c-.2 0-.4.1-.6.2-.2.2-.3.5-.3.7v12.9c0 .5.4.9.9.9 2 0 5.3.4 7.7 2.8V6.8c0-.2 0-.3-.1-.4-2-3.1-5.6-3.6-7.6-3.6zm17.5 13.8V3.7c0-.2-.1-.4-.3-.6-.2-.2-.4-.2-.6-.2-2 0-5.6.5-7.5 3.5-.1.1-.1.3-.1.4v13.5c2.3-2.4 5.7-2.8 7.7-2.8.4-.1.8-.5.8-.9z"/><path d="M23.1 5.8h-.6v10.8c0 1.2-1 2.2-2.2 2.2-2.4-.1-4.7.7-6.5 2.2 3-.6 6.1-.6 9.1.2.5.1.9-.2 1-.6V6.7c.1-.5-.3-.9-.8-.9zM1.5 16.6V5.8H.9c-.5 0-.9.4-.9.9v13.6c0 .5.4.9.9.9h.2c3-.7 6.1-.8 9.1-.2a9.51 9.51 0 00-6.5-2.2c-1.2 0-2.2-1-2.2-2.2z"/></g></svg>