<svg xmlns="http://www.w3.org/2000/svg" width="132.186" height="20.667" viewBox="0 0 132.186 20.667"><g fill="#e71a24" fill-rule="evenodd"><path data-name="Path 710" d="M10.931 7.647c1.815 0 3.237.019 5.053.015 3.771-.182 5.487-4.672 1.673-4.908h-3.456a2.336 2.336 0 00-2.366 1.6l-.9 3.295zm-2.746 9.231c1.815 0 3.237.019 5.053.015 5.668-.049 6.678-6.774 1.85-6.525h-5l-1 3.216-.9 3.295zm5.185 3.283H0L6.215 0h14.036c10.412 0 7.049 7.7 2.031 8.789a.147.147 0 00.049.27c6.235 1.926 4.667 11.455-8.961 11.1z"/><path data-name="Path 711" d="M33.919 20.181h-6.635c0-.5 2.883-9.572 2.975-9.85 1.9-5.768 10.167-6.077 15.23-5.636l-.662 2.69c-6.922-.291-7.534 1.88-9.131 7.046l-1.778 5.751z"/><path data-name="Path 712" d="M55.977 15.589c-.579 2.205-3.895 2.078-5.065.607-1.6-2.016-.489-6.661 7.489-8.581-.764 2.549-1.955 6.533-2.424 7.974zm5.51 4.537l-12.871-.076c-10.727-.187-7.7-16.891 17.412-15.31l-4.54 15.387z"/><path data-name="Path 713" d="M104.979 15.776c-.579 2.205-3.895 2.078-5.065.607-1.6-2.015-.489-6.661 7.489-8.581-.764 2.549-1.955 6.533-2.424 7.974zm5.51 4.537l-12.871-.076c-9.693-.169-8.157-13.824 10.757-15.288l1.357-4.61 6.748.012-5.991 19.963z"/><path data-name="Path 714" d="M73.146 20.125l-6.767.088 2.925-9.115c2.64-6.686 8.043-6.445 15.543-6.163 2.652.171 6.129.8 4.67 5.429a547.853 547.853 0 00-2.994 9.8l-6.9.088 2.866-9.187c1.006-2.86-.139-3.729-1.707-3.8a4.49 4.49 0 00-4.814 3.379l-2.822 9.478z"/><path data-name="Path 715" d="M129.585 16.877l-.837 3.2c-2.446.369-6.69 1-9.257.188-2.658-.719-3.211-2.572-2.58-4.621 0-.006 4.584-13.858 4.584-15.322l6.679.088-1.212 4.863 5.223.076-.574 2.493-5.532-.044-1.937 6.526c-1.168 3.935 3.393 2.7 5.442 2.549z"/></g></svg>