<svg xmlns="http://www.w3.org/2000/svg" width="728.7" height="132.2" viewBox="0 0 728.7 132.2"><path d="M459.5 2.5H491v127.6h-31.5zM415 60.9h-42.8V2.5h-31.5v127.6h31.5V73H415v57.1h31.5V2.5H415zM178.9 2.5l-54.2 127.6h16.8l9.2-21.8h43.9l9.8 21.8h31.9L178.9 2.5zm-22.7 93.6l16-37.8L189 96.1h-32.8zm-8.9-93.6L91.9 68.8 34.8 2.5H0l67.8 79.6-.8 48h32.5V82.3l67.1-79.8zm523.9 0l-54.1 127.6h16.8l9.2-21.8H687l9.8 21.8h31.9L671.2 2.5zm-22.7 93.6l16-37.8 16.8 37.8h-32.8zM567.4.4c-32.3 0-65.9 18.5-65.9 68 0 36.1 32.5 62.8 65.3 62.8 22.5 0 41.6-11.9 49.7-24.8V85.6c-5.7 8.4-19.8 32.3-44.1 32.3-25.6 0-42.4-27.7-42.4-49.5s8-56.2 42.8-56.2c24.1 0 39.6 25.3 43.7 34v-21C609.4 16.5 598.6.4 567.4.4zM308.3 60.9c-9.7-5.5-34.3-12.4-42.4-18.9-6.3-5-5-10.9-5-14.3s3.8-17.2 21.8-16.8c18 .4 34.4 16.8 43.2 30.6V20.1C319.2 12.6 303.7 0 281.8 0s-43.2 12.2-43.2 36.5 13.4 29.4 23.5 34.4c4.1 2 28.5 8 35.7 16 7.1 8 5.9 11.3 5.9 15.5s-5.4 19.9-20.6 18.5c-17.2-1.7-31.5-11.3-44.5-33.2v21.8c3.8 5 18.5 22.7 47 22.7s42.8-18.7 44.1-36.1c1.2-17.2-11.8-29.8-21.4-35.2z"/></svg>