<svg xmlns="http://www.w3.org/2000/svg" width="652" height="140" viewBox="0 0 652 140"><path fill="#8A8A8D" d="M333.8 97.7c-5-.3-9.6-2.1-13.1-6-3-3.4-4.4-7.3-4.8-11.5V51.8c.6-4.7 2.6-9.3 6.3-12.7 3.3-3.1 7.3-4.3 11.6-4.6h43.7c5.5.5 10.2 2.8 14.1 6.9 2.8 3.5 4.3 7.6 4.6 12.1v25.3c-.3 5.7-2.4 10.7-6.8 14.6-3.3 2.9-7.1 4.1-11.3 4.4l-44.3-.1zm47.3-12.6c2.3-1.7 3-3.6 3.2-5.8V53.1c-.1-1.9-1.1-3.5-2.4-4.9-1.2-1.2-2.9-1.9-4.2-2h-44.1c-1.8 0-2.8.7-3.9 1.9-1.8 2-2.2 4.6-2.3 5.5v25c.2 2.9 1 4.3 2.7 5.8 1.3 1.2 1.9 1.4 3.7 1.5H378c0 .1 1.8.2 3.1-.8"/><text transform="translate(606.559 43.066)" fill="#8A8A8D" font-family="'ArialMT'" font-size="9.074">TM</text><path fill="#8A8A8D" d="M195.6 41.3c-4.1-4.2-8.9-6.5-14.4-6.8h-56.4c-3 .2-5.5 2.7-5.5 5.8 0 3 2.2 5.4 5.1 5.8.1 0 .1.1.2.1h56.9c1.6.3 3.1.9 4.5 2 1.3 1.3 2 2.7 2.1 4.2v3.3c-.1 1.3-.5 2.4-1.2 3.3-1.4 1.7-3.2 2.6-5.2 2.9H125c-.1 0-.3.1-.4.1h-.1c-.3.1-.6.1-.8.3-2.1.8-3.6 2.7-3.7 5v24.6c0 1.2.4 2.4 1.1 3.3v.1c.1.1.2.1.3.2 1.1 1.3 2.6 2.1 4.4 2.1.8 0 1.6-.2 2.4-.5h.1c.1 0 .1-.1.1-.1 1.9-1 3.2-2.9 3.2-5.2V73.7h50.2c4.4 0 8.3-1.7 11.7-4.4 4.5-3.6 6.6-8.4 6.9-13.8v-3.1c-.7-4-2.2-7.8-4.8-11.1m97.2 44.6s0 .1 0 0h-63.5V40.2c0-3.2-2.6-5.8-5.8-5.8s-5.8 2.6-5.8 5.8v51.6c0 3.2 2.6 5.8 5.8 5.8h69.2c3.2 0 5.9-2.6 5.9-5.9.1-3.1-2.5-5.8-5.8-5.8"/><path fill="#EA7200" d="M97.1 86.6L69.4 64.8l24.4-19.5c.2-.2.4-.3.7-.5l.1-.1c1.2-1.1 1.9-2.6 1.9-4.3 0-3.2-2.6-5.9-5.9-5.9-1.2 0-2.4.4-3.3 1.1L60 57.2 33.6 36.3c-1.1-1.2-2.6-1.9-4.4-1.9-3.3 0-6 2.7-6 6 0 2.2 1.1 4 2.9 5.1l24.5 19.1-28.7 22.8-.1.1c-1.2 1.1-2 2.6-2 4.4 0 3.3 2.7 5.9 5.9 5.9 1.5 0 2.8-.6 3.8-1.5 0 0 0 .1-.1.1L60 72.2l30.7 24.2c1 .7 2.2 1.2 3.5 1.2 3.3 0 5.9-2.7 5.9-5.9 0-2.2-1.2-4.1-3-5.1"/><path fill="#8A8A8D" d="M495.6 72.8c-1.3-3.1-3.1-5.4-5.2-6.9 2.2-2.7 3.3-6.3 3.5-10.8 0 0 0-1.6-.1-2.1-.1-1-.2-2.3-.2-2.3-.7-3.4-2.1-6.5-4.2-9.3-4.1-4.3-8.9-6.6-14.7-6.9h-52.1c-3.2 0-5.9 2.6-5.9 5.9 0 3.1 2.4 5.6 5.4 5.8 0 0 .1 0 .1.1h53c1.7.1 3.4.9 4.5 2 1.3 1.4 2.1 3 2.2 4.8v2.2c0 1.5-.6 2.7-1.4 3.9-1.4 1.7-3.4 2.9-5.1 2.9h-53.1c-.1 0-.2 0-.3.1-2.8.3-5 2.5-5.2 5.3 0 0 0 .1-.1.1v23.8c0 .2-.1.5-.1.7 0 3.2 2.6 5.9 5.9 5.9 3.2 0 5.9-2.6 5.9-5.9 0-.2 0-.5-.1-.7V74h50.9c1.4.1 2.6.6 3.7 1.5 1.3 1.3 2 2.7 2.2 4.3v12.3c0 3.3 2.7 5.9 5.9 5.9 1.5 0 2.8-.5 3.8-1.4l.3-.3.1-.1c.5-.5.9-1 1.2-1.7 0-.1.1-.2.1-.3.1-.2.1-.4.2-.6 0-.2.1-.4.1-.6s.1-.3.1-.5V80.4c.2-3-.3-5.4-1.3-7.6M592.5 86h-63.4V70.4h56.4c.1 0 .2-.1.3-.1 3.1-.1 5.6-2.7 5.6-5.9 0-3.3-2.6-5.9-5.9-5.9h-62.1c-3.3 0-5.9 2.7-5.9 5.9 0 .2 0 .4.1.6v26.2c0 .2-.1.4-.1.6 0 3.3 2.6 5.9 5.9 5.9h69.2c3.2 0 5.9-2.6 5.9-5.9-.1-3.2-2.7-5.8-6-5.8m-73.4-41.3c.9.8 1.9 1.3 3.1 1.5l.2.1h69.7c3.2 0 5.9-2.6 5.9-5.9 0-3.2-2.6-5.9-5.9-5.9h-69.3c-3.1.2-5.6 2.7-5.6 5.9 0 1.7.7 3.2 1.9 4.3"/></svg>