<svg version="1.1" id="layer" xmlns="http://www.w3.org/2000/svg" x="0" y="0" width="652" height="224" viewBox="0 0 652 224" xml:space="preserve"><style>.st0{fill-rule:evenodd;clip-rule:evenodd;fill:#006338}</style><path class="st0" d="M59.3 177.9c-2.7-1.1-5.3-1.6-8.6-1.6-5.9 0-12.3 3.2-12.3 10.7 0 11.8 15.5 9.1 15.5 15.5 0 3.2-3.7 4.3-6.4 4.3s-5.3-.5-7.5-2.1l-1.1 6.4c3.7 1.1 5.3 1.1 9.1 1.1 7 0 13.4-2.7 13.4-10.2 0-11.8-15.5-9.1-15.5-15 0-3.7 3.2-4.8 5.4-4.8 2.7 0 4.8.5 7.5 1.1l.5-5.4m70.6 27.8c-1.6.5-4.8 1.1-8 1.1-7 0-11.8-5.3-11.8-12.3s4.8-12.3 11.8-12.3c2.7 0 4.8 0 7.5 1.6l.5-5.9c-2.7-1.1-5.3-1.6-8-1.6-11.8 0-18.7 7-18.7 18.7 0 11.8 7.5 17.1 18.7 17.1 2.7 0 5.4 0 8-1.1v-5.3m40.6 5.9h7v-34.7h-7v34.7m53 0h20.3v-5.3h-13.4v-9.6h12.3v-5.4h-12.3v-8.5h13.4v-5.9h-20.3v34.7m64.7 0h6.4V186l13.4 25.6h8.5v-34.7h-6.4v26.2h-.5l-12.9-26.2h-8.5v34.7m78.6 0h6.9v-28.8h10.2v-5.9h-27.3v5.9h10.2v28.8m62 0h7v-34.7h-7v34.7m52.4 0h7v-14.9h11.7v-5.4h-11.7v-8.5h12.3v-5.9h-19.3v34.7m62 0h7v-34.7h-7v34.7m77-5.9c-1.6.5-4.8 1.1-7.5 1.1-7.5 0-11.8-5.3-11.8-12.3s4.3-12.3 11.8-12.3c2.1 0 4.8 0 7.5 1.6l.5-5.9c-2.7-1.1-5.9-1.6-8-1.6-11.8 0-19.2 7-19.2 18.7 0 11.8 8 17.1 19.2 17.1 2.7 0 5.4 0 8-1.1l-.5-5.3"/><path d="M33.6 72.6H20.8c.5-37.4 30.5-67.9 67.9-68.5V17c-31 .5-54.5 25.1-55.1 55.6m20.9 0C55.6 53.9 70 38.9 89.3 38.4V27.7c-25.1.5-44.4 20.3-44.9 44.9h10.1zm18.2 0c0-9.1 7-16 16.6-16v-7.5c-13.4 0-23.5 10.7-24.1 23.5h7.5" fill-rule="evenodd" clip-rule="evenodd" fill="#f8992f"/><path class="st0" d="M94 135.7c-29.9 0-54.5-23.5-55.6-54.5h17.7c.5 19.8 17.6 38 38.5 38 23.5 0 38-17.6 38-39.6 0-20.9-14.4-38-34.2-40.1v-16c29.9 2.1 51.9 25.7 51.9 56.2-.1 31.9-23.1 56-56.3 56m132.1-69.5c-4.8-2.7-10.2-3.7-15-3.7-15 0-25.1 11.8-25.1 28.3v42.8h-16V91.9c0-26.2 17.1-44.4 42.8-44.4 6.4 0 12.3 1.1 18.2 3.7l-4.9 15M255 96.1c0 15 11.8 25.1 25.7 25.1 11.8 0 18.2-3.2 25.7-10.7l10.7 10.2c-11.2 11.2-21.9 15-36.9 15-25.1 0-41.7-18.7-41.7-43.9 0-26.2 16.6-44.4 41.2-44.4 26.7 0 40.1 19.3 40.1 46v2.7H255m24.6-34.7c-13.4 0-23 9.1-24.1 21.9h48.7c-1.1-12.8-10.7-21.9-24.6-21.9zm99.5 74.3c-27.3 0-44.4-18.2-44.4-44.4 0-25.7 19.3-43.9 45.5-43.9 11.2 0 23 2.7 34.2 14.4L404.2 72c-8.6-8.6-16-10.7-24.1-10.7-18.7 0-28.9 14.4-28.9 30.5 0 16 10.2 29.4 27.8 29.4 10.7 0 23-8 23.5-21.4H380V86.4h38.5v4.3c.1 27.4-16.4 45-39.4 45m98.9 0c-25.7 0-44.4-19.8-44.4-44.4 0-24.1 19.8-43.9 44.4-43.9 25.1 0 43.8 19.8 43.8 43.9 0 24.6-19.7 44.4-43.8 44.4m0-73.8c-16.6 0-27.8 14.4-27.8 29.4 0 15.5 11.2 29.9 27.8 29.9 16 0 27.3-14.4 27.3-29.9 0-15-11.3-29.4-27.3-29.4zm125.7 71.7V91.4c0-16.6-8.6-28.9-24.6-28.9-15.5 0-24.6 12.3-24.6 28.9v42.2h-16V91.4c0-25.7 15.5-43.9 40.7-43.9 26.2 0 41.2 18.2 41.2 43.9v42.2h-16.7"/></svg>