<svg version="1.0" xmlns="http://www.w3.org/2000/svg" viewBox="0 0 546.5 131"><path d="M90.1 72.6h19.1c.4 0 .8.3.8.8l2 31.8c0 .4.5.5.7.3l34.6-39c.2-.2.1-.4 0-.6L108 28.1c-.3-.3-.7-.1-.7.3l2 31.7c0 .5-.4.9-.8.9H91c-.5 0-.9-.4-.8-.9l2-31.4c0-.4-.4-.6-.7-.3L50.6 65.8c-.2.2-.2.4 0 .6l36 38.9c.3.3.7.1.7-.3l2-31.7c0-.4.4-.7.8-.7z" fill="#ef7d00"/><path d="M178.1 44.9h9.9l12.5 26 5-26H217l-8.8 45.7H199l-13-26.8-5.1 26.8h-11.5l8.7-45.7zm65.4 0h13.4l6.6 45.7h-12l-1-9.6h-14.7l-4.7 9.6h-12.5l24.9-45.7zm6.4 27.5l-1.7-16.9-8.2 16.9h9.9zm24.8-27.5H287l3.6 32 15.6-32h12.5L294 90.6h-12.3l-7-45.7zm55.6 0h11.6l-8.8 45.7h-11.6l8.8-45.7zm93.5 46.3c-2.9 0-5.6-.5-8.1-1.4-2.5-.9-4.6-2.3-6.5-4-1.8-1.7-3.3-3.8-4.3-6.3s-1.5-5.2-1.5-8.2c0-3.7.7-7.3 2-10.7 1.3-3.4 3.1-6.4 5.4-9 2.3-2.6 5.1-4.7 8.4-6.2 3.2-1.5 6.8-2.3 10.7-2.3 2.9 0 5.6.5 8.1 1.4 2.5.9 4.6 2.3 6.5 4 1.8 1.8 3.2 3.9 4.2 6.3s1.5 5.2 1.5 8.2c0 3.8-.6 7.4-1.8 10.8-1.2 3.4-3 6.4-5.2 8.9-2.3 2.6-5.1 4.6-8.3 6.1-3.3 1.7-7 2.4-11.1 2.4zm5-37c-2.1 0-3.9.4-5.6 1.3-1.6.9-3 2.1-4.2 3.5-1.2 1.4-2.1 3.1-2.7 5-.6 1.9-.9 3.8-.9 5.8 0 1.5.2 2.8.6 4.1.4 1.3 1 2.4 1.7 3.3.8.9 1.7 1.7 2.9 2.2 1.2.5 2.5.8 4.1.8 2.1 0 3.9-.4 5.6-1.3s3-2.1 4.2-3.5c1.2-1.4 2.1-3.1 2.7-5 .6-1.9.9-3.8.9-5.8 0-1.4-.2-2.8-.6-4-.4-1.3-1-2.4-1.7-3.4-.8-1-1.7-1.7-2.9-2.3-1.2-.5-2.5-.7-4.1-.7zm36.9-9.8h9.9l12.5 26 5-26h11.5l-8.8 45.7h-9.3l-13-26.8-5.1 26.8h-11.5l8.8-45.7zm-85.3 20.7l-1.7 7.7h4.1l-.1.4-1 5.3c-1.3.9-2.6 1.5-3.9 1.7-1.3.3-2.9.4-4.9.4-1.6 0-2.9-.3-4.1-.9-1.2-.6-2.1-1.4-2.9-2.4-.8-1-1.3-2.2-1.7-3.5-.4-1.3-.5-2.7-.5-4 0-2 .3-3.9.9-5.8.6-1.9 1.5-3.5 2.6-5 1.1-1.4 2.5-2.6 4.1-3.5 1.6-.9 3.4-1.3 5.4-1.3 2.3 0 4.1.4 5.5 1.2 1.4.8 2.6 2.1 3.7 4l9.5-5.3c-1.5-3.4-3.7-6.1-6.7-8.1-2.9-1.9-6.7-2.9-11.3-2.9-3.7 0-7.1.7-10.2 2.2-3.2 1.5-5.9 3.5-8.2 6-2.3 2.5-4.2 5.5-5.5 8.9-1.3 3.4-2 7-2 10.9 0 3.1.5 5.9 1.5 8.4s2.5 4.6 4.3 6.3c1.8 1.8 4 3.1 6.5 4 2.5.9 5.3 1.4 8.3 1.4 3.6 0 6.9-.5 10.1-1.6 3.2-1.1 6-2.5 8.3-4.3l4.4-20.3h-14.5z"/></svg>