<svg version="1.1" id="Layer_1" xmlns="http://www.w3.org/2000/svg" x="0" y="0" viewBox="0 0 159.1 36" xml:space="preserve"><style>.st1{fill:#fff}</style><path fill="#de0029" d="M3.4 8.4h22.5v21.9H3.4z"/><path class="st1" d="M18.1 13.6l2.2 2.8 4.6 5.9-9.1-7.7c-.4-.3-.8-.6-1.1-.9l-3.5 2.9-5.7 4.7c-.4.3-.8.6-1.2 1l.2-.3 5-6.4 2.5-3.2c.2-.2.3-.5.5-.7L14.6 9c1.2 1.6 2.3 3.2 3.5 4.6"/><path class="st1" d="M19.7 22.6l5.2 6.7-5.2-4.4-4.3-3.6-.7-.6-.5.4-2.5 2.1-5.1 4.4-2.2 1.8 2.3-3 5.2-6.8 2.8-3.5.7.9 4.3 5.6"/><path d="M49.3 25.4c-.9 1.6-2.2 2.8-3.8 3.8-1.6.9-3.3 1.4-5.2 1.4-2.9 0-5.4-1-7.4-3.1s-3.1-4.6-3.1-7.5c0-2.9 1-5.4 3.1-7.5 2-2.1 4.5-3.1 7.4-3.1 1.9 0 3.6.5 5.2 1.4 1.6.9 2.9 2.2 3.8 3.8l-3.8 2.3c-.5-.9-1.3-1.6-2.2-2.1-.9-.5-1.9-.8-3-.8-1.7 0-3.1.6-4.3 1.8-1.2 1.2-1.8 2.6-1.8 4.3 0 1.7.6 3.1 1.8 4.3 1.2 1.2 2.6 1.8 4.3 1.8 1.1 0 2.1-.3 3-.8.9-.5 1.7-1.3 2.2-2.2l3.8 2.2M51.7 10h4.5v20.1h-4.5zm17.4 4.3v15.8h-4.5V14.3H58V10h17.7v4.3h-6.6M90 30.1h5.1l-5.3-7.6c1.4-.4 2.5-1.1 3.3-2.1.8-1 1.1-2.4 1.1-4.1 0-2.2-.6-3.8-1.9-4.9-1.2-1-2.9-1.5-5.2-1.5h-9.5V30h4.3v-7.2h3.4l4.7 7.3m-3-16.3c1 0 1.7.2 2.2.6.5.4.7 1.1.7 2 0 1-.3 1.7-.8 2.1-.5.4-1.2.6-2.1.6h-5.1v-5.3H87zm27-1.2c-2-2.1-4.5-3.1-7.4-3.1-2.9 0-5.4 1-7.4 3.1s-3.1 4.6-3.1 7.5c0 2.9 1 5.4 3.1 7.5 2 2.1 4.5 3.1 7.4 3.1 2.9 0 5.4-1 7.4-3.1s3.1-4.6 3.1-7.5c0-3-1-5.5-3.1-7.5m-3.1 11.7c-1.2 1.2-2.6 1.8-4.3 1.8-1.7 0-3.1-.6-4.3-1.8-1.2-1.2-1.8-2.6-1.8-4.3 0-1.7.6-3.1 1.8-4.4 1.2-1.2 2.6-1.8 4.3-1.8 1.7 0 3.1.6 4.3 1.8 1.2 1.2 1.8 2.7 1.8 4.4 0 1.7-.6 3.1-1.8 4.3zm23.8 5.8h-15.1V10h15.1v4h-10.8v3.8h9.6v3.7h-9.6V26h10.8v4.1m-9-22.6c0 .5-.2.9-.5 1.2-.3.3-.7.5-1.2.5s-.9-.2-1.3-.5c-.3-.3-.5-.7-.5-1.2s.2-.9.5-1.3.8-.6 1.2-.6c.5 0 .9.2 1.2.6.4.3.6.8.6 1.3zm6.4 0c0 .5-.2.9-.5 1.2-.3.3-.7.5-1.2.5s-.9-.2-1.2-.5c-.3-.3-.5-.7-.5-1.3 0-.5.2-.9.5-1.3s.8-.6 1.2-.6c.5 0 .9.2 1.2.6.3.5.5.9.5 1.4zM150 30.1l-8-13.2v13.2h-4.3V10h5.2l8.3 13.8V10h4.4v20.1H150"/></svg>