<svg xmlns="http://www.w3.org/2000/svg" width="131.711" height="28.258" viewBox="0 0 131.711 28.258"><path d="M114.098 28.229c0-.016.3-.674.676-1.461l.676-1.432-1.02-1.956a695.967 695.967 0 01-1.138-2.188l-.117-.232.551.015.55.015.816 1.6a17.7 17.7 0 00.87 1.6 17.054 17.054 0 00.813-1.6l.759-1.6.475-.016c.342-.011.469 0 .454.047s-.786 1.676-1.721 3.648l-1.7 3.585h-.473a1.92 1.92 0 01-.471-.025zm-45.66-2.152a2.443 2.443 0 01-1.723-2.518 2.618 2.618 0 011.4-2.448 1.532 1.532 0 01.946-.173 1.9 1.9 0 011.465.467l.346.265v-.705h.918v5.079h-.918v-.766l-.245.252a2.311 2.311 0 01-.6.418 1.731 1.731 0 01-.85.184 2.748 2.748 0 01-.739-.055zm1.559-.9a1.625 1.625 0 00.789-.8 1.771 1.771 0 00.115-.844 1.7 1.7 0 00-.123-.864 1.646 1.646 0 00-1.77-.945 1.679 1.679 0 00-1.226 1.008 1.649 1.649 0 00-.12.8 1.545 1.545 0 00.141.842 1.627 1.627 0 001.1.921 2.1 2.1 0 001.094-.115zm5.605.874a2.456 2.456 0 01-1.631-2.685 2.5 2.5 0 01.95-1.995 2.28 2.28 0 012.937.075l.257.226V17.34h.918v8.7h-.918v-.351a1.17 1.17 0 00-.027-.351 1.532 1.532 0 00-.241.214 2.1 2.1 0 01-.431.324 2.6 2.6 0 01-1.814.179zm1.628-.917a1.863 1.863 0 00.8-.955 2.573 2.573 0 00-.076-1.561 1.574 1.574 0 00-1.461-.87c-1 0-1.594.682-1.594 1.835a1.41 1.41 0 00.177.848 1.463 1.463 0 00.8.773 2.322 2.322 0 001.354-.066zm5.816.934a2.341 2.341 0 01-1.664-1.525 3.056 3.056 0 01.352-2.722 2.245 2.245 0 012.05-.9 1.707 1.707 0 01.939.224 2.087 2.087 0 01.637.458 2.829 2.829 0 01.644 1.805v.26h-3.892l.031.257a1.6 1.6 0 001.032 1.31 1.517 1.517 0 001.046.021 1.344 1.344 0 00.66-.465l.367-.378.2.142c.11.078.258.19.327.249l.127.106-.2.272a2.659 2.659 0 01-1.1.816 3.146 3.146 0 01-1.557.074zm2.039-3.261a2.046 2.046 0 00-.507-.9 1.455 1.455 0 00-2.217.524c-.253.507-.341.475 1.292.475 1.359.004 1.432-.001 1.432-.095zm13.765 3.257a2.549 2.549 0 01-1.858-1.827 3.236 3.236 0 01.031-1.5 2.465 2.465 0 011.052-1.405 2.566 2.566 0 011.49-.424 2.491 2.491 0 012.35 1.422 2.692 2.692 0 01-.432 3.028 2.806 2.806 0 01-2.633.71zm1.277-.891a1.841 1.841 0 00.956-.873 2.227 2.227 0 00.005-1.528 1.939 1.939 0 00-.848-.87 1.784 1.784 0 00-1.789.271 1.9 1.9 0 00-.373 2.244 1.661 1.661 0 002.049.759zm21.643.889a2.51 2.51 0 01-1.87-1.954 2.658 2.658 0 01.755-2.487 2.55 2.55 0 011.849-.714 2.543 2.543 0 012.615 2.645 2.354 2.354 0 01-.724 1.817 2.766 2.766 0 01-2.624.693zm1.2-.852a1.723 1.723 0 001.128-1.135 3 3 0 00.055-.613 1.715 1.715 0 00-.939-1.552 1.683 1.683 0 00-1.418.018 1.737 1.737 0 00-.848.844 2.236 2.236 0 000 1.518 1.718 1.718 0 002.022.924zm5.829.853a1.813 1.813 0 01-1.314-1.1c-.115-.288-.121-.387-.139-2.152l-.019-1.85h.926v1.638c0 1.92.023 2.056.4 2.4a1.312 1.312 0 001.741-.052c.313-.344.316-.365.334-2.247l.017-1.742h.966v1.364c0 2.227-.11 2.812-.6 3.254a2.619 2.619 0 01-2.311.49zm-71.324-2.562v-2.539h.919v.539l.284-.215a1.674 1.674 0 011.121-.378 1.54 1.54 0 011.162.442l.294.268.167-.191a1.688 1.688 0 011.249-.51 1.62 1.62 0 011.642.755l.16.289.016 2.04.016 2.04h-.917l-.017-1.878c-.015-1.658-.028-1.9-.11-2.048a1.1 1.1 0 00-1.883.111c-.092.2-.1.381-.1 2.019v1.8h-.973v-1.759a17.235 17.235 0 00-.06-2 .907.907 0 00-.714-.647 1.189 1.189 0 00-1.234.65 11.443 11.443 0 00-.088 1.959l-.019 1.8h-.911v-2.539zm35.389.405v-2.134h-.756v-.81h.747l.024-1.337a9.878 9.878 0 01.092-1.553 1.3 1.3 0 01.809-.751 2.915 2.915 0 011.157-.053l.251.034v.945l-.2-.072a.9.9 0 00-1.063.264c-.1.141-.113.24-.13 1.337l-.018 1.185h1.36v.81h-1.351v4.268h-.919zm11.508-.405v-2.539h.973v.773l.313-.3a1.387 1.387 0 011.59-.456c.4.152.405.186.15.652l-.224.408-.15-.111a1.063 1.063 0 00-1.251.133 1.67 1.67 0 00-.288.413c-.106.227-.114.351-.13 1.9l-.017 1.661h-.966v-2.539zm-97.873-9.33A7.074 7.074 0 01.007 7.347 6.821 6.821 0 015.136.298c1.071-.292 1.2-.3 6.942-.3h5.308V2.97h-3.255c-1.79 0-3.535.024-3.877.053A4.832 4.832 0 007.17 4.256a3.953 3.953 0 00-.818 4.792 3.469 3.469 0 00.688.873 2.952 2.952 0 001.057.765c.978.47 1.61.562 3.723.538l1.378-.015.014-2.445.014-2.445h5.618v7.888l-6.092-.008c-3.35 0-6.165-.018-6.254-.029zm98.359-7.068v-7.1h5.781v14.21h-5.781zm-82.61 0V.052h6.335c4.287 0 6.492.019 6.821.06a4.319 4.319 0 013.84 2.939 3.311 3.311 0 01.172 1.137 3.75 3.75 0 01-.432 2.078 3.91 3.91 0 01-1.374 1.463l-.333.192.318.258c.683.553 1.1 1.292 2.069 3.653.31.758.652 1.58.759 1.828s.194.461.194.473-1.321.022-2.935.022h-2.935l-.858-1.85c-.472-1.018-.935-1.973-1.029-2.124a2.016 2.016 0 00-.938-.792c-.288-.115-.385-.121-2.179-.139l-1.878-.019v4.924h-5.619V7.104zm10.174-1a1.555 1.555 0 00.63-.359 1.25 1.25 0 00.515-1.1 1.077 1.077 0 00-.166-.7 1.868 1.868 0 00-1.048-.821 7.878 7.878 0 00-2.364-.139l-2.013-.021v3.251h2.047a8.57 8.57 0 002.4-.107zm13.84 7.973a4.005 4.005 0 01-3.343-2.669c-.3-.842-.3-.888-.3-6.337V.052h5.727v4.88a44.072 44.072 0 00.082 5.157 1.861 1.861 0 00.9.992l.285.129h4.484l.014-5.578.014-5.578h5.619v14.1l-6.524-.005c-4.924-.001-6.629-.019-6.957-.07zm16.886-7V-.003l6.794.015 6.794.015.432.121a3.9 3.9 0 012.75 2.4c.336.929.322.665.342 6.379l.019 5.227h-5.623V9.436c0-4.757-.014-5.156-.2-5.509a1.94 1.94 0 00-.725-.716c-.406-.206-.82-.24-2.9-.241h-1.958v11.184h-5.727V7.075zm20.531.028V.053h5.5c5.628 0 6.18.017 7.224.218a7.144 7.144 0 016 5.915 6.688 6.688 0 01-.269 3.144c-.911 2.721-3.281 4.436-6.587 4.765-.383.038-2.567.059-6.227.059h-5.637zm8.833 4.077a4.254 4.254 0 003.616-2.517 4.045 4.045 0 00-.771-4.246A4.4 4.4 0 0093 3.118a11.1 11.1 0 00-2.095-.136l-1.607-.031v8.281h1.364c.75.007 1.584-.018 1.85-.048zm26.749 2.914a7.035 7.035 0 01-6.182-4.731 6.283 6.283 0 01-.357-2.342 6.277 6.277 0 01.325-2.247A6.777 6.777 0 01117.84.297c1.071-.292 1.2-.3 6.942-.3h5.308v2.972h-3.228c-3.371 0-4.184.037-4.9.218a5.367 5.367 0 00-1.73.832 3.907 3.907 0 00-1.544 3.188 3.826 3.826 0 002.19 3.483 7.284 7.284 0 003.705.534l1.324-.017.014-2.445.014-2.445h5.726v7.834l-5.984-.007c-3.291 0-6.176-.027-6.411-.052z" fill="#135798"/></svg>