<svg xmlns="http://www.w3.org/2000/svg" width="180" height="45"><path d="M66.843 15.959h-8.449v-4.122c.039-4.777 1.311-6.552 2.713-7.462 1.44-.945 3.63-1.03 5.736-1.008a1.604 1.604 0 100-3.207c-2.087.014-4.924-.074-7.457 1.5-2.571 1.614-4.23 4.874-4.194 10.177v4.122H51.89a1.61 1.61 0 00-1.609 1.604c0 .886.72 1.608 1.609 1.608h3.3V43.21a1.606 1.606 0 003.21 0c-.002-15.372-.007-16.433-.007-24.039h8.449c.885 0 1.613-.722 1.613-1.608 0-.881-.728-1.604-1.613-1.604m37.782 25.651v-.01c-2.7.023-4.883-.137-6.12-1.064-1.224-.879-2.313-2.783-2.328-7.634v-13.69h8.448a1.604 1.604 0 100-3.207h-8.448V1.765c0-.887-.718-1.604-1.608-1.604-.884 0-1.597.717-1.597 1.603v14.241h-3.3a1.604 1.604 0 100 3.208h3.3v13.689c-.02 5.229 1.22 8.472 3.666 10.241 2.434 1.698 5.286 1.65 7.987 1.664a1.6 1.6 0 100-3.198m73.763.005c-3.462.024-5.58-.36-6.61-1.303-1.056-.872-1.85-2.889-1.838-7.33V19.218h8.448a1.6 1.6 0 001.604-1.604c0-.89-.713-1.604-1.604-1.604h-8.448V1.764A1.59 1.59 0 00168.335.17c-.888 0-1.606.704-1.606 1.594V16.01h-3.299a1.604 1.604 0 100 3.207h3.3v13.764c.01 4.689.738 7.786 2.954 9.75 2.25 1.898 5.147 2.066 8.703 2.08.881 0 1.604-.707 1.604-1.593s-.723-1.6-1.604-1.6m-101.823 1.59V17.564c0-.884.725-1.606 1.603-1.606a1.61 1.61 0 011.609 1.606v25.644c0 .877-.72 1.6-1.609 1.6a1.61 1.61 0 01-1.603-1.6m74.451 0V17.564c0-.884.709-1.606 1.59-1.606a1.61 1.61 0 011.608 1.606v25.644a1.61 1.61 0 01-1.608 1.6c-.881 0-1.59-.723-1.59-1.6m-22.227-1.538c-6.247-.014-11.298-5.055-11.31-11.302.012-6.244 5.063-11.296 11.31-11.3 6.247 0 11.293 5.056 11.307 11.3a11.32 11.32 0 01-11.307 11.303m0-25.816c-4.571 0-8.65 2.12-11.31 5.426V1.766c0-.889-.715-1.602-1.599-1.602-.893 0-1.603.713-1.603 1.602v29.57c0 .112.04.215.064.323.646 7.404 6.862 13.219 14.448 13.219 8.014 0 14.51-6.494 14.51-14.51 0-8.014-6.496-14.508-14.51-14.512M20.475 22.882a2.59 2.59 0 11-5.18 0 2.59 2.59 0 015.18 0zm7.648 0a2.59 2.59 0 11-5.18 0 2.59 2.59 0 015.18 0zm7.648 0a2.59 2.59 0 11-5.18 0 2.59 2.59 0 015.18 0zm-22.944 0a2.59 2.59 0 11-5.18 0 2.59 2.59 0 015.18 0z" fill="#142529"/><path d="M20.475 38.183a2.59 2.59 0 11-5.18 0 2.59 2.59 0 015.18 0zm0-30.593a2.59 2.59 0 11-5.18 0 2.59 2.59 0 015.18 0zm0 23.25a2.59 2.59 0 11-5.18 0 2.59 2.59 0 015.18 0z" fill="#2ebec0"/><path d="M28.123 30.84a2.59 2.59 0 11-5.18 0 2.59 2.59 0 015.18 0z" fill="#142529"/><path d="M12.827 30.84a2.59 2.59 0 11-5.18 0 2.59 2.59 0 015.18 0zm7.648-16.02a2.59 2.59 0 11-5.18 0 2.59 2.59 0 015.18 0z" fill="#2ebec0"/><path d="M28.123 14.82a2.59 2.59 0 11-5.18 0 2.59 2.59 0 015.18 0z" fill="#142529"/><path d="M12.827 14.82a2.59 2.59 0 11-5.18 0 2.59 2.59 0 015.18 0z" fill="#2ebec0"/><path d="M5.189 22.882a2.59 2.59 0 11-5.18 0 2.59 2.59 0 015.18 0z" fill="#142529"/><path d="M81.376 7.242a3.206 3.206 0 11-6.412 0 3.206 3.206 0 016.412 0zm74.444 0a3.206 3.206 0 11-6.412 0 3.206 3.206 0 016.412 0z" fill="#2ebec0"/></svg>