<svg xmlns="http://www.w3.org/2000/svg" width="571.737" height="108.288" viewBox="0 0 14816.15 2806.2" shape-rendering="geometricPrecision" text-rendering="geometricPrecision" image-rendering="optimizeQuality" fill-rule="evenodd" clip-rule="evenodd"><defs><style>.fil0{fill:#000}</style></defs><g id="图层_x0020_1"><path class="fil0" d="M4219.09 0c774.9 0 1403.1 628.19 1403.1 1403.1 0 774.91-628.2 1403.1-1403.1 1403.1-774.91 0-1403.1-628.19-1403.1-1403.1C2815.99 628.19 3444.18 0 4219.09 0zm0 486.12c506.45 0 916.98 410.53 916.98 916.98 0 506.45-410.53 916.98-916.98 916.98-506.45 0-916.98-410.53-916.98-916.98 0-506.45 410.53-916.98 916.98-916.98z"/><path d="M2123.97 2806.2h-531.04V1637.01H530.94V2806.2H0V43.38h530.94v1062.68h1061.99V43.08l531.04.43zm6318.08 0h-408.99L6853.3 1066.25V2806.2h-517.07V50.91h416.22L7941.56 1703.1l-15.7-1659.6h516.19v2762.7zM12662.67 43.51h1160.97c277.29 0 510.13 179.1 601.4 284.84 76.61 88.73 206.53 310.56 206.53 558.4 0 141.46-16 365.48-112.86 525.64-90.16 149.07-272.71 317.74-481.27 368.08l778.7 1025.74h-621.5l-1038.07-1205.63v1205.63h-493.91V43.51zm531.5 478.77v810.69h454.19c315.35 0 461.97-190.52 466.75-411.14 4.31-201.31-205.25-400.78-416.14-400.45l-504.8.9z" fill-rule="nonzero"/><path class="fil0" d="M10559.19 0c774.91 0 1403.1 628.19 1403.1 1403.1 0 774.91-628.19 1403.1-1403.1 1403.1-774.91 0-1403.1-628.19-1403.1-1403.1C9156.09 628.19 9784.28 0 10559.19 0zm0 486.12c506.45 0 916.98 410.53 916.98 916.98 0 506.45-410.53 916.98-916.98 916.98-506.45 0-916.98-410.53-916.98-916.98 0-506.45 410.53-916.98 916.98-916.98z"/></g></svg>