<svg xmlns="http://www.w3.org/2000/svg" width="134.068" height="22.184" viewBox="0 0 134.068 22.184"><g data-name="Group 894"><path data-name="Path 731" d="M87.756 11.311h3.9c1.758 0 3.289-.553 3.289-2.58 0-1.6-1.347-1.942-2.636-1.942h-3.6zm-3.159-8.306h9.214c3.416 0 6.024.865 6.024 4.862 0 2.807-1.347 4.805-4.295 5.23v.057c1.389.34 1.928 1.318 1.928 3.133 0 1.361-.085 2.41-.085 3.487a4.6 4.6 0 00.284 2h-4.919a4.709 4.709 0 01-.156-1.077c0-.978.128-1.97.128-3.232 0-1.658-.709-2.523-2.452-2.523h-3.26l-1.417 6.832h-4.894z"/><path data-name="Path 732" d="M67.869 0l-.227 1.12h11.992L79.875 0z"/><path data-name="Path 733" d="M7.045 11.311h3.9c1.758 0 3.289-.553 3.289-2.58 0-1.6-1.347-1.942-2.636-1.942h-3.6zM3.9 3.005h9.214c3.416 0 6.024.865 6.024 4.862 0 2.807-1.347 4.805-4.295 5.23v.057c1.389.34 1.928 1.318 1.928 3.133 0 1.361-.085 2.41-.085 3.487a4.6 4.6 0 00.283 2h-4.921a4.708 4.708 0 01-.156-1.077c0-.978.128-1.97.128-3.232 0-1.658-.709-2.523-2.452-2.523h-3.26l-1.418 6.83H0z"/><path data-name="Path 734" d="M28.392 18.143c3.529 0 5.344-4.2 5.344-7.172 0-2.778-1.006-4.337-3.629-4.337-3.785 0-5.471 4.153-5.471 7.243-.014 2.424 1.148 4.267 3.756 4.267m1.871-15.522c3.26 0 8.363 1.2 8.363 7.938 0 6.591-3.9 11.609-10.631 11.609-5.23 0-8.264-3.076-8.264-8.306 0-6.223 4.054-11.241 10.532-11.241"/><path data-name="Path 735" d="M43.699 15.464c0 2.027 1.134 2.679 3.444 2.679 1.97 0 2.792-.836 2.792-1.871 0-1.871-2.835-2.07-4.791-2.764-2.339-.836-4.238-2.07-4.238-4.834 0-4.252 3.87-6.067 7.626-6.067 4 0 7.4 1.474 7.257 6.038h-4.89a1.788 1.788 0 00-.652-1.517 3.238 3.238 0 00-1.97-.5c-1.2 0-2.466.5-2.466 1.687 0 1.134.794 1.262 3.416 1.97 2.58.709 5.6 2.055 5.6 5.727 0 3.331-2.977 6.152-8.476 6.152-4.479 0-7.6-2.254-7.555-6.7h4.9z"/><path data-name="Path 736" d="M59.548 3.005h4.89l-3.916 18.753h-4.9z"/><path data-name="Path 737" d="M67.289 3.005h15l-.893 4.21H71.289l-.61 2.991h9.31l-.78 3.785h-9.313l-.737 3.572h10.177l-.893 4.2H63.389z"/><path data-name="Path 738" d="M103.265 3.005h15l-.893 4.21h-10.107l-.61 2.991h9.31l-.78 3.785h-9.327l-.737 3.572h10.192l-.893 4.2H99.365z"/><path data-name="Path 739" d="M121.972 15.464c0 2.027 1.134 2.679 3.444 2.679 1.97 0 2.792-.836 2.792-1.871 0-1.871-2.835-2.07-4.791-2.764-2.353-.836-4.238-2.07-4.238-4.819 0-4.252 3.87-6.067 7.626-6.067 4 0 7.4 1.474 7.257 6.038h-4.89a1.787 1.787 0 00-.652-1.517 3.238 3.238 0 00-1.97-.5c-1.2 0-2.481.5-2.481 1.687 0 1.134.794 1.262 3.416 1.97 2.58.709 5.613 2.055 5.613 5.727 0 3.331-2.977 6.152-8.477 6.152-4.479 0-7.6-2.254-7.555-6.7h4.906z"/></g></svg>