<svg xmlns="http://www.w3.org/2000/svg" width="137.505" height="19.985" viewBox="0 0 137.505 19.985"><path data-name="Path 716" d="M22.992 7.276c-.507 1.431-3.7 2.926-11.552 1.151l1.021 4.635c7.849 1.427 12.5.253 15.159-2.536 1.968-2.068 2.354-4.742.737-6.789C26.646 1.571 22.857 0 18.072 0 11.227 0 6.35 1.983 3.642 9.424L0 19.429h6.37L9.994 9.311C11.48 5.149 14.6 4.46 18.072 4.46c3.636 0 5.391 1.497 4.92 2.816z" fill="#a90533"/><path data-name="Path 717" d="M86.066 11.667l-.247-.106a12.257 12.257 0 014.51-.876 10.368 10.368 0 013.882.658c.213.12.408.307.3.541-.383.871-6.065.822-8.445-.217zM97.7 9.327a16.153 16.153 0 00-6.416-1.546c-5.036-.208-10.777 1.511-11.921 5.571-.66 2.335 1.6 5.49 7.5 6.385a26.728 26.728 0 0011.004-.777l1.259-3.466c-6.838 2.35-15.775 1.668-15.476-1.852 3.309 2.122 8.136 1.921 11.71 1.335 6.192-1.01 6.101-3.641 2.34-5.65z" fill="#a90533"/><path data-name="Path 718" d="M108.141 11.667l-.244-.106a12.247 12.247 0 014.507-.876 10.364 10.364 0 013.883.658c.212.12.407.307.3.541-.383.871-6.063.822-8.446-.217zm11.637-2.34a16.144 16.144 0 00-6.416-1.546c-5.034-.208-10.775 1.511-11.921 5.571-.658 2.335 1.606 5.49 7.5 6.385a26.734 26.734 0 0011.003-.777l1.26-3.466c-6.838 2.35-15.774 1.668-15.476-1.852 3.309 2.122 8.136 1.921 11.708 1.335 6.19-1.01 6.103-3.641 2.342-5.65z" fill="#a90533"/><path data-name="Path 719" d="M124.426 12.308l-2.526 7.125h5.832l1.944-5.482c.478-1.391.883-2.431 2.584-2.431h4.1l1.148-3.283h-7.548a5.518 5.518 0 00-5.534 4.071z" fill="#a90533"/><path data-name="Path 720" d="M26.736 19.432h6.038l4.081-11.2h-6.039z" fill="#a90533"/><path data-name="Path 721" d="M65.913 13.408a3.881 3.881 0 013.745-2.253c1.473 0 2.884.868 2.338 2.368l-2.156 5.91h5.831l2.188-6c1.135-3.118-1.324-5.7-6.83-5.7-6.13 0-9.6 2-10.944 5.672l-2.2 6.031h5.829z" fill="#a90533"/><path data-name="Path 722" d="M47.926 11.268c2.357.1 4.256 1.285 3.917 2.825-.325 1.485-2.621 2.5-5 2.394-2.356-.1-4.253-1.289-3.917-2.828.321-1.482 2.617-2.495 5-2.391zm.822-3.48c-6.073-.258-11.485 2.339-12.213 5.658-.717 3.267 3.385 6.263 9.482 6.521 6.072.258 11.485-2.337 12.214-5.658.715-3.267-3.387-6.266-9.484-6.522z" fill="#a90533"/></svg>