<svg xmlns="http://www.w3.org/2000/svg" width="1203.2" height="312.3" viewBox="0 0 1203.2 312.3"><path fill="#221F1F" d="M397.66 39.89H.06v36.6h50.3v215.1h59.2V76.49h288.7l-.6-36.6"/><path fill="#221F1F" d="M149.56 120.59v170.4h40.8v-144.2h20.4s13.8 0 13.8 25.1c0 24.9-21.7 48-21.7 48l27.6 71.6h53.3l-38.8-63.8s28.1-16.3 26.3-54.5c-2-40.8-29.9-50.7-57.4-52.7-27.4-1.9-64.3.1-64.3.1m248.6 0h-95.3v170.4h95.3v-27.1h-51.3v-43.2h41.4v-27.1h-40.8v-46.1h50.6v-26.9"/><path fill="none" stroke="#221F1F" stroke-width="42.738" stroke-miterlimit="8" d="M455.06 290.89V21.39"/><path fill="#221F1F" d="M555.36 121.19h-23.9l-47.3 88.2 38.7 82.9 48.1-.2-50.4-102.8 34.8-68.1m117.9-28.8l19.2-37.3s-52.7-29.4-85.4-2.5c-36.4 30-25.3 90.3-11 104.5 7.7 7.8 2.9 7.3 36.9 24.9 30.3 15.8 33.3 30.4 35 38.5 2.4 11.4-8.2 45.1-49.4 30.2-13.6-5-18.2-15.4-18.2-15.4l-18.2 33.5s22.1 27.9 67.1 22.1c45.1-5.8 56.6-53.3 55.6-70.5-1-17.3 1-50.8-59.5-79.6-39.3-18.8-24.9-43.2-24.9-46.6 0-2.8 10.5-17.3 30.2-17.3 14.4.1 22.6 15.5 22.6 15.5m29.7 28.4h117.9v28.7h-38.3v142h-41.2v-142h-38.8l.4-28.7m199.9 0c-39.5 0-71.4 38.3-71.4 85.7 0 47.5 32 85.8 71.4 85.8 39.5 0 71.4-38.3 71.4-85.8.1-47.4-31.9-85.7-71.4-85.7zm-.2 159.1c-17.6 0-31.9-32.8-31.9-73.5 0-40.4 14.3-73.3 31.9-73.3s31.9 32.9 31.9 73.3c0 40.6-14.3 73.5-31.9 73.5m96.6-159.1v171.2h39.8v-145.5l22 .5s13 .5 13 25.9-22.6 48-22.6 48l28.2 71.3 52.8-.3-38-63.9s25.4-16.2 25.9-54.6c.5-38.3-31.5-49.9-45.6-50.3-13.7-.5-75.5-2.3-75.5-2.3m135.3-79.4h29.1v4.6h-11.7v20.5h-6.2v-20.8h-11l-.2-4.3m35.8 0v25.4h5.1v-17.7l11.2 14.4 11.2-14.5v17.5h5.3v-25.1h-4.8l-11.6 14.5-11.2-14.4-5.2-.1"/></svg>