<svg xmlns="http://www.w3.org/2000/svg" width="1024" height="219" viewBox="0 0 1024 219"><path fill="#DA0112" d="M982.6 212.5c1.7 0 3.1-1.4 3.1-3.1v-21.3c0-1.7-1.4-3.1-3.1-3.1h-28.4c-6.6 0-24.2-.3-33.8-5.1-3.1-1.6-5.5-3.3-7.1-5.4-1.4-1.9-2.2-4.3-2.2-7.3V10c0-1.7-1.4-3.1-3.1-3.1h-63c-1.7 0-3 1.4-3 3.1v152.3c0 8 1.8 15.5 5.3 20.7 3.8 5.6 9.6 11.3 17.2 15.4 23.4 12.7 65.9 14.2 82 14.1h36.1M558.7 6.9c-16.1-.1-58.6 1.4-82 14.1-7.6 4.2-13.4 9.8-17.2 15.4-3.5 5.2-5.3 12.6-5.3 22.6v151.2s1.3 1.4 3 1.4h63.1c1.7 0 3.1-1.4 3.1-3.1V89h37.9c1.7 0 3.1-1.4 3.1-3.1V64.7c0-1.7-1.4-3.1-3.1-3.1h-37.9v-9.5c0-3 .7-5.4 2.2-7.3 1.6-2.1 3.9-3.8 7.1-5.4 9.7-4.7 27.2-5.1 33.8-5.1h28.4c1.7 0 3.1-1.4 3.1-3.1V10c0-1.7-1.4-3.1-3.1-3.1h-36.2M150.2 211.6c1.7 0 3.1-1.4 3.1-3.1V34.7h75.2c1.7 0 3.1-1.4 3.1-3.1V10.4c0-1.7-1.4-3.1-3.1-3.1H9.3c-1.7 0-3.1 1.4-3.1 3.1v21.3c0 1.7 1.4 3.1 3.1 3.1h75v173.8c0 1.7 1.4 3.1 3.1 3.1h62.8"/><path fill="#DA0112" d="M422.1 211.6c1.7 0 3.1-1.4 3.1-3.1v-21.3c0-1.7-1.4-3.1-3.1-3.1h-121c-6.7 0-24.2-.3-33.8-5.1-3.2-1.5-5.5-3.3-7.1-5.4-1.4-1.9-2.2-4.4-2.2-7.3V155h61.8c16.1 0 58.6-.8 82-12.3 7.6-3.7 13.4-8 17.2-13 8-10.7 8.7-32.2.1-43.9-3.8-5-9.5-9.3-17.2-13-23.4-11.5-65.9-12.3-82-12.3h-26.5c-16.1 0-58.6 1.2-82 12.7-7.6 3.7-13.4 8.9-17.2 13.9-3.5 4.7-5.3 11.4-5.3 18.6v60.5c0 7.3 1.8 14 5.3 18.6 3.8 5.1 9.6 10.2 17.2 13.9 23.4 11.5 65.9 12.8 82 12.7h128.7zM355 109.8c0 3-.7 5.4-2.2 7.4-1.6 2.1-3.9 3.8-7.1 5.4-9.7 4.7-27.2 5.1-33.8 5.1h-54.1V104c0-3 .7-5.4 2.2-7.3 1.6-2.1 3.9-3.8 7.1-5.4 9.7-4.7 27.2-5.1 33.8-5.1h10.9c6.7 0 24.2.3 33.8 5.1 3.2 1.5 5.5 3.3 7.1 5.4 1.4 1.9 2.2 4.4 2.2 7.3v5.8m446.5-21.6c-3.8-5.1-9.5-10.2-17.2-13.9-23.4-11.5-65.9-12.8-82-12.7H596.4c-1.7 0-3.1 1.4-3.1 3.1V86c0 1.7 1.4 3.1 3.1 3.1h97.9c6.7 0 24.2.3 33.8 5.1 3.2 1.5 5.5 3.3 7.1 5.4 1.4 1.9 2.2 4.4 2.2 7.3V117h-61.8c-16.1 0-58.6.8-82 12.3-7.6 3.7-13.4 8-17.2 13.1-8.6 11.5-8.6 33.4-.1 44.9 3.8 5.1 9.6 9.3 17.2 13.1 23.4 11.5 65.9 12.3 82 12.3H702c16.1 0 58.6-1.2 82-12.7 7.7-3.7 13.4-8.9 17.2-13.9 3.5-4.7 5.3-11.4 5.3-18.6V107c.2-7.4-1.6-14.1-5.1-18.8zm-63.8 81c0 3-.7 5.4-2.2 7.3-1.6 2.1-3.9 3.8-7.1 5.4-9.7 4.7-27.2 5.1-33.8 5.1h-10.9c-6.7 0-24.2-.3-33.8-5.1-3.1-1.6-5.5-3.3-7.1-5.4-1.4-1.9-2.2-4.3-2.2-7.3v-7c0-3 .7-5.4 2.2-7.3 1.6-2.1 3.9-3.8 7.1-5.4 9.7-4.7 27.2-5.1 33.8-5.1h54.1v24.8M998.6 21.5v-4.9h3.6c1.7 0 3.4.1 3.4 2.2 0 2.5-1.5 2.6-3.6 2.6h-3.4zm0 2.7h2.3l4.5 7.2h3.6l-4.9-7.4c3.2-.4 4.5-2.4 4.5-4.9 0-3.2-1.9-5.1-5.6-5.1h-7.7v17.4h3.1v-7.2"/><path fill="#DA0112" d="M1001.6 6.4c-9 0-16.2 7.3-16.2 16.2s7.3 16.2 16.2 16.2c9 0 16.3-7.3 16.3-16.2s-7.4-16.2-16.3-16.2zm0 29.4c-7.3 0-13.2-5.9-13.2-13.2s5.9-13.2 13.2-13.2c7.3 0 13.2 5.9 13.2 13.2s-5.9 13.2-13.2 13.2"/></svg>