<svg xmlns="http://www.w3.org/2000/svg" width="365" height="75.2" viewBox="0 0 365 75.2"><path fill="#FFA400" d="M18.3 25.3c-4.9 0-8.9-4-8.9-8.9s4-8.9 8.9-8.9 8.9 4 8.9 8.9c-.1 5-4 8.9-8.9 8.9"/><path fill="#FFDB00" d="M57.5 46.3c0 4.9-4 8.9-8.9 8.9s-8.9-4-8.9-8.9 4-8.9 8.9-8.9c5 .1 8.9 4.1 8.9 8.9m12.4 0c0-11.7-9.5-21.3-21.3-21.3-11.7 0-21.3 9.5-21.3 21.3 0 11.7 9.5 21.3 21.3 21.3s21.3-9.5 21.3-21.3"/><path fill="#383A35" d="M104.3 39.6c-1.6-2.3-3.9-3.5-6.6-3.5-1.1 0-2.2.3-3.3.8-1.1.6-1.6 1.5-1.6 2.7 0 1 .4 1.8 1.3 2.3s2 .9 3.4 1.2 2.8.7 4.4 1c1.6.4 3 .9 4.4 1.6 1.4.7 2.5 1.7 3.4 3s1.3 3 1.3 5.2c0 2-.4 3.7-1.3 5.1-.9 1.4-2 2.5-3.4 3.3s-2.9 1.5-4.7 1.8c-1.7.4-3.5.6-5.2.6-2.6 0-5.1-.4-7.3-1.1-2.1-.6-4.1-2-5.8-4l5.6-5.3c1.1 1.2 2.2 2.2 3.5 3 1.2.8 2.8 1.2 4.5 1.2.6 0 1.2-.1 1.9-.2s1.3-.4 1.8-.7c.6-.3 1-.7 1.4-1.2s.5-1.1.5-1.7c0-1.2-.4-2-1.3-2.6s-2-1-3.4-1.4-2.8-.7-4.4-1-3-.8-4.4-1.5-2.5-1.6-3.4-2.9c-.9-1.2-1.3-2.9-1.3-5.1 0-1.9.4-3.5 1.2-4.9.8-1.4 1.8-2.5 3.1-3.4 1.3-.9 2.7-1.6 4.4-2 1.6-.4 3.3-.6 5-.6 2.3 0 4.5.4 6.7 1.2 2.2.8 4 2.1 5.4 4l-5.8 5.1zM144.9 64h-8v-5.4h-.1c-.8 1.7-2 3.2-3.7 4.4-1.6 1.2-3.9 1.9-6.7 1.9-2.3 0-4.2-.4-5.7-1.1-1.6-.7-2.9-1.7-3.8-3-1-1.2-1.7-2.7-2.1-4.3s-.6-3.3-.6-5V30.2h8.5v17.1c0 .9 0 2 .1 3.1.1 1.2.3 2.2.7 3.2.4 1 1 1.9 1.8 2.5.8.7 2 1 3.5 1 1.4 0 2.6-.2 3.6-.7s1.8-1.1 2.4-1.9c.6-.8 1.1-1.7 1.4-2.7.3-1 .4-2.1.4-3.2V30.2h8.5V64h-.2zm6.1-33.8h8v5.4h.1c.8-1.7 2-3.2 3.7-4.4 1.6-1.2 3.9-1.9 6.7-1.9 2.3 0 4.2.4 5.7 1.1 1.6.8 2.9 1.7 3.8 3 1 1.2 1.7 2.6 2.1 4.2.4 1.6.6 3.3.6 5V64h-8.5V46.9c0-.9 0-2-.1-3.1-.1-1.2-.3-2.2-.7-3.2s-1-1.9-1.9-2.5c-.8-.7-2-1-3.5-1-1.4 0-2.6.2-3.6.7s-1.8 1.1-2.4 1.9c-.6.8-1.1 1.7-1.4 2.7-.3 1-.4 2.1-.4 3.2V64H151V30.2zm54.9 9.4c-1.6-2.3-3.9-3.5-6.6-3.5-1.1 0-2.2.3-3.3.8-1.1.6-1.6 1.5-1.6 2.7 0 1 .4 1.8 1.3 2.3.9.5 2 .9 3.4 1.2s2.8.7 4.4 1c1.6.4 3 .9 4.4 1.6 1.4.7 2.5 1.7 3.4 3s1.3 3 1.3 5.2c0 2-.4 3.7-1.3 5.1-.9 1.4-2 2.5-3.4 3.3s-2.9 1.5-4.7 1.8c-1.7.4-3.5.6-5.2.6-2.6 0-5.1-.4-7.3-1.1-2.2-.8-4.2-2.1-5.9-4.1l5.6-5.3c1.1 1.2 2.2 2.2 3.5 3 1.2.8 2.8 1.2 4.5 1.2.6 0 1.2-.1 1.9-.2s1.3-.4 1.8-.7c.6-.3 1-.7 1.4-1.2s.5-1.1.5-1.7c0-1.2-.4-2-1.3-2.6-.9-.6-2-1-3.4-1.4s-2.8-.7-4.4-1c-1.6-.3-3-.8-4.4-1.5s-2.5-1.6-3.4-2.9c-.9-1.2-1.3-2.9-1.3-5.1 0-1.9.4-3.5 1.2-4.9s1.8-2.5 3.1-3.4 2.7-1.6 4.4-2c1.6-.4 3.3-.6 5-.6 2.3 0 4.5.4 6.7 1.2 2.2.8 4 2.1 5.4 4l-5.7 5.2zm7.2-2.2v-7.2h7v-8.6h8.5v8.6h9.3v7.2h-9.3v14.8c0 1.7.3 3 1 4 .6 1 1.9 1.5 3.8 1.5.8 0 1.6-.1 2.5-.2.9-.2 1.6-.4 2.1-.8v7.1c-.9.4-2 .7-3.3.9s-2.4.2-3.4.2c-2.3 0-4.1-.2-5.5-.7s-2.6-1.2-3.4-2.3c-.8-1-1.4-2.3-1.7-3.8s-.5-3.2-.5-5.2V37.4h-7.1zm52 6.3c0-2.5-.8-4.5-2.3-5.9s-3.6-2.1-6.3-2.1c-2.5 0-4.5.7-6 2.2s-2.4 3.4-2.7 5.8h17.3zm-17.4 6.4c.3 2.5 1.3 4.5 3 5.9s3.7 2.1 6.1 2.1c2.1 0 3.9-.4 5.3-1.3s2.7-2 3.8-3.3l6.1 4.6c-2 2.4-4.2 4.2-6.6 5.2-2.4 1-5 1.6-7.7 1.6-2.5 0-4.9-.4-7.2-1.3-2.3-.8-4.2-2-5.9-3.6-1.6-1.5-2.9-3.4-3.9-5.6-1-2.2-1.4-4.6-1.4-7.3s.5-5.1 1.4-7.3c1-2.2 2.3-4.1 3.9-5.6s3.6-2.7 5.9-3.6c2.3-.8 4.7-1.3 7.2-1.3 2.3 0 4.5.4 6.4 1.2 1.9.8 3.6 2 5 3.6 1.4 1.5 2.5 3.5 3.2 5.7.8 2.3 1.2 4.9 1.2 7.9V50l-25.8.1zm53.3-9.8c-1-1-2-1.9-3.1-2.5s-2.2-.9-3.3-.9c-1.6 0-2.9.3-4.2.8-1.2.6-2.3 1.3-3.1 2.3-.9.9-1.5 2-2 3.2-.4 1.2-.7 2.5-.7 3.8s.2 2.6.7 3.8c.4 1.2 1.1 2.3 2 3.2s1.9 1.7 3.1 2.3 2.6.8 4.2.8c1.3 0 2.5-.3 3.7-.8 1.1-.5 2.1-1.3 2.9-2.4l5.6 6.1c-.8.8-1.8 1.6-2.9 2.2-1.1.6-2.2 1.1-3.3 1.5-1.1.4-2.2.6-3.2.8s-1.9.2-2.7.2c-2.5 0-4.9-.4-7.2-1.3-2.3-.8-4.2-2-5.8-3.6-1.6-1.6-2.9-3.4-3.9-5.6-1-2.2-1.4-4.6-1.4-7.3s.5-5.1 1.4-7.3c1-2.2 2.3-4.1 3.9-5.6 1.6-1.6 3.6-2.7 5.8-3.6 2.3-.8 4.7-1.3 7.2-1.3 2.2 0 4.3.4 6.5 1.2 2.2.8 4.1 2.1 5.7 3.9l-5.9 6.1zm15.8-5.4h.1c.7-1.4 1.8-2.7 3.5-3.8 1.7-1.1 3.8-1.7 6.4-1.7 2.3 0 4.2.4 5.7 1.1 1.6.8 2.9 1.7 3.8 3 1 1.2 1.7 2.6 2.1 4.2.4 1.6.6 3.3.6 5V64h-8.5V46.9c0-.9 0-2-.1-3.1-.1-1.2-.3-2.2-.7-3.2-.4-1-1-1.9-1.9-2.5-.8-.7-2-1-3.5-1-1.4 0-2.6.2-3.6.7s-1.8 1.1-2.4 1.9c-.6.8-1.1 1.7-1.4 2.7s-.4 2.1-.4 3.2V64H308V21.5h8.5v13.4h.3zm38.8-13.7c0 2.6-2 4.7-4.7 4.7-2.6 0-4.7-2-4.7-4.7 0-2.6 2.1-4.6 4.7-4.6s4.7 2 4.7 4.6zm-8.3 0c0 2 1.5 3.7 3.6 3.7 2 0 3.5-1.6 3.5-3.6s-1.5-3.7-3.5-3.7c-2.1-.1-3.6 1.6-3.6 3.6zm2.8 2.4H349V19c.4-.1 1-.1 1.8-.1.9 0 1.3.1 1.6.3.3.2.4.6.4 1 0 .5-.4.9-1 1.1v.1c.4.2.7.5.8 1.1.1.7.2 1 .3 1.1h-.9c-.1-.2-.2-.6-.4-1.1-.1-.5-.4-.7-1-.7h-.5v1.8zm.1-2.6h.5c.6 0 1.1-.2 1.1-.7 0-.4-.3-.7-1-.7-.3 0-.5 0-.6.1V21z"/></svg>