<svg xmlns="http://www.w3.org/2000/svg" width="1024" height="166" viewBox="0 0 1024 166"><path fill="#A41A4A" d="M576.173-.048c-1.2 4.5-2.4 8-7.8 8-6.8 0-17.7-7.8-36.5-7.8-44.3 0-51.6 32-51.6 46.2 0 10.7 0 30.7 40 49.9l15.6 7.5c15.2 7.2 26.3 12.9 26.3 28.5 0 3-1.2 26.1-29.3 26.1-29.9 0-43.4-26.4-48.1-50h-6.7v57.7h6.7c.9-3.7 2.1-8 7-8 7.3 0 17.9 8 40.1 8 43.2 0 58.1-28.2 58.1-48.7 0-25.4-17.8-39-25.8-43l-34.4-17c-19.6-9.8-24-14.8-24-27.4 0-15.2 12.8-22.3 25-22.3 27.6 0 41.7 26.8 45.9 43.2h6.5V.252h-7zm-392.9.2c-10.5 0-18.2 8.4-18.2 18.2 0 10 7.4 18 18.2 18 10 0 18-7.7 18-18 0-10.1-8-18.2-18-18.2zm681.8 0c-10.5 0-18.3 8.4-18.3 18.2 0 10 7.6 18 18.3 18 10 0 17.8-7.7 17.8-18 0-10.1-7.8-18.2-17.8-18.2zm-864.2 3.4v5.9c10.1 1.6 13.5 2.4 19.6 16.4l59.9 139.8h6.4l53.4-137.1c5.1-13.1 8.2-17.5 21-19.1v-5.9h-49.9v5.9c13.3.7 20.2 1.6 20.2 10.7 0 4.7-2.7 10.9-4.8 16.2l-29.6 76.8-30.7-73.8c-2.3-5.8-7-15.6-7-20.1 0-8.9 5.5-8.9 20.2-9.9v-5.9H.873zm1005 26.5c-9.4 0-17.4 7.2-17.4 17 0 9.9 7.9 17.2 17.4 17.2 9.3 0 17.2-7.3 17.2-17.2 0-9.7-7.9-17-17.2-17zm0 2.9c7.8 0 13.9 6.1 13.9 14.2 0 8.2-6.1 14.3-13.9 14.3-7.8 0-14-6.1-14-14.3 0-8.1 6.1-14.2 14-14.2zm-6.7 4.5v19.6h3v-8.4h3.5l5.3 8.4h3.3l-5.7-8.6c2.9-.4 5.1-1.9 5.1-5.4 0-3.9-2.2-5.6-6.8-5.6h-7.7zm3 2.5h4.1c2.1 0 4.3.4 4.3 2.9 0 3-2.2 3.2-4.8 3.2h-3.7v-6.1zm-738.3 10.7c-26.9 0-48.1 22.1-48.1 56.7 0 40.1 23.9 57.5 47.5 57.5 18.7 0 31.9-7.5 46.2-29.3l-5.6-3.3c-4.4 5.4-12.7 15.8-26.4 15.8-22.2 0-27.3-23.9-28-43.8h58.9c-.8-12.6-3.9-53.6-44.5-53.6zm388.6 0c-32.5 0-52.9 27.1-52.9 57.3 0 30.5 20.3 56.9 52.9 56.9 31.8 0 52.6-25.7 52.6-56.9-.1-32.5-22-57.3-52.6-57.3zm135.2 0c-20 0-30 14.3-33.3 19.9h-.5v-16.9h-44.6v5.4c9.4 1.4 12.4 3.3 12.4 13.9v69c0 11.5-4 12.5-12.4 14.2v5.6h56.4v-5.6c-10.8-1.2-11.6-8-11.6-13.4v-62.6c0-2.1 10.2-13.7 19.6-13.7 12.7 0 12.9 13 12.9 19.6v56.7c0 8.7-3.2 12.7-11 13.4v5.6h54.9v-5.6c-11.5-.5-11.5-7.7-11.5-13.4v-58.9c.1-25.9-18.5-33.2-31.3-33.2zm164.8 0c-21.8 0-55.1 14.4-55.1 60.5 0 28.8 20.2 53.7 50 53.7 18.4 0 33.8-9.4 44.6-24.7l-4.1-4.1c-5.6 6.3-11.7 13.1-25 13.1-18.1 0-32.3-19-32.3-51.8 0-10.5 1.7-39.3 19.7-39.3 3.5 0 9.4 2.2 9.4 9.2 0 12.6.1 24 13.2 24 1.9 0 15.9 0 15.9-15 0-16.8-19.7-25.6-36.3-25.6zm-797.6 3v5.4c8.9 1.6 12.4 3.3 12.4 13.9v69c0 11.3-4 12.1-12.4 14.2v5.6h55.9v-5.6c-9.1-.9-11-6.1-11-13.4v-89h-44.9zm157.9 0v5.4c6.1 1.2 7.3 2.9 13.4 18.2l34.6 87.6h5.7l28.5-71h1.1l23.4 71h5.4l36.3-94c4-10.3 7.2-10.8 11.6-11.8v-5.4h-31.5v5.4c6.6.7 11.1 1.3 11.1 8.8 0 5.2-11.8 33-18.2 50.8h-.5c-4.1-18.3-14.1-48.7-14.1-53.7 0-4.9 5.2-5.4 11.3-5.9v-5.4h-54.8v5.4c5.6.7 8.2.8 10.4 5.7 1.2 2.8 2.6 7.5 4.9 15.4l-15.9 40.1c-11.7-31.4-19.7-49.2-19.7-54.2 0-6.1 5.6-6.7 8.9-7.2v-5.4h-51.9zm523.8 0v5.4c8.9 1.6 12.4 3.3 12.4 13.9v69c0 11.3-4 12.1-12.4 14.2v5.6h55.9v-5.6c-9.1-.9-11-6.1-11-13.4v-89h-44.9zm-571.8 4.3c8.2 0 11.2 6 12.6 11.1 1.9 7.1 1.8 19.2 2.1 26.4h-31.2c0-32.3 7.9-37.5 16.5-37.5zm387.7 0c14.3 0 18.3 13.9 18.3 50 0 29.8-2 49.5-18.2 49.5-18.8 0-18.6-24.2-18.6-49.5 0-26.7 1.1-50 18.5-50z"/></svg>