<svg xmlns="http://www.w3.org/2000/svg" width="99.897" height="26.896" viewBox="0 0 99.897 26.896"><g data-name="Group 889"><path data-name="Path 726" d="M25.982 13.603a1.2 1.2 0 00-.979-.6h-.758a1.177 1.177 0 00-.968.611l-6.007 12.55c-.167.332.015.57.387.57h1.388a.938.938 0 00.947-.555c.149-.305.48-.969.543-1.1.086-.183.35-.3.722-.3h6.464c.372 0 .612.072.722.292.072.143.4.74.565 1.066a1 1 0 00.973.593h2.014c.372 0 .536-.283.4-.545zm-3.8 9.232a.4.4 0 01-.391-.614l2.367-5.071c.158-.338.412-.335.566 0l2.3 5.071a.4.4 0 01-.4.615zM72.403 13.7v12.45a.619.619 0 00.677.578h1.642a.625.625 0 00.677-.61V13.679a.626.626 0 00-.613-.677H73.08a.642.642 0 00-.677.698zm-27.508 7.8a.459.459 0 01.26-.748 6.873 6.873 0 002.1-1.033 3.37 3.37 0 001.014-2.64 4.147 4.147 0 00-.393-1.9 3.244 3.244 0 00-1.124-1.253 5.124 5.124 0 00-1.749-.707 11.778 11.778 0 00-1.6-.19 35.926 35.926 0 00-1.353-.031h-6.82a.678.678 0 00-.677.677v12.443a.624.624 0 00.677.61h1.613a.625.625 0 00.677-.61v-4.955c0-.006 3.058-.008 3.058-.008a1.471 1.471 0 011.067.554l3.175 4.47a1.114 1.114 0 00.948.55h2.109a.336.336 0 00.3-.533zm-1.292-2.529a5.639 5.639 0 01-.888.115c-.372.016-.98.029-1.353.029h-3.159a.679.679 0 01-.677-.677v-2.52a.679.679 0 01.677-.677h3.16c.372 0 .981.013 1.353.029a5.571 5.571 0 01.888.115 2.776 2.776 0 01.992.4 1.523 1.523 0 01.522.615 1.984 1.984 0 010 1.545 1.523 1.523 0 01-.522.615 2.732 2.732 0 01-.993.411zm48.947-5.973a.625.625 0 00-.673.6v7.959c0 .373-.211.458-.469.19l-7.97-8.266a1.558 1.558 0 00-1.147-.486h-1.5c-.471 0-.678.252-.678.506v12.731a.557.557 0 00.615.5h1.5c.371 0 .632-.2.632-.545l.008-8.385c0-.372.21-.457.468-.188l8.31 8.639a1.494 1.494 0 001.155.48h1.128a.679.679 0 00.677-.677V13.679a.678.678 0 00-.677-.677h-1.385zm-32.489 7.761c-.181.325-.478.324-.656 0l-3.9-7.154a1.074 1.074 0 00-.979-.6h-2.109a.679.679 0 00-.678.677v12.42a.606.606 0 00.678.626h1.313a.59.59 0 00.641-.594c0-.172.006-9.039.02-9.039s4.862 9.036 4.862 9.036a.437.437 0 00.785 0s4.888-9.013 4.9-9.013.01 8.754.01 9.013a.605.605 0 00.66.594h1.513a.613.613 0 00.677-.677V13.679a.678.678 0 00-.677-.677h-2.018a1.1 1.1 0 00-1.013.587z"/></g><g data-name="Group 890"><path data-name="Path 727" d="M0 19.85c0 6.7 6.858 7.045 8.233 7.045 4.551 0 6.474-1.23 6.554-1.283a1.2 1.2 0 00.631-1.094V19.89a.775.775 0 00-.774-.774H8.927a.721.721 0 00-.708.774v.479a.722.722 0 00.708.775h3.307a.579.579 0 01.579.578v2.157a11.927 11.927 0 01-6.02.566 4.666 4.666 0 01.737-9.236 10.06 10.06 0 015.741 1.11.748.748 0 001.051-.369l.43-.872a.743.743 0 00-.318-1.023 13.926 13.926 0 00-6.2-1.327C.231 12.73 0 19.122 0 19.85z"/></g><g data-name="Group 891"><path data-name="Path 728" d="M96.767 25.018h-.589v-.207h1.438v.212h-.6v1.724h-.253z"/><path data-name="Path 729" d="M99.603 25.892c-.014-.27-.032-.6-.032-.836h-.006c-.069.224-.147.468-.244.736l-.342.939h-.19l-.316-.922a9.084 9.084 0 01-.221-.753h-.006c-.006.241-.02.563-.037.856l-.051.83h-.241l.135-1.936h.319l.331.937c.08.238.143.451.2.652h.006c.051-.2.121-.408.207-.652l.345-.937h.319l.121 1.936h-.247z"/></g><g data-name="Group 893"><g data-name="Group 892"><path data-name="Path 730" d="M91.797 9.567h-8.981a.9.9 0 01-.776-1.345L86.531.448a.9.9 0 011.552 0l4.49 7.774a.9.9 0 01-.776 1.345z" fill="#007cc2"/></g></g></svg>