<svg xmlns="http://www.w3.org/2000/svg" width="118.718" height="30" viewBox="0 0 118.718 30"><path d="M75.065 25.14H71.84v-2.518a9.877 9.877 0 01-6.54 2.518 9.764 9.764 0 119.764-9.764zM65.346 2.209a12.945 12.945 0 105.435 24.7l.883.354 6.583 2.738V15.154A12.954 12.954 0 0065.346 2.209M11.443 22.931a7.644 7.644 0 117.644-7.639 7.636 7.636 0 01-7.644 7.643m0-19.087a11.443 11.443 0 107.644 19.971v2.915h3.844V15.292A11.456 11.456 0 0011.443 3.844m14.538 22.887h3.8V0h-3.8zm88.937 0h3.8V0h-3.8z" fill="#00a1e3"/><path d="M44.271 22.931a7.644 7.644 0 010-15.287 7.792 7.792 0 015.434 2.254l2.7-2.7a11.443 11.443 0 100 16.17l-2.7-2.7a7.792 7.792 0 01-5.434 2.254M85.14 3.844V0h-3.8v26.731h3.8V7.644h3.8v-3.8" fill="#00a1e3"/><path d="M100.382 7.644a7.677 7.677 0 017.423 5.744h-14.8a7.663 7.663 0 017.378-5.744m5.787 12.592a7.529 7.529 0 01-5.787 2.7 7.662 7.662 0 01-7.378-5.743h18.685a13.094 13.094 0 00.177-1.9 11.509 11.509 0 10-1.149 4.948M65.301 8.747a6.627 6.627 0 106.627 6.627 6.619 6.619 0 00-6.627-6.627" fill="#00a1e3"/></svg>