<svg xmlns="http://www.w3.org/2000/svg" width="320" height="154.6" viewBox="0 0 320 154.6"><path fill="#00BFFE" d="M9.234 154.497c-3.3-.4-6.4-2.6-8-5.5-1.5-2.9-1.6-6.3-.4-9.2.2-.5 10.9-17.4 23.8-37.6 12.9-20.2 28.1-44.2 33.9-53.3 5.8-9.1 10.7-17 10.9-17.5.8-2 .6-4.5-.5-6.4-.6-1-2-2.4-3-2.9-1.7-.9-.7-.9-26.9-.9-27.2 0-25.5.1-28.1-1.2-4.5-2.2-6.8-7.6-5.4-12.4.8-2.7 3-5.4 5.4-6.5 2.5-1.2-1.3-1.1 46.6-1.1h43.1l1.1.4c3.2 1.1 5.9 3.8 6.9 7 .3.9.4 1.6.4 3.2 0 2.2-.3 3.6-1.2 5.1-.2.4-15.6 24.6-34.2 53.8-18.6 29.2-33.9 53.3-34.1 53.7-.4 1-.6 3-.3 4.2.5 2.2 2.1 4.1 4.2 5.1l1.3.6 27.7.1c30.9.1 28.3 0 30.9 1.3 1.7.8 3.5 2.7 4.4 4.3 2.6 5 1.1 10.8-3.5 13.9-1.4.9-2.8 1.5-4.6 1.7-1.5.3-88.9.3-90.4.1zm228.5-.1c-1.4-.2-3.3-1.1-4.4-2-1.1-.9-2.4-2.4-3-3.7-1.2-2.4-1.1 4.1-1-71.8v-68.6l.5-1.3c.6-1.6 1.7-3.3 3-4.4 1.1-1 3.6-2.2 4.9-2.5.7-.1 12.3-.2 37.1-.2 35.4 0 36.1 0 37.4.3 2 .5 3.2 1.2 4.8 2.8 1.1 1.1 1.6 1.7 2 2.7 1.2 2.5 1.4 5.5.5 8.1-.6 1.7-1.1 2.6-2.3 3.9-1.3 1.4-2.7 2.3-4.4 2.9l-1.3.5-24.8.1c-23.5.1-24.9.1-25.7.4-3.7 1.2-6.6 4.3-7.4 7.8-.4 1.6-.4 27.3 0 28.9.9 3.8 4 6.9 7.9 7.9 1.2.3 1.9.3 21.3.3 22.3 0 21.2-.1 23.8 1.2 2.5 1.3 4.6 3.7 5.5 6.6.5 1.6.4 4.5-.2 6.2-1 3.1-3.7 5.8-6.8 6.8l-1.1.4-20.9.1-20.9.1-1.4.5c-2.8 1-5 2.9-6.2 5.3-1.2 2.5-1.2 1.8-1.2 16.8 0 12.8 0 13.5.3 14.7 1 3.8 3.8 6.6 7.8 7.8.9.3 2.8.3 24.4.2 16.7 0 23.8 0 24.9.1 4.7.6 8.3 3.9 9.2 8.4.3 1.6.3 2.7 0 4.3-.8 3.8-3.4 6.8-7.2 8l-1.4.5h-36.1c-29.7.1-36.6.1-37.6-.1zm-70.7 0c-.9-.2-2.6-.8-3.7-1.4-1.4-.8-3.8-3.1-4.6-4.6-.3-.6-.8-1.6-1-2.3l-.4-1.2-.1-57.4c-.1-52.3-.1-57.5-.4-58.3-1.2-3.8-3.5-6.3-7.1-7.5l-1.3-.5-11.4-.1c-10.4-.1-11.4-.1-12.3-.4-3.8-1.2-6.5-4.2-7.4-7.9-.3-1.2-.2-3.8.1-5 .9-3.3 3.4-6.1 6.8-7.4l1.3-.5h42.9c30.3 0 43.2 0 44 .1 1.5.2 3.9 1.4 5.1 2.5 1.3 1.1 2.5 3 3 4.5.4 1.1.4 1.6.4 3.5s-.1 2.4-.4 3.3c-1.1 3.1-3.7 5.7-6.9 6.7-1.1.4-1.3.4-12.5.5-12.7.1-12 0-14.4 1.3-2.4 1.3-4.3 3.6-5.3 6.5-.2.6-.2 10.6-.3 58.1-.1 54.5-.1 57.5-.4 58.4-1.3 4.4-4.5 7.6-8.6 8.6-1.1.6-3.9.7-5.1.5z"/></svg>