<svg xmlns="http://www.w3.org/2000/svg" width="489.996" height="177" viewBox="0 0 129.645 46.831"><switch transform="translate(-34.397 -75.803) scale(.26458)"><g><path d="M539.094 392.668c28.809 0 52.143-21.846 52.143-48.763 0-26.91-23.334-48.765-52.143-48.765-28.844 0-52.166 21.854-52.166 48.765 0 26.917 23.322 48.763 52.166 48.763zm0-78.738c17.717 0 32.088 13.41 32.088 29.976 0 16.567-14.371 29.994-32.088 29.994-17.734 0-32.078-13.427-32.078-29.994 0-16.566 14.343-29.976 32.078-29.976zm-79.698-3.786h12.457c2.502 0 4.525-1.97 4.525-4.497V292.01a4.502 4.502 0 00-4.525-4.51h-12.457c-2.518 0-4.549 1.998-4.549 4.51v13.637c.001 2.527 2.032 4.497 4.549 4.497zm11.143 8.511h-9.811a4.516 4.516 0 00-4.537 4.546v49.93c0 2.515 2 4.526 4.537 4.526h9.811a4.525 4.525 0 004.551-4.526v-49.93a4.54 4.54 0 00-4.551-4.546zm-46.814 43.296c-.445 5.827-1.553 16.898 6.104 20.731 3.643 1.845 10.664.797 10.664-3.494v-29.361c0-25.791-20.252-21.055-44.533-16.181-44.158 8.92-94.013 18.823-107.004 20.942-13.406 2.143-12.778.23-6.757-32.226 4.997-26.862-16.866-31.828-54.868-4.554l-93.357 61.747c-9.895 7.083 7.012 17.062 20.128 9.677 20.038-11.279 87.824-55.423 93.309-58.598 11.612-6.657 19.013-.615 12.538 23.384-4.477 16.534 4.832 22.104 20.021 20.194 17.89-2.261 116.847-24.065 126.972-25.3 14.488-1.782 17.361 5.144 16.783 13.039zm-139.286 76.818c0 .383-.382.819-.766.819h-19.685c0 2.898.602 4.539 1.86 5.905 1.53 1.751 4.046 2.352 7.655 2.352 3.39 0 5.577-.71 7.928-1.367.11-.054.219-.054.329-.054.273 0 .438.164.602.547l.602 2.241c.054.056.054.164.054.22 0 .327-.219.546-.601.656-2.133.873-5.742 1.641-9.515 1.641-10.717 0-14.162-4.812-14.162-15.038 0-9.46 2.132-15.091 12.904-15.091 5.687 0 9.022 1.694 10.881 4.647 1.531 2.515 1.914 5.905 1.914 9.842zm-5.851-8.858c-.875-3.392-2.898-4.43-6.999-4.43-4.211 0-6.179 1.094-7.054 4.43-.492 1.858-.547 3.882-.602 5.851l15.311-.055c-.055-1.969-.163-3.882-.656-5.796zm36.034 20.45c0 .327-.219.655-.546.655h-4.32c-.328 0-.656-.219-.82-.437l-7.601-11.429-7.546 11.429c-.164.218-.546.437-.82.437h-4.374c-.328 0-.547-.328-.547-.655 0-.165 0-.33.109-.438l9.952-13.725-9.132-12.795a1.034 1.034 0 01-.109-.438c0-.327.219-.655.492-.655h4.32c.601 0 .875.273 1.148.712l6.616 10.116 6.452-10.116c.273-.384.602-.712 1.148-.712h4.32c.273 0 .493.328.493.712 0 .109-.055.272-.11.382l-9.295 12.686 10.006 13.834a.616.616 0 01.164.437zm17.332 1.368c-3.171 0-6.178-.493-8.146-1.04l.601 3.281v6.944c0 .491-.273.71-.711.82l-3.554.766h-.164c-.438 0-.657-.329-.657-.766V427.67c0-2.408.329-3.337 3.009-4.32 2.952-1.04 7.162-1.75 10.716-1.75 10.061 0 11.592 6.232 11.592 15.091 0 10.115-2.679 15.038-12.686 15.038zm-.108-26.139c-3.117 0-7.437 1.203-7.437 1.203v20.231s2.844.876 7.054.876c5.959 0 7.928-2.625 7.928-11.155 0-10.006-2.57-11.155-7.545-11.155zm29.472 24.662c0 .437-.328.601-.438.601-.437.219-1.968.711-4.155.711-3.663 0-5.96-1.914-5.96-6.015v-34.065c0-.491.273-.711.765-.767l3.555-.819h.164c.438 0 .603.328.603.767v34.667c0 1.967 1.312 2.295 2.405 2.295.766 0 1.586-.163 1.915-.218.109 0 .164-.056.218-.056.219 0 .383.11.438.492l.493 2.243v.164zm16.403 1.477c-11.591 0-13.014-6.781-13.014-15.038 0-8.312 1.422-15.091 13.014-15.091 11.646 0 13.014 6.779 13.014 15.091-.001 8.256-1.368 15.038-13.014 15.038zm0-26.248c-7.381 0-7.71 4.319-7.71 11.209 0 6.835.329 11.154 7.71 11.154 7.438 0 7.766-4.319 7.766-11.154-.001-6.889-.329-11.209-7.766-11.209zm33.355.382c-3.5 0-6.453.274-9.133.985v23.348c0 .492-.273.82-.82.82h-3.391c-.107 0-.873-.328-.873-.82v-23.021c0-2.296.654-3.007 2.732-3.882 2.57-1.038 7.217-1.694 10.061-1.694h.875c.109 0 .219.053.438.053.221.057.711.166.711.822v2.679c0 .382-.11.71-.6.71zm28.86 12.906c0 .383-.383.819-.766.819h-19.684c0 2.898.602 4.539 1.859 5.905 1.529 1.751 4.045 2.352 7.654 2.352 3.391 0 5.578-.71 7.928-1.367.109-.054.221-.054.328-.054.275 0 .438.164.602.547l.604 2.241c.053.056.053.164.053.22 0 .327-.219.546-.604.656-2.131.873-5.74 1.641-9.512 1.641-10.719 0-14.162-4.812-14.162-15.038 0-9.46 2.131-15.091 12.904-15.091 5.686 0 9.021 1.694 10.881 4.647 1.531 2.515 1.914 5.905 1.914 9.842v2.68zm-5.852-8.858c-.873-3.392-2.898-4.43-6.998-4.43-4.211 0-6.18 1.094-7.055 4.43-.492 1.858-.545 3.882-.6 5.851l15.309-.055c-.054-1.969-.162-3.882-.656-5.796zm72.34 21.106h-3.443c-.492 0-.82-.328-.82-.82v-20.012c0-3.5-1.367-4.703-4.922-4.703-4.646 0-9.404 1.367-9.404 1.367v23.348c0 .492-.271.82-.764.82h-3.447c-.545 0-.873-.328-.873-.82v-20.012c0-3.5-1.312-4.703-4.867-4.703-4.646 0-9.461 1.367-9.461 1.367v23.348c0 .492-.273.82-.82.82h-3.389c-.549 0-.875-.328-.875-.82v-22.91c0-2.133.326-3.063 3.17-3.992 2.846-.93 8.094-1.694 11.646-1.694 3.391 0 5.852.71 7.328 2.022 2.734-1.039 8.477-2.022 12.084-2.022 6.562 0 9.678 1.969 9.678 7.982v20.614c-.001.491-.327.82-.821.82zm19.685.712c-11.592 0-13.014-6.781-13.014-15.038 0-8.312 1.422-15.091 13.014-15.091 11.646 0 13.014 6.779 13.014 15.091 0 8.256-1.367 15.038-13.014 15.038zm0-26.248c-7.383 0-7.711 4.319-7.711 11.209 0 6.835.328 11.154 7.711 11.154 7.436 0 7.764-4.319 7.764-11.154 0-6.889-.328-11.209-7.764-11.209zm33.354.382c-3.498 0-6.451.274-9.131.985v23.348c0 .492-.273.82-.82.82h-3.389c-.111 0-.875-.328-.875-.82v-23.021c0-2.296.656-3.007 2.732-3.882 2.57-1.038 7.219-1.694 10.062-1.694h.873c.109 0 .221.053.438.053.219.057.711.166.711.822v2.679c0 .382-.109.71-.601.71zm28.861 12.906c0 .383-.383.819-.766.819h-19.684c0 2.898.6 4.539 1.857 5.905 1.533 1.751 4.047 2.352 7.654 2.352 3.391 0 5.578-.71 7.93-1.367.109-.054.219-.054.328-.054.273 0 .438.164.602.547l.604 2.241c.053.056.053.164.053.22 0 .327-.219.546-.602.656-2.133.873-5.74 1.641-9.514 1.641-10.719 0-14.162-4.812-14.162-15.038 0-9.46 2.131-15.091 12.904-15.091 5.686 0 9.021 1.694 10.881 4.647 1.531 2.515 1.914 5.905 1.914 9.842v2.68zm-5.851-8.858c-.875-3.392-2.898-4.43-6.998-4.43-4.209 0-6.18 1.094-7.055 4.43-.492 1.858-.545 3.882-.602 5.851l15.312-.055c-.056-1.969-.165-3.882-.657-5.796zm8.759-124.441v-15.837h-5.922v-2.111h14.213v2.111h-5.916v15.837zm10.62 0v-17.948h3.555l4.26 12.698c.404 1.152.668 2.058.867 2.631.189-.647.52-1.598.951-2.871l4.369-12.458h3.145v17.948h-2.285v-15.012l-5.238 15.012h-2.156l-5.162-15.19v15.19z" fill="#ea5703"/></g></switch></svg>