<svg xmlns="http://www.w3.org/2000/svg" width="120.06" height="55.101" viewBox="0 0 120.06 55.101"><defs><linearGradient id="a" x1=".004" y1=".605" x2=".919" y2=".456" gradientUnits="objectBoundingBox"><stop offset="0" stop-color="#fff"/><stop offset=".323" stop-color="#fdfdfd"/><stop offset=".488" stop-color="#f5f5f5"/><stop offset=".617" stop-color="#e8e8e8"/><stop offset=".727" stop-color="#d5d5d6"/><stop offset=".826" stop-color="#bcbdbe"/><stop offset=".915" stop-color="#9fa0a1"/><stop offset=".997" stop-color="#7b7d7e"/><stop offset="1" stop-color="#7a7c7d"/></linearGradient><linearGradient id="b" x1=".183" y1=".351" x2=".817" y2=".649" gradientUnits="objectBoundingBox"><stop offset="0" stop-color="#fff"/><stop offset=".136" stop-color="#f8f8f9"/><stop offset=".329" stop-color="#e6e6e6"/><stop offset=".556" stop-color="#c8c8c9"/><stop offset=".806" stop-color="#9e9fa0"/><stop offset="1" stop-color="#787a7b"/></linearGradient><linearGradient id="c" x1=".879" y1=".674" x2=".1" y2=".441" gradientUnits="objectBoundingBox"><stop offset="0" stop-color="#fff"/><stop offset=".129" stop-color="#dfe0e0"/><stop offset=".306" stop-color="#babbbc"/><stop offset=".484" stop-color="#9d9f9f"/><stop offset=".659" stop-color="#898a8b"/><stop offset=".832" stop-color="#7c7e7f"/><stop offset="1" stop-color="#787a7b"/></linearGradient></defs><path d="M24.559 26.277l-.816 3.885h-7.368l.817-3.885H.492L0 28.606h5.058l-1.8 8.576h2.874l1.806-8.576h5.885l-1.806 8.576H14.9l.959-4.557h7.37l-.962 4.557h2.879l2.293-10.906h-2.88m9.734 8.873a4.046 4.046 0 01-3.214-1.164 2.593 2.593 0 01-.434-2.241c.434-2.059 2.511-3.445 5.167-3.445a4.05 4.05 0 013.225 1.184 2.547 2.547 0 01.442 2.2c-.443 2.1-2.479 3.464-5.186 3.464m5.415.571a6.462 6.462 0 002.71-3.976 4.18 4.18 0 00-1.057-3.986 7.249 7.249 0 00-5.114-1.8 10.208 10.208 0 00-5.838 1.783 6.449 6.449 0 00-2.7 3.945 4.191 4.191 0 001.04 4.018 7.087 7.087 0 005.114 1.791 10.23 10.23 0 005.845-1.774zm42.187-.569a4.049 4.049 0 01-3.215-1.164 2.593 2.593 0 01-.434-2.24c.435-2.06 2.512-3.445 5.167-3.445a4.051 4.051 0 013.225 1.183 2.55 2.55 0 01.443 2.2c-.444 2.1-2.48 3.464-5.185 3.464m5.415.572a6.462 6.462 0 002.71-3.976 4.181 4.181 0 00-1.061-3.988 7.247 7.247 0 00-5.113-1.805 10.211 10.211 0 00-5.836 1.789 6.443 6.443 0 00-2.7 3.946 4.191 4.191 0 001.039 4.018 7.089 7.089 0 005.115 1.792 10.24 10.24 0 005.844-1.775zm-29.936-9.442l-5.76 5.546-3.421-5.546h-3.223l-2.3 10.906h2.879l1.547-7.346 3.713 5.982 6.184-5.936-1.538 7.3h2.88l2.3-10.906h-3.261m2.694 9.163a9.759 9.759 0 006.576 2.056c3.962 0 6.632-1.441 7.139-3.856a2.231 2.231 0 00-.277-1.866c-.565-.768-1.9-1.178-4.037-1.348-.741-.06-1.3-.086-1.752-.1a10.541 10.541 0 01-2.185-.283c-.816-.2-.738-.561-.713-.677.121-.578 1.319-1.1 3.663-1.1a8.291 8.291 0 014.422 1.108l1.923-1.794c-1.349-1.057-3.252-1.619-6.026-1.619-3.756 0-6.379 1.379-6.848 3.6a2.008 2.008 0 00.306 1.737c.731.941 2.469 1.283 5.475 1.413 1.752.076 2.782.2 3.078.584a.5.5 0 01.072.429c-.163.777-1.482 1.463-3.683 1.463a8.824 8.824 0 01-5.262-1.565l-1.871 1.818m42.766-9.163l-1.568 7.452-5.493-7.452h-3.2l-2.3 10.906h2.879l1.566-7.422 5.486 7.422h3.212l2.3-10.906h-2.881" fill="#fe0000"/><path d="M146.467 15.412a80.155 80.155 0 019.554 2.13 24.87 24.87 0 013.56 1.333 62.115 62.115 0 013.986 2.041 31.634 31.634 0 017.086 5.362 27.507 27.507 0 00-1.389-9.37 27.165 27.165 0 00-5.2-9.415 31.806 31.806 0 00-4.677-4.3 34.207 34.207 0 00-2.056-1.344A20.337 20.337 0 00155.612.9c-.522-.24-.522-.24-1.939-.9a18.6 18.6 0 01-.987 8.142c-1.712 3.856-3.026 5-6.22 7.268" transform="translate(-54.659 -.002)" fill="url(#a)"/><path d="M156.285 82.388a20.636 20.636 0 002.376-.85 13.391 13.391 0 002.2-1.186 20.63 20.63 0 002.133-1.6c.343-.293.645-.569.878-.8 1.118-1.038 1.837-1.838 2.546-2.607.484-.524 1.093-1.279 1.837-2.219-.264.081-.934.356-1.287.477-.651.224-1.149.421-2.326.738a19.513 19.513 0 01-2.872.561c-.861.129-1.47.191-2.7.272a19.406 19.406 0 01-.576 3.212 12.411 12.411 0 01-2.213 4.006" transform="translate(-58.322 -27.287)" fill="url(#b)"/><path d="M175.776 61.428a27.283 27.283 0 003.341-1.438c.191-.105.379-.212.563-.32a15.9 15.9 0 003.03-2.271 15.48 15.48 0 001.318-1.561 12.5 12.5 0 00.778-1.268 7.953 7.953 0 00.65-1.922 11.589 11.589 0 00.2-1.913 10.271 10.271 0 00-1.264-4.673 16.955 16.955 0 00-1.818-2.731c-.219-.253-.087-.1-.275-.324a11.45 11.45 0 00-.66-.718 22.919 22.919 0 01-.354 3.744 61.663 61.663 0 01-.693 3.463 33.349 33.349 0 01-1.727 5.613c-.373 1-.851 2.122-1.385 3.226a30.045 30.045 0 01-1.7 3.092" transform="translate(-65.596 -15.782)" fill="url(#c)"/><path d="M33.061 39.042h.958l-.185.872h-.957zm-.608 7.154H31.6l1.059-5h.854l-1.059 5m4.388 0l.734-3.469c.107-.5.059-.97-.628-.97a1.257 1.257 0 00-.81.338 1.745 1.745 0 00-.353.732l-.712 3.369h-.854l.838-3.964c.073-.347.126-.692.168-1.04h.906l-.132.626h.021a1.613 1.613 0 011.464-.726c.478 0 .99.189 1.091.644a1.6 1.6 0 011.385-.644c.552 0 1.41.119 1.161 1.3l-.8 3.805h-.853l.732-3.471c.107-.5.06-.97-.627-.97a.929.929 0 00-.685.189 1.578 1.578 0 00-.478.882l-.713 3.369h-.853m31.041-1.201a2.336 2.336 0 01-1.819.709 1.546 1.546 0 01-1.2-.443.939.939 0 01-.187-.842c.182-.821.9-1.191 1.681-1.592zm-1.053-2.977l-.237-.322a1.208 1.208 0 01-.388-.955 1.085 1.085 0 011.087-.794.8.8 0 01.632.231.659.659 0 01.106.578c-.11.501-.61.895-1.2 1.262zm-.873.377c-.984.467-1.98.894-2.237 2.06a1.376 1.376 0 00.244 1.251 2.434 2.434 0 001.881.637 3.315 3.315 0 002.406-.849l.5.716H69.8l-.934-1.42a5.035 5.035 0 001.048-2.493h-.817a6.142 6.142 0 01-.61 1.962l-1.236-1.768c1.049-.653 1.62-1.231 1.746-1.8a.962.962 0 00-.166-.875 1.751 1.751 0 00-1.347-.444c-.451 0-1.944.093-2.213 1.311a2.292 2.292 0 00.687 1.716m-23.162 2.309c-.1.487.055.923.627.923.52 0 1.231-.308 1.488-1.924-.813.01-1.891-.061-2.115 1.001zm1.764.764h-.022a1.645 1.645 0 01-1.5.821c-1.113 0-1.291-.683-1.088-1.644.321-1.516 1.9-1.586 3.086-1.556.162-.664.325-1.387-.591-1.387a.963.963 0 00-1.011.891h-.926a1.855 1.855 0 012.1-1.506c1.353 0 1.566.665 1.389 1.506l-.51 2.409a7.62 7.62 0 00-.147 1.189h-.937l.153-.723m4.859-3.707c-.967 0-1.233 1.11-1.374 1.775-.34 1.6-.035 1.982.6 1.982 1.03 0 1.245-1.159 1.391-1.854.156-.741.453-1.903-.617-1.903zm1.121-.574h.853l-1.165 5.511c-.239 1.119-1.076 1.388-2.232 1.388-.877 0-1.577-.418-1.309-1.344h.958c-.088.466.18.724.648.724a1.054 1.054 0 001.1-.864l.221-1.04h-.031a1.687 1.687 0 01-1.287.625c-1.426 0-1.459-1.168-1.145-2.656.486-2.3 1.735-2.449 2.161-2.449a1 1 0 011.077.714h.021l.13-.614m4.694 2.16c.308-1.457-.081-1.634-.706-1.634-.541 0-1.041.247-1.345 1.634zm-2.18.614c-.3 1.4.041 1.676.707 1.676a1.194 1.194 0 001.117-.951h.936a2 2 0 01-2.173 1.614c-1.114 0-1.931-.317-1.464-2.525.31-1.467.743-2.677 2.564-2.677 1.5 0 1.708.784 1.358 2.439l-.09.424h-2.956m5.406 2.334c-1.134 0-1.741-.476-1.466-1.625h.967c-.061.289-.193.963.671.963a1 1 0 001.067-.764c.2-.945-2.419-.966-2.113-2.407a1.9 1.9 0 012.1-1.369c.937 0 1.648.427 1.365 1.418h-.947c.122-.525-.111-.8-.652-.8a.908.908 0 00-.954.674c-.187.882 2.44.863 2.117 2.389a1.957 1.957 0 01-2.154 1.524m16.155-.665c1.072 0 1.3-1.091 1.462-1.844.283-1.336.305-2.031-.611-2.031-.947 0-1.215 1.07-1.355 1.734-.162.763-.547 2.141.504 2.141zm-1.077.564h-.853l1.514-7.154h.853l-.562 2.654h.031a1.713 1.713 0 011.283-.6c1.7 0 1.434 1.437 1.17 2.687-.467 2.194-1.386 2.511-2.228 2.511a1.021 1.021 0 01-1.061-.692h-.021l-.126.594m7.711-2.85c.308-1.457-.081-1.634-.7-1.634-.541 0-1.041.247-1.345 1.634zm-2.179.614c-.3 1.4.041 1.676.707 1.676a1.2 1.2 0 001.117-.951h.937a2 2 0 01-2.174 1.609c-1.114 0-1.931-.317-1.464-2.525.31-1.467.743-2.677 2.564-2.677 1.5 0 1.708.784 1.358 2.439l-.091.424h-2.955m5.657 1.308h.021l2.118-4.076h.926l-3.842 6.9h-.885l.994-1.894-.722-5h.99l.4 4.072m6.412-1.845c.29-1.366-.1-1.664-.751-1.664s-1.166.3-1.455 1.664c-.343 1.626-.248 2.211.636 2.211s1.227-.585 1.57-2.211zm-3.174.348c.31-1.467.743-2.677 2.564-2.677s1.742 1.21 1.432 2.677c-.471 2.208-1.419 2.526-2.532 2.526s-1.932-.317-1.464-2.525m7.61 2.427l.733-3.469c.113-.534.008-.97-.72-.97-.937 0-1.24.793-1.385 1.476l-.622 2.963h-.853l.838-3.964c.073-.347.126-.692.168-1.04h.906l-.136.644h.041a1.761 1.761 0 011.562-.744c1.124 0 1.269.644 1.059 1.635l-.733 3.469h-.858m5.01-4.439c-.916 0-1.188.695-1.47 2.031-.159.753-.39 1.844.682 1.844.957 0 1.2-1.131 1.41-2.141.142-.664.327-1.734-.622-1.734zm1.562-2.714h.854l-1.516 7.153h-.853l.126-.594h-.021a1.667 1.667 0 01-1.354.692c-.844 0-1.63-.317-1.164-2.516.264-1.25.61-2.687 2.305-2.687a1.061 1.061 0 011.027.6h.034l.562-2.653" fill="#706d6e"/></svg>