<svg xmlns="http://www.w3.org/2000/svg" width="300" height="116.812" viewBox="-178 171.528 300 116.812"><path d="M-129.103 235.747c0 4.429-3.69 8.039-8.229 8.039h-24.71v-32.11h24.71c4.539 0 8.229 3.584 8.229 8.03v16.041zm-8.229-40.135H-178.5v92.728h16.458v-28.502h24.71c13.647 0 24.698-10.798 24.698-24.091v-16.039c0-13.302-11.05-24.096-24.698-24.096m119.373-24.084h16.468v88.31h-16.468zm115.261 24.084h-12.38a24.788 24.788 0 00-16.439 6.18 24.879 24.879 0 00-16.452-6.18H39.677c-13.678 0-24.715 10.794-24.715 24.094v40.132H31.42v-40.132c0-4.448 3.711-8.03 8.257-8.03H52.03c4.516 0 8.225 3.584 8.225 8.03v40.132h16.424v-40.132c0-4.448 3.705-8.03 8.241-8.03h12.382c4.522 0 8.227 3.584 8.227 8.03v40.132H122v-40.132c.004-13.3-11.084-24.094-24.698-24.094zm-148.209 48.174h-24.678c-4.544 0-8.224-3.61-8.224-8.039v-16.039c0-4.448 3.68-8.03 8.224-8.03h24.678v32.108zm-24.677-48.174c-13.661 0-24.709 10.794-24.709 24.094v16.039c0 13.295 11.048 24.093 24.709 24.093h41.169v-64.226h-41.169"/></svg>