<svg xmlns="http://www.w3.org/2000/svg" width="1024" height="181" viewBox="0 0 1024 181"><path d="M309.119.031c-20.2 0-29.8 2.1-40.3 6.2l-1.9.7 11.4 20.3 1.4-.5c7.8-3.2 16.4-4.3 32.5-4.3h17c25 0 39.3 12.4 39.3 34.3v67.3c0 21.9-14.3 34.3-39.3 34.3h-27.9c-25.6 0-38.1-10.3-38.1-31.6 0-21.2 12.5-31.4 38.1-31.4h38.9v-22.6h-40c-38 0-59.8 19.8-59.8 54.2 0 33.3 22.9 54 59.8 54h30.1c42 0 61.2-28 61.2-54v-73.1c0-26-19.2-53.8-61.2-53.8h-21.2zm169.1 0c-42 0-61.2 27.9-61.2 53.8v73.1c0 26 19.2 54 61.2 54h26c21.4 0 35.4-3.1 46.6-10.4l1.4-1-13-19-1.4.9c-8.4 5.1-19 7-36.6 7h-22c-25.3 0-39.3-12.1-39.3-34.3v-67.3c0-22.2 14-34.3 39.3-34.3h22c17.5 0 28.1 2.1 36.6 7.2l1.4.9 13-19.1-1.4-.9c-11.2-7.3-25.2-10.4-46.6-10.4h-26zm149.9 0c-42.1 0-61.3 27.9-61.3 53.8v73.1c0 26 19.2 54 61.2 54h30.1c42 0 61-28 61-54v-73.1c0-26-19.2-53.8-61.3-53.8h-29.7zm177.5.3c-36.2 0-59.6 20.6-59.6 52.3v127.5h22.9v-124.6c0-22 12.3-32.8 37.8-32.8 24.1 0 37.4 11 37.4 30.8v126.6h22.9v-126.6c0-19.8 13.3-30.8 37.4-30.8 25.5 0 37.9 10.8 37.9 32.8v124.6h22.7v-127.5c0-31.7-23.4-52.3-59.6-52.3-24.2 0-38.8 6-49.9 20.3-11.1-14.3-25.7-20.3-49.9-20.3zm-805.6.9v127.5c0 31.7 23.4 52.3 59.6 52.3 24.1 0 38.8-6 49.9-20.3 11.1 14.4 25.7 20.3 49.9 20.3 36.2 0 59.6-20.6 59.6-52.3V1.231h-22.7v124.6c0 22-12.5 32.6-37.9 32.6-24.1 0-37.4-10.8-37.4-30.6V1.231h-22.8v126.6c0 19.7-13.3 30.6-37.4 30.6-25.4 0-37.9-10.6-37.9-32.6V1.231H.019zm1006.6 0c-4.8 0-8.9 1.7-12.3 5.1-3.4 3.4-5.1 7.5-5.1 12.3 0 4.9 1.8 9.1 5.1 12.5 3.4 3.4 7.5 5.1 12.3 5.1 4.8 0 8.9-1.7 12.3-5.1 3.4-3.4 5.1-7.6 5.1-12.5 0-4.8-1.7-8.9-5.1-12.3-3.5-3.4-7.5-5.1-12.3-5.1zm0 2.4c4.2 0 7.7 1.5 10.6 4.4 2.9 2.9 4.4 6.6 4.4 10.8 0 4.2-1.5 7.6-4.4 10.6-2.9 3-6.4 4.4-10.6 4.4-4.2 0-7.7-1.5-10.6-4.4-2.9-3-4.4-6.4-4.4-10.6 0-4.2 1.5-7.8 4.4-10.8 2.9-2.9 6.4-4.4 10.6-4.4zm-7.1 5.5v19.1h3.2v-7.5h2.7c1.8 0 3 .3 3.8.7 1.2.7 1.7 2.1 1.7 4.3v1.5l.2.7v.4h3.2l-.2-.2c-.1-.2-.1-.5-.2-1v-2.9c0-1-.3-1.9-1-2.9s-1.7-1.6-3.2-1.9c1.2-.2 2.1-.4 2.7-.9 1.3-.8 1.9-2.2 1.9-3.9 0-2.4-1.1-4-3.1-4.8-1.1-.5-2.7-.7-5.1-.7h-6.6zm3.3 2.2h2.9c1.9 0 3.2.4 4.1.9.9.5 1.4 1.3 1.4 2.7 0 1.5-.7 2.5-2.1 3.1-.7.3-1.8.3-3.2.3h-3.1v-7zm-373.9 11.1h27.9c25 0 39.3 12.4 39.3 34.3v67.3c0 21.9-14.3 34.3-39.3 34.3h-27.9c-25.4 0-39.3-12.1-39.3-34.3v-67.3c0-21.9 14.4-34.3 39.3-34.3z"/></svg>