<svg xmlns="http://www.w3.org/2000/svg" width="141.679" height="20.743" viewBox="0 0 141.679 20.743"><g fill="#0061aa" fill-rule="evenodd"><path data-name="Path 666" d="M77.69 9.634a18.245 18.245 0 00-2.234-1.184 17.6 17.6 0 01-3.162-1.8 1.838 1.838 0 01-.426-2.094 1.309 1.309 0 011.339-.737s1.415.078 1.415 1.24v1.64h5.07l-.01-2.416s.39-3.957-5.972-4.13c0 0-5-.329-6.438 2.366 0 0-.563.6-.563 2.694v1.51a5 5 0 00.835 2.87 6.609 6.609 0 001.748 1.551s2.521 1.358 4.033 2.134c0 0 1.528.872 1.326 2.258a1.5 1.5 0 01-1.595 1.367 1.409 1.409 0 01-1.348-1.457v-1.64h-5.4v2.382s-.152 4.554 6.791 4.554c0 0 6.631.135 6.942-4.675v-1.933a5.064 5.064 0 00-2.345-4.5z"/><path data-name="Path 667" d="M51.735.717l-1.698 10.641h-.4L48.016.812h-8.469l-.424 19.264h5.014l.06-14.515h.394l2.658 14.512h5.275l2.625-14.506h.349l.121 14.509h5.04L60.116.717z"/><path data-name="Path 668" d="M21.888.797l-3.336 19.258h5.4l1.976-14.932h.444l1.975 14.932h5.4L30.407.797z"/><path data-name="Path 669" d="M135.152 9.367v2.842h1.384v3.049a1.386 1.386 0 11-2.765.1V4.811c0-1.087 1.374-1.145 1.374-1.145a1.288 1.288 0 011.33 1.3v1.6h5.082c.165-3.13-.458-3.888-.458-3.888-1.261-2.826-6.03-2.676-6.03-2.676-7.329 0-6.516 5.623-6.516 5.623v10.2c.157 5.274 7.378 4.739 7.5 4.732 3.213-.355 4.183-1.376 4.183-1.376a3.128 3.128 0 001.124-1.581 9.393 9.393 0 00.318-2.24V9.367z"/><path data-name="Path 670" d="M118.305 12.502h-.221L112.926.722h-6.17V20.08h5.021l-.3-11.779h.224l5.343 11.779h5.985V.72h-5.085l.362 11.781z"/><path data-name="Path 671" d="M94.496 15.256s.073 1.589-1.4 1.589a1.453 1.453 0 01-1.55-1.549L91.531.733h-5.509v14.446s-.565 5.468 7.151 5.468c0 0 6.706.08 6.706-5.217V.73h-5.383v14.526z"/><path data-name="Path 672" d="M11.386 9.634a18.208 18.208 0 00-2.23-1.182 17.457 17.457 0 01-3.16-1.8 1.836 1.836 0 01-.426-2.093 1.306 1.306 0 011.337-.737s1.416.077 1.416 1.24v1.64h5.072l-.011-2.416S13.772.33 7.412.157a11.407 11.407 0 00-1.182 0S2.378.364 1 2.477c-.007.015-.019.027-.027.042s-.562.6-.562 2.694v1.51a5 5 0 00.835 2.87 6.589 6.589 0 001.745 1.551s2.519 1.357 4.032 2.133c0 0 1.529.872 1.327 2.259a1.5 1.5 0 01-1.6 1.366 1.409 1.409 0 01-1.348-1.457v-1.64h-5.4v2.383s-.151 4.554 6.79 4.554c0 0 6.631.135 6.942-4.675v-1.933a5.067 5.067 0 00-2.347-4.5z"/></g></svg>