<svg xmlns="http://www.w3.org/2000/svg" width="168.6" height="187.1" viewBox="0 0 168.6 187.1"><path d="M83.9 99.3H27.8L0 148.1h56.2l27.7-48.8zm28.5-50L84.3 0 56.2 49.3l28.1 49.3 28.1-49.3zm-.1 98.8h56.3l-27.8-48.8H84.7l27.6 48.8z" fill-rule="evenodd" clip-rule="evenodd" fill="#ed1c24"/><path d="M109.8 186.4h4.2v-22.5h-4.2v22.5zm47.1 0h4.2v-22.5h-4.2v22.5zm-126 0h4.2v-22.5h-4.2v22.5zm20.3-22.5h-13v3.9h4.3v18.6h4.3v-18.6h4.4v-3.9zm97.3 8.6h-9.4v-8.6h-4.2v22.5h4.2v-10.1h9.4v10.1h4.2v-22.5h-4.2v8.6zM17.4 174l-4-10.1H8.6v22.5h4.2v-13.9l4.6 11.1 4.4-11.3v14.1H26v-22.5h-4.7L17.4 174zm69.3-10h-4.2v16c0 1.7-2 3.2-3.7 3.2-1.7 0-3.7-1.4-3.7-3.2v-16H71l.1 15.8c0 4 3.8 7.3 7.9 7.3 4 0 7.9-3.3 7.9-7.3l-.2-15.8zm16.2 10.2c.6-.4 2.8-1.7 2.8-4.5 0-3.9-3.1-5.7-5.2-5.8h-9.7v22.4h8.6c3.4 0 7.1-1.6 7.1-6 0-3.6-1.8-5.1-3.6-6.1zm-3.3 8.4H95v-14.8h4.4c1.2 0 2.1 1 2.1 2.2s-.5 2.6-2 2.6h-1.8v3.8h2c1.2 0 2.8 1.1 2.8 3.4-.2 1.9-1.8 2.8-2.9 2.8zm-46.8-3.5v.9c0 3.9 3.1 6.8 7 6.8s7-2.6 7-6.5c0-2-.8-3.6-2.2-4.9-1.1-1-4.4-2.6-5.6-3.4-1.2-.7-1.7-1.3-1.8-2.3 0-1.5 1-2.6 2.6-2.6s2.8 1.2 2.8 2.8v1h3.7v-1c0-3.6-2.3-6.5-6.5-6.5-3.6 0-6.5 2.5-6.5 6.5 0 1.8.8 3.5 2.9 4.8 2.2 1.4 4.9 2.5 5.8 3.4.6.6.9 1.3.9 2.2 0 1.7-1.4 2.9-3.1 2.9s-3.1-1.5-3.3-2.9c0-.4-.2-1-.1-1.2h-3.6zm70.9-7c-1.2-.7-1.7-1.3-1.8-2.3 0-1.5 1-2.6 2.6-2.6 1.5 0 2.8 1.2 2.8 2.8v1h3.7v-1c0-3.6-2.3-6.5-6.5-6.5-3.6 0-6.5 2.5-6.5 6.5 0 1.8.8 3.5 2.9 4.8 2.2 1.4 4.9 2.5 5.8 3.4.6.6.9 1.3.9 2.2 0 1.7-1.4 2.9-3.1 2.9-1.7 0-3.1-1.5-3.3-2.9 0-.4-.2-1-.1-1.2h-3.6v.9c0 3.9 3.1 6.8 7 6.8s7-2.6 7-6.5c0-2-.8-3.6-2.2-4.9-1.1-1.1-4.3-2.7-5.6-3.4z" fill-rule="evenodd" clip-rule="evenodd"/></svg>