<svg xmlns="http://www.w3.org/2000/svg" width="145.859" height="24.486" viewBox="0 0 145.859 24.486"><defs><clipPath id="a"><path d="M2633.94-2372.728h145.86v-24.486h-145.86z" transform="translate(-2633.94 2397.213)"/></clipPath></defs><g clip-path="url(#a)" fill="#00a679"><path d="M24.515 0c-3.573 6.332-6.827 12.487-10.188 18.537C10.542 12.275 7.145 5.625 4.315 0h-.919C3.042 3.714.92 18.5-.004 24.2c.424-.036.813-.106 1.273-.106.389 0 .778.071 1.238.106 0-4.351.955-11.355 1.733-18.254 2.406 4.6 4.882 9.2 7.146 13.867l1.945 4h.389c2.122-4.882 5.165-10.542 9.268-17.864.5 3.5 1.2 11.143 1.8 18.254.53-.036 1.1-.106 1.662-.106.531 0 1.026.071 1.663.106-.955-6.757-1.946-15.459-2.866-24.2zm10.102 7.393h2.028l2.634.053a18.341 18.341 0 012.371.29 7.877 7.877 0 01-.079-.79c0-.263.053-.5.079-.79H32.3v17.935h9.508c-.026-.263-.079-.527-.079-.79s.053-.5.079-.79a18.816 18.816 0 01-2.423.237c-1.58.053-3.161.158-4.767.106v-7.691h4.083c.79 0 1.554.105 2.344.131-.026-.29-.079-.527-.079-.737a5.462 5.462 0 01.077-.685c-.79.027-1.554.132-2.344.132h-4.083z"/><path d="M46.598 24.091h5.136c2.792 0 5.715-.053 7.954-2a9.669 9.669 0 003.318-7.77 8.327 8.327 0 00-2.817-6.584c-2.213-1.844-4.872-1.58-7.612-1.58h-5.979zm2.318-16.883c1.133-.026 2.238-.105 3.319-.105 5.9 0 8.191 2.028 8.191 7.611 0 3.213-.948 6.137-3.793 7.559-2.133 1.081-5.4.764-7.717.633z" fill-rule="evenodd"/><path d="M46.598 24.091h5.136c2.792 0 5.715-.053 7.954-2a9.669 9.669 0 003.318-7.77 8.327 8.327 0 00-2.817-6.584c-2.213-1.844-4.872-1.58-7.612-1.58h-5.979zm2.318-16.883c1.133-.026 2.238-.105 3.319-.105 5.9 0 8.191 2.028 8.191 7.611 0 3.213-.948 6.137-3.793 7.559-2.133 1.081-5.4.764-7.717.633zM67.531 24.17c.368-.026.764-.079 1.159-.079.369 0 .737.053 1.159.079V6.155c-.421.026-.79.079-1.159.079-.4 0-.79-.053-1.159-.079zm7.867-3.556a12.067 12.067 0 01-.5 2.345 6.781 6.781 0 004.292 1.527c3.582 0 6.505-2.239 6.505-6.005 0-5.61-8.3-3.661-8.3-8.507a3.111 3.111 0 013.318-3.081 3.377 3.377 0 013.266 2.291h.264a14.71 14.71 0 01.711-2.159 5.916 5.916 0 00-3.767-1.264c-3.161 0-5.847 1.659-5.847 5.057 0 5.952 8.243 3.793 8.243 8.691a3.712 3.712 0 01-3.656 3.844c-2.054 0-3.24-1.054-4.266-2.739z"/><path d="M98.414 15.953H92.62l2.871-6.742zM96.439 5.762h-.605l-8.218 18.41c.29-.026.58-.079.922-.079.316 0 .605.053.974.079.738-2.476 1.686-4.794 2.607-7.111h6.69c1.054 2.4 2 4.925 2.766 7.111.447-.026.9-.079 1.4-.079.449 0 .87.053 1.37.079z" fill-rule="evenodd"/><path d="M98.414 15.953H92.62l2.871-6.742zM96.439 5.762h-.605l-8.218 18.41c.29-.026.58-.079.922-.079.316 0 .605.053.974.079.738-2.476 1.686-4.794 2.607-7.111h6.69c1.054 2.4 2 4.925 2.766 7.111.447-.026.9-.079 1.4-.079.449 0 .87.053 1.37.079zm26.28.393c-.263.026-.5.079-.737.079a6.327 6.327 0 01-.735-.079v13.564h-.264l-12.51-13.564h-1.027V24.17a6.321 6.321 0 01.738-.079c.236 0 .474.053.737.079V9.974h.263l11.378 12.589a31.977 31.977 0 011.369 1.607h.79z"/><path d="M136.043 15.953h-5.794l2.871-6.742zm-1.975-10.191h-.605l-8.217 18.41c.29-.026.579-.079.922-.079.316 0 .605.053.974.079.738-2.476 1.686-4.794 2.608-7.111h6.69c1.053 2.4 2 4.925 2.765 7.111.448-.026.9-.079 1.4-.079.448 0 .87.053 1.37.079z" fill-rule="evenodd"/><path d="M136.043 15.953h-5.794l2.871-6.742zm-1.975-10.191h-.605l-8.217 18.41c.29-.026.579-.079.922-.079.316 0 .605.053.974.079.738-2.476 1.686-4.794 2.608-7.111h6.69c1.053 2.4 2 4.925 2.765 7.111.448-.026.9-.079 1.4-.079.448 0 .87.053 1.37.079z"/><path d="M142.074 7.513h.759c.392.018.584.2.584.541 0 .375-.3.645-.776.645h-.567zm0 1.448h.2l.41.453.618.741.324.428c.1-.009.2-.026.3-.026s.192.018.3.026l-.1-.122-.244-.27-1.072-1.273c.523-.088 1.064-.357 1.064-.925 0-.488-.349-.741-1.152-.741h-1.1v3.331a1.779 1.779 0 01.226-.026 2.247 2.247 0 01.227.026zm.7 2.625a2.678 2.678 0 01-2.634-2.669 2.677 2.677 0 012.634-2.66 2.655 2.655 0 012.605 2.66 2.657 2.657 0 01-2.608 2.669m0 .436a3.091 3.091 0 003.087-3.1 3.088 3.088 0 00-3.087-3.1 3.105 3.105 0 00-3.113 3.1 3.108 3.108 0 003.113 3.1" fill-rule="evenodd"/></g></svg>