<svg xmlns="http://www.w3.org/2000/svg" width="126.541" height="20.134" viewBox="0 0 126.541 20.134"><path d="M125.062.706v3.769a15.019 15.019 0 00-5.212-1.11 4.175 4.175 0 00-2.158.49 1.413 1.413 0 00-.815 1.2c0 .629.609 1.188 1.836 1.688l3.543 1.724c2.865 1.366 4.286 3.179 4.286 5.457a5.322 5.322 0 01-2.275 4.522 9.926 9.926 0 01-6.074 1.688 28.184 28.184 0 01-3.148-.156 24.336 24.336 0 01-3.19-.6v-3.944a18.738 18.738 0 005.946 1.11c2.13 0 3.19-.618 3.19-1.864 0-.62-.434-1.121-1.315-1.513l-3.935-1.677a8.1 8.1 0 01-3.237-2.395 5.418 5.418 0 01-1.048-3.287 5 5 0 012.186-4.217A9.709 9.709 0 01119.46 0a21.616 21.616 0 012.69.2c1.007.133 1.977.3 2.912.506zM13.6.706v3.769a15.006 15.006 0 00-5.209-1.11 4.167 4.167 0 00-2.158.49 1.413 1.413 0 00-.815 1.2c0 .629.617 1.188 1.844 1.688l3.543 1.724c2.854 1.366 4.278 3.179 4.278 5.457a5.343 5.343 0 01-2.267 4.522 9.96 9.96 0 01-6.083 1.688 28.235 28.235 0 01-3.151-.156 24.517 24.517 0 01-3.187-.6v-3.944a18.815 18.815 0 005.944 1.11c2.13 0 3.19-.617 3.19-1.864 0-.62-.431-1.121-1.3-1.513L4.294 11.49a7.947 7.947 0 01-3.237-2.395A5.349 5.349 0 010 5.807 4.982 4.982 0 012.189 1.59 9.659 9.659 0 018 0a21.8 21.8 0 012.7.2c1 .133 1.969.3 2.9.506zm9.831-.353v19.428h-5.77V.353zM42.2 19.781H27.9V.353h14.129v3.591h-8.575v4.308h7.429v3.237h-7.437v4.522h8.75zm3.19 0V.353h7.045l4.809 11.893L62.275.353h6.692v19.428h-5.388V6.967l-5.59 12.991h-3.326L49.287 6.967v12.814zm42.336 0h-14.3V.353h14.129v3.591h-8.528v4.308h7.437v3.237h-7.437v4.522h8.7zm20.075 0h-6.122L94.81 7.321v12.46h-3.894V.353h6.3l6.692 12.246V.353h3.893z" fill="#099" fill-rule="evenodd"/></svg>