<svg xmlns="http://www.w3.org/2000/svg" viewBox="0 0 667.506 542.52" height="578.688" width="712.007"><path d="M333.63 485.966c-117.362 0-214.703-97.34-214.703-214.702 0-6.103.28-12.15.797-18.133l179.647 11.21-77.701 53.681a4.082 4.082 0 00-1.746 3.338 4.074 4.074 0 004.072 4.071H541.25c-24.395 91.692-108.925 160.535-207.62 160.535m0-429.412c117.362 0 214.703 97.348 214.703 214.71 0 6.055-.267 12.062-.78 18.005L368.078 277.86l77.877-53.362a4.063 4.063 0 001.744-3.339c0-2.246-1.816-4.07-4.054-4.07H126.01c24.403-91.693 108.924-160.535 207.62-160.535m307.923 238.69l-58.74-3.736c.535-6.676.82-13.432.82-20.244 0-138.076-111.928-250.004-250.004-250.004-119.464 0-219.347 83.805-244.092 195.828H43.408a9.36 9.36 0 00-7.433 3.665l-13.728 18.954a4.674 4.674 0 00-.987 2.876 4.686 4.686 0 004.693 4.692l58.51 3.65a252.44 252.44 0 00-.83 20.339c0 138.068 111.928 249.996 249.996 249.996 119.465 0 219.347-83.805 244.101-195.829h46.36a9.35 9.35 0 007.433-3.664l13.735-18.954a4.69 4.69 0 00-3.705-7.569" fill="#1a171b"/></svg>