<svg version="1.0" xmlns="http://www.w3.org/2000/svg" width="175.748" height="93.688" viewBox="0 0 175.748 93.688"><path d="M136.854 38.182c-4.883 0-8.547 3.43-8.547 8.72 0 5.235 3.547 8.836 8.547 8.836 5.059 0 8.256-3.485 8.256-8.777-.002-5.232-3.198-8.779-8.256-8.779zm2.792 13.023c0 1.567-1.279 2.791-2.791 2.791s-2.731-1.224-2.731-2.791v-8.836a2.729 2.729 0 012.731-2.733c1.512 0 2.791 1.222 2.791 2.733v8.836zm-20.815-12.733c-1.221 0-2.906.233-3.777 1.454v-1.569c-2.21.407-2.56.522-7.675.522v1.745c1.687 0 2.731.116 2.731 1.976v16.395c-.059 2.094.291 3.604-2.789 3.604v1.861h10.929V62.6h-.349c-2.094 0-2.85-1.104-2.85-2.326V54.17c.988 1.338 2.325 1.629 3.547 1.629 4.709-.062 7.268-3.199 7.268-8.838 0-5.117-2.094-8.489-7.035-8.489zm1.223 13.198c0 1.279-.99 2.326-2.269 2.326a2.333 2.333 0 01-2.326-2.326v-8.837c0-1.279 1.047-2.269 2.326-2.269 1.278 0 2.269.989 2.269 2.269v8.837z"/><path fill="#FDB727" d="M81.74 45.217c-.93.93-1.802 1.86-2.674 2.732v-3.257l2.326-2.323c.175.23.349.348.349 1.046l-.001 1.802zm13.43-12.5a134.068 134.068 0 00-5.175 4.593v-1.395c-.521.407-2.325.813-3.022.871a120.23 120.23 0 016.977-6.453v2.325l1.22.059z"/><path fill="#FDB727" d="M101.563 27.31c10.931-8.836 22.791-16.685 34.94-22.034 8.256-3.372 13.022-4.767 16.396-1.046 3.373 3.663-3.896 15.581-5.407 17.093-1.86-.582-2.558.349-2.558.349.696-.232 1.918.291 1.104 2.151-.348.696-1.743 1.686-2.325.058-.696 1.744-2.383 4.709-4.418 7.442-6.86 9.359-16.396 18.371-30.289 30.754-22.731 20.231-34.475 24.766-42.382 28.08-5.698 2.149-20.174 5.291-10.697-12.209 1.977-4.533 7.267-12.093 14.825-20.813h-2.325v-.815c-5.582 6.513-11.046 13.662-14.65 20.757C50.87 82.25 45.231 98.586 66.16 92.25c6.86-2.15 25.289-11.047 45.58-29.244 21.452-19.184 32.323-32.789 36.045-37.265.755-.872 1.511-2.269.93-3.314 3.663-5.465 8.722-16.859 5.058-20.348-4.068-3.896-12.092-1.337-15.174-.176-4.824 1.92-23.313 10.814-41.102 25.406h4.066v.001z"/><path d="M64.59 17.369c-.175.756-.64 1.86-3.43 3.547-7.093 4.127-18.836 4.535-28.022 4.302-14.127-.349-19.999-3.604-21.452-4.883-.814-.756-.698-1.454.232-2.152 2.616-1.977 11.86-2.674 17.964-2.674s13.08 1.395 13.022 3.023c0 1.686-3.372 1.918-4.128 1.976-.523.059-1.104-.174-1.104-.465.117-.465.93-.465 1.337-.581.349-.059.523-.35.523-.756 0-.523-1.512-1.046-2.732-1.222-3.546-.93-8.198-.639-10.639-.464-4.36.291-7.384 1.627-7.384 2.674 0 .988 2.558 3.953 15.29 4.36 16.395.523 24.069-2.268 27.79-4.94 2.558-1.978.64-3.314-1.802-4.535-6.686-3.141-19.36-3.431-25.697-3.488-7.15-.116-19.069.755-24.127 1.686-1.104.291-.872 1.222.698.873 1.86-.291 14.883-1.221 21.22-.873 6.337.291 14.069.117 21.22 3.663 1.22.756 1.627 2.094-.233 3.14-1.802.988-6.453 3.256-17.325 3.313-10 .116-11.278-1.569-12.15-2.268-.349-.29-.407-1.163.93-1.861a7.184 7.184 0 012.964-.639c.814 0 1.105.873.233.931-.872.232-1.802.35-1.802.988 0 .523.582.582 1.221.813.581.232 3.662.931 7.558.931 5.697 0 10.058-.813 12.616-2.325 1.046-.523 1.337-2.209-.465-2.791-2.791-.93-7.791-2.558-18.197-2.558-7.15 0-20.463 1.104-24.3 2.15C3.082 16.671 0 17.543 0 19.171c0 1.627 2.093 2.383 3.082 2.731 5.639 1.978 21.568 4.36 27.848 4.42 17.499.174 27.324-1.279 33.37-6.454.465-.582 1.279-1.453 1.395-2.325.116-1.162-.872-1.22-1.105-.174zm-16.801 11.86c4.36 0 5.523-.116 7.325-.581v12.209c1.57-2.616 3.605-2.616 5.931-2.616 1.976 0 4.535 1.802 4.535 5.813v5.117c0 3.256.174 4.535 2.326 4.535h.058v1.512h-9.127v-1.512c1.627 0 1.744-1.861 1.744-3.373l.058-1.162V44.23c0-2.093-.698-3.313-2.035-3.313-2.733 0-3.489 2.209-3.489 5.116v3.662c.117 2.443 0 4.013 2.035 4.013v1.512h-9.534v-1.512c2.035 0 2.558-1.162 2.558-3.431V32.95c0-1.687.058-2.094-1.163-1.86-1.57.465-2.035 1.279-2.733 3.43l-6.802 21.513h-1.511L32.79 41.497 27.5 56.032h-1.512l-9.476-22.966c-.582-1.859-2.035-2.034-3.896-2.15v-1.688h11.977v1.688h-.466c-1.279 0-1.22.407-1.22 1.221 0 .465.058.872.407 2.093l5.116 13.953 3.488-9.767-1.453-3.605c-.872-2.791-1.105-3.895-3.779-3.895v-1.688h10.813v1.688l-.581.058c-.872.116-.988.523-.988 1.337 0 .407.058.64.407 1.687l4.07 13.196 4.535-14.358c.291-1.396-1.105-1.918-1.861-1.978V29.23l4.708-.001zm29.765 4.186c0 1.512-1.279 2.791-2.849 2.791-1.511 0-2.732-1.279-2.732-2.791 0-1.57 1.279-2.791 2.732-2.791 1.57 0 2.849 1.221 2.849 2.791zm-7.615 21.802h9.592v-1.629c-2.093 0-2.268-1.045-2.268-4.359V38.124c-1.569.523-3.546.582-7.732.582v1.686h.698c1.86 0 2.151 1.979 2.151 2.035v6.803c0 3.256-.291 4.359-2.441 4.359v1.628zM88.774 39.81c1.569-1.918 4.187-1.337 4.418-1.337 1.687 0 2.559 1.803 2.559 3.024 0 1.686-1.104 2.964-2.615 2.964-1.453 0-2.559-.93-2.559-2.384 0-.465.059-.755.232-.988.174-.174.174-.231.174-.291 0-.058.06-.464-.059-.464-.232 0-.64-.233-1.162.464-.931 1.104-.988 2.035-.988 3.488v6.978c.115.756.291 1.627 1.048 2.092.405.232.464.351 1.336.351v1.512h-9.592V53.59c2.093 0 2.267-.988 2.267-4.244V42.37c0-2.095-.988-1.979-2.791-1.979v-1.627c4.07 0 5.755-.058 7.73-.465v1.51h.002v.001zm84.183 9.768c0 3.254.696 3.776 2.791 4.067V55.1h-10.581v-1.512c2.093-.232 2.79-.756 2.79-4.01V33.24c0-1.629-.988-2.384-2.209-2.441l-.581.058v-1.686c4.127 0 5.697.058 7.79-.466v20.873zm-16.976-11.396c-4.885 0-8.547 3.43-8.547 8.72 0 5.235 3.488 8.836 8.487 8.836 5.058 0 8.313-3.485 8.313-8.777.001-5.232-3.255-8.779-8.253-8.779zm2.732 13.023c0 1.567-1.221 2.791-2.731 2.791a2.793 2.793 0 01-2.791-2.791v-8.836c0-1.513 1.279-2.733 2.791-2.733s2.731 1.222 2.731 2.733v8.836zm-54.939-1.627c0 3.254.697 3.776 2.789 4.067V55.1h-10.58v-1.512c2.093-.232 2.85-.756 2.85-4.01V33.24c-.059-1.629-1.047-2.384-2.268-2.441l-.582.058v-1.686c4.187 0 5.697.058 7.791-.466v20.873zm23.889 12.049v.721c-.496.262-1.067.394-1.716.394-.527 0-.975-.103-1.341-.307a2.318 2.318 0 01-1.192-2.019c0-.667.244-1.227.734-1.682.49-.454 1.094-.681 1.813-.681.495 0 1.046.125 1.651.376v.704c-.552-.305-1.092-.457-1.618-.457-.541 0-.988.164-1.347.495a1.628 1.628 0 00-.534 1.244c0 .501.175.915.526 1.238s.801.484 1.348.484c.573.002 1.13-.168 1.676-.51zm3.147-3.58c.729 0 1.336.224 1.82.672.485.447.729 1.009.729 1.685 0 .674-.246 1.232-.735 1.675s-1.106.663-1.851.663c-.712 0-1.304-.221-1.777-.663s-.711-.996-.711-1.662c0-.685.239-1.25.716-1.697.476-.449 1.079-.673 1.809-.673zm.026.622c-.54 0-.983.165-1.331.492-.348.328-.521.745-.521 1.255 0 .493.175.903.523 1.231.349.327.785.491 1.309.491.527 0 .966-.167 1.318-.502.353-.333.528-.749.528-1.247 0-.485-.176-.894-.528-1.224-.353-.33-.784-.496-1.298-.496zm3.373 4.02v-4.576h1.183c.477 0 .856.114 1.136.344.281.23.421.539.421.932 0 .266-.068.496-.205.69a1.243 1.243 0 01-.592.436c.15.097.299.228.442.393.144.166.347.456.608.868.164.26.296.457.395.587l.25.327h-.804l-.205-.301-.041-.056-.132-.18-.209-.335-.226-.357a3.613 3.613 0 00-.384-.448 1.483 1.483 0 00-.314-.241c-.094-.049-.251-.073-.473-.073h-.175v1.991h-.675zm.879-4.02h-.203v1.444h.257c.342 0 .577-.027.703-.084a.648.648 0 00.298-.258.726.726 0 00.106-.392.687.687 0 00-.118-.392.622.622 0 00-.333-.247c-.143-.046-.379-.071-.71-.071zm3.242 4.02v-4.583h1.496c.45 0 .81.119 1.078.354.267.235.401.553.401.95 0 .266-.069.502-.206.707a1.176 1.176 0 01-.563.447c-.239.093-.582.139-1.028.139h-.499v1.985h-.679zm1.378-3.999h-.699v1.432h.739c.275 0 .486-.063.636-.188.148-.126.223-.306.223-.54-.001-.47-.3-.704-.899-.704zm4.501-.643c.729 0 1.336.224 1.821.672.484.447.728 1.009.728 1.685 0 .674-.245 1.232-.735 1.675-.489.442-1.106.663-1.851.663-.712 0-1.304-.221-1.777-.663s-.711-.996-.711-1.662c0-.685.239-1.25.716-1.697.476-.449 1.079-.673 1.809-.673zm.026.622c-.54 0-.983.165-1.331.492-.348.328-.521.745-.521 1.255 0 .493.175.903.523 1.231.349.327.785.491 1.309.491.527 0 .966-.167 1.318-.502.353-.333.528-.749.528-1.247 0-.485-.176-.894-.528-1.224-.352-.33-.784-.496-1.298-.496zm3.374 4.02v-4.576h1.182c.477 0 .856.114 1.136.344.281.23.421.539.421.932 0 .266-.068.496-.205.69a1.243 1.243 0 01-.592.436c.15.097.299.228.442.393.144.166.347.456.608.868.164.26.296.457.395.587l.25.327h-.804l-.205-.301-.041-.056-.132-.18-.209-.335-.226-.357a3.613 3.613 0 00-.384-.448 1.483 1.483 0 00-.314-.241c-.093-.049-.251-.073-.472-.073h-.176v1.991h-.674zm.878-4.02h-.203v1.444h.257c.342 0 .577-.027.704-.084s.227-.143.297-.258a.726.726 0 00.106-.392.687.687 0 00-.118-.392.624.624 0 00-.332-.247c-.143-.046-.38-.071-.711-.071zm4.787-.583h.474l2.117 4.603h-.692l-.629-1.356h-2.014l-.59 1.356h-.693l2.027-4.603zm.993 2.664l-.762-1.657-.706 1.657h1.468zm1.02-2.644h3.941v.584h-1.646v3.999h-.679V58.69h-1.617v-.584zm4.586.007h.676v4.576h-.676v-4.576zm4.039-.066c.729 0 1.335.224 1.82.672.485.447.728 1.009.728 1.685 0 .674-.245 1.232-.734 1.675s-1.106.663-1.851.663c-.712 0-1.304-.221-1.777-.663s-.711-.996-.711-1.662c0-.685.238-1.25.716-1.697.476-.449 1.08-.673 1.809-.673zm.026.622c-.54 0-.983.165-1.331.492-.349.328-.521.745-.521 1.255 0 .493.174.903.522 1.231.35.327.785.491 1.31.491.526 0 .966-.167 1.318-.502.352-.333.528-.749.528-1.247 0-.485-.177-.894-.528-1.224-.352-.33-.784-.496-1.298-.496zm7.102-.556h.643v4.576h-.582l-3.154-3.524v3.524h-.635v-4.576h.547l3.182 3.556v-3.556z"/></svg>