<svg xmlns="http://www.w3.org/2000/svg" width="221.1" height="180.5" viewBox="0 0 221.1 180.5"><path fill-rule="evenodd" clip-rule="evenodd" fill="#006CB6" d="M.6 114.9H14v16l12.6-16.5h9.7l-21 27.3v3.5l22.4 25.3-9.2.5L14 156.1V171H.6v-56.1zm124.8-3.7H140v14h-14.6v-14zm0 16.7H140v42.5h-14.6v-42.5zm76.9-3.2h6.6c6.2 0 11.3 5.1 11.3 11.3v34.3h-24.7c-6 0-10.9-4.7-11.2-10.6V154c0-6.2 5.1-11.3 11.3-11.3h10.8l.1-7.6-4 .1-4.5-.2v2.5h.1v1.9h-14v-3.5c0-6.2 5.1-11.3 11.3-11.3h6.9v.1zm-4.3 35v.3l8.1-.1v-6.8l-8.1-.1.3 6.7h-.3zm-47.3-34.8h21.2c4.9 0 8.9 3.8 8.9 8.4v6.9h-13.6v-4.5h-11.9v23.6h11.9v-7.7h13.6V162c0 4.6-4 8.4-8.9 8.4h-21.2c-4.9 0-8.9-3.8-8.9-8.4v-28.7c0-4.6 4-8.4 8.9-8.4zm-63.7-.2h24.7c6.2 0 11.3 5.1 11.3 11.3v34.3h-14.1l.3-35.3-9.1.2v35.1H87v-45.6zm-34 .2h21.2c4.9 0 8.9 3.8 8.9 8.4V162c0 4.6-4 8.4-8.9 8.4H53c-4.9 0-8.9-3.8-8.9-8.4v-28.7c0-4.6 4-8.4 8.9-8.4zm4.5 10.8h11.9v23.6H57.5v-23.6zm-18.9-21.2h8.1l-20.6 28.6 22 26.9-8.3-.1-22.5-26.1-.3-1.8 21.6-27.5z"/><path fill="#EC1C24" d="M1.3 178.4h219.8v2.1H1.3v-2.1z"/><path fill-rule="evenodd" clip-rule="evenodd" fill="#B01117" d="M214.4 73c.2.4.3.8.5 1.1 3.5 10 5.7 20.7 6.2 31.7H115.5L214.4 73z"/><path fill-rule="evenodd" clip-rule="evenodd" fill="#D71921" d="M214.1 71.9l.3.9-98.2 33h-2.8L198 43.2c6.6 8.5 12.2 18.4 16.1 28.7z"/><path fill-rule="evenodd" clip-rule="evenodd" fill="#EC1C24" d="M173.3 19.9c.1 0 .5.2.6.3 9.1 6.4 17.2 14.2 24.1 23L113.5 106h-1.2l61-86.1z"/><path fill-rule="evenodd" clip-rule="evenodd" fill="#F27052" d="M168.3 16.5c1.6 1.1 3.3 2.2 5 3.4l-61 86h-.6L143.9 5.2c8.7 2.8 16.8 6.6 24.4 11.3z"/><path fill-rule="evenodd" clip-rule="evenodd" fill="#F59579" d="M143.9 5.2l-32.1 100.7h-.5L110.3 0c11.7 0 23 1.8 33.6 5.2z"/><path fill-rule="evenodd" clip-rule="evenodd" fill="#FFF100" d="M110.3 0l1 105.9h-.5L78 4.8C88.2 1.7 99 0 110.2 0h.1z"/><path fill-rule="evenodd" clip-rule="evenodd" fill="#00A551" d="M77.6 4.9l33.3 101h-.7L48.7 18.7c8.8-5.9 18.6-10.6 28.9-13.8z"/><path fill-rule="evenodd" clip-rule="evenodd" fill="#00ADEE" d="M48.7 18.7l61.5 87.2h-1.4L24 41.3c6.8-8.4 15.8-16.5 24.7-22.6z"/><path fill-rule="evenodd" clip-rule="evenodd" fill="#8680BC" d="M24.1 41.2l84.7 64.7h-3l-99-35c4.2-10.8 10-20.8 17.3-29.7z"/><path fill-rule="evenodd" clip-rule="evenodd" fill="#2E3191" d="M0 105.9c.4-3.9.5-8.2.7-12.5C1.9 85.6 4 78.1 6.8 70.9l99 35H0z"/></svg>