<svg xmlns="http://www.w3.org/2000/svg" width="2929" height="579" version="1.0"><path d="M154 428.5L14.502 289 154.25 149.25 294 9.5l139.75 139.75L573.497 289 434 428.5C357.277 505.225 294.276 568 294 568c-.276 0-63.277-62.775-140-139.5z" fill="#fdc509"/><path d="M154 428.5L14.502 289 154.25 149.25 294 9.5l139.75 139.75L573.497 289 434 428.5C357.277 505.225 294.276 568 294 568c-.276 0-63.277-62.775-140-139.5zm.501-93.501l45.994-46.002-46.248-46.247L108 196.503 61.753 242.75l-46.248 46.247L61.5 335c25.295 25.299 46.22 46 46.5 46 .28 0 21.205-20.7 46.501-46.001z" fill="#a2cd55"/><path d="M245.496 519.82c-26.398-26.5-47.177-47.57-46.177-46.821 1.659 1.24 5.888-2.71 47.997-44.818l46.179-46.178-45.748-45.756C222.587 311.082 202 289.905 202 289.187c0-.718-.365-1.08-.811-.803-.447.275-21.569-20.286-46.938-45.691L108.124 196.5 201 103l92.875-93.5 139.812 139.75L573.498 289 434 428.5C357.277 505.225 294.275 568 293.997 568c-.277 0-22.103-21.681-48.5-48.18z" fill="#979c8f"/><path d="M247.306 520.75L201.12 474.5l92.381-93 92.381-93-46.187-46.25L293.508 196l-46.507 46.499-46.506 46.498-46.166-46.165-46.165-46.165 92.136-92.834C250.974 52.775 292.9 11 293.47 11c.568 0 63.544 62.512 139.946 138.916l138.913 138.916-69.288 69.96C441.79 420.64 294.721 567 293.828 567c-.185 0-21.12-20.813-46.522-46.25z" fill="#936bac"/><path d="M247.163 520.663l-46.328-46.336 139.25-139.244L479.338 195.84l46.496 46.497 46.496 46.496-69.288 69.96C441.79 420.64 294.721 567 293.828 567c-.185 0-21.184-20.851-46.665-46.337zm-92.832-277.83l-46.167-46.166 92.136-92.834C250.974 52.775 292.902 11 293.472 11c.57 0 21.733 20.7 47.03 46.002l45.993 46.001-92.998 92.999-92.999 92.999-46.167-46.167z" fill="#69bf7a"/><path d="M340.246 428.746C315.36 403.856 295 382.818 295 381.994c0-.824 41.514-43.01 92.253-93.747l92.253-92.249L526 242.5l46.494 46.502-92.495 92.499C429.127 432.375 387.051 474 386.498 474c-.553 0-21.367-20.364-46.252-45.254zM154.33 242.834l-46.167-46.167 92.136-92.834C250.974 52.775 292.902 11 293.472 11c.57 0 21.733 20.7 47.03 46.002l45.993 46.001-92.998 92.999-92.999 92.999-46.167-46.167z" fill="#ef594e"/><path d="M340.246 428.746C315.36 403.856 295 382.818 295 381.994c0-.824 41.514-43.01 92.253-93.747l92.253-92.249L526 242.5l46.494 46.502-92.495 92.499C429.127 432.375 387.051 474 386.498 474c-.553 0-21.367-20.364-46.252-45.254zm-186-186L108 196.492 154.5 150l46.5-46.492 45.062 44.996c24.784 24.748 45.455 45.701 45.937 46.563.686 1.227-9.132 11.573-45.316 47.75L200.492 289l-46.246-46.254z" fill="#e7891b"/><path d="M340.246 428.746C315.36 403.856 295 382.818 295 381.994c0-.824 41.514-43.01 92.253-93.747l92.253-92.249L526 242.5l46.494 46.502-92.495 92.499C429.127 432.375 387.051 474 386.498 474c-.553 0-21.367-20.364-46.252-45.254z" fill="#0094d3"/><path d="M340.246 428.746C315.36 403.856 295 382.816 295 381.992c0-.825 20.59-22.086 45.754-47.246L386.508 289 433 335.5l46.492 46.5-45.992 46c-25.296 25.3-46.446 46-47 46-.555 0-21.369-20.364-46.254-45.254z" fill="#01b4b2"/><path d="M1133 511.495c-47.334-6.472-88.356-28.87-116.287-63.495-32.471-40.252-45.535-96.558-34.656-149.37 11.107-53.92 46.226-98.927 95.316-122.15 59.835-28.306 132.307-23.376 186.207 12.666 12.297 8.223 29.564 24.35 38.925 36.354 40.592 52.056 48.54 126.716 20.014 188-25.302 54.357-76.978 90.568-140.493 98.449-11.284 1.4-37.224 1.16-49.026-.454zm49.5-74.413c41.597-10.766 69.513-51.322 69.496-100.963-.02-57.888-35.2-100.147-86.358-103.735-58.293-4.089-102.536 44.744-99.31 109.616 2.5 50.32 32.179 88.293 75.406 96.484 10.65 2.018 30.142 1.348 40.766-1.402zm408.026 74.33c-19.19-2.982-35.52-8.588-50.026-17.176-11.096-6.569-28.35-23.879-34.622-34.736-15-25.963-19.191-56.477-11.944-86.947 9.95-41.832 45.158-71.586 96.41-81.477 17.839-3.443 30.536-4.074 81.906-4.075L1722 287v-4.29c0-11.327-6.252-25.044-15.69-34.424-7.08-7.035-20.079-13.936-31.31-16.62-21.843-5.222-49.225-4.176-76 2.904-17.351 4.588-42.582 15.75-67.25 29.75l-9.75 5.535v-42.811c0-39.897.12-42.848 1.75-43.357.963-.3 9.625-3.314 19.25-6.695 31.016-10.897 54.312-15.924 83.862-18.095 59.588-4.378 111.25 10.408 141.634 40.537 17.827 17.677 28.143 37.349 34.647 66.066l2.264 10 .332 116.25.332 116.25H1722v-21.5c0-11.825-.29-21.5-.644-21.5-.353 0-4.291 3.49-8.75 7.755-23.271 22.264-47.923 34.754-77.298 39.165-9.772 1.468-33.823 1.195-44.782-.508zm71.974-74.852c14.597-4.366 23.643-9.703 34-20.06 10.362-10.362 15.791-19.168 20.467-33.197 2.946-8.835 6.015-25.19 6.027-32.113l.006-3.31-49.25.39c-43.147.34-50.117.61-56.25 2.173-26.73 6.815-40.5 22.995-40.5 47.586 0 17.125 7.343 29.054 22.13 35.954 10.858 5.066 17.138 6.024 36.87 5.624 15.483-.314 18.537-.665 26.5-3.047zm536.825 75.345c-67.521-7.868-122.92-50.113-145.697-111.104-30.236-80.96.04-172.338 71.513-215.837 24.861-15.131 51.883-23.544 84.109-26.185 23.293-1.91 50.727 1.364 73.629 8.784 13.903 4.505 36.326 15.76 47.621 23.903 40.263 29.026 65.591 72.49 71.516 122.722 1.55 13.144.799 41.796-1.407 53.666-14.537 78.23-72.8 133.145-152.41 143.654-12.051 1.591-36.894 1.792-48.874.397zm46.81-74.758c14.412-3.787 28.991-12.464 40.002-23.809 12.117-12.484 20.865-28.282 25.546-46.132 3.144-11.991 4.357-38.447 2.337-51.006-6.84-42.543-33.283-73.23-70.52-81.84-11.406-2.638-33.067-2.412-43.698.455-27.728 7.48-49.817 27.18-61.647 54.98-6.293 14.788-9.823 36.001-8.758 52.628 3.278 51.184 32.425 87.7 76.729 96.129 10.138 1.928 29.972 1.232 40.01-1.405zm452.303 74.315c-54.739-7.993-97.913-39.377-122.384-88.962-22.776-46.153-26.304-98.912-9.971-149.13 18-55.346 60.71-96.302 114.417-109.718 16.224-4.053 24.986-5.065 43.5-5.025 14.092.03 19.493.463 27.734 2.221 25.594 5.46 44.379 15.675 66.35 36.082l9.916 9.21V58h86v450h-84v-21.5c0-11.825-.271-21.5-.603-21.5-.332 0-4.928 4.093-10.214 9.095-16.785 15.885-38.263 28.569-57.455 33.929-17.846 4.984-43.251 6.364-63.29 3.438zm62.76-74.348c32.816-8.55 57.659-34.864 66.853-70.814 6.699-26.19 3.763-57.602-7.565-80.96-16.44-33.897-46.846-53.314-83.486-53.314-40.272 0-72.742 24.032-87.318 64.624-5.316 14.805-7.605 35.387-5.767 51.85 3.084 27.633 11.892 47.192 29.085 64.592 13.721 13.887 28.54 21.943 46.703 25.39 10.612 2.014 31.108 1.338 41.495-1.368zm-2139.531 70.22c-.367-.367-.667-101.617-.667-225V58h95.326C816.62 58 824.15 58.268 846 62.61c35.548 7.064 62.49 20.713 84.531 42.824 11.757 11.794 19.164 22.022 25.526 35.25 21.078 43.821 20.75 103.875-.802 146.8-7.15 14.241-13.705 23.163-26.157 35.602-26.371 26.342-59.778 41.526-105.598 47.996-4.699.663-29.973 1.334-61.25 1.624l-53.25.496V508h-43.333c-23.834 0-43.634-.3-44-.667zm190.952-211.86c41.817-7.186 65.882-34.068 68.081-76.052 2.31-44.108-20.45-73.782-64.2-83.702-8.236-1.867-13.18-2.075-58.25-2.455l-49.25-.414V297h47.369c37.92 0 49.14-.304 56.25-1.526zm561.048 211.86c-.367-.367-.667-101.617-.667-225V58h86v450h-42.333c-23.284 0-42.634-.3-43-.667zm483 0c-.367-.367-.667-77.767-.667-172V164h85v43.227l9.25-8.803c27.465-26.137 52.024-36.593 89.512-38.109l15.26-.617-.26 40.4-.262 40.402-15 .668c-63.23 2.813-92.033 25.287-97.461 76.043-.64 5.974-1.039 44.55-1.039 100.25V508h-41.833c-23.009 0-42.134-.3-42.5-.667zM2437 336V164h85v344h-85V336zm-1-243V58h87v70h-87V93z" fill="#221e1f"/></svg>