<svg version="1.1" id="Layer_1" xmlns="http://www.w3.org/2000/svg" x="0" y="0" width="2500" height="856.5" viewBox="0 0 2500 856.5" xml:space="preserve"><style>.st0{fill-rule:evenodd;clip-rule:evenodd}</style><path class="st0" d="M138.7 270.9c5.8 19.2 12.6 34.4 20.4 45.9 13.6 19.9 30.5 29.8 50.7 29.8 10.9 0 20.3-4.3 28.3-12.9 8-8.6 12-20.6 12-36.1 0-13.9-4-26-12-36.3-5.2-6.5-16.3-16.3-33.1-29.4l-29.3-22.7c-8.8-6.9-15.9-14-21.1-21-9.7-13.5-14.6-28.4-14.6-44.6 0-21.5 5.7-39.5 17.2-53.8C168.8 75.4 184 68.3 203 68.3c7.8 0 17.2 2.4 28.1 7.3 11 4.7 17.3 7.1 18.9 7.1 4.2 0 7.1-1.2 8.7-3.7 1.7-2.5 3-6 3.8-10.6h7l7.5 90.9h-8.2c-5.6-27.4-14.6-46.5-26.9-57.3-12.3-10.8-24.4-16.3-36.5-16.3-9.4 0-17.6 3.5-24.6 10.4-6.9 6.8-10.4 16.3-10.4 28.5 0 11 2.7 20.4 8 28.1 5.4 7.9 13.6 16.2 24.9 24.8l30.1 23.2c18.9 14.4 32.1 27.7 39.8 39.8 7.6 12.2 11.4 26.7 11.4 43.4 0 22.4-6.8 41.1-20.4 56.1-13.5 15-30.8 22.5-51.9 22.5-10.6 0-21.7-2.5-33.3-7.5-11.5-5-18.1-7.5-19.7-7.5-4 0-6.8 1.5-8.2 4.6-1.4 3.1-2.3 6.4-2.7 9.8h-7.5L130.7 271l8-.1zm224.8-106.3v15h-34.1l-.3 120c0 10.6.7 18.6 2.2 24 2.7 9.6 7.9 14.4 15.7 14.4 4 0 7.5-1.2 10.4-3.5 3-2.4 6.4-6.1 10.2-11.2l4.4 4.6-3.7 6.3c-5.8 9.7-11.9 16.6-18.4 20.6-6.5 4-12.7 6-18.7 6-13.2 0-22.1-7.3-26.8-21.9-2.6-7.9-3.9-18.9-3.9-32.9V179.6h-18.2c-.5-.3-.9-.8-1.3-1.2-.3-.5-.4-1.1-.3-1.7-.1-1.1.2-2.2.7-3.1.6-.8 2.2-2.6 4.9-5.4 7.7-7.9 13.2-14.3 16.6-19.2 3.4-5 11.5-18.1 24.1-39.2 1.4 0 2.3.1 2.5.4.3.3.5 1.3.5 3.1v51.3h33.5z"/><path class="st0" d="M370.5 190c14.2-19.2 32.3-28.8 54.5-28.8 22.1 0 40.4 9 54.9 27.1s21.8 42.1 21.8 72.1c0 27.7-7 51.7-21.1 72.1-14 20.4-32.2 30.6-54.5 30.6-21.4 0-39.5-9.8-54.4-29.4-14.8-19.6-22.2-44.2-22.2-73.8-.1-27.5 7-50.8 21-69.9zm26.9-5.4c-11.2 12.7-16.7 34.5-16.7 65.4 0 24.7 4.4 47.8 13.4 69.2 9 21.4 21.5 32.1 37.5 32.1 12.5 0 22.1-7.1 28.8-21.5 6.8-14.3 10.2-33.1 10.2-56.3 0-24-4.3-46.7-12.9-67.9-8.6-21.3-21-31.9-37.3-31.9-8.9 0-16.5 3.7-23 10.9z"/><path class="st0" d="M482.7 349.9c10.2-1.1 17.1-3.3 20.4-6.7 3.3-3.5 5-10.8 5-21.9v-94c0-13.7-1.1-23.6-3.2-29.4-2-6-5.8-8.9-11.2-9-1.1 0-2.6.2-4.5.6-1.9.3-3.8.7-5.7 1.2V184l19.6-8.5c6.7-2.9 11.3-5 13.9-6.3 5.6-2.6 11.3-5.6 17.2-9 .8 0 1.2.4 1.3 1.1.2.7.3 2.2.3 4.4v34.2c7.1-12.3 14-22 20.6-29 6.7-7 13.6-10.4 20.8-10.4 5.7 0 10.3 2.1 13.9 6.5 3.6 4.2 5.3 9.4 5.3 15.8 0 5.7-1.4 10.5-4.2 14.4-2.7 3.9-6.1 5.8-10.2 5.8-4.2 0-8.5-2.4-12.9-7.3-4.2-4.9-7.6-7.3-10-7.3-3.9 0-8.7 4-14.4 11.9-5.7 7.8-8.5 15.8-8.5 24.2v94c0 12 2.2 20.3 6.7 25 4.5 4.6 11.9 6.7 22.2 6.5v6.9h-82.5l.1-7z"/><path class="st0" d="M684.2 181.7c11.8 13.5 17.7 32.7 17.7 57.5H595.8c1.1 32.3 7 55.7 17.6 70.5 10.6 14.7 23.1 22.1 37.6 22.1 11.7 0 21.6-3.8 29.6-11.4 8-7.7 15.4-18.5 22.2-32.5l5.8 2.5c-4.6 17.7-13.2 34-25.8 49-12.5 15-27.8 22.5-46 22.5-21 0-37.2-9.9-48.7-29.6-11.4-19.7-17.1-42.5-17.1-68.2 0-27.9 6.6-52 19.9-72.3 13.3-20.3 30.6-30.4 51.9-30.4 15.9-.2 29.6 6.6 41.4 20.3zm-80.1 15.8c-3.6 7.5-6.1 17-7.7 28.4H667c-1.2-13.9-3.3-24.3-6.4-31.1-5.5-12.2-14.6-18.3-27.4-18.3-12.7-.1-22.4 7-29.1 21z"/><path class="st0" d="M765 165.2v5.8c-4.3.2-7.9.9-10.9 2.3-2.9 1.2-4.3 4-4.3 8.1 0 2.7 3 10.1 8.9 22.3 3.1 6.4 7.1 14.2 11.9 23.6 5.2-8.7 10.1-17.5 14.7-26.5 5.4-10.3 8.2-16.9 8.2-20 0-3.6-1.2-6.1-3.5-7.3-2.3-1.2-5.6-2.1-9.9-2.5v-5.8H834v5.8c-5.7.6-11.2 2.6-15.9 5.8-5 3.2-9.1 7.7-11.9 12.9l-28.6 51.5 44.2 83.4c5.7 10.8 10.5 17.8 14.4 21 4 3.2 8.6 4.9 13.7 5.2v5.8h-69.1v-5.8l4.9-.4c2.4-.2 4.6-1.2 6.4-2.9 1.7-1.6 2.7-3.9 2.7-6.3 0-2.6-2.1-8.5-6.4-17.5-2.8-6.1-5.9-12.2-9-18.1-2.7-5.3-5.6-10.5-8.5-15.6-3.7-6.7-6.8-12.3-9.4-17.1l-27 52.3c-3.2 6.3-5.2 10.4-6 12.5-.7 1.7-1.1 3.4-1.2 5.2 0 2.6.8 4.4 2.5 5.2 1.8.8 5.6 1.8 11.4 2.7v5.8h-49.5v-5.8c6-1.5 10.5-3.5 13.4-5.8 2.9-2.4 6.7-7.9 11.5-16.5l39-70.7-32.1-60.6c-6.5-12.1-10.9-19.2-13.4-21.5-2.4-2.2-7.8-3.8-16.1-4.8v-5.8l71 .1zM886.5 349c14-1.3 23-3.8 27.1-7.7 4.1-4 6.2-14.3 6.2-30.8V120.6c0-15.7-2.1-25.8-6.2-30.2-4.1-4.6-13.2-7.3-27.1-8.1v-7.9h101.4v7.9c-13.9.8-23 3.5-27.1 8.1-4.1 4.4-6.2 14.5-6.2 30.2v189.9c0 16.5 2 26.8 6.2 30.8 4.1 3.9 13.2 6.5 27.1 7.7v7.7H886.5V349z"/><path class="st0" d="M970.5 350.9c7.9-1.3 13.4-3.7 16.5-7.3 3.2-3.7 4.9-12 4.9-24.8V213.2c0-8.9-.7-15.1-2-18.8-2.1-5.3-6.5-7.9-13.1-7.9-1 0-2 .1-3.2.2-1.3.2-2.6.4-3.8.6V180c10.9-4.2 21.7-8.5 32.4-12.9l15.7-6.5c.8 0 1.2.4 1.3 1.1.2 1 .3 1.9.3 2.9v30.6c10.3-12 18.3-20.2 24.1-24.6 8.7-6.8 17.7-10.2 27.1-10.2 7.6 0 14.5 2.7 20.8 8.1 12 10.6 18.1 29.4 18.1 56.5v97.3c0 10 1.6 17.2 4.9 21.7 3.2 4.4 8.6 6.7 16.2 6.9v5.8h-71.4v-5.8c8.1-1.4 13.8-4.2 17.1-8.3 3.2-4.3 4.8-13.6 4.9-27.7v-89c0-11.9-1.8-21.8-5.4-29.6-3.6-7.9-10.1-11.9-19.7-11.9-6.6 0-13.3 2.8-20.1 8.4-3.8 3.2-8.7 8.5-14.7 15.8v116.7c0 10 1.8 16.7 5.4 20.2 3.6 3.3 9.2 5.1 16.9 5.4v5.8h-73.1l-.1-5.8z"/><path class="st0" d="M1208.3 166.5c4.5 2.9 8.8 6.9 12.9 12.1v-66.3c0-8.5-.8-14.3-2.3-17.5-1.4-3.2-5-4.8-10.7-4.8-1.3 0-2.5.1-3.5.2-1 .2-3.2.4-6.7.8v-6.9l13.7-4.4c5-1.7 10.1-3.4 15.1-5.2 5-1.8 9.4-3.5 13.2-5.2 1.8-.7 4.7-2 8.9-4l1 .4-.3 21.9-.3 24.6c-.1 8.3-.2 16.6-.2 24.8l-.3 170.3c0 9 .9 15.4 2.7 18.9 1.8 3.6 6.5 5.4 14.2 5.4h3.7c1.2-.1 2.5-.3 3.7-.6v6.9c-.7.3-8.8 3.7-24.3 10.4l-26.3 12.3-1.2-1.9v-25.6c-6.3 8.5-11.7 14.5-16.2 18.1-8.1 6.2-17.5 9.4-28.3 9.4-18.9 0-34.4-9.1-46.2-27.3-11.7-18.3-17.5-39.5-17.5-63.6 0-30.1 7-56 21.1-77.5 14.2-21.7 31.4-32.5 51.9-32.5 7.9.1 15.4 2.3 22.2 6.8zm4.9 162.1c5.3-6.4 8-12.4 8-18.1v-89.4c0-18.1-3.9-30.8-11.7-38.2-7.7-7.5-15.2-11.2-22.6-11.2-14 0-25 7.8-32.8 23.3-7.8 15.4-11.7 34.5-11.7 57.1 0 22.4 4.1 42.3 12.4 59.8 8.4 17.5 20.8 26.3 37.3 26.3 8.7 0 15.7-3.2 21.1-9.6z"/><path class="st0" d="M1298.3 163.7v133.4c0 9.5 1.1 17 3.2 22.7 4.1 10.6 11.7 15.8 22.7 15.8 7.6 0 15-3.1 22.2-9.4 4.1-3.5 8.3-8.2 12.5-14.4V197.7c0-10.7-1.7-17.7-5-21.1-3.4-3.3-10.1-5.3-20.1-6v-6.9h54.1v146.7c0 9.5 1.3 16 4 19.6 2.8 3.5 8.6 5 17.4 4.6v5.8c-6.2 2.1-10.7 3.7-13.6 4.8-2.9 1-7.8 2.9-14.6 5.6-6.4 2.9-12.8 5.9-19.1 9-.6 0-.9-.4-1-1.1-.1-.7-.2-1.4-.2-2.1v-33.5c-7.6 11.2-14.5 19.6-20.7 25-9.5 8.3-19.5 12.5-30.1 12.5-9.7 0-18.8-4.3-27.4-12.9-8.7-8.5-13.1-22.7-13.1-42.7V196.9c0-11.1-1.9-18.5-5.7-22.3-2.5-2.3-7.7-4-15.7-5v-5.8l50.2-.1z"/><path class="st0" d="M1403.4 291.1h5.5c2.6 15.8 6 28 10.4 36.5 7.8 15.6 19.2 23.3 34.3 23.3 8.4 0 14.9-2.9 19.7-8.5 4.9-5.8 7.4-13.3 7.4-22.5 0-5.8-1.4-11.5-4.2-16.9-2.8-5.4-7.7-10.7-14.7-15.8l-18.7-13.3c-13.7-9.2-23.8-18.4-30.3-27.7s-9.7-20.3-9.7-32.9c0-15.6 4.5-28.4 13.4-38.4s20.1-15 33.6-15c5.9 0 12.4 1.4 19.4 4.2 7.1 2.8 11.1 4.2 12.1 4.2 2 0 3.4-.3 4.3-1.1 1-.9 1.8-2 2.3-3.3h4l1.2 58.1h-5.2c-2.2-13.5-5.2-24-9-31.5-6.9-13.9-16.9-20.8-29.9-20.8-7.8 0-14 3-18.4 9-4.5 6-6.7 13-6.7 21.1 0 12.8 7.7 24.2 23.1 34.2l22.1 14.8c23.7 16.1 35.6 34.9 35.6 56.3 0 16.4-4.9 29.8-14.9 40.2-9.8 10.4-22.7 15.6-38.6 15.6-6.7 0-14.3-1.4-22.8-4.2-8.5-2.8-13.5-4.2-15-4.2-1.3 0-2.5.6-3.5 1.9-1.1 1.2-1.9 2.6-2.4 4.2h-4.3l-.1-67.5z"/><path class="st0" d="M1575.4 164.6v15h-34.1l-.3 120c0 10.6.7 18.6 2.2 24 2.7 9.6 7.9 14.4 15.7 14.4 4 0 7.5-1.2 10.4-3.5 3-2.4 6.4-6.1 10.2-11.2l4.4 4.6-3.7 6.3c-5.8 9.7-11.9 16.6-18.4 20.6-6.5 4-12.7 6-18.7 6-13.2 0-22.1-7.3-26.8-21.9-2.6-7.9-3.8-18.9-3.8-32.9V179.6h-18.2c-.5-.3-1-.8-1.3-1.2-.2-.5-.4-1.1-.3-1.7-.1-1.1.2-2.2.7-3.1.6-.8 2.2-2.6 4.8-5.4 7.7-7.9 13.2-14.3 16.6-19.2 3.4-5 11.5-18.1 24.1-39.2 1.4 0 2.3.1 2.5.4.3.3.5 1.3.5 3.1v51.3h33.5z"/><path class="st0" d="M1554.1 349.9c10.3-1.1 17.1-3.3 20.4-6.7 3.3-3.5 5-10.8 5-21.9v-94c0-13.7-1.1-23.6-3.2-29.4-2-6-5.7-8.9-11.2-9-1.1 0-2.6.2-4.5.6-1.9.3-3.8.7-5.7 1.2V184l19.6-8.5c4.7-2 9.3-4.1 13.9-6.3 5.6-2.6 11.3-5.6 17.2-9 .8 0 1.2.4 1.3 1.1.2.7.3 2.2.3 4.4v34.2c7.1-12.3 14-22 20.6-29 6.7-7 13.6-10.4 20.8-10.4 5.7 0 10.3 2.1 13.9 6.5 3.6 4.2 5.4 9.4 5.4 15.8 0 5.7-1.4 10.5-4.2 14.4-2.7 3.9-6.1 5.8-10.2 5.8-4.2 0-8.5-2.4-12.9-7.3-4.2-4.9-7.6-7.3-10-7.3-3.9 0-8.7 4-14.4 11.9-5.7 7.8-8.5 15.8-8.5 24.2v94c0 12 2.2 20.3 6.7 25 4.5 4.6 11.9 6.7 22.3 6.5v6.9h-82.5l-.1-7z"/><path class="st0" d="M1669 72.2c3.3-4.3 7.5-6.4 12.4-6.5 4.8 0 8.9 2.2 12.2 6.5 3.4 4.2 5.2 9.3 5.2 15.4 0 6-1.8 11.1-5.2 15.4-3.4 4.2-7.4 6.3-12.2 6.3-4.9 0-9-2.1-12.4-6.3-3.3-4.3-5-9.4-5-15.4 0-5.9 1.6-11 5-15.4zm-26.5 278.7c11.9-1.4 19.5-3.9 22.6-7.5 3.1-3.8 4.7-13.7 4.7-30V214c0-9-.5-15.3-1.5-18.8-1.7-5.7-5.2-8.5-10.5-8.5-1.2 0-2.5.1-3.7.4-1.1.3-4.5 1.4-10.1 3.3V184l7.2-2.9c19.5-7.9 33.1-13.9 40.8-17.9 3.1-1.6 5.1-2.5 6-2.5.2 1 .3 2 .3 3.1v149.6c0 15.9 1.5 25.8 4.5 29.8 3.1 4 10.1 6.6 20.9 7.7v5.8h-81.3l.1-5.8z"/><path class="st0" d="M1820 181.7c11.8 13.5 17.7 32.7 17.7 57.5h-106.2c1.1 32.3 7 55.7 17.6 70.5 10.6 14.7 23.1 22.1 37.6 22.1 11.7 0 21.6-3.8 29.6-11.4 8-7.7 15.4-18.5 22.2-32.5l5.8 2.5c-4.6 17.7-13.2 34-25.7 49s-27.8 22.5-46 22.5c-20.9 0-37.2-9.9-48.7-29.6-11.4-19.7-17-42.5-17-68.2 0-27.9 6.6-52 19.9-72.3 13.3-20.3 30.6-30.4 51.9-30.4 15.7-.2 29.4 6.6 41.3 20.3zm-80.2 15.8c-3.6 7.5-6.2 17-7.7 28.4h70.6c-1.2-13.9-3.3-24.3-6.4-31.1-5.4-12.2-14.6-18.3-27.4-18.3-12.7-.1-22.4 7-29.1 21z"/><path class="st0" d="M1839.2 291.1h5.5c2.6 15.8 6 28 10.4 36.5 7.8 15.6 19.2 23.3 34.3 23.3 8.4 0 14.9-2.9 19.7-8.5 4.9-5.8 7.4-13.3 7.4-22.5 0-5.8-1.4-11.5-4.2-16.9-2.8-5.4-7.7-10.7-14.7-15.8l-18.7-13.3c-13.7-9.2-23.8-18.4-30.3-27.7s-9.7-20.3-9.7-32.9c0-15.6 4.5-28.4 13.4-38.4s20.1-15 33.6-15c5.9 0 12.4 1.4 19.4 4.2 7.1 2.8 11.2 4.2 12.1 4.2 2 0 3.4-.3 4.3-1.1 1.1-.9 1.9-2 2.4-3.3h4l1.2 58.1h-5.2c-2.2-13.5-5.2-24-9-31.5-6.9-13.9-16.9-20.8-30-20.8-7.8 0-13.9 3-18.4 9-4.5 6-6.7 13-6.7 21.1 0 12.8 7.7 24.2 23.1 34.2l22.1 14.8c23.8 16.1 35.6 34.9 35.6 56.3 0 16.4-5 29.8-14.9 40.2-9.8 10.4-22.7 15.6-38.6 15.6-6.7 0-14.3-1.4-22.7-4.2-8.5-2.8-13.5-4.2-15-4.2-1.3 0-2.5.6-3.5 1.9-1.1 1.2-1.9 2.6-2.4 4.2h-4.3l-.2-67.5zm143.4 57.9c12.6-1.7 20.8-4.4 24.4-8.4 3.8-4 5.7-14.1 5.7-30.2V120.6c0-15.1-1.9-25-5.5-29.6-3.7-4.7-11.9-7.6-24.6-8.8v-7.9h96.9v7.9c-12.6.8-21.1 3.4-25.4 7.7-4.2 4.3-6.4 13.6-6.4 27.7v205.1c0 4.7.6 8.5 1.9 11.2 1.3 2.6 4.2 4.3 8.5 5 2.6.4 5.2.7 8 .8 2.9.1 8.3.2 16.1.2 30.4 0 51-3.1 61.7-9.4 10.7-6.3 21.1-22.2 31.1-47.9h8.7l-16.7 74h-184.4V349z"/><path class="st0" d="M2244.4 164.6v15h-34.1l-.3 120c0 10.6.7 18.6 2.2 24 2.7 9.6 7.9 14.4 15.7 14.4 4 0 7.5-1.2 10.4-3.5 3-2.4 6.4-6.1 10.2-11.2l4.4 4.6-3.7 6.3c-5.8 9.7-11.9 16.6-18.4 20.6-6.5 4-12.7 6-18.7 6-13.2 0-22.1-7.3-26.8-21.9-2.6-7.9-3.9-18.9-3.9-32.9V179.6h-18.2c-.5-.4-1-.8-1.3-1.2-.2-.5-.3-1.1-.3-1.7-.1-1.1.2-2.2.7-3.1.6-.8 2.2-2.6 4.9-5.4 7.7-7.9 13.2-14.3 16.6-19.2 3.4-5 11.5-18.1 24.1-39.2 1.4 0 2.3.1 2.5.4.3.3.5 1.3.5 3.1v51.3h33.5z"/><path class="st0" d="M2325.1 166.5c4.5 2.9 8.7 6.9 12.9 12.1v-66.3c0-8.5-.8-14.3-2.4-17.5-1.4-3.2-5-4.8-10.7-4.8-1.3 0-2.5.1-3.5.2-1 .2-3.2.4-6.7.8v-6.9l13.7-4.4c5-1.7 10.1-3.4 15-5.2 5-1.8 9.4-3.5 13.2-5.2 1.8-.7 4.7-2 8.9-4l1 .4-.3 21.9c-.1 7.9-.2 16.1-.4 24.6-.1 8.3-.2 16.6-.2 24.8l-.3 170.3c0 9 .9 15.4 2.7 18.9 1.8 3.6 6.5 5.4 14.2 5.4h3.7c1.2-.1 2.5-.3 3.7-.6v6.9c-.7.3-8.8 3.7-24.2 10.4l-26.3 12.3-1.1-1.9v-25.6c-6.3 8.5-11.7 14.5-16.2 18.1-8.1 6.2-17.6 9.4-28.3 9.4-19 0-34.4-9.1-46.2-27.3-11.7-18.3-17.6-39.5-17.6-63.6 0-30.1 7-56 21.1-77.5 14.2-21.7 31.5-32.5 51.9-32.5 8.1.1 15.6 2.3 22.4 6.8zm4.9 162.1c5.4-6.4 8.1-12.4 8.1-18.1v-89.4c0-18.1-3.9-30.8-11.7-38.2-7.7-7.5-15.2-11.2-22.6-11.2-14.1 0-25 7.8-32.8 23.3-7.8 15.4-11.7 34.5-11.7 57.1 0 22.4 4.1 42.3 12.4 59.8 8.4 17.5 20.8 26.3 37.3 26.3 8.6 0 15.6-3.2 21-9.6zM110.3 441.1h350.1v350H110.3v-350z"/><path d="M584.4 441.1H876v350H584.4v-350z" fill-rule="evenodd" clip-rule="evenodd" fill="#4a494b"/><path d="M996.2 441.1h260v350h-260v-350z" fill-rule="evenodd" clip-rule="evenodd" fill="#656668"/><path d="M1376.4 441.1h197v350h-197v-350z" fill-rule="evenodd" clip-rule="evenodd" fill="#7e7f82"/><path d="M1693.6 441.1h139.9v350h-139.9v-350z" fill-rule="evenodd" clip-rule="evenodd" fill="#96989a"/><path d="M1953.6 441.1H2060v350h-106.4v-350z" fill-rule="evenodd" clip-rule="evenodd" fill="#b0b2b4"/><path d="M2178.2 441.1h49.3v350h-49.3v-350z" fill-rule="evenodd" clip-rule="evenodd" fill="#cccdcf"/><path d="M2344.6 441.1h22.6v350h-22.6v-350z" fill-rule="evenodd" clip-rule="evenodd" fill="#e6e6e7"/></svg>