<svg xmlns="http://www.w3.org/2000/svg" viewBox="0 0 500 84.876" height="84.876" width="500"><path d="M380.349 1.01v64.865c0 4.216 2.081 6.381 6.324 6.597.052.004 21.374.004 21.374.004v7.277c0 .812-.44 1.383-1.344 1.383h-34.602c-10.69 0-12.27-5.885-12.27-11.23V5.42c0-3.043 1.16-4.484 4.756-4.404l15.762-.005m-39.877-.001l.004 75.902c0 3.377-1.432 4.224-4.304 4.224h-16.236V5.2c0-2.503.958-4.185 4.598-4.185l15.938-.005M1 12.054C1 5.945 1.013 1 11.048 1h44.11v7.712c0 .549-.259 1.045-1.027 1.045l-26.434-.009c-3.553 0-5.34 1.704-5.34 5.288v20.346h31.102l.004 8.081c0 .716-.448 1.094-1.15 1.094H22.356V76.84c-.066 3.114-1.62 4.352-5.038 4.29H1V12.055M87.015 1.002v61.075c0 5.244.742 8.92 4.422 11.045 4.932 2.855 13.285 2.899 18.313.08 3.439-1.92 4.752-5.003 4.752-11.107V5.073c0-2.564.98-4.07 4.563-4.07h15.964l.004 59.27c0 13.767-8.669 19.415-16.332 21.51-10.198 2.78-25.687 2.824-35.31-.066-11.497-3.46-16.868-10.268-16.881-21.44l-.01-55.16c0-2.661.957-4.115 4.018-4.115h16.496m388.249.013c-4.05 0-6.36 1.888-7.273 5.502L454.916 61.77l-.355-.009-13.505-60.745h-18.462c-3.562 0-4.682 1.83-4.682 4.66v75.461h7.8c1.256 0 1.774-.623 1.774-1.901V15.964h1.234l16.693 65.172h10.93c4.12 0 5.653-1.69 6.667-5.762l14.985-59.41h1.212l-.005 65.172 14.585-.022c3.58 0 5.213-1.374 5.213-4.892V1.01l-23.737.005M232.58 44.554h-20.527v36.583h16.231c2.86 0 4.3-.839 4.3-4.225 0 0-.004-15.648-.004-32.358" fill="#231f20"/><path d="M231.383 28.921c.72-.584 1.142-1.023 1.195-2.279V1.017H216.64c-3.588 0-4.585 1.752-4.585 4.246V44.06l19.328-15.139" fill="#ed1a3a"/><path d="M161.013 74.798c8.915-1.26 11.88-6.557 11.88-14.365V5.361c0-3.293 1.782-4.36 4.083-4.36h16.443v52.072c0 12.806-2.697 19.275-10.281 24.734-3.948 2.832-10.852 6.064-25.81 6.064-8.564 0-12.371-.483-12.885-.601-.725-.167-1.019-.61-1.019-1.239v-6.723c3.518.1 11.572.347 17.589-.51M263.677 1.002c-10.026 0-10.03 4.945-10.03 11.054v20.645c0 .426-.185.598-.378.786L239.23 44.55h14.418v36.578h16.31c3.417.066 4.972-1.177 5.029-4.286V44.56h29.956c.702 0 1.155-.382 1.155-1.094V35.38h-31.111V15.034c0-3.58 1.792-5.288 5.34-5.288l26.443.009c.76 0 1.027-.492 1.027-1.041V1.002h-44.119" fill="#231f20"/></svg>