<svg xmlns="http://www.w3.org/2000/svg" width="300" height="79" viewBox="0 0 300 79"><path d="M137.78 55.508h6.472v-40.3h-9.413v27.945l-19.414-27.945h-8.237v40.3h9.12V30.21l15.001 21.474c2.06 2.647 4.118 3.824 6.472 3.824m47.653-40.3H148.96v7.06h13.53v33.24h9.12v-33.24h13.531l.294-7.06m11.177 40.3h26.18v-7.06h-22.944V38.447h16.473v-7.06h-16.473v-9.119h22.356v-7.06h-31.769v35.005c.294.883.588 5.295 6.177 5.295m65.892-6.471l-5.001-5.001c-2.353 3.236-6.471 5.295-11.178 5.295-7.942-.294-12.943-6.472-12.649-14.12.294-7.354 5.883-13.237 13.531-12.943 3.825 0 7.06 1.471 9.12 3.824l4.706-5.589c-3.53-3.824-8.53-6.177-14.414-6.471-12.649-.589-21.473 8.825-21.768 20.885-.588 12.06 7.649 22.062 20.297 22.356 7.354.294 13.532-2.942 17.356-8.236m28.239-33.829v15.885h-15.296V15.208h-9.12v40.3h9.12V38.153h15.296v17.355h9.119v-40.3h-9.12m-226.501 40.3l4.118-8.825h22.062l4.118 8.825h9.414l-18.532-40.3H73.066l-18.532 40.3h9.707zm15.296-32.946l7.943 17.356H71.595l7.942-17.356m-22.65 5.295c0-16.473-13.531-27.65-29.121-27.65C12.176.206.409 12.56.115 27.562v41.77l9.707 9.414V27.563c0-10.001 8.53-18.238 18.532-18.238 10.295 0 18.532 8.237 18.532 18.238s-8.237 18.238-18.532 18.238H14.528v9.413h12.943c16.767.294 29.416-10.001 29.416-27.357" fill="#0086A4"/></svg>