<svg version="1.0" xmlns="http://www.w3.org/2000/svg" width="1200" height="208" viewBox="0 0 900 156"><path d="M12.3 16.7c-1 .3-1.3 3.9-1.3 12.9v12.3l3 1.6c3.8 2 39.9 2.2 41.8.3.8-.8 1.2-4.6 1.2-10.8-.1-11.6-1.9-16.3-6.4-16.8-1.6-.2-3.2.2-3.6.8-.4.7-.8 5.1-.9 9.9-.1 4.7-.6 9-1.1 9.5-.5.5-2 .6-3.4.2-2.1-.5-2.6-1.3-2.7-3.9-.1-5.6-2.1-10-5.2-11-4.4-1.4-5.6.3-5 7.1.6 6.4-.9 8.9-4.7 7.7-1.6-.5-2-1.5-2-4.6 0-10.8-4.3-17.4-9.7-15.2zm71.9.5c-.9.9-1.2 15.8-1.2 60.9v59.7l3.6 2.1c2.5 1.5 5.2 2.1 9.8 2.1 10.6 0 10.1 1.5 10.3-29.7.1-14.7.3-27.4.3-28.1 0-3.3 3.1.5 7.3 9.3 1 2.2 2.3 4.7 2.8 5.5.5.8 1.2 2.2 1.5 3 .7 1.5 9.4 19.8 14.6 30.6 3.6 7.5 7.4 10 13.7 9.1 2.3-.3 4.9-1.1 5.8-1.9.9-.7 4.4-7.1 7.8-14.3 3.5-7.1 9-18.5 12.2-25.2 3.3-6.6 6.3-13.2 6.7-14.5.6-2.2.7-2.3 2.1-.4 1.2 1.6 1.5 6.4 1.5 27.2v25.2l3.6 2.1c2.5 1.5 5.2 2.1 9.3 2.1 10.5 0 9.6 5.4 9.9-59.3.2-52.4.1-56.8-1.6-61.3l-1.8-4.9h-14.7l-4.3 8.5c-2.3 4.7-5.8 11.9-7.7 16-1.9 4.1-5.8 12.4-8.7 18.5-2.9 6-7.2 15.3-9.7 20.5-7.5 15.8-11.7 24.1-12.5 24.6-.4.3-4.2-6.6-8.4-15.3-4.2-8.7-10.2-21.2-13.4-27.8-3.2-6.6-8.5-17.9-12-25-3.4-7.2-7.3-14.7-8.7-16.8-2.6-3.7-2.6-3.7-9.7-3.7-4.3 0-7.7.5-8.4 1.2zm193.4 1c-.8 1.3-2.4 4.8-3.6 7.8-1.2 3-3.6 8.9-5.2 13-1.7 4.1-3.7 9.3-4.5 11.5-.9 2.2-2.1 5.3-2.8 7-.7 1.6-2.1 5-3 7.5-1 2.5-2.3 5.8-3 7.5-.7 1.6-2 4.8-2.8 7-1.9 5-7.4 19-9.2 23-.7 1.6-1.9 4.8-2.8 7-2.1 5.7-7.6 19.4-9.3 23.3-.8 1.8-1.4 3.8-1.4 4.5 0 2.1 7.2 4.7 12.9 4.7 7.2 0 8.7-1.8 15-18.7 2.9-7.8 6.1-14.9 7-15.7 1.4-1.3 5.4-1.5 23-1.6 20.8-.1 21.4-.1 23.7 2.1 1.3 1.2 2.4 2.8 2.4 3.5 0 .7.6 2.5 1.4 4.1.8 1.5 2.1 4.6 2.9 6.8 5.5 14.7 6.1 15.7 9.9 17.6 3.6 1.9 10.1 2.5 13.2 1.3 3.1-1.2 1.5-7.1-8.5-32.4-5.5-14-10.4-26.4-10.9-27.5-.5-1.1-3.9-9.7-7.5-19-11.7-30-15.8-40-17-41.5-.7-.8-1.5-2.3-1.8-3.3-.5-1.4-1.9-1.7-8.6-1.7-7.3 0-8.2.2-9.5 2.2zm14.9 38.3c1.9 4.2 3.5 8 3.5 8.5s.6 2.4 1.4 4.2c5.8 13.6 7.3 17.7 6.8 18.2-1 1.1-31 .7-31.7-.4-.5-.8 12-33.8 14.2-37.3 1.1-1.8 2.5-.2 5.8 6.8zM370 16.8c-.7.3-1 21.4-1 60.8V138l4 2c2.1 1.1 5.7 2 7.9 2 7 0 7.1-.5 7.1-23.9 0-16.6.3-21.1 1.4-22 .8-.7 5.5-1.3 10.9-1.4 11.6-.2 10.9-.8 23.1 17.1 16.5 24.2 18.3 26.5 21.7 28.3 3.4 1.8 10.3 2.5 13.3 1.3 3.4-1.3 1.6-5.8-7.1-17.9-18.3-25.6-19.6-27.8-17.7-29.2 1-.7 2.7-1.3 3.9-1.3 3.1 0 10.5-6.7 12.6-11.4 1.6-3.6 1.9-6.9 1.9-24.8 0-20.4 0-20.7-2.7-25.8-2.5-4.8-7.2-9.4-13.3-13-2.1-1.2-8-1.5-33.7-1.5-17.2 0-31.7.1-32.3.3zm60 17.4c4.6 3.1 5.2 6.5 4.8 23.6l-.3 14.4-3.9 3.4-4 3.4-19-.2-19.1-.3V34.6l2.5-1.3c1.7-.9 7.7-1.3 19.1-1.3 15.6 0 16.8.1 19.9 2.2zm43.5-17.4c-.3.3-.5 2.4-.5 4.8 0 9.7 2.3 10.7 24.5 11.4l17 .5.5 52.2.5 52.3 4 2c2.1 1.1 5.3 2 7 2 6.3 0 6 3.1 6.3-54.1.2-36.1.6-52.7 1.3-53.6.9-1 5.5-1.3 19.5-1.3 19.6 0 21.4-.4 21.4-5.3 0-2.3-1.9-8.3-3.3-10.4-.6-1-11.6-1.3-49.2-1.1-26.7 0-48.7.3-49 .6zm127.7.4c-.9.9-1.2 15.4-1.2 59 0 49.1.2 58.3 1.5 60.8 2 3.9 9.3 6.7 14.3 5.4l3.7-.9.5-6.5c.3-3.6.4-30.3.3-59.3-.3-43.2-.6-53.4-1.8-56.3l-1.4-3.4h-7.3c-4.4 0-7.9.5-8.6 1.2zm90.3 4.4c-1.4 3.1-2.5 6-2.5 6.4 0 .4-1.3 3.8-2.9 7.6-3.2 7.6-8.5 20.7-10.8 26.9-.9 2.2-2.1 5.3-2.8 7-1.5 3.5-7 17.2-9.2 23-.9 2.2-2.1 5.3-2.8 7-.7 1.6-2.1 5-3 7.5-.9 2.5-2.3 5.8-3 7.5-.7 1.6-2 5-3 7.5-.9 2.5-2.3 5.8-3.1 7.3-3.9 7.8.5 12.7 11.3 12.7 3.6 0 6.5-.5 7.1-1.3.6-.6 3.6-7.7 6.7-15.7 3.1-8 6.6-15.5 7.8-16.8 2.1-2.2 2.4-2.2 23.6-2l21.4.3 2 3.5c1.1 1.9 2.3 4.6 2.8 6 .4 1.4 1.7 5 2.9 8s2.4 6.4 2.7 7.5c.8 2.8 4 6.6 7.1 8.7 3.4 2.3 14.4 2.5 16.1.4 1-1.2-.3-5.3-6.2-20.3-8.7-21.7-20.9-52.7-27.4-69.3-2.4-6.3-4.9-12.4-5.3-13.5-.5-1.1-2.1-4.9-3.5-8.4-2.8-6.7-5.2-11.1-7-12.3-.5-.4-4.5-.8-8.8-.8H694l-2.5 5.6zM706 53c4.6 9.1 14.1 33.1 13.5 34-.8 1.2-28.5 1.3-30.3.1-1.1-.6-1.1-1.3-.3-2.7.9-1.5 9.5-23.6 12.4-31.7.8-2.1 3.6-1.9 4.7.3zm76.7-36.3c-1.1 1.1-.8 117.2.3 119.3.5 1 2.5 2.8 4.4 4 2.9 1.7 4.7 2 10.8 1.8l7.3-.3.5-44.5c.3-24.5.7-44.6.8-44.8.1-.1.7-.2 1.4-.2 1.6 0 50.6 48.8 52.4 52.2 1 2 1.4 6.6 1.4 17.2v14.4l3.1 2.6c3.9 3.3 5.9 3.8 13.9 3.4l6.5-.3.3-58.6c.2-47.3 0-59.3-1.1-62.5l-1.4-3.9h-20.8l-.3 29c-.1 17.5-.6 29.3-1.2 29.9-.7.7-11-9.1-30.8-29.2l-29.7-30.3-8.6.1c-4.7 0-8.9.3-9.2.7zm-770 44.1c-2.5.5-2.1 3.9.7 5.7 1.3.9 4.7 1.8 7.5 2.2 2.8.3 5.6 1.2 6.1 1.9.6.7 1 4.1.8 7.6l-.3 6.3-6 .3c-8.9.3-10.5.9-10.5 3.5 0 4.1 7 5.7 24 5.6 16.8-.1 19.4-.6 19.8-3.7.6-3.8-1.5-5.2-7.3-5.2-8 0-8.5-.4-8.5-6.7 0-8.2.9-9.3 7.8-9.3 3.2 0 6.3-.5 7-1.2 1.6-1.6 1.5-5.5 0-6.5-1.2-.8-37.4-1.2-41.1-.5zm-.5 43.5c-.9 1-1.6 18.9-1.2 31 0 1 1.5 2.4 3.5 3.4 4.3 2 6.5.6 6.5-4.2 0-1.8.9-4.3 1.9-5.6 1.8-2.3 2.5-2.4 17-2.7l15.1-.3V122c0-2.1-.5-4.2-1.1-4.6-.7-.4-7.1-.6-14.3-.5-15.9.2-17.7-.5-18.9-6.9-.5-2.5-1.4-5.1-1.9-5.8-1.4-1.6-5.3-1.6-6.6.1z"/></svg>