<svg xmlns="http://www.w3.org/2000/svg" width="110.846" height="22" viewBox="0 0 110.846 22"><path d="M106.141 2.786A2.277 2.277 0 01108.39.5a2.3 2.3 0 011.589.66 2.292 2.292 0 010 3.22 2.233 2.233 0 01-3.839-1.589m-.186 0a2.466 2.466 0 002.456 2.477 2.323 2.323 0 001.713-.722 2.537 2.537 0 00.722-1.754 2.45 2.45 0 00-.722-1.754 2.39 2.39 0 00-1.712-.728 2.466 2.466 0 00-2.456 2.477m1.527 1.465h.351V3.1h.784a.705.705 0 01.31.041.452.452 0 01.186.351l.041.454v.206c.021.041.021.062.041.083h.433v-.066c-.062-.021-.083-.083-.1-.165a.642.642 0 01-.021-.227l-.021-.351a.583.583 0 00-.083-.33.743.743 0 00-.248-.165.627.627 0 00.268-.248.738.738 0 00.083-.392.668.668 0 00-.351-.64 1.088 1.088 0 00-.475-.083h-1.18l-.021 2.683zm.33-1.465v-.93h.826a.547.547 0 01.289.062.408.408 0 01.186.392c0 .186-.041.31-.144.371a.613.613 0 01-.372.1zM10.03 6.191L0 21.959h6.852L16.51 6.893zm41.3-.351V0h-19.5a6.32 6.32 0 00-4.685 2.353A8.265 8.265 0 0025.7 5.366V.041H15.313a2.476 2.476 0 00-2.084 1.114c-.578.764-2.951 4.685-2.951 4.685zm53.039 0V0H83.5a6.362 6.362 0 00-4.685 2.353 8.265 8.265 0 00-1.445 3.013v.475zM58.178.021h-5.84v5.82h5.841zm19.131 0H71.49v5.82h5.82zm0 7.925l-5.737-.351v6.749a1.905 1.905 0 01-1.9 1.94H59.85a1.852 1.852 0 01-1.672-1.919V6.687L52.4 6.274v10.34a6.326 6.326 0 005.407 5.345s.454.021.537.041h13.311s5.7-.454 5.7-5.944l-.045-8.11zM19.75 21.959h27.284a6.4 6.4 0 005.242-5.283 8.886 8.886 0 00.1-2.332c-.144-.867-1.8-4.705-5.345-5.036-2.123-.208-21.048-1.713-21.048-1.713A5.926 5.926 0 0027.779 11a7.543 7.543 0 003.405 1.63l14.591 1.218a1.189 1.189 0 11.083 2.373H25.447V7.553l-5.675-.413c-.022.001-.022 14.819-.022 14.819zm57.6.041h20.886a6.371 6.371 0 005.985-5.283 9.606 9.606 0 00.041-2.373c-.145-1.176-1.816-4.726-5.387-5.077-2.104-.207-21.153-1.321-21.153-1.321a5.573 5.573 0 001.9 3.1A6.706 6.706 0 0082.9 12.61l14.735 1.238c.454.021 1.383.062 1.383 1.176a1.247 1.247 0 01-.371.867 2.388 2.388 0 01-.97.268H77.413z" fill="#00539b"/></svg>