<svg xmlns="http://www.w3.org/2000/svg" version="1.0" width="399.458" height="169.221"><path d="M32.315 148.599H20.767v-35.563h11.548c7.914 0 11.58 5.9 11.58 16.46 0 14.5-4.398 19.103-11.58 19.103m-11.548-87.16h11.266c5.816 0 10.523 4.28 10.523 16.07 0 11.916-5.44 16.038-10.523 16.038H20.767V61.44zm30.819 40.51v-.099c4.579-3.213 11.898-8.74 11.898-26.505 0-22.952-11.976-33.348-28.153-33.348H0v126.034h35.146c19.92 0 29.619-14.766 29.619-36.766 0-20.525-8.052-26.193-13.179-29.317zm51.371-40.509h11.266c5.816 0 10.507 4.28 10.507 16.07 0 11.915-5.423 16.037-10.507 16.037h-11.266V61.44m42.33 64.411c0-15.706-4.874-20.118-11.511-23.903v-.098c4.58-3.213 11.835-8.74 11.835-26.505 0-22.952-11.912-33.348-28.09-33.348H82.19v126.034h20.753l.014-54.995h11.262c5.907 0 10.13 4.908 10.13 16.047v38.948h20.927l.011-42.18zm40.485-95.247c0-9.477 8.701-10.7 13.509-10.7s13.475 1.2 13.475 10.7l-.008 62.943h-26.99l.014-62.943M199.281 0c-8.778 0-34.246 1.99-34.246 27.474v140.574h20.763v-55.002h26.96l-.007 54.979h20.78V27.475c0-25.532-25.5-27.475-34.25-27.475zm96.443 41.97v99.216c0 5.049-4.175 8.422-10.377 8.422-6.23 0-10.328-3.379-10.328-8.422l-.016-99.215-20.757.026-.005 102.503c0 19.517 20.064 24.721 31.128 24.721 10.964 0 31.115-5.23 31.115-24.744V41.971h-20.76m82.978 126.044l-.008-99.172c0-5.05-4.172-8.422-10.371-8.422-6.23 0-10.335 3.382-10.335 8.422l-.006 99.172-20.764.016V65.528c0-19.516 20.068-24.72 31.132-24.72 10.964 0 31.108 5.23 31.108 24.743v102.463h-20.756"/></svg>