<svg xmlns="http://www.w3.org/2000/svg" width="1024" height="277" viewBox="0 0 1024 277"><path fill="#A53656" d="M44.476 0h3.347v94.991h-3.347zm890.223 79.439h43.821v17.052c10.749-16.296 22.876-23.576 41.94-23.576h3.465v44.735c-9.348 0-20.45 3.122-28.073 9.017-13.166 10.745-13.513 24.966-13.166 40.912v104h-47.987V79.439z"/><g fill="#A53656"><path d="M636.661 79.439h43.704v17.052c10.741-16.296 22.868-23.576 41.94-23.576h3.465v44.735c-9.363 0-20.451 3.122-28.081 9.017-13.166 10.745-13.513 24.966-13.166 40.912v104h-47.862V79.439zm-20.679-.075l-.055 117.366c-1.354 28.286-18.773 54.398-43.295 67.352-14.024 7.615-30.168 12.679-46.972 12.852-5.521.063-11.127-.149-16.738-1.307-33.853-6.3-64.186-29.656-71.21-64.745-1.346-6.221-2.086-12.694-2.232-19.458V79.407l48.146-.016.13 110.418c.421 9.149 2.177 18.111 7.808 25.262 10.788 14.095 30.79 19.607 48.649 14.095 10.623-3.103 20.442-10.536 24.506-21.316 2.331-5.283 3.252-11.3 3.441-17.19l-.055-111.268 47.877-.028z"/><path fill-rule="evenodd" clip-rule="evenodd" d="M154.783 150.043c8.745 17.544 6.808 42.381-5.209 57.721-13.076 18.024-35.841 27.309-58.87 21.891-21.691-4.929-39.117-23.749-42.582-45.712-3.744-23.427 7.071-45.318 25.962-57.264 17.021-11.548 43.988-11.284 60.871.602 8.347 5.603 15.356 13.612 19.828 22.762M46.653.055l-.075 91.471.205.138c19.462-15.32 44.484-20.568 70.588-18.344 39.794 4.264 73.352 34.841 84.499 72.737 9.272 33.294 2.256 70.344-19.789 95.275-17.789 20.183-43.271 33.049-70.832 35.49-41.782 2.213-79.998-18.143-98.881-53.948C3.253 206.4.06 189.446.052 167.224L.004 62.847-.074.04l46.727.015z"/></g><path d="M372.213 154.752c-7.627-22.884-28.77-36.763-52.343-36.763-22.875 0-46.444 14.572-53.378 36.763h105.721zm-105.027 40.916c6.934 22.19 27.384 36.751 50.606 36.751 17.328 0 33.963-6.592 42.979-16.64h50.953c-11.789 34.325-51.646 61.154-92.2 61.154-55.807 0-101.212-44.515-101.212-100.338 0-18.931 4.918-36.743 13.596-52.09 17.399-30.754 49.921-51.59 88.31-51.59 54.76 0 98.44 47.153 98.44 100.909 0 7.275-1.386 14.56-2.426 21.844H267.186zm607.697-41.767c-7.622-22.88-28.773-36.751-52.334-36.751-22.884 0-46.444 14.564-53.39 36.751h105.724zm-105.031 41.585c6.946 22.199 27.389 36.751 50.618 36.751 17.324 0 33.955-6.583 42.972-16.639h50.957c-11.789 34.325-51.366 61.335-91.913 61.335-55.814 0-101.503-44.696-101.503-100.511 0-56.871 44.365-103.685 101.913-103.685 54.76 0 98.433 47.165 98.433 100.905 0 7.284-1.387 14.561-2.426 21.844H769.852z" fill-rule="evenodd" clip-rule="evenodd" fill="#A53656"/></svg>