<svg xmlns="http://www.w3.org/2000/svg" width="133.163" height="21" viewBox="0 0 133.163 21"><path d="M0 20.543V.134h8.558c2.886.031 5.672.182 7.606 2.779a7.018 7.018 0 011.288 4.336 7.156 7.156 0 01-2.088 5.348c-1.521 1.523-3.558 1.679-5.569 1.771H6.058v6.175zM8.378 9.634a4.028 4.028 0 002.862-.814 1.923 1.923 0 00.541-1.361 2.2 2.2 0 00-.516-1.359c-.877-.951-2.294-.842-3.456-.842H6.135v4.376h2.242m18.899 10.933l-.232-1.357a7.094 7.094 0 01-4.745 1.791 6.125 6.125 0 01-3.659-1.154 4.768 4.768 0 01-1.547-3.642 3.69 3.69 0 01.877-2.235 5.949 5.949 0 013.944-2.178l2.733-.341a8.54 8.54 0 011-.229 2.461 2.461 0 00.749-.263 1.93 1.93 0 00.413-1.157c0-.579-.749-1.05-1.909-1.05a1.963 1.963 0 00-1.779.75 1.515 1.515 0 00-.207.839l-5.181-.031a6.011 6.011 0 011.315-3.12c1.056-1.186 2.732-1.936 6.007-1.936.619 0 3.145-.261 5 .983a4.016 4.016 0 011.573 1.851 9.357 9.357 0 01.413 3.958v4.074a10.391 10.391 0 00.619 4.449zm-.542-6.554c-.747.261-1.52.494-2.294.754l-.567.173a1.287 1.287 0 00-1.161 1.346 1.337 1.337 0 001.419 1.387 5.812 5.812 0 001.211-.184c1.032-.288 1.109-.959 1.392-1.251v-2.225m16.14 6.568v-7.232c0 .861.232-2.822-.541-3.186a2.873 2.873 0 00-1.341-.364 1.862 1.862 0 00-1.676.933 6.931 6.931 0 00-.361 2.909v6.941h-5.569V5.623h5.259l.077 1.738c.723-.884 1.573-2.027 4.666-2.027 2.269 0 4 .792 4.693 3.089a10.135 10.135 0 01.283 2.333v9.825h-5.491M73.812 9.95a1.781 1.781 0 00-1.934-1.514 2.608 2.608 0 00-1.315.312 1.085 1.085 0 00-.335.856.9.9 0 00.438.655 3.919 3.919 0 001.263.322l2.191.569c1.547.392 2.887.668 3.97 1.751a3.564 3.564 0 01.9 1.448 3.95 3.95 0 01.129 1.637 4.408 4.408 0 01-1.341 3.283c-1.057.97-2.733 1.7-5.8 1.7a9.832 9.832 0 01-5.1-1.225 5.082 5.082 0 01-2.269-4.038l5.311-.018a1.7 1.7 0 00.541 1.266 2.057 2.057 0 001.65.531c1.134 0 1.779-.546 1.8-1.045a.986.986 0 00-.129-.656c-.258-.428-.954-.609-1.959-.866 0 0-3.094-.665-3.326-.776-.7-.319-3.506-.951-3.506-4.085a4.125 4.125 0 011.418-3.189c.954-.828 2.527-1.6 5.337-1.6a9.576 9.576 0 015.208 1.313 4.518 4.518 0 011.318 1.369 5.281 5.281 0 01.593 2h-5.053m19.156 8.919a7.985 7.985 0 01-5.827 2.117 7.157 7.157 0 01-5.672-2.4 8.322 8.322 0 01-1.831-5.637 8.164 8.164 0 01.49-2.975c1.109-3.262 4.125-4.75 7.3-4.721a7.617 7.617 0 015.414 2.032 7.888 7.888 0 012.14 5.894 8.329 8.329 0 01-2.014 5.69zm-4.125-9.034a2.409 2.409 0 00-1.5-.551 2.1 2.1 0 00-1.263.488c-.671.544-1.16 1.371-1.16 3.231 0 1.459.335 3.9 2.4 3.9a1.922 1.922 0 001.521-.583 4.545 4.545 0 00.98-3.242 5.305 5.305 0 00-.98-3.242m23.02-4.262h5.465v15.032h-5.465zm0-5.574h5.465v3.912h-5.465zm15.993 11.322c-.413-1.8-1.288-1.894-2.269-1.894a1.642 1.642 0 00-1.315.494c-.7.593-.928 1.328-.928 3.161 0 .14-.077 2.589 1.264 3.52a1.472 1.472 0 001.031.27 2.384 2.384 0 001.032-.181 2.092 2.092 0 001.211-1.986l5.286-.045a8.733 8.733 0 01-.774 2.527 7.152 7.152 0 01-6.7 3.716 11.645 11.645 0 01-2.347-.253 6.96 6.96 0 01-4.847-4.175 9.04 9.04 0 01-.541-3.272 8.661 8.661 0 01.979-4.17 7.216 7.216 0 011.187-1.633 8.432 8.432 0 015.723-2.032 7.737 7.737 0 015.363 1.833 6.72 6.72 0 011.186 1.865 8.619 8.619 0 01.646 2.256h-5.187m-63.762 4.875v-4.062a11.036 11.036 0 00-.541-4.2 3.377 3.377 0 00-1.366-1.7c-1.857-1.243-4.589-1.008-5.208-1.008-3.274 0-4.95.864-6.007 2.049a5.961 5.961 0 00-1.263 3.13h5.182a1.777 1.777 0 01.206-.841 1.916 1.916 0 011.727-.846c1.16 0 1.908.591 1.908 1.169 0 .316-.026.836-.258 1.007a4.077 4.077 0 01-.929.41q-.386.066-1.005.23l-2.707.342c-1.624.377-2.888.707-3.945 2.122a3.487 3.487 0 00-.774 2.341 4.631 4.631 0 001.419 3.595 5.793 5.793 0 003.661 1.056 7.013 7.013 0 004.692-1.728l.232 1.418h5.594a10.234 10.234 0 01-.618-4.484zm-6.832 1.379a3.964 3.964 0 01-1.134.082 1.541 1.541 0 01-1.418-1.4 1.274 1.274 0 011.16-1.333l.593-.164c.747-.261 1.521-.48 2.269-.741l.026 1.911c-.232.431-.49 1.357-1.5 1.645m48.014 2.977v-7.272c0 .861.258-2.776-.515-3.143a2.923 2.923 0 00-1.315-.361 1.831 1.831 0 00-1.676.933 5.488 5.488 0 00-.438 2.733l-.056 7.138-5.439-.023V5.596h5.233l.078 1.737c.721-.885 1.572-2.027 4.693-2.027a4.412 4.412 0 014.666 3.251 10.1 10.1 0 01.258 2.151v9.852l-5.492-.005" fill="#2c4285"/></svg>