<svg xmlns="http://www.w3.org/2000/svg" width="369.78" height="111.012" version="1.0"><path d="M128.317 24.597c7.593 0 13 5.663 14.512 13.144h-29.04c1.513-7.588 6.749-13.144 14.528-13.144m.273-20.625c-24.012 0-41.04 17.793-41.04 42.959v2.671c0 25.54 17.701 42.264 45.08 42.264 6.08 0 20.816 0 34.804-10.847V62.212c-11.45 8.656-19.032 9.885-28.911 9.885-14.379 0-23.547-5.664-25.342-18.594h55.589c.064-1.336.064-2.672.064-3.954.582-29.173-17.889-45.577-40.244-45.577m71.052 13.946C207.619 8.3 215.367 4.293 225.55 4.293c12.45 0 28.997 7.427 28.997 32.272v53.11h-25.032V40.52c0-11.968-5.348-16.83-12.417-16.83-6.193 0-10.954 3.419-17.456 13.945v52.041h-25.096V6.697h25.096v11.22M27.51 71.242h20.816c5.258 0 10.147-1.87 10.147-8.656 0-6.519-4.889-8.656-10.147-8.656H27.51v17.312m.075-33.127h19.15c4.028 0 10.017-.16 10.017-6.465 0-5.718-5.653-6.68-10.018-6.68h-19.15v13.145M84.618 64.99c0 5.984-2.202 13.732-9.394 19.342-6.983 5.343-14.303 5.717-21.051 5.717H3.546V4.4h48.841c4.996.108 8.859.108 13.368 1.604C73.562 8.62 81.93 13.75 81.93 25.986c0 8.388-4.216 14.96-10.964 18.487 2.233 1.229 4.258 2.244 6.374 4.22 3.692 3.26 7.278 8.55 7.278 16.297m233.261 2.084c-3.42 4.114-8.175 6.091-13.305 6.091-6.572 0-11.487-3.045-15.067-8.335-2.768-4.168-4.216-9.618-4.21-15.495 0-7.48 2.463-13.945 6.347-18.433 3.527-4.382 7.427-5.985 12.93-5.985 3.74 0 7.32.855 10.26 3.1 5.449 4.434 8.922 12.502 8.922 21.104 0 6.893-2.19 13.625-5.877 17.953m7.694 20.624l-.107-.32c14.907-5.237 25.219-19.77 25.219-39.486 0-32.753-25.647-44.347-45.47-44.347-23.904 0-45.827 15.067-45.827 44.134 0 26.608 19.251 44.08 45.667 44.187 3.9 4.648 25.166 22.761 57.278 12.503l3.9-27.57c-15.495 13.036-37.187 11.914-40.66 10.9" class="ps00" fill="#482a91"/></svg>