<svg version="1.1" id="Layer_1" xmlns="http://www.w3.org/2000/svg" x="0" y="0" width="1639" height="350" viewBox="0 0 1639 350" xml:space="preserve"><style>.st1{fill:#fefefe}</style><path d="M0 0h166.5v166.5H0V0z" fill="#f25022"/><path class="st1" d="M166.5 0h17v166.5H350V0h1289v129.5c-11.9 0-23.8-.1-35.6.1-.3-15 0-30.1-.1-45.1-11.9 3.6-23.7 7.4-35.6 10.8-.3 11.4 0 22.8-.2 34.2h-52.7c.2-9-.6-18 .7-27 1.1-7 5.2-14.1 12-16.8 8.7-3.5 18.3-1.2 26.5 2.4-.1-10.3.1-20.6-.1-30.9-17.3-4.8-37.1-3.8-52.5 6.2-9.9 6.3-17.1 16.5-20.3 27.7-3.8 12.4-1.9 25.6-2.5 38.4-8.3-.1-16.6-.1-25 .1.1 9.6.1 19.2 0 28.9 8.4.2 16.7 0 25.1.1-.1 40.5 0 80.9 0 121.4h36V158.5h52.7c.1 25.8 0 51.6 0 77.4.2 12 2.2 24.9 10.2 34.4 6.9 8.4 17.8 12.2 28.4 13 11.1.8 22.6-.6 32.9-5V350H350V183.5H183.5V350h-17V183.5H0v-17h166.5V0z"/><path d="M183.5 0H350v166.5H183.5V0z" fill="#80ba01"/><path d="M1501.4 63.4c15.4-10 35.2-10.9 52.5-6.2.1 10.3 0 20.6.1 30.9-8.2-3.6-17.9-6-26.5-2.4-6.9 2.7-10.9 9.8-12 16.8-1.3 8.9-.4 18-.7 27h52.7c.1-11.4-.1-22.8.2-34.2 11.9-3.4 23.8-7.2 35.6-10.8.1 15-.1 30 .1 45.1 11.9-.2 23.8 0 35.6-.1v29.2c-11.9-.5-23.8-.1-35.8-.2.1 16.8 0 33.6 0 50.4.2 9.3-.5 18.7.6 27.9.7 5.5 2.6 11.5 7.8 14.4 8.6 4.8 19.5 2.7 27.4-2.6v29.5c-10.3 4.5-21.8 5.8-32.9 5-10.6-.8-21.5-4.6-28.4-13-8-9.5-10-22.3-10.2-34.4-.1-25.8 0-51.6 0-77.4h-52.7v121.5h-36c0-40.5-.1-81 0-121.4-8.3-.2-16.7 0-25.1-.1 0-9.6.1-19.2 0-28.9 8.3-.2 16.6-.1 25-.1.6-12.8-1.3-25.9 2.5-38.4 3.2-11 10.4-21.1 20.2-27.5zm-770.9 2.1c7.3-1.1 15.1 1.4 19.9 7.1 5.6 6.2 6.7 16.1 2.5 23.4-4.6 8.2-15 12-24 10-9.3-1.7-17.1-10.4-16.7-20.1-.3-10.1 8.3-19.2 18.3-20.4zm-276 4.5h52.4c16.3 41.4 32.7 82.7 49 124.1 4.2 10.4 8.1 20.8 12.4 31.1 21-51.7 42.2-103.3 63.1-155.1 16.8-.3 33.6-.1 50.4-.1v210c-12.1 0-24.2.1-36.3-.1.1-51.6 0-103.3.1-155 0-2.3-.1-4.6-.2-7-.7 1.1-1.3 2.2-1.9 3.4-20.8 52.9-42 105.6-62.7 158.5-8.6.3-17.2 0-25.9.2-21.5-52.9-42.7-105.9-64-158.8-.6-1.1-1.2-2.2-1.8-3.2-.4 22.6-.1 45.3-.2 67.9v94h-34.3c-.1-69.9-.1-139.9-.1-209.9zm375.1 59.3c17.4-5 36.1-4.8 53.5.2 3.6 1 7 2.4 10.3 4.3-.2 11.5 0 23-.1 34.4-11.6-8.9-26.3-14.5-41.1-12.6-11.7 1.1-22.9 7.1-29.9 16.6-9 11.7-11.1 27.3-9.5 41.7 1.2 11.2 5.8 22.5 14.5 29.9 9.1 8.1 21.8 10.9 33.7 10 11.7-1.4 22.8-6.3 32.3-13.3.1 10.9 0 21.7.1 32.6-14.7 8.8-32.4 11-49.2 10.2-17.2-.9-34.4-7.4-46.9-19.6-13.6-13.1-20.9-31.7-21.8-50.4-.9-19.4 3.1-39.7 14.2-55.9 9.3-13.7 23.9-23.5 39.9-28.1zm243.9-2.5c17.3-2.2 35.5-1.2 51.5 6.1 13.9 6.3 25.2 17.9 31.5 31.8 6.7 14.8 8.3 31.4 7.2 47.5-1.1 15.7-6 31.4-15.8 43.8-10 13.2-25.2 22.2-41.3 25.5-13.8 2.9-28.3 2.9-42.2 0-16.6-3.5-31.9-13.1-41.6-27.1-11.4-16.2-14.6-36.8-13.2-56.2 1-16.5 6.1-33.1 16.6-46 11.5-14.6 29.2-23.2 47.3-25.4zm149.4.3c16.6-2.9 34.1-.8 49.8 5.2v33.1c-11-7.6-24.5-11.6-37.8-11.2-6.7.3-14.1 3.1-17.2 9.5-2.4 6.3-.8 14.6 5.2 18.4 10.2 6.8 22.4 9.7 33 15.9 8.3 4.7 16.4 10.8 20.6 19.6 7.9 16.5 4.6 38.4-9.4 50.7-13.3 12.4-32.5 15.9-50.1 15.2-12.5-.8-25.1-3.3-36.6-8.4.1-11.6-.1-23.2.1-34.8 9.7 7 20.8 12.1 32.7 14.1 8.2 1.3 17.2 1.4 24.9-2.3 7.3-3.6 8.7-14.1 4.3-20.5-4.1-4.9-10.1-7.6-15.7-10.3-10.6-4.8-21.8-8.8-31.1-15.9-6.6-5.1-11.5-12.3-13.5-20.4-2.9-12-2-25.5 5-35.9 7.9-12.2 21.7-19.5 35.8-22zm137.7-.4c18-2.2 37-1 53.4 7.3 14.3 7.1 25.4 20.1 30.9 35 4.3 11.4 5.8 23.8 5.6 35.9 0 18.2-4.9 36.8-16.3 51.3-10.7 14-27 23-44.3 25.9-16.9 2.7-34.7 2-50.7-4.3-16.2-6.4-29.7-19.4-36.6-35.5-7.1-16.4-7.9-34.8-5.7-52.3 2.3-17.5 10.3-34.6 23.8-46.2 11.1-9.7 25.4-15.2 39.9-17.1zm-386.8 5.1c9.9-6 22.6-6.5 33.4-2.8-.1 12 0 24 0 36-7.1-4.6-16-6.6-24.3-5.7-10.2 1.2-18.3 9-22.5 18-4.6 9.5-5.4 20.3-5.1 30.7v72h-35.5V129.6c11.8-.2 23.7-.1 35.5 0-.1 8.6 0 17.2 0 25.8 3.8-9.4 9.5-18.5 18.5-23.6zm-258.3-2.3c11.9 0 23.9-.2 35.8.1-.1 50.1 0 100.3-.1 150.4h-35.7V129.5z" fill="#777"/><path class="st1" d="M1084.3 155.3c10.8-.7 22.3 2.4 30.1 10.2 8.3 8.2 11.5 20.1 12.4 31.4.6 12.4.1 25.3-5.1 36.8-3.4 7.7-9.7 14.3-17.7 17.4-9.3 3.6-19.8 3.8-29.4 1.3-9.8-2.6-18.1-9.6-22.6-18.6-5.8-11.6-6.7-25-5.5-37.7 1.1-11.6 5.1-23.4 13.9-31.4 6.6-6 15.3-8.9 23.9-9.4zm286 .1c10.2-.7 21 1.6 28.8 8.5 7.2 6 11.2 14.9 13 24 2.1 10.6 2 21.5.3 32.2-1.4 7.9-4.1 15.8-9.3 22.1-5.2 6.3-13 10.1-21 11.3-8.6 1.3-17.7.7-25.8-2.8-8.7-3.7-15.4-11.2-19-19.9-4.3-10.3-5.1-21.8-4.3-32.8.8-10.7 3.8-21.7 10.9-30 6.5-7.8 16.4-12.1 26.4-12.6zm232.9 3.2c11.9 0 23.8-.3 35.8.2v90c-7.9 5.3-18.8 7.4-27.4 2.6-5.1-2.8-7.1-8.9-7.8-14.4-1.1-9.3-.4-18.6-.6-27.9 0-16.9.1-33.7 0-50.5z"/><path d="M0 183.5h166.5V350H0V183.5z" fill="#02a4ef"/><path d="M183.5 183.5H350V350H183.5V183.5z" fill="#ffb902"/></svg>