<svg xmlns="http://www.w3.org/2000/svg" width="41" height="41.001" viewBox="0 0 41 41.001"><path d="M20.5 41c-.2 0-.407 0-.609-.01l4.19-11.514h5.769a2.827 2.827 0 002.465-1.726l4.545-12.487a2.594 2.594 0 00-2.6-3.716h-8l-6.71 18.442-3.8 10.454A20.505 20.505 0 0114.975.756L11.039 11.55 4.512 29.477h4.344l5.55-15.236h3.265l-5.55 15.236h4.343l5.172-14.214a2.593 2.593 0 00-2.6-3.716h-3.651L19.579.022C19.885.008 20.192 0 20.5 0a20.5 20.5 0 010 41zm12.4-26.77h-3.261l-4.571 12.543h3.264z" fill="#4987ce"/></svg>