<svg xmlns="http://www.w3.org/2000/svg" width="426" height="327" viewBox="0 0 426 327"><path d="M136.22 173.72v113.606l19.587-14.364v-79.655l-19.587-19.588zm41.128 26.506l24.81-5.223 10.447-7.835v-14.364l-35.257 27.422zm-3.13-180.522l-35.257-15.67L170.3 39.29l11.752-11.752-7.835-7.835zM0 295.59h10.447l3.917 18.282 3.918-18.281h10.446v30.034H22.2v-19.588l-5.223 19.588h-5.224l-3.917-19.588v19.588H0V295.59zm55.124 18.815c0 9.14-3.917 13.058-11.752 13.058s-11.753-3.917-11.753-13.058v-18.282h7.835v15.67c0 2.612 0 6.53 3.918 6.53 3.917 0 3.917-3.918 3.917-6.53v-16.975h7.835v19.587zm10.022 1.547v2.612c0 1.306 2.612 2.612 3.918 2.612s2.611 0 2.611-2.612c1.306-2.612 0-2.612-5.223-5.223-3.917-1.306-9.14-2.612-9.14-9.141 0-6.53 5.223-10.447 10.446-10.447s10.447 2.612 10.447 10.447h-6.53c0-1.306 0-1.306-1.305-2.612 0 0-1.306-1.305-2.612-1.305 0 1.305-2.612 1.305-2.612 3.917s3.918 2.612 7.835 3.917c3.918 1.306 6.53 2.612 6.53 7.835 0 7.835-6.53 10.447-11.753 10.447-2.612 0-10.447 0-10.447-10.447h7.835zm17.46-20.389h7.8v30.7h-7.8v-30.7zm27.423 11.457c0-1.305-1.306-3.917-3.918-3.917-3.917 0-5.223 3.918-5.223 7.835 0 3.918 1.306 7.835 5.223 7.835 2.612 0 3.918-1.306 3.918-3.917h7.835c0 6.529-3.918 13.058-11.753 13.058s-13.058-6.53-13.058-15.67 5.223-15.67 13.058-15.67c6.53 0 10.447 3.917 11.753 11.752h-7.835zm27.817-3.57h-6.53v-7.835h22.2v7.835h-7.835v22.2h-7.835v-22.2zm17.092-7.86h20.893v7.836h-13.058v3.917h11.752v7.835h-11.752v3.918h13.058v7.834h-20.893v-31.34zm23.649 0h7.835v22.2h11.753v7.835h-19.588V295.59zm20.863 0h20.892v7.836h-13.058v3.917h11.753v7.835h-11.753v3.918h13.058v7.834H199.45v-31.34zm39.537 30.684h-9.14l-7.836-30.034h7.835l3.918 18.281 5.223-18.281h7.835l-7.835 30.034zm10.819-30.711h7.8v30.7h-7.8v-30.7zm18.554 20.389v2.612c0 1.306 2.612 2.612 3.918 2.612s2.611 0 2.611-2.612c1.306-2.612 0-2.612-5.223-5.223-3.917-1.306-9.14-2.612-9.14-9.141 0-6.53 5.223-10.447 10.446-10.447s10.447 2.612 10.447 10.447h-6.53c0-1.306 0-1.306-1.305-2.612 0 0-1.306-1.305-2.612-1.305 0 1.305-2.612 1.305-2.612 3.917s3.918 2.612 7.835 3.917c3.918 1.306 6.53 2.612 6.53 7.835 0 7.835-6.53 10.447-11.753 10.447-2.612 0-10.447 0-10.447-10.447h7.835zm17.446-20.389h7.8v30.7h-7.8v-30.7zm23.226-.701c7.835 0 13.058 6.53 13.058 15.67s-5.223 16.976-13.058 16.976-13.059-6.53-13.059-15.67 5.224-16.976 13.059-16.976m0 24.81c2.611 0 5.223-1.305 5.223-7.834s-2.612-9.141-5.223-9.141c-2.612 0-5.224 1.306-5.224 7.835s2.612 9.14 5.224 9.14m15.684-24.082h7.835l7.835 16.976v-16.975h7.835v30.034h-7.835l-7.835-15.67v16.975h-7.835v-31.34z"/><path d="M417.627 38.026c-2.612-2.612-9.141-3.918-14.364-2.612-5.224 0-9.141 2.612-11.753 5.223l-7.835 7.835-2.611 3.918-6.53 9.14V13.216L353.641.157V86.34l-5.223 6.53V.156H217.835l-47.01 45.704L129.04.157H-.238v287.281h130.583V160.773l39.175 40.48 47.01-40.48v126.665h130.582V165.997c1.306-1.306 1.306-2.612 1.306-2.612l1.306-1.306s1.306-1.306 2.611-3.917v129.276l20.894-14.364V120.293c1.305-2.612 3.917-3.918 3.917-3.918l2.612-5.223 5.223-6.53 1.306-2.61 5.223-6.53c0-2.612 2.612-3.917 3.918-3.917l2.611-2.612 3.918-3.918 6.529-2.611 6.529-3.918 5.223-7.835 2.612-9.14 1.306-9.141c1.306-5.224-2.612-11.753-6.53-14.364m-156.698 78.35v27.422c0 3.917 1.305 7.834 1.305 9.14v39.175c0 3.918-1.305 9.14 0 13.058v3.918c0 1.306 1.306 3.917 1.306 5.223s1.306 6.53 1.306 7.835c0 1.306 2.612 6.53 2.612 7.835 1.306 2.612 1.306 6.53 1.306 9.14-1.306 2.612-2.612 7.836-2.612 9.142l-2.612 2.611c0 1.306-1.306 1.306-2.611 2.612-2.612 1.306-7.835 1.306-11.753 0-1.306 0-3.917 0-7.835-2.612-2.611-1.306-3.917-5.223-3.917-7.835v-3.917s-1.306-5.223-1.306-6.53v-5.223c0-2.611-1.306-6.529-1.306-6.529 0-1.306-1.306-5.223-1.306-5.223-1.306-2.612-1.306-5.223-1.306-6.53 0-3.917 0-6.528 1.306-10.446 0-1.306 1.306-2.611 1.306-5.223 0-1.306-1.306-6.53 0-7.835 0-1.306 0-2.612 1.306-3.918v-50.927c-1.306-13.058-2.612-15.67-3.918-15.67h-3.917c-1.306 0-2.612 2.612-5.223 3.918-1.306 1.306-5.224 2.612-6.53 3.917-1.305 1.306-3.917 2.612-7.834 5.224-1.306 0-1.306 1.305-2.612 2.611-1.306 1.306-3.918 3.918-7.835 6.53-2.612 1.305-3.918 2.611-5.223 3.917 0 0-2.612 3.917-3.918 6.529-5.223 1.306-6.529 3.917-6.529 3.917 0 2.612-1.306 3.918-2.612 5.224-2.611 1.306-7.835 2.611-11.752 1.306-2.612-1.306-6.53-3.918-7.835-7.835-1.306-5.224 0-10.447 3.917-14.364 2.612-2.612 6.53-3.918 9.141-5.224 2.612 0 3.918-1.306 6.53-2.611 1.305 0 3.917-2.612 3.917-2.612 1.306 0 3.917-1.306 3.917-2.612 0 0 3.918-2.611 5.224-3.917 3.917-1.306 6.529-3.918 7.835-3.918 0 0 5.223-2.611 7.835-5.223 1.305-1.306 3.917-1.306 6.529-3.917 1.305 0 3.917-1.306 5.223-1.306 0 0 2.612-2.612 3.917-2.612 2.612-1.306 3.918-3.917 3.918-7.835 0-1.306-1.306-2.611 0-5.223 0 0 1.306-3.918 1.306-5.223 0-1.306 1.306-1.306 1.306-1.306 0-1.306 2.611-1.306 3.917-2.612 1.306-1.306 2.612-1.306 3.918-1.306 3.917-1.306 9.14 2.612 10.446 2.612h5.223s1.306-1.306 2.612-1.306 3.918-1.306 3.918-1.306c1.305 0 5.223-2.611 5.223-2.611 1.306 0 3.917-1.306 3.917-1.306 1.306-1.306 5.224-2.612 6.53-3.918 1.305-1.306 3.917-3.917 3.917-5.223 1.306-1.306 3.917-3.917 5.223-3.917 1.306-1.306 3.918-2.612 6.53-3.918h5.223c1.306 0 3.917 0 6.529 2.612 0 1.306 1.306 2.611 2.611 3.917 1.306 6.53-3.917 13.058-6.529 14.364l-2.611 1.306c-1.306 0-2.612 1.306-3.918 1.306-2.611 0-2.611 1.306-3.917 2.612-1.306 0-3.918 2.611-3.918 2.611-1.306 0-1.306 2.612-3.917 2.612-1.306 0-3.918 1.306-6.53 3.917-1.305 1.306-5.223 1.306-6.528 1.306 0 0-5.224 2.612-5.224 5.223 0 2.612 0 3.918-1.306 7.835-2.611 3.918-1.305 6.53-1.305 9.141m160.616-56.15c0 1.306-1.306 6.529-2.611 9.14 0 1.306-2.612 5.224-5.224 6.53-1.306 1.305-3.917 2.611-5.223 2.611s-6.53 2.612-7.835 3.918c-2.612 1.306-3.918 2.611-5.223 3.917 0 1.306-1.306 1.306-2.612 2.612 0 0-5.223 2.612-6.53 5.223-1.305 2.612-5.222 6.53-6.528 7.835 1.306 2.612-1.306 5.223-2.612 6.53 0 0-1.306 1.305-1.306 2.61 0 1.307-1.306 1.307-1.306 2.613v1.305c-1.305 1.306-2.611 3.918-2.611 3.918-1.306 1.306-2.612 3.917-3.918 6.529 0 1.306-2.611 5.223-3.917 7.835 0 1.306-2.612 5.223-2.612 5.223-1.306 0-5.223 3.918-5.223 3.918 0 1.306-1.306 2.611-1.306 3.917 0 1.306-1.306 3.918-1.306 3.918-1.306 1.305-1.306 1.305-1.306 2.611 0 1.306-1.305 1.306-1.305 2.612-1.306 1.306-1.306 2.612-2.612 3.917l-1.306 1.306c0 1.306-5.223 9.141-6.529 10.447 0 1.306-1.306 1.306-1.306 2.612-1.306 2.611-2.612 3.917-3.917 6.529 0 1.305-1.306 3.917-1.306 3.917-1.306 3.918-2.612 9.14-2.612 10.447v13.058c-1.306 3.917-2.611 6.53-3.917 9.14 0 1.307-2.612 2.612-3.918 5.224-1.306 1.306-3.917 1.306-7.835 2.612-6.529 0-9.14-2.612-11.752-6.53 0-1.305-1.306-2.611-2.612-5.223-1.306-3.917-2.611-6.529-3.917-10.446 0-1.306-1.306-2.612-1.306-3.918s-1.306-5.223-1.306-6.529-1.306-5.223-1.306-5.223c0-2.612-1.306-5.224-2.611-7.835-1.306-2.612-1.306-5.223-1.306-7.835s-1.306-6.53-2.612-9.14c0 0-1.306-6.53-2.612-7.836-1.305-2.612-3.917-10.446-3.917-10.446-1.306-2.612-3.918-9.141-3.918-10.447-2.611-10.447-2.611-16.976-1.305-19.587 1.305-1.306 2.611-2.612 5.223-3.918l3.917-2.612c1.306 0 5.224-1.305 7.835 0 0 0 3.918 0 5.224 1.306 3.917 2.612 5.223 6.53 5.223 14.364 0 0 1.306 7.835 1.306 10.447 0 2.612 0 3.917 1.306 6.53v5.222c0 2.612 1.305 7.835 1.305 7.835 0 2.612 0 5.224 3.918 7.835h3.917c2.612-1.306 5.224-5.223 6.53-10.446 0 0 0-1.306 1.305-1.306 0-2.612 1.306-3.918 1.306-6.53 0-1.305 2.612-3.917 2.612-5.223 1.306-1.305 2.612-2.611 2.612-3.917l3.917-6.53s1.306-3.917 2.612-5.222c1.305-1.306 1.305-2.612 1.305-3.918 1.306-1.306 2.612-3.917 3.918-5.223 2.612-2.612 3.917-7.835 3.917-7.835 0-1.306 1.306-2.612 2.612-5.224 0-1.305 1.306-1.305 1.306-2.611l3.917-3.918c1.306-1.305 2.612-2.611 2.612-3.917 1.306-1.306 2.612-2.612 3.918-5.223 1.305-1.306 2.611-3.918 3.917-5.224 1.306-1.306 6.53-7.835 6.53-9.14l3.917-3.918c2.611-1.306 3.917-2.612 3.917-2.612 1.306-1.305 2.612-2.611 3.918-5.223s2.611-2.612 3.917-3.917c0 0 1.306-2.612 2.612-3.918l6.529-6.53c1.306-2.61 5.223-3.917 9.14-5.222 5.224 0 10.447 0 13.059 2.611 3.917 2.612 6.529 7.835 6.529 10.447 0 3.917 0 5.223-1.306 9.14"/></svg>