<svg xmlns="http://www.w3.org/2000/svg" width="169.587" height="42.42" viewBox="0 0 169.587 42.42"><path d="M14.042 37.839L0 11.189h9.527c1.029 0 1.856.389 2.328 1.252l10.51 21.667 5.311-17.693c1.207-2.851 3.578-4.881 6.854-4.881h11.208v7.257c-2.199.015-4.397-.014-6.596 0-1.164 0-2.535.546-2.863 1.539l-7.225 21.873h-8.776c-2.898-.001-4.942-1.907-6.236-4.364zm43.818 4.416c-1.365-.053-3.93-.336-5.709-1.654-1.779-1.316-2.688-3.668-2.663-5.654V4.926h9.915l.043 3.499c.025 2.027.935 3.356 2.621 4.015 1.012.396 2.374.515 3.794.497l-.109 6.027h-6.306v12.657c.518 3.938 3.17 3.48 6.36 3.24v6.262c-2.877.901-5.03 1.132-7.946 1.132zm9.433-15.145c-.063-5.375 1.273-9.22 3.958-11.87 2.834-2.797 7.253-4.086 13.327-4.182 7.39.039 14.421 2.489 15.863 11.231.326 1.973.389 4.487.045 6.387H79.195c-.898 0-1.229.119-1.342 1.164-.16 1.482.243 2.811 1.031 3.848 1.081 1.422 2.884 2.299 4.953 2.287 1.4-.01 3.227-.377 4.1-1.525 1.246-1.641 1.311-2.727 3.797-2.701l8.32.086c-.588 3.584-2.518 6.184-5.088 7.85-3.1 2.014-7.133 2.715-10.862 2.734-5.916.033-10.374-1.521-13.361-4.928-2.18-2.484-3.399-6.002-3.45-10.381zm40.83 11.402c-3.543-3.055-4.707-6.875-4.707-11.393 0-4.408.736-8.418 3.977-11.68 3.305-3.327 8.063-4.364 13.184-4.366 3.715-.001 8.078.938 11.045 3.241 2.014 1.563 3.383 4.006 4.006 7.37h-8.043c-1.863 0-2.875-.341-3.691-1.771-.924-1.619-2.426-2.065-3.961-2.046-2.582.032-4.088 1.807-4.875 3.994-.506 1.402-.715 2.974-.723 4.363-.012 1.868.242 4.302 1.156 6.21.824 1.719 2.186 3.01 4.375 3.078 2.701.084 3.5-.984 4.4-2.506.711-1.201 1.684-1.268 3.223-1.254l8.045.082c-.748 3.846-2.41 6.32-4.984 7.941-3.316 2.088-6.879 2.68-10.6 2.643-4.73-.046-8.374-.925-11.827-3.906zm57.671 3.514h-6.043v-19.35c0-3.57-3.141-4.648-5.371-4.691-3.9-.076-6.434 1.48-6.434 5.298v18.744h-9.871V6.14c-.004-3.094 1.822-6.14 5.236-6.14h4.635v13.779c2.893-2.203 6.418-2.968 10.164-2.73 5.813.37 11.477 3.509 11.477 10.706v17.078c0 2.312-1.898 3.193-3.793 3.193zM90.73 23.282H79.484c-1.108 0-1.509-.439-1.428-1.461.259-3.25 3.258-4.812 6.35-4.72 3.605.108 5.988 1.971 6.324 6.181z" fill="#00538d" fill-rule="evenodd"/></svg>