<svg width="1500" height="900" xmlns="http://www.w3.org/2000/svg"><path d="M927.6 84.94C936.816 74.86 940.15 66 940.04 53c-.122-14.09-8.908-28-22-28-69.25 0-137.4-.3-206.1-.225-22.9.025-45.85.092-68.94.225-13 0-24 15-24 28s11 28 24 28c79.18.166 136-1.14 210 0L626.9 326.8c-9.216 10.08-12.55 18.94-12.44 31.94.122 14.09 8.908 28 22 28 92.33 0 187.2.533 279.5 0 13 0 24-15 24-28s-11-28-24-28c-79.18-.166-137 1.14-211 0zM1258 22c-52.33 0-100.3 20.44-134.6 54.46-34.29 34.02-54.9 81.62-54.9 133.5s20.61 99.62 54.9 133.6c34.29 34.02 82.27 54.36 134.6 54.36s100.3-20.44 134.6-54.46c34.29-34.02 54.9-81.62 54.9-133.5s-20.61-99.52-54.9-133.5C1358.31 42.44 1310.33 22 1258 22zm0 59c33.97 0 65.11 14.03 87.37 37.37 22.26 23.34 35.63 56.01 35.63 91.63s-13.38 68.28-35.63 91.63c-22.26 23.34-53.4 37.37-87.37 37.37s-65.11-13.96-87.37-37.3c-22.26-23.34-35.63-56.07-35.63-91.7s13.38-68.28 35.63-91.63C1192.89 95.03 1224.03 81 1258 81z"/><path d="M395 134.5c-4.626-2.079-6.853-4.207-9.187-8.781-2.24-4.388-5.399-14.36-6.395-20.19-1.423-8.323-4.685-21.06-6.088-23.77l-1.458-2.82 11.98.155c19.54.253 29.8 4.979 35.47 16.34 2.118 4.247 2.981 7.687 3.366 13.4.776 11.53-2.13 19.48-8.976 24.55-3.649 2.703-13.82 3.306-18.71 1.109zm-46.03 171.2c-7.242-.595-10.97-1.466-15.68-3.664-8.54-3.987-11.45-8.464-12.11-18.59-.822-12.8 3.128-19.38 14.4-23.98l5.887-2.402 52.25-.058 52.25-.059v49.53h-43.75c-24.06 0-48.02-.35-53.25-.78zm-2.237 104.2c-8.844-1.489-14.86-4.089-19.27-8.331-5.234-5.033-6.838-10.19-6.326-20.33.346-6.844.58-7.468 4.195-11.17 2.676-2.741 5.762-4.555 10.25-6.03 6.202-2.036 8.226-2.109 58.4-2.109h51.98v49l-47.25-.118c-25.99-.064-49.38-.476-51.99-.915zm-88.21 305.3c2.25-7.958 6.804-13.24 14.92-17.32 6.253-3.137 7.249-3.5 19-3.495 10.44.005 12.56.293 16.12 2.191 8.325 4.444 11.75 10.61 11.86 21.3.056 5.798-2.544 39.26-3.127 40.25-.244.412-15.09.75-32.99.75h-32.55zM256.971 523c0-1.805 5.096-36.7 5.604-38.38.495-1.63-1.002-1.75-21.92-1.75h-22.45l-1.06 4.25c-.973 3.902-4.576 24.09-5.888 33l-.553 3.75h23.13c12.72 0 23.13-.392 23.13-.871zm-203 324.7c27.22-116.1 63.31-242.1 94-360.9v-462h164l-5.848 2.541c-16.91 7.347-26.51 21.85-31.35 45.82-3.061 15.15-3.006 44.14.111 58.48 7.284 33.5 23.46 50.42 52.29 54.68 4.377.647 4.744.531 5.282-1.661.318-1.296.451-13.37.296-26.83l-.281-24.47-5-1.855c-7.391-2.741-11.41-6.28-14.32-12.6-5.246-11.39-2.643-29.39 5.376-37.16 3.354-3.251 3.95-3.449 10.42-3.449 5.943 0 7.222.335 9.532 2.5 4.08 3.823 5.397 8.088 8.03 26 1.335 9.075 3.16 21 4.058 26.5 5.917 36.28 19.21 54.5 43.09 59.07 9.494 1.816 15.4 1.809 24.15-.032 9.167-1.928 17.12-5.788 23.21-11.27l4.953-4.454v25.19l-57.25.018c-44.23.014-59.36.34-66.54 1.432-33.84 5.15-49.45 22.97-49.58 56.55-.074 19.88 5.24 32.89 19.14 46.87 4.577 4.603 8.188 8.428 8.025 8.5-17.81 7.834-27.16 23.86-27.21 46.63-.028 11.89 2.14 20.02 8.022 30.05 3.678 6.275 13.06 16.16 17.81 18.76 1.015.556 3.32 2.1 4.125 2.612l-25.05.075-.267 26.25-.267 26.25h169v16h-168.8l-.71 6.75c-.392 3.712-1.567 12.6-2.613 19.75-1.045 7.15-1.903 13.56-1.905 14.25-.004.99 18.06 1.25 87 1.25h87v59l-46.25-.018c-48.9-.018-54.97-.48-63.39-4.82-5.252-2.707-9.805-7.674-12.52-13.66-2.054-4.527-2.252-6.35-2.088-19.25l.181-14.25h-53.68l-.634 3.167c-3.97 19.85 1.025 34.75 14.72 43.9 3.353 2.24 9.94 5.703 11.61 6.078l-32.38.356-1.288 9.5c-3.986 29.41-4.964 37.57-4.582 38.25.234.413 43.15.75 95.37.75h94.94v126h-76.04l.768-11.25c.423-6.188.768-21.82.768-34.75v-23.5l-2.885-7.5c-8.229-21.39-23.69-32.79-51-37.59-10.93-1.922-33.6-2.194-42.35-.508-3.432.662-7.419 1.421-8.86 1.69-4.854.9-14.86 4.662-20.4 7.67-12.69 6.89-22.28 16.18-29.64 28.72-8.143 13.87-9.146 18.35-21.49 96.02-4.46 28.06-5.872 38.71-5.872 40h257v53h-392z" fill="#0096eb"/><path d="M771.5 495c-52.33 0-100.3 20.44-134.6 54.46-34.29 34.02-54.9 81.62-54.9 133.5s20.61 99.62 54.9 133.6c34.29 34.02 82.27 54.36 134.6 54.36s100.3-20.44 134.6-54.46c34.29-34.02 54.9-81.62 54.9-133.5s-20.61-99.52-54.9-133.5C871.81 515.44 823.83 495 771.5 495zm0 59c33.97 0 65.11 14.03 87.37 37.37 22.26 23.34 35.63 56.01 35.63 91.63s-13.38 68.28-35.63 91.63C836.61 797.97 805.47 812 771.5 812s-65.11-13.96-87.37-37.3c-22.26-23.34-35.63-56.07-35.63-91.7s13.38-68.28 35.63-91.63c22.26-23.34 53.4-37.37 87.37-37.37zm390.5-17c-16.23-23.5-14.79-29.06-44-29.06-18 0-32 13.85-32 29.06v311c0 16 14 28 32 28s32-12 32-28V627l84 126c5.385 8.439 14.99 14 24 14s18.62-5.561 24-14l84-126v221c0 16 14 28 32 28s32-12 32-28V537c0-15.21-14-29.06-32-29.06-29.21 0-27.77 5.568-44 29.06l-96 150z"/></svg>