<svg xmlns="http://www.w3.org/2000/svg" width="434.7" height="304" viewBox="0 0 434.7 304"><path fill="#CFAF2B" d="M183.089 102.036l32.756-23.658c10.92 7.735 21.687 15.62 32.606 23.355-3.943-12.739-8.19-25.326-12.284-37.913l32.757-23.658c-13.497-.152-26.994 0-40.643-.152-4.095-12.739-8.19-25.477-12.436-38.216-4.246 12.739-8.189 25.477-12.435 38.216a1788.446 1788.446 0 00-40.34 0c10.768 8.038 21.687 15.62 32.454 23.506-3.943 12.89-8.19 25.781-12.435 38.52z"/><path fill="#0097DB" d="M100.59 247.774c-1.82 6.521-3.64 13.043-5.763 19.412 112.526-47.77 225.356-95.39 337.882-143.312-46.71.152-93.267 0-140.127.152-6.521 8.947-13.346 17.895-20.018 26.69 2.426-8.947 5.004-17.743 7.734-26.69h-16.075c-4.398 11.222-10.161 21.99-16.227 32.453-1.668 2.882-3.64 5.612-6.218 8.038 0-2.881.303-5.611 1.062-8.34 3.033-10.768 6.37-21.384 9.402-32.151h-15.468c-2.579 6.824-3.033 14.71-8.038 20.321-6.218 8.038-12.284 16.227-18.502 24.265 4.247-14.862 8.796-29.724 13.042-44.738h-16.378c-2.73 8.796-5.156 17.744-7.886 26.388-4.398 1.061-8.947 2.275-13.497 3.336 2.881-9.857 5.763-19.866 8.796-29.876-5.763 0-11.677 0-17.44-.151-2.73 8.947-5.156 17.743-7.735 26.69-.91 3.034-1.516 6.522-3.79 8.948-8.342 9.858-16.834 19.715-25.175 29.572-3.337 3.489-6.37 8.796-11.98 8.341-3.489-6.066-2.882-13.193-2.124-20.018 9.706-5.004 19.108-10.767 26.994-18.35 6.825-6.824 12.132-16.227 10.768-26.236-.455-5.307-5.46-9.554-10.768-9.554-8.947-.91-17.44 3.488-23.96 9.251-11.83 10.616-19.11 25.478-22.597 40.795a706.49 706.49 0 00-15.165 7.582c-1.972-6.37-5.157-12.435-9.554-17.591 12.283-7.735 24.112-17.289 30.482-30.483 2.881-6.37 4.398-13.8 1.971-20.624-2.275-6.067-8.492-9.555-14.71-9.858-14.71-1.365-29.42 4.701-40.491 14.256-3.185 3.033-6.976 6.217-8.038 10.767-1.516 5.156-3.033 10.16-4.398 15.317 1.062-.152 2.275-.152 3.488-.304 5.611-7.582 12.284-14.71 20.777-18.804 4.55-2.124 10.919-2.73 14.558 1.213 3.033 4.246 1.213 9.857-.303 14.407-5.611 12.89-16.834 21.99-27.298 30.634 6.521 5.914 9.555 14.407 10.92 22.748-26.54 15.165-52.017 36.396-62.936 65.817C2.015 269.006-.108 281.44 4.29 292.36c2.275 5.763 8.038 10.01 14.255 9.706 9.858-.303 18.654-5.763 26.085-11.98 17.743-15.014 31.088-34.88 40.036-56.264 5.46-13.193 8.796-27.6 8.19-42.16 3.79-1.97 7.733-3.79 11.676-5.762-.303 8.19 0 16.985 4.247 24.416 2.274 4.095 7.127 6.825 11.829 5.763 7.43-1.517 13.345-6.976 18.35-12.436 7.734-9.25 15.013-18.956 22.747-28.359-2.73 9.858-5.762 19.564-8.492 29.421a414.782 414.782 0 0019.411-6.37c3.034-10.767 6.067-21.534 9.403-32.301 4.55-1.214 8.947-2.275 13.497-3.488-2.881 10.312-6.066 20.776-8.947 31.088 5.156-1.82 10.615-3.488 15.923-5.156 1.972-.455 3.185-2.275 4.398-3.791 6.218-8.493 12.739-16.834 18.957-25.174-.455 4.246-.91 8.492-.152 12.738.607 3.488 3.033 6.976 6.824 7.28 5.156.758 9.706-2.73 12.587-6.825 5.005-6.976 8.493-14.862 12.74-22.293-1.517 6.825-2.579 13.8-3.489 20.777 5.915-2.73 13.8-2.427 17.44-8.493 6.521-8.644 13.194-17.137 19.867-25.63h8.19c-2.276 7.432-4.399 14.711-6.674 21.99 5.46-1.668 10.92-3.64 16.379-5.004 2.123-5.611 3.488-11.374 5.308-16.985 17.136.152 34.122 0 51.258 0-87.655 35.638-175.462 71.277-263.269 106.915-1.516.303-1.668 2.275-2.275 3.791zm36.548-106.915c1.516-2.426 3.184-5.61 6.37-6.066 2.426.91 2.729 4.095 2.426 6.37-1.517 10.312-8.948 18.653-17.44 23.96 1.971-8.492 4.55-16.833 8.644-24.264zM58.582 250.05c-4.247 9.554-9.1 18.957-16.379 26.388-3.336 3.184-7.582 6.37-12.284 6.37-4.094-1.062-4.7-6.067-5.004-9.555.455-13.345 5.61-26.084 12.89-37.155 8.19-12.587 19.108-23.506 31.544-31.847-.758 15.772-4.853 31.24-10.767 45.8zm237.639-28.512h-14.558v8.19h5.46v27.904h9.25c0-12.132.303-24.113-.152-36.094zm61.723 7.583c-1.971-8.796-14.104-11.07-20.776-6.218-3.64 2.427-4.702 6.976-5.612 11.071 3.034.152 5.915.152 8.948.152.303-3.64 2.73-6.521 6.673-6.37 2.274.304 3.033 3.64 2.426 6.066-.91 2.578-2.578 4.55-4.246 6.673-5.005 5.763-9.706 11.526-14.71 17.288 9.099-.151 18.198 0 27.449 0v-8.037h-10.313c4.853-5.763 12.587-11.98 10.161-20.625zm25.326 6.824c-3.185-2.73-7.583-1.971-11.526-1.971.304-1.517.455-3.033.607-4.55 4.398-.151 8.948-.151 13.345-.151v-7.735h-19.26c-1.213 6.37-2.73 12.89-3.79 19.412 4.094-1.213 8.795-2.881 12.89-.758 4.398 2.123 3.488 9.554-1.213 10.464-4.702 1.668-9.1-1.213-12.74-3.943-.303 2.881-.454 5.914-.91 8.947 6.825 4.095 16.228 4.55 22.294-.91 5.61-4.55 5.914-14.103.303-18.805z"/><path fill="none" d="M312.6 237.31c.303.304.455.607.91.759h.151c-.455-.152-.758-.607-1.061-.759z"/><path fill="#0097DB" d="M327.765 226.088c-4.094-6.218-13.345-7.128-19.563-3.64-6.976 4.095-8.038 14.862-2.275 20.322 2.578 2.426 6.37 2.578 9.858 2.578-3.033 3.943-5.763 8.038-8.341 12.132h10.312c3.033-4.55 6.37-9.099 9.25-13.8 3.186-5.156 4.096-12.132.76-17.592zm-8.796 2.275c1.972.91 3.337 2.881 3.337 5.156s-1.365 4.246-3.185 5.005c0 0-1.213.455-1.668.455-.304 0-.455.151-.758.151-1.214 0-2.275-.303-3.185-1.061h-.152c-.303-.304-.606-.455-.91-.759-.91-1.061-1.516-2.274-1.516-3.791 0-3.033 2.426-5.611 5.61-5.611.304 0 .76 0 1.062.152.607 0 1.365.303 1.365.303z"/></svg>