<svg xmlns="http://www.w3.org/2000/svg" width="1000" height="300" viewBox="0 0 1000 300"><path fill="#FF8A3D" d="M367.1 53h-54.6c-11.9 0-21.5 9.6-21.5 21.5v153.8c-.4 11.9 9 21.8 20.8 22.2 11.9.4 21.8-9 22.2-20.8V96h33c14.3-.3 26.1 11.1 26.3 25.3s-11.1 26.1-25.3 26.3h-1c-11.9 0-21.5 9.6-21.5 21.5s9.6 21.5 21.5 21.5c38 0 68.8-30.8 68.8-68.9.1-37.9-30.7-68.7-68.7-68.7zM529 53h-54.6c-11.9 0-21.5 9.6-21.5 21.5v153.8c0 11.9 9.6 21.5 21.5 21.5s21.5-9.6 21.5-21.5V96H529c14.3-.3 26.1 11.1 26.3 25.3s-11.1 26.1-25.3 26.3h-1c-11.9 0-21.5 9.6-21.5 21.5s9.6 21.5 21.5 21.5c38-.5 68.5-31.6 68-69.7-.4-37.3-30.6-67.4-68-67.9zM171.6 206.8h-61l77.2-120.7c6.4-10 3.5-23.3-6.5-29.7-3.5-2.2-7.5-3.4-11.6-3.4H69.3c-11.9-.4-21.8 9-22.2 20.8S56.2 95.6 68 96h62.3L53.1 216.7c-6.4 10-3.5 23.3 6.5 29.7 3.5 2.2 7.5 3.4 11.6 3.4h100.3c11.9-.4 21.2-10.3 20.8-22.2-.2-11.3-9.4-20.5-20.7-20.8zM234 53c-11.9 0-21.5 9.6-21.5 21.5v153.8c0 11.9 9.6 21.5 21.5 21.5s21.5-9.6 21.5-21.5V74.5c0-11.9-9.6-21.5-21.5-21.5zm513.1 2.3c-10.6-6.4-24.4-2.9-30.8 7.7l-36.9 61.5-37.1-61.6c-6.6-10.5-20.4-13.7-30.9-7.1-10.3 6.4-13.6 19.8-7.5 30.3l53.2 88.1v54.1c-.3 12.4 9.6 22.6 22 22.9 12.4.3 22.6-9.6 22.9-22v-54.9l53-88.2c6.2-10.6 2.8-24.4-7.9-30.8.1 0 0 0 0 0zm61.6.5c-10.3-5.8-23.5-2.2-29.3 8.2l-10.2 18c-5.8 10.3-2.2 23.5 8.1 29.3 10.3 5.8 23.5 2.2 29.3-8.1l10.2-18.1c5.9-10.4 2.2-23.5-8.1-29.3zm116.9 96.7l-52-38.3c-4.2-3.1-5.2-9.1-2-13.3 1.8-2.5 4.7-3.9 7.7-3.9H923c12.4-.3 22.2-10.5 22-22.9-.3-12-9.9-21.7-22-22h-43.8c-23.6-.2-44.6 14.9-51.7 37.4-7.6 22.3.3 47 19.5 60.8l52 38.3c4.2 3.1 5.2 9.1 2 13.4-1.8 2.4-4.7 3.9-7.7 3.9h-47.5c-12.4-.3-22.6 9.6-22.9 22s9.6 22.6 22 22.9h48.4c30.1 0 54.4-24.4 54.4-54.4 0-17.4-8.2-33.7-22.1-43.9z"/></svg>