<svg xmlns="http://www.w3.org/2000/svg" width="138.694" height="29.008" viewBox="0 0 138.694 29.008"><path d="M22.645 26.184A11.676 11.676 0 1128.833 4.6l-6.187 9.9 11.648-6.721a15.772 15.772 0 00-5.276-5.072A21.741 21.741 0 0018.044 0c-6.128 0-11.5 2.227-14.5 5.562A13.306 13.306 0 000 14.505a13.321 13.321 0 003.541 8.95c3.006 3.339 8.3 5.553 14.329 5.553s11.322-2.216 14.33-5.553c.165-.184.324-.369.475-.562l-.454-1.7a11.673 11.673 0 01-9.575 4.993m38.619 2.12l-4.889-18.239a6.9 6.9 0 00-9.024-4.7L36.827 9.194h10.825l1.85 6.908a10.223 10.223 0 00-6.69-2.484c-5.081 0-9.2 3.405-9.2 7.605s4.114 7.611 9.2 7.611a10.956 10.956 0 008.889-4.542l1.073 4.01h8.492m-14.913-2.833a4.245 4.245 0 114.246-4.246 4.243 4.243 0 01-4.247 4.25zM81.198 4.957a4.2 4.2 0 00-1.789.4l-6.758 3.149a4.252 4.252 0 00-5.985-3.149l-8.251 3.844h5.8v19.105h8.492V11.323a2.124 2.124 0 114.247 0v16.983h8.488V9.197a4.242 4.242 0 00-4.246-4.24m31.842 12.026a12.027 12.027 0 11-12.023-12.026 12.024 12.024 0 0112.023 12.026m-11.525-8.376a2.653 2.653 0 00-5.125 1.374l4.124 15.377a2.652 2.652 0 105.123-1.371l-4.123-15.38z" fill="#bf1920"/><path d="M134.45 4.957a4.285 4.285 0 00-1.8.4l-6.751 3.149a4.252 4.252 0 00-5.985-3.149l-8.247 3.844h5.8v19.105h8.49V11.323a2.123 2.123 0 114.246 0v16.983h8.495V9.197a4.243 4.243 0 00-4.244-4.24" fill="#bf1920"/></svg>