<svg xmlns="http://www.w3.org/2000/svg" version="1.0" width="333.587" height="82.001"><g fill-rule="evenodd"><path d="M0 0h333.587v82H0V0z" fill="#fc0204"/><path d="M287.824 37.307v5.535h8.779v-5.535c0-2.37-1.982-4.348-4.352-4.348-2.452 0-4.427 1.978-4.427 4.348m23.33-7.83c-11.945-5.928-24.438-6.326-36.698-1.107-10.12 4.27-14.862 15.977-10.517 26.1 2.215 5.22 5.929 8.855 11.23 10.834 12.103 4.584 24.04 4.269 35.823-1.108 5.14-2.294 8.704-6.09 10.6-11.389h-15.5c-1.743 5.539-7.672 8.697-13.282 6.962a16.434 16.434 0 01-1.426-.556c-2.22-1.029-3.56-3.162-3.56-5.614v-3.953h34.162c1.026-8.464-3.165-16.297-10.833-20.168m-121.08 7.829a4.333 4.333 0 00-4.342-4.348c-2.377 0-4.348 1.978-4.348 4.348v5.535h8.69v-5.535zm25.39 12.339c1.028-8.464-3.166-16.297-10.833-20.168-11.866-5.93-24.437-6.327-36.694-1.108-10.126 4.27-14.787 15.977-10.524 26.1 2.215 5.22 6.011 8.855 11.31 10.834 12.023 4.584 24.042 4.269 35.829-1.108 5.058-2.294 8.621-6.09 10.517-11.389h-15.504c-1.66 5.539-7.588 8.697-13.21 6.962-.469-.158-.946-.32-1.415-.556-2.22-1.029-3.556-3.162-3.556-5.614v-3.953h34.08zm8.85 8.223V22.362h-6.162v-8.7h35.432V57.87h6.244v8.7h-41.676v-8.7h6.162zM129.34 25.76l12.736-6.643-4.036-7.671-12.733 6.563 4.033 7.75zm17.798 32.108v-31.08h-34.245v8.7h6.241v22.38h-6.241v8.7h40.486v-8.7h-6.241zM61.169 34.303l14.952-20.64h31.158v8.7h-6.248v35.506h6.248v8.7H66.786v-8.7h6.248V34.855L50.021 66.569 26.928 34.855v23.014h6.248v8.7h-22.38v-8.7h6.166V22.362h-6.166v-8.7h35.35l15.023 20.64z" fill="#fff"/></g></svg>