<svg xmlns="http://www.w3.org/2000/svg" width="693.142" height="103.677" version="1.0"><g fill="#e6002a"><path d="M1.778 87.873l12.147-23.541s34.81 16.353 59.604 18.632c21.413 1.966 26.046-.238 27.423-5.397 1.002-3.28-1.127-7.1-6.762-9.303-5.634-2.217-23.29-4.671-34.81-5.397-11.52-.74-42.2-6.862-49.588-17.168-7.388-10.293-13.398-19.847 7.89-35.537 11.77-8.716 51.464-8.49 58.852-8.34 12.272.238 50.464 5.885 58.353 9.805L124.744 33.94s-31.931-10.82-47.96-12.998c-18.156-2.454-30.678-1.227-32.18 2.454-1.879 4.608-.251 6.01 6.135 9.066 9.767 4.658 92.913 5.635 87.78 41.673-5.135 36.29-74.757 26.797-83.898 26.234C31.08 98.905 1.778 87.873 1.778 87.873" class="ps05" font-size="7.488" letter-spacing="-.075" word-spacing=".225" font-family="fnt0,&quot;FranklinGothic&quot;,Arial"/><path d="M144.654 6.23h32.557v34.81h59.855V6.23h32.557v93.414h-32.557V61.389h-59.855v38.255h-32.557V6.23" class="ps05 ps14 ps25" font-size="7.488" letter-spacing="-.075" word-spacing=".225" font-family="fnt0,&quot;FranklinGothic&quot;,Arial"/><path d="M271.877 99.644L329.73 6.23h36.69l56.348 93.414h-38.192l-12.522-21.087H310.32l-13.023 21.087h-25.42zm87.654-40.947l-17.53-29.915-18.658 29.915h36.188m202.606 40.947V6.23s27.423-2.693 59.354-2.693c31.806 0 69.872 6.625 69.872 31.143 0 24.505-36.564 35.787-65.239 35.287-28.675-.476-30.178-2.693-30.178-2.693l-1.252.677v31.693h-32.557zm32.557-51.065s8.39 2.755 27.799 3.005c19.284.25 32.306-4.658 32.056-15.69s-17.155-15.928-34.06-15.928c-13.023 0-25.795 2.63-25.795 2.63v25.983" class="ps05 ps17 ps25" font-size="7.488" letter-spacing="-.075" word-spacing=".225" font-family="fnt0,&quot;FranklinGothic&quot;,Arial"/><path d="M558.38 99.644l-41.322-36.49c20.41-4.357 38.317-13.385 38.442-27.986.25-24.518-37.19-31.63-69.121-31.63-31.931 0-59.354 2.692-59.354 2.692v93.414h32.682V22.596s12.647-2.63 25.67-2.63c16.905 0 32.933 3.92 32.933 14.952 0 11.52-14.275 15.69-33.684 15.452-7.138-.1-12.397-.664-16.154-1.34l-5.134 9.53 47.96 41.084h47.082" class="ps018 ps17 ps25" font-size="7.488" letter-spacing="-.075" word-spacing=".225" fill-rule="evenodd" font-family="fnt0,&quot;FranklinGothic&quot;,Arial"/></g></svg>