<svg xmlns="http://www.w3.org/2000/svg" width="77.667" height="29.914" viewBox="0 0 77.667 29.914"><path d="M3.156 29.763A4.5 4.5 0 01.2 26.65a38.89 38.89 0 01-.2-5.037V17.33h7.343v5.648H16l.05-11.438L16.1.1h7.343v12.993c0 13.991.013 13.788-.992 15.132a4.668 4.668 0 01-1.53 1.13l-1.056.495-8.1.037c-4.453.02-8.328-.036-8.611-.124zm31.733-.05C34.644 29.394 25.407.759 25.413.338c0-.3.315-.329 3.844-.329 3.481 0 3.852.031 3.971.329a880.16 880.16 0 012.476 7.2c3.323 9.739 3.6 10.488 3.725 10.167.062-.155 1.409-4.18 2.993-8.943L45.3.1l3.921-.049L53.138 0a82.994 82.994 0 01-2.662 8.951 7203.314 7203.314 0 00-4.61 14.31l-2.116 6.59-4.339.05c-3.331.039-4.382 0-4.522-.188zm22.678-.031a4.381 4.381 0 01-2.527-2.324l-.532-1.084v-11.11c0-9.142.048-11.275.273-12.049A4.56 4.56 0 0157.656.229a77.2 77.2 0 018.709-.221c8.707 0 8.621-.008 9.935 1.267 1.18 1.15 1.361 2 1.365 6.452v3.86l-3.619.051-3.619.051-.051-2.589-.052-2.6-4.189-.051-4.19-.049v16.96l4.189-.051 4.189-.051.052-2.593.052-2.593 3.619.051 3.619.051v4.048c0 2.226-.068 4.368-.15 4.758a4.072 4.072 0 01-2.2 2.475c-.812.376-1.186.394-8.943.437-6.47.036-8.238-.007-8.8-.213z" fill="red"/></svg>