<svg xmlns="http://www.w3.org/2000/svg" version="1.0" width="744.094" height="150.945"><g fill-rule="evenodd"><path d="M194.603 125.684V20.028h14.487l64.047 93.675V20.028h10.784v105.656h-15.903l-62.523-92.258v92.258h-10.892M107.355 20.028v105.656h71.998v-9.476h-61.106v-40.52h56.423v-9.367h-56.423V29.505h61.106v-9.477h-71.998m-89.645 0v105.656h10.893V20.028H17.71m25.815 49.778l53.373-49.778H81.867l-53.155 49.56 56.749 56.096h14.487L43.525 69.806m248.129-49.778L339.036 133.2l21.35-47.273 21.348 47.273 47.382-113.172h-11.655l-36.49 86.813-20.586-44.877-20.586 45.203-36.49-87.139h-11.655" fill="#231f20"/><path d="M343.066 20.028h34.638l-17.319 38.777-17.319-38.777" fill="#ec1b24"/><path d="M675.72 19.701h-35.073V125.25h40.846c25.38 0 44.877-23.855 44.877-54.571 0-29.627-26.033-50.977-50.65-50.977zm4.03 96.18h-28.21V29.07h23.092c14.16 0 40.846 13.833 40.846 42.698 0 30.39-20.913 44.114-35.727 44.114M472.686 17.74c-27.013 0-48.798 25.053-48.798 55.988 0 30.934 21.785 55.987 48.798 55.987s48.798-25.053 48.798-55.987c0-30.935-21.785-55.987-48.798-55.987zm0 102.28c-21.023 0-38.124-20.695-38.124-46.292 0-25.489 17.101-46.293 38.124-46.293 21.022 0 38.123 20.804 38.123 46.293 0 25.597-17.1 46.292-38.123 46.292M579.322 17.74c-27.013 0-48.798 25.053-48.798 55.988 0 30.934 21.785 55.987 48.798 55.987 26.905 0 48.798-25.053 48.798-55.987 0-30.935-21.893-55.987-48.798-55.987zm0 102.28c-21.022 0-38.123-20.695-38.123-46.292 0-25.489 17.101-46.293 38.123-46.293 21.023 0 38.124 20.804 38.124 46.293 0 25.597-17.101 46.292-38.124 46.292" fill="#231f20"/></g></svg>