<svg xmlns="http://www.w3.org/2000/svg" width="98.23" height="36.001" viewBox="0 0 98.23 36.001"><g fill-rule="evenodd"><path d="M0 13.246h7.148l4.23 11.607 4.033-11.541h5.508l3.967 11.475 4.3-11.541h6.951l-8.721 22.23h-5.049l-4.459-12.2-4.262 12.2H8.531L.006 13.246zm37.443 22.23v-22.23h6.689v22.23zm9.64 0V.066h6.684v35.41zm16.327 0h-6.693V.066h6.689v21.377l6.164-8.2h7.869l-8.4 9.869 8.138 12.361h-7.541l-6.23-10.623z" fill="#b30938"/><path d="M45.86 5.082a5.084 5.084 0 01-5.082 5.082 5.084 5.084 0 01-5.082-5.082A5.084 5.084 0 0140.778 0a5.084 5.084 0 015.082 5.082zm-2.361 0a2.722 2.722 0 01-2.721 2.721 2.722 2.722 0 01-2.721-2.721 2.722 2.722 0 012.721-2.721A2.722 2.722 0 0143.5 5.082z" fill="#ffe14f"/><path d="M98.231 24.459A11.545 11.545 0 0186.69 36a11.545 11.545 0 01-11.541-11.541A11.545 11.545 0 0186.69 12.918a11.545 11.545 0 0111.541 11.541zm-6.1 0a5.445 5.445 0 01-5.443 5.443 5.445 5.445 0 01-5.443-5.443 5.445 5.445 0 015.443-5.443 5.445 5.445 0 015.445 5.443z" fill="#b30938"/></g></svg>