<svg version="1.1" id="layer" xmlns="http://www.w3.org/2000/svg" x="0" y="0" viewBox="0 0 652 652" xml:space="preserve"><style>.st0{fill:#ff6b00}.st2{fill:#ffc629}</style><path class="st0" d="M539 139.7c0-9.1-5.3-16.5-12.3-20 0 0-73.3-47.3-234.1-47.3-162.9 0-243.9 47.3-243.9 47.3-8.8 4.6-12.3 11.2-12.3 19.3v433.4h503l-.4-432.7z"/><path d="M133.6 382.6h-30.9c-.7 0-1.1.4-1.4 1.1l-3.2 18.9c0 .7.4 1.1.7 1.1h30.9c.7 0 1.1-.4 1.4-1.1l3.2-18.9c.3-.7 0-1.1-.7-1.1m324.3 49.8l-8.4 47.4c-.7 4.6-2.5 6.3-6.7 6.3H414c-4.2 0-5.3-1.8-4.6-6.3l8.4-47.4c.7-4.6 2.5-6.3 6.7-6.3h28.8c4.6 0 5.3 1.8 4.6 6.3m14-20h-60.7c-14.7 0-23.2 7.4-26 23.5l-7.4 40.7c-2.8 16.1 3.2 23.5 17.9 23.5h60.7c15.1 0 23.2-7.4 26-23.5l7.4-40.7c2.8-16.1-3.1-23.5-17.9-23.5m-135.1 20l-8.4 47.4c-.7 4.6-2.5 6.3-6.7 6.3h-28.8c-4.2 0-5.3-1.8-4.2-6.3l8.4-47.4c.7-4.6 2.5-6.3 6.7-6.3h28.8c4.2 0 5.3 1.8 4.2 6.3m14-20h-60.7c-14.7 0-23.2 7.4-26 23.5l-7.4 40.7c-2.8 16.1 3.2 23.5 17.9 23.5h50.6l-2.1 10.5c-1.4 6.7-3.2 7.4-8.1 7.4h-47.8c-.7 0-1.1.4-1.4 1.1l-6.7 16.1c0 .7.4 1.1.7 1.1h71.6c12.3-.4 21.4-11.2 24.2-27.7l13.3-76.4c1.6-13.8-4.4-19.8-18.1-19.8m-121.4 0h-60.7c-14 0-22.1 6.3-25.3 20.3L131.8 499c0 .7.4 1.1 1.1 1.1H163c.7 0 1.1-.4 1.4-1.1 0-.4.4-2.5.7-3.2l10.9-63.5c.7-4.6 2.5-6.3 6.7-6.3h28.8c4.2 0 5.3 1.8 4.2 6.3l-11.6 66.3c0 .7.4 1.1.7 1.1H235c.7 0 1.1-.4 1.4-1.1 0-.7.4-2.5.7-3.2l10.9-60c2.1-15.6-3.9-23-18.6-23m-100.4 0H98.1c-.7 0-1.1.4-1.4 1.1l-15.1 85.6c0 .7.4 1.1.7 1.1h30.9c.7 0 1.1-.4 1.4-1.1l15.1-85.6c.4-.3-.3-1.1-.7-1.1" fill="#fff"/><path class="st2" d="M305.5 342.7h184.6V194.4c-120.7-2.1-170.5 86.2-184.6 148.3"/><path class="st2" d="M490.5 157.9c-27.7-31.2-115.5-48.4-204.3-48.4-87.4.4-175.1 16.1-204.3 48V343c51.9-75 177.2-173.6 408.5-161.7v-23.4z"/><path class="st0" d="M585 534.1c-9.5 0-17.5 7.7-17.5 17.5 0 9.5 7.7 17.5 17.5 17.5 9.5 0 17.5-7.7 17.5-17.5-.4-9.8-8.1-17.5-17.5-17.5zm0 37.9c-11.2 0-20.7-9.1-20.7-20.7 0-11.2 9.1-20.7 20.7-20.7 11.2 0 20.7 9.1 20.7 20.7S596.2 572 585 572z"/><path class="st0" d="M585.7 551.3c1.4 0 2.5-.4 3.2-1.1.7-.7 1.1-1.4 1.1-2.5s-.4-2.1-1.1-2.5c-.7-.7-1.8-1.1-3.2-1.1h-5.3v7h5.3zm-8.8-10.5h9.5c1.4 0 2.5.4 3.5.7 1.1.4 1.8 1.1 2.5 1.4.7.7 1.1 1.4 1.4 2.1.4.7.4 1.8.4 2.5s0 1.8-.4 2.5-.7 1.4-1.1 1.8c-.4.7-1.1 1.1-1.4 1.4-.7.4-1.4.7-2.1.7l5.6 8.1h-4.2l-5.3-7.4h-4.6v7.4h-3.5v-21h-.3z"/></svg>