<svg version="1.2" baseProfile="tiny" xmlns="http://www.w3.org/2000/svg" viewBox="0 0 400 96.2"><path fill="#169CBE" d="M53.4 19.1c0-6.6-5.4-12-12-12s-12 5.4-12 12c0 8.1 12 14.3 12 14.3s12-6.2 12-14.3zm7.9 14.3S48 39 48 48.4c0 7.3 6 13.3 13.3 13.3s13.3-6 13.3-13.3c0-9.4-13.3-15-13.3-15zM81.6 0C73.1 0 66 7.1 66 15.6c0 10.6 15.6 17.9 15.6 17.9s15.6-7.1 15.6-17.9C97.2 6.9 90.3 0 81.6 0zM8.3 14.3C3.7 14.3 0 18 0 22.6c0 5.8 8.3 10.6 8.3 10.6s8.3-5.2 8.3-10.6c0-4.5-3.7-8.3-8.3-8.3zm16.2 19.1s-9.8 5-9.8 11.6c0 5.4 4.4 9.8 9.8 9.8s9.8-4.4 9.8-9.8c.2-6.8-9.8-11.6-9.8-11.6z"/><path d="M163.9 55.7l10.6-47.6c.4-2.1-1-4.2-3.3-4.2h-1.9c-1.7 0-2.9 1-3.3 2.7l-8.5 38c0 .2-.4.2-.4 0l-8.5-38c-.4-1.5-1.7-2.7-3.3-2.7h-1.5c-1.7 0-2.9 1-3.3 2.7l-8.5 38c0 .2-.4.2-.4 0l-8.5-38c-.4-1.5-1.7-2.7-3.3-2.7h-1.9c-2.1 0-3.7 2.1-3.3 4.2L125 55.7c.4 1.5 1.7 2.7 3.3 2.7h4.2c1.7 0 2.9-1 3.3-2.7l8.5-38.4 8.5 38.4c.4 1.5 1.7 2.7 3.3 2.7h4.2c1.7 0 3.1-1.1 3.6-2.7zm99.9-51.5c-1.2 0-2.5.4-3.3 1.5-1 1-1.5 2.1-1.5 3.3 0 1.2.4 2.5 1.5 3.3.8.8 1.9 1.5 3.3 1.5 1.2 0 2.5-.4 3.3-1.5 1-1 1.5-2.1 1.5-3.3 0-1.2-.4-2.5-1.5-3.3-1.1-1.1-2.1-1.5-3.3-1.5zm.8 15.3h-1.7c-1.9 0-3.3 1.5-3.3 3.3V55c0 1.9 1.5 3.3 3.3 3.3h1.7c1.9 0 3.3-1.5 3.3-3.3V22.8c0-1.8-1.4-3.3-3.3-3.3zM185 4.2c-1.2 0-2.5.4-3.3 1.5-1 1-1.5 2.1-1.5 3.3 0 1.2.4 2.5 1.5 3.3.8.8 2.1 1.5 3.3 1.5 1.2 0 2.5-.4 3.3-1.5 1-1 1.5-2.1 1.5-3.3 0-1.2-.4-2.5-1.5-3.3-1-1.1-2-1.5-3.3-1.5zm.9 15.3h-1.7c-1.9 0-3.3 1.5-3.3 3.3V55c0 1.9 1.5 3.3 3.3 3.3h1.7c1.9 0 3.3-1.5 3.3-3.3V22.8c0-1.8-1.5-3.3-3.3-3.3zm12.6 6.3h2.3V55c0 1.9 1.5 3.3 3.3 3.3h1.7c1.9 0 3.3-1.5 3.3-3.3V25.8h3.3c1.2 0 2.3-1 2.3-2.3v-1.7c0-1.2-1-2.3-2.3-2.3h-3.3v-8.9c0-1.9-1.5-3.3-3.3-3.3h-1.7c-1.9 0-3.3 1.5-3.3 3.3v8.9h-2.3c-1.2 0-2.3 1-2.3 2.3v1.7c.1 1.2 1.1 2.3 2.3 2.3zm98.9 7.6V55c0 1.9 1.5 3.3 3.3 3.3h1.7c1.9 0 3.3-1.5 3.3-3.3V30.5c0-6.2-3.7-11-11.2-11-4.6 0-8.1 1.9-9.8 4.8v-1.5c0-1.9-1.5-3.3-3.3-3.3h-1.9c-1.9 0-3.3 1.5-3.3 3.3V55c0 1.9 1.5 3.3 3.3 3.3h1.7c1.9 0 3.3-1.5 3.3-3.3V33.4c0-3.5 1.5-8.1 6.4-8.1 5.5 0 6.5 4.4 6.5 8.1zm-46.3-2.9c0-6.2-3.7-11-11.2-11-4.6 0-8.1 1.9-9.8 4.8V10.6c0-1.9-1.5-3.3-3.3-3.3h-1.9c-1.9 0-3.3 1.5-3.3 3.3V55c0 1.9 1.5 3.3 3.3 3.3h1.7c1.9 0 3.3-1.5 3.3-3.3V33.4c0-3.5 1.5-8.1 6.4-8.1 5.4 0 6.4 4.4 6.4 8.1V55c0 1.9 1.5 3.3 3.3 3.3h1.7c1.9 0 3.3-1.5 3.3-3.3V30.5zm88.3-11h-1.9c-1.9 0-3.3 1.5-3.3 3.3v1.5c-1.7-2.9-5.2-4.8-9.8-4.8-7.5 0-11.2 4.8-11.2 11v17.2c0 6.2 3.7 11 11.2 11 4.6 0 8.1-1.9 9.8-4.8v5c0 4.4-1.7 8.1-5.8 8.1-1.9 0-3.1-.4-4.2-1.2-1.2-.8-2.9-1-4.2 0l-.4.4c-1.9 1.2-1.9 4.2 0 5.4 2.3 1.5 5.2 2.5 8.3 2.5 8.9 0 14.7-5.6 14.7-16V22.8c.1-1.8-1.4-3.3-3.2-3.3zm-5.2 25.4c0 3.5-1.5 8.1-6.4 8.1-5.4 0-6.4-4.4-6.4-8.1V33.4c0-3.7 1-8.1 6.4-8.1 5 0 6.4 4.6 6.4 8.1v11.5zM357 30.3c0-2.1 1.9-4.8 6.6-4.8 4.6 0 7.1 2.3 8.7 2.3 2.1 0 3.3-2.9 3.3-4.2 0-2.7-6-4.8-12.3-4.8-10.2 0-13.9 6-13.9 11.6 0 13.5 19.5 8.5 19.5 17 0 2.3-1.5 4.4-6.9 4.4-7.1 0-8.7-3.7-10.8-3.7-1.7 0-2.9 2.3-2.9 3.7 0 3.1 6 6.4 13.9 6.4 9.1 0 14.3-4.4 14.3-11.2.4-14.2-19.5-9.6-19.5-16.7zM136.9 75c-.6-.6-1.5-1.2-2.5-1.7-.8-.4-2.1-.6-3.5-.6h-6.4v22.6h2.9v-8.5h3.1c1.5 0 2.7-.2 3.7-.6 1-.4 1.9-1 2.5-1.7.8-.6 1.2-1.5 1.5-2.3.2-.8.4-1.7.4-2.5s-.2-1.5-.4-2.5c-.3-.8-.7-1.6-1.3-2.2zm-2.9 8.1c-.8.8-2.1 1.2-3.7 1.2h-3.1v-9.1h3.5c1.5 0 2.7.4 3.5 1.2.8.8 1.2 1.9 1.2 3.3 0 1.5-.4 2.5-1.4 3.4zm13.7-4.6c-.8 0-1.7 0-2.3.2-.8.2-1.5.2-1.9.4-.4 0-.8.2-1.2.4-.4.2-.6.2-.8.4l.8 2.1c.4-.2 1-.4 1.9-.6.8-.2 1.7-.4 2.9-.4 1.5 0 2.5.2 3.1.8.6.4 1 1.2 1 2.5v1h-4c-2.3 0-3.9.4-5 1.5-1 .8-1.7 2.3-1.7 3.9 0 1 0 1.9.4 2.5.2.8.6 1.2 1.2 1.7.6.4 1.2.6 1.9.8.6.2 1.2.2 1.9.2 1 0 1.9-.2 2.9-.6 1-.4 1.9-1 2.3-1.7l.2 1.9v-.4h2.9v-11c0-1.9-.4-3.1-1.7-4.2-1.3-1-2.8-1.4-4.8-1.4zm3.3 11.6c0 .6-.2 1-.4 1.5-.2.4-.6.6-1 1s-.8.6-1.5.8c-.6.2-1 .2-1.7.2-1 0-1.9-.2-2.5-.6-.6-.4-.8-1-.8-2.1 0-.4 0-.8.2-1.2 0-.4.4-.8.6-1l1.2-.6c.6-.2 1.2-.2 1.9-.2h2.4c.4.2.8.2 1 .2h.4v2zm16.2-11h-1c-.6 0-1.2 0-1.9.2-.6.2-1 .4-1.5.6l-1 1c-.4.2-.6.6-.8 1l-.2-2.7H158v16.4h2.9v-7.3c0-2.1.6-3.7 1.5-5 1-1.2 2.3-1.9 3.7-1.9h1c.2.2.4.2.6.2v-2.5h-.5zm12.4 14.8h-1.2c-.6 0-1-.2-1.5-.2-.4 0-.8-.2-1-.4-.2-.2-.4-.4-.6-.8-.2-.4-.2-1-.2-1.7v-8.9h4.8v-2.5h-4.8V74l-2.9.8v4.6h-3.1v2.3h3.3v9.1c0 1.7.4 2.9 1.2 3.7.8.8 2.3 1.2 4.2 1.2h1.7c.5 0 .8 0 1 .4l-.2-2.3c0 .1-.2.1-.7.1zM203.9 81c-.6-.6-1.5-1.2-2.5-1.7-1-.4-2.1-.6-3.3-.6-1.2 0-2.3.2-3.3.6-1 .4-1.9 1-2.5 1.9s-1 1.7-1.5 2.7-.6 2.3-.6 3.5c0 1.2.2 2.5.6 3.5.2 1 .8 1.9 1.5 2.7.6.6 1.5 1.2 2.5 1.7 1 .4 2.1.6 3.3.6 1.2 0 2.3 0 3.3-.8 1-.4 1.9-.8 2.5-1.7.6-.8 1-1.7 1.5-2.7.4-1 .6-2.3.6-3.5 0-1.2-.2-2.5-.6-3.5-.2-1-.8-1.9-1.5-2.7zm-2 10.8c-.8 1-2.1 1.7-3.7 1.7-.8 0-1.7-.2-2.1-.4-.6-.4-1-.6-1.5-1.2-.4-.4-.6-1-.8-1.9-.2-.8-.2-1.7-.2-2.5 0-1.9.4-3.3 1.2-4.4.8-1 2.1-1.7 3.7-1.7.8 0 1.5.2 2.1.4.6.2 1 .6 1.5 1.2.4.4.6 1 .8 1.9.2.8.2 1.7.2 2.5 0 1.9-.4 3.4-1.2 4.4zM217 70.6c-1 0-2.1 0-2.9.4-.6.4-1.5.8-1.9 1.5-.4.6-.8 1.2-1 2.1-.2.8-.4 1.7-.4 2.7v1.9h-3.1V82h2.9v14h2.9V82h5v-2.5h-5v-1.7c0-1.7.4-2.9 1-3.5.6-.6 1.7-1 2.9-1h2l.4-2.3c-.2 0-.4-.2-1-.2-.3-.2-.9-.2-1.8-.2zm26.2 20.2l-10.6-18.1h-3.1v23h2.9V77.5l10.8 18.2h2.9v-23h-2.9zm21-9.8c-.6-.6-1.5-1.2-2.5-1.7-1-.4-2.1-.6-3.3-.6-1.2 0-2.3.2-3.3.6-1 .4-1.9 1-2.5 1.9s-1 1.7-1.5 2.7-.6 2.3-.6 3.5c0 1.2.2 2.5.6 3.5.2 1 .8 1.9 1.5 2.7.6.6 1.5 1.2 2.5 1.7 1 .4 2.1.6 3.3.6 1.2 0 2.3 0 3.3-.8 1-.4 1.9-.8 2.5-1.7.6-.8 1-1.7 1.5-2.7.4-1 .6-2.3.6-3.5 0-1.2-.2-2.5-.6-3.5-.3-1-.9-1.9-1.5-2.7zm-2.1 10.8c-.8 1-2.1 1.7-3.7 1.7-.8 0-1.7-.2-2.1-.4-.6-.4-1-.6-1.5-1.2-.4-.4-.6-1-.8-1.9-.2-.8-.2-1.7-.2-2.5 0-1.9.4-3.3 1.2-4.4.8-1 2.1-1.7 3.7-1.7.8 0 1.5.2 2.1.4.6.2 1 .6 1.5 1.2.4.4.6 1 .8 1.9.2.8.2 1.7.2 2.5 0 1.9-.4 3.4-1.2 4.4zm21-12.5h-3.3l-7.1 7.3V71h-2.9v24.5h2.9V87l7.7 8.7h3.7l-8.1-9.1zm5-7.4c-.6 0-1 .2-1.5.6-.2.4-.4.8-.4 1.5 0 .6 0 1 .4 1.5.4.4.8.6 1.5.6.6 0 1-.2 1.5-.6.2-.4.4-.8.4-1.5 0-.6-.2-1-.4-1.5-.5-.4-.9-.6-1.5-.6zm-1.5 7.4h2.9v16.4h-2.9zm13.9-.8c-.8 0-1.7 0-2.3.2-.8.2-1.5.2-1.9.4-.4 0-.8.2-1.2.4-.4.2-.6.2-.8.4l.8 2.1c.4-.2 1-.4 1.9-.6.8-.2 1.7-.4 2.9-.4 1.5 0 2.5.2 3.1.8.6.4 1 1.2 1 2.5v1h-4c-2.3 0-3.9.4-5 1.5-1 .8-1.7 2.3-1.7 3.9 0 1 0 1.9.4 2.5.2.8.6 1.2 1.2 1.7.6.4 1.2.6 1.9.8s1.2.2 1.9.2c1 0 1.9-.2 2.9-.6 1-.4 1.9-1 2.3-1.7l.2 1.9v-.4h2.9v-11c0-1.9-.4-3.1-1.7-4.2-1.3-1-2.7-1.4-4.8-1.4zm3.3 11.6c0 .6-.2 1-.4 1.5-.2.4-.6.6-1 1s-.8.6-1.5.8c-.6.2-1 .2-1.7.2-1 0-1.9-.2-2.5-.6-.6-.4-.8-1-.8-2.1 0-.4 0-.8.2-1.2 0-.4.4-.8.6-1l1.2-.6c.6-.2 1.2-.2 1.9-.2h2.4c.4.2.8.2 1 .2h.4v2zm76.9-68.9h2.9v7.9h1.9v-7.9h2.9v-1.5h-7.7zm18.7-1.7h-2.7l-1.7 4.6c-.2.6-.4 1.5-.6 2.3-.2-.8-.4-1.7-.6-2.3l-1.7-4.6h-2.7l-.6 9.3h1.9l.4-5.6v-2.7h.2c.2.8.4 2.1.6 2.7l1.7 5.4h1.9l1.7-5.2c.4-.8.6-1.9.8-2.7h.2v2.7l.4 5.6v-.2h1.5l-.7-9.3z"/></svg>