<svg xmlns="http://www.w3.org/2000/svg" width="575" height="205" viewBox="0 0 575 205"><path d="M0 2.8C5.6 1.8 13 .9 22.3.9c11.5 0 19.9 3 25.2 8.3 4.9 4.7 7.9 12 7.9 20.8 0 9-2.4 16.1-6.9 21.3-6.2 7.2-16.2 10.9-27.5 10.9-3.5 0-6.7-.1-9.3-.9v39.9H0V2.8zm11.6 48c2.5.7 5.7 1 9.6 1 14 0 22.6-7.5 22.6-21.3 0-13.1-8.4-19.5-21.2-19.5-5.1 0-8.9.4-11 1v38.8zM77.3 3C83.2 1.7 91.6.9 99.6.9c12.4 0 20.4 2.5 26 8.1 4.5 4.4 7.1 11.2 7.1 18.9 0 13.1-7.5 21.9-17 25.4v.4c6.9 2.7 11.1 9.7 13.2 20.1 2.9 13.9 5.1 23.5 6.9 27.3h-12c-1.5-2.8-3.5-11.4-6-23.8-2.7-13.7-7.5-18.9-18-19.3h-11v43.1H77.3V3zm11.6 45.3h11.9c12.4 0 20.3-7.5 20.3-18.9 0-12.8-8.4-18.5-20.7-18.6-5.6 0-9.6.6-11.5 1.2v36.3zm144.9 2c0 34.3-18.8 52.4-41.8 52.4-23.8 0-40.5-20.4-40.5-50.5 0-31.6 17.8-52.3 41.8-52.3 24.6.1 40.5 20.9 40.5 50.4zM163.9 52c0 21.3 10.4 40.3 28.7 40.3 18.4 0 28.8-18.8 28.8-41.3 0-19.8-9.4-40.5-28.7-40.5-19.2 0-28.8 19.6-28.8 41.5zm91.6 33.5c5.2 3.5 12.8 6.5 20.8 6.5 11.9 0 18.8-6.9 18.8-17 0-9.3-4.8-14.6-17-19.8-14.5-5.7-23.6-14.2-23.6-28.2 0-15.5 11.6-27 29.1-27 9.2 0 15.9 2.4 19.9 4.9l-3.2 10.5c-2.9-1.8-8.9-4.7-17.1-4.7-12.3 0-17 8.1-17 14.9 0 9.3 5.5 13.9 17.9 19.2 15.2 6.5 23 14.6 23 29.2 0 15.4-10.3 28.6-31.5 28.6-8.7 0-18.2-2.8-23-6.3l2.9-10.8zm137.7 12.4c-4.3 2.4-12.8 4.7-23.8 4.7-25.4 0-44.5-17.7-44.5-50.3 0-31.2 19.1-52.3 47-52.3 11.2 0 18.3 2.7 21.4 4.4l-2.8 10.5c-4.4-2.4-10.7-4.1-18.2-4.1-21.1 0-35.1 14.9-35.1 41 0 24.4 12.7 40 34.6 40 7.1 0 14.3-1.6 19-4.1l2.4 10.2zm37.9-28.1l-9.4 31.3h-12l30.6-99.5h14l30.7 99.5h-12.4L463 69.8h-31.9zm29.5-10l-8.8-28.6c-2-6.5-3.3-12.4-4.7-18.2h-.3c-1.3 5.9-2.8 12-4.5 18l-8.8 28.8h27.1zm44.9 41.3V1.6h12.7L547.1 52c6.7 11.7 11.9 22.1 16.2 32.3l.3-.1c-1.1-13.3-1.3-25.4-1.3-40.9V1.6h11v99.5h-11.8l-28.6-50.5c-6.3-11.1-12.3-22.4-16.8-33.2l-.4.1c.7 12.6.9 24.5.9 41V101l-11.1.1zM197 135.5c.1 6.6 4.1 9.4 8.6 9.4 3.3 0 5.3-.6 7-1.4l.8 3.5c-1.6.8-4.4 1.7-8.4 1.7-7.7 0-12.4-5.5-12.4-13.6 0-8.2 4.5-14.6 11.8-14.6 8.2 0 10.4 7.8 10.4 12.7 0 1-.1 1.8-.2 2.3H197zm13.4-3.5c.1-3.1-1.2-8-6.3-8-4.6 0-6.7 4.6-7 8h13.3zm12.1-3.6c0-2.8-.1-5.1-.2-7.3h4.1l.3 4.5h.1c1.2-2.6 4.2-5.1 8.3-5.1 3.5 0 8.9 2.2 8.9 11.5v16.1h-4.6v-15.6c0-4.4-1.5-8-5.8-8-3 0-5.4 2.3-6.1 5-.2.6-.3 1.5-.3 2.3v16.3h-4.6l-.1-19.7zm33.4 7.1c.1 6.6 4.1 9.4 8.6 9.4 3.3 0 5.2-.6 7-1.4l.8 3.5c-1.6.8-4.4 1.7-8.4 1.7-7.7 0-12.4-5.5-12.4-13.6 0-8.2 4.5-14.6 11.8-14.6 8.2 0 10.4 7.8 10.4 12.7 0 1-.1 1.8-.2 2.3h-17.6zm13.4-3.5c.1-3.1-1.2-8-6.3-8-4.6 0-6.7 4.6-7 8h13.3zm11.1-2.5c0-3.2-.1-5.9-.2-8.4h4l.2 5.3h.2c1.1-3.6 3.9-5.9 7-5.9.5 0 .9.1 1.3.2v4.6c-.5-.1-.9-.2-1.6-.2-3.2 0-5.5 2.6-6.1 6.3-.1.7-.2 1.5-.2 2.3v14.4h-4.5l-.1-18.6zm40.2-8.4c-.1 2-.2 4.1-.2 7.4v15.7c0 6.2-1.1 10-3.6 12.3-2.4 2.5-6 3.2-9.1 3.2-3 0-6.3-.8-8.4-2.2l1.1-3.7c1.7 1.1 4.3 2.1 7.4 2.1 4.7 0 8.1-2.6 8.1-9.4v-3h-.1c-1.4 2.5-4.1 4.5-8 4.5-6.2 0-10.7-5.7-10.7-13.2 0-9.2 5.6-14.4 11.3-14.4 4.4 0 6.8 2.5 7.9 4.7h.1l.2-4.1 4 .1zm-4.7 10.7c0-.8-.1-1.6-.3-2.2-.8-2.9-3.1-5.2-6.4-5.2-4.4 0-7.5 4-7.5 10.2 0 5.3 2.5 9.7 7.4 9.7 2.8 0 5.4-1.9 6.3-5 .3-.8.4-1.8.4-2.6l.1-4.9zm15.8-10.7l5.5 16c.6 1.8 1.2 3.9 1.6 5.5h.1c.5-1.6 1-3.7 1.6-5.6l5-15.9h4.8l-6.9 19.3c-3.3 9.3-5.5 14-8.6 16.9-2.2 2.1-4.5 3-5.6 3.2l-1.1-4.1c1.1-.4 2.6-1.2 4-2.4 1.2-1.1 2.8-3 3.8-5.5.2-.5.4-.9.4-1.2 0-.3-.1-.7-.3-1.3l-9.3-24.9h5zm37.2 22c1.4.9 3.7 2 6 2 3.3 0 4.9-1.8 4.9-4 0-2.3-1.3-3.6-4.7-5-4.5-1.7-6.7-4.4-6.7-7.7 0-4.4 3.3-7.9 8.7-7.9 2.5 0 4.8.8 6.2 1.7l-1.1 3.6c-1-.7-2.8-1.6-5.1-1.6-2.7 0-4.2 1.7-4.2 3.7 0 2.2 1.5 3.2 4.8 4.6 4.4 1.8 6.6 4.1 6.6 8.2 0 4.7-3.4 8.1-9.4 8.1-2.8 0-5.3-.7-7.1-1.8l1.1-3.9zm45-8.7c0 10-6.4 14.4-12.5 14.4-6.8 0-12.1-5.4-12.1-13.9 0-9.1 5.5-14.4 12.5-14.4 7.2 0 12.1 5.6 12.1 13.9zm-20 .3c0 5.9 3.2 10.4 7.6 10.4 4.4 0 7.6-4.4 7.6-10.5 0-4.6-2.1-10.4-7.5-10.4s-7.7 5.3-7.7 10.5zm27.7-26.2h4.6v39.7h-4.6v-39.7zm35.3 32.3c0 2.8.1 5.3.2 7.4H453l-.3-4.4h-.1c-1.2 2.2-3.8 5-8.3 5-4 0-8.7-2.3-8.7-11.8v-15.8h4.6v15c0 5.1 1.5 8.6 5.6 8.6 3.1 0 5.2-2.3 6-4.5.3-.7.4-1.6.4-2.5v-16.6h4.6l.1 19.6zm15.1-27.5v7.8h6.5v3.7H472v14.6c0 3.4.9 5.3 3.4 5.3 1.2 0 2.1-.2 2.6-.3l.2 3.7c-.9.4-2.3.7-4.1.7-2.1 0-3.8-.7-4.9-2.1-1.3-1.5-1.8-3.9-1.8-7v-14.8h-3.9v-3.7h3.9v-6.5l4.6-1.4zm18.8.2c.1 1.7-1.1 3-2.9 3-1.6 0-2.8-1.3-2.8-3s1.2-3.1 2.9-3.1 2.8 1.4 2.8 3.1zm-5.1 34.6v-27h4.6v27h-4.6zm37-13.7c0 10-6.4 14.4-12.5 14.4-6.8 0-12.1-5.4-12.1-13.9 0-9.1 5.5-14.4 12.5-14.4 7.2 0 12.1 5.6 12.1 13.9zm-20 .3c0 5.9 3.2 10.4 7.6 10.4 4.4 0 7.6-4.4 7.6-10.5 0-4.6-2.1-10.4-7.5-10.4-5.3 0-7.7 5.3-7.7 10.5zm27.7-6.3c0-2.8-.1-5.1-.2-7.3h4.1l.3 4.5h.1c1.2-2.6 4.2-5.1 8.3-5.1 3.5 0 8.9 2.2 8.9 11.5v16.1h-4.6v-15.6c0-4.4-1.5-8-5.8-8-3 0-5.4 2.3-6.1 5-.2.6-.3 1.5-.3 2.3v16.3h-4.6l-.1-19.7zm29.3 14.7c1.4.9 3.7 2 6 2 3.3 0 4.9-1.8 4.9-4 0-2.3-1.3-3.6-4.7-5-4.5-1.7-6.7-4.4-6.7-7.7 0-4.4 3.3-7.9 8.7-7.9 2.5 0 4.8.8 6.2 1.7l-1.1 3.6c-1-.7-2.8-1.6-5.1-1.6-2.7 0-4.2 1.7-4.2 3.7 0 2.2 1.5 3.2 4.8 4.6 4.4 1.8 6.6 4.1 6.6 8.2 0 4.7-3.4 8.1-9.4 8.1-2.8 0-5.3-.7-7.1-1.8l1.1-3.9z"/><path fill="#0F0" d="M187.8 152.9c1.9 1.9 24.9 4.7 24.9 4.7s-31 47.4-91.2 47.4-97.8-47.6-97.8-92.4c0-17.7 3.7-27 3.7-27s1.2 4.7 3.2 6.7c0 0-2.8 11.5-2.8 21 0 38.9 32.2 79.6 83.3 79.6 50.9 0 76.7-40 76.7-40z"/></svg>