<svg xmlns="http://www.w3.org/2000/svg" width="84.839" height="32.113" viewBox="0 0 84.839 32.113"><path d="M8.691 0l1.927 4.925L0 31.674h4.212l3.012-7.59h10.892l2.971 7.59h8.567L17.258 0H8.691zM8.67 20.443l4.039-10.175 3.982 10.175zm32.662-6.632v-10h12.561L55.407 0h-22.1v31.674H54.22l1.514-3.816h-14.4V17.512h10.013l1.47-3.7zm30.742 3.701h5.286V28.23a8.075 8.075 0 01-2.124.275c-7.126 0-9.212-6.605-9.212-12.448 0-5.606 1.789-12.243 8.678-12.243h7.342L83.557.001h-9.719c-9.435 0-16.1 6.52-16.1 16.057 0 9.419 6.4 16.057 16.315 16.057a30.324 30.324 0 0010.781-1.862V13.811h-11.3l-1.46 3.701z" fill="#cf1430"/></svg>