<svg xmlns="http://www.w3.org/2000/svg" width="450" height="120" viewBox="0 0 450 120"><path d="M191.995 22.717l-.003 71.215c.014.012.021 3.108 3.123 3.108h8.514c3.104 0 3.097-3.097 3.097-3.097l.007-71.229c0-.004 0-3.105-3.104-3.105h-8.514c-3.11.003-3.11 3.101-3.12 3.108zm34.549 58.009c.057 1.711 1.092 3.644 2.73 4.721 7.812 5.135 28.24 3.12 28.299-11.791.004-1.128-1.158-1.713-1.963-1.819-1.592-.208-18.885-.579-25.896 3.116-2.353 1.234-3.247 3.251-3.17 5.773 0 0-13.93.046-13.93 0-.059-7.937 5.972-15.571 13.881-16.822 5.457-.866 8.865-1.61 28.895-2.633 1.322-.062 3.668-2.627 1.941-5.089-2.697-3.833-4.887-5.694-13.207-5.694-7.514 0-11.523 1.547-14.012 5.691-.473.799-2.106 2.174-3.745 2.174l-9.525-.028c-1.127 0-2.427-1.322-1.974-2.408 4.456-10.754 13.583-16.053 27.559-16.064 12.492-.004 28.797 4.625 28.797 22.052l-.01 32.04c.01 0 0 3.097-3.096 3.097 0 0-3.938.004-5.074 0-2.49 0-3.625-.6-4.424-3.108-.318-.993-1.453-1.694-2.439-.839-8.137 7.08-25.973 8.734-35.584 1.928-5.542-3.929-7.982-9.089-7.982-14.295 0-.002 13.929-.016 13.929-.002zm112.694 13.211V62.533c0-14.047-12.393-22.662-21.455-22.662-8.996 0-16.639 2.346-22.539 7.087-.518.426-1.988.887-1.988-.408l-.02-3.219s-.008-3.102-3.107-3.1l-7.338-.002s-3.104 0-3.102 3.088l-.008 50.626c.006 3.097 3.107 3.104 3.107 3.104l7.348-.007c3.092 0 3.092-3.097 3.078-3.108l.014-24.737c0-6.838 4.621-18.516 19.84-18.516 10.881 0 12.611 7.476 12.611 11.854l.014 31.41c.006 3.101 3.109 3.094 3.109 3.094l7.35.003s3.098 0 3.086-3.103zM214.853 55.893a1.906 1.906 0 00-.029.321m-62.782 42.824c24.747 0 35.121-16.011 35.107-29.575-.019-12.993-10.425-29.6-35.321-29.604-24.87-.007-35.262 16.564-35.262 29.615 0 13.823 10.499 29.564 35.476 29.564V88.442c-14.479 0-21.105-10.695-21.105-18.894 0-8.192 6.938-19.016 20.898-19.016 13.959 0 20.938 10.759 20.938 18.946 0 8.285-6.829 18.963-20.731 18.963v10.597zm207.264-29.696c0 10.951 8.088 19.255 18.688 19.251 10.609-.004 19.193-7.47 19.162-19.099-.027-11.261-8.574-18.518-19.174-18.518-9.897.001-18.684 7.551-18.676 18.366l-13.938-.019c-.053-22.616 30.334-37.896 50.33-22.628.908.695 1.773.143 1.795-1.485l-.014-22.489c.023-3.112 3.127-3.106 3.127-3.106h7.35s3.088-.002 3.088 3.096v71.222c0 3.108-3.08 3.108-3.08 3.108h-7.357c-3.092 0-3.107-3.097-3.104-3.332.012-1.628-.91-2.198-1.805-1.488-20.305 16.037-50.271 2.4-50.33-22.896l13.938.017zM60.187 62.19l.003-10.268c.169-.004-3.097-.004-3.097-3.1-.011-3.797 0-15.876 0-15.876s0-3.096 3.097-3.096h27.488s12.088.021 12.096 11.039c.007 11.052-12.096 11.028-12.096 11.025l-27.488.009v10.268l23.03-.005c4.072 0 7.552.916 9.127 3.101 6.704 9.306 4.49 18.815 7.705 28.625.568 1.724 2.172 3.116 5.115 3.116l8.987-.021c.844.007 1.472-1.143 1.222-1.677-3.707-7.849-4.001-16.025-6.444-25.395-1.35-5.188-1.393-7.661-5.236-10.679-.214-.166.136-.763.586-1.075 5.608-3.921 9.602-10.315 9.602-17.294 0-14.273-11.63-21.298-21.807-21.293l-45.056.006s-3.098 0-3.098 3.09l-.011 71.221c.015 3.133 3.129 3.107 3.129 3.107l6.955-.005s3.097.005 3.097-3.103c0-5.062-.021-21.448-.007-28.632.007-3.096 3.101-3.088 3.101-3.088z"/></svg>