<svg xmlns="http://www.w3.org/2000/svg" width="139.393" height="17.999" viewBox="0 0 139.393 17.999"><g fill="#041e41"><path d="M131.279 13.478l1.355 1.937a1 1 0 01-.431 1.681c-.143.045-.239.116-.239.23v.247h7.43v-.274a.2.2 0 00-.111-.2c-.048-.012-.1-.025-.144-.041a4.008 4.008 0 01-2.041-1.44l-3.635-4.8 1.626-2.025a7.109 7.109 0 013.221-2.189c.159-.032.191-.1.191-.241v-.215h-4.687v.213a.26.26 0 00.144.252c.032.026.032.027.064.049.319.193.59.708-.127 1.545 0 .019-.51.647-1.244 1.527v-.013l-1.052-1.422a1.01 1.01 0 01.478-1.7c.159-.03.191-.1.191-.237v-.217h-7.255a1.875 1.875 0 00-.016.215c0 .174.128.261.287.3a4.043 4.043 0 012.025 1.432l3.157 4.282-2.041 2.463c-1.068 1.189-1.977 2.089-2.71 2.25-.159.033-.239.115-.239.228v.247h4.3v-.268a.216.216 0 00-.112-.2.409.409 0 01-.128-.064c-.3-.2-.542-.715.16-1.531 0-.018.845-1.164 1.578-2.044v.013" fill-rule="evenodd"/><path d="M37.483 3.703a2.454 2.454 0 00-2.424-1.309h-4.273v5.721l3.364.008c1.148 0 2.184-.212 2.392-1.076a.2.2 0 01.191-.179h.191v4.029h-.191c-.1 0-.159-.086-.207-.2-.271-.744-1.291-1.1-2.375-1.1h-3.364v4.585c0 1.366.494 1.736 1.865 1.736h2.407a3 3 0 002.822-1.633.185.185 0 01.191-.121h.159v3.4H25.526v-.22a.233.233 0 01.239-.23c.781-.057 1.387-.867 1.387-2.114V3.235c0-1.245-.606-2.059-1.387-2.119a.233.233 0 01-.239-.23v-.22h12.308v3.163h-.159a.229.229 0 01-.191-.123m8.437 13.853l.016-.22c0-.113-.08-.217-.255-.229-.765-.058-1.387-.877-1.387-2.122V0l-4.911.663v.22a.233.233 0 00.239.23c.781.059 1.387.869 1.387 2.114l.016 11.766c0 1.244-.622 2.06-1.387 2.117-.175.013-.255.116-.255.229l.016.22h6.521m65.042 0l.016-.22c0-.113-.08-.217-.255-.229-.765-.058-1.387-.877-1.387-2.122V0l-4.911.663v.22a.233.233 0 00.239.23c.765.059 1.387.869 1.387 2.114l.016 11.766c0 1.244-.622 2.06-1.387 2.117-.175.013-.255.116-.255.229v.22h6.537M85.761 5.948v2.549c.51-.941 1.515-2.769 3.683-2.769a2.681 2.681 0 01.941.169l-.909 3.144h-1.387a2.079 2.079 0 00-2.28 2.028v3.912c0 1.245.622 2.066 1.387 2.124.175.013.255.116.239.23v.22h-6.488v-.22c0-.113.08-.217.255-.23.765-.057 1.387-.875 1.387-2.12V9.169c0-1.244-.526-1.993-1.387-2.114a.317.317 0 01-.255-.277v-.171l4.815-.662m39.011 11.625h-3a1.152 1.152 0 01-1.323-1.175 6.115 6.115 0 01-4 1.5 3.331 3.331 0 01-3.7-3.281l-.016-5.435c0-1.246-.622-2.057-1.387-2.116-.159-.013-.255-.116-.239-.228v-.222l5.022-.663v7.068c0 3.16 3.109 2.823 4.321 1.932V9.176c0-1.245-.622-2.054-1.387-2.113-.175-.013-.255-.116-.255-.228v-.222l5.022-.663v9.022c0 .974.191 1.977.957 2.14a.237.237 0 01.223.26v.2h-.239M70.391 9.528v-2.97a11.784 11.784 0 00-4.5-.783c-3.619 0-6.122 1.833-6.154 6.285-.032 3.517 2.025 5.87 6.01 5.87a6.71 6.71 0 004.719-1.823.808.808 0 00.351-.8c0-.3.016-.823.016-.823a6.93 6.93 0 01-3.922 1.307c-2.886 0-3.731-2.042-3.731-4.308 0-.934.3-4.121 3-4.151a3.8 3.8 0 013.747 2.226c.175.258.287.314.462.277v-.312m26.818-2.21c-2.152 0-2.758 1.684-2.758 4.332 0 2.135.032 4.812 2.79 4.812 2.646-.061 2.615-2.288 2.615-4.723 0-2.843-.7-4.4-2.647-4.421zm-.191-1.6c2.79-.045 6.584.66 6.616 5.9 0 4.088-1.531 6.315-6.569 6.315-3.492 0-6.329-.784-6.329-6.046-.032-5.351 3.874-6.135 6.282-6.165M58.29 11.435h-7.956c-.159 3.608 1.8 4.329 3.7 4.359a6.537 6.537 0 003.89-1.29v.913a.873.873 0 01-.143.426 6.459 6.459 0 01-5.07 2.089c-3.444 0-5.851-1.775-5.851-5.835 0-4.461 2.471-6.3 5.915-6.317 3.555 0 5.389 1.676 5.516 5.33zm-5.548-4.332c-1.1.061-2.1.541-2.407 2.918h4.7c.032-2.438-1.2-2.857-2.328-2.918h.032m27.058-.426v-.52H76.13V2.763l-4.847 5.021h1.547v6.656a3.251 3.251 0 003.555 3.558 4.636 4.636 0 003.2-1.194.677.677 0 00.3-.612c.016-.2 0-.432 0-.823-2.025 1.141-3.763.424-3.763-1.79v-5.8h2.6a1.106 1.106 0 001.068-1.106"/><path d="M17.364.355H.001v17.354h17.363zm-6.393 16.37V1.337a8.027 8.027 0 010 15.388zM.671 8.656a8.024 8.024 0 019.534-7.5 7.5 7.5 0 01-7.541 7.5zm1.993.749a7.5 7.5 0 017.541 7.5 8.122 8.122 0 01-1.515.143A8.023 8.023 0 01.67 9.402h1.994" fill-rule="evenodd"/></g></svg>