<svg xmlns="http://www.w3.org/2000/svg" width="938.878" height="212.958" viewBox="0 0 938.878 212.958" overflow="visible"><path fill="#009BDC" d="M925.065 60.606c0 2.931-.737 5.755-2.241 8.456-1.488 2.701-3.576 4.804-6.276 6.308-2.701 1.488-5.525 2.24-8.472 2.24-2.947 0-5.756-.752-8.457-2.24a15.988 15.988 0 01-6.308-6.308c-1.504-2.701-2.24-5.525-2.24-8.456 0-2.947.752-5.786 2.286-8.518 1.52-2.732 3.638-4.834 6.354-6.292 2.731-1.473 5.51-2.195 8.364-2.195 2.869 0 5.647.722 8.364 2.195 2.716 1.458 4.834 3.561 6.354 6.292 1.52 2.732 2.272 5.571 2.272 8.518zm-4.65 7.075c1.259-2.256 1.872-4.604 1.872-7.075s-.629-4.834-1.903-7.121c-1.273-2.287-3.038-4.036-5.325-5.264-2.271-1.228-4.604-1.842-6.982-1.842-2.395 0-4.728.614-6.983 1.842a13.125 13.125 0 00-5.325 5.264c-1.289 2.287-1.919 4.65-1.919 7.121s.63 4.819 1.888 7.075a13.314 13.314 0 005.279 5.264c2.257 1.259 4.604 1.888 7.061 1.888 2.455 0 4.818-.629 7.074-1.888 2.27-1.258 4.02-3.008 5.263-5.264z"/><path fill="#FFF" d="M922.287 60.606c0 2.471-.613 4.819-1.872 7.075-1.243 2.256-2.993 4.005-5.265 5.264-2.256 1.259-4.619 1.888-7.074 1.888-2.456 0-4.804-.629-7.061-1.888a13.295 13.295 0 01-5.279-5.264c-1.258-2.256-1.888-4.604-1.888-7.075s.63-4.834 1.919-7.121a13.12 13.12 0 015.325-5.264c2.256-1.228 4.589-1.842 6.983-1.842 2.379 0 4.711.614 6.982 1.842 2.287 1.228 4.052 2.978 5.325 5.264 1.276 2.286 1.905 4.65 1.905 7.121zm-6.292 9.408l-2.241-3.545c-1.074-1.688-1.979-2.885-2.716-3.591-.384-.369-.921-.691-1.565-.952 1.611-.123 2.9-.69 3.867-1.688.951-.998 1.442-2.18 1.442-3.53 0-.952-.276-1.857-.859-2.701a4.607 4.607 0 00-2.302-1.796c-.967-.337-2.532-.506-4.696-.506h-6.323v18.309h2.932v-7.72h1.734c1.043.016 1.842.23 2.379.66.767.568 1.78 1.98 3.069 4.205l1.657 2.854h3.622z"/><path fill="#009BDC" d="M913.754 66.469l2.241 3.545h-3.622l-1.657-2.854c-1.289-2.225-2.303-3.637-3.069-4.205-.537-.43-1.336-.645-2.379-.66h-1.734v7.72h-2.932v-18.31h6.323c2.164 0 3.729.169 4.696.506a4.61 4.61 0 012.302 1.796c.583.844.859 1.75.859 2.701 0 1.35-.491 2.532-1.442 3.53-.967.998-2.256 1.565-3.867 1.688.645.261 1.182.583 1.565.952.736.705 1.642 1.902 2.716 3.591zm-2.041-9.546c0-.538-.153-1.028-.46-1.458-.308-.43-.737-.752-1.289-.967-.537-.199-1.535-.307-3.009-.307h-3.422v5.54h3.652c1.75 0 2.932-.245 3.576-.767.63-.506.952-1.197.952-2.041z"/><path fill="#FFF" d="M911.253 55.465c.307.43.46.92.46 1.458 0 .844-.322 1.535-.951 2.041-.645.522-1.826.767-3.576.767h-3.652v-5.54h3.422c1.474 0 2.472.107 3.009.307.551.214.98.537 1.288.967z"/><path fill="#009BDC" d="M880.113 136.053v26.719h-2.395c-.521-1.811-1.166-3.054-1.964-3.76-.813-.706-1.965-1.043-3.484-1.043h-93.633v-2.41c1.796-.491 3.039-1.151 3.745-1.964.706-.798 1.059-1.979 1.059-3.561v-37.447l22.515.031v28.239h66.314c1.52 0 2.671-.353 3.484-1.059.798-.691 1.442-1.949 1.964-3.745h2.395zm-1.796-86.205v26.735h-2.409c-.507-1.78-1.151-3.023-1.965-3.745-.798-.706-1.964-1.059-3.468-1.059h-64.52v24.31l-22.515-.077V62.586c0-1.565-.353-2.748-1.059-3.561-.706-.798-1.949-1.458-3.745-1.965v-2.394h91.838c1.504 0 2.67-.368 3.468-1.074.813-.721 1.458-1.964 1.965-3.745h2.41zm-53.361 46.164h18.907v16.713h-18.907zm-54.974-41.345v2.394c-2.21.307-3.761.937-4.62 1.903-.859.952-2.363 3.729-4.481 8.318l-35.851 77.273c-1.52 3.285-2.287 5.433-2.287 6.446 0 2.579 1.597 4.083 4.773 4.543v2.394h-35.575v-2.394c1.597-.23 2.778-.721 3.576-1.504.783-.768 1.182-1.796 1.182-3.116 0-.967-.752-3.084-2.256-6.369l-35.774-77.273c-1.059-2.302-1.964-4.144-2.716-5.525-.737-1.381-1.336-2.317-1.75-2.793-.859-.967-2.395-1.596-4.619-1.903v-2.394h36.817v2.394c-1.673.338-2.916.844-3.744 1.55-.845.706-1.259 1.611-1.259 2.686 0 1.412.583 3.407 1.749 5.985l27.241 61.005 27.671-61.005c1.151-2.578 1.72-4.573 1.72-5.985 0-2.164-1.658-3.576-4.973-4.236v-2.394h35.176zM640.836 155.543v2.394h-32.122v-2.394c1.795-.506 3.054-1.167 3.76-1.964.691-.813 1.044-1.995 1.044-3.561v-87.51c0-1.504-.353-2.67-1.044-3.483-.706-.798-1.964-1.458-3.76-1.965v-2.394h32.122v2.394c-1.796.46-3.055 1.09-3.745 1.934-.706.829-1.059 2.01-1.059 3.514v87.51c0 1.565.368 2.762 1.09 3.591.721.829 1.964 1.474 3.714 1.934zM598.478 49.848v26.735h-2.409c-.491-1.842-1.151-3.1-1.965-3.775-.798-.691-1.979-1.028-3.545-1.028h-32.014v78.24c0 1.565.353 2.747 1.059 3.561.69.798 1.949 1.458 3.745 1.964v2.394h-32.122v-2.394c1.795-.506 3.039-1.167 3.745-1.964.706-.813 1.059-1.995 1.059-3.561V71.78H503.94c-1.504 0-2.67.337-3.483 1.028-.798.675-1.458 1.934-1.965 3.775h-2.394V49.848h2.394c.568 1.826 1.228 3.084 2.011 3.775.783.69 1.934 1.043 3.438 1.043h86.62c1.565 0 2.747-.353 3.545-1.043.813-.691 1.474-1.949 1.965-3.775h2.407z"/><path fill="#F3AA56" d="M506.717 155.543v2.394h-38.138v-2.394c3.376-.553 5.08-2.133 5.08-4.711 0-1.074-.506-2.64-1.52-4.712l-30.326-65.425-30.648 65.425c-.967 2.026-1.442 3.622-1.442 4.789 0 1.12.43 2.057 1.273 2.824.86.783 2.133 1.381 3.837 1.811v2.394h-34.224v-2.394c2.026-.399 3.561-1.105 4.62-2.118 1.059-1.013 2.271-2.978 3.637-5.909l54.636-116.669 53.761 115.303c1.657 3.392 3.115 5.694 4.374 6.937 1.274 1.228 2.962 2.057 5.08 2.455z"/><path fill="#009BDC" d="M385.75 171.719h115.856v19.645H385.75zm-12.707-35.666v26.719h-2.395c-.521-1.811-1.166-3.054-1.979-3.76-.798-.706-1.949-1.043-3.469-1.043h-93.633v-2.41c1.795-.491 3.039-1.151 3.745-1.964.706-.798 1.059-1.979 1.059-3.561v-37.447l22.514.031v28.239H365.2c1.52 0 2.67-.353 3.469-1.059.813-.691 1.458-1.949 1.979-3.745h2.395zm-1.795-86.205v26.735h-2.409c-.507-1.78-1.151-3.023-1.965-3.745-.813-.706-1.964-1.059-3.468-1.059h-64.52v24.31l-22.514-.077V62.586c0-1.565-.353-2.748-1.059-3.561-.706-.798-1.949-1.458-3.745-1.965v-2.394h91.837c1.504 0 2.655-.368 3.468-1.074.813-.721 1.458-1.964 1.965-3.745h2.41zm-53.362 46.164h18.908v16.713h-18.908zm-58.765 59.531v2.394h-37.094v-2.394c2.547-.399 3.821-1.305 3.821-2.716 0-.906-1.167-3.1-3.53-6.569L188.954 98.79c5.157 0 28.239-.153 30.357-.445 2.118-.307 4.067-.937 5.832-1.888 3.837-2.057 5.755-5.786 5.755-11.173s-1.918-9.116-5.755-11.173a16.464 16.464 0 00-5.801-1.918c-1.013-.138-2.44-.246-4.266-.307-1.827-.077-4.052-.107-6.676-.107h-34.838v78.316c0 1.52.353 2.686 1.089 3.53.706.813 1.949 1.458 3.714 1.918v2.394h-32.137v-2.394c1.811-.506 3.054-1.167 3.76-1.964.706-.813 1.043-1.964 1.043-3.484V62.586c0-1.565-.337-2.748-1.043-3.561-.706-.798-1.949-1.458-3.76-1.965v-2.394h64.642c7.889 0 14.12.445 18.739 1.351 4.619.921 8.64 2.501 12.078 4.773 3.99 2.625 6.968 6.185 8.932 10.682 1.872 4.343 2.809 8.978 2.809 13.92 0 8.441-2.348 15.117-7.029 20.059-4.681 4.927-11.71 8.119-21.072 9.562l20.028 28.53c3.53 4.973 6.124 8.18 7.766 9.623 1.627 1.426 3.637 2.224 6 2.377zM130.604 68.464L116.27 90.026l-2.041-1.351c.092-.813.153-1.504.153-2.057 0-1.458-.629-2.839-1.888-4.113-1.258-1.289-3.499-2.839-6.722-4.666-8.917-5.049-18.34-7.566-28.315-7.566-11.771 0-21.148 2.962-28.146 8.871-8.257 6.921-12.385 15.976-12.385 27.149 0 11.188 4.128 20.243 12.385 27.165 6.998 5.924 16.375 8.871 28.146 8.871 9.976 0 19.399-2.517 28.315-7.566 3.223-1.811 5.464-3.361 6.722-4.65s1.888-2.655 1.888-4.128c0-.553-.062-1.197-.153-1.964l2.041-1.443 14.334 21.409-1.964 1.366c-1.412-1.32-2.563-1.98-3.468-1.98s-3.453 1.212-7.643 3.637c-8.671 5.003-15.961 8.38-21.885 10.114-5.924 1.75-12.968 2.625-21.133 2.625-16.268 0-29.62-3.868-40.056-11.572-6.154-4.497-10.988-10.068-14.518-16.729-4.083-7.612-6.124-16.007-6.124-25.185 0-12.508 3.652-23.374 10.973-32.597 10.973-13.874 27.579-20.811 49.817-20.811 8.149 0 15.163.859 20.995 2.563 5.848 1.704 13.153 5.08 21.931 10.114 4.19 2.364 6.738 3.545 7.643 3.545s2.057-.66 3.468-1.964l1.964 1.351z"/></svg>