<svg xmlns="http://www.w3.org/2000/svg" width="824" height="256" viewBox="0 0 824 256"><path d="M712.652 171.532c.348-3.178.552-6.388.552-9.638 0-49.205-40.776-89.07-91.083-89.07-50.293 0-91.063 39.865-91.063 89.07 0 49.189 40.771 89.039 91.063 89.039 38.259 0 70.963-23.021 84.481-55.729l-39.257-6.878c-8.696 15.914-25.151 26.634-43.96 26.634-24.967 0-45.642-18.778-49.801-43.429h139.068zm-89.266-61.742c21.319 0 39.528 13.729 46.96 33.163h-93.977c7.412-19.433 25.661-33.163 47.017-33.163zm-163.32-33.235h46.512v171.18h-46.512zm23.273-69.797c-14.358 0-25.95 11.655-25.95 25.953 0 14.276 11.592 25.9 25.95 25.9 14.3 0 25.917-11.624 25.917-25.9 0-14.298-11.617-25.953-25.917-25.953m-307.95 14.913v92.151H75.133V21.671H24.291v225.911h50.842v-92.155h100.256v92.155h50.884V21.671zm209.929 54.963v9.185c-13.519-8.191-29.361-12.896-46.336-12.896-49.308 0-89.3 39.84-89.3 89.006 0 49.156 39.992 89.006 89.3 89.006a89.237 89.237 0 0045.262-12.27v8.918h45.384V76.634h-44.31zM341.25 213.408c-28.777 0-52.04-23.027-52.04-51.459 0-28.456 23.262-51.5 52.04-51.5 28.77 0 52.071 23.044 52.071 51.5-.001 28.432-23.302 51.459-52.071 51.459zM809.376 60.657c-42.832 7.472-75.396 44.736-75.896 89.679v97.398h44.535l.023-99.229c0-22.716 17.053-41.463 39.032-44.153l-7.694-43.695z" fill="#005BAA"/></svg>