<svg id="レイヤー_1" xmlns="http://www.w3.org/2000/svg" viewBox="0 0 159 34"><style>.st0{fill:#df0522}</style><path d="M34.4 5.4h3.9v23.2h-3.9zm8.8 11l7.4-11h-4.5l-7.5 11 8.6 12.2H52zm104 2.2h7.7v6.6h-7.7v-6.6zm-1.2 10h12.7V8.1c0-1.5-1.2-2.7-2.7-2.7h-12.2v3.5h11.1V15h-8.8c-1.5 0-2.7 1.2-2.7 2.7v8.2c0 1.5 1.2 2.7 2.6 2.7zm-8.5-23.2c1.5 0 2.7 1.2 2.7 2.7v7.6c0 1.5-1.2 2.7-2.7 2.7h-1.6l5.6 10.2h-4.3L129.7 15h6.6V8.9h-7.8v19.7h-3.9V5.4h12.9zm-30.1 2.7c0-1.5 1.2-2.7 2.7-2.7h11.3v3.5h-10.1V15h9.8v3.5h-9.8v6.6h10.1v3.5h-11.3c-1.5 0-2.7-1.2-2.7-2.7V8.1zm-16.7 0c0-1.5 1.2-2.7 2.7-2.7h11.1v3.5h-9.9v16.2h9.9v3.5H93.4c-1.5 0-2.7-1.2-2.7-2.7V8.1zm-15.6 17h8.3V8.9h-8.3v16.2zm-3.8-17c0-1.5 1.2-2.7 2.7-2.7h10.6c1.5 0 2.7 1.2 2.7 2.7v17.8c0 1.5-1.2 2.7-2.7 2.7H74c-1.5 0-2.7-1.2-2.7-2.7V8.1zm-18.6 8V5.4h3.9v9.9H64V5.4h3.9v20.5c0 1.5-1.2 2.7-2.7 2.7H53.6v-3.5h10.3v-6.2h-8.6c-1.4-.1-2.6-1.3-2.6-2.8z"/><path class="st0" d="M10.4 6.6H0V17zm0 20.8H0V17zm0 0L20.9 17 10.4 6.6z"/><path class="st0" d="M20.9 6.6H10.4L17 0h10.4v10.4L20.9 17zm0 20.8H10.4L17 34h10.4V23.6L20.9 17z"/></svg>