<svg xmlns="http://www.w3.org/2000/svg" width="202.8" height="38.4" viewBox="0 0 202.8 38.4"><g fill-rule="evenodd" clip-rule="evenodd" fill="#960014"><path d="M64.532 8.811l-15.267.133-.687 4.127 5.45-.053-3.572 17.145 4.34-.026 3.571-17.145 5.265-.053.9-4.128zm12.224 3.651s-5.186-3.28-8.282 4.79l.873-4.895-3.704.026-3.466 17.7 3.784-.026 2.143-9.445s1.984-6.112 7.276-3.652l1.376-4.498zm4.471 15.029c-1.032 0-1.773-.635-1.773-1.64 0-1.006 1.085-2.038 2.196-2.62 1.112-.556 4.71-1.8 4.71-1.8.026 4.26-4.101 6.06-5.133 6.06m4.789-16.113s-4.815.397-7.646 3.095l-.53 4.18s3.017-3.254 6.086-3.28c3.043-.027 5.027 2.752.132 4.34-4.895 1.613-8.863 2.46-8.81 7.38.052 4.896 7.54 4.472 10-.184l-.423 2.963 3.705-.026 2.593-12.7c-.08 0 1.455-5.821-5.107-5.768m19.315-.08c-5.186.053-7.435 5.795-7.435 5.795l.979-5-3.969.026-3.28 17.885 3.968-.026 2.222-10.557s1.085-3.81 4.498-3.836c3.414-.027 2.435 3.413 2.25 4.524-.186 1.111-2.064 9.737-2.064 9.737l4.154-.027 2.566-13.335c.026-.026 1.27-5.212-3.89-5.186m13.23 0c-3.784.027-7.382 3.281-7.356 6.985.027 3.704 4.18 4.207 4.842 4.392.662.186 2.038.635 2.064 2.011 0 1.376-3.492 4.842-7.964-.29l-.608 4.074s1.56 1.931 4.71 1.905c3.148-.027 7.672-2.46 7.62-6.641-.027-4.154-5.134-4.313-6.43-5.398-1.297-1.111.529-3.334 2.751-3.36 2.223-.026 4.18 2.355 4.18 2.355l.9-3.969c0 .027-.926-2.09-4.71-2.064m14.58-.211c-3.89.026-9.949 4.154-9.87 11.72.053 7.594 7.382 10.399 12.515 4.155l.344-3.07s-2.275 3.175-5.609 3.202c-3.334.026-3.625-3.942-3.466-5.239.185-1.296 1.323-6.561 5.688-6.614 4.34-.027 4.816 2.91 4.816 2.91l.9-4.445c0 .026-1.43-2.646-5.319-2.62m18.018 7.912l-8.678.053s1.244-3.996 5.318-4.022c4.075-.027 3.36 3.969 3.36 3.969m-3.122-7.858c-4.815.026-10.027 5.715-9.974 12.197.053 6.482 7.514 9.895 13.626 3.678l.344-2.964s-1.64 3.07-6.165 3.096c-4.525.026-4.022-4.763-4.022-4.763l11.192-.079s1.27-3.81.873-6.112c-.397-2.328-1.058-5.08-5.874-5.053m20.082.317c-5.16.053-7.435 5.794-7.435 5.794l.98-5-3.97.026-3.307 17.886 3.97-.026 2.222-10.557s1.058-3.81 4.498-3.837c3.413-.026 2.407 3.413 2.249 4.498-.186 1.111-2.038 9.737-2.038 9.737l4.154-.027 2.567-13.335c.026-.026 1.27-5.212-3.89-5.159m17.78 7.567c.053 5.133-3.677 7.858-5.503 7.885-1.8 0-3.202-1.508-3.228-3.943-.026-2.407 1.667-7.276 5.424-7.329 3.73-.026 3.307 3.387 3.307 3.387zm2.382-11.192l-1.667 8.07s-.238-4.498-4.604-4.471c-4.366.026-8.89 5.82-8.837 12.065.053 6.244 6.323 10.848 11.615 2.54l-.926 3.889 3.942-.026L192.3 7.806l-4.021.026zm9.445 3.44h.318c.45 0 .74-.027.873-.053s.211-.106.264-.185a.398.398 0 00.106-.291.398.398 0 00-.106-.291c-.079-.08-.158-.16-.264-.186-.106-.026-.397-.052-.847-.052h-.317v1.058h-.027zm-.794 2.222V9.58h2.064c.265.026.476.079.609.158.132.08.264.212.37.37a.978.978 0 01.159.556c0 .291-.08.53-.265.741a1.4 1.4 0 01-.767.37c.106.053.212.106.265.16.105.079.185.185.264.29.027.027.132.212.291.477l.45.793h-1.005l-.318-.635c-.212-.423-.397-.688-.556-.82a.92.92 0 00-.555-.159h-.212v1.614h-.794zm1.667-4.974c-.502 0-1.032.132-1.481.397-.477.265-.847.609-1.112 1.085a3.06 3.06 0 00-.397 1.508c0 .53.133 1.005.397 1.482a2.8 2.8 0 001.112 1.11 3.01 3.01 0 002.99 0 2.806 2.806 0 001.11-1.11c.265-.477.398-.98.398-1.482a3.06 3.06 0 00-.397-1.508 2.585 2.585 0 00-1.112-1.085 3.757 3.757 0 00-1.508-.397zm0-.74c.635 0 1.244.158 1.826.476a3.443 3.443 0 011.376 1.375c.317.556.502 1.218.502 1.879s-.158 1.27-.502 1.852a3.443 3.443 0 01-1.376 1.376 3.737 3.737 0 01-1.852.503c-.662 0-1.297-.16-1.852-.503a3.443 3.443 0 01-1.376-1.376 3.708 3.708 0 010-3.73 3.443 3.443 0 011.376-1.376c.635-.291 1.243-.477 1.878-.477zm-158.67 2.54c-.106-.239-.186-.477-.291-.689C35.56.768 23.839-2.143 13.415 3.123 7.434 6.165 3.2 11.219 1.428 16.643h15.293l-3.017 15.081h7.832l3.016-15.081h5.133l1.561-7.408-21.352-.027C14.975 3.467 22.516.636 28.76 2.7c3.757 1.244 6.377 4.048 7.62 7.62h3.546z"/><path d="M33.046 12.939l-1.587 7.435h5c-.343 1.243-.82 2.434-1.375 3.598-4.419 9.102-14.446 14.34-22.358 11.72C6.218 33.524 3.15 26.725 4.71 19.29H.74c-.555 3.228-.237 6.508 1.112 9.472 4.048 8.863 15.796 11.774 26.22 6.509 9.181-4.63 14.261-14.076 12.594-22.331h-7.62z"/></g></svg>