<svg xmlns="http://www.w3.org/2000/svg" width="136.317" height="24" viewBox="0 0 136.317 24"><path d="M48.564 24c-4.938 0-9.522-1.481-12.582-4.227a10.321 10.321 0 01-3.422-7.794 10.475 10.475 0 013.422-7.767C38.824 1.622 43.84 0 48.564 0c5.227 0 9.411 1.317 12.609 4.219a10.364 10.364 0 013.376 7.76 10.807 10.807 0 01-3.376 7.794C58.195 22.537 53.515 24 48.564 24v-3.166a9.487 9.487 0 006.75-2.594 8.393 8.393 0 002.472-6.261A8.713 8.713 0 0055.314 5.7a10.139 10.139 0 00-13.514 0 8.753 8.753 0 00-2.465 6.274A8.772 8.772 0 0041.8 18.24a9.6 9.6 0 006.761 2.594V24zM12.472.011a20.708 20.708 0 00-8.193 1.633C1.926 2.694 0 4.393 0 7.208a5.777 5.777 0 001.567 3.979 8.731 8.731 0 004.673 2.337c1.289.282 4.046.715 6.791 1 2.725.287 5.406.561 6.5.837.868.221 2.325.522 2.325 2.157a2.443 2.443 0 01-1.8 2.234 13.547 13.547 0 01-5.42.951 22.989 22.989 0 01-6.456-1.118 7.788 7.788 0 01-3.739-2.5 4.294 4.294 0 01-.775-2.369h-3v8.4H4v-1.134a.476.476 0 01.721-.408 26.285 26.285 0 004.874 1.575 20.823 20.823 0 005.057.629 21.691 21.691 0 006.779-.955 11.858 11.858 0 004.026-1.989 5.515 5.515 0 002.157-4.419 6.184 6.184 0 00-1.743-4.347 7.61 7.61 0 00-2.163-1.468 15.857 15.857 0 00-2.651-.926c-1.717-.422-5.6-.942-7.456-1.136a51.6 51.6 0 01-6.674-.9 1.608 1.608 0 01-1.242-1.491A2.053 2.053 0 016.82 4.4a13.066 13.066 0 016.131-1.215 17.764 17.764 0 017.1 1.387 7.805 7.805 0 011.691 1.007A5.084 5.084 0 0123.41 8.37h2.69V1.059h-3v.85c0 .274-.283.631-.819.336A22.821 22.821 0 0012.474.011M78.313 1.34l14.656 13.226-.151-8.905c-.015-1.168-.23-1.655-1.493-1.655H88.57V1.342h12.53v2.664h-2.687c-1.288 0-1.369.412-1.385 1.655l.227 17.016h-4.291L76.083 7.611v10.692c.015 1.162.069 1.71 1.267 1.71h3.01v2.663H68.056v-2.663h2.877c1.075 0 1.032-1.025 1.032-1.77V5.763c0-.806-.113-1.755-1.8-1.755H67.83V1.34zm37.108 18.668a5.779 5.779 0 00.742-.046.919.919 0 00.576-.512 2.97 2.97 0 00.057-.577v-4.21c0-.1-.007-.145-.179-.371-.189-.246-7.677-8.732-8.019-9.106a3.141 3.141 0 00-2.308-1.181h-2.6V1.341h14.7V4h-1.772c-.41 0-.682.389-.332.821 0 0 4.944 5.914 4.991 5.976s.085.078.148.021 5.068-5.943 5.108-5.989a.513.513 0 00-.437-.825h-1.817V1.341h12.044v2.665h-2.691a2.291 2.291 0 00-2.108 1.011c-.336.38-7.9 9.018-8.109 9.252a.568.568 0 00-.1.394v4.209a2.963 2.963 0 00.057.575.917.917 0 00.578.512 5.617 5.617 0 00.734.047h2.752v2.664h-14.62v-2.664h2.609z"/></svg>