<svg xmlns="http://www.w3.org/2000/svg" width="136.477" height="20.424" viewBox="0 0 136.477 20.424"><path data-name="Path 723" d="M97.812 19.82v-3.651H96.4V5.434h2.175v1.393h3.335V1.514H86.03v5.313h3.37V5.434h2.17v10.735h-1.411v3.651zm19.863 0v-5.352h-3.339v1.43h-3.792v-3.544h3.337V8.883h-3.337V5.434h3.692v1.393h3.313V1.514H104.37v3.945h1.423v10.71h-1.423v3.651h13.3zm17.425-6.644v2.281a.858.858 0 00.946.9h.432v3.466h-4.133a2.113 2.113 0 01-1.963-2.062v-3.857c0-1.01-.605-1.265-1.816-1.265h-1.812v3.53h1.368v3.651h-7.579v-3.651h1.411V5.46h-1.411V1.514h8.543c2.772.11 4.38.865 5.242 1.832a4.443 4.443 0 01.6 4.783 4.684 4.684 0 01-2.87 2.356c1.955.2 2.961 1.146 3.038 2.691m-6.313-4.293c2.121 0 2.188-3.449 0-3.449h-2.032v3.449zm-60.261 7.014c0 5.995 13.938 6.074 13.938 0V5.46h1.454V1.514h-7.27v3.92h1.438v9.056c-.028 2.527-4.725 2.444-4.725 0V5.434H74.8v-3.92h-7.729V5.46h1.456zm-14.128-4.456l1.824-6.483 1.836 6.483zm9.961 4.728L60.157 1.514h-7.208l-4.206 14.655h-1.424v3.651h7.163v-3.651h-1.425l.453-1.678h5.425l.539 1.678h-1.5v3.651h7.871v-3.651zM41.332 6.442h3.418V1.514h-3.358V2.84a6.924 6.924 0 00-4.824-1.807c-2.64 0-4.908 1.393-5.63 3.334a5.4 5.4 0 002.738 6.881c1.6.746 3.067 1.251 3.845 1.646 1.5.612 2.861 1.355 2.557 2.628-.331 1.4-1.83 1.53-3.164 1.41-2.163-.2-3.434-1.334-3.4-2.821h-3.392v5.706h3.371v-1.48c.938 1.168 3.135 2.034 5.664 2.04 2.666.01 5.2-1.209 5.806-3.684.626-2.565-.1-5.295-3.551-6.81-1.213-.574-3.748-1.719-4.551-2.1-1.2-.552-1.515-1.2-1.383-1.846.2-1 1.363-1.522 2.725-1.5 1.815.031 3.132.842 3.125 2.023zM15.81 17.779A14.337 14.337 0 011.788.475a13.255 13.255 0 0021.705 15.067 14.252 14.252 0 01-7.683 2.237" fill="#0d88d3"/><path data-name="Path 724" d="M17.804 12a14.258 14.258 0 01-13.29-9.1v.073A11.826 11.826 0 0016.338 14.8a12.475 12.475 0 0010.417-5.97 15.169 15.169 0 01-8.951 3.169" fill="#80cdf2"/><path data-name="Path 725" d="M17.338 6.114A14.285 14.285 0 017.391 2.1a11.458 11.458 0 0010.5 6.874A11.461 11.461 0 0029.079 0a14.315 14.315 0 01-11.74 6.114" fill="#fee011"/></svg>