<svg xmlns="http://www.w3.org/2000/svg" version="1.0" width="1133.858" height="208.701"><path d="M35.433 37.268h131.379v133.106H35.433V37.268zm14.8 118.83h101V53.546h-101v102.552zm25.184-85.16l-9.605 31.935 9.605 30.895 8.57-25.703h7.008l9.61 36.864 11.422-36.864h7.014l8.307 25.703 9.085-30.895-9.085-31.934-8.307 26.48h-7.014l-11.423-36.605-9.609 36.606h-7.009l-8.569-26.481zm251.338-27.263s-5.457 1.04-18.956-1.813c-13.498-2.858-25.965-3.378-25.965-3.378s-34.792-3.632-59.46 8.569c-24.663 12.209-24.663 33.495-24.663 33.495s-2.6 15.316 14.538 27.517c17.134 12.2 50.109 12.978 50.109 12.978s23.108.782 39.206 3.378c16.098 2.596 18.436 9.347 18.436 9.347 5.196 16.36-30.895 21.294-30.895 21.294-34.272 1.814-52.188-7.533-52.188-7.533-30.121-11.423-37.909-35.57-37.909-35.57l.52 59.717s4.934-7.795 14.797-8.049c9.867-.262 23.37 3.374 23.37 3.374s15.062 4.937 41.02 5.715c25.969.774 49.076-7.533 49.076-7.533s19.21-6.49 27.002-22.326c7.79-15.84 0-29.859 0-29.859s-2.596-7.013-18.175-16.094c-15.574-9.085-56.344-10.645-56.344-10.645l-20.25-1.04s-19.214-1.298-25.445-7.01c-6.232-5.71.778-13.756.778-13.756s8.31-12.986 48.553-9.609c40.246 3.378 61.278 31.677 61.278 31.677V35.372c-9.867 8.045-18.433 8.303-18.433 8.303M435.8 39.266c-31.934 4.93-48.553 17.138-48.553 17.138s-25.441 15.312-26.739 46.727c-1.298 31.415 19.21 46.997 19.21 46.997s16.618 18.686 68.545 22.846c51.93 4.156 82.568-29.597 82.568-29.597v-11.16c-34.53 18.17-52.185 20.245-52.185 20.245-40.508 7.53-57.646-10.125-57.646-10.125s-9.085-6.49-14.535-20.254c-5.453-13.756 0-32.446 0-32.446s10.125-32.46 51.665-34.535c41.544-2.071 73.74 31.157 73.74 31.157l-.261-46.215c-7.01 10.383-18.175 8.049-21.29 7.009L496.3 42.382s-16.733-4.717-38.903-4.717c-6.796 0-14.1.442-21.597 1.6m202.929-.957c-77-.872-95.178 38.506-95.178 38.506s-21.63 34.19 5.634 65.785c27.263 31.591 86.089 30.273 86.089 30.273 69.224 3.455 95.177-34.166 95.177-34.166s25.52-32.897-.442-67.944c-22.612-30.53-75.075-32.5-88.238-32.495-1.953 0-3.042.04-3.042.04m-54.51 90.008c-16.876-32.893 8.655-57.99 8.655-57.99s15.558-15.579 48.017-14.281c0 0 54.502-1.736 54.944 46.731.438 48.471-46.723 52.365-46.723 52.365s-3.484.438-8.913.438c-14.71 0-43.652-3.239-55.98-27.263M746.89 41.763v49.335c44.999-45.875 62.718-24.671 62.718-24.671v77.478l-25.51 25.511h96.475L853.748 142.6V67.73c19.472-23.804 61.421 20.348 61.421 20.348l-.422-46.735-167.858.421zm183.256.099v49.326c44.995-45.871 62.719-24.663 62.719-24.663v77.487l-25.511 25.507h96.475l-26.825-26.83V67.827c19.472-23.808 61.421 20.348 61.421 20.348l-.421-46.735-167.858.422z" fill="#054baa"/></svg>