<svg xmlns="http://www.w3.org/2000/svg" width="400" height="200" viewBox="0 0 400 200"><path fill="#C41230" d="M345 179.6c-1.5-.8-3.1-1.2-4.7-1.2s-3.1.4-4.6 1.2c-1.5.9-2.7 2-3.6 3.6-.9 1.6-1.2 3.2-1.2 4.8 0 1.7.4 3.2 1.2 4.8.9 1.5 2 2.7 3.5 3.6 1.5.9 3 1.3 4.7 1.3 1.6 0 3.2-.4 4.7-1.3 1.5-.8 2.7-2 3.5-3.6.8-1.5 1.3-3.1 1.3-4.8 0-1.7-.4-3.3-1.3-4.8s-2.1-2.7-3.5-3.6m2.1 12.4c-.7 1.3-1.7 2.3-3 3-1.2.7-2.5 1.1-3.9 1.1s-2.7-.4-3.9-1.1c-1.3-.7-2.2-1.7-3-3-.7-1.2-1-2.5-1-4 0-1.4.3-2.7 1-4 .7-1.3 1.7-2.3 2.9-3 1.3-.7 2.5-1 3.9-1 1.3 0 2.6.3 3.9 1 1.2.7 2.2 1.7 3 3 .7 1.3 1 2.6 1 4 .1 1.5-.2 2.8-.9 4m-5.2-2.7c-.2-.2-.5-.4-.9-.5.9-.1 1.6-.4 2.2-1 .5-.6.8-1.2.8-2 0-.5-.2-1.1-.5-1.5-.3-.4-.7-.8-1.3-1-.5-.2-1.4-.3-2.5-.3h-3.5v10.3h1.6V189h1c.6 0 1 .1 1.3.3.4.3 1 1.1 1.7 2.4l.9 1.6h2l-1.2-2c-.7-.9-1.1-1.6-1.6-2m-2.1-1.8h-2v-3.1h1.9c.8 0 1.3.1 1.6.2.3.2.6.3.7.5.2.3.2.5.2.8 0 .5-.2.8-.5 1.2-.3.3-1 .4-1.9.4M2.7 2.7l37.9 179 2.9-1.5c40.3-21.1 80.5-19.9 107.1-15.1 28.9 5.2 48.6 15.5 48.8 15.6l1 .6 1.1-.5c47.5-21.1 86.8-19.9 111.3-15.2 26.6 5.2 42.2 15.4 42.4 15.6l3 2 .8-3.5 38.7-177H2.7z"/><path fill="#FFF" d="M276.3 42.9v13.5h7l-3.5 10.1h3.2l7.7-9.3V42.9h-14.4zm-134.6 8.2c-21 0-33.5 11.7-33.5 31.3s12 31.4 34.8 31.4c20.7 0 30.1-7.9 32.4-21.3h-18.5c-1 5.2-5.9 7-12.2 7-7.4 0-12.1-5.1-12.1-13.5H175c.2-1 .3-2.3.3-3.6-.1-16.9-11.2-31.3-33.6-31.3zm181.1.2c-18.6 0-30.6 7.5-30.6 20.3 0 23.9 35.4 15.8 35.4 24.3 0 3.2-2.6 4.9-7.6 4.9-5.7 0-9.7-2.6-9.7-7.7h-18.6v.3c0 10.8 7.6 19.8 27.9 19.8 23 0 31.7-9.1 31.7-20.8 0-24.3-37.1-15.2-37.1-24.5 0-1.9 2.4-4.1 8.5-4.1 6 0 9.6 2.8 9.6 5.7h17c.2-9.9-9.9-18.2-26.5-18.2zM248 52.5v59.3h22.2V52.5H248zm-78.9.1l29.1 59.3h18.3l28.2-59.3h-18.3l-15.6 34.2h-.4l-15.6-34.2h-25.7zm-117.7.5v58.7h55.7v-15H73.5V53.1H51.4zm90.5 10.7c6.3 0 8.5 5.2 8.5 11.7h-16.9c-.1-5.8 2.1-11.7 8.4-11.7z"/></svg>