<svg xmlns="http://www.w3.org/2000/svg" width="2500" height="1618" viewBox="0 0 2500 1618"><radialGradient id="a" cx="752.191" cy="693.807" r="139.754" gradientTransform="matrix(8.6369 0 0 -8.6369 -5292.608 7137.942)" gradientUnits="userSpaceOnUse"><stop offset="0" stop-color="#fff"/><stop offset=".135" stop-color="#e4e99d"/><stop offset=".36" stop-color="#89bf7e"/><stop offset=".562" stop-color="#75b552"/><stop offset=".764" stop-color="#003713"/><stop offset="1" stop-color="#33a457"/></radialGradient><path fill="url(#a)" d="M1638.1 150.8c231.2 200 244.9 519.8 44.2 743.4-200.8 223.7-483.1 267.6-714.2 67.6C736.9 761.7 712.2 418.3 913 194.6c200.8-223.6 493.9-243.8 725.1-43.8z"/><radialGradient id="b" cx="737.224" cy="708.123" r="124.255" gradientTransform="matrix(8.6369 0 0 -8.6369 -5279.979 7137.942)" gradientUnits="userSpaceOnUse"><stop offset="0" stop-color="#fff"/><stop offset=".135" stop-color="#a4ca82"/><stop offset=".149" stop-color="#9cc77d"/><stop offset=".222" stop-color="#74b669"/><stop offset=".285" stop-color="#54ac5e"/><stop offset=".335" stop-color="#3ca658"/><stop offset=".365" stop-color="#33a457"/><stop offset=".551" stop-color="#6cb476"/><stop offset=".579" stop-color="#63aa6e"/><stop offset=".631" stop-color="#52955d"/><stop offset=".703" stop-color="#367444"/><stop offset=".789" stop-color="#084a25"/><stop offset=".832" stop-color="#00320c"/><stop offset="1" stop-color="#38704a"/></radialGradient><path fill="url(#b)" d="M951.2 260.6c-192.5 168.2-206.8 463.6-31.8 659.9 175 196.4 472.9 219.2 665.5 51 192.3-168 206.6-463.6 31.6-659.9-174.9-196.2-472.9-219-665.3-51z"/><radialGradient id="c" cx="479.453" cy="788.248" r="78.139" gradientTransform="matrix(8.3294 0 0 -8.3294 -2918.801 6917.83)" gradientUnits="userSpaceOnUse"><stop offset="0" stop-color="#fff"/><stop offset=".129" stop-color="#b1d29d"/><stop offset=".286" stop-color="#7cba74"/><stop offset=".477" stop-color="#33a457"/><stop offset=".73" stop-color="#045229"/><stop offset="1" stop-color="#196535"/></radialGradient><path fill="url(#c)" d="M1509.7 842.8c-160.1 126.8-396.8 104-528.7-50.9-131.9-155-109-383.5 51-510.3 159.9-126.7 396.7-103.9 528.7 51 131.8 154.9 108.9 383.5-51 510.2z"/><path fill="#FFF" d="M1104.6 147.4c17 4.5 27.5 21.8 23.1 38.6-4.5 16.6-21.9 26.5-39 22-17.1-4.6-27.5-21.9-23.1-38.6 4.3-16.7 21.8-26.6 39-22zm34.3 63.8c11.8 3.1 18.8 15 15.8 26.4-3.1 11.6-15.1 18.4-26.8 15.3-11.7-3.2-18.9-14.9-15.8-26.5 3.1-11.5 15-18.4 26.8-15.2zm40.3 59.7c7.7 2 12.3 9.8 10.4 17.3-1.9 7.5-9.9 12-17.7 9.9-7.7-1.9-12.3-9.7-10.4-17.4 2-7.4 10-11.9 17.7-9.8z"/><radialGradient id="d" cx="808.135" cy="761.953" r="118.604" gradientTransform="matrix(7.0867 0 0 -7.0867 -4312.23 5626.122)" gradientUnits="userSpaceOnUse"><stop offset="0" stop-color="#f8fcfe"/><stop offset=".172" stop-color="#eceef0"/><stop offset=".393" stop-color="#e4e4e5"/><stop offset="1" stop-color="#5d6469"/></radialGradient><path fill="url(#d)" d="M841.5 242.8c-173 253.6-107.7 599.4 145.9 772.4 253.6 173 599.4 107.7 772.4-145.8C1932.8 615.8 1867.5 270 1614 97 1360.4-76.1 1014.6-10.8 841.5 242.8zm880 368.6c-2.3 70.6-25.8 137.2-75.2 207.8-141.6 202.1-440.5 246.7-645.7 106.7C866 834.4 791.2 677.4 805 515.2 825.3 570 913.7 619.7 981.7 620c92.5.4 195.7-41.4 286.4-106.7 109.9-79.1 196.8-129.5 276.6-123.2 75.6 6 181.2 84.4 176.8 221.3zm-411.7-332.2C1186.1 432.6 1082.7 493 984.3 510.6 912 523.5 813 460.3 842.9 366.7c9.6-30.1 23.4-58.6 41.1-84.7 84.5-123.9 219.2-193.3 359-200.1 98.2-4.9 176.9 60.8 66.8 197.3z"/><path fill="#6D6E70" d="M1522.6 1547.4c-22.7-4-36-15.1-39.7-35.1-.7-3.7-1-8.3-1-33.8v-38c0-21.8.4-28.1 1.1-31.9 3.6-17.2 15.8-29.3 39.1-34 6.9-1.4 13.4-2.1 54.2-2.1h54.4v33.6h-56.3c-30.6 0-34.8.6-37.7 1.6-5.7 1.9-8.9 5.5-10.5 10.2-.9 2.5-1.2 7.8-1.2 23v36.1c0 19.4.4 24.7 1.4 27.2 1.6 4.3 4.9 7.4 10.5 9.2 3.8 1.3 8.7 1.9 38.8 1.9h58.1v33.6h-60.9c-37.3.2-43.8-.3-50.3-1.5zm-283.7-105c0-31 .7-33.7 2.1-38 4.4-13.8 15.5-23.8 31-28.6 6.8-2.1 14.6-3.2 51.6-3.2h26.8v33.9h-27.8c-25 0-29 .6-31.6 1.7-3.9 1.6-6 3.9-7.2 6.3-1.2 2.3-1.4 5.3-1.4 22.9v111.8h-43.6l.1-106.8zm715.6 32.2c-21.3 0-31.7-.7-38.4-2.1-20.1-4.1-33.4-14.6-37.5-31.8-.9-3.7-1.3-11-1.3-16.8v-1.5c0-10.8.8-16.8 2.3-21.2 5.1-14.8 18.5-23.3 38.4-26.8 8.7-1.3 20.8-1.9 55.5-1.9h65.9v33.8h-98.1c-18 0-21.2 5.4-21.2 17.2 0 10.5 2.5 17.6 21.6 17.6h26.2c24.6 0 30.8.6 37.1 1.9 24.7 4.7 36.1 17.7 39.8 33.1 1 4.1 1.4 11.9 1.4 18.4v2.1c0 7.6-.4 14.6-1.2 18.5-3.6 17.6-12.3 28.6-36.4 32.5-6.8 1.1-11.9 1.3-43.4 1.3h-86.5v-33.7h99.3c18.3 0 25-2.1 25-20.5 0-16.1-7.6-20.3-25.3-20.3l-23.2.2zm-206.8 0c-21.4 0-31.7-.7-38.4-2.1-20.1-4.1-33.5-14.6-37.5-31.8-.9-3.7-1.3-11-1.3-16.8v-1.5c0-10.8.8-16.8 2.3-21.2 5.1-14.8 18.5-23.3 38.4-26.8 8.8-1.3 20.9-1.9 55.6-1.9h65.9v33.8h-98c-17.9 0-21.2 5.4-21.2 17.2 0 10.5 2.5 17.6 21.5 17.6h26.3c24.6 0 30.8.6 37.1 1.9 24.7 4.7 36.1 17.7 39.8 33.1 1 4.1 1.4 11.9 1.4 18.4v2.1c0 7.6-.4 14.6-1.2 18.5-3.6 17.6-12.2 28.6-36.3 32.5-6.9 1.1-12 1.3-43.5 1.3H1672v-33.7h99.3c18.3 0 24.9-2.1 24.9-20.5 0-16.1-7.6-20.3-25.3-20.3l-23.2.2zm-1635.3 38.9c21.6 0 31-5.6 34.1-14.9.8-2.5 1.5-6 1.5-14.8v-5.1c0-8-.7-12.4-1.5-15.1-3.3-10.6-13.6-14.8-33.7-14.8l-43.1-.1c-40.5 0-64.3-19.1-68.8-45.7-.5-3.2-.8-10.1-.8-20.8v-2.7c0-9.4.2-17 .6-19.8 3.5-27 23.8-42.2 58.3-46.1 8.4-1.1 24.3-1 33.4-1H180v36l-102-.1c-17.5 0-27.8 3.6-31.1 13.4-.8 2.4-1.4 8.9-1.4 16.4v3.1c0 8.1.5 13.7 1 16.1 3 11.9 13.7 15.6 33.5 15.6l42.3-.1c45.2 0 66.8 14.7 71 43.5.5 3.5.7 13.7.7 17.6v9.5c0 3.8-.2 13.9-.7 17.4-3.5 27.1-20.5 43-52 46.9-5.3.7-20.3 1-40.7 1H3.8v-35.6h108.6zm307.8-104.6c-4.3-18.1-15.9-29.9-40.8-34.4-6.3-1-13.3-1.9-44.7-1.9h-16.1c-22.1 0-32.8.6-40.2 1.4-26.1 3.3-39.5 14.5-44.1 33.7-1.3 5.2-1.5 12.3-1.5 34.2v33.7c0 21.8.9 33.3 2.6 38.4 5.1 15 15.9 26.2 34.2 31.6 7.9 2.3 20.2 3.6 51.2 3.6h15.7c29.2 0 38.5-1 45.8-2.9 19.7-5.1 32.3-17 37.3-34.8 1.3-4.6 2-14.2 2-31.8v-33.4c.1-23.3-.4-33.3-1.4-37.4m-40.8 72.1c0 15.9-.5 22-1.4 24.4-1.6 4.1-4.9 7.4-9.1 9-3.4 1.4-9.8 2.1-30.2 2.1h-20.8c-21.2 0-30.6-.7-33.7-2.2-3.5-1.8-6.2-4.7-7.7-8.9-.9-2.6-1.4-12.5-1.4-31.4v-28.6c0-18.2.4-27.3 1.2-29.5 1.6-4.4 5-7.4 10.3-9.1 3.3-1.1 10.8-1.5 28.2-1.5H338c13.9 0 25.6.4 28.8 1.2 6.7 1.8 10.1 5.2 11.7 10.3.7 2.3 1 11.9 1 29.7l-.1 34.5zm1893.4-72.1c-4.4-18.1-15.9-29.9-40.8-34.4-6.3-1-13.3-1.9-44.7-1.9h-16.1c-22 0-32.8.6-40.3 1.4-26.1 3.3-39.4 14.5-44.1 33.7-1.3 5.2-1.4 12.3-1.4 34.2v33.7c0 21.8.9 33.3 2.6 38.4 5.1 15 15.9 26.2 34.2 31.6 7.9 2.3 20.1 3.6 51.2 3.6h15.8c29.2 0 38.5-1 45.8-2.9 19.7-5.1 32.4-17 37.3-34.8 1.3-4.6 2-14.2 2-31.8v-33.4c0-23.3-.5-33.3-1.5-37.4M2232 1481c0 15.9-.5 22-1.5 24.4-1.6 4.1-4.9 7.4-9.1 9-3.4 1.4-9.7 2.1-30.2 2.1h-20.8c-21.2 0-30.5-.7-33.6-2.2-3.7-1.8-6.5-5-7.7-8.9-.9-2.6-1.4-12.5-1.4-31.4v-28.6c0-18.2.4-27.3 1.2-29.5 1.6-4.4 5-7.4 10.3-9.1 3.4-1.1 10.8-1.5 28.2-1.5h23.1c13.9 0 25.6.4 28.8 1.2 6.6 1.8 10.1 5.2 11.6 10.3.7 2.3 1 11.9 1 29.7l.1 34.5zm-1177.1 65.7c-24.1-5-45.1-17.9-50.2-42.5-.8-3.7-1.2-10.8-1.2-38.1v-65.3c0-32 .4-40.4 1.6-45.5 3.6-15.3 15-34.3 48.6-40.6 7.3-1.4 15.8-2.2 60.6-2.2h81.8v36h-87.3c-32 0-38.4.6-42.6 1.9-6.2 2-10 5.4-11.9 10.5-.9 2.4-1.4 5.5-1.4 26.3v24.4h131.9v34.9h-131.9v25.8c0 23.6.5 26.6 1.6 29.2 2.1 4.9 6 8 12.1 9.9 4.4 1.3 9.8 1.9 42.2 1.9h88.8v35.5h-80c-46.8.3-54.6-.5-62.7-2.1zM461.4 1444c0-21.9.4-30.7 1.3-34.5 4-17.8 17.2-29.8 38.1-34.5 6.8-1.6 15.6-2.4 43.8-2.4h21c26.4 0 37.4 1 44.1 2.7 23.2 5.7 32.5 19.5 36.1 31 1.8 5.9 2.2 11.8 2.2 32.6v110.2h-43.2v-111.3c0-13.4-.3-19-.8-21.1-1.1-4.3-3.5-7-7.1-8.5-2.8-1.2-11.6-1.7-34.3-1.7H547c-22.7 0-31.8.6-34.6 1.8-3 1.3-5.3 3.8-6.4 6.9-.7 2.1-1.1 5.8-1.1 22.6v111.4h-43.4c-.1-3.5-.1-105.2-.1-105.2zm930.7-71.3v176.4h43.5v-176.4h-43.5zm0-60.1v36.1h43.5v-36.1h-43.5zM832 1379v97.6c0 17.6-.4 24-1.2 26.3-1.7 4.8-5.4 8.3-11.5 10-2.9.9-7.4 1.4-25 1.4h-25.8c-20.2 0-24.6-.8-27.9-2.4-2.8-1.3-5.2-3.4-6.7-6.2-1.2-2.4-1.8-6.4-1.8-24.9V1379H689v95.7c0 31.4.4 34.6 1.1 38.2 3.7 18.2 16.5 28.2 35.4 32.4l.2.1c10.9 2.4 14.9 2.4 44.8 2.4h19.9c37.7 0 42.2-10.2 42.6-11.4v20.1c0 11.6-.3 15.1-1 17.7-1.3 4.7-4.2 8.1-10.9 9.8-3.6 1-10 1.5-37.1 1.5h-75.4v32.5h78c40 0 46.3-.8 52.6-2.4 20.7-5.2 31.1-18.2 34.4-33.3.9-4 1.4-11.5 1.4-37.3v-166h-43zm1524.9 167.3v-108.6c0-16.7.3-20.5 1-22.6 1-3.1 3.4-5.6 6.4-6.9 2.9-1.3 12-1.8 34.6-1.8h15.6c22.7 0 31.5.5 34.4 1.7 3.6 1.5 5.9 4.2 7.1 8.5.5 2.1.8 7.7.8 21.1v108.6h43.2v-107.5c0-20.8-.4-26.7-2.3-32.6-3.6-11.5-12.9-25.3-36.1-31-6.8-1.7-17.8-2.7-44.2-2.7h-21c-28.2 0-37.1.8-43.8 2.4-20.8 4.7-34 16.7-38 34.5-.9 3.8-1.3 12.6-1.3 34.5v102.3l43.6.1z"/></svg>