<svg xmlns="http://www.w3.org/2000/svg" width="92" height="23.4" viewBox="0 0 92 23.4"><path fill="#2461AA" d="M76.506 10.309v1c6 1 9.6 2.4 9.6 3.8 0 3.2-17.9 5.9-40 5.9-5.7 0-11.1-.2-16-.5-.1-.8-.8-1.4-1.7-1.4-.8 0-1.4.5-1.6 1.2-12.4-1-20.7-2.9-20.7-5.1 0-1.4 3.6-2.8 9.5-3.8v-1c-8.9 1.2-14.5 2.9-14.5 4.8 0 2.6 10.5 4.9 25.6 6 .1.8.8 1.4 1.7 1.4.8 0 1.4-.5 1.6-1.2 5 .3 10.4.4 16 .4 24.9 0 45-3 45-6.6.1-2-5.5-3.7-14.5-4.9z"/><path d="M15.206 1.509h2l2 6 2-6h2.1v14.2h-1.9v-9.7l-2.1 6.3h-.1l-2.1-6.3v9.7h-1.9v-14.2m12.2-.1h2.1l2.8 14.3h-2l-.6-3.2h-2.7l-.6 3.2h-2l3-14.3zm2.1 9.3l-1-5.7-1 5.7h2m10.2-7.4h-2.1c-1.5 0-2.6 1.6-2.6 5v.6c0 3.8 1.2 5.1 2.5 5.1h.5v-4.3h-1.5v-1.8h3.3v7.9h-2.4c-2.4 0-4.4-2.1-4.4-7v-.5c0-4.6 2-7 4.6-7h2.2l-.1 2m2.1-1.8h5.3v1.9h-3.2v4.2h2.9v1.9h-2.9v4.3h3.3v1.9h-5.3l-.1-14.2m7 0h2v12.3h2.9v1.9h-4.9v-14.2m6.4 0h2v12.3h2.9v1.9h-4.9v-14.2m8.5-.1h2.1l2.8 14.3h-2l-.6-3.2h-2.7l-.6 3.2h-1.9l2.9-14.3zm2 9.3l-1-5.7-1 5.7h2m4.2-9.2h1.9l3.1 8.6v-8.6h2v14.2h-1.8l-3.2-8.9v8.9h-2v-14.2m11.6-.4c.6 0 1.1.1 1.7.4.6.3 1 .7 1.3 1.3.3.6.5 1.1.5 1.7 0 .6-.2 1.2-.5 1.7s-.7 1-1.3 1.3c-.5.3-1.1.5-1.7.5-.6 0-1.2-.2-1.7-.5s-1-.7-1.3-1.3c-.3-.5-.5-1.1-.5-1.7 0-.6.2-1.2.5-1.7s.7-1 1.3-1.3c.6-.2 1.2-.4 1.7-.4zm0 .6c-.5 0-1 .1-1.4.4-.5.2-.8.6-1.1 1.1-.3.5-.4.9-.4 1.4 0 .5.1 1 .4 1.4s.6.8 1.1 1.1.9.4 1.4.4c.5 0 1-.1 1.4-.4.5-.3.8-.6 1.1-1.1.3-.5.4-.9.4-1.4 0-.5-.1-1-.4-1.4-.3-.5-.6-.8-1.1-1.1s-.9-.4-1.4-.4zm-1.5 4.8v-3.7h1.3c.4 0 .8 0 .9.1s.4.2.5.4.2.4.2.5c0 .3-.1.5-.3.7-.2.2-.5.3-.8.3.1.1.2.1.3.2.1.1.3.4.5.7l.5.7h-.7l-.3-.6c-.3-.5-.5-.7-.6-.9-.1-.1-.3-.1-.5-.1h-.4v1.6h-.6zm.6-2.1h.7c.3 0 .6-.1.7-.2s.2-.2.2-.4c0-.1 0-.2-.1-.3-.1-.1-.1-.2-.3-.2-.1 0-.3-.1-.6-.1h-.7v1.2z"/></svg>