<svg xmlns="http://www.w3.org/2000/svg" width="129" height="23.654" viewBox="0 0 129 23.654"><path d="M13.1 8.739c0 2.946-1.424 4.94-5.032 4.94h-1.14V4.298c.405-.023.784-.023 1.14-.023 3.416 0 5.032 1.615 5.032 4.463m-3.7 9.025c6.455 0 10.536-3.326 10.536-9.119 0-6.365-4.367-8.645-11.486-8.645A78.026 78.026 0 00.002.473v22.705H6.93v-5.414zm92.833-9.025c0 2.946-1.422 4.94-5.031 4.94h-1.137V4.297c.4-.023.781-.023 1.137-.023 3.416 0 5.031 1.615 5.031 4.463m-3.7 9.025c6.45 0 10.533-3.326 10.533-9.119 0-6.365-4.365-8.645-11.485-8.645a78.053 78.053 0 00-8.449.474v22.705h6.932v-5.413zm19.55-11.495c0-1.234 1.236-1.805 3.227-1.805a17.367 17.367 0 016.171 1.143l-.569-4.941a27.124 27.124 0 00-6.36-.665c-5.6 0-9.4 2.209-9.4 6.841 0 7.977 10.823 6.364 10.823 10.068 0 1.424-1.046 2.183-3.61 2.183a20.735 20.735 0 01-7.878-1.8l.762 5.226a22.909 22.909 0 007.213 1.139c5.789 0 10.536-1.9 10.536-7.6 0-7.6-10.918-6.173-10.918-9.784M83.91.477h-6.928v22.705h6.928zm-28.1 0h-6.929v22.705h6.929zm12.055 18.144V.475h-6.93V23.18h12.531l1.043-4.561zM43.755.477h-6.929v9.025h-7.21V.477h-6.931v22.705h6.931v-8.928h7.214v8.931h6.929z" fill="#0067b6"/></svg>