<svg xmlns="http://www.w3.org/2000/svg" width="194" height="132" viewBox="0 0 194 132"><g fill-rule="evenodd" clip-rule="evenodd"><path d="M96.1 47.3c11.4 0 20.7-7.4 20.7-16.6s-9.3-16.6-20.7-16.6-20.7 7.4-20.7 16.6 9.3 16.6 20.7 16.6zm-50.3 7.4c-1.7-.2-4.1-.2-4.1-.2v1.6c3.5 0 3.7 2.6 3.7 2.6v15.2c0 5.2-3.8 4.4-3.8 4.4v1.6s2.3-.1 4.2-.3c2.5-.4 4.4.3 8.4.3v-1.6c-3.2 0-3.3-4.4-3.3-4.4v-6.2h2.2c2.9 0 3.1 4.7 4.1 8.5.7 2.6 2.3 3.7 2.3 3.7s2.4-.3 4.9 0c2.5.3 3.3.2 5.3-.1 2.8-.5 2.8.1 6.9.1v-1.6c-4.3 0-2.7-4-2.7-4l1.3-3.6h7.1c.7 1.9 1.4 3.6 1.7 4.6 1.1 3.2-2.4 3-2.4 3v1.6s1.4.2 3.8-.3c3.6-.8 4.1.3 8.6.3v-1.6c-3.2 0-4-3.1-4-3.1l-8.5-20.9h-1.8s-7.1 17.5-8.2 20.1c-1 2.6-1.9 3.9-4.5 3.9-3.3 0-3.5-2.8-4.6-6.4s-4.5-4.7-4.5-4.7c2.7-.7 6.2-1.7 6.2-7.1 0-5.9-10.4-5.6-10.4-5.6-5.1.2-6 .5-7.9.2zm59.8 25.2v-1.6c-4.9 0-4.6-5.3-4.6-5.3V62.9l15.5 17h1.7V60.5c0-4.7 4.4-4.4 4.4-4.4v-1.9c-4.3 0-4.6 1.1-6.8.5-2.2-.5-3.9-.5-3.9-.5v1.9c4.8 0 4.5 4.3 4.5 4.3v10.7L101 54.2h-7.4v1.9c4 0 5.1 5.2 5.1 5.2v13c0 4.4-4.1 4.1-4.1 4.1v1.5s2 .1 3.8-.2c3.3-.6 2.2.2 7.2.2zm-16.9 32.5c3.4-.6 2.8.1 6.9.1v-1.6c-4.3 0-2.7-4-2.7-4l1.3-3.6h7.1c.7 1.9 1.4 3.6 1.7 4.6 1.1 3.2-2.4 3-2.4 3v1.6s1.4.2 3.8-.3c3.6-.8 4.1.3 8.6.3v-1.6c-3.2 0-4-3.1-4-3.1l-8.5-20.9h-1.8s-7.1 17.5-8.2 20.1-1.9 3.9-4.5 3.9v1.6c.1 0 1.7.1 2.7-.1zm-18.2.1v-1.6c-4.9 0-4.6-5.3-4.6-5.3V95.5l15.5 17h1.7V93.1c0-4.7 4.4-4.4 4.4-4.4v-1.9c-4.3 0-4.6 1.1-6.8.5-2.2-.5-3.9-.5-3.9-.5v1.9c4.8 0 4.5 4.3 4.5 4.3v10.7L66.1 86.9h-7.4v1.9c4 0 5.1 5.2 5.1 5.2v13c0 4.4-4.1 4.1-4.1 4.1v1.5s2 .1 3.8-.2c3.2-.7 2 .1 7 .1zm65.8-57.9c-3.8 0-5.3.5-8.4.3-2.4-.1-4.3-.6-4.3-.6v1.8c1 .2 1.9.3 2.8.4v18.4c0 4.2-4.4 3.5-4.4 3.5V80h17c3.3 0 12.6-1.4 12.6-12.6s-11.5-12.8-15.3-12.8zm-86.4 57.8c1.8 0 3.2-1.4 3.2-3.2 0-1.8-1.4-3.2-3.2-3.2-1.8 0-3.2 1.4-3.2 3.2 0 1.7 1.4 3.2 3.2 3.2zM17.7 86.9l9 16.6 7.1-16.6h10v1.3s-3.9-.3-3.9 3.9v15.8s-.1 2.8 3.6 2.8v1.9s-2.5.2-4.8-.4c-2.3-.5-3.1-.2-5 .2s-3.4.1-3.4.1v-1.9s3.9.5 3.9-3.8V91.4l-8.9 20.7h-.9l-9.5-19-.1 14.5s-.2 2.9 3.5 3v1.9s-1.9-.1-3.2-.5c-1.3-.3-2.1-.3-3.7 0s-1.8.4-2.8.4v-1.9s4.3-.1 4.3-3.1S13 91 13 91s0-2.4-4.1-2.6v-1.6l8.8.1z"/><path d="M56.4 86.9h.9l.6 5.9h-1s-1.4-4.6-5-4.6-4.5 3-4.5 6.4c0 3.5 1.2 7.7 4.9 7.7s5.1-3.8 5.1-3.8l1.2.6s-2.3 5.1-7 5.1-8.8-2.7-8.8-8.5 4.6-9.1 8.2-9.1c3.9-.1 4.9 2.5 5.4.3zm65.8 25.4c-1.6-.2-4.5-.1-5.8 0-1.6.2-2.7.2-2.7.2v-1.6s3.6-.1 3.6-5.1V91.7s0-3.2-3.7-3.2v-1.6h13.2v1.7s-4-.2-4 3.3v17.6s.1 1.5 2.5 1.5 6.8.3 10.5-7.4l1.4.4-2.2 8.6c-.1-.1-6.2.5-12.8-.3zm23.8 0c-1.6-.2-4.5-.1-5.8 0-1.6.2-2.7.2-2.7.2v-1.6s3.6-.1 3.6-5.1V91.7s0-3.2-3.7-3.2v-1.6h13.2v1.7s-4-.2-4 3.3v17.6s.1 1.5 2.5 1.5c2.3 0 6.8.3 10.5-7.4l1.4.4-2.2 8.6c-.1-.1-6.2.5-12.8-.3zm18.5.2v-1.6s3.6-.3 3.6-2.9v-6.1l-7.5-11.4s-1.5-2.2-3.6-2.2v-1.5s2.5-.1 4.1.3c1.6.4 2.7.5 4.5.1 1.8-.4 4.1-.4 4.1-.4v1.3s-3.9 0-2.2 3 4.5 7.5 4.5 7.5l4.9-7.2s1.8-2.4-1.9-3.2v-1.4s1.9-.1 3.1.2c1.1.4 1.9.4 3.2.1 1.3-.3 2.9-.3 2.9-.3v1.8s-2.5-.8-5.4 3.5c-2.9 4.2-5.4 7.7-5.4 7.7v8.3s-.1 2.7 3.2 2.7v1.6s-2.4 0-4-.3c-1.7-.4-2.1-.5-4 0-1.1.4-4.1.4-4.1.4z"/><path fill="#FFF" d="M95.4 22.5c0-.4.3-.7.7-.7.4 0 .7.3.7.7s-.3.7-.7.7c-.4 0-.7-.3-.7-.7zm1 12.2c1.9 0 3.6.2 5.2.5l-1.3-3.3H92l-1.3 3.4c1.7-.4 3.6-.6 5.7-.6zm0-7.2c-.9 0-1.8 0-2.6-.1l-1.1 3h7.1l-1.1-3c-.8 0-1.6.1-2.3.1zm0-1.5c.6 0 1.1 0 1.6-.1l-.5-1.4c-.4.2-.9.4-1.4.4-.5 0-.9-.1-1.3-.4l-.5 1.3c.7.1 1.4.2 2.1.2zm-.3 14.8c-2.8 0-5.2 1.7-6.1 4 1.9.5 4 .8 6.1.8s4.2-.3 6.1-.8c-.9-2.3-3.3-4-6.1-4zm7.9-23.7c2.6.9 5 2.3 6.8 4.1-1.5 1.3-4.9 3.6-10.3 4.5-.6-1.5-1-2.7-1.3-3.4 2.3-1 4.1-2.9 4.8-5.2zm-3 10c5.6-.9 9.1-3.3 10.8-4.8 2 2.3 3.2 5.1 3.3 8h-12.9c-.3-1.1-.8-2.2-1.2-3.2zM89.8 16.6c2-.6 4.1-.9 6.4-.9s4.4.3 6.4.9c-.5 2-2 3.5-3.9 4.3-.3-.4-.8-.9-1.6-1.1v-2.3c0-.4-.4-.7-.8-.7s-.8.3-.8.7v2.3c-.8.2-1.3.7-1.6 1.1-2.1-.7-3.6-2.3-4.1-4.3zm2 9c-5.2-.9-8.6-3.2-10.3-4.5 1.8-1.7 4.1-3.1 6.7-4 .7 2.3 2.5 4.3 4.8 5.2-.2.6-.6 1.8-1.2 3.3zm11 6.2H115c-.3 2.9-1.6 5.5-3.6 7.7-1.4-1.1-3.7-2.7-7.1-3.7-.3-.9-.8-2.3-1.5-4z"/><path fill="#FFF" d="M104.9 37.6c2.5.9 4.3 2.1 5.4 3-1.8 1.6-4 2.9-6.6 3.8-1.1-2.9-4.1-5.1-7.6-5.1s-6.5 2.1-7.6 5.1c-2.5-.9-4.7-2.1-6.5-3.7 1.1-.9 2.9-2 5.4-2.9-.1 1.3.5 1.7.5 1.7-.7 1.8.5 1.9.5 1.9l1.7-4.4c1.8-.5 3.9-.8 6.3-.8 2.2 0 4.1.3 5.8.6l1.7 4.5s1.2-.1.5-1.9c0 0 .7-.4.5-1.8zM90 30.3H77.1c.1-3 1.3-5.8 3.4-8.1 1.7 1.4 5.3 3.8 10.8 4.8-.4 1.1-.9 2.2-1.3 3.3zM87.9 36c-3.3 1.1-5.6 2.6-7 3.6-2.1-2.2-3.4-4.9-3.7-7.8h12.3c-.7 1.7-1.3 3.3-1.6 4.2zM52.7 66h-1.9v-9.8h2.6c1.7 0 4 .5 4 4.9 0 5.3-4.7 4.9-4.7 4.9zm23.2 2.7l2.7-7.4 2.8 7.4h-5.5zM95 101.3l2.7-7.4 2.8 7.4H95zm41.1-23c-3.9 0-3.6-2.6-3.6-2.6V56.3c.9-.1 1.9-.1 3-.1 4.6 0 8.9 3.3 8.9 12-.1 8.6-4.5 10.1-8.3 10.1z"/></g></svg>