<svg xmlns="http://www.w3.org/2000/svg" width="300" height="100" viewBox="0 0 300 100"><path fill="#FFF" d="M147.8 90.9c5.5 5.3 13 8.7 21.3 8.7H300l-28.3-84.3C267.9 6.3 258.8 0 247.9 0c-10.8 0-20 6.5-23.7 15.4l-9.4 27.5V1.4h-45.7c-8.3 0-15.7 3.2-21.2 8.6V1.5h-46.8c-8.7 0-16.6 3.7-22.2 9.6V1.4H34.8C15.7 1.4.1 16.3.1 36c0 9.1 4 17.4 9.9 23.5H.1v40.1h44.4c12.5 0 24.9-7.5 29.2-16.6l.1-.4c5 10 15.3 17 27.3 17h46.7v-8.7"/><path fill="#0060A8" d="M6.9 92.7h37.5c15.3 0 27.8-12.4 27.8-27.7 0-15.3-12.4-27.7-27.8-27.7l-9.7.1c-.8 0-1.4-.6-1.4-1.4s.6-1.4 1.4-1.4h37.4V22.9H34.6c-7.2 0-13.1 5.9-13.1 13.1 0 7.2 5.9 13.1 13.1 13.1l9.8.1c8.8 0 15.9 7.1 15.9 15.8 0 8.7-7.1 15.8-15.9 15.8H6.9v11.9"/><path fill="#0060A8" d="M6.9 78.1h37.5c7.3 0 13.1-5.9 13.1-13.1 0-7.2-5.9-13.1-13.1-13.1l-9.8-.1c-8.8 0-15.9-7.1-15.9-15.9 0-8.7 7.1-15.8 15.9-15.8H72V8.3H34.6C19.3 8.3 6.9 20.7 6.9 36s12.4 27.7 27.8 27.7h9.7c.7 0 1.4.6 1.4 1.4 0 .7-.6 1.3-1.4 1.3H7l-.1 11.7m94.3 2.8c-6.5 0-11.8-5.2-11.8-11.8V31.7c0-6.4 5.3-11.6 11.8-11.6h40V8.3h-40c-13 0-23.6 10.5-23.6 23.5v37.3c0 13 10.5 23.5 23.6 23.5H141V80.9h-39.8"/><path fill="#0060A8" d="M92.2 31.8c0-5 4-9 9-9h40v11.8h-34.5c-2.8 0-2.8 2.7-2.8 2.7h28.8V49H92.2V31.8m9 46.2c-5 0-9-4-9-8.9V51.8h40.5v11.7h-28.8c0 2.8 2.8 2.8 2.8 2.8H141V78h-39.8m68 2.9c-6.5 0-11.8-5.3-11.8-11.8V31.8c0-6.5 5.3-11.7 11.7-11.7h38.7V8.3H169c-13 0-23.6 10.5-23.6 23.5v37.3c0 13 10.6 23.5 23.6 23.5h38.7V37.3h-33.3V49h21.5v31.8l-26.7.1"/><path fill="#0060A8" d="M160.2 69.1c0 5 4 9 9 9h24.2V51.8h-18.7v11.8h6.9v2.8h-6.9c-1.5 0-2.7-1.3-2.7-2.8l-.1-26.3s0-2.7 2.8-2.8H208V22.8h-38.7c-5 0-9 4-9 9l-.1 37.3m84.1-46.5c.5-1.5 1.9-2.6 3.6-2.6 1.7 0 3.1 1.1 3.6 2.6l18.8 55.6h-27.5V65.1h9.2l-4.1-12.3-13.5 39.8h-13.9l23.8-70"/><path fill="#0060A8" d="M274.2 80.9h-31.3v11.7h47.6l-24.8-73.3c-2.2-7.1-9.3-12.4-17.8-12.4s-15.6 5.2-17.8 12.4l-25 73.3h12.5l24.3-71.2c1-2.4 3.3-4 6-4s5.1 1.7 6 4l20.3 59.5"/><path fill="#231F20" d="M281.5 17.6c2.2 0 4.3-.9 5.9-2.4 1.6-1.6 2.4-3.6 2.4-5.9 0-2.2-.9-4.3-2.4-5.8-1.6-1.5-3.6-2.4-5.9-2.4-4.6 0-8.3 3.7-8.3 8.2 0 2.2.9 4.3 2.4 5.9 1.6 1.6 3.7 2.4 5.9 2.4m-7.1-8.2c0-1.9.7-3.7 2.1-5 1.4-1.3 3.1-2.1 5-2.1s3.7.7 5.1 2.1c1.3 1.3 2.1 3.1 2.1 5 0 3.9-3.2 7.1-7.1 7.1-1.9 0-3.7-.7-5-2.1-1.5-1.4-2.2-3.1-2.2-5z"/><path fill="#231F20" d="M279.4 10.1V14h-1.2V4.8h3.4c1.3 0 2 0 2.7.6.7.5 1 1.3 1 2.1 0 2.1-1.7 2.4-2.2 2.5l2.6 4h-1.4l-2.5-3.9h-2.4m0-1h2.4c.4 0 .8 0 1.1-.1.9-.2 1.2-.8 1.2-1.5 0-.2 0-.9-.5-1.3s-1.1-.4-1.8-.4h-2.4v3.3z"/></svg>