<svg xmlns="http://www.w3.org/2000/svg" width="137.326" height="40.699"><path d="M128.309 35.674c2.47-4.657 4.017-9.483 4.017-15.337 0-6.333-1.547-10.647-4.017-15.337h-3.144c2.121 4.69 3.617 9.004 3.617 15.337 0 5.854-1.496 10.68-3.617 15.337h3.144m-119.292.025C6.547 31.042 5 26.216 5 20.362 5 14.03 6.547 9.715 9.017 5.025h3.144c-2.12 4.69-3.617 9.004-3.617 15.337 0 5.854 1.497 10.68 3.617 15.337H9.017m8.898-5.087h4.491V9.275h-4.491v21.337zm12.449-12.04v12.042H26.4V15.366h8.843c.932 0 1.722.108 2.368.321.648.214 1.234.605 1.762 1.172.455.491.782.977.983 1.46.2.477.302 1.043.302 1.7v10.595h-3.97V20.78c0-.651-.2-1.185-.603-1.6-.401-.405-.936-.609-1.606-.609h-4.116m15.147.001h-2.738v-3.206h2.738V9.275h3.969v6.091h3.808v3.206H49.48v5.502c0 1.428.215 2.352.643 2.771.393.38.945.569 1.66.569h1.505v3.2h-2.89c-1.513 0-2.65-.335-3.407-1.005-.443-.397-.77-.818-.985-1.264a4.663 4.663 0 01-.408-1.406 15.366 15.366 0 01-.087-1.788v-6.579m30.939 0v12.042h-3.963V15.366h8.843c.932 0 1.722.108 2.369.321.647.214 1.233.605 1.761 1.172.455.491.782.977.984 1.46.2.477.301 1.043.301 1.7v10.595h-3.97V20.78c0-.651-.2-1.185-.603-1.6-.4-.405-.936-.609-1.606-.609H76.45m18.237 5.945c-1.495 0-2.657-.42-3.486-1.259-.83-.843-1.245-1.947-1.245-3.312 0-1.37.415-2.474 1.245-3.314.829-.844 1.991-1.265 3.486-1.265h9.68v3.053h-8.12c-.633 0-1.142.105-1.526.313-.384.207-.575.61-.575 1.213 0 .597.191 1.001.575 1.211.384.21.893.314 1.526.314h4.224c1.494 0 2.656.42 3.488 1.259.828.835 1.245 1.937 1.245 3.306 0 1.37-.417 2.476-1.245 3.32-.83.839-1.994 1.259-3.488 1.259H89.956v-3.045h8.955c1.396 0 2.095-.512 2.095-1.534 0-.598-.192-.999-.575-1.205-.38-.209-.886-.314-1.52-.314h-4.224m20.749-6.246c-2.62 0-3.929 1.572-3.929 4.719 0 3.155 1.31 4.732 3.93 4.732 2.614 0 3.922-1.577 3.922-4.732 0-3.147-1.308-4.719-3.923-4.719zm-8.119 4.719c0-1.69.328-3.13.984-4.318a6.389 6.389 0 012.818-2.697c1.222-.607 2.662-.909 4.317-.91 1.655 0 3.093.303 4.311.91a6.348 6.348 0 012.818 2.691c.66 1.191.99 2.634.99 4.324 0 1.696-.33 3.138-.99 4.331a6.38 6.38 0 01-2.818 2.696c-1.218.603-2.656.904-4.31.904-1.656 0-3.096-.304-4.318-.91a6.392 6.392 0 01-2.818-2.69c-.656-1.193-.984-2.635-.984-4.331m-46.808-4.018c-.518.37-.842 1.126-.97 2.269l-.007.201h6.958l-.02-.201c-.13-1.143-.453-1.899-.971-2.269-.528-.38-1.352-.574-2.488-.582-1.136.008-1.974.202-2.502.582zm-1.01 5.515l-.012.238c.134 1.155.51 1.871 1.022 2.232.531.388 1.387.583 2.57.583h6.282v3.045H62.47c-2.306 0-4.103-.658-5.388-1.975-1.285-1.317-1.927-3.197-1.927-5.642 0-1.633.287-3.02.862-4.163.58-1.142 1.422-2.005 2.524-2.59 1.079-.572 2.355-.864 3.831-.878h1.165c1.518 0 2.828.293 3.93.878 1.102.585 1.59 1.413 2.052 2.608.441 1.14.592 2.512.592 4.145 0 .532-.029 1.04-.089 1.52H59.5" fill="#231f20"/></svg>