<svg xmlns="http://www.w3.org/2000/svg" width="1323.8" height="250" viewBox="0 0 1323.8 250"><g fill="#100F0D"><path d="M1227.894 118.466h48.25l11.5-55.5h-48.25l12.75-61.5h-70.75l-36.75 177.875c-2.125 10-3 18.375-2.75 25.375.375 8.625 3.625 16.5 9.875 23.5 5.625 6.25 11.75 10.75 18.25 13.25 6.25 2.375 13.75 3.625 23.125 3.625h55l11.125-53.25h-28.125c-6.875 0-12.125-1.25-14.75-3.5-.875-.75-2.375-2-1.375-6.75l12.875-63.125zM50.519-.034l-12.25 58.875h76.625L127.019-.034h-76.5zm233.125 157.75l47.25 85.875h88.25l-54.625-96c10.75-6 20.125-13.375 25-17.5 9.875-8.5 22.75-28.375 26.375-45.75 4.875-23.25.625-43.25-12.625-59.625-14.75-18.125-43-24.625-62.75-24.625H160.144l-12.125 58.875h86.875l64.5-.125c12.375 0 21.625 2.125 27.25 6.25 3 2.25 5.625 5.375 4.125 12.625-1.375 6.625-6.5 12-15.5 16.625-8.75 4.375-17.625 6.5-27.125 6.5h-70.5l5.625-23.875h-79.125l-35.25 166.625h78.875l17.75-85.875h78.125zm-248.5-80.875L.019 243.591h77l34.75-166.625H35.144z"/><path d="M564.519 149.591c-3.125 14.75-9.125 26.375-18 34.5-8.75 7.875-19.875 11.75-34.375 11.75-12 0-20.625-3.5-26.375-10.625-5.75-7.25-7.375-16.875-4.625-29.625 2.375-11.5 8.125-20.625 17.625-28 9.625-7.625 20.375-11.25 32.875-11.25 12.875 0 22 3.125 27.75 9.625 5.5 6.25 7.125 13.75 5.125 23.625m60.25-64.875c-18.375-15.875-45.25-24-80-24-30.75 0-58.75 7.25-83.375 21.5-28.5 16.25-45.875 38.75-51.75 67.125-7.25 34.625.625 61.25 23 79.125 18.25 14.375 45.25 21.625 80.5 21.625 32.25 0 60.125-7 82.875-20.875 25.375-15.5 41.25-37.5 47-65.5l2-9.375c6.125-29.375-.625-52.75-20.25-69.625m436.625 64.875c-3.125 15-9 26.25-18 34.5-8.75 7.875-19.875 11.75-34.375 11.75-12 0-20.625-3.5-26.375-10.625-5.75-7.25-7.375-16.875-4.625-29.625 2.375-11.5 8.125-20.625 17.625-28 9.75-7.625 20.375-11.25 32.875-11.25 12.875 0 22 3.125 27.75 9.625 5.5 6.25 7.125 13.75 5.125 23.625m55.375-64.875c-18.375-15.875-45.25-24-80-24-30.75 0-58.75 7.25-83.375 21.5-28.375 16.25-45.875 38.75-51.625 67.125-7.25 34.625.625 61.25 23 79.125 18.25 14.375 45.25 21.625 80.5 21.625 32.25 0 60.125-7 82.875-20.875 25.375-15.5 41.25-37.5 47-65.5l1.875-9.375c6.25-29.375-.625-52.75-20.25-69.625m-303.125 64.875c-3 14.875-9.125 26.375-18 34.5-8.625 7.875-19.875 11.75-34.375 11.75-12 0-20.625-3.5-26.375-10.625-1.375-1.625-1.375-4-1.375-9.625.125-9 5.375-32 7.875-38 2.125-5.125 3.375-7.625 6.375-10.125 9.625-7.625 20.375-11.25 32.875-11.25 13 0 22.125 3.125 27.75 9.625 5.625 6.375 7.25 13.875 5.25 23.75m55.25-65c-19-15.75-45.875-23.875-79.75-23.875-13 0-26.25 1.625-38.25 4.25L766.269.091h-75.125l-27.875 125.25c-.875 4.25-8.875 42.125-8.625 57.375.25 17.875 8.5 34.5 22.625 45.75 18.25 14.375 45.25 21.625 80.5 21.625 32.25 0 60.125-7 82.875-20.875 25.375-15.5 41.25-37.5 47-65.5v.375c.25-2.375 12.25-53.875-18.75-79.5m429.375-64.375h6.125c1.625 0 2.75-.375 3.5-1.25.75-.75 1.125-1.75 1.125-2.875 0-1.25-.375-2.125-1.25-2.75s-1.875-.875-3.125-.875h-6.5l.125 7.75zm14.875 12.875h-3.875l-4.5-10.125h-6.5v10.125h-3.5v-23.5h10c2.625 0 4.75.625 6 2s2 2.875 2 4.625c0 1.25-.375 2.375-1.125 3.625-.75 1.125-1.875 2-3.375 2.5l4.875 10.75zm7.75-11.75c0-4.75-1.75-8.875-5.125-12.25s-7.5-5.125-12.25-5.125-8.875 1.75-12.25 5.125-5.125 7.5-5.125 12.25 1.625 8.875 5.125 12.25c3.375 3.375 7.5 5.125 12.25 5.125s8.875-1.75 12.25-5.125c3.5-3.5 5.125-7.5 5.125-12.25m2.875 0c0 5.5-2 10.25-5.875 14.25-4 4-8.75 5.875-14.25 5.875s-10.25-2-14.25-5.875c-4-4-5.875-8.75-5.875-14.25s2-10.25 5.875-14.25c4-4 8.75-6 14.25-6s10.25 2 14.25 6c3.875 3.875 5.875 8.625 5.875 14.25"/></g></svg>