<svg xmlns="http://www.w3.org/2000/svg" width="1280" height="344" viewBox="0 0 1280 344"><path d="M366.5 198.3H416c24.5 0 26.2 20 27.9 39.2.8 10.4 2 25.4 5.1 35.6h62c-5.6-9.3-5.9-37.8-6.8-47.7-2.3-25.1-5.9-45.6-35.9-53.6 13.3-3.5 41.9-15.8 41.9-53.9 0-38.1-44.4-49.6-71.2-49.6H304.4v204.8h62.1v-74.8zm0-88.3H412c23.7 0 32.5 10.7 32.5 23.4 0 18.1-17.5 21.7-29.1 21.7h-48.9V110zm789.4 22.6h51.6c-6.1-48.9-38-65.7-99.8-65.7-45.3 0-88.8 20-88.8 66.6 0 40.6 40.9 53.2 76.3 59.5 40.7 7.3 53.1 11.6 53.1 22 0 20.6-24.3 20.6-35.4 20.6-19.6 0-33.1-4.8-38-16.9-1.5-3.7-2.5-8.2-2.5-13.3h-62.1c.6 64.3 71.8 72.5 96.8 72.5 49 0 104-14.7 104-67.1 0-37-33.1-50.2-64.2-58.1-31.1-7.9-66.6-8.7-66.6-26 0-11.3 15.4-19.2 31.7-19.2 15.4.1 35.3.6 43.9 25.1zM67.8 68.3v204.8h61.4v-93.3l71.1 93.3h81.9l-91-116 87.6-88.8h-73.4l-76.2 77.4V68.3H67.8zm588.6 208.2c84.7 0 112.6-26.7 112.6-67.1V68.3h-61.4v124c0 28.4-21 39.8-51.2 39.8-30.1 0-51.2-11.4-51.2-39.8v-124h-61.4v141.1c0 40.4 27.9 67.1 112.6 67.1zm205.4-76.2h73.4c36.4 0 66-29.5 66-66 0-36.4-29.5-66-66-66H800.3V273h61.4v-72.7h.1zm0-92.2l52 .2c14.3 0 25.9 11.6 25.9 25.9 0 14.3-11.6 25.9-25.9 25.9h-52v-52z" fill-rule="evenodd" clip-rule="evenodd"/></svg>