<svg xmlns="http://www.w3.org/2000/svg" width="192.758" height="192.758"><g fill-rule="evenodd"><path d="M96.416.825c52.612 0 95.521 42.905 95.521 95.596 0 52.534-42.909 95.516-95.52 95.516C43.802 191.937.82 148.955.82 96.421.82 43.73 43.803.821 96.416.821" fill="#3266bc"/><path d="M96.416 12.957c45.881 0 83.385 37.504 83.385 83.464 0 45.88-37.504 83.306-83.385 83.306-45.876 0-83.38-37.425-83.38-83.306 0-45.96 37.504-83.464 83.385-83.464h-.005zM40.593 51.556l29.91 77.59 10.958-28.341h28.736l10.957 28.34 30.223-78.525a71.903 71.903 0 00-18.948-16.13L111.45 92.27H81.852L60.79 34.253c-7.748 4.463-14.56 10.333-20.197 17.303zm122.845 19.498l-34.06 88.862c22.866-11.976 38.599-35.937 38.599-63.495 0-8.926-1.565-17.461-4.539-25.367zm-48.936 94.654l-.233-1.799-18.477-47.916-18.482 47.916-.074 1.487c6.103 1.724 12.523 2.58 19.18 2.58a72.54 72.54 0 0018.086-2.268zm-52.454-6.574l-33.2-86.515c-2.66 7.436-4.071 15.426-4.071 23.802 0 26.933 15.034 50.576 37.27 62.713zM96.416 24.782c6.266 0 12.45.782 18.323 2.348L96.654 77.16 78.489 27.05a71.29 71.29 0 0117.927-2.268" fill="#fff"/></g></svg>