<svg xmlns="http://www.w3.org/2000/svg" viewBox="0 0 90.845 30.565" height="30.565" width="90.845"><defs><clipPath id="a" clipPathUnits="userSpaceOnUse"><path d="M0 22.924h68.134V0H0z"/></clipPath></defs><g clip-path="url(#a)" transform="matrix(1.33333 0 0 -1.33333 0 30.565)"><path d="M2.983 15.124c0 4.214 1.197 7.122 3.33 7.798C2.582 22.297 0 19.242 0 15.124c0-4.54 2.943-7.799 7.323-7.799 2.918 0 4.594 1.602 5.545 3.232C11.698 8.748 10.052 7.8 8.06 7.8c-3.18 0-5.077 2.675-5.077 7.324m9.467 2.736v4.862l-.812-1.05-.15.106c-.707.494-1.979 1.053-3.543 1.146 1.922-.36 3.497-2.144 4.505-5.065m43.282-2.735c0 4.312 1.244 7.085 3.46 7.798-1.604-.23-3.04-1.003-4.2-2.11-1.52-1.453-2.288-3.255-2.288-5.688 0-2.234.799-4.336 2.309-5.753 1.159-1.088 2.643-1.838 4.258-2.046-2.24.685-3.54 3.57-3.54 7.8m9.373-.001c0 4.312-1.244 7.085-3.462 7.798 1.607-.23 3.043-1.003 4.203-2.11 1.517-1.453 2.289-3.255 2.289-5.688 0-2.234-.799-4.336-2.31-5.753-1.159-1.088-2.643-1.838-4.261-2.046 2.24.685 3.541 3.57 3.541 7.8M49.386 9.057V21.19c0 .653.27 1.089.813 1.29a2.9 2.9 0 00.308.09h-4.715c.116-.028.222-.058.307-.09.543-.201.816-.637.816-1.29V9.057c0-.653-.273-1.087-.816-1.29a3.173 3.173 0 00-.307-.091h4.715c-.118.03-.222.059-.308.09-.542.204-.813.638-.813 1.29m-7.909.382c-.12.474-.212.937-.309 1.424a32.14 32.14 0 01-.43 1.923c-.605 2.41-4.502 2.34-4.502 2.34s5.301.532 5.301 4.168c0 .769-.36 3.278-5.044 3.278h-.447c1.6-.324 2.53-1.66 2.53-3.705 0-2.12-1.127-3.5-3.118-3.741 2.206-.184 2.643-2.182 2.87-4.125.32-2.533 1.18-3.676 2.97-3.676 1.506 0 2.41.72 2.737 1.979-.285-.703-.809-1.033-1.309-1.033-.432 0-1.002.204-1.249 1.168m-7.879-.381V22.57h-3.592c.116-.028.221-.058.306-.09.541-.201.816-.637.816-1.29V9.057c0-.653-.275-1.087-.816-1.29a3.146 3.146 0 00-.306-.091h4.712c-.114.03-.22.059-.304.09-.543.204-.816.638-.816 1.29M21.882 7.8c-2.693 0-4.08 1.347-4.08 4.207v9.184c0 .653.27 1.089.812 1.29.087.03.19.06.308.09h-4.714c.116-.03.222-.06.306-.09.541-.201.816-.637.816-1.29v-9.184c0-2.892 2.195-4.687 5.86-4.687 2.617 0 5.211 1.38 5.451 4.45-.245-2.398-2.068-3.97-4.759-3.97m3.153 14.771c.309-.084.613-.199.841-.357.52-.378.72-1.24.765-2.698.045 1.458.247 2.32.767 2.698.229.158.53.273.84.357zM7.137.93h-1.06l.533 1.187zm-.392 1.53H6.48L5.39.055 5.387.04h.295l.283.63H7.25l.278-.625L7.53.04h.31L6.747 2.456zM11.66.615l-.007-.006c-.215-.205-.427-.342-.764-.342-.512 0-.913.428-.913.976v.006c0 .552.392.97.913.97.188 0 .441-.039.744-.326l.007-.007.196.212-.007.006c-.209.197-.467.38-.937.38-.337 0-.646-.129-.872-.366a1.26 1.26 0 01-.343-.876v-.007C9.677.53 10.197 0 10.883 0c.48 0 .755.213.96.421l.007.007-.184.18zm2.184-.349c-.523 0-.93.43-.93.977v.006c0 .552.396.97.923.97.522 0 .932-.43.932-.976v-.008c0-.552-.398-.969-.925-.969m0 2.218c-.346 0-.66-.132-.889-.373a1.255 1.255 0 01-.34-.868v-.008c0-.329.12-.637.337-.866.226-.238.54-.369.885-.369s.661.133.888.373c.221.232.341.541.341.87v.006a1.202 1.202 0 01-1.222 1.235m2.646-.04h-.286V.041h1.63v.267H16.49zm2.4 0h-.286V.041h1.63v.267H18.89zm2.402-1.324h1.302v.265h-1.302v.796h1.455v.263h-1.742V.04h1.76v.263h-1.473zM25.75.615l-.006-.006c-.215-.205-.427-.342-.764-.342-.513 0-.915.428-.915.976v.006c0 .552.394.97.915.97.357 0 .584-.175.743-.326l.007-.007.197.212-.007.006c-.209.197-.468.38-.936.38-.338 0-.648-.129-.874-.366a1.259 1.259 0 01-.342-.876v-.007c0-.705.52-1.235 1.206-1.235.478 0 .753.213.96.421l.006.007-.184.18zm.959 1.562h.8V.041h.29v2.136h.802v.267h-1.892zM29.602.041h.287v2.403h-.287zm2.678.225a.906.906 0 00-.67.287 1.004 1.004 0 00-.263.69v.006c0 .552.398.97.925.97.521 0 .931-.43.931-.976v-.008c0-.552-.397-.969-.924-.969m0 2.218a1.21 1.21 0 01-.889-.373 1.255 1.255 0 01-.34-.868v-.008c0-.329.12-.637.337-.866A1.2 1.2 0 0132.272 0c.345 0 .66.133.89.373.218.232.34.541.34.87v.006a1.204 1.204 0 01-1.222 1.235M36.298.55L34.81 2.44l-.002.004h-.266V.04h.28v1.94L36.347.044 36.35.04h.228v2.404h-.281zm3.512.575h.743c.403 0 .624-.142.624-.4V.717c0-.258-.22-.417-.576-.417h-.792zm1.235.672c0-.26-.202-.417-.539-.417h-.697v.803h.717c.325 0 .52-.14.52-.379zm-.07-.512c.17.08.361.24.361.55v.007c0 .15-.052.281-.157.388-.143.14-.36.214-.63.214h-1.024V.041h1.07c.538 0 .873.253.873.66v.006c0 .282-.16.472-.494.578m2.295-.026l-.797 1.18-.002.005h-.349L43.12.992V.04h.291v.953l.988 1.436.01.014h-.334zm4.987.125h-1.36v1.06h-.285V.041h.286v1.072h1.359V.041h.287v2.403h-.287zm1.65-1.343h.287v2.403h-.287zm1.936 2.403h-.286V.041h1.63v.267h-1.344zm1.698-.267h.8V.041h.292v2.136h.8v.267H53.54zM57.17.266c-.523 0-.932.43-.932.977v.006c0 .552.398.97.925.97.521 0 .932-.43.932-.976v-.008c0-.552-.398-.969-.925-.969m0 2.218a1.21 1.21 0 01-.889-.373 1.255 1.255 0 01-.34-.868v-.008c0-.329.12-.637.337-.866.226-.238.54-.369.885-.369s.66.133.89.373c.218.232.34.541.34.87v.006c0 .33-.12.638-.338.866a1.2 1.2 0 01-.885.37m4.023-.041V.55l-1.486 1.89-.004.004h-.266V.041h.28v1.94L61.243.043l.003-.003h.228v2.403zm1.654-.014h.13l.19-.3.192.3h.126v-.633h-.118v.45l-.195-.304h-.012l-.196.305v-.451h-.117zm-.452-.11h-.196v.11h.513v-.11h-.196v-.523h-.121z"/></g></svg>