<svg xmlns="http://www.w3.org/2000/svg" version="1.0" width="1024" height="170" viewBox="0 0 160.565 26.681"><defs><clipPath id="c"><path d="M0 792.015h1224v-792H0v792z"/></clipPath><clipPath id="b"><path d="M0 792h1224V0H0v792z"/></clipPath><clipPath id="a"><path d="M1058.04 774.99h154.07v-51.02h-154.07v51.02z"/></clipPath></defs><g clip-path="url(#a)" transform="matrix(1.25 0 0 -1.25 -1342.68 952.414)"><g clip-path="url(#b)"><g clip-path="url(#c)"><path d="M1074.144 761.481v-20.9h20.9v20.9h-14.825v-4.325h4.375c3.24 0 5.925-2.797 5.925-5.9 0-3.102-2.484-5.975-5.925-5.975-3.44 0-5.925 2.702-5.925 6.05v10.15h-4.525zm25.175 0v-20.9h19.425c1.659 0 3.5.858 3.5 3.5v3.25c0 1.613-.595 2.718-2.075 3.525-.169.092-.23.333 0 .425.231.092 2.075.708 2.075 3.55v3.175c0 1.732-.704 3.475-3.5 3.475h-11.675v-4.975h9.475a.532.532 0 00.525-.525v-1.675c0-.292-.155-.5-.525-.5h-9.475v-5.175h9.475a.543.543 0 00.525-.525v-1.9a.512.512 0 00-.525-.525h-11.725c-.339 0-.525.172-.525.525v15.275h-4.975zm28.725 0a3.47 3.47 0 01-3.475-3.475v-13.925c0-1.924 1.552-3.5 3.475-3.5h14.225c1.924 0 3.5 1.576 3.5 3.5v13.925c0 1.923-1.576 3.475-3.5 3.475h-14.225zm23.55 0c-2.147 0-3.5-1.66-3.5-3.475v-6.075c0-2.135 1.884-3.472 3.5-3.475 1.616-.003 12.349 0 12.625 0a.533.533 0 00.525-.525v-1.725c0-.292-.111-.525-.525-.525h-10.625a.532.532 0 00-.525.525v.825h-4.975v-2.95c0-2.104 1.361-3.5 3.5-3.5h14.65c1.951 0 3.472 1.104 3.475 3.5.003 2.396-.003 4.149 0 6.05.003 1.901-1.063 3.475-3.475 3.475h-12.65a.533.533 0 00-.525.525v1.85c0 .323.172.525.525.525h10.625a.543.543 0 00.525-.525v-.725h4.975s-.003.679 0 2.75c.003 2.069-1.186 3.475-3.475 3.475h-14.65zm24.15 0c-2.147 0-3.475-1.66-3.475-3.475v-6.075c0-2.135 1.86-3.472 3.475-3.475 1.617-.003 12.373 0 12.65 0a.533.533 0 00.525-.525v-1.725c0-.292-.112-.525-.525-.525h-10.625a.533.533 0 00-.525.525v.825h-4.975v-2.95c0-2.104 1.336-3.5 3.475-3.5h14.65c1.951 0 3.497 1.104 3.5 3.5.004 2.396-.003 4.149 0 6.05.004 1.901-1.088 3.475-3.5 3.475h-12.625a.533.533 0 00-.525.525v1.85c0 .323.171.525.525.525h10.625a.543.543 0 00.525-.525v-.725h4.975s-.003.679 0 2.75c.004 2.069-1.211 3.475-3.5 3.475h-14.65zm-99.975-1.625h1.45v-8.675c0-3.502 2.74-7.25 7.225-7.25 4.484 0 7.4 3.547 7.4 7.325 0 3.779-3.116 7.275-7.325 7.275h-2.85v1.325h11.725v-17.65h-17.625v17.65zm54.3-3.35h10.2a.528.528 0 00.525-.525v-9.775a.527.527 0 00-.525-.525h-10.2a.527.527 0 00-.525.525v9.775c0 .288.237.525.525.525zm65.935 2.13a3.296 3.296 0 106.591-.001 3.296 3.296 0 00-6.591.001zm3.296-3.018a3.018 3.018 0 110 6.035 3.018 3.018 0 010-6.035zm-.984 1.042h-.533v3.945h1.824c.649 0 1.297-.225 1.297-1.06 0-.582-.297-.797-.549-.945.225-.093.45-.192.473-.742l.032-.714c.005-.22.033-.302.198-.396v-.088h-.654c-.076.242-.094.841-.094.99 0 .323-.065.703-.703.703h-1.291v-1.693zm0 2.149h1.237c.39 0 .802.099.802.681 0 .61-.445.66-.709.66h-1.33v-1.341"/></g></g></g></svg>