<svg xmlns="http://www.w3.org/2000/svg" width="131.354" height="20.94" viewBox="0 0 131.354 20.94"><path d="M105.515.544v8.023h10.881V.544h5.3v20.264h-5.3V11.83h-10.881v8.838h-5.3V.408h5.3zm-50.717 0v3.4H46.64v16.725h-5.3V3.944h-8.162v-3.4h21.62m20.805 20.125H69.62l-1.768-4.351H57.79l-1.768 4.351h-5.983L59.421.408h6.527zM62.821 3.943l-3.672 9.247h7.479c0-.136-3.807-9.247-3.807-9.247zm63.23-3.399h5.3v20.261h-5.3zM5.3.544v8.023h10.881V.544h5.3v20.264h-5.3V11.83H5.3v8.838H0V.408h5.3zm20.4 0H31v20.261h-5.3zm49.631 14.549a11.682 11.682 0 01-.68-4.351 11.617 11.617 0 011.36-5.842 9.056 9.056 0 014.623-3.807A17.307 17.307 0 0186.617 0a18.936 18.936 0 016.8 1.36 6.549 6.549 0 013.807 4.623 3.765 3.765 0 01.136 1.224h-5.576a4.888 4.888 0 00-.272-1.5A3.762 3.762 0 0089.065 3.4a6.352 6.352 0 00-2.314-.409 7.917 7.917 0 00-2.584.408 4.788 4.788 0 00-2.856 2.991 14.4 14.4 0 00-.68 4.215 14.783 14.783 0 00.544 3.535 4.428 4.428 0 002.856 3.127 10.591 10.591 0 002.856.544 7.7 7.7 0 002.448-.408 3.48 3.48 0 002.312-2.04 5.637 5.637 0 00.408-2.176h5.576a8.025 8.025 0 01-.272 1.9 6.655 6.655 0 01-3.808 4.494 17.06 17.06 0 01-6.935 1.36 18.172 18.172 0 01-5.439-.816 8.087 8.087 0 01-5.847-5.031" fill="#231916"/></svg>