<svg xmlns="http://www.w3.org/2000/svg" width="157.9" height="46.4" viewBox="0 0 157.9 46.4"><path d="M157.7 19v3.3h-7.1s.9-4.7-2.1-4.7-4-.5-4.9.4c-.9.9-1.3.1-1.3 3.5v16c0 2.6 3.5 2.6 3.5 2.6v5.5h-12.2V41l1.9-1.9V18.8h-2.7v-7.5s10.6.1 17.5.1 7.4 5.6 7.4 7.6zm-26.1 20.6v6h-19.5c-2.6 0-6.6-2-6.6-7.3v-5.8c0-1.7 1-6.9 6.5-6.9h7.3c1.4 0 2.2-1.7 2.2-3.2 0-1.6.3-4.8-3.6-4.8H106v-6h14.9c4 0 7.7 1.8 7.7 7.7 0 3.8.1 20.4.1 20.4l2.9-.1zm-9.8-1.2V34c0-1.6-.6-2.7-2.1-2.7h-4.9c-1.6 0-2.6.9-2.6 1.6v4.5c0 2.2.9 3.4 2.3 3.4h5.1c2-.1 2.2-1.5 2.2-2.4zm-18 1.3v5.8h-5.6c-2.6 0-6.6-1.2-6.6-8.6V17.3h5.3v17.5c0 2.6.8 4.5 2.6 4.5 1.9.2 4.3.4 4.3.4zM102 11.5v5.8h-5.1v-5.8h5.1zm-5.1 0v5.8h-5.3v-5.8h5.3z"/><path d="M96.9.3v11.3h-5.3V.3h5.3zm-5.3 11.2v5.8h-4.8v-5.8h4.8zM87 40v6.1H75V40h2.4V18h-3.2v-6.1h10.1V40zM75.9 1H84v6.4h-8.1zm-3.7 10.2v6.2h-2.1l-5.6 28.4h-8.3l-7.9-28.4h-2.5v-6.1h7l6.5 27.4h.8l5.3-27.5zM47.6 39.5v6h-12v-6H38V17.4h-3.2v-6.1h10.1v28.2zM36.5.4h8v6.4h-8zm-2-.1v6.3h-2.2l-7.8 38.9H13.8L4 6.6H.3V.4h9.6l8.4 34.1h1L26.2.3z"/></svg>