<svg xmlns="http://www.w3.org/2000/svg" width="927.4" height="114.5" viewBox="0 0 927.4 114.5"><path d="M7.038 8.21h73.8c25.7 0 31.9 14.3 31.9 33.6v8.5c0 14.5-5.7 31.4-24.9 31.4h-53.7v24.6h-27V8.21zm27.1 49.1h42.2c6.2 0 8.6-4.6 8.6-10.4v-3.7c0-6.7-2.9-10.4-11.1-10.4h-39.7v24.5m93-49.1h81.8c20.9 0 26.4 11.6 26.4 29.2v6.2c0 13.2-2.6 20.9-15.2 24.1v.3c8.1 1.6 14.8 5.5 14.8 21.7v16.6h-27v-11.7c0-10.4-2.8-13.7-11.1-13.7h-42.7v25.4h-27V8.21zm27.1 48.2h44.8c7.3 0 9.9-3.3 9.9-10.3v-3.3c0-8.6-3.9-10.3-12.4-10.3h-42.4v23.9m138.4-48.2h35.2l48.6 98.1h-30.2l-8.3-17.4h-54.9l-8 17.4h-30.1l47.7-98.1zm.5 59.6h34.7l-17.6-36.8-17.1 36.8m92.7-59.6h27v36h12.7l34.1-36h36.8l-47.7 47.9 53.4 50.2h-38.3l-39.1-37.6h-11.9v37.6h-27V8.21m119.7 0h103.1v24.4h-38.1v73.6h-27v-73.6h-38V8.21m116.2 0h27v98.1h-27V8.21zm44.6 34.4c0-28.7 14.5-35.5 38.8-35.5h31.8c38.6 0 43.7 9.3 43.3 37h-27v-2.6c0-7.2-4.6-9.1-12.7-9.1h-29.5c-14.3 0-16.9 7.5-16.9 19.6v10.6c0 14.3 2.6 19.7 15.5 19.7h28.8c12.2 0 16-1.3 16-13.5h27v9.1c0 16.6-5.4 29.7-32.6 29.7h-43.7c-24.3 0-38.8-6.8-38.8-35.5v-29.5m170.3-34.4h35.2l48.6 98.1h-30.2l-8.3-17.4h-54.9l-8 17.4h-30.1l47.7-98.1zm.5 59.6h34.5l-17.4-36.8-17.1 36.8" fill="#01267E"/></svg>