<svg xmlns="http://www.w3.org/2000/svg" width="400" height="190"><g fill-rule="evenodd" stroke-width="0" stroke-miterlimit="2.613"><path d="M327.98 134.308c34.25 0 62.02-27.762 62.02-62.01 0-34.25-27.77-62.02-62.02-62.02H72.02c-34.258 0-62.02 27.77-62.02 62.02 0 34.248 27.762 62.01 62.019 62.01z" fill="#00539b"/><path d="M327.027 126.883c30.119 0 54.536-24.408 54.536-54.536 0-30.117-24.417-54.534-54.536-54.534H72.745c-30.118 0-54.536 24.417-54.536 54.534 0 30.128 24.418 54.536 54.536 54.536z" fill="#fff"/><path d="M327.306 115.38c23.81 0 43.107-19.299 43.107-43.1 0-23.81-19.297-43.107-43.107-43.107H73.142c-23.81 0-43.108 19.297-43.108 43.107 0 23.801 19.299 43.1 43.108 43.1z" fill="#00539b"/><path d="M72.187 53.835h1.233c3.421 0 4.477 1.232 4.477 4.89v19.036c0 3.658-1.056 4.89-4.477 4.89h-1.233zM54.451 42.812v8.962c1.824.768 1.942 2.238 2.002 4.002v24.577c-.06 1.709-.237 3.246-2.002 4.005v8.962h22.272c4.772 0 9.248-.296 12.846-3.717 3.835-3.589 4.071-7.425 4.071-12.374V58.31c0-4.83-.414-9.425-4.544-12.668-3.59-2.77-8.547-2.83-12.846-2.83zm62.466 26.46h-5.422v-1.41c0-1.476.228-3.774 2.711-3.774 2.475 0 2.711 2.298 2.711 3.775zM97.584 79.763c0 4.476.178 8.608 4.063 11.494 3.066 2.299 8.784 3.244 14.442 2.83 5.718-.412 11.436-2.118 14.494-4.771v-9.317H116.68v1.36c0 1.883-.178 4.063-2.593 4.063-2.424 0-2.652-2.416-2.593-4.249v-3.412h19.088v-8.783c.236-9.072-3.125-13.606-16.79-13.548-13.024.052-16.445 4.121-16.209 14.258zm36.183 13.557v-8.962c1.892-1.174 1.714-3.057 1.714-4.95V56.724c0-1.883.178-3.775-1.714-4.949v-8.962h19.155v8.962c-1.883 1.174-1.706 3.066-1.706 4.95v25.87h1.529c4.003 0 3.944-2.418 3.944-5.6V68.8h13.851v24.52zm54.282-23.69c0-2.064-.355-5.542 2.652-5.542 2.998 0 2.593 3.539 2.593 5.541v10.724c0 2.003.169 5.069-2.652 5.069-2.77 0-2.593-3.066-2.593-5.069zm19.147-.12c0-4.713-.296-9.198-4.772-11.9-3.243-1.892-8.902-2.18-12.67-2.18-4.18 0-8.724.346-12.085 3-3.471 2.71-3.53 7.076-3.53 11.08v9.663c0 4.889 0 9.433 4.535 12.432 3.243 2.186 8.665 2.483 12.492 2.483 4.248 0 9.197-.355 12.559-3.244 3.352-2.888 3.47-7.541 3.47-11.671zm18.622-11.022c3.776-2.534 7.07-3.177 10.018-3.058 2.888.11 5.422 1.055 6.832 2.467 2.543 2.415 2.83 5.135 2.83 8.312v13.909c0 1.825-.168 3.885 1.657 4.89v8.312h-14.79c-.828-3.775-.77-7.721-.77-11.546V70.929c0-.236.178-1.95-.412-3.302-.947-1.418-2.476-2.476-4.772-1.418v13.909c0 1.825-.177 3.885 1.706 4.89v8.312h-17.323v-8.311c1.824-1.056 1.706-2.77 1.706-4.656V69.095c0-2 .06-3.301-1.706-4.594v-8.31h15.024zm44.316 24.4c-.71.415-1.706.65-2.473.65-2.83 0-2.83-3.243-2.83-5.245v-8.192c0-2.12 0-4.595 2.771-4.595.887 0 1.823.288 2.532.761zm15.617-26.697H270.49v2.12c-2.651-2.003-5.894-2.88-9.196-2.88-8.303 0-10.363 5.059-10.363 13.132v13.97c0 8.134 4.002 11.555 11.02 11.555 2.645 0 5.71-.829 8.184-2.712v2.357c0 2.119.355 5.777-2.71 5.777-1.115 0-1.766-.592-2.179-1.418-.354-.82-.415-1.883-.415-2.711h-12.903v8.901c5.42 2.999 10.084 3.944 16.265 3.944 4.24 0 9.603-.532 12.788-3.648 3.243-3.126 3.065-8.785 3.065-12.973v-22.51c0-1.883-.118-3.479 1.706-4.594zm19.451 1.654c3.185-1.891 6.478-2.534 9.427-2.415 2.887.11 5.42 1.055 6.841 2.467 2.532 2.415 2.828 5.135 2.828 8.312v13.909c0 1.825-.177 3.885 1.648 4.89v8.312h-14.79c-.827-3.775-.767-7.721-.767-11.546V70.929c0-.236.178-1.95-.415-3.302-.936-1.418-2.473-2.476-4.772-1.418v13.909c0 1.825-.177 3.885 1.706 4.89v8.312h-17.32v-8.311c1.822-1.056 1.705-2.77 1.705-4.656V56.014c.058-1.883.177-3.894-1.766-4.89v-8.312h15.675zm39.721 22.273c0 1.883-.177 3.775 1.767 4.89v8.312h-17.382v-8.311c1.823-1.116 1.706-2.77 1.706-4.656V69.391c0-1.883.177-3.775-1.706-4.89v-8.31h15.615zm-15.033-32.12c0-4.003 4.13-5.66 7.55-5.66 3.472 0 7.483 1.892 7.483 5.897 0 3.885-3.952 5.719-7.373 5.719-3.647 0-7.66-1.767-7.66-5.955zm-230.524.49h29.967v2.592H99.366z" fill="#fff"/><path d="M358.041 152.28c.75 1.351.608 3.446-.145 5.998l-4.653 13.496h-3.598l4.054-11.85.896-2.695c.151-.904.304-1.647.151-2.101-.151-.448-.448-.898-.904-1.05-.447-.295-1.046-.447-1.941-.447-.904 0-1.953.297-3 .753-1.054.447-2.103 1.046-3.301 1.799l-5.245 15.591h-3.598l7.195-20.845h3.447l-.752 2.246c1.35-.895 2.702-1.647 3.902-2.095 1.047-.448 2.247-.75 3.447-.75 1.95 0 3.301.599 4.045 1.95zm-35.382 17.094c1.944 0 3.598-.599 4.943-1.95 1.352-1.352 2.55-3.447 3.607-6.15.895-2.694 1.046-4.644.447-5.995-.447-1.351-1.647-1.95-3.446-1.95-1.953 0-3.607.599-4.95 1.95-1.504 1.351-2.702 3.301-3.597 5.996-.904 2.702-1.058 4.655-.456 5.997.456 1.352 1.654 2.102 3.452 2.102zm12.29-16.199c1.055 1.953 1.055 4.655-.142 8.1-1.2 3.597-3 6.3-5.4 8.253-2.252 1.941-4.949 2.845-7.803 2.845-2.845 0-4.797-1.047-5.844-2.999-1.046-1.95-.904-4.644.296-8.1 1.207-3.444 3.006-6.146 5.406-8.099 2.246-1.942 4.94-2.845 7.794-2.845 2.848 0 4.647.903 5.693 2.845zm-20.988-2.246l-7.196 20.845h-3.446l7.044-20.845zm1.351-3.598h-4.054l1.352-3.598h3.902zm-19.494 3.598l2.096-6.15h3.455l-1.953 6.15h6.446l-1.049 2.854h-6.443l-3.455 9.892-.742 2.549-.153 1.647c.153.457.296.753.743.904a5.639 5.639 0 001.808.296l1.799-.145 1.342-.456h.152l-1.047 3.15-2.246.457-1.808.145c-1.941 0-3.293-.602-4.045-1.648-.753-1.046-.599-2.845.151-5.245l4.046-11.546h-2.398l.904-2.854zm-20.691 10.802c-1.047.296-1.95.744-2.703 1.342-.753.602-1.352 1.352-1.8 2.4-.447 1.198-.295 2.102.152 2.703.448.6 1.2.895 2.552.895 1.046 0 2.246-.145 3.293-.6a16.278 16.278 0 003.15-1.8l1.952-5.844-3.303.296zm10.947-9.754c.447.454.75 1.198.895 2.102 0 1.049-.145 2.104-.601 3.446l-4.798 14.249h-3.598l.752-2.246-1.351.895-1.799.903-2.104.75-2.54.297a6.108 6.108 0 01-2.255-.448c-.601-.305-1.049-.752-1.497-1.351-.447-.599-.598-1.351-.598-2.104-.152-.895 0-1.799.296-2.694a8.644 8.644 0 012.255-3.749c.895-1.047 2.093-1.799 3.74-2.398 1.352-.6 2.854-1.049 4.502-1.2l5.254-.447.294-.6c.296-.752.45-1.504.296-1.952-.142-.599-.296-1.046-.59-1.2-.456-.302-.904-.447-1.505-.599l-1.95-.151-2.999.303-3.598 1.048h-.303l1.198-3.446 3.008-.753 3.74-.302 3.607.302c.897.297 1.647.753 2.249 1.345zm-16.496-1.048l-14.992 20.845h-3.15l-.753-20.845h3.903l.143 16.047 11.252-16.047zm-37.483 18.445c1.942 0 3.598-.599 4.94-1.95 1.352-1.352 2.552-3.447 3.599-6.15.903-2.694 1.055-4.644.456-5.995-.456-1.351-1.656-1.95-3.455-1.95-1.942 0-3.598.599-4.95 1.95-1.494 1.351-2.694 3.301-3.597 5.996-.895 2.702-1.047 4.655-.448 5.997.448 1.352 1.648 2.102 3.455 2.102zm12.288-16.199c1.057 1.953 1.057 4.655-.143 8.1-1.2 3.597-3.007 6.3-5.405 8.253-2.247 1.941-4.94 2.845-7.797 2.845-2.845 0-4.796-1.047-5.844-2.999-1.047-1.95-.904-4.644.296-8.1 1.2-3.444 2.999-6.146 5.397-8.099 2.255-1.942 4.949-2.845 7.803-2.845 2.847 0 4.646.903 5.693 2.845zm-22.939-.895c.753 1.351.6 3.446-.15 5.998l-4.647 13.496h-3.598l4.045-11.85.904-2.695c.145-.904.296-1.647.145-2.101-.145-.448-.448-.898-.898-1.05-.447-.295-1.046-.447-1.95-.447-.895 0-1.95.297-2.999.753-1.046.447-2.093 1.046-3.293 1.799l-5.253 15.591h-3.598l7.196-20.845h3.454l-.752 2.246c1.351-.895 2.694-1.647 3.894-2.095 1.055-.448 2.255-.75 3.455-.75 1.942 0 3.293.599 4.045 1.95zm-23.387 0c.744 1.351.592 3.446-.152 5.998l-4.653 13.496h-3.598l4.054-11.85.895-2.695c.152-.904.304-1.647.152-2.101-.152-.448-.448-.898-.904-1.05-.447-.295-1.047-.447-1.942-.447-.904 0-1.951.297-2.999.753-1.055.447-2.103 1.046-3.302 1.799l-5.253 15.591h-3.598l7.204-20.845h3.446l-.752 2.246c1.352-.895 2.703-1.647 3.902-2.095 1.048-.448 2.247-.75 3.446-.75 1.951 0 3.303.599 4.054 1.95zm-21.3-1.351l-7.196 20.845h-3.446l7.044-20.845zm1.351-3.598h-4.046l1.352-3.598h3.893zm-43.336 13.792c-.743 2.255-1.047 4.054-.6 5.254.456 1.198 1.504 1.8 3.15 1.8a7.64 7.64 0 002.999-.602c1.056-.303 2.103-.75 3.15-1.503l3.902-11.392c-.751-.45-1.351-.752-2.103-.897l-2.094-.303c-1.8 0-3.455.599-4.95 1.95-1.503 1.352-2.702 3.15-3.454 5.693zm17.398-10.194l-6.3 18.445c-1.2 3.598-2.847 6.15-4.95 7.797-2.094 1.647-4.797 2.551-7.947 2.551l-3.142-.305-2.703-.599 1.2-3.598h.295l2.255.75 1.647.448 1.8.154c1.047 0 2.102-.154 2.854-.45a8.12 8.12 0 002.247-1.198c.6-.447 1.047-1.048 1.351-1.799.448-.6.743-1.351 1.047-2.255l.6-1.799c-1.2.75-2.247 1.352-3.302 1.8-1.048.455-2.4.598-3.75.598-2.247 0-3.894-.895-4.646-2.694-.895-1.799-.751-4.35.448-7.652.6-1.647 1.351-3.293 2.255-4.644l3.142-3.447c1.056-.903 2.255-1.504 3.454-1.952 1.352-.448 2.55-.75 3.598-.75l2.695.302 2.102 1.2.448-.903zm-25.194 1.35c.752 1.352.6 3.447-.152 5.999l-4.645 13.496h-3.598l4.046-11.85.903-2.695c.152-.904.296-1.647.152-2.101-.152-.448-.456-.898-.903-1.05-.448-.295-1.048-.447-1.951-.447-.896 0-1.943.297-2.999.753-1.047.447-2.094 1.046-3.294 1.799l-5.253 15.591h-3.598l7.196-20.845h3.454l-.751 2.246c1.351-.895 2.702-1.647 3.902-2.095 1.047-.448 2.246-.75 3.446-.75 1.95 0 3.294.599 4.045 1.95zm-21.292-1.35l-7.196 20.845h-3.446l7.044-20.845zm1.351-3.598h-4.045l1.351-3.598h3.894zm-9.594 3.598l-15 20.845h-3.142l-.752-20.845h3.894l.152 16.047 11.25-16.047zm-23.539 0l-7.204 20.845h-3.446l7.044-20.845zm1.343-3.598h-4.046l1.352-3.598h3.893zm-15.591 21.14l-1.048 3.303H42.407l9.451-27.89h3.75l-8.404 24.586z" fill="#00539b"/></g></svg>