<svg xmlns="http://www.w3.org/2000/svg" width="200" height="36.1" viewBox="0 0 200 36.1"><path d="M78.901 17.957c0 6.707 4.963 11.67 13.28 11.67 3.488 0 6.841-.536 10.195-2.146l3.085 4.292c-4.293 2.28-8.451 3.488-14.756 3.488-13.145 0-22.937-6.305-22.937-17.17 0-10.73 9.658-17.17 22.937-17.17 6.305 0 9.927.94 14.353 2.817l-3.219 4.83c-3.353-1.744-6.304-2.147-9.792-2.147-8.183-.134-13.146 4.83-13.146 11.536M129.203.787c-12.743 0-21.998 6.305-21.998 17.17 0 10.731 9.255 17.17 21.998 17.17 12.744 0 22-6.305 22-17.17 0-10.731-9.122-17.17-22-17.17m0 28.974c-6.975 0-10.865-5.231-10.865-11.804s3.89-11.804 10.865-11.804c6.976 0 10.866 5.231 10.866 11.804s-3.756 11.804-10.866 11.804m55.266-9.389v13.816h10.597V1.592h-10.597v12.475h-16.097V1.592h-10.597v32.596h10.597V20.372h16.097zM50.33 34.188h11.133V1.592H50.33v32.596zM18.405 16.616V19.7c5.23 4.024 10.597 9.39 14.487 14.487h12.474c-4.292-5.097-10.999-11.134-15.828-14.219 5.768-.268 12.207-2.548 12.207-9.121 0-8.451-8.988-10.06-18.11-10.06-7.51 0-14.352.402-18.51.67v32.73h10.328V6.42c1.878-.268 4.025-.402 8.183-.402 5.366 0 8.048 1.744 8.048 4.829-.134 2.682-1.207 5.902-13.28 5.768" fill="#D7063B"/></svg>