<svg xmlns="http://www.w3.org/2000/svg" width="470" height="80" viewBox="0 0 470 80"><g fill="#1C2F5E"><path d="M10 68.475V28.39l23.432 40.085H10"/><path fill-rule="evenodd" clip-rule="evenodd" d="M174.982 12.46h28.172c14.273 0 36.087 9.762 36.087 26.559v2.328c0 2.376-1.464 7.849-3.025 10.481-6.729 11.255-20.257 14.45-20.257 14.45s-5.378 2.196-8.965 2.196h-32.012V12.46m21.188 14.673v26.565h3.96c8.146 0 16.996-4.711 16.996-12.351v-2.095c0-8.316-10.504-12.12-17.929-12.12h-3.027z"/><path d="M245.763 12.46h20.749l.009 56.015-20.758-.036V12.46"/><path fill-rule="evenodd" clip-rule="evenodd" d="M359.748 12.46h19.815l31.931 30.789h.236V12.46h20.741v55.974h-19.579l-20.041-18.426h.226l-12.353-12.124h-.236v30.55h-20.74V12.46"/><path d="M165.819 26.96H144.14v6.3h20.513v14.456H144.14v6.3h21.679v14.459h-42.658V12.497h42.658V26.96M19.031 12.474H46.77l15.614 26.358c1.493-1.495 10.727-13.529 10.727-13.529 9.508-11.033 9.043-12.83 10.722-12.83h31.698l-.032 56.001H89.642l.018-22.41c-.47.138-18.775 22.41-18.775 22.41H53.523l-34.492-56"/><path fill-rule="evenodd" clip-rule="evenodd" d="M272.603 40.482c0-16.299 18.081-29.52 40.382-29.52 22.302 0 40.383 13.22 40.383 29.52 0 16.301-18.081 29.517-40.383 29.517-22.301.001-40.382-13.215-40.382-29.517m22.727 0c0 7.443 8.16 13.479 18.218 13.479 10.057 0 18.207-6.036 18.207-13.479 0-7.45-8.15-13.486-18.207-13.486-10.058.001-18.218 6.037-18.218 13.486zM453.065 16.15c0 .985-.636 1.489-2.088 1.489h-.635v-3.141h.635c1.453 0 2.088.572 2.088 1.652m2.061 7.461l-3.204-4.915c1.716-.177 2.532-1.257 2.532-2.528 0-1.58-1.062-2.832-3.431-2.832h-2.016v10.275h1.335V18.8h.172l3.014 4.811h1.598zm3.821-5.001c0 4.166-3.386 7.543-7.552 7.543s-7.552-3.377-7.552-7.543a7.552 7.552 0 0115.104 0zm1.053 0c0-4.747-3.866-8.609-8.604-8.609s-8.596 3.862-8.596 8.609c0 4.738 3.857 8.6 8.596 8.6S460 23.348 460 18.61z"/></g></svg>