<svg xmlns="http://www.w3.org/2000/svg" width="220" height="199" viewBox="0 0 220 199"><g fill-rule="evenodd" clip-rule="evenodd"><path fill="#FDB827" d="M203.9 184.1V14.6H16.8v169.5h187.1z"/><path fill="#ED1B2E" stroke="#ED1B2E" stroke-width=".216" stroke-miterlimit="2.613" d="M53.3 99.5c0 1.6.1 3.4 2.4 6.8s34.6 48.4 34.6 48.4c1.7 2.3 2.4 7-3.2 7-.6 0-31.5-.2-38.4 0-.8 0-2-.1-3.2-.6-1.7-.7-3.3-1.9-4.4-3.5-.9-1.4-1.8-2.9-1.8-5.6h0V47.1h0c.1-2.7.9-4.1 1.8-5.6 1.1-1.6 2.7-2.9 4.4-3.5 1.2-.5 2.4-.6 3.2-.6 6.9.1 37.8 0 38.4 0 5.6 0 4.9 4.7 3.2 7 0 0-32.3 45.1-34.6 48.4-2.4 3.3-2.4 5.1-2.4 6.7h0z"/><path fill="#ED1B2E" stroke="#ED1B2E" stroke-width=".216" stroke-miterlimit="2.613" d="M181.5 148.4c0 13.9-12.4 13.2-12.4 13.2h0-39.3 0c-4.8-.2-7.2-3.3-9.8-5.4-9.1-7.6-61.6-53.1-63.1-54.4-1.4-1.3-1.5-1.6-1.5-2.3 0-.8.1-1 1.5-2.4 1.4-1.3 53.9-46.8 63.1-54.4 2.6-2.2 5-5.2 9.8-5.4h39.3s12.4-.7 12.4 13.2h0v97.9h0z"/><path fill="#FDB827" stroke="#FDB827" stroke-width=".216" stroke-miterlimit="2.613" d="M75.4 88.6H82v9.2l7.1-9.2h7.1l-7.5 10.7 8.1 12.9h-7.7L82 101v11.2h-6.6V88.6h0z"/><path fill="#FDB827" stroke="#FDB827" stroke-width=".216" stroke-miterlimit="2.613" d="M104.4 94.1c6 0 9.2 3.4 9.2 9.4s-3.3 9.4-9.2 9.4c-6 0-9.3-3.4-9.3-9.4s3.3-9.4 9.3-9.4h0zm-.1 14.6c2.2 0 3-1.7 3-5.2 0-3.6-.8-5.3-3-5.3-2.1 0-2.9 1.7-2.9 5.3 0 3.5.8 5.2 2.9 5.2h0zm22.9 2.8c-1.3 1-3.4 1.2-5.8 1.2-4.3 0-6.9-3.2-6.9-8.9 0-5.8 2.6-8.7 7.2-9.1 2.9-.3 4.7.4 5.2.9h0v-7h5.8v23.6h0-4.9l-.6-.7h0zm-3.3-2.6c1.9 0 3.2-1.9 3.2-5.3s-1.3-5.3-3.4-5.3c-2 0-3 1.8-3 5.3 0 3.6 1 5.3 3.2 5.3h0zm21.7 1.9c-.7.4-2.1 1.9-5.9 1.9-3.6.1-5.8-2.2-5.8-5.3 0-3.7 3.4-5.4 6.2-5.9.6-.1 4.6-.9 5.3-1.2 0 0 .1-2.3-2.7-2.3-2.3 0-2.4 2-2.4 2.1h0-4.6 0v-5.5h10c5.3 0 5.8 2.9 5.8 5.9h0v8.1h0c0 1.3 0 2.5.2 3.7h0-5.7 0c-.1-.5-.3-1.1-.4-1.5h0zm-1.1-7c-3.2.2-4.8 1.3-4.6 3.1.1 1.3 1.2 2.2 2.7 2.1 2.1-.1 3.1-1.6 2.9-4.4 0-.2 0-.5-.1-.8h-.9 0zm8.5-15.2h6.3v12l4.6-5.6h6.1l-5.6 6.9 6.2 10.3H164l-4.7-7.8v7.8H153V88.6h0z"/></g></svg>