<svg xmlns="http://www.w3.org/2000/svg" width="892.913" height="154.134"><defs><clipPath id="b"><path d="M0 0h595.276v283.465H0V0z"/></clipPath><clipPath id="a"><path d="M0 0h595.276v283.465H0V0z"/></clipPath></defs><path d="M188.672 77.072c0-3.473.246-6.894.709-10.234h145.687c.473 3.34.71 6.761.71 10.234 0 40.617-32.932 73.548-73.548 73.548-40.627 0-73.558-32.931-73.558-73.548m6.463-30.208c11.538-25.554 37.236-43.35 67.095-43.35s55.556 17.796 67.074 43.35h-134.17z" fill="#e53138"/><path d="M122.338 66.905c5.528 0 10.008-4.5 10.008-10.028 0-5.364-4.192-9.74-9.494-10.008H28.94L39.82 7.136h87.79c27.485 0 49.77 22.286 49.77 49.782 0 27.485-22.285 49.771-49.77 49.771H91.215l-15.402.062c-4.275.103-8.138 2.764-9.895 6.525l-.966 3.483-7.932 29.632H12.16c-5.24-.267-9.042-4.634-8.58-9.966l19.01-69.643 99.748.123zM377.047 7.138h56.101l-11.004 39.733h-55.957l10.86-39.733z"/><g clip-path="url(#a)" transform="matrix(10.27487 0 0 -10.27487 -142.082 410.195)"><path d="M59.453 29.94a.982.982 0 00.98-.97l-1.064-3.295h-11.51a.874.874 0 00-.84.965l1.893 6.778h5.447l-.68-2.504a.877.877 0 01.887-.973h4.887v-.001z"/></g><path d="M586.692 7.138h46.39l6.073 39.733h-83.144l30.68-39.733z"/><g clip-path="url(#b)" transform="matrix(10.27487 0 0 -10.27487 -142.082 410.195)"><path d="M76.352 33.417l1.167-7.743h-5.463l-.46 3.16a.98.98 0 01-.92.716h-1.025c-.377 0-.726-.182-.956-.464l-2.628-3.412-3.956.001a.875.875 0 00-.864.971l5.22 6.771h9.885zm14.105-.007a.977.977 0 01.052 1.95h-9.14l1.059 3.868h8.544a4.845 4.845 0 002.2-9.162l1.388-4.391h-5.464l-1.041 3.159a.98.98 0 01-.782.704l-1.341-.005a1.106 1.106 0 01-.209-.026l-.601-.368a1.098 1.098 0 01-.155-.241l-.093-.34-.772-2.883h-4.367a.873.873 0 00-.833.97l1.85 6.778 9.705-.012zm7.898-6.024v.652h.527c.226 0 .46-.034.46-.322 0-.373-.383-.33-.644-.33h-.343zm.652-.178c.327.008.579.144.579.505 0 .304-.164.486-.652.486h-.805v-1.84h.226v.85h.414l.526-.85h.269l-.557.85zm-.264-1.362c-.805 0-1.393.626-1.393 1.436 0 .8.588 1.426 1.393 1.426.8 0 1.382-.626 1.382-1.426 0-.81-.582-1.436-1.382-1.436m0-.218c.908 0 1.643.74 1.643 1.654 0 .904-.735 1.644-1.643 1.644a1.65 1.65 0 01-1.654-1.644c0-.914.739-1.654 1.654-1.654"/></g></svg>