<svg xmlns="http://www.w3.org/2000/svg" width="283.4" height="112.3" viewBox="0 0 283.4 112.3"><path d="M47.1 1.3L53 .6l8.2 22.2-7.3 2.5C51 17.6 41.6 8.6 34.6 8.6c-5.8 0-10.8 4-13.8 8.1s-2.9 10.8-2.9 16.5c0 6 1.2 11.9 4.4 15.6 3.1 3.7 7.3 6.9 12.1 6.9 4 0 10.1-2.4 13.1-5.2 3-2.8 5.8-4.5 6.9-9.4l8.2 4c-5.6 13.4-14 19.4-29.1 19.4-10.6 0-18.6-3-24-8.9C4.1 49.6 0 42.5 0 33.4 0 27 .4 20.8 3.2 16 6 11.1 10.6 6.3 15.3 3.9 20 1.4 26.4 0 32.1 0c7 0 12.2 2.4 17 6.2l-2-4.9zM100.5.2C110.9.2 119 3.3 125 9.6c6 6.2 8.9 13.8 8.9 22.8s-3 16.6-9 22.8c-6 6.2-14.1 9.3-24.5 9.3-10.8 0-19-3.2-24.8-9.6-5.8-6.4-8.7-13.9-8.7-22.6 0-8.9 3-16.5 8.9-22.8C81.9 3.3 90.1.2 100.5.2zm0 9.2c-4.6 0-8.5 2-11.7 6-3.2 4-4.8 9.8-4.8 17.6 0 6.8 1.6 12.3 4.8 16.4 3.2 4.1 7.1 6.1 11.8 6.1 4.6 0 8.5-2 11.8-6 3.2-4 4.8-9.8 4.8-17.3 0-6.8-1.5-12.2-4.6-16.4-3.2-4.3-7.2-6.4-12.1-6.4zm38.4 54.3v-8.1c5.3-.1 7.2-2.4 7.2-2.4V11.9s-2.6-2.6-7.2-2.6v-8h30.8c6.8 0 11.9.4 15.2 1.1 3.3.7 6.2 2.5 8.6 5.3 2.4 2.8 3.6 6.1 3.6 9.9 0 6.1-3.2 10.4-9.5 12.9 8.1 2.8 12.1 7.8 12.1 14.9 0 4.1-1.3 7.7-3.8 10.6-2.5 2.9-5.7 4.9-9.7 6-4 1.1-9.5 1.6-16.6 1.6h-30.7zm23.4-38.4h6.3c4.4 0 7.6-.6 9.6-1.7 2.1-1.2 3.1-3.2 3.1-6.1 0-2.7-1-4.5-3-5.6-2-1.1-5.5-1.6-10.4-1.6h-5.5v15zm0 29.2h6.3c5.7 0 9.6-.7 11.9-2.1 2.2-1.4 3.4-3.9 3.4-7.5 0-3.8-1.2-6.4-3.6-7.9-2.4-1.5-6.3-2.3-11.6-2.3h-6.3v19.8zm54.6 9.2v-7.6s8-.6 8-2.9V36.3s-13.1-21-16.6-24.6c-3.5-3.6-7.8-2.9-7.8-2.9V1.1h34.8V9s-8.7-.1-7 2.8c1.7 2.9 8.7 15.7 8.7 15.7s7.8-13.1 9.4-15.7c1.6-2.6-6.5-3.2-6.5-3.2V1.2h28.2v7.6s-8.2.3-9.9 3c-1.7 2.6-16.6 24.5-16.6 24.5s-.1 15.2 0 16.9c.1 1.7 8.9 2.6 8.9 2.6v8h-33.6zM2 90.9V77.4h1.9V91H2zm5.5 0V81h1.8v1.9c.5-.7 1-1.2 1.6-1.6.6-.4 1.2-.5 1.9-.5.8 0 1.5.3 2.1.8.5.5.8 1.3.8 2.2V91h-1.8v-6.6c0-.7-.1-1.1-.2-1.4-.1-.2-.3-.4-.5-.5-.2-.1-.5-.2-.7-.2-.4 0-.9.1-1.4.4-.5.3-1.1.9-1.7 1.8V91H7.5zm11.7 0V81H21v1.9c.5-.7 1-1.2 1.6-1.6.6-.4 1.2-.5 1.9-.5.8 0 1.5.3 2.1.8.5.5.8 1.3.8 2.2V91h-1.8v-6.6c0-.7-.1-1.1-.2-1.4-.1-.2-.3-.4-.5-.5-.2-.1-.5-.2-.7-.2-.4 0-.9.1-1.4.4-.5.3-1.1.9-1.7 1.8V91h-1.9zm15.6.3c-.9 0-1.8-.2-2.5-.6-.7-.4-1.3-1-1.7-1.8-.4-.9-.6-1.8-.6-2.8 0-1 .2-1.9.6-2.7.4-.8.9-1.5 1.6-1.9.7-.4 1.6-.6 2.6-.6.9 0 1.8.2 2.5.6.7.4 1.3 1 1.7 1.8.4.8.6 1.8.6 2.8 0 1-.2 1.9-.6 2.7-.4.8-.9 1.5-1.6 1.9-.8.4-1.6.6-2.6.6zm0-1.4c.9 0 1.6-.3 2.1-1s.7-1.6.7-2.9c0-1.2-.2-2.2-.7-2.9-.5-.7-1.2-1-2.1-1-.9 0-1.6.3-2.1 1-.5.8-.7 1.7-.7 3 0 1.2.2 2.2.7 2.9.5.6 1.2.9 2.1.9zm9.6 1.1l-3.7-10h1.8l2.9 7.8 3.1-7.8h1.7l-3.9 10h-1.9zm12.9-1.2c-.5.5-1.1.9-1.6 1.1-.5.2-1 .4-1.6.4-.7 0-1.4-.2-2-.7-.6-.5-.9-1.1-.9-2 0-1 .4-1.8 1.3-2.4.9-.6 2.2-1 4.1-1h.4v-1.2c0-.5-.1-.8-.2-1-.1-.2-.3-.4-.6-.5-.3-.1-.6-.2-1-.2-1 0-2 .3-3.1.9v-1.5c1.2-.5 2.4-.7 3.5-.7.6 0 1.1.1 1.6.3.5.2.9.5 1.2.9.3.4.4 1 .4 1.9v4.5c0 .5 0 .8.1 1 .1.2.2.3.3.4.1.1.3.1.5.1h.3l.1 1c-.4.2-.9.3-1.4.3-.3 0-.6-.1-1-.3 0-.4-.2-.8-.4-1.3zm-.2-1v-2.6h-.6c-1 0-1.8.2-2.4.5-.7.4-1 .9-1 1.5 0 .4.2.8.5 1.1.3.3.7.4 1.1.4.4 0 .8-.1 1.2-.2.3-.1.7-.4 1.2-.7zm9.8 2.2c-.6.2-1 .2-1.5.2-.9 0-1.6-.3-2.1-.8s-.8-1.3-.8-2.2v-5.9h-1.3V81h1.3v-1.8l1.8-.2v2H67v1.4h-2.6v5.5c0 .7.1 1.2.4 1.5.3.3.7.5 1.3.5.2 0 .5 0 .9-.1v1.1zm2.6-11.7v-1.8h1.8v1.8h-1.8zm0 11.7V81h1.8v10h-1.8zm9.4.3c-.9 0-1.8-.2-2.5-.6-.7-.4-1.3-1-1.7-1.8-.4-.8-.6-1.8-.6-2.8 0-1 .2-1.9.6-2.7.4-.8.9-1.5 1.6-1.9.7-.4 1.6-.6 2.6-.6.9 0 1.8.2 2.5.6.7.4 1.3 1 1.7 1.8.4.8.6 1.8.6 2.8 0 1-.2 1.9-.6 2.7-.4.8-.9 1.5-1.6 1.9-.7.4-1.6.6-2.6.6zm0-1.4c.9 0 1.6-.3 2.1-1s.7-1.6.7-2.9c0-1.2-.3-2.2-.7-2.9-.5-.7-1.2-1-2.1-1-.9 0-1.6.3-2.1 1s-.7 1.6-.7 2.9c0 1.2.2 2.2.7 2.9.5.7 1.2 1 2.1 1zm7.6 1.1V81h1.8v1.9c.5-.7 1-1.2 1.6-1.6.6-.4 1.2-.5 1.9-.5.8 0 1.5.3 2.1.8.5.5.8 1.3.8 2.2V91h-1.8v-6.6c0-.7-.1-1.1-.2-1.4-.1-.2-.3-.4-.5-.5-.2-.1-.5-.2-.7-.2-.4 0-.9.1-1.4.4-.5.3-1.1.9-1.7 1.8V91h-1.9zm11.3-.3v-1.7c1.2.6 2.2.9 3.1.9.5 0 .9-.1 1.3-.4.3-.3.5-.6.5-1.1 0-.3-.1-.5-.3-.8-.2-.3-.6-.5-1.2-.8l-1.1-.4c-.8-.3-1.4-.7-1.8-1.2-.4-.4-.6-1-.6-1.6 0-.8.3-1.5.9-2 .6-.5 1.4-.8 2.6-.8.6 0 1.3.1 2.1.2l.4.1v1.5c-1-.3-1.8-.5-2.4-.5-.6 0-1 .1-1.3.4-.3.3-.4.5-.4.9 0 .3.1.5.3.7.2.2.5.4 1 .7l.9.4c1.2.5 1.9 1 2.2 1.5.3.5.5 1 .5 1.6 0 .5-.1 1-.4 1.5-.3.5-.7.8-1.3 1.1-.6.3-1.2.4-1.9.4-.9 0-1.9-.2-3.1-.6zm16.2.3v-8.6h-1.4V81h1.4v-1.2c0-.8.1-1.5.3-1.9.2-.5.6-.9 1-1.2.5-.3 1.1-.5 1.9-.5.6 0 1.3.1 2.1.3V78c-.8-.3-1.5-.4-2-.4-.3 0-.5 0-.8.1-.2.1-.4.2-.6.5-.1.2-.2.7-.2 1.4V81h2.5v1.4h-2.5V91H114zm10.5.3c-.9 0-1.8-.2-2.5-.6-.7-.4-1.3-1-1.7-1.8-.4-.8-.6-1.8-.6-2.8 0-1 .2-1.9.6-2.7.4-.8.9-1.5 1.6-1.9.7-.4 1.6-.6 2.6-.6.9 0 1.8.2 2.5.6.7.4 1.3 1 1.7 1.8.4.8.6 1.8.6 2.8 0 1-.2 1.9-.6 2.7-.4.8-.9 1.5-1.6 1.9-.7.4-1.6.6-2.6.6zm0-1.4c.9 0 1.6-.3 2.1-1s.7-1.6.7-2.9c0-1.2-.3-2.2-.7-2.9-.5-.7-1.2-1-2.1-1-.9 0-1.6.3-2.1 1s-.7 1.6-.7 2.9c0 1.2.2 2.2.7 2.9.6.7 1.2 1 2.1 1zm7.6 1.1V81h1.8v1.9c.3-.7.8-1.2 1.3-1.5.5-.4 1.1-.5 1.8-.5h.6v1.7c-.3-.1-.6-.2-.8-.2-.6 0-1.1.2-1.6.5s-.9.9-1.3 1.5V91h-1.8zm13.6 0V77.4h7.6v1.4h-5.7v4.4h4.8v1.4h-4.8v4.9h6.1v1.4h-8zm12.3 0l-3.7-10h1.8l2.9 7.8 3.1-7.8h1.7l-3.9 10H158zm15.1-.3c-1.2.4-2.3.5-3.2.5-1.6 0-2.8-.5-3.7-1.6-.9-1-1.4-2.3-1.4-3.7 0-.9.2-1.8.6-2.7.4-.8.9-1.5 1.6-1.9.6-.4 1.4-.6 2.3-.6 1.2 0 2.1.4 2.8 1.2.7.8 1 2.1 1 3.7v.6h-6.4c.1.9.3 1.6.6 2 .3.5.7.9 1.1 1.1.5.3 1.1.4 1.8.4.4 0 .7 0 1.1-.1.4-.1.9-.2 1.7-.5v1.6zm-6.3-5.7h4.5c0-1-.2-1.7-.6-2.1-.4-.4-.9-.6-1.5-.6-.7 0-1.3.2-1.7.7-.4.3-.6 1-.7 2zm9.3 6V81h1.8v1.9c.3-.7.8-1.2 1.3-1.5.5-.4 1.1-.5 1.8-.5h.6v1.7c-.3-.1-.6-.2-.8-.2-.6 0-1.1.2-1.6.5s-.9.9-1.3 1.5V91h-1.8zm8.3 3.7L186 91l-3.9-10h2l2.9 7.5 3-7.5h1.7l-5.4 13.6h-1.9zm15.1-3.7V77.4h1.9v12.1h6v1.4h-7.9zm10.1-11.7v-1.8h1.8v1.8h-1.8zm0 11.7V81h1.8v10h-1.8zm5.8 0v-8.6H214V81h1.4v-1.2c0-.8.1-1.5.3-1.9.2-.5.6-.9 1-1.2.5-.3 1.1-.5 1.9-.5.6 0 1.3.1 2.1.3V78c-.8-.3-1.5-.4-2-.4-.3 0-.5 0-.8.1-.2.1-.4.2-.6.5-.1.2-.2.7-.2 1.4V81h2.5v1.4h-2.5V91h-1.7zm14-.3c-1.2.4-2.3.5-3.2.5-1.6 0-2.8-.5-3.7-1.6-.9-1-1.3-2.3-1.3-3.7 0-.9.2-1.8.6-2.7.4-.8.9-1.5 1.6-1.9.6-.4 1.4-.6 2.3-.6 1.2 0 2.1.4 2.8 1.2.7.8 1 2.1 1 3.7v.6H223c.1.9.3 1.6.6 2 .3.5.7.9 1.1 1.1.5.3 1.1.4 1.8.4.4 0 .7 0 1.1-.1.4-.1.9-.2 1.7-.5v1.6zm-6.3-5.7h4.5c0-1-.2-1.7-.6-2.1-.4-.4-.9-.6-1.5-.6-.7 0-1.3.2-1.7.7-.4.3-.6 1-.7 2zm9 5.7v-1.7c1.2.6 2.2.9 3.1.9.5 0 .9-.1 1.3-.4.3-.3.5-.6.5-1.1 0-.3-.1-.5-.3-.8-.2-.3-.6-.5-1.2-.8l-1.1-.4c-.8-.3-1.4-.7-1.8-1.2-.4-.4-.6-1-.6-1.6 0-.8.3-1.5.9-2 .6-.5 1.4-.8 2.6-.8.6 0 1.3.1 2.1.2l.4.1v1.5c-1-.3-1.8-.5-2.4-.5-.6 0-1 .1-1.3.4-.3.3-.4.5-.4.9 0 .3.1.5.3.7.2.2.5.4 1 .7l.9.4c1.2.5 1.9 1 2.2 1.5.3.5.5 1 .5 1.6 0 .5-.1 1-.4 1.5s-.7.8-1.3 1.1c-.6.3-1.2.4-1.9.4-1 0-2-.2-3.1-.6zm14.4.3c-.6.2-1 .2-1.4.2-.9 0-1.6-.3-2.1-.8s-.8-1.3-.8-2.2v-5.9h-1.3V81h1.3v-1.8l1.8-.2v2h2.6v1.4H244v5.5c0 .7.1 1.2.4 1.5.3.3.7.5 1.3.5.2 0 .5 0 .9-.1v1.1zm3.1 3.7l1.6-3.6-3.9-10h2l2.9 7.5 3-7.5h1.7l-5.4 13.6h-1.9zm9.3-3.7V76.5h1.8V91h-1.8zm12.8-.3c-1.2.4-2.3.5-3.2.5-1.6 0-2.8-.5-3.7-1.6-.9-1-1.3-2.3-1.3-3.7 0-.9.2-1.8.6-2.7.4-.8.9-1.5 1.6-1.9.6-.4 1.4-.6 2.3-.6 1.2 0 2.1.4 2.8 1.2.7.8 1 2.1 1 3.7v.6h-6.4c.1.9.3 1.6.6 2 .3.5.7.9 1.1 1.1.5.3 1.1.4 1.8.4.4 0 .7 0 1.1-.1.4-.1.9-.2 1.7-.5v1.6zm-6.3-5.7h4.5c0-1-.2-1.7-.6-2.1-.4-.4-.9-.6-1.5-.6-.7 0-1.3.2-1.7.7-.3.3-.6 1-.7 2zm9.9 2.4l-.2-7.2v-2.7h1.8v2.7l-.2 7.2h-1.4zm-.3 3.6v-1.8h1.8v1.8H275z" fill="#010101"/><path fill="#ED2224" d="M1.2 106.5l4 5.8s16-8.3 36.3-8.1c13 .1 37.2.9 46.2 4.9s-8.1-6.3-22-8.1c-13.9-1.7-45.3-2.1-64.5 5.5z"/><path fill="#010101" d="M274.4 67.1c-1.6 0-3.1-.4-4.5-1.2-1.4-.8-2.5-1.9-3.3-3.3-.8-1.4-1.3-2.9-1.3-4.6 0-1.6.4-3.1 1.2-4.5.8-1.4 1.9-2.5 3.3-3.3 1.4-.8 2.9-1.2 4.5-1.2s3.1.4 4.5 1.2c1.4.8 2.5 1.9 3.3 3.3.8 1.4 1.2 2.9 1.2 4.5s-.4 3.2-1.3 4.6c-.8 1.4-1.9 2.5-3.3 3.3-1.3.8-2.7 1.2-4.3 1.2zm0-2c1.1 0 2.3-.3 3.4-.9 1.1-.6 2-1.4 2.6-2.6.7-1.1 1-2.3 1-3.6 0-1.2-.3-2.4-.9-3.5-.6-1.1-1.5-2-2.6-2.6-1.1-.6-2.3-.9-3.5-.9-1.2 0-2.3.3-3.5.9-1.1.6-2 1.5-2.6 2.6-.6 1.1-.9 2.3-.9 3.5 0 1.3.3 2.4 1 3.6.7 1.1 1.5 2 2.6 2.6 1.1.6 2.2.9 3.4.9zm-3.7-2.7v-9.6h2.9c1.1 0 1.9.1 2.4.3.5.2.8.4 1.1.8.3.4.4.8.4 1.4 0 .6-.2 1.1-.5 1.6s-.9.9-1.6 1.2l2.4 4.3h-2.2l-2.2-3.9h-.9v3.9h-1.8zm2-5.2h.8c.7 0 1.2-.2 1.5-.5.3-.3.5-.7.5-1.2 0-.4-.1-.7-.4-1-.3-.2-.8-.4-1.5-.4h-.9v3.1z"/></svg>