<svg xmlns="http://www.w3.org/2000/svg" viewBox="0 0 300 52.237" height="55.72" width="320"><path d="M89.357 21.134c-1.368.957-3.797 1.433-7.302 1.433H69.112V9.937h12.943c3.574 0 6.028.472 7.354 1.416 1.334.944 1.999 2.565 1.999 4.87 0 2.32-.682 3.955-2.05 4.911m2.595 9.078c3.282-.703 5.783-2.27 7.533-4.706 1.742-2.437 2.609-5.577 2.609-9.425 0-5.187-1.412-9.001-4.23-11.438C95.042 2.21 90.6.992 84.544.992H58.566v50.187h10.546V31.444H81.54L92.6 51.179h11.889L91.953 30.212zM129.19 51.18h17.856v-8.744H129.7c-4.526 0-7.713-1.124-9.558-3.38-1.836-2.253-2.763-6.131-2.763-11.64 0-6.354.957-10.914 2.883-13.69 1.922-2.776 5.075-4.166 9.438-4.166h17.346V.993h-17.547c-8.083 0-14.046 2.11-17.886 6.332-3.853 4.222-5.775 10.773-5.775 19.65 0 4.573.64 8.502 1.93 11.797 1.284 3.287 3.214 5.95 5.784 8.001 1.986 1.596 4.097 2.725 6.354 3.398 2.248.67 5.346 1.009 9.284 1.009m64.186 0V.993h-10.554V21.34H163.46V.993h-10.54V51.18h10.54V30.218h19.362V51.18h10.554zm41.059-11.899c-2.214 2.853-5.62 4.286-10.21 4.286-4.664 0-8.075-1.446-10.25-4.32-2.17-2.879-3.256-7.414-3.256-13.604 0-5.715 1.12-9.984 3.359-12.807 2.24-2.818 5.624-4.23 10.146-4.23 4.59 0 7.997 1.42 10.211 4.269 2.214 2.84 3.325 7.246 3.325 13.21 0 5.941-1.111 10.339-3.325 13.196m8.67-32.893C239.025 2.132 232.727 0 224.225 0c-8.444 0-14.725 2.106-18.852 6.32-4.127 4.208-6.195 10.63-6.195 19.25 0 9.176 2.025 15.912 6.08 20.215 4.04 4.299 10.369 6.452 18.966 6.452 8.503 0 14.802-2.14 18.881-6.422 4.085-4.273 6.127-10.85 6.127-19.73 0-8.877-2.042-15.441-6.127-19.697m13.251 20.908c2.673 2.308 6.898 3.47 12.686 3.47h12.454c2.733 0 4.668.438 5.788 1.326 1.128.892 1.69 2.377 1.69 4.47 0 2.025-.609 3.484-1.845 4.355-1.227.88-3.342 1.317-6.35 1.317h-26.422v8.945h28.096c6.054 0 10.494-1.21 13.321-3.638 2.815-2.424 4.226-6.22 4.226-11.386 0-5.097-1.223-8.74-3.668-10.927-2.446-2.18-6.56-3.274-12.343-3.274h-13.96c-2.206 0-3.874-.455-4.986-1.368-1.12-.91-1.668-2.274-1.668-4.093 0-2.278.652-3.939 1.956-4.985 1.308-1.052 3.368-1.575 6.165-1.575h26.08V.993H269.96c-6.126 0-10.592 1.226-13.403 3.68-2.805 2.463-4.217 6.354-4.217 11.683 0 4.989 1.334 8.631 4.016 10.94M40.362 14.298l1.888-.017-.065 16.007H27.74l12.622-15.99zm-19.439 24.93h21.288l-.043 11.957h10.889L52.91.99H38.389L0 51.185h11.63l9.293-11.957z"/></svg>