<svg xmlns="http://www.w3.org/2000/svg" width="744.1" height="298.7" viewBox="0 0 744.1 298.7"><path d="M17.666 233.466h23.888V72.54H17.666v160.926zm.143-188.247h23.888V17.754H17.81V45.22zM213.78 233.466h23.889V72.54H213.78v160.926zm.143-188.247h23.889V17.754h-23.889V45.22zM98.772 280.957v-154.06c.143-8.725 8.01-51.782 76.958-55.215v21.743c-14.447.286-53.07 8.869-53.642 40.482V281.1H98.772m550.722-48.063v-106.14c.143-8.725 8.01-51.782 76.958-55.215v21.743c-14.447.286-53.07 8.869-53.498 40.482v99.13h-23.46M274.288 72.97h25.319l51.782 129.169 54.5-129.313h25.176l-67.66 160.64h-23.603L274.288 72.97M604.15 182.542c-12.017 32.042-42.485 54.786-78.532 54.786-46.204 0-83.682-37.764-83.682-84.253 0-46.633 37.478-84.254 83.682-84.254 46.346 0 83.68 37.764 83.68 84.254 0 3.004-.142 6.15-.428 9.011v-.429H507.594V140.63h78.102c-4.148-29.038-29.61-52.069-59.65-52.069-33.9 0-61.365 28.61-61.365 63.941 0 35.19 27.464 63.798 61.366 63.798 23.602 0 43.771-13.446 54.07-33.901h24.032" fill="#EC1B24"/></svg>