<svg xmlns="http://www.w3.org/2000/svg" width="240mm" height="45mm" shape-rendering="geometricPrecision" text-rendering="geometricPrecision" image-rendering="optimizeQuality" fill-rule="evenodd" clip-rule="evenodd" viewBox="0 0 240 50.909"><g fill-rule="nonzero"><path fill="#fff" d="M205.809 40.111c.487.023.78.45.78.879 0 .481-.439.786-.67.863l.61 1.315h-.54l-.642-1.342h-.728v1.342h-.563V40.11h1.753zm-1.19 1.292h1.091c.3-.084.327-.242.336-.444.007-.197-.182-.42-.374-.42h-1.053v.864z"/><path fill="#fff" d="M205.217 44.327a2.677 2.677 0 002.679-2.678 2.678 2.678 0 10-5.358 0 2.678 2.678 0 002.679 2.678zm-2.243-2.7a2.242 2.242 0 114.485 0 2.243 2.243 0 11-4.485 0z"/><path fill="#F6D900" d="M.665 44.88l116.862 3.01 116.865-3.01v-1.377L117.527 40.49.665 43.503z"/><g fill="#343E8B"><path d="M41.114 4.754h11.159v20.748h14.03v6.03h-25.19zm141.414 27.851c-8.695 0-16.01-2.587-16.01-9.715V4.754h10.8v17.309c0 3.35 2.475 4.88 5.21 4.88 2.738 0 5.21-1.53 5.21-4.88V4.754h10.798V22.89c0 7.128-7.31 9.715-16.008 9.715zm38.635-20.731h11.414c-.598-6.15-9.256-7.987-15.965-7.987-6.705 0-15.44 2.194-15.44 8.903 0 4.902 4.795 6.47 8.16 7.151 2.387.481 6.367 1.16 8.358 1.598 2.77.606 4.203 1.17 4.203 2.802 0 1.745-1.61 2.638-4.916 2.638-3.134 0-5.007-.974-5.528-3.184l-11.63.001c.682 7.295 10.029 8.89 17.405 8.89 7.422 0 16.292-1.767 16.292-8.996 0-3.925-2.529-6.537-8.751-7.782-3.257-.65-7.773-1.5-9.51-1.798-2.299-.401-3.12-1.23-3.12-2.36 0-1.166 1.117-2.39 4.342-2.39 2.726 0 4.2.796 4.686 2.514zm-66.76 9.799c8.035 0 10.08-5.11 10.08-8.375 0-3.006-1.729-8.544-10.07-8.544h-21.6l.001 26.777h10.603v-9.858h10.986zm-10.987-5.846v-5.223h7.079c1.764 0 3.272.824 3.272 2.525 0 1.5-.866 2.698-3.286 2.698h-7.065zm-63.69-10.42l.304-.653h11.195L79.576 22.516v9.015H68.985v-9.015L57.374 4.754H68.53l.31.653 5.049 8.865c.332.57.432.57.8 0l5.037-8.865zm33.859 26.124l.197-.533 5.69-13.229c.146-.348.49-.255.494.05v13.712h9.134V4.754h-11.04l-.202.577-6.805 15.36c-.25.583-.484.58-.734 0l-6.802-15.36-.203-.577h-11.04v26.777h9.138V17.82c.002-.305.345-.398.494-.05L107.588 31l.202.532h5.795zM38.593 18.144c0 8.996-7.802 14.413-18.684 14.413-10.883 0-18.684-5.417-18.684-14.413 0-9 7.801-14.414 18.684-14.414 10.882 0 18.684 5.414 18.684 14.414zm-11.234 0c0-5.417-2.803-8.76-7.45-8.76-4.65 0-7.45 3.343-7.45 8.76 0 5.416 2.8 8.758 7.45 8.758 4.647 0 7.45-3.342 7.45-8.758zM236.886 4.36c.57.025.915.529.915 1.032 0 .563-.514.921-.788 1.014l.718 1.542h-.634l-.754-1.576h-.855v1.576h-.66V4.359h2.058zm-1.398 1.516h1.28c.352-.099.385-.284.394-.52.01-.233-.212-.496-.437-.496h-1.237v1.016z"/><path d="M236.189 9.308a3.143 3.143 0 100-6.289 3.143 3.143 0 00-3.143 3.145 3.143 3.143 0 003.143 3.144zm-2.632-3.168a2.632 2.632 0 115.265 0 2.633 2.633 0 11-5.265 0z"/></g></g></svg>