<svg xmlns="http://www.w3.org/2000/svg" width="1024" height="212" viewBox="0 0 1024 212"><path d="M554.2 13.2h35.5v189.9L469.8 91.5v105.8h-35.5V7.9l119.9 111.7V13.2zm-176 92.4c0 54.8-44.6 99.4-99.4 99.4-54.8 0-99.4-44.6-99.4-99.4 0-54.8 44.6-99.4 99.4-99.4 54.8 0 99.4 44.6 99.4 99.4zm-36.4 0c0-35.2-28.3-63.8-63.1-63.8s-63 28.6-63 63.8 28.3 63.8 63 63.8c34.8 0 63.1-28.6 63.1-63.8zm-223 1.6c-9.4-7.2-21.9-12.9-40.3-18.9-36-11.5-36-20.5-36-24.9 0-10.2 11.3-20.8 30.5-20.8 16.1 0 28.6 8 33.2 11.5l2.6 1.9 28.6-19.4-3.2-3.7c-.9-1.1-23-26.9-61.4-26.9-18.4 0-35.3 5.9-47.6 16.6C13 33.5 6 48.2 6 63.6c0 16.3 7.2 30.1 21.3 40.8 9.4 7.2 21.9 12.9 40.3 18.8 36 11.4 36 20.5 36 24.9 0 10.2-11.3 20.8-30.5 20.8-16.1 0-28.6-8-33.2-11.5l-2.6-1.9-28.8 19.3 3.2 3.7c1 1.1 23 26.7 61.2 26.7 18.4 0 35.3-5.9 47.6-16.6 12.3-10.7 19.3-25.6 19.3-40.8.1-16.2-6.9-29.7-21-40.6zm527.3-.8c0-54.8 44.6-99.4 99.4-99.4 54.8 0 99.4 44.6 99.4 99.4 0 54.8-44.6 99.4-99.4 99.4-54.8 0-99.4-44.6-99.4-99.4zm36.3 0c0 35.2 28.3 63.8 63 63.8 34.8 0 63-28.6 63-63.8s-28.3-63.8-63-63.8-63 28.6-63 63.8zm222.9-1.8c9.4 7.2 21.9 13 40.3 18.9 36 11.5 36 20.5 36 24.9 0 10.2-11.3 20.8-30.5 20.8-16.1 0-28.6-8-33.2-11.5l-2.6-1.9-28.6 19.3 3.2 3.7c1 1.1 23 26.7 61.2 26.7 18.4 0 35.3-5.9 47.6-16.6 12.3-10.7 19.3-25.4 19.3-40.8 0-16.3-7.2-30.1-21.3-40.8-9.4-7.2-21.9-13-40.3-18.9-36-11.5-36-20.5-36-24.9 0-10.2 11.3-20.8 30.5-20.8 16.1 0 28.6 8 33.2 11.5l2.6 1.9 28.6-19.3-3.2-3.7c-1-1.1-23-26.7-61.2-26.7-18.4 0-35.3 5.9-47.6 16.6C891 33.7 884 48.6 884 63.8c.2 16.4 7.3 30.1 21.3 40.8z"/></svg>