<svg xmlns="http://www.w3.org/2000/svg" width="240mm" height="45mm" shape-rendering="geometricPrecision" text-rendering="geometricPrecision" image-rendering="optimizeQuality" fill-rule="evenodd" clip-rule="evenodd" viewBox="0 0 240 53.065"><g fill="#DA2128"><path fill-rule="nonzero" d="M53.98 2.57h10.034v47.718H53.98z"/><path d="M221.092 2.57h-14.336l-19.25 47.718h10.442l3.688-9.216h23.55l3.481 9.216h10.856L221.092 2.57zm-7.375 29.9h-8.804l8.804-21.5 8.194 21.5h-8.194zM164.568 2.777l-7.782 27.238-7.782-27.238h-13.313l-7.783 47.51h10.037l5.12-34.814 9.42 34.815h8.602l9.418-34.815 4.713 34.815h10.444l-7.577-47.51zM35.75 22.23c-4.047-.706-10.245-1.071-10.852-1.226-.662-.04-7.233-.326-9.626-1.024-4.036-1.096-3.687-4.233-3.685-4.712-.002-.988-.321-5.363 11.673-5.733 12.011-.272 20.058 3.625 20.07 3.685l2.25-8.805c-.075.051-7.863-4.003-21.707-4.097C14.785.412 9.077 2.866 6.874 4.415 4.933 5.767.831 9.21.528 15.268.012 21.906 3.506 25.817 5.03 26.943c1.701 1.415 3.833 2.108 6.556 2.662 1.865.62 8.163 1.346 9.42 1.432 3.217.361 7.27.31 11.264 1.23 3.42.998 3.632 3.778 3.686 4.916-.054 2.108-1.226 6.055-12.697 6.144-11.356-.089-19.996-4.088-20.07-4.098l-1.843 9.218c-.002.072 7.997 3.698 21.913 4.3 2.616.034 9.268-.87 10.852-1.434 1.685-.662 13.099-3.435 13.109-14.542-.01-11.292-7.477-13.64-11.47-14.54zm60.21.617v8.397h16.588c.073-.075.848 6.7-3.889 10.24-2.786 1.772-7.033 1.88-8.808 1.843-7.262.038-9.175-.841-11.876-2.663-4.973-2.985-6.38-9.599-6.348-13.721-.032-8.304 3.015-11.669 5.12-13.314 2.25-1.839 5.101-3.788 13.104-3.889 2.705-.046 5.076.083 8.194.818 5.016.985 10.13 2.973 10.033 3.071l2.458-8.396c-.075-.084-9.22-4.674-20.888-4.708-13.026.034-20.065 4.3-23.758 9.215-3.694 5.215-5.214 9.423-5.12 17.61-.094 7.82 3.213 13.955 4.71 15.77 1.364 1.521 7.463 9.65 23.347 9.422 7.522-.094 15.322-1.994 19.662-6.349 3.566-3.758 4.667-7.396 5.12-14.949.262-2.678.027-8.457 0-8.397H95.96z"/></g></svg>