<svg xmlns="http://www.w3.org/2000/svg" width="800" height="500" viewBox="0 0 800 500"><g stroke="#000"><path fill="none" stroke-width="9.373" stroke-linecap="round" d="M540.3 111.338l-19.3-18.2c-7.8-7.3-26.1-8.1-38.3 2.4-12.2 10.5-11.1 34.6.4 46.2l46.9 46c11.5 11.5 12.6 35.7.4 46.2s-30.5 9.7-38.3 2.4l-31.7-29.7"/><path fill="none" stroke-width="8.635" stroke-linecap="round" d="M641.4 127.538l-14.7-11.5c-7.8-6.1-26.4-6.3-38.7 2.6-12.3 8.8-11.3 29.1.4 38.8l42.6 34.4c11.6 9.7 8 23.6-1.6 35.3-11.1 13.6-35.2 8.7-41.4 1.6l-14.6-16.7"/><path fill="none" stroke-width="9.373" stroke-linecap="round" d="M418.4 81.338v159.4"/><path fill="none" stroke-width="9.373" stroke-linecap="round" stroke-linejoin="round" d="M367.9 82.538l-67.9 9.5-1.2 142.8 67.9 3.6"/><path fill="none" stroke-width="9.373" stroke-linecap="round" d="M300.5 154.738l66.7 1.6"/><path fill="none" stroke-width="9.373" stroke-linecap="round" stroke-linejoin="round" d="M174.2 115.638l75.7-16.2-76.1 125.4 80.9 10.7"/><path fill="red" stroke-width="9.373" stroke-linecap="round" d="M223.6 305.038v95.5m51.6-94.3v87.2m71.4-79.3l-70.2 44.2m29.6-17.4l37.5 45.8"/><path fill="none" stroke-width="9.373" stroke-linecap="round" stroke-linejoin="round" d="M504 394.138v-78.1l78.1 80.5v-90.3"/><path fill="none" stroke-width="3" stroke-linecap="round" stroke-linejoin="round" d="M463 352.338c0 20.9-18.5 37.9-41.4 37.9s-41.4-16.9-41.5-37.8v-.1c0-20.9 18.5-37.9 41.4-37.9s41.4 16.9 41.5 37.8v.1z"/><path fill="none" stroke-width="9.373" d="M31.3 138.038v282.3l51.3 39.1c216.6-48.7 430.9-55.4 641.6 0l50.2-39.1v-282.3c-249.2-121.7-496.9-119.2-743.1 0zm-1.1 113.9c248.5 37.2 496.9 37.2 745.4 0"/></g></svg>