<svg xmlns="http://www.w3.org/2000/svg" version="1.0" width="1133.858" height="226.417"><path d="M1098.425 166.628v19.137h-3.21v-14.75h-.203l-5.322 14.75h-2.763l-5.282-14.75v14.75h-3.25v-19.137h4.835l5.322 14.992 5.038-14.992h4.835m-22.102 0v2.763h-6.217v16.374h-3.21V169.39h-6.216v-2.763h15.643m-80.366-28.562c4.835-15.642 4.835-24.865.203-30.878-3.453-4.145-8.491-6.216-16.13-6.216-17.023 0-26.45 9.67-34.047 33.885-4.876 15.886-4.876 25.108-.244 31.081 3.21 3.941 8.532 6.013 16.13 6.013 16.78 0 26.49-9.466 34.088-33.885zm66.551-35.023c6.664 8.33 8.086 18.893 4.145 31.814-11.052 35.713-52.738 56.19-114.495 56.19-36.85 0-61.919-7.15-73.01-20.965-6.664-8.288-7.802-19.096-3.901-32.016 11.051-35.713 52.737-56.19 114.494-56.19 36.607 0 61.96 7.353 72.767 21.167M832.18 85.328h65.413c-3.941 5.282-75.084 100.883-76.262 102.509H720.936c-.488-3.007-12.474-98.812-12.92-102.51h61.512c.447 3.007 8.98 71.875 8.98 71.875s52.737-70.492 53.671-71.874m-202.945 52.737c4.835-15.642 5.08-24.865.244-30.878-3.25-4.145-8.532-6.216-15.886-6.216-17.064 0-26.734 9.67-34.088 33.885-5.079 15.886-5.079 25.108-.244 31.081 3.21 3.941 8.532 6.013 15.886 6.013 17.065 0 26.735-9.466 34.088-33.885zm66.796-35.023c6.703 8.33 8.085 18.893 3.94 31.814-11.05 35.713-52.777 56.19-114.25 56.19-36.85 0-61.96-7.15-73.052-20.965-6.663-8.288-8.045-19.096-4.144-32.016 11.295-35.713 52.981-56.19 114.494-56.19 36.851 0 61.96 7.353 73.012 21.167m-192.545-5.036c2.52 3.21 3.9 6.42 3.21 11.051l-25.556 78.984h-67.73l23.972-73.702c.894-3.21-.244-5.973-2.072-8.045-3.25-3.94-10.157-6.46-33.885-4.835 0 0-28.075 85.444-28.563 86.582h-67.688c.65-1.829 31.772-96.942 32.219-97.877 23.524-4.144 54.606-8.044 86.866-8.044 43.758 0 70.452 5.281 79.227 15.886m-247.149 21.655c1.381-6.46-.69-11.295-3.007-14.058-2.519-3.25-8.085-7.394-19.583-7.394-16.333 0-28.563 7.842-32.707 20.965l-8.045 30.188 63.342-29.7zm56.881-.244c0 4.835-1.137 8.98-2.072 10.808-2.072.488-120.223 26.734-120.223 26.734s-1.178 5.77 3.21 8.776c5.77 4.144 11.986 5.282 22.55 5.73 26.043 1.137 61.31-14.059 71.182-18.406-1.584 5.038-11.742 27.181-12.189 28.319-4.388 1.625-28.806 9.426-76.708 9.67-18.202.243-50.665-2.073-64.032-18.893-6.664-8.289-7.842-20.03-3.25-34.78 10.847-35.225 51.395-55.5 110.796-55.5 33.194 0 54.85 6.217 64.764 18.406 3.9 5.079 5.972 11.539 5.972 19.136M82.645 35.354h67.039c-1.382 4.347-46.521 149.923-47.252 152.483H35.433c1.381-4.388 46.52-149.964 47.212-152.483" fill="#005e9d"/></svg>