<svg xmlns="http://www.w3.org/2000/svg" width="185mm" height="38mm" shape-rendering="geometricPrecision" text-rendering="geometricPrecision" image-rendering="optimizeQuality" fill-rule="evenodd" clip-rule="evenodd" viewBox="0 0 185 15.516"><path d="M33.1 1.598h-1.944l-4.062 7.043h.018-3.201l-.355 1.03h2.943l-2.43 4.214h1.572l2.435-4.21-.006-.004h3.603l.768 4.214h2.915L33.1 1.598zm-2.671 7.044h-1.76l.006-.004 2.138-3.697.673 3.7h-1.057zm59.015-5.957l.314-1.087h-8.057l-1.809 5.713.008.003h-1.799l-.343 1.028h1.8l.01-.002-1.753 5.544h8.059l.341-1.14h-4.97l1.398-4.402h3.23l.342-1.028h-3.243l1.472-4.63zm10.148 10.101l3.538-11.188h-2.971l-3.886 12.286h7.113l.358-1.098zm37.428 0l3.54-11.188h-2.97l-3.887 12.286h7.117l.355-1.098zm22.056-11.188h-1.942l-4.062 7.043h.018-3.198l-.359 1.03h2.943l-2.429 4.214h1.573l2.434-4.21-.005-.004h3.601l.768 4.214h2.916l-2.258-12.287zm-1.616 7.044h-2.812l.007-.004 2.135-3.697.676 3.7h-.006zM14.27 1.598l-1.845 5.83H7.91l1.844-5.83H6.84l-1.845 5.83h-2.97l-.328 1.085h2.957l-1.7 5.371H5.87l1.698-5.371h4.514l-1.7 5.371H13.3l3.884-12.286zM51.304 7.13c-1.098-.79-1.752-.995-2.61-1.443C45.74 4.382 48.66 1.05 52.23 3.42l.62-1.03c-5.765-3.196-9.92 2.965-5.84 5.669.686.48 1.646.85 2.645 1.51 2.438 1.614-1.203 5.222-5.05 1.992l-.79 1.03c2.922 2.54 7.763 1.64 8.656-2.232.31-1.34-.06-2.433-1.168-3.229zm16.446 0c-1.1-.79-1.751-.995-2.61-1.443-2.953-1.305-.035-4.637 3.539-2.267l.617-1.03c-5.765-3.196-9.918 2.965-5.84 5.669.687.48 1.647.85 2.645 1.51 2.44 1.614-1.2 5.222-5.048 1.992l-.79 1.03c2.92 2.54 7.762 1.64 8.655-2.232.309-1.34-.06-2.433-1.168-3.229zm53.152-5.532c-3.598.004-4 0-4 0l-1.895 5.662-1.178-.004h-.726l-.373 1.114h1.848l.057.001-1.469 4.384-.378 1.13h5.485c5.627-.102 7.57-5.21 3.312-6.196 4.904-1.498 4.258-6.096-.683-6.09zm-2.6 11.201h-1.03l-1.052-.011 1.448-4.419h1.736c3.44.036 1.125 4.391-1.102 4.43zm1.274-5.552h-1.498l1.453-4.562h.685c3.139-.071 2.458 4.494-.64 4.562zm58.3-5.649h-3.658l-4.001 12.287h4.745c9.58-.339 11.384-12.393 2.914-12.287zm-3.029 11.146h-1.371l3.427-10h.973c4.572 0 2.4 10-3.029 10z" fill="#0C3C60" fill-rule="nonzero"/></svg>