<svg xmlns="http://www.w3.org/2000/svg" viewBox="0 0 652 652"><path d="M76.5 330.9l-18.8-42.2H20.1v65.6h20.6v-49.2h3.2l24.7 49.2h16.8l24.7-49.2h3.3v49.2h19.5v-65.6H96.3zm67.2-6.8h35.4v13.5h-35.4zm73.3-35.4l-35.2 65.7h23.6l6.2-11.6h42.9l6.5 11.6h23.6l-35.9-65.7H217zm.3 39.9l13.2-24.6h3.5l12.3 24.6h-29zm136.4-2c0 8.4-3.1 11.6-11.8 11.6h-21c-8.6 0-11.8-3.3-11.8-11.6v-37.9H288V331c0 16.4 8.8 24.1 28.3 24.1h30.3c19.4 0 28.3-7.8 28.3-24.1v-42.3h-21.2v37.9zm92.9-37.9h-60.7v65.7h60.7c21.2 0 27.5-6.6 27.5-22.9v-20c.1-16.2-6.3-22.8-27.5-22.8zm7.4 36.9c0 9.4-3.5 11.8-12.6 11.8h-35.5v-32.5h35.5c9 0 12.6 2.5 12.6 11.8v8.9zm32.2-36.9h21.2v65.7h-21.2zm94.2-.8h-33.9c-19 0-28.3 4.5-28.3 23.7v19.6c0 19.2 9.3 23.7 28.3 23.7h33.9c19 0 28.3-4.5 28.3-23.7v-19.6c.1-19.2-9.2-23.7-28.3-23.7zm7.7 37.1c0 9.6-1.1 13.2-11 13.2h-27c-10 0-11-3.6-11-13.2v-7.1c0-8.2 1.1-13.2 12.2-13.2H576c11.1 0 12.2 5 12.2 13.2l-.1 7.1zm29.2-33.4c0-1.2-1-1.5-2.1-1.5h-2.6v5.6h.8v-2.5h1.1l1.7 2.5h.9l-1.7-2.5c1.1 0 1.9-.5 1.9-1.6zm-2.3 1h-1.6v-1.8h1.6c.6 0 1.5.1 1.5.8 0 .6-.3 1-1.5 1z"/><path d="M614.9 287.9c-2.9 0-5.2 2.2-5.2 5s2.3 5 5.2 5c2.9 0 5.2-2.2 5.2-5s-2.3-5-5.2-5zm0 9.2c-2.5 0-4.4-1.8-4.4-4.2 0-2.3 1.9-4.1 4.4-4.1 2.4 0 4.4 1.8 4.4 4.1s-2 4.2-4.4 4.2z"/></svg>