<svg xmlns="http://www.w3.org/2000/svg" width="652" height="184" viewBox="0 0 652 184"><radialGradient id="a" cx="-158.006" cy="-691.682" r="41.714" gradientTransform="rotate(-45.001 310.16 -357.804)" gradientUnits="userSpaceOnUse"><stop offset="0" stop-color="#1a1a1a"/><stop offset="1"/></radialGradient><path fill="url(#a)" d="M69 63.2c-7.8 7.8-9.1 19.3-3.1 26.6 7.5-1.4 14.4-5 19.8-10.3 5.3-5.2 8.9-12 10.3-19.3-7.5-6.2-19.1-4.9-27 3z"/><radialGradient id="b" cx="-158.031" cy="-691.68" r="41.717" gradientTransform="rotate(-45.001 310.16 -357.804)" gradientUnits="userSpaceOnUse"><stop offset="0" stop-color="#009435"/><stop offset="1" stop-color="#006a28"/></radialGradient><path fill="url(#b)" d="M39.9 33.9c14.1-14 36.8-14 50.9 0 .5.4.9.9 1.3 1.4-1.7-3.2-3.9-6.2-6.5-8.8-14.4-14.6-37.9-14.8-52.5-.4l-.4.4c-14.6 14.6-14.6 38.3 0 53 2.5 2.5 5.4 4.6 8.5 6.4-.4-.3-.8-.7-1.1-1.1-14.1-14-14.2-36.7-.3-50.8 0 0 .1 0 .1-.1z"/><radialGradient id="c" cx="-401.686" cy="-458.271" r="41.717" gradientTransform="translate(0 252)" gradientUnits="userSpaceOnUse"><stop offset="0" stop-color="#1a1a1a"/><stop offset="1"/></radialGradient><path fill="url(#c)" d="M58.8 52.8C47.9 63.7 46 80 54.5 90.3c3.7.4 7.5.3 11.2-.3l-.4-.4c-8.4-8.3-8.4-21.8-.1-30.1s21.8-8.4 30.1-.1l.1.1.7.7c.7-3.8.9-7.7.4-11.6-10.4-8.6-26.7-6.9-37.7 4.2z"/><radialGradient id="d" cx="-401.686" cy="-458.271" r="41.716" gradientTransform="translate(0 252)" gradientUnits="userSpaceOnUse"><stop offset="0" stop-color="#1a1a1a"/><stop offset="1"/></radialGradient><path fill="url(#d)" d="M46.5 40.4c-13.3 13.3-15.6 33-5.1 45.6 4 2.2 8.5 3.6 13 4.1l-.8-.9c-11.5-11.6-11.4-30.3.2-41.8 11.5-11.4 30-11.4 41.5 0 .4.3.7.7 1 1.1-.5-4.6-1.9-9.1-4.1-13.2-12.5-10.6-32.3-8.3-45.7 5.1z"/><radialGradient id="e" cx="-158.031" cy="-691.68" r="41.716" gradientTransform="rotate(-45.001 310.16 -357.804)" gradientUnits="userSpaceOnUse"><stop offset="0" stop-color="#fff"/><stop offset=".265" stop-color="#fcfcfc"/><stop offset=".482" stop-color="#f2f2f2"/><stop offset=".681" stop-color="#e1e1e1"/><stop offset=".868" stop-color="#c9c9c9"/><stop offset="1" stop-color="#fff"/></radialGradient><path fill="url(#e)" d="M46.5 40.4C60 26.9 79.8 24.7 92.4 35.3v-.1c-.4-.4-.8-1-1.3-1.4-14.2-14-37-14-51.1.2-13.9 14.1-14 36.7-.1 50.8.4.3.8.7 1.1 1.1l.1.1c-10.2-12.6-8-32.3 5.4-45.6z"/><radialGradient id="f" cx="-158.031" cy="-691.68" r="41.716" gradientTransform="rotate(-45.001 310.16 -357.804)" gradientUnits="userSpaceOnUse"><stop offset="0" stop-color="#fff"/><stop offset=".265" stop-color="#fcfcfc"/><stop offset=".482" stop-color="#f2f2f2"/><stop offset=".681" stop-color="#e1e1e1"/><stop offset=".868" stop-color="#c9c9c9"/><stop offset="1" stop-color="#fff"/></radialGradient><path fill="url(#f)" d="M53.5 47.5C42 58.9 41.9 77.6 53.3 89.1l.2.2.8.8h.1c-8.5-10.3-6.8-26.5 4.2-37.5s27.3-12.7 37.5-4.1v-.1c-.3-.4-.7-.7-1-1.1C83.7 35.8 65 36 53.5 47.5z"/><radialGradient id="g" cx="-401.681" cy="-458.271" r="41.71" gradientTransform="translate(0 252)" gradientUnits="userSpaceOnUse"><stop offset="0" stop-color="#fff"/><stop offset=".265" stop-color="#fcfcfc"/><stop offset=".482" stop-color="#f2f2f2"/><stop offset=".681" stop-color="#e1e1e1"/><stop offset=".868" stop-color="#c9c9c9"/><stop offset="1" stop-color="#fff"/></radialGradient><path fill="url(#g)" d="M65.3 59.4c-8.2 8.3-8.2 21.7 0 30l.4.4h.1c-5.9-7.4-4.7-18.8 3.1-26.6 7.9-7.9 19.5-9.1 26.9-3l-.7-.7c-8.1-8.2-21.4-8.3-29.8-.1.1 0 0 0 0 0z"/><path fill="gray" d="M142.6 33.9c-4-2.2-8.6-3.4-13.2-3.4-5.7 0-9.6 3.3-9.6 7.8 0 4.1 2 5.7 8.9 7.5 9.2 2.4 11.6 3.5 14.6 7.1 3.2 3.8 4.9 8.5 4.8 13.5 0 12.7-9.5 21.4-23.8 21.4-5.9-.1-11.7-1.2-17.3-3.3V70.3c7.8 3.3 12.5 4.5 17.4 4.5 5.8 0 9.5-3.1 9.5-7.8.1-2.6-1.4-5-3.8-5.9-2.2-.9-4.6-1.6-6.9-2-7.6-2-11.9-4.7-14.6-9.3-1.8-3.1-2.7-6.7-2.7-10.3 0-7.4 3.8-14.4 10.1-18.4 4-2.2 8.6-3.3 13.2-3.1 4.5 0 9 .7 13.3 2v14h.1v-.1zm59.7 39.4c.2 3.1-.2 6.2-1.1 9.2-2.2 4.5-7.5 6.4-12 4.2-1.4-.7-2.7-1.8-3.6-3.1-1.1-1.6-1.1-1.6-3.1-5.9l-15.7-34.4v43.5h-13.9V33.4c0-6.8.1-7.4 1.1-9.6 1.5-3.4 4.9-5.6 8.6-5.5 4.8 0 7.2 2.4 10.9 10.3l14.7 32.3V19h13.9v54.4l.2-.1zm74.8-19.8c0 18.8-15.9 34.4-35 34.4-19.4 0-35-15.8-35-35.1 0-19.4 15.8-35 35.1-35 19.6 0 34.9 15.8 34.9 35.7zm-56.3-.7c-.3 11.7 9 21.4 20.7 21.7 11.7.3 21.4-9 21.7-20.7v-.6c0-12-9.5-22-21.1-22-11.8.1-21.3 9.7-21.3 21.6 0-.1 0-.1 0 0zm129.8.7c0 18.8-15.9 34.4-35 34.4-19.4 0-35-15.8-35-35.1 0-19.4 15.8-35 35.1-35 19.6 0 34.9 15.8 34.9 35.7zm-56.2-.7c-.3 11.7 9 21.4 20.7 21.7 11.7.3 21.4-9 21.7-20.7v-.6c0-12-9.5-22-21.1-22-11.9.1-21.4 9.7-21.3 21.6 0-.1 0-.1 0 0zm61 34V33.3c0-11 3.8-14.4 15.9-14.4 9.2 0 14.3 1.6 18.4 5.5 3.9 3.9 6 9.1 5.9 14.6 0 8.9-5.8 17.1-13.7 19.5-4.2 1.1-8.5 1.6-12.7 1.4v26.9h-13.8zm15.5-40.1c2.3.2 4.5-.1 6.7-.8 2.6-1.2 4.2-3.7 4.2-6.5 0-2.9-1.8-5.5-4.5-6.7-1.6-.6-2.7-.6-6.5-.6h-1.6v14.6h1.7zm62.4-14.6h-20v12.7h18.6v12.9h-18.6v15.6h20v13.3h-19.8c-6.2 0-9.1-1-11.3-4-1.8-2.4-2.7-5.4-2.7-10.3V33.2c0-5.7 1.1-9.2 3.7-11.6 2.4-2.1 4.8-2.7 10.3-2.7h19.8v13.2zm27.8 0h-7.4v54.7h-13.9V30.7c-.1-2.9.8-5.8 2.5-8.1 1.8-2.3 4.5-3.6 7.4-3.7l12.7.1c5.3 0 10.4 2.1 14.2 5.8 5.8 5.3 7.6 13.7 4.4 20.8-1 2.3-2.6 4.3-4.5 5.9-2.1 1.8-4.5 3.2-6.9 4.4l17.6 30.7h-16.7L455.3 58c-.5-1.3-.8-2.6-.9-4-.1-2.8 1.6-5.4 4.2-6.4 1.6-.6 1.6-.6 4-1.6.9-.4 1.8-.8 2.7-1.3 1.9-1.2 3.1-3.4 3.1-5.7 0-3.8-3.3-7-7.3-6.9z"/><path fill="#00A625" d="M108.2 155.6v-17.7h11.2v2.5H111v5.1h6.8v2.5H111v5.2h8.4v2.5h-11.2v-.1zm21.8-12.9h2.8v13H130v-.9c-1.1.7-2.3 1.1-3.5 1.1-1.8 0-3-.4-3.5-1.4-.7-1.6-1-3.4-.8-5.1v-6.8h2.8v6.8c-.1 1.1.1 2.1.4 3.1.3.6.8.9 1.8.9.9 0 1.8-.1 2.5-.6l.4-.1v-10.1h-.1v.1zm6.3 12.9v-13h2.8v1.6c1.3-.9 2.8-1.5 4.4-1.8v2.8c-1.3.2-2.6.6-3.8 1.1l-.6.3v9.1h-2.8v-.1zm10-11.6c1.2-1.3 2.8-1.9 4.5-1.7 1.7-.2 3.4.5 4.5 1.7 1.7 3.2 1.7 7 0 10.2-2.6 2.3-6.5 2.3-9.1 0-1-1.5-1.4-3.3-1.3-5.1-.1-1.8.3-3.6 1.4-5.1zm2.2 8.5c.4.7 1.1 1 2.4 1 .9.1 1.8-.3 2.4-1 .5-1.1.7-2.2.6-3.4.1-1.2-.2-2.3-.7-3.4-1.2-1.3-3.1-1.3-4.4-.2l-.2.2c-.5 1.1-.8 2.2-.7 3.4-.2 1.2 0 2.3.6 3.4zm10.9 8.8v-18.6h2.8v.8c1-.7 2.2-1.1 3.4-1.1 1.4-.1 2.9.5 3.8 1.6.8 1 1.1 2.8 1.1 5.2 0 2.4-.4 4.2-1.4 5.2-1.2 1.1-2.9 1.7-4.5 1.6-.8 0-1.6-.1-2.4-.3v5.5l-2.8.1zm5.6-16.5c-.8 0-1.7.2-2.4.6l-.4.1v7.6c.7.1 1.5.2 2.3.1.9.1 1.8-.3 2.4-1 .5-1.1.8-2.2.7-3.4 0-2.5-.9-4-2.6-4zm17.6 8.5l.7-.1v2.1c-1.7.4-3.5.6-5.2.6-1.5.1-3.1-.4-4.1-1.6-1-1.5-1.4-3.3-1.3-5.1 0-4.7 1.8-6.9 5.7-6.9 3.7 0 5.5 2 5.5 5.9l-.1 2h-8.1c0 .9.2 1.7.7 2.4.4.6 1.3.7 2.5.7 1.2.1 2.5.1 3.7 0zm-1.6-5.2c.1-.9-.1-1.9-.6-2.7-.6-.6-1.3-.8-2.1-.7-.8-.1-1.6.2-2.1.8-.5.8-.8 1.7-.7 2.7l5.5-.1zm5-4.4l1.1-6.1h3l-2 6.1H186zm15.3 1.6c-1.5-.2-2.9-.4-4.4-.4-.7 0-1.3.1-2 .3-.4.2-.6.6-.6 1-.1.4.2.8.6 1 .9.3 1.8.5 2.7.7 1.1.2 2.2.6 3.1 1.1.6.8.9 1.8.8 2.8.1 1.1-.4 2.3-1.3 3-1.1.8-2.5 1.1-3.8 1-1.3 0-2.7-.2-4-.4l-.8-.1.1-2.4c1.5.2 3 .4 4.5.4.7 0 1.3-.1 2-.3.6-.5.8-1.4.3-2l-.3-.3c-.9-.3-1.8-.5-2.7-.7-1.1-.1-2.2-.5-3.1-1.1-.7-.7-1.1-1.7-1-2.7-.1-1.2.5-2.3 1.4-3 1-.7 2.3-1.1 3.5-1 1.4 0 2.8.2 4.1.4l.8.1.1 2.6zm8.9 10.3v-18.4h2.8v18.4h-2.8zm15.7-2.3l.7-.1v2.1c-1.7.4-3.5.6-5.2.6-1.5.1-3.1-.4-4.1-1.6-1-1.5-1.4-3.3-1.3-5.1 0-4.7 1.8-6.9 5.7-6.9 3.7 0 5.5 2 5.5 5.9l-.1 2H219c0 .9.2 1.7.7 2.4.4.6 1.3.7 2.5.7 1.3.1 2.5.1 3.7 0zm-1.5-5.2c.1-.9-.1-1.9-.6-2.7-.6-.6-1.3-.8-2.1-.7-.8-.1-1.6.2-2.1.9-.5.8-.8 1.7-.7 2.7h5.5v-.2zm15.1-1.4v5.9c-.1.5.3 1.1.8 1.1h.3l-.1 2.1c-1.2.1-2.4-.2-3.4-1-1.3.7-2.8 1-4.2 1-2.5 0-3.8-1.4-3.8-4.1-.1-1 .2-2.1 1-2.8 1-.7 2.1-1.1 3.3-1.1l3.4-.3v-1c.1-.5-.1-1-.4-1.4-.4-.3-.8-.5-1.3-.4-1.1 0-2.5 0-4.1.1h-.8l-.1-1.8c1.7-.4 3.5-.7 5.2-.7 1.2-.1 2.4.2 3.4 1 .6.9.9 2.2.8 3.4zm-5.8 3.2c-1 0-1.8.8-1.8 1.8v.2c0 1.1.6 1.8 1.6 1.8.9 0 1.8-.1 2.7-.4l.4-.1v-3.4l-2.9.1zm20-12.7v18.4h-2.8v-.7c-1.1.6-2.3 1-3.5 1-1.4.1-2.8-.5-3.7-1.6-.8-1-1.1-2.7-1.1-5.1-.1-1.8.3-3.7 1.3-5.2 1-1.2 2.5-1.8 4.1-1.7.6 0 1.6.1 3 .3V137h2.8l-.1.2zm-3.3 15.7l.4-.1v-7.6c-.9-.2-1.9-.3-2.8-.3-1.7 0-2.7 1.4-2.7 4.4-.1 1.1.1 2.2.6 3.3.4.7 1.2 1 2 1 .9-.2 1.7-.3 2.5-.7zm6.8-12.5v-3h2.8v3h-2.8zm0 15.2v-13h2.8v13h-2.8zm9.1 0h-2.8v-13h2.8v.9c1.1-.7 2.3-1.1 3.5-1.1 1.3-.2 2.7.3 3.5 1.4.7 1.5 1.1 3.2 1 4.8v6.9h-2.8v-6.9c.1-1-.1-2-.4-3-.4-.6-1.1-.9-1.8-.9-.9 0-1.8.2-2.5.6l-.4.1v10.2h-.1zm22.7 1.8c0 2.8-2.1 4.2-6.2 4.2-1.5.1-3-.2-4.4-.9-1-.6-1.6-1.8-1.4-3 0-.6.1-1.2.4-1.7.4-.6 1-1.1 1.6-1.6-.6-.4-.9-1.1-.9-1.8.1-.6.4-1.2.7-1.7l.3-.4c-1.3-.8-2.1-2.4-1.8-4-.1-1.3.4-2.6 1.4-3.4 1.1-.8 2.5-1.2 3.8-1.1.8 0 1.5.1 2.3.3l.4.1 4-.1v2.3l-2.1-.1c.5.6.7 1.4.7 2.1.1 1.3-.3 2.6-1.3 3.5-1.2.8-2.6 1.1-4 1-.4 0-.8 0-1.1-.1-.3.4-.4.9-.4 1.4 0 .3.1.6.4.7.7.2 1.5.2 2.3.1 1.5-.2 3 .1 4.2.8.8 1 1.2 2.2 1.1 3.4zm-9.2.3c0 .5.3 1 .7 1.3.8.4 1.7.5 2.5.4 2.1 0 3.1-.6 3.1-1.8 0-.7-.1-1.1-.6-1.3-.7-.2-1.5-.3-2.3-.3l-2.5-.1c-.4.2-.6.5-.8.9 0 .2-.1.5-.1.9zm.8-9c1.1.8 2.6.8 3.7 0 .4-.5.6-1.1.6-1.7 0-.8-.1-1.4-.6-1.7-.5-.4-1.2-.6-1.8-.6-1.6 0-2.4.7-2.4 2.3-.1.6.1 1.2.5 1.7zm25.5-3.4c-1.5-.2-2.9-.4-4.4-.4-.7 0-1.3.1-2 .3-.4.2-.6.6-.6 1-.1.4.2.8.6 1 .9.3 1.8.5 2.7.7 1.1.2 2.2.6 3.1 1.1.6.8.9 1.8.9 2.8.1 1.1-.4 2.3-1.3 3-1.1.8-2.5 1.1-3.8 1-1.3 0-2.7-.2-4-.4l-.9-.1.1-2.4c1.5.2 3 .4 4.5.4.7 0 1.3-.1 2-.3.6-.5.8-1.4.3-2l-.3-.3c-.9-.3-1.8-.5-2.7-.7-1.1-.1-2.2-.5-3.1-1.1-.7-.7-1.1-1.7-1-2.7-.1-1.2.5-2.3 1.4-3 1-.7 2.3-1.1 3.5-1 1.4 0 2.8.2 4.1.4l.9.1v2.6zm11.1-2.6h2.8v13h-2.8v-.9c-1.1.7-2.3 1.1-3.5 1.1-1.8 0-3-.4-3.5-1.4-.7-1.6-1-3.4-.8-5.1v-6.8h2.8v6.8c-.1 1.1.1 2.1.4 3.1.3.6.9.9 1.8.9s1.8-.1 2.5-.6l.4-.1v-10.1h-.1v.1zm6.2 18.6v-18.6h2.8v.8c1-.7 2.2-1.1 3.4-1.1 1.4-.1 2.9.5 3.8 1.6.8 1 1.1 2.8 1.1 5.2 0 2.4-.4 4.2-1.4 5.2-1.2 1.1-2.9 1.7-4.5 1.6-.8 0-1.6-.1-2.4-.3v5.5l-2.8.1zm5.7-16.5c-.8 0-1.7.2-2.4.6l-.4.1v7.6c.7.1 1.5.2 2.3.1.9.1 1.8-.3 2.4-1 .5-1.1.8-2.2.7-3.4-.1-2.5-.9-4-2.6-4zm8.3 16.5v-18.6h2.8v.8c1-.7 2.2-1.1 3.4-1.1 1.4-.1 2.9.5 3.8 1.6.9 1 1.1 2.8 1.1 5.2 0 2.4-.4 4.2-1.4 5.2-1.2 1.1-2.9 1.7-4.5 1.6-.8 0-1.6-.1-2.4-.3v5.5l-2.8.1zm5.7-16.5c-.8 0-1.7.2-2.4.6l-.4.1v7.6c.7.1 1.5.2 2.3.1.9.1 1.8-.3 2.4-1 .5-1.1.8-2.2.7-3.4-.1-2.5-.9-4-2.6-4zm8.4 10.8v-18.4h2.8v18.4h-2.8zm6.5-15.2v-3h2.8v3H358zm0 15.2v-13h2.8v13H358zm15.4-2.3l.7-.1v2.1c-1.7.4-3.5.6-5.2.6-1.5.1-3.1-.4-4.1-1.6-1-1.5-1.4-3.3-1.3-5.1 0-4.7 1.8-6.9 5.7-6.9 3.7 0 5.5 2 5.5 5.9l-.1 2h-8.1c0 .9.2 1.7.7 2.4.4.6 1.3.7 2.5.7 1.3.1 2.5.1 3.7 0zm-1.5-5.2c.1-.9-.1-1.9-.6-2.7-.6-.6-1.3-.8-2.1-.7-.8-.1-1.6.2-2.1.8-.5.8-.8 1.7-.7 2.7l5.5-.1zm5.5 7.5v-13h2.8v1.6c1.3-.9 2.8-1.5 4.4-1.8v2.8c-1.3.2-2.6.6-3.8 1.1l-.6.3v9.1h-2.8v-.1zm15.8-11.6c1.2-1.3 2.8-1.9 4.5-1.7 1.7-.2 3.4.5 4.5 1.7 1.7 3.2 1.7 7 0 10.2-2.6 2.3-6.5 2.3-9.1 0-1.6-3.2-1.6-7 .1-10.2zm2.2 8.5c.4.7 1.1 1 2.4 1 .9.1 1.8-.3 2.4-1 .5-1.1.7-2.2.6-3.4.1-1.2-.2-2.3-.7-3.4-1.2-1.3-3.1-1.3-4.4-.2l-.2.2c-.5 1.1-.8 2.2-.7 3.4-.1 1.2.1 2.3.6 3.4zm14.3-7.4v10.6h-2.8v-10.6h-1.6v-2.4h1.6v-.8c-.1-1.3.2-2.7.9-3.8.7-.7 1.8-1.1 2.8-1l2.8.3v2.3h-2.1c-.6 0-1 .1-1.1.6-.2.6-.3 1.2-.3 1.8v.8h3.4v2.4h-3.5l-.1-.2zm21.9-7.9v18.4h-2.8v-.7c-1.1.6-2.3 1-3.5 1-1.4.1-2.8-.5-3.7-1.6-.8-1-1.1-2.7-1.1-5.1-.1-1.8.3-3.7 1.3-5.2 1-1.2 2.5-1.8 4.1-1.7.6 0 1.6.1 3 .3V137h2.8l-.1.2zm-3.2 15.7l.4-.1v-7.6c-.9-.2-1.9-.3-2.8-.3-1.7 0-2.7 1.4-2.7 4.4-.1 1.1.1 2.2.6 3.3.4.7 1.2 1 2 1 .8-.2 1.7-.3 2.5-.7zm6.6 2.7v-13h2.8v1.6c1.3-.9 2.8-1.5 4.4-1.8v2.8c-1.3.2-2.6.6-3.8 1.1l-.6.3v9.1H435v-.1zm9.5-15.2v-3h2.8v3h-2.8zm0 15.2v-13h2.8v13h-2.8zm5-12.9h3l2.5 10.6h.9l2.5-10.6h2.8l-3.4 13h-5.1l-3.2-13zm14-2.3v-3h2.8v3h-2.8zm0 15.2v-13h2.8v13h-2.8zm9.2 0h-2.8v-13h2.8v.8c1.1-.7 2.3-1.1 3.5-1.1 1.3-.2 2.7.3 3.5 1.4.7 1.5 1.1 3.2 1 4.8v6.9H478v-6.9c.1-1-.1-2-.4-3-.4-.6-1.1-.9-1.8-.8-.9 0-1.8.2-2.5.6l-.4.1-.2 10.2zm22.7 1.8c0 2.8-2.1 4.2-6.2 4.2-1.5.1-3-.2-4.4-.8-1-.6-1.6-1.8-1.4-3 0-.6.1-1.2.4-1.7.4-.6 1-1.1 1.6-1.6-.6-.4-.9-1.1-.9-1.8.1-.6.4-1.2.7-1.7l.3-.4c-1.3-.8-2.1-2.4-1.8-4-.1-1.3.4-2.6 1.4-3.4 1.1-.8 2.5-1.2 3.8-1.1.8 0 1.5.1 2.3.3l.4.1 4-.1v2.3l-2.1-.1c.5.6.7 1.4.7 2.1.1 1.3-.3 2.6-1.3 3.5-1.2.8-2.6 1.1-4 1-.4 0-.8 0-1.1-.1-.3.4-.4.9-.4 1.4 0 .3.1.6.4.7.7.2 1.5.2 2.3.1 1.5-.2 3 .1 4.2.8.8 1 1.2 2.1 1.1 3.3zm-9.2.3c0 .5.3 1 .7 1.3.8.4 1.7.5 2.5.4 2.1 0 3.1-.6 3.1-1.8 0-.7-.1-1.1-.6-1.3-.7-.2-1.5-.3-2.3-.3l-2.5-.1c-.4.2-.6.5-.9.8.1.3 0 .6 0 1zm.8-9c1.1.8 2.6.8 3.7 0 .4-.5.6-1.1.6-1.7 0-.9-.1-1.4-.6-1.7-.5-.4-1.2-.6-1.8-.6-1.6 0-2.4.7-2.4 2.3-.1.6.1 1.2.5 1.7zm25.7 4.6l.7-.1v2.1c-1.7.4-3.5.6-5.2.6-1.5.1-3.1-.4-4.1-1.6-1-1.5-1.4-3.3-1.3-5.1 0-4.7 1.8-6.9 5.7-6.9 3.7 0 5.5 2 5.5 5.9l-.1 2h-8.1c0 .9.2 1.7.7 2.4.4.6 1.3.7 2.5.7 1.2.1 2.4.1 3.7 0zm-1.6-5.2c.1-.9-.1-1.9-.6-2.7-.6-.6-1.3-.8-2.1-.7-.8-.1-1.6.2-2.1.8-.5.8-.8 1.7-.7 2.7l5.5-.1zm5.7 7.5v-18.4h2.8v18.4h-2.8zm15.7-2.3l.7-.1v2.1c-1.7.4-3.5.6-5.2.6-1.5.1-3.1-.4-4.1-1.6-1-1.5-1.4-3.3-1.3-5.1 0-4.7 1.8-6.9 5.7-6.9 3.7 0 5.5 2 5.5 5.9l-.1 2h-8.1c0 .9.2 1.7.7 2.4.4.6 1.3.7 2.5.7 1.2.1 2.5.1 3.7 0zm-1.6-5.2c.1-.9-.1-1.9-.6-2.7-.6-.6-1.3-.8-2.1-.7-.8-.1-1.6.2-2.1.8-.5.8-.8 1.7-.7 2.7l5.5-.1zm10.4-5.7c1.1 0 2.2.2 3.3.4l.7.1-.1 2.3c-1-.1-2-.1-3-.1-1-.1-2 .2-2.7.9-.6 1-.8 2.2-.7 3.4-.1 1.2.2 2.4.7 3.4.7.7 1.7 1.1 2.7 1l3-.1.1 2.3c-1.3.2-2.6.4-4 .4-1.5.2-3.1-.4-4.1-1.6-1-1.6-1.4-3.4-1.3-5.2-.1-1.8.3-3.7 1.3-5.2.9-1.5 2.5-2.2 4.1-2zm13.6 2.7h-3.5v5.7c0 .7.1 1.4.3 2.1.1.4.6.6 1.1.6l2.1-.1.1 2.3c-.9.2-1.8.3-2.7.3-1.4 0-2.5-.3-3-1-.6-1.2-.9-2.5-.8-3.8V145h-1.7v-2.4h1.7v-3.8h2.8v3.8h3.5v2.5h.1zm2.4 10.5v-13h2.8v1.6c1.3-.9 2.8-1.5 4.4-1.8v2.8c-1.3.2-2.6.6-3.8 1.1l-.6.3v9.1h-2.8v-.1zm9.9-11.6c1.2-1.3 2.8-1.9 4.5-1.7 1.7-.2 3.4.5 4.5 1.7 1 1.5 1.5 3.3 1.3 5.1.1 1.8-.3 3.6-1.3 5.1-2.6 2.3-6.5 2.3-9.1 0-1.6-3.2-1.6-7 .1-10.2zm2.1 8.5c.4.7 1.1 1 2.4 1 1.3 0 2-.3 2.4-1 .5-1.1.7-2.2.6-3.4.1-1.2-.2-2.3-.7-3.4-1.2-1.3-3.1-1.3-4.4-.2l-.2.2c-.5 1.1-.8 2.2-.7 3.4 0 1.1.2 2.3.6 3.4zm13.9 3.1h-2.8v-13h2.8v.8c1.1-.7 2.3-1.1 3.5-1.1 1.3-.2 2.7.3 3.5 1.4.7 1.5 1.1 3.2 1 4.8v6.9h-2.8v-6.9c.1-1-.1-2-.4-3-.4-.6-1.1-.9-1.8-.9-.9 0-1.8.2-2.5.6l-.4.1-.1 10.3zm11.4-15.2v-3h2.8v3h-2.8zm0 15.2v-13h2.8v13h-2.8zm11.1-13.2c1.1 0 2.2.2 3.3.4l.7.1-.1 2.3c-1-.1-2-.1-3-.1-1-.1-2 .2-2.7.9-.6 1-.8 2.2-.7 3.4-.1 1.2.2 2.4.7 3.4.7.7 1.7 1.1 2.7 1l3-.1.1 2.3c-1.3.2-2.6.4-4 .4-1.5.2-3.1-.4-4.1-1.6-1-1.6-1.4-3.4-1.3-5.2-.1-1.8.3-3.7 1.3-5.2.7-1.5 2.2-2 4.1-2zm15.6 2.9c-1.5-.2-2.9-.4-4.4-.4-.6 0-1.3.1-1.8.3-.3.2-.6.6-.6 1-.1.4.2.8.6 1 .9.3 1.8.5 2.7.7 1.1.2 2.2.6 3.1 1.1.6.8.9 1.8.8 2.8.1 1.1-.4 2.3-1.3 3-1.2.7-2.5 1-3.8 1s-2.7-.2-4-.4l-.8-.1.1-2.4c1.5.2 3 .4 4.5.4.7 0 1.3-.1 2-.3.4-.1.6-.6.6-1.1.1-.5-.2-.9-.6-1.1-.9-.3-1.8-.5-2.7-.7-1.1-.1-2.2-.5-3.1-1.1-.7-.7-1.1-1.7-1-2.7-.1-1.2.5-2.3 1.4-3 1-.7 2.3-1.1 3.5-1 1.4 0 2.8.2 4.1.4l.8.1-.1 2.5z"/><path fill="#9D9EA0" d="M108.1 122.1v-18.4h11.4v2.6H111v6.2h7v2.6h-7v7h-2.9zm14.4-12c1.2-1.3 2.9-1.9 4.6-1.7 1.7-.2 3.4.5 4.6 1.8 1 1.5 1.5 3.4 1.4 5.2.1 1.9-.3 3.7-1.3 5.3-1.2 1.3-2.9 2-4.7 1.8-1.7.2-3.5-.5-4.7-1.8-1-1.6-1.5-3.4-1.3-5.3-.2-1.9.3-3.7 1.4-5.3zm2.2 8.8c1.2 1.3 3.3 1.4 4.6.2l.2-.2c.5-1.1.7-2.3.6-3.5.1-1.2-.1-2.4-.7-3.5-1.3-1.3-3.3-1.4-4.6-.1l-.1.1c-.5 1.1-.8 2.3-.7 3.5 0 1.2.2 2.4.7 3.5zm11.5 3.2v-13.5h2.9v1.6c1.4-.9 2.9-1.6 4.6-1.9v2.9c-1.4.2-2.7.6-4 1.2l-.6.2v9.4l-2.9.1zm16.1 5.8v-19.2h2.9v.8c1-.7 2.2-1.1 3.5-1.1 1.5-.1 2.9.5 3.9 1.6 1 1.6 1.4 3.6 1.2 5.5.2 1.9-.3 3.8-1.4 5.4-1.2 1.2-2.9 1.7-4.6 1.6-.9 0-1.7-.1-2.6-.2v5.7l-2.9-.1zm5.8-16.9c-.9 0-1.7.2-2.5.6l-.4.2v7.9c.8.1 1.6.2 2.4.2 1 .1 1.9-.3 2.5-1.1.6-1.1.8-2.3.7-3.6 0-2.8-.9-4.2-2.7-4.2zm8.8 11.1v-13.5h2.9v1.6c1.4-.9 2.9-1.6 4.6-1.9v2.9c-1.4.2-2.7.6-4 1.2l-.6.2v9.4l-2.9.1zm10.6-12c2.6-2.3 6.6-2.3 9.2 0 1 1.5 1.5 3.4 1.4 5.2.1 1.9-.3 3.7-1.3 5.3-2.7 2.4-6.7 2.4-9.3 0-1-1.6-1.5-3.4-1.3-5.3-.2-1.8.3-3.6 1.3-5.2zm2.2 8.8c1.2 1.3 3.3 1.4 4.6.2l.2-.2c.5-1.1.7-2.3.6-3.5.1-1.2-.1-2.4-.7-3.5-1.3-1.3-3.3-1.4-4.6-.1l-.1.1c-.5 1.1-.8 2.3-.7 3.5 0 1.2.2 2.4.7 3.5zm15.1-7.7v11h-2.9v-11h-1.6v-2.5h1.6v-.9c-.1-1.4.2-2.8.8-4 .8-.8 1.9-1.2 3-1.1l2.9.3v2.4c-.9 0-1.6-.1-2.2-.1-.5-.1-.9.1-1.2.5-.3.6-.4 1.3-.4 1.9v.8h3.6v2.5l-3.6.2zm15.4 8.5l.8-.1.1 2.2c-1.8.4-3.6.6-5.4.6-1.6.2-3.2-.5-4.3-1.6-1-1.6-1.5-3.4-1.3-5.2 0-4.8 1.9-7.2 5.8-7.2 3.8 0 5.7 2.1 5.7 6.2l-.2 2.1h-8.3c-.1.9.2 1.7.7 2.4.7.6 1.7.9 2.6.8 1.1 0 2.5-.1 3.8-.2zm-1.6-5.3c.1-1-.1-1.9-.6-2.8-.6-.6-1.3-.9-2.1-.8-.8-.1-1.6.2-2.2.8-.5.8-.8 1.8-.7 2.7l5.6.1zm15.2-3c-1.5-.2-3.1-.4-4.6-.4-.7-.1-1.4.1-2 .3-.4.2-.6.6-.6 1.1 0 .4.2.8.6 1 .9.3 1.9.6 2.9.7 1.2.1 2.3.5 3.2 1.2.7.8 1.1 1.9.9 3 .1 1.2-.4 2.4-1.4 3.1-1.2.7-2.6 1.1-4 1-1.4 0-2.8-.2-4.1-.5l-.8-.1.1-2.5c1.5.2 3.1.4 4.7.4.7 0 1.4-.1 2-.4.4-.2.6-.7.6-1.2s-.2-.9-.6-1.1c-.9-.3-1.8-.6-2.8-.7-1.1-.1-2.2-.5-3.2-1.1-.8-.7-1.1-1.8-1-2.9-.1-1.2.4-2.4 1.4-3.1 1.1-.7 2.3-1.1 3.6-1 1.4 0 2.8.2 4.2.4l.8.2.1 2.6zm12.9 0c-1.5-.2-3.1-.4-4.6-.4-.7-.1-1.4.1-2 .3-.4.2-.6.6-.6 1.1 0 .4.2.8.6 1 .9.3 1.9.6 2.9.7 1.2.1 2.3.5 3.2 1.2.7.8 1.1 1.9.9 3 .1 1.2-.4 2.4-1.4 3.1-1.2.7-2.6 1.1-4 1-1.4 0-2.8-.2-4.1-.5l-.8-.1.1-2.5c1.5.2 3.1.4 4.7.4.7 0 1.4-.1 2-.4.4-.2.6-.7.6-1.2s-.2-.9-.6-1.1c-.9-.3-1.8-.6-2.8-.7-1.1-.1-2.2-.5-3.2-1.1-.8-.7-1.1-1.8-1-2.9-.1-1.2.4-2.4 1.4-3.1 1.1-.7 2.3-1.1 3.6-1 1.4 0 2.8.2 4.2.4l.8.2.1 2.6zm3.5-5v-3.1h2.9v3.1h-2.9zm0 15.7v-13.5h2.9v13.5h-2.9zm7.4-12c2.6-2.3 6.6-2.3 9.2 0 1 1.5 1.5 3.4 1.4 5.2.1 1.9-.3 3.7-1.3 5.3-2.7 2.4-6.7 2.4-9.3 0-1-1.6-1.5-3.4-1.3-5.3-.2-1.8.3-3.6 1.3-5.2zm2.2 8.8c1.2 1.3 3.3 1.4 4.6.2l.2-.2c.5-1.1.7-2.3.6-3.5.1-1.2-.1-2.4-.7-3.5-1.3-1.3-3.3-1.4-4.6-.1l-.1.1c-.5 1.1-.8 2.3-.7 3.5 0 1.2.2 2.4.7 3.5zm14.5 3.2h-2.9v-13.5h2.9v.8c1.1-.7 2.4-1.1 3.7-1.1 1.4-.2 2.8.4 3.7 1.5.8 1.6 1.1 3.3 1 5v7.2h-2.9v-7c.1-1.1-.1-2.1-.5-3.1-.4-.7-1.2-1-1.9-.9-.9 0-1.8.2-2.6.5l-.4.2v10.4h-.1zm21.9-9.3v6.1c0 .3.1.6.3.9.2.2.6.3.9.4l-.1 2.2c-1.3.1-2.5-.3-3.6-1-1.4.6-2.8 1-4.3 1-2.7 0-4-1.4-4-4.3-.1-1.1.3-2.2 1.1-3 1-.7 2.1-1.1 3.4-1.1l3.5-.3v-1c.2-.9-.4-1.7-1.3-1.9h-.6c-1.1 0-2.6.1-4.3.2l-.9.1-.1-2.1c1.8-.4 3.6-.7 5.4-.7 1.3-.1 2.6.3 3.6 1.1.8 1 1.1 2.2 1 3.4zm-6 3.4c-1 0-1.8.8-1.9 1.8v.3c0 1.2.5 1.9 1.6 1.9 1 0 1.9-.2 2.9-.4l.5-.2V116l-3.1.2zm10.1 5.9V103h2.9v19.1h-2.9zm24-19v19.1h-2.9v-.7c-1.1.6-2.3 1-3.6 1-1.5.1-2.9-.5-3.9-1.6-1-1.6-1.4-3.5-1.2-5.3-.2-1.9.3-3.8 1.4-5.4 1.1-1.2 2.6-1.8 4.2-1.7 1 0 2.1.2 3.1.4v-5.7l2.9-.1zm-3.4 16.2l.5-.2v-8c-1-.2-2-.3-3-.3-1.8 0-2.7 1.5-2.7 4.5-.1 1.2.1 2.4.6 3.4.5.7 1.2 1 2 1 .9.1 1.8 0 2.6-.4zm7.1 2.8v-13.5h2.9v1.6c1.4-.9 2.9-1.6 4.6-1.9v2.9c-1.4.2-2.7.6-4 1.2l-.6.2v9.4l-2.9.1zm10-15.7v-3.1h2.9v3.1H328zm0 15.7v-13.5h2.9v13.5H328zm5.4-13.4h3.1l2.6 11h.9l2.7-11h3l-3.5 13.5H337l-3.6-13.5zm14.7-2.3v-3.1h2.9v3.1h-2.9zm0 15.7v-13.5h2.9v13.5h-2.9zm9.7 0h-2.9v-13.5h2.9v.8c1.1-.7 2.4-1.1 3.7-1.1 1.4-.2 2.8.4 3.7 1.5.8 1.6 1.1 3.3 1 5v7.2h-2.9v-7c.1-1.1-.1-2.1-.5-3.1-.4-.7-1.2-1-1.9-.9-.9 0-1.8.2-2.6.5l-.4.2-.1 10.4zm23.7 1.9c0 2.9-2.1 4.4-6.4 4.4-1.6.1-3.1-.2-4.6-.8-1-.6-1.6-1.8-1.5-3 0-.6.2-1.2.5-1.7.4-.6 1-1.1 1.6-1.5-.6-.5-1-1.2-.9-2 .1-.6.4-1.2.7-1.8l.2-.4c-1.3-.9-2.1-2.4-1.9-4-.1-1.3.4-2.7 1.5-3.6 1.1-.8 2.5-1.2 3.9-1.1.8 0 1.6.1 2.3.3l.4.1 4.2-.1v2.4l-2.2-.1c.5.6.7 1.4.7 2.2.2 1.4-.3 2.7-1.3 3.6-1.2.8-2.7 1.1-4.2 1-.4 0-.8 0-1.2-.1-.2.4-.3.9-.4 1.4 0 .3.2.6.5.7.8.2 1.6.2 2.4.2 1.5-.1 3 .2 4.4.9 1 .6 1.4 1.8 1.3 3zm-9.5.2c0 .6.3 1.1.8 1.3.8.3 1.7.5 2.6.4 2.2 0 3.3-.6 3.3-1.9 0-.7-.2-1.1-.6-1.3-.7-.2-1.5-.4-2.3-.3l-2.6-.2c-.3.3-.6.6-.8.9-.4.4-.4.8-.4 1.1zm.8-9.3c.5.4 1.2.6 1.9.6.7.1 1.4-.1 1.9-.6.4-.5.6-1.2.6-1.8.1-.7-.2-1.3-.6-1.8-.5-.4-1.2-.6-1.9-.6-1.2-.2-2.3.6-2.5 1.8v.6c-.1.6.1 1.3.6 1.8zm27.4-2.1v6.1c0 .3.1.6.3.9.2.2.6.3.9.4l-.1 2.2c-1.3.1-2.5-.3-3.6-1-1.4.6-2.8 1-4.3 1-2.7 0-4-1.4-4-4.3-.1-1.1.3-2.2 1.1-3 1-.7 2.1-1.1 3.4-1.1l3.5-.3v-1c.2-.9-.4-1.7-1.3-1.9h-.6c-1.1 0-2.6.1-4.3.2l-.9.1-.1-2.1c1.8-.4 3.6-.7 5.4-.7 1.3-.1 2.6.3 3.6 1.1.7 1 1.1 2.2 1 3.4zm-6.1 3.4c-1 0-1.8.8-1.9 1.8v.3c0 1.2.5 1.9 1.6 1.9 1 0 1.9-.2 2.9-.4l.5-.2V116l-3.1.2zm12.9 5.9h-2.9v-13.5h2.9v.8c1.1-.7 2.4-1.1 3.7-1.1 1.4-.2 2.8.4 3.7 1.5.8 1.6 1.1 3.3 1 5v7.2h-2.9v-7c.1-1.1-.1-2.1-.5-3.1-.4-.7-1.2-1-1.9-.9-.9 0-1.8.2-2.6.5l-.4.2-.1 10.4zm23-19v19.1h-2.9v-.7c-1.1.6-2.3 1-3.6 1-1.5.1-2.9-.5-3.9-1.6-1-1.6-1.4-3.5-1.2-5.3-.2-1.9.3-3.8 1.4-5.4 1.1-1.2 2.6-1.8 4.2-1.7 1 0 2.1.2 3.1.4v-5.7l2.9-.1zm-3.4 16.2l.5-.2v-8c-1-.2-2-.3-3-.3-1.8 0-2.7 1.5-2.7 4.5-.1 1.2.1 2.4.6 3.4.5.7 1.2 1 2 1 .9.1 1.7 0 2.6-.4zm14-9.2c2.6-2.3 6.6-2.3 9.2 0 1 1.5 1.5 3.4 1.4 5.2.1 1.9-.3 3.7-1.3 5.3-2.7 2.4-6.7 2.4-9.3 0-1-1.6-1.5-3.4-1.3-5.3-.2-1.8.3-3.6 1.3-5.2zm2.2 8.8c1.2 1.3 3.3 1.4 4.6.2l.2-.2c.5-1.1.7-2.3.6-3.5.1-1.2-.1-2.4-.7-3.5-1.3-1.3-3.3-1.4-4.6-.1l-.1.1c-.5 1.1-.8 2.3-.7 3.5 0 1.2.2 2.4.7 3.5zm19.7-10.2h2.9v13.5h-2.9v-.8c-1.1.7-2.3 1.1-3.6 1.1-1.4.2-2.8-.4-3.7-1.5-.8-1.6-1.1-3.4-.9-5.2v-7h2.9v7.1c-.1 1.1.1 2.2.4 3.3.3.6.9.8 1.9.8.9 0 1.8-.2 2.7-.5l.4-.2-.1-10.6zm13.9 2.5h-3.7v5.9c0 .7 0 1.5.2 2.2.2.4.6.5 1.2.5l2.2-.1.1 2.3c-.9.2-1.8.3-2.7.4-1.1.1-2.3-.2-3.1-1.1-.7-1.2-1-2.6-.8-4v-6.2h-1.7v-2.5h1.7v-3.9h2.9v3.9h3.7v2.6zm13.6-8.1v19.1h-2.9v-.7c-1.1.6-2.3 1-3.6 1-1.5.1-2.9-.5-3.9-1.6-1-1.6-1.4-3.5-1.2-5.3-.2-1.9.3-3.8 1.4-5.4 1.1-1.2 2.6-1.8 4.2-1.7 1 0 2.1.2 3.1.4v-5.7l2.9-.1zm-3.4 16.2l.5-.2v-8c-1-.2-2-.3-3-.3-1.8 0-2.7 1.5-2.7 4.5-.1 1.2.1 2.4.6 3.4.5.7 1.2 1 2 1 .9.1 1.8 0 2.6-.4zm7.9-9.2c2.6-2.3 6.6-2.3 9.2 0 1 1.5 1.5 3.4 1.4 5.2.1 1.9-.3 3.7-1.3 5.3-2.7 2.4-6.7 2.4-9.3 0-1-1.6-1.5-3.4-1.3-5.3-.2-1.8.3-3.6 1.3-5.2zm2.2 8.8c1.2 1.3 3.3 1.4 4.6.2l.2-.2c.5-1.1.7-2.3.6-3.5.1-1.2-.1-2.4-.7-3.5-1.3-1.3-3.3-1.4-4.6-.1l-.1.1c-.5 1.1-.8 2.3-.7 3.5 0 1.2.2 2.4.7 3.5zm12.3-8.8c2.6-2.3 6.6-2.3 9.2 0 1 1.5 1.5 3.4 1.4 5.2.1 1.9-.3 3.7-1.3 5.3-2.7 2.4-6.7 2.4-9.3 0-1-1.6-1.5-3.4-1.3-5.3-.2-1.8.3-3.6 1.3-5.2zm2.2 8.8c1.2 1.3 3.3 1.4 4.6.2l.2-.2c.5-1.1.7-2.3.6-3.5.1-1.2-.1-2.4-.7-3.5-1.3-1.3-3.3-1.4-4.6-.1l-.1.1c-.5 1.1-.8 2.3-.7 3.5 0 1.2.2 2.4.7 3.5zm11.5 3.2v-13.5h2.9v1.6c1.4-.9 2.9-1.6 4.6-1.9v2.9c-1.4.2-2.7.6-4 1.2l-.6.2v9.4l-2.9.1z"/></svg>