<svg xmlns="http://www.w3.org/2000/svg" viewBox="0 0 426.099 425.507" height="425.507" width="426.099"><path style="line-height:0;-inkscape-font-specification:'Eras Bold ITC';text-align:center" d="M287.895 413.117c-.322-47.706.262-89.82 0-132.374 26.012-.213 45.166-.799 68.889 0 43.856-.642 55.681 33.666 54.389 70.47-.836 23.801-7.961 45.421-24.48 54.64-13.27 7.853-26.207 6.353-47.597 7.264-10.86.362-35.644.642-51.2 0zm41.037-36.098h23.83c25.903-7.646 24.31-50.405.179-55.471 0 0-13.533-.434-24.227-.01-.155 25.148.155 30.172 0 55.32z" font-weight="400" font-family="Eras Bold ITC" letter-spacing="0" word-spacing="0" text-anchor="middle" fill="#833275"/><path d="M251.776 413.117V372.82h-37.695c-20.997-4.328-28.614-43.435-.755-51.658h38.45v-40.42h-48.95c-61.23 0-65.807 126.63 1.043 132.374z" fill="#833275"/><path d="M12.005 156.987V250.2h160.058c-14.22-48.16-57.964-86.934-160.058-93.212z" fill="#1b928e"/><path d="M12.005 106.552v25.531c95.909 12.974 175.474 38.72 188.725 117.662h71.32c-16.48-71.85-81.987-143.502-260.045-143.193z" fill="#1b938f"/><path d="M12.005 56.693v24.329c124.294 9.1 247.303 19.21 287.078 169.177h73.287C338.768 116.557 207.6 51.89 12.005 56.693z" fill="#1b928e"/><path style="line-height:0;-inkscape-font-specification:'Eras Bold ITC';text-align:center" d="M51.938 279.291c-7.031-.017-28.221.53-39.721.488.298 40.031.592 28.3 0 133.338h.642c13.68-.254 32.079-.172 45.784 0-.028-13.805-.052-26.879-.067-40.092 22.512-1.345 37.453.482 48.922-5.393 11.47-5.875 20.829-21.27 20.366-38.89-.523-19.904-5.599-34.917-16.645-42.72-11.046-7.803-29.425-6.58-59.281-6.731zm37.624 50.07c.476 18.096-17.416 15.48-30.81 15.461-.064-5.655-.127-26.29-.11-30.908 13.093.057 30.421-3.495 30.92 15.447z" font-weight="400" font-family="Eras Bold ITC" letter-spacing="0" word-spacing="0" text-anchor="middle" fill="#833275"/><path d="M12.005 11.339v16.82c355.687 8.24 372.814 150.204 387.097 222.04h15.338V11.34z" fill="#823174"/></svg>