<svg xmlns="http://www.w3.org/2000/svg" viewBox="0 0 652 652"><path d="M525.1 335.6c-9.8 0-17.8-8-17.8-17.8 0-9.9 8-17.8 17.8-17.8s17.8 8 17.8 17.8c.1 9.8-7.9 17.8-17.8 17.8m0-52.6c-19.2 0-34.8 15.6-34.8 34.8 0 19.2 15.6 34.8 34.8 34.8 19.2 0 34.8-15.6 34.8-34.8 0-19.3-15.6-34.8-34.8-34.8m-159.8 52.6c-9.8 0-17.8-8-17.8-17.8 0-9.9 8-17.8 17.8-17.8s17.8 8 17.8 17.8-8 17.8-17.8 17.8m0-52.6c-19.2 0-34.8 15.6-34.8 34.8 0 19.2 15.6 34.8 34.8 34.8 19.2 0 34.8-15.6 34.8-34.8-.1-19.3-15.6-34.8-34.8-34.8m122.8 53.6c-2.2.6-5.6 1.3-6.8 1.3-6 0-7.2-2.1-7.2-7.7V298h14.2v-13.4h-14.2v-19h-16l-3.4 19h-12c-9.1 0-16 5.6-20.4 14.3l-5.5-14.3h-11.5v66.7h19.6v-29c0-14.6 8.7-24 18.9-24.3h10.7v33.2c0 15.6 8 21.4 21 21.4 6.7 0 11.9-1.4 15-2.4l-2.4-13.6zm95.6-31v45.7h-19.1v-66.8h11.6l3.9 10.2"/><path d="M580 294.8c5.8-6.7 13.7-11.8 23-11.8 15.9 0 22.4 12.7 22.4 24.4v43.9h-19.6V308c0-5.7-4.8-8.8-9.9-8.8-5.5 0-9 3.2-12.1 6.5m-329.4-45.3h21.9l30 57.1v-57.1h18.1v90.9h-19.8l-32.1-62.9v62.9h-18.1zm371 24.2v1.3h1.8v6.3h1.5v-6.3h1.9v-1.3zm10.9 0l-1.3 5-1.4-5h-2v7.6h1.3v-6l1.6 6h1l1.6-6v6h1.2v-7.6z"/><path d="M278.1 404.9c0-5.8-1.8-12.6-8.4-12.6-3.1 0-5.9 1.4-8.4 4v19.1c2.3 2.5 4.4 3.8 7.6 3.8 5.9-.1 9.2-5.2 9.2-14.3M260 419.1l-1.4 4.3H255v-49.9h6.3v18.2c2.1-2.3 5.5-4.7 9.8-4.7 9.5 0 13.7 9.4 13.7 17.9 0 11.4-5.9 19.1-14.7 19.1-4.6 0-7.7-1.9-10.1-4.9m28.8-31.4h6.4s9 30.1 9 30.2l8.4-30.2h6.2l-12 38.4c-2.1 6.6-5.6 10.3-12.5 10.3-1.4 0-2.9-.2-4.3-.6l.8-4.5c.9.1 1.8.4 3 .4 3.7 0 6.5-1.7 7.9-6.1l-12.9-37.9zm48.7 30.5l3.1-4.4c3.1 2.3 7.5 4.8 14.1 4.8 6.5 0 10.3-3.1 10.3-8.5 0-6-4.6-7.9-11.2-10.2-7.1-2.5-13.6-5.7-13.6-14.8 0-8.1 6.4-12.5 14.8-12.5 6 0 9.5 1 13.4 3.2l-2.6 4.8c-3.1-1.7-6.4-2.7-10.9-2.7-5.3 0-8.9 2.1-8.9 7.1 0 5.3 3.5 7 10.8 9.6 7 2.4 14.4 5.5 14.4 15.3 0 8.7-6.2 13.9-16.4 13.9-8.3.2-14-2.8-17.3-5.6m37.3-30.5h6.4s9 30.1 9 30.2l8.4-30.2h6.2l-12 38.4c-2.1 6.6-5.6 10.3-12.5 10.3-1.4 0-2.9-.2-4.3-.6l.8-4.5c.9.1 1.8.4 3 .4 3.7 0 6.5-1.7 7.9-6.1l-12.9-37.9zm74.3-.7c7.2 0 9.1 6.1 9.1 12v24.4h-6.3V399c0-3.5-.6-6.7-4.9-6.7-2.9 0-6 1.8-9.1 4.9v26.2h-6.3V399c0-3.5-.6-6.7-4.9-6.7-3 0-6.2 2.1-9.1 5v26.1h-6.3v-35.7h3.7l1.6 5.8c3.3-3.6 7.3-6.5 12.1-6.5s6.8 2.6 8.2 6.2c3.3-3.7 7.6-6.2 12.2-6.2m38.2 18c-7.1 1.3-11.7 2.8-13.5 5-.9 1.1-1.1 2.1-1.1 3.6 0 3.5 1.7 5.5 5.5 5.5 3.6 0 6.8-1.8 9.1-3.5V405zm0-5.7c0-4.8-1.5-7.2-6.7-7.2-3.6 0-6.8 1.4-10.2 3.1l-2.3-4.2c3.7-2.3 7.7-4 12.9-4 8.9 0 12.4 4.8 12.4 12.8v23.7h-3.6l-1.6-4.3c-2.5 2.5-6.4 4.8-11 4.8-6.3 0-10.9-3.9-10.9-9.9 0-3.9 1.5-6.7 4.8-8.7 3.2-2 8.9-3.4 16.2-4.5v-1.6zm16.6-11.6h3.7l1.6 5.9c3.3-3.7 7.5-6.6 12.8-6.6 7.7 0 9.7 6.1 9.7 12v24.4h-6.3V399c0-3.5-.9-6.7-5.5-6.7-3.3 0-6.8 2.1-9.7 5.1v26h-6.3v-35.7zm34.5 4.4v-4.4h5.5l1.6-10.2h4.5v10.2h8v4.4h-8v22c0 3.3.6 5.1 4 5.1 1.4 0 2.5-.3 4.1-.7l.9 4.3c-1.4.6-3.6 1.1-5.8 1.1-6.5 0-9.4-3.1-9.4-9.5V392h-5.4zm47.6 11c-.2-7.5-2.7-11.4-7.7-11.4-4.5 0-7.5 3.5-8 11.4H586zm-6.8 15.9c4.1 0 6.7-1.6 9.7-3.5l2.6 3.8c-3.5 2.8-6.7 4.7-12.9 4.7-9.2 0-15.1-7.1-15.1-18.4 0-11 5.7-18.6 14.6-18.6 9.2 0 14.1 6.9 14.1 18.8v1.5H570c.5 7.6 3.2 11.7 9.2 11.7m18.8-13.2c0-9.2 4.1-18.8 15.1-18.8 4.6 0 8 1.1 11.2 3.8l-2.7 4.2c-2.3-1.7-5-2.9-8.4-2.9-7.5 0-8.6 7.7-8.6 13.8 0 5.9 1.3 13.1 8.8 13.1 3.6 0 6.1-1.4 8.5-3.4l3 3.7c-2.6 2.6-6.2 4.8-11.8 4.8-10.9-.1-15.1-9.4-15.1-18.3" fill="#a0a0a0"/><path d="M118.9 271.2c-19 0-36.9 7.4-50.4 20.9-13.5 13.5-20.9 31.4-20.9 50.4s7.4 36.9 20.9 50.4c13.5 13.5 31.4 20.9 50.4 20.9s36.9-7.4 50.4-20.9c13.4-13.5 20.8-31.4 20.9-50.4 0-19-7.4-36.9-20.9-50.4-13.5-13.4-31.4-20.9-50.4-20.9m0 175.5c-57.4 0-104.2-46.8-104.2-104.2 0-57.5 46.8-104.2 104.2-104.2 57.4 0 104.2 46.7 104.2 104.2 0 57.4-46.8 104.2-104.2 104.2m113.5-224.5h8.1v8.1h-8.1zm0-16.2h8.1v8.1h-8.1z" fill="#ffc20e"/><path fill="#fff" d="M209.6 230.3h7.6v7.9h-7.6z"/><path d="M194.5 245.9h7.7v7.6h-7.7zm22.6-7.7h8.5v7.6h-8.5zm-30.2.4h7.6v7.3h-7.6zm22.7 7.3h7.6v7.6h-7.6zm14.8-31.7h8v8.1h-8zm-14.8 8h14.8v8.1h-14.8zm-7.4 8.1h7.4v15.6h-7.4zm0 23.2v7.6h-7.7v-7.6h-12.7v5.5H175v6.8h7.6v7.6H175v-7.6h-8.1v11.9h-7.6v7.6h-5.1v7.6h-5.6c-6.3 9.3-21.9 38.3-26.7 50.1-17.1-23.8-30.4-33.2-40.8-36.6-5.6-1.7-12.4 4.4-3.1 14.1 21.5 23.7 28.3 43.2 34.8 58.9 3.5 8.2 19 9.5 22.1 1.1 6.6-17.7 16.2-37.7 27.6-54V318h6.1v-7.6h6.4v-8.9h7.6V293h-7.7v-7.8h7.7v7.8h7.5v-7.7h6V276h6.8v-6.4h6.5v-16.1h-7.2z"/></svg>