<svg xmlns="http://www.w3.org/2000/svg" width="189" height="63" viewBox="0 0 189 63"><path d="M108.6 22.8h-6.7V47h6.7zm.1-7.3c0 1.9-1.6 3.5-3.5 3.5s-3.5-1.6-3.5-3.5 1.6-3.5 3.5-3.5c2 0 3.5 1.5 3.5 3.5zm49.2 7.3h-6.7V47h6.7zm.1-7.3c0 1.9-1.6 3.5-3.5 3.5s-3.5-1.6-3.5-3.5 1.6-3.5 3.5-3.5c2 0 3.5 1.5 3.5 3.5zM42.2 32.6c0-6.5-4.6-11.8-10.3-11.8-2.7 0-5.2 1.2-7 3.1-1.8-1.9-4.3-3.1-7-3.1-5.7 0-10.3 5.3-10.3 11.8V47h6.6V32.7c0-3 1.6-5 3.7-5 2 0 3.7 1.9 3.7 5V47h6.6V32.7c0-3 1.7-5 3.7-5s3.7 1.9 3.7 5V47h6.6V32.6zm105.3 0c0-6.5-4.6-11.8-10.3-11.8-2.7 0-5.2 1.2-7 3.1-1.8-1.9-4.3-3.1-7-3.1-5.7 0-10.3 5.3-10.3 11.8V47h6.6V32.7c0-3 1.6-5 3.7-5 2 0 3.7 1.9 3.7 5V47h6.6V32.7c0-3 1.7-5 3.7-5s3.7 1.9 3.7 5V47h6.6V32.6zM57.4 20.8c-7.5 0-13.5 6-13.5 13.5s6 13.5 13.5 13.5c1.5 0 2.9-.2 4.2-.7v-7.5c-1.2.9-2.6 1.5-4.2 1.5-3.8 0-6.8-3-6.8-6.8s3-6.8 6.8-6.8 6.8 3 6.8 6.8V47h6.7V34.3c0-7.5-6.1-13.5-13.5-13.5zm125.9 7.7v-6.4c-4.4 0-8.2 2-10.7 5-2.5-3-6.3-5-10.7-5v6.4c3.8 0 6.8 2.9 6.8 6.4 0 3.6-3 6.4-6.8 6.4v6.4c4.4 0 8.2-2 10.7-5 2.5 3 6.3 5 10.7 5v-6.4c-3.8 0-6.8-2.9-6.8-6.4 0-3.5 3-6.4 6.8-6.4zm-97.1-7.7c-7.5 0-13.5 6-13.5 13.5s6 13.5 13.5 13.5c1.5 0 2.9-.2 4.2-.7v-7.5c-1.2.9-2.6 1.5-4.2 1.5-3.8 0-6.8-3-6.8-6.8s3-6.8 6.8-6.8 6.8 3 6.8 6.8v11c0 3.8-3 6.8-6.8 6.8s-7.2-.8-9.6-2v6.7c2.4 1.2 5.9 2 9.6 2 6.9 0 12.6-5.2 13.4-11.8l.1-1.7v-11c0-7.5-6-13.5-13.5-13.5z" fill-rule="evenodd" clip-rule="evenodd"/></svg>