<svg xmlns="http://www.w3.org/2000/svg" width="300" height="44.174" viewBox="0 0 300 44.174"><defs><clipPath id="a"><path d="M0 27.584h594.993V841.89H0V27.584z"/></clipPath></defs><g transform="matrix(2.50305 0 0 -2.50305 -69.245 128.612)" clip-path="url(#a)"><path fill="#c90c41" d="M110.422 41.036c1.255 2.982 2.478 5.867 2.511 5.945.072.164.198.237.396.258.09.008.294.012.502.012.197 0 .397-.004.467-.012.175-.025.332-.103.403-.291.307-.834 1.351-3.353 2.422-5.912h-6.7zm8.424 7.289c-1.23 2.844-.768 2.529-3.484 2.623-.249.01-.794.02-1.605.022-.813 0-1.026-.006-1.646-.018-2.557-.045-2.156.13-3.03-1.711 0 0-4.396-10.027-6.304-14.195l-.086-.176c-.358-.705-.095-.73.473-.73l3.985.003c.253 0 .421.155.486.295 0 0 .548 1.305 1.301 3.069h9.674a614.119 614.119 0 011.292-3.06.517.517 0 01.486-.313l4.106.007c.61 0 .741-.078.508.473-.73 1.734-5.472 12.12-6.156 13.71m-61.868 2.634h-4.033c-.318 0-.408-.156-.408-.43V34.653c0-.437.1-.513.542-.513h3.82c.428 0 .518.1.518.51v15.87c0 .31-.097.439-.439.439m-9.03.003h-3.3c-.438 0-.518-.102-.518-.516l-.002-12.57s-6.634 10.332-7.494 11.666c-.997 1.541-1.35 1.44-4.236 1.44-2.891 0-3.812-.02-3.812-.02-.441-.002-.522-.102-.522-.512l.009-15.797c0-.429.095-.515.522-.515l3.306.002c.447 0 .53.101.53.511l-.003 12.393s5.45-8.56 7.288-11.437c.929-1.456 1.094-1.465 3.767-1.467l4.466.002c.435 0 .528.082.528.515v15.791c0 .416-.078.514-.53.514m98.64 0h-3.297c-.438 0-.52-.102-.52-.516l-.003-12.57s-6.624 10.332-7.49 11.666c-.996 1.541-1.347 1.44-4.24 1.44-2.883 0-3.81-.02-3.81-.02-.439-.002-.522-.102-.522-.512l.01-15.797c0-.429.094-.515.521-.515l3.307.002c.447 0 .528.101.528.511l-.003 12.393s5.451-8.56 7.29-11.437c.928-1.456 1.09-1.465 3.77-1.467l4.46.002c.436 0 .53.082.53.515v15.791c0 .416-.079.514-.532.514m-72.284-6.45c-1.59.155-5.935.567-7.359.696-.521.051-.666.354-.709.694-.02.152-.02.277-.02.38 0 .153.007.235.02.35.047.477.293.672.802.672l11.777-.002c.428-.002.535.08.535.518v2.675c0 .405-.123.475-.534.477h-11.96c-3.115 0-4.872-1.137-5.351-3.488-.106-.528-.128-1.172-.128-1.627 0-.55.035-1.117.095-1.553.185-1.348 1.004-2.932 4.589-3.285 2.85-.28 6.949-.627 8.326-.746.624-.053.735-.524.774-.789.016-.102.024-.254.024-.455 0-.178 0-.366-.024-.625-.032-.373-.202-.549-.69-.549H61.978c-.438 0-.528-.09-.528-.518V34.67c0-.433.104-.519.525-.519h12.333c3.055 0 5.055.517 5.592 3.17.114.56.135 1.293.135 1.806 0 .793-.054 1.504-.106 1.77-.551 2.783-2.648 3.32-5.627 3.613m21.645 0c-1.592.156-5.934.568-7.36.697-.52.051-.667.354-.711.694-.014.152-.014.277-.014.38 0 .153.008.235.014.35.05.477.293.672.813.672l11.773-.002c.423-.002.528.08.528.518v2.675c0 .405-.121.475-.528.477H88.499c-3.115 0-4.873-1.137-5.35-3.488-.106-.528-.13-1.172-.13-1.627 0-.55.035-1.117.095-1.553.188-1.348 1.004-2.932 4.587-3.285 2.849-.28 6.954-.627 8.33-.746.62-.053.734-.524.774-.789.015-.102.022-.254.022-.455 0-.178 0-.366-.022-.625-.033-.373-.202-.549-.688-.549H83.623c-.441 0-.527-.09-.528-.518l.002-2.666c-.002-.433.104-.519.524-.519h12.33c3.056 0 5.053.517 5.593 3.17.11.56.136 1.293.136 1.806 0 .793-.056 1.504-.11 1.77-.552 2.783-2.645 3.32-5.623 3.613"/></g></svg>