<svg xmlns="http://www.w3.org/2000/svg" width="800" height="350" viewBox="0 0 800 350"><path fill="#DF0100" d="M4.4 4.5h786.2v340.2H4.4z"/><path fill="#FFF" d="M41.2 300V44.4h50.9c19.9 0 33.8 1.3 41.7 3.9 7.8 2.6 14.6 7 20.3 13.2 6.4 7 11.4 15.9 14.8 26.7 3.5 10.8 5.2 22.7 5.2 35.8 0 19.8-3.4 35.9-10.2 48.3-6.8 12.4-16.7 20.6-29.7 24.7l54.3 103h-55L86.9 200v100H41.2zm45.7-134.8h9c10.5 0 18.2-2.6 23-7.7 4.8-5.1 7.3-13.1 7.3-24.1 0-12.8-2.3-21.9-6.8-27.3-4.5-5.4-12.1-8.1-22.8-8.1h-9.8v67.2zM201.3 300V44.4h109.5v56h-62v44.3h58.4v54.8h-58.4v43.1h62V300H201.3zm175.9-.2L312.4 44.4h46.4c10.3 59.1 27.1 106.3 37 165.4L436 44.4h44.6l-66.3 255.4h-37.1zM485.6 44.3h48.6v159.3c1.8 21.4-6.6 55.4 24.8 55.2 32.3-.2 22-32.2 24.3-55.2V44.3h48.4v135.1c0 28-1.2 59.9-3.5 73.2-5.7 37.2-31 52.7-69.2 54.2-39.9.2-62.2-18.2-69.7-54.2-2.4-13.3-3.6-45.1-3.6-73.2V44.3zm160.1 255.8V44.5h109.5v56h-62v44.3h58.4v54.8h-58.4v43.1h62V300H645.7z"/></svg>