<svg xmlns="http://www.w3.org/2000/svg" width="150" height="51" viewBox="0 0 150 51" overflow="visible"><path fill="#D3003F" d="M12.468 29.91c-.227 1.196-.427 2.66.599 3.571 1.51 1.312 3.678 1.455 5.53.913a3.255 3.255 0 001.512-1.025c.371-.485.541-1.022.427-1.649-.142-.599-.484-1.084-.999-1.453-.37-.257-.769-.372-1.167-.514-1.796-.541-3.563-.913-5.389-1.398-1.882-.54-3.591-1.366-4.96-2.821a6.153 6.153 0 01-1.139-1.711 8 8 0 01-.6-2.563c-.085-1.94.257-3.877 1.284-5.588.968-1.596 2.195-2.854 3.791-3.824 2.109-1.254 4.417-1.796 6.784-1.88 4.02-.172 8.263.055 11.627 2.735.199.172.371.344.57.543 1.91 1.937 2.138 4.77 1.708 7.274h-9.148c-.028-.481.084-.955.028-1.441-.029-.085-.029-.2-.057-.284-.257-.998-1.197-1.539-2.11-1.854-.942-.285-1.881-.285-2.851-.027-.428.084-.797.313-1.17.569-.598.456-1.025 1.168-.854 1.938.313 1.256 1.624 1.662 2.735 1.918 1.967.428 3.821.719 5.672 1.374.885.315 1.682.714 2.51 1.282.598.428 1.083.827 1.568 1.34.514.6.939 1.228 1.254 1.939.371.854.515 1.738.6 2.65.17 2.623-.685 5.13-2.367 7.213-.627.74-1.197 1.396-1.966 1.967-.998.712-1.935 1.226-3.046 1.624-1.052.4-2.109.627-3.222.741-2.109.2-4.162.342-6.272.058-2.135-.286-4.16-.684-6.07-1.766-1.797-1-3.123-2.611-3.863-4.491-.629-1.597-.652-3.771-.135-5.359h9.186m29.623.184h6.346l-.01-.056c-.342-2.538-.742-5.02-1.083-7.612-.059-.485-.059-.969-.085-1.454-.012-.199.027-.398-.028-.598-.257.512-.494 1.083-.779 1.595-1.427 2.766-3.023 5.359-4.361 8.125m23.186-19.559l-9.01 38.67h-.495l1.616-8.145h-7.346c-.218-1.522-.454-3.075-.671-4.624H38.606c-.896 1.549-1.792 3.06-2.618 4.637h-9.115c5.901-10.214 11.735-20.363 17.695-30.482h9.031l4.725 25.155 4.987-25.211h1.966zm71.334 17.517c.685-1.968 1.026-3.992.855-6.072-.086-1.17-.455-2.253-1.227-3.165-1.34-1.511-3.478-1.881-5.304-1.168-2.535 1.056-3.99 3.505-4.788 6.044-.655 2.081-1.111 4.189-.855 6.384.113.914.314 1.738.799 2.538a4.025 4.025 0 001.655 1.512 5.49 5.49 0 001.993.541c.94.057 1.854-.257 2.653-.714 2.252-1.283 3.42-3.592 4.219-5.9m8.749 3.339c-.169.371-.34.742-.54 1.111-.342.742-.711 1.295-1.195 2.006-1.141 1.654-2.396 2.852-3.963 4.02-1.17.885-2.339 1.568-3.678 2.055a16.62 16.62 0 01-3.479.911c-2.052.313-3.96.342-6.042-.057-1.512-.314-2.851-.714-4.19-1.369a9.741 9.741 0 01-3.138-2.28c-2.136-2.339-3.22-5.33-3.305-8.409-.144-4.591 1.082-8.877 3.849-12.811 1.177-1.675 2.535-2.823 4.247-3.935 1.14-.74 2.251-1.311 3.535-1.709 4.9-1.482 10.204-1.453 14.709 1.597 1.339.911 2.339 1.968 3.22 3.334.943 1.512 1.426 3.136 1.597 4.847.427 3.674-.258 7.296-1.627 10.689zM65.398 49.204l4.979-21.396 5.505 13.2h11.279L92.3 14.32l6.13 15.627-2.238 11.076h9.209l2.195-10.877 15.406-19.598H111.72s-6.644 9.123-7.289 10.845h-.055c-.227-1.918-3.771-10.845-3.771-10.845h-7.623l1.453-7.968h-.479L85.55 39.64l-.299-.627 6.893-36.432h-.54l-7.583 33.354-.275-.638 6.056-32.716h-.512l-6.705 29.6-.293-.674 5.239-28.926h-.522l-5.867 25.941-.305-.761 4.34-25.171h-.503l-4.937 22.455-5.264-14.491h-1.911l-7.678 38.65h.514m-2.219.009l8.934-38.675h-1.852l-7.558 38.675h.476m-2.278 0l8.95-38.675h-1.897l-7.562 38.675h.509m-2.328 0l9.01-38.675h-1.915l-7.603 38.675h.508"/></svg>