<svg xmlns="http://www.w3.org/2000/svg" width="1707" height="341" viewBox="0 0 1707 341"><g fill-rule="evenodd" clip-rule="evenodd"><path d="M177 41c16 0 34 2 42 6 10 5 15 16 15 29v45c0 14-5 21-15 26-8 5-26 6-42 6H39V41h138zm1263 224c0 13-5 19-14 19h-9c-9 0-14-6-14-19V93c0-13 5-19 14-19h9c9 0 14 6 14 19v172zM405 79c0 13-5 19-14 19h-17c-28 0-42 10-42 29v138c0 13-5 19-14 19h-10c-9 0-14-6-14-19l1-138c0-26 9-45 28-57 14-10 32-14 53-14h15c9 0 14 6 14 18v5zm245 95c0 14-4 21-11 21H455c0 31 16 47 48 47h27c10 0 14 6 14 19v4c0 13-4 19-14 19h-23c-24 0-43-4-59-12-21-13-32-32-32-60v-84c0-26 11-46 32-59 16-9 35-14 57-14h70c18 0 35 5 48 13 18 12 27 29 27 51v55zm-36-23v-28c0-9-8-15-22-20-10-3-20-5-29-5h-54c-37 0-56 9-56 27v26h161zm140-53c-14 0-23 0-25 1-13 2-19 7-19 15v12c0 9 4 14 12 17 7 3 18 4 34 4h62c46 0 69 20 69 62v10c0 43-25 65-74 65H687c-9 0-13-6-13-19v-4c0-13 4-19 13-19h127c23 0 34-8 34-23v-9c0-13-10-20-32-20h-60c-23 0-41-4-54-10-19-9-29-27-29-53v-13c0-39 27-58 80-58h166V18c0-12 4-18 13-18h10c9 0 14 6 14 18v40h59c9 0 14 6 14 18v5c0 12-5 17-14 17h-59v167c0 13-5 19-14 19h-10c-9 0-13-6-13-19V98H754zm341 167c0 13-4 19-13 19h-10c-9 0-14-6-14-19V93c0-13 5-19 14-19h10c9 0 13 6 13 19v172zm270 12c0 26-12 40-36 52-17 9-38 12-61 12h-16c-9 0-13-6-13-18v-5c0-13 4-19 13-19h27c7 0 23-1 31-5 9-3 17-7 17-12h-102c-24 0-43-4-59-12-23-12-34-31-34-58v-85c0-24 9-42 27-55 16-11 34-16 56-16h55c24 0 44 4 60 13 24 12 35 32 35 59v149zm-37-36V130c0-12-7-21-21-26-10-4-20-6-31-6h-59c-13 0-23 1-29 3-13 4-19 12-19 25v85c0 20 19 30 55 30h104zm379-28c0 27-10 46-30 59-13 8-31 12-52 12h-62c-40 0-66-13-79-40-5-10-7-20-7-31v-84c0-19 6-35 19-48 16-17 38-25 67-25h62c55 0 82 24 82 73v84zm-38 0v-88c0-18-15-27-45-27h-61c-11 0-21 2-29 5-14 6-20 14-20 26v84c0 11 6 19 20 24 9 3 18 5 29 5h61c9 0 18-2 27-5 12-6 18-13 18-24zM273 77c0-29-10-51-32-64-15-9-42-13-66-13H13C4 0 0 6 0 18v247c0 13 4 19 13 19h12c9 0 14-6 14-19v-70h136c24 0 51-4 66-14 22-13 32-29 32-58V77z"/><path fill="#0D0909" d="M1074 8h6c11 0 20 9 20 20s-9 20-20 20h-6c-11 0-20-9-20-20s9-20 20-20zm345 0h6c11 0 20 9 20 20s-9 20-20 20h-6c-11 0-20-9-20-20s9-20 20-20z"/></g></svg>