<svg xmlns="http://www.w3.org/2000/svg" width="123.964" height="27" viewBox="0 0 123.964 27"><g fill="#48217a"><path d="M13.5 0A13.5 13.5 0 1027 13.5 13.5 13.5 0 0013.5 0zm0 25.466A11.966 11.966 0 1125.466 13.5 11.963 11.963 0 0113.5 25.466z"/><path d="M23.296 18.924l-1.953-2.294a.491.491 0 00-.093-.077.317.317 0 00-.31-.015 1.066 1.066 0 01-1.488-.759 2.681 2.681 0 00-1.286-1.813l-.883-.511 4.991-2.883-.62-1.069-5.611 3.239-.635-.341v-.777l5.611-3.239-.62-1.069-4.991 2.867V9.175a2.645 2.645 0 00-.93-2.015 1.03 1.03 0 01.077-1.643.331.331 0 00.139-.279.264.264 0 00-.015-.108l-1.007-2.836a.215.215 0 00-.4 0L12.26 5.13a.264.264 0 00-.015.108.377.377 0 00.139.279 1.03 1.03 0 01.077 1.643 2.621 2.621 0 00-.93 2.015v1.007L6.602 7.315l-.62 1.069 5.608 3.24v.775l-.666.387-5.626-3.239-.62 1.069 4.991 2.883-.883.511A2.648 2.648 0 007.5 15.823a1.072 1.072 0 01-.5.713 1.087 1.087 0 01-.976.047.317.317 0 00-.31.015.411.411 0 00-.093.077l-1.953 2.294a.207.207 0 00-.031.248.187.187 0 00.217.093l2.96-.558a.287.287 0 00.108-.031.38.38 0 00.17-.263 1.105 1.105 0 01.511-.821 1.071 1.071 0 01.868-.077 2.632 2.632 0 002.2-.2l.883-.511v5.766h1.24v-6.481l.666-.387.666.387v6.479h1.24v-5.766l.883.511a2.632 2.632 0 002.2.2 1.071 1.071 0 01.868.077 1 1 0 01.511.821.337.337 0 00.17.263.224.224 0 00.108.031l2.96.558a.2.2 0 00.217-.093.229.229 0 000-.294zm-11.718-3.549l-1.643.945a.67.67 0 11-.666-1.162l1.643-.945.666.387v.775zm1.24-6.37a.675.675 0 01.666-.682.665.665 0 01.666.682v1.906l-.666.387-.666-.387zm1.457 4.929l-.775.449-.775-.449v-.9l.775-.449.775.449zm3.689 2.139a.667.667 0 01-.914.248l-1.643-.945v-.775l.666-.387 1.643.945a.664.664 0 01.248.913z"/></g><path d="M103.335 10.756h-4.51V1.751h-4.108v23.482h4.107V14.926h4.51v10.307h4.2V1.751h-4.2zM29.991 1.751l4.557 14.4v9.083h4.572v-9.549l4.743-13.934h-3.859l-3.1 9.145-2.806-9.145zm39.678 0L67.69 12.926 65.407 1.751H58.99v23.482h3.673v-17.7l3.146 15.391h3.441l2.79-15.639v17.948h4.309V1.751zm50.405 0h-6.355l-4.293 23.482h3.813l.914-5.471h4.727l.883 5.471h4.2zm-5.285 14.1l1.751-10.5 1.7 10.509zm-32.255-14.1l-4.293 23.482h3.813l.914-5.471h4.727l.883 5.471h4.2L88.905 1.751zm1.069 14.1l1.752-10.5 1.7 10.509zm-36.811-14.1l-4.293 23.482h3.813l.914-5.471h4.727l.883 5.471h4.2L53.163 1.751zm1.085 14.1l1.752-10.5 1.7 10.509z" fill="#48217a"/></svg>