<svg xmlns="http://www.w3.org/2000/svg" width="98.621" height="43.248" viewBox="0 0 98.621 43.248"><path data-name="Path 697" d="M21.641 43.248A21.624 21.624 0 100 21.629a21.631 21.631 0 0021.641 21.619" fill="#a50034"/><path data-name="Path 698" d="M20.775 12.137v18.974h6.032v-1.706h-4.298V12.137z" fill="#fff"/><path data-name="Path 699" d="M14.731 17.314a2.595 2.595 0 10-2.592-2.592 2.594 2.594 0 002.592 2.592" fill="#fff"/><path data-name="Path 700" d="M22.508 3.53a23.794 23.794 0 00-.862-.025A18.111 18.111 0 1039.757 21.62v-.806H26.819v1.667h11.208c0 .036 0 .213-.008.259a16.417 16.417 0 01-27.99 10.483A16.412 16.412 0 0121.647 5.205c.189 0 .65 0 .862.011z" fill="#fff"/><path data-name="Path 701" d="M59.558 7.28h-6.5v28.152h19.974v-5.48H59.558zm27.776 17.423h5.3v4.922a14.99 14.99 0 01-4.693.742c-5.853 0-7.8-2.973-7.8-9.01 0-5.758 1.857-9.153 7.71-9.153 3.253 0 5.11 1.022 6.641 2.974l4.043-3.717c-2.463-3.528-6.783-4.6-10.823-4.6-9.107 0-13.89 4.97-13.89 14.445 0 9.429 4.32 14.538 13.844 14.538 4.366 0 8.64-1.114 10.961-2.74V19.453H87.334z" fill="#6b6b6b"/></svg>