<svg version="1.1" id="Calque_1" xmlns="http://www.w3.org/2000/svg" x="0" y="0" width="220" height="150" viewBox="-264 593 220 150" xml:space="preserve"><style>.st0{fill:#3d3d3b}</style><path class="st0" d="M-171 649.2c1 0 1.4.4 1.4 1.4v5.9h1.4c.6 0 1-.1 1.2-.5l3.4-6.7h2.4l-3.7 7.2c-.4.8-.9 1-.9 1s.4.1.9.9l2.3 3.6c.2.4 1.5 2.3 1.5 2.3h-1.2c-1.2 0-1.6-.2-2.1-1.1l-2.6-4.3c-.3-.5-.7-.6-1.3-.6h-1.3v6h-2v-15.1h.6zm11.2 0h5.2c2.7 0 4.5 1.7 4.5 4.4 0 2.5-1.6 3.8-2.7 4 0 0 .4.2.6.7l1.8 3.6c.2.4 1.3 2.3 1.3 2.3h-1c-1.2 0-1.6-.2-2.1-1.1l-2.1-4.1c-.4-.7-.7-.8-1.5-.8h-2v6h-2.1l.1-15zm4.9 7.2c1.6 0 2.6-1 2.6-2.7 0-1.7-1-2.7-2.5-2.7h-2.8v5.4h2.7zm13.8-7.5c4.4 0 7.8 3.4 7.8 7.7 0 4.4-3.4 7.9-7.8 7.9s-7.7-3.5-7.7-7.9c-.1-4.3 3.3-7.7 7.7-7.7zm0 13.6c3.1 0 5.5-2.6 5.5-5.9 0-3.2-2.5-5.7-5.5-5.7-3.1 0-5.5 2.5-5.5 5.7 0 3.3 2.4 5.9 5.5 5.9zm9.4-13.3h1.9l7.9 11.6v-10.2c0-1 .4-1.4 1.4-1.4h.8v15.1h-1.9l-7.9-11.6v10.2c0 1-.4 1.4-1.4 1.4h-.8v-15.1zm21.4-.3c4.4 0 7.8 3.4 7.8 7.7 0 4.4-3.4 7.9-7.8 7.9s-7.7-3.5-7.7-7.9c0-4.3 3.4-7.7 7.7-7.7zm0 13.6c3.1 0 5.5-2.6 5.5-5.9 0-3.2-2.5-5.7-5.5-5.7-3.1 0-5.5 2.5-5.5 5.7 0 3.3 2.5 5.9 5.5 5.9zm8.2.3l8.6-11.8h-8.4v-.4c0-1 .4-1.4 1.4-1.4h9.7v1.4l-8.6 11.9h8.9v.4c0 1-.4 1.4-1.4 1.4H-102l-.1-1.5zm-40.3 55.2l-1.6-.7-45.8-68.2s-1.2-2.2.8-3.4c2-1.2 3.3 1 3.3 1l43.3 69.6c.1 0 0 1.7 0 1.7z"/><path d="M-154.4 618l-.1 1.3-34.2 49.9s-1.2 1.4-2.5.4c-1.3-1-.2-2.6-.2-2.6l35.9-48.6 1.1-.4z" fill="#e30613"/><path class="st0" d="M-217.4 664.2v-15.1h2.3l4.3 9.9 4.3-9.9h2.3v15.1h-.6c-1 0-1.2-.4-1.3-1.4v-10.2l-4 8.8h-1.5l-4-8.9v10.2c-.1 1-.3 1.4-1.3 1.4l-.5.1zm19.1-6.5l-4.5-8.5h.9c1 0 1.3.2 1.9 1.2l2.8 5.5 2.7-5.5c.6-1 .9-1.2 1.9-1.2h.9l-4.5 8.5v6.6h-2.1v-6.6z"/></svg>