<svg xmlns="http://www.w3.org/2000/svg" width="389" height="77.7" viewBox="0 0 389 77.7"><path fill="#FF0017" d="M23.51 76.147v-18.3h16.7c13.9 0 21.8-5.6 21.8-19.3v-14.8c0-16.5-7.8-22.5-21.8-22.5H1.71v74.9h21.8"/><path fill="red" d="M69.11 76.147v-74.9h51.8v14h-30.7v15.6h26v14.1h-26v17.5h30.6v13.9l-51.7-.2"/><path fill="#FF0017" d="M129.91 76.247v-75h20.6l18.4 44.2v-44.2h18.7v74.9h-21.6l-17-41.2v41.2l-19.1.1m85.8-.1v-60.5h-21.5v-14.4h65.2v14.4h-21.9v60.5h-21.8m34.5 0l23.7-74.9h18.4l25 74.9h-20.5l-3.5-12h-20l-3.3 12h-19.8m67.2 0l21.3-39.3-20.5-35.7h23.1l10.6 22.9 9.9-22.9h21.3l-18.7 36.2 22.9 38.7h-22.7l-12.7-26.1-11.1 26.1-23.4.1"/><path fill="#FFF" d="M33.51 14.747h-9.9v28.2h8.4c6.9 0 8.3-4.4 8.3-7.6v-14c0-4.1-2.8-6.6-6.8-6.6m249.7 10l6.6 26.5h-13.1l6.5-26.5"/></svg>