<svg xmlns="http://www.w3.org/2000/svg" version="1.0" width="1024" height="239" viewBox="0 0 117.528 27.38"><path d="M77.031 0c-.212.081-1.901.291-3.125.375v.563c.245 0 .563.062.563.062.391.016.562.151.562.594v8.75c0 .887-.195.917-.781 1l-.375.062v.563c.638-.016 4-.016 4.313 0v-.563l-.376-.062c-.59-.083-.78-.146-.78-1V0zm4.594 0c-.212.081-1.903.291-3.125.375v.563c.245 0 .563.062.563.062.39.016.562.151.562.594v8.75c0 .887-.194.917-.781 1l-.375.062v.563c.636-.016 4.004-.016 4.312 0v-.563l-.375-.062c-.587-.083-.781-.146-.781-1V0zM0 .344v26.875h6.719l5.156-9.094-2.469-4.281-6.375 11.344h-1V2.405h24.344v22.782h-1.031l-1.5-2.97-2.875 5h7.468V.345H0zm31.969 0v.594l.468.062c.67.049.813.125.813 1.094v8.125c0 .969-.144 1.045-.813 1.094l-.468.03v.626c1.045-.016 4.196-.016 4.718 0v-.625l-.562-.031c-.667-.05-.75-.11-.75-1.094V6.438c.458 0 .615.123 1.219 1.125l1.562 2.656c.213.379.994 1.486 1.125 1.75.278-.016 2.93-.016 3.125 0v-.625l-.25-.031c-.603-.082-.83-.027-1.5-1.094L38.97 7.563c-.572-.887-.673-1.08-1.063-1.375 1.141-.132 3.063-.862 3.063-2.782 0-2.052-1.983-3.062-4.594-3.062-.669 0-3.361.016-4.406 0zm4.406.781c1.322 0 2.281.789 2.281 2.25 0 1.46-.768 2.375-2.531 2.375a4.01 4.01 0 01-.75-.063V2.095c0-.246.011-.601.125-.781.131-.182.468-.188.875-.188zm33.25 2.219c-2.343 0-3.938 2.327-3.938 4.344 0 2.234 1.27 4.468 4.063 4.468 1.931 0 2.699-.755 3.406-1.5l-.594-.469c-.17.162-.336.33-.5.47a3.24 3.24 0 01-.53.374c-.38.216-.812.344-1.438.344-1.763 0-2.344-2.351-2.344-3.781h5.625c-.011-2.256-1.166-4.25-3.75-4.25zm-14.875.031c-1.69 0-3.281 1.032-3.281 2.5 0 1.67 1.119 2.16 2.5 2.563l.875.25c.588.186 1.156.602 1.156 1.406 0 .873-.678 1.469-1.688 1.469-1.467 0-2.176-.797-2.187-1.938h-.531l.093 2.063a7.28 7.28 0 002.594.468c2.257 0 3.563-1.096 3.563-2.75 0-1.567-1.252-2.037-2.469-2.406l-1.063-.344c-.66-.205-1-.615-1-1.281a1.41 1.41 0 011.438-1.438c1.086 0 1.986.67 2 1.876h.531l-.125-1.97c-.34-.152-1.084-.468-2.406-.468zm7.156 0c-1.691 0-3.25 1.032-3.25 2.5 0 1.67 1.089 2.16 2.469 2.563l.906.25c.589.186 1.156.602 1.157 1.406 0 .873-.71 1.469-1.72 1.469-1.468 0-2.174-.797-2.187-1.938h-.531l.094 2.063a7.27 7.27 0 002.593.468c2.254 0 3.563-1.096 3.563-2.75C65 7.84 63.748 7.37 62.531 7l-1.062-.344c-.66-.205-1-.615-1-1.281a1.41 1.41 0 011.437-1.438c1.085 0 1.988.67 2 1.876h.532l-.094-1.97c-.34-.152-1.115-.468-2.438-.468zm-16.812.031c-.677.085-2.059.293-3.282.375v.531c.256.003.657.032.657.032.427.051.594.188.593.656v4.844c0 1.043.494 2.312 2.438 2.312 1.414 0 1.996-1.01 2.313-1.562l.062-.063.125 1.5a93.925 93.925 0 013.031 0V11.5l-.437-.063c-.61-.085-.813-.177-.813-1.03 0 0-.011-6.81 0-7-.003.04-1.185.156-2 .25v5.218c0 1.214-.753 2.219-1.625 2.219-.895 0-1.125-.768-1.125-1.969V5.187c0-.575.05-1.582.063-1.78zm24.5.625c1.09 0 1.632 1.19 1.719 2.875l-3.594-.031c.051-1.473.665-2.844 1.875-2.844zm-52.031 6.75L8.155 27.22h4.938l6.844-12.032-2.375-4.406zM71.75 15.5l-1.969 2v8.031c0 1.319.776 1.844 2.031 1.844.512 0 .875-.077 1.188-.25.155-.086.279-.192.438-.313.15-.118.317-.26.5-.406l-.47-.437c-.128.108-.29.273-.468.406-.186.14-.39.25-.594.25-.494 0-.656-.371-.656-1.125v-5.844h1.813v-.75H71.75V15.5zm36.781 0l-1.969 2v8.031c0 1.319.777 1.844 2.032 1.844.512 0 .875-.077 1.187-.25.154-.086.279-.192.438-.313.151-.118.32-.26.5-.406l-.469-.437c-.13.108-.29.273-.469.406-.184.14-.39.25-.594.25-.492 0-.656-.371-.656-1.125v-5.844h1.813v-.75h-1.813V15.5zm-76.469.063v.624l.344.032c.67.081.844.092.844 1.093v8.125c0 .953-.174 1.043-.844 1.094l-.343.032v.625c.653-.018 4.142-.018 4.468 0v-.625l-.343-.032c-.67-.051-.844-.141-.844-1.093v-8.125c0-1.002.175-1.013.843-1.094l.344-.032v-.625c-.654.018-3.815.018-4.468 0zm-11.374.906l-6.094 10.75h4.875l3.593-6.407-2.375-4.343zM42.78 18.53c-1.431 0-2.06 1.012-2.375 1.563l-.031.062-.094-1.593c-.322.09-1.871.293-3.062.375v.53c.255.003.656.063.656.063.429.05.594.156.594.625v5.407c0 .883-.163.98-.813 1.03l-.437.063v.532c.65-.015 4.187-.016 4.5 0v-.532l-.438-.062c-.65-.052-.844-.164-.843-1.032v-3.75c0-1.213.848-2.25 1.718-2.25.894 0 1.156.765 1.157 1.97v3.343c0 .514-.014 1.466-.063 2.313a717.91 717.91 0 013.281 0v-.532l-.437-.062c-.649-.052-.813-.164-.813-1.032v-4.718c0-1.043-.637-2.313-2.5-2.313zm15.032 0c-2.344 0-3.938 2.298-3.938 4.313 0 2.235 1.271 4.468 4.063 4.468 1.933 0 2.698-.756 3.406-1.5l-.594-.437c-.167.163-.335.3-.5.438a3.24 3.24 0 01-.531.375c-.382.215-.84.343-1.469.343-1.761 0-2.344-2.351-2.344-3.781h5.657c-.01-2.256-1.17-4.219-3.75-4.219zm7.843 0c-1.692 0-3.281 1.033-3.281 2.5 0 1.67 1.088 2.163 2.469 2.563l.906.25c.589.187 1.156.632 1.156 1.437 0 .874-.709 1.469-1.719 1.469-1.465 0-2.176-.826-2.187-1.969h-.531l.125 2.063a7.08 7.08 0 002.562.468c2.256 0 3.594-1.098 3.594-2.75 0-1.567-1.251-2.036-2.469-2.406l-1.062-.312c-.66-.204-1.031-.648-1.031-1.313 0-.803.637-1.406 1.468-1.406 1.084 0 1.955.64 1.969 1.844h.531L68.062 19c-.337-.152-1.086-.469-2.406-.469zm14.281 0c-1.413 0-1.998 1.012-2.312 1.563l-.031.062-.125-1.593c-.323.09-1.871.293-3.063.375v.53c.255.003.688.063.688.063.426.05.594.156.594.625v5.407c0 .883-.166.98-.813 1.03l-.469.063v.532c.648-.015 4.001-.016 4.313 0v-.532l-.375-.062c-.572-.052-.688-.169-.688-1.032v-3.75c0-1.212.785-2.25 1.656-2.25.893 0 1.188.765 1.188 1.97v4.03c0 .865-.151.98-.688 1.032l-.374.062v.532c.648-.015 4-.016 4.312 0v-.532l-.438-.062c-.648-.052-.812-.164-.812-1.032v-4.187c0-1.036.876-1.813 1.625-1.813.894 0 1.156.768 1.156 1.97v3.343c0 .514-.016 1.466-.062 2.313a598.05 598.05 0 013.281 0v-.532l-.438-.062c-.65-.052-.812-.164-.812-1.032v-4.718c0-1.043-.609-2.313-2.469-2.313-1.431 0-2.029.979-2.344 1.532l-.03.062-.032-.063c-.263-.807-1.035-1.53-2.438-1.53zm12.532 0c-2.344 0-3.906 2.298-3.906 4.313 0 2.235 1.27 4.468 4.062 4.468 1.934 0 2.669-.756 3.375-1.5l-.594-.437c-.167.163-.306.3-.469.438a3.408 3.408 0 01-.53.375c-.383.215-.84.343-1.47.343-1.76 0-2.343-2.351-2.343-3.781h5.625c-.009-2.256-1.169-4.219-3.75-4.219zm9.687 0c-1.432 0-2.06 1.012-2.375 1.563l-.062.062-.094-1.593c-.321.09-1.87.293-3.063.375v.53c.257.003.688.063.688.063.426.05.594.156.594.625v5.407c0 .883-.195.98-.844 1.03l-.438.063v.532c.65-.015 4.188-.016 4.5 0v-.532l-.437-.062c-.647-.052-.813-.164-.813-1.032v-3.75c0-1.213.82-2.25 1.688-2.25.896 0 1.156.765 1.156 1.97v3.343a45.8 45.8 0 01-.062 2.313 731.65 731.65 0 013.312 0v-.532l-.437-.062c-.648-.052-.844-.164-.844-1.032v-4.718c0-1.043-.609-2.313-2.469-2.313zm12.281 0c-1.69 0-3.28 1.033-3.28 2.5 0 1.67 1.088 2.163 2.468 2.563l.906.25c.588.187 1.156.632 1.156 1.437 0 .874-.707 1.469-1.718 1.469-1.466 0-2.176-.826-2.188-1.969h-.531l.094 2.063c.826.312 1.69.468 2.594.468 2.256 0 3.593-1.098 3.593-2.75 0-1.567-1.251-2.036-2.469-2.406L114 21.844c-.659-.204-1-.648-1-1.313 0-.803.61-1.406 1.438-1.406 1.087 0 1.956.64 1.968 1.844h.531L116.844 19c-.338-.152-1.083-.469-2.406-.469zm-69 .282v.53l.438.032c.274.026.42.111.531.281.054.084.103.19.157.313.052.122.107.27.187.437l2.281 5.125c.109.268.267.671.407 1.032.134.346.246.648.312.75h.781c.154-.354.557-1.484.688-1.782l1.843-5.125c.25-.721.446-.979.813-1.031l.469-.031v-.532c-.325.02-2.582.02-2.907 0v.532l.5.031c.252.019.375.205.376.469 0 .105-.035.208-.063.312-.028.104-.068.205-.094.282l-1.468 4.343-1.782-4.343c-.084-.202-.187-.482-.187-.688 0-.238.146-.358.406-.375l.531-.031v-.532c-.646.018-3.572.018-4.218 0zm12.313.375c1.093 0 1.666 1.19 1.75 2.875l-3.594-.032c.049-1.472.637-2.843 1.844-2.843zm34.688 0c1.094 0 1.666 1.19 1.75 2.875l-3.626-.032c.05-1.472.668-2.843 1.876-2.843z" fill="#231f20" fill-rule="evenodd"/></svg>