<svg xmlns="http://www.w3.org/2000/svg" width="677.56" height="186.722" version="1.0"><path d="M221.002 72.007C221.002 32.748 170.06 0 109.543 0S0 31.79 0 71.05c0 31.024 30.067 58.985 72.39 69.326v-36.195c-15.703-5.17-25.853-15.13-25.662-33.131.192-23.364 28.152-37.727 62.815-37.727s62.815 16.852 62.815 37.727c0 17.236-19.342 31.79-45.77 36.387V57.453H81.583v122.566h45.005v-36.004c5.745-.766 11.299-1.532 16.66-2.873l26.812 38.877h49.41l-39.068-52.474c24.513-13.597 40.6-33.514 40.6-55.538" class="ps027" font-size="3.494" letter-spacing="0" word-spacing=".101" font-family="fnt1,&quot;FranklinGothic&quot;,Arial"/><path d="M259.878 119.885c0-19.726 16.087-35.812 35.812-35.812 19.917 0 36.004 16.086 36.004 35.812 0 19.917-16.661 34.855-36.387 34.855-19.917 0-35.429-14.938-35.429-34.855zm36.387-69.327c-47.877 0-82.158 30.067-82.158 67.412 0 37.344 32.174 67.986 78.71 67.986 51.325 0 84.648-29.11 84.648-66.454 0-37.345-30.833-68.944-81.2-68.944M381.87 13.98h40.983v166.04H381.87V13.98zm52.665 0h41.174v166.04h-41.174V13.98z" class="ps027 ps16 ps23" font-size="3.494" letter-spacing="0" word-spacing=".101" font-family="fnt1,&quot;FranklinGothic&quot;,Arial"/><path d="M558.25 155.314c-16.279-.191-28.727-9.767-32.748-24.13h107.245c.191-2.298.191-4.788.191-7.278 0-37.344-27.194-72.39-77.561-72.39-47.877 0-76.412 31.216-76.412 68.369 0 37.344 30.45 66.837 76.795 66.837 43.856 0 68.943-18.577 75.455-47.303H585.06c-6.128 9.958-16.853 16.087-26.811 15.895zm.383-70.475c12.256 0 21.257 7.66 26.428 17.618h-56.304c5.937-10.533 16.853-17.618 29.876-17.618" class="ps027" font-size="3.494" letter-spacing="0" word-spacing=".101" font-family="fnt1,&quot;FranklinGothic&quot;,Arial"/><path d="M636.385 14.363h41.175v37.153h-41.175V14.363zm0 166.23h41.175V58.41h-41.175v122.183z" class="ps028 ps16 ps23" font-size="3.494" letter-spacing="0" word-spacing=".101" fill-rule="evenodd" font-family="fnt1,&quot;FranklinGothic&quot;,Arial"/></svg>