<svg xmlns="http://www.w3.org/2000/svg" width="563" height="171" viewBox="0 0 563 171"><path d="M383.344 28.697c0 7.558-6.147 13.806-13.806 13.806a13.763 13.763 0 01-13.806-13.806 13.763 13.763 0 0113.806-13.807 13.763 13.763 0 0113.806 13.807M220.892 49.658H199.83v9.675c-5.543-6.35-13.1-9.675-22.07-9.675-20.76 0-36.985 17.233-36.985 39.202 0 20.861 16.93 38.598 36.985 38.598 8.768 0 16.427-3.427 22.07-9.675v9.372h22.776V49.76h-1.714zm-38.9 56.637c-9.875 0-17.938-8.063-17.938-17.939s8.063-17.938 17.939-17.938 17.938 8.062 17.938 17.938-8.062 17.939-17.938 17.939m-44.543 18.643L120.216 23.86H95.829L76.782 78.38 57.735 23.86H33.448L15.812 127.055h22.977l9.675-59.862 19.953 59.76h16.629l19.953-59.76 9.675 59.862h23.078l-.303-2.117m409.456-75.28h-21.062v9.675c-5.543-6.35-13-9.675-22.07-9.675-20.76 0-36.986 17.233-36.986 39.202 0 20.861 16.931 38.598 36.986 38.598 8.767 0 16.426-3.427 22.07-9.675v9.372h22.876V49.76h-1.814zm-38.9 56.637c-9.876 0-17.938-8.063-17.938-17.939s8.062-17.938 17.938-17.938 17.938 8.062 17.938 17.938-7.961 17.939-17.938 17.939M345.654 125.14V75.457s0-1.713-.1-1.713h-.102c-.806-14.21-11.085-24.086-25.698-24.086-9.271 0-16.628 3.93-20.659 10.783-4.535-6.853-12.395-10.783-21.465-10.783-7.76 0-15.318 4.233-20.055 10.682V49.658H234.7v77.296h22.876V82.31c0-5.845 4.737-10.582 10.582-10.582 5.643 0 10.178 4.334 10.581 9.876v45.35h23.683V76.666c1.915-3.023 5.341-4.938 8.868-4.938 5.845 0 10.582 4.737 10.582 10.481v44.745h23.682l.101-1.814m35.372-73.668v75.482H358.15V49.658h22.877v1.814m90.598-1.713h-22.977l-19.954 41.42-17.233-41.42h-25.799l29.427 69.939-18.039 37.388h25.9l51.597-107.327h-2.922" fill="#FC001B"/></svg>