<svg xmlns="http://www.w3.org/2000/svg" width="252" height="90" viewBox="0 0 252 90"><path d="M0 0h252v90H0z"/><path fill="#FFF" d="M66.127 39.943c0 2.504-1.552 4.365-4.655 5.586-2.41.951-5.349 1.432-8.82 1.432H38.429c-3.73 0-6.862-.434-9.407-1.291-3.498-1.176-5.252-3.053-5.252-5.635v-13.81c0-2.48 1.783-4.313 5.359-5.502 2.823-.889 5.936-1.338 9.348-1.338h5.648c1.523 0 2.284.68 2.284 2.04 0 1.368-.761 2.056-2.284 2.056H42.4c-.164 0-.26-.006-.28-.023-.433-.014-.82-.021-1.156-.029-.338-.008-.617-.016-.819-.016-6.737 0-10.11.934-10.11 2.803v13.797c0 1.87 2.823 2.807 8.47 2.807h14.16c1.348 0 2.794-.2 4.317-.611 1.918-.516 2.88-1.205 2.88-2.086v-2.934H51.06c-1.161 0-2.112-.994-2.112-2.209 0-1.217.95-2.211 2.112-2.211h10.585c.535-.055 1.302-.049 2.286-.049 1.465 0 2.197.588 2.197 1.77v5.453m36.962.139v-8.357c0-1.717-2.429-2.6-7.344-2.6h-9.715c-1.793 0-3.412.186-4.858.557-2.024.56-3.007 1.348-3.007 2.414v7.986c0 1.021 1.041 1.811 3.065 2.275 1.388.324 3.007.465 4.858.465h9.657c1.561 0 3.064-.186 4.452-.512 1.909-.51 2.892-1.253 2.892-2.228m6.014 0c0 2.508-1.504 4.318-4.569 5.434-2.139.882-5.031 1.346-8.616 1.346H86.03c-3.296 0-6.246-.464-8.906-1.346-3.296-1.162-4.915-2.973-4.915-5.434v-7.986c0-2.414 1.62-4.27 4.858-5.523 2.428-.977 5.377-1.44 8.905-1.44h9.946c8.79 0 13.185 2.276 13.185 6.92v8.029zm72.082-12.722c0 1.208-.926 1.812-2.66 1.812-.232 0-.579 0-1.042-.047h-1.1c-4.568 0-6.823.883-6.823 2.74v13.186c0 .883-.461 1.44-1.271 1.672-.349.093-1.215.14-2.603.14-1.388 0-2.082-.605-2.082-1.812V31.865c0-2.88 1.793-4.783 5.437-5.803 2.197-.652 5.493-.93 9.89-.93 1.504 0 2.254.743 2.254 2.229m34.996 12.721v-8.357c0-1.717-2.43-2.6-7.343-2.6h-9.715c-1.794 0-3.412.186-4.858.557-2.024.56-3.006 1.348-3.006 2.414v7.986c0 1.021 1.04 1.811 3.063 2.275 1.389.324 3.007.465 4.855.465h9.66c1.56 0 3.062-.186 4.451-.512 1.91-.51 2.893-1.253 2.893-2.228m6.013 0c0 2.508-1.504 4.318-4.567 5.434-2.14.882-5.032 1.346-8.616 1.346h-9.888c-3.298 0-6.246-.464-8.905-1.346-3.298-1.162-4.916-2.973-4.916-5.434v-7.986c0-2.414 1.618-4.27 4.856-5.523 2.43-.977 5.378-1.44 8.905-1.44h9.946c8.789 0 13.185 2.276 13.185 6.92v8.029zm-70.238-10.695v-3.762c0-1.578-2.725-2.414-8.17-2.414H121.59v9.566h22.195c5.446 0 8.171-1.162 8.171-3.39m6.259.185c0 2.74-1.737 4.736-5.157 5.992-2.666.881-5.855 1.3-9.62 1.3H121.59v8.081c0 .881-.406 1.438-1.333 1.67-.232.094-1.159.14-2.724.14-1.449 0-2.202-.603-2.202-1.81V20.89c0-1.162.753-1.766 2.202-1.766h26.195c3.535 0 6.548.418 9.039 1.162 3.652 1.113 5.448 2.785 5.448 4.969v4.318zM91.362 62.955c-.266 1.113-.06 2.418.202 2.904.262.484 1.118.916 1.768.916.667 0 1.617-.314 2.096-.789.481-.474 1.145-1.611 1.44-2.843.25-1.038.062-2.024-.205-2.504-.268-.478-1.066-1.118-1.724-1.118-.626 0-1.637.288-2.134.773-.494.485-1.173 1.54-1.443 2.661m-2.857.096c.432-1.799 1.527-3.287 2.682-4.287 1.157-1.002 2.64-1.203 4.273-1.203 1.675 0 2.9.686 3.572 1.671.671.983 1.039 2.327.613 4.1a8.784 8.784 0 01-1.426 3.132c-.593.824-1.408 1.343-2.266 1.802-.86.459-1.88.563-2.999.563-1.135 0-2.028-.197-2.678-.595-.648-.395-1.399-1.02-1.657-1.879a6.34 6.34 0 01-.114-3.304M77.077 68.5l2.38-10.77 4.938.018c.106 0 3.638-.18 3.465 2.81-.124 2.176-1.08 2.42-2.998 3.431.965 1.605 1.298 2.469 2.574 4.512H84.22c-.357-1.02-1.89-3.905-1.898-3.905l-1.665-.019-.845 3.939-2.735-.016m4.115-5.865h1.894c1.757 0 2.593-2.756.768-2.785l-1.982-.038-.68 2.823zm-11.06-4.869l7.754.035-.406 1.982-5.007.035-.454 1.91 4.664.018-.435 2.053h-4.77l-.556 2.732 4.947-.086-.3 2.088-7.852-.088zm-11.628-.036l2.828.018-.96 3.926 4.069.105.873-4.013 2.808.035L65.671 68.5l-2.79.016 1.07-4.702-4.07-.035-1.123 4.737-2.776-.016zm41.228 10.754h2.571l.71-2.802h-2.572z"/><path fill="#00AEEF" d="M110.044 53.648h23.841v18.229h-23.841zm28.757 0h23.842v18.229h-23.842z"/><path fill="#005DAC" d="M167.747 53.646h23.84v18.229h-23.84z"/><path fill="#FFF" d="M197.303 53.648h23.842v18.229h-23.842zm-151.24 9.956h1.846c-.02-.636.433-.958 1.345-.954.754.016 1.175.258 1.262.715 0 .588.012 1.14.024 1.692-.405-.474-1.16-.746-2.262-.823-1.745.164-2.587.97-2.523 2.42.063 1.268.968 1.942 2.713 2.014.917.041 1.615-.23 2.106-.846.013.268.013.508.013.75h1.701c.013-1.84.013-3.666.013-5.494-.428-.953-1.147-1.46-2.143-1.523-.877-.025-1.741-.025-2.606-.025-1.079.302-1.563.99-1.489 2.074m-7.93-2.12h1.75c1.301 0 2.366 1.05 2.366 2.33v1.465h-4.733c-.2 1.442.172 2.14 1.09 2.1.337-.02.693-.02 1.051-.02.61.055.898-.275.885-1.072h1.708v.041c0 1.281-1.065 2.33-2.366 2.33h-1.75c-1.302 0-2.367-1.049-2.367-2.33v-2.514c0-1.28 1.064-2.33 2.366-2.33m-10.867-2.925v9.934h5.763c1.563.105 2.358-.775 2.387-2.615.069-1.285-.46-2.125-1.605-2.496.899-.172 1.38-.928 1.42-2.286-.096-1.614-.987-2.468-2.675-2.576-1.785.005-3.568.011-5.29.039"/><path d="M29.18 60.229v2.535c.994-.022 1.929-.022 2.861-.022.81.014 1.2-.392 1.193-1.193-.041-.729-.384-1.149-1.028-1.28a71.472 71.472 0 01-3.026-.04m0 3.957v2.76c1.064-.022 2.064-.022 3.063-.022.868.015 1.287-.426 1.279-1.301-.044-.793-.411-1.25-1.103-1.393a82.036 82.036 0 01-3.239-.044m11.361.123c.09-1.079-.384-1.594-1.44-1.564-1.174-.008-1.702.52-1.585 1.586a49.579 49.579 0 013.025-.022m9.999 1.831c-.343-.606-1.095-.81-2.259-.603-.645.281-.893.71-.742 1.29.168.73.95.94 2.358.599.511-.205.725-.63.643-1.285"/><path fill="#FFF" d="M225.402 44.408a2.541 2.541 0 110 5.082 2.541 2.541 0 010-5.082"/><path d="M225.402 44.783a2.166 2.166 0 110 4.33 2.165 2.165 0 010-4.33"/><path fill="#FFF" d="M224.54 48.006v-2.402h1.07c.215 0 .378.019.488.063.113.043.2.12.271.23.067.106.1.228.1.36 0 .17-.055.314-.166.432-.11.118-.283.189-.515.223.086.04.15.08.192.12.095.085.183.193.267.32l.42.653h-.401l-.319-.502a5.532 5.532 0 00-.23-.328.723.723 0 00-.164-.163.448.448 0 00-.145-.063 1.23 1.23 0 00-.18-.01h-.369v1.066h-.32z"/><path d="M224.857 46.662h.689c.145 0 .259-.014.343-.045a.364.364 0 00.25-.36.348.348 0 00-.123-.278c-.082-.075-.213-.112-.394-.112h-.765v.795"/></svg>