<svg xmlns="http://www.w3.org/2000/svg" width="126.456" height="42.617" viewBox="0 0 126.456 42.617"><g fill="#009b3b"><g data-name="Group 884"><path data-name="Path 702" d="M102.831 15.146a7.238 7.238 0 006.67 7.026 6.023 6.023 0 006.689-5.994 7.255 7.255 0 00-6.689-7.026 6.018 6.018 0 00-6.67 6"/><path data-name="Path 703" d="M125.912 23.888a16.466 16.466 0 00-5.157-1.732.884.884 0 00-1.042.509 11.047 11.047 0 01-10.815 5.745 13.256 13.256 0 01-9.768-5.665 2.154 2.154 0 00-2.089-.9 38.119 38.119 0 00-10.751 2.774c-.051.028-.2.1-.229.112-1.1.575-1.42 1.112-1.032 2.561a21.31 21.31 0 0041.415-2.145 1.2 1.2 0 00-.532-1.256"/><path data-name="Path 704" d="M87.493 13.071a42.768 42.768 0 019.409-2.271 1.722 1.722 0 001.457-.88 11.07 11.07 0 0110.54-5.274 13.2 13.2 0 019.552 5.371 3.126 3.126 0 001.522 1.136 30.073 30.073 0 013.777 1.1c.723.234 1.089.249.82-.43a21.314 21.314 0 00-38.262.189c-.45 1.023-.216 1.6 1.185 1.06"/><g data-name="Group 883"><path data-name="Path 705" d="M19.948 32.963h-2.412v-3.307h-.067a8.882 8.882 0 01-7.34 3.757 9.894 9.894 0 110-19.783 8.888 8.888 0 017.34 3.722h.067V7.464h2.412zm-9.819-1.724a7.72 7.72 0 10-7.718-7.65 7.476 7.476 0 007.719 7.646z"/><path data-name="Path 706" d="M33.529 13.63a9.892 9.892 0 11-9.824 10.03 10 10 0 019.824-10.03zm.036 17.609a7.725 7.725 0 000-15.44 7.725 7.725 0 000 15.44z"/><path data-name="Path 707" d="M47.068 14.113h2.413v2.726h.071c1.139-2.653 3.271-3.07 5.306-3.209v2.55a5.783 5.783 0 00-4.064 1.864 6.16 6.16 0 00-1.313 3.893v11.026h-2.413z"/><path data-name="Path 708" d="M65.991 13.63a9.892 9.892 0 11-9.825 10.03 10 10 0 019.825-10.03zm.035 17.609a7.725 7.725 0 000-15.44 7.725 7.725 0 000 15.44z"/></g></g><path data-name="Path 709" d="M78.933 15.678a1.6 1.6 0 11-1.6-1.634 1.588 1.588 0 011.6 1.634m-3.587 0a1.982 1.982 0 101.986-1.948 1.952 1.952 0 00-1.986 1.948m1.571-.838h.466c.4 0 .5.121.5.34 0 .247-.134.369-.553.369h-.416zm0 .989h.39l.6.985h.377l-.641-.993a.59.59 0 00.591-.62c0-.445-.264-.645-.8-.645h-.863v2.259h.347z"/></g></svg>