<svg xmlns="http://www.w3.org/2000/svg" width="2500" height="537.9" viewBox="0 0 2500 537.9"><path fill-rule="evenodd" clip-rule="evenodd" d="M2475 116.8h-169.2l-193 302.1h104.9l37.8-60.1h115l1.1 60.1h107.7l-4.3-302.1zM2284.8 314l82.5-131.5 2.3 131.5h-84.8zM223.3 110.7c-91-.4-145.7 29.9-160.1 99.9C40.9 318.2 220.9 272.1 218.4 323c-1.2 24.6-18.9 41.1-48.7 41.1-44.7-.3-39.2-23.5-34.3-45.6H21C-2.4 398 55 429 151.1 429c100.1 0 166.5-26 181.4-102.6 23.4-120.2-174.1-68.4-158.6-125 6.9-20.3 9.7-28.7 44.6-27.3 35 1.4 32.8 24.9 28.3 39.7h113.3c6.7-73.2-12.9-102.5-136.8-103.1zm619.2 6.1H734.8l-89.5 302.1h246.2l19.6-68.5h-140l71.4-233.6zm1226 0L1979 418.9h104.9l92.3-302.1h-107.7zm-877.5 0l-148.2 242-2.8-242H937.9l4.2 302.1h166.4l193-302.1H1191zm355.1 0h-169.2l-193 302.1h104.9l37.8-60.1h115l1.1 60.1h107.7l-4.3-302.1zM1355.9 314l82.5-131.5 2.3 131.5h-84.8zm565.8-197.2L1860.1 321l-33.6-204.2h-153.8l-89.5 302.1h83.9l65.7-219.6 36.4 219.6h145.5l92.3-302.1h-85.3zm-1302.8 0L515.4 253.9l-30.8-137.1H372.8l58.7 209.8-26.6 92.3h106.3l23.8-78.3 183.2-223.8h-99.3z"/></svg>