<svg xmlns="http://www.w3.org/2000/svg" width="137.855" height="21.004" viewBox="0 0 137.855 21.004"><path d="M131.902 20.64h5.954L131.708.365h-8.461l-6.139 20.275h5.955l1.086-3.753h6.659l1.091 3.753m-6.464-8.261l2.026-7h.035l2.026 7zM29.722 21c6.114 0 9.069-1.077 9.488-6.594.1-1.313.119-2.66.119-3.91s-.019-2.594-.119-3.907C38.791 1.075 35.836 0 29.722 0s-9.067 1.075-9.484 6.594c-.1 1.313-.122 2.662-.122 3.907s.021 2.6.122 3.91c.417 5.517 3.371 6.594 9.484 6.594m-3.844-10.5c0-1.113.028-1.771.052-2.26.155-3.129 1.391-3.494 3.793-3.494s3.639.365 3.793 3.494c.024.488.053 1.146.053 2.26s-.029 1.776-.053 2.263c-.153 3.13-1.389 3.5-3.793 3.5s-3.638-.365-3.793-3.5a42.48 42.48 0 01-.052-2.263zM0 .374v5.054h6.061v15.22h6.063V5.428h6.061V.374H0M93.026 20.64V.365h-5.754V20.64h5.754M69.875 7.768v-7.4h-5.721V20.64h5.721v-7.818h6.648v7.818h5.719V.365h-5.719v7.4h-6.648m42.075 2.283c2.549-.652 3.3-2.174 3.3-4.374 0-4.456-2.8-5.3-6.789-5.3H98.127V20.64h10.842c4.992 0 6.67-2.151 6.67-5.458 0-2.306-.527-4.341-3.689-5.139m-8.1 2.269h3.967c1.6 0 1.937.7 1.937 1.844a1.7 1.7 0 01-1.937 1.847h-3.967zm0-7.311h3.967a1.486 1.486 0 011.677 1.673 1.531 1.531 0 01-1.677 1.636h-3.967V5.002zm-61.187 8.986h5.454c.005.984.131 1.641.608 2 .543.409 1.029.544 2.64.544 1.551 0 3.25 0 3.25-1.91 0-1.506-.949-1.85-2.7-1.944-4.346-.23-5.917-.353-7.536-1.555-1.1-.82-1.675-2.416-1.675-4.574 0-3.67 1.28-4.957 3.128-5.856 1.906-.927 9.386-.927 11.4 0 2.531 1.166 2.605 3.691 2.605 6.033h-5.44c-.01-1.194-.279-1.531-.5-1.753a3.664 3.664 0 00-2.531-.607c-1.406 0-3.033.063-3.033 1.771 0 1.3.564 1.847 2.042 1.943 2.032.13 6.035.258 7.461 1.1 2 1.183 2.519 2.784 2.519 5.4 0 3.775-1.351 4.883-3.231 5.714-2.169.958-9.415.958-11.771-.074-2.636-1.149-2.69-3.44-2.69-6.233" fill="red"/></svg>