<svg xmlns="http://www.w3.org/2000/svg" width="400" height="400" viewBox="0 0 400 400"><path fill="#6FA8DC" d="M269.325 140.8c-4.9 4.9-5.6 12-2.1 17.6h-.7l2.1 2.1 19.7 19.7c16.2 16.9 16.2 42.9 0 59.8l-58.4 58.5c-14.8 15.5-38.7 17.6-56.3 4.9-18.3-14.1-21.8-40.8-7.7-59.8.7-1.4 2.1-2.8 3.5-3.5l39.4-39.4c4.9-4.9 12.7-6.3 18.3-2.1 6.3 4.9 7.7 13.4 2.8 19.7 0 .7-.7.7-.7 1.4l-39.4 39.4c-4.9 4.9-6.3 12.7-2.1 18.3 4.9 6.3 13.4 7.7 19.7 2.8.7 0 .7-.7 1.4-.7l50-50c11.3-10.6 11.3-28.9.7-39.4l-.7-.7-88.7-88.7c-4.9-5.6-14.1-5.6-19-.7l-.7.7-64.7 64.7c-24.6 24.6-24.6 64.7 0 89.4l69.7 69.7c24.6 24.6 64.7 24.6 89.4 0l69.7-69.7c24.6-24.6 24.6-64.7 0-89.4l-24.6-24.6c-5.8-5.6-15-5.6-20.6 0z"/><path fill="#B8DDFF" d="M189.825 61.3c4.9-5.6 14.1-5.6 19-.7l.7.7 40.1 39.4c5.6 4.9 5.6 14.1.7 19l-.7.7c-4.9 5.6-14.1 5.6-19 .7l-.7-.7-40.1-40.1c-4.9-4.9-5.6-12.7-.7-18.3l.7-.7z"/></svg>