<svg version="1.1" id="icon-payment" xmlns="http://www.w3.org/2000/svg" x="0" y="0" width="64" height="64" viewBox="0 0 64 64" xml:space="preserve"><style>.st1{fill:#a1e4ff}</style><path d="M51 27.4h-.1v-3.2c0-10.3-8.3-18.6-18.6-18.6S13.7 14 13.7 24.2v3.2H13c-2.9 0-5.1 2.5-5.1 5.5V41c-.1 2.8 2.2 5.2 5 5.3h4.9c.7 0 1.2-.6 1.2-1.3V29c0-.8-.5-1.6-1.2-1.6h-1.4v-3.2c0-8.8 7.2-16 16-16s16 7.2 16 16v3.2H47c-.7 0-1.2.8-1.2 1.6v16c-.1.7.4 1.3 1.1 1.4h1.6l-.1.2c-2 2.6-5 4.1-8.3 4.1-.7-3.5-4.1-5.7-7.6-5-3 .6-5.1 3.2-5.2 6.3 0 3.6 2.9 6.5 6.5 6.5 1.8 0 3.5-.8 4.7-2 .8-.9 1.4-1.9 1.6-3.1 4.1 0 7.9-1.9 10.4-5.1l1.2-1.8c2.8-.2 4.6-2 4.6-4.5v-8.1c-.2-3.1-2.3-6.5-5.3-6.5z" fill="#2d3748"/><path class="st1" d="M16.4 43.7H13c-1.4 0-2.5-1.2-2.5-2.6v-8.2c0-1.5 1-2.9 2.5-2.9h3.4v13.7z"/><path d="M36.5 54.5c-.7.8-1.7 1.2-2.8 1.2-2.1 0-3.8-1.7-3.9-3.8 0-2.1 1.7-3.8 3.8-3.8 2.1 0 3.8 1.7 3.8 3.8.1.9-.2 1.9-.9 2.6z" fill="#ffe9b3"/><path class="st1" d="M53.5 41.7c0 1.8-1.7 2-2.5 2h-2.7V30H51c1.4 0 2.5 2 2.5 3.5v8.2z"/></svg>