<svg xmlns="http://www.w3.org/2000/svg" width="64" height="64" viewBox="0 0 64 64"><path fill="#FFBFAB" d="M49.8 38.9c1.7 0 3.1 1.4 3.1 3.1 0 1.7-1.4 3.1-3.1 3.1h-1.4v.1c1.7.4 2.7 2.1 2.3 3.8-.3 1.4-1.6 2.4-3.1 2.4h-2.1c1.7 0 3.1 1.4 3.1 3.1 0 1.7-1.4 3.1-3.1 3.1H34.3c-5.7 0-7.2-.7-12.8-2.1V34.7c.1-.1 16.7-3.1 16.7-13.2v-1c0-1.7 1.4-3.1 3.1-3.1 1.7 0 3.1 1.4 3.1 3.1.3 4.2-.4 8.3-2.1 12.1h9.4c1.7 0 3.1 1.4 3.1 3.1 0 1.7-1.4 3.1-3.1 3.1l-1.9.1z"/><path fill="#7BD8E8" d="M21.6 34.7v20.9c0 1.2-.9 2.1-2.1 2.1H9V32.6h10.4c1.2 0 2.2 1 2.2 2.1z"/><path d="M42.4 11.1V6.3c0-.6-.5-1-1-1s-1 .5-1 1v4.8c0 .6.5 1 1 1 .6.1 1-.4 1-1zm-25 26.8c-.6 0-1 .5-1 1 0 .6.5 1 1 1 .6 0 1-.5 1-1 0-.6-.4-1-1-1z"/><path d="M51.9 31.6h-7.8c1.2-3.2 1.7-6.6 1.6-10 0-.4 0-.8-.1-1.2 0-2.3-1.9-4.2-4.2-4.1-2.3 0-4.2 1.9-4.1 4.2v1c0 6.6-8.5 10.3-14.9 11.9-.5-1.1-1.6-1.9-2.9-1.9H9c-.6 0-1 .5-1 1v25.1c0 .6.5 1 1 1h10.4c1.2 0 2.4-.7 2.9-1.9.5.1 1 .3 1.5.4 3.4 1 7 1.5 10.5 1.5h11.2c2.3 0 4.2-1.9 4.2-4.2 0-.8-.2-1.6-.7-2.3 2.2-.8 3.3-3.2 2.6-5.3-.1-.3-.3-.6-.5-.9 2.2-.8 3.3-3.2 2.6-5.3-.1-.3-.3-.6-.5-.9 2.2-.8 3.3-3.2 2.6-5.3-.6-1.7-2.2-2.8-3.9-2.8zm-31.4 24c0 .6-.5 1-1 1h-9.4v-23h9.4c.6 0 1 .5 1 1v21zm31.4-17.7h-5.2c-.6 0-1 .5-1 1s.5 1 1 1h3.1c1.2 0 2.1 1 2 2.1 0 1.1-.9 2-2 2h-5.2c-.6 0-1 .5-1 1 0 .6.5 1 1 1h3.1c1.2 0 2.1.9 2.1 2 0 1.2-.9 2.1-2 2.1h-5.3c-.6 0-1 .5-1 1 0 .6.5 1 1 1h3.1c1.2 0 2.1 1 2 2.1 0 1.1-.9 2-2 2H34.3c-3.4.1-6.8-.4-10-1.4-.5-.1-1.1-.3-1.7-.4V35.6c7.6-1.8 16.7-6.2 16.7-14v-1c0-1.2 1-2.1 2.1-2 1.1 0 2 .9 2 2 .3 3.8-.3 7.6-1.7 11.1h-3.5c-.6 0-1 .5-1 1 0 .6.5 1 1 1h13.6c1.2 0 2.1.9 2.1 2 .1 1.2-.8 2.1-2 2.2z"/><path d="M17.4 42c-.6 0-1 .5-1 1v8.4c0 .6.5 1 1 1 .6 0 1-.5 1-1V43c0-.5-.5-1-1-1zm10.4-22.5c0 .6.5 1 1 1H33c.6 0 1-.5 1-1 0-.6-.5-1-1-1h-4.2c-.5-.1-1 .4-1 1zm20.9 0c0 .6.5 1 1 1h4.2c.6 0 1-.5 1-1 0-.6-.5-1-1-1h-4.2c-.5-.1-1 .4-1 1zm.8-9.6l-3 3c-.4.4-.4 1.1 0 1.5.4.4 1.1.4 1.5 0l3-3c.4-.4.4-1.1 0-1.5-.4-.4-1.1-.4-1.5 0zm-13.3 4.4c.4-.4.4-1.1 0-1.5l-3-3c-.4-.4-1.1-.4-1.5 0-.4.4-.4 1.1 0 1.5l3 3c.5.4 1.1.4 1.5 0z"/></svg>