<svg version="1.1" id="icon-satisfaction-02" xmlns="http://www.w3.org/2000/svg" x="0" y="0" width="64" height="64" viewBox="0 0 64 64" xml:space="preserve"><style>.st4{fill:#ffd15c}</style><path id="Path_1508" d="M41.4 47.9l7-3.3c1.6-.8 3.4-.2 4.3 1.3l-14.3 9.3c-1.9.9-4.1 1.1-6.1.7l-9.9-2.8c-.9-.3-1.9-.1-2.7.3l-2.1 1.1.3-10.1h.1c3-2.1 6.8-2.4 10-.7l.6.3c.9.5 1.9.7 3 .8l5.8.2c1.8 0 3.4 1.2 4 2.9z" fill="#f7caa5"/><path id="Path_1509" d="M43.3 30.3c0 6-4.9 10.8-10.8 10.8s-10.8-4.9-10.8-10.8c0-6 4.9-10.8 10.8-10.8 6-.1 10.8 4.8 10.8 10.8z" fill="#fedb41"/><path id="Path_1510" d="M32.5 29.4c-1 0-1.8-.8-1.8-1.8s.8-1.8 1.8-1.8 1.8.8 1.8 1.8c0 .4.4.8.8.8s.8-.4.8-.8c0-1.6-1.1-3-2.7-3.4v-.7c0-.4-.4-.8-.8-.8s-.8.4-.8.8v.8c-1.8.5-2.9 2.4-2.4 4.2.4 1.5 1.8 2.5 3.3 2.5 1 0 1.8.8 1.9 1.8 0 1-.8 1.8-1.8 1.9h-.3c-.9-.1-1.6-.9-1.6-1.8 0-.4-.4-.8-.8-.8s-.8.4-.8.8c0 1.5 1 2.9 2.5 3.3v.8c0 .4.4.8.8.8s.8-.4.8-.8v-.8c1.9-.4 3-2.2 2.6-4.1-.3-1.6-1.7-2.7-3.3-2.7z" fill="#455a64"/><path id="Path_1511" d="M41.6 50.2l-9.6-.3c-.4 0-.8-.4-.8-.8s.4-.8.8-.8l8.6.2c0-.1-.1-.3-.1-.4-.5-1.4-1.8-2.4-3.3-2.4l-5.8-.2c-1.2 0-2.3-.3-3.3-.9l-.6-.3c-2.9-1.5-6.5-1.3-9.2.6-.4.3-.9.2-1.1-.2-.3-.4-.2-.9.2-1.1 3.2-2.3 7.4-2.6 10.9-.8l.6.3c.8.4 1.7.7 2.6.7l5.8.2c2.8.1 5.1 2.4 5 5.3.1.5-.2.9-.7.9z" fill="#edb288"/><g id="Group_1545" transform="translate(14.43)"><path id="Path_1512" class="st4" d="M18.1 17.2c-.4 0-.8-.4-.8-.8V8.7c0-.4.4-.8.8-.8s.8.4.8.8v7.6c0 .5-.4.9-.8.9z"/><path id="Path_1513" class="st4" d="M24.1 17.2c-.4 0-.8-.4-.8-.8v-3.6c0-.4.4-.8.8-.8s.8.4.8.8v3.6c0 .4-.4.8-.8.8z"/><path id="Path_1514" class="st4" d="M12.1 17.2c-.4 0-.8-.4-.8-.8v-3.6c0-.4.4-.8.8-.8s.8.4.8.8v3.6c0 .4-.4.8-.8.8z"/></g><path id="Path_1515" d="M17.6 54.5v1.1l-6.4-.2.4-14 6.4.2-.1 2.8-.3 10.1z" fill="#91def5"/></svg>