<svg xmlns="http://www.w3.org/2000/svg" width="64" height="64" viewBox="0 0 64 64"><path fill="#ACD5DF" d="M20.4 29.9h4.3v-5.8l-2.2-2.9-2.2 2.9v5.8zm18.9-5.7V30h4.3v-5.8l-2.2-2.9-2.1 2.9z"/><path fill="#91DEF5" d="M43.6 19.7c0-6.4-5.2-11.6-11.7-11.6-6.4 0-11.6 5.2-11.6 11.6v4.4h4.3v-4.4c0-4 3.3-7.3 7.3-7.3s7.3 3.3 7.3 7.3v4.4h4.3v-4.4z"/><path fill="#373E9F" d="M43.6 27h-2.9v4.3H45v-2.9c.1-.7-.6-1.4-1.4-1.4z"/><path fill="#6241EA" d="M40.8 27H20.4c-.8 0-1.4.6-1.4 1.4v2.9h23.3v-2.9c-.1-.7-.7-1.4-1.5-1.4z"/><path fill="#FFB820" d="M48 55.9h-2.9L35 42.9l10.1-13H48v26z"/><path fill="#FFD06A" d="M16 29.9h29.1v26H16v-26z"/><path fill="#373E9F" d="M34.2 41.5c0-1.2-1-2.2-2.2-2.2-1.2 0-2.2 1-2.2 2.2 0 .6.3 1.2.7 1.6v3.4h2.9v-3.4c.5-.4.8-1 .8-1.6z"/><path d="M32 38.6c-1.6 0-2.9 1.3-2.9 2.9 0 .7.3 1.4.7 1.9v3.1c0 .4.3.7.7.7h2.9c.4 0 .7-.3.7-.7v-3.1c1.1-1.2.9-3-.2-4.1-.5-.4-1.2-.7-1.9-.7zm1 4c-.2.1-.2.3-.2.5v2.7h-1.4v-2.7c0-.2-.1-.4-.2-.5-.6-.5-.6-1.4-.1-2 .5-.6 1.4-.6 2-.1.6.5.6 1.4.1 2-.2 0-.2 0-.2.1z"/><path d="M48 29.2h-2.2v-.7c0-.9-.6-1.7-1.4-2v-6.7C44.5 13 39 7.4 32.1 7.3c-6.8-.1-12.4 5.4-12.5 12.3v6.9c-.9.3-1.4 1.1-1.4 2v.7H16c-.4 0-.7.3-.7.7v26c0 .4.3.7.7.7h32c.4 0 .7-.3.7-.7v-26c0-.4-.3-.7-.7-.7zM32 8.8c6 0 10.9 4.9 10.9 10.9v6.6H40v-6.6c0-4.4-3.6-8-8-8-1.5 0-3.1.4-4.4 1.3-.3.2-.4.7-.2 1 .2.3.6.4 1 .2 3.1-2 7.1-1.1 9.1 1.9.7 1.1 1.1 2.3 1.1 3.6v6.6H25.4v-6.6c0-1.3.4-2.6 1.1-3.7.2-.3.1-.8-.2-1s-.8-.1-1 .2c-.9 1.3-1.4 2.9-1.4 4.5v6.6H21v-6.6c.1-6 5-10.9 11-10.9zM19.6 28.5c0-.4.3-.7.7-.7h23.3c.4 0 .7.3.7.7v.7H19.6v-.7zm27.7 26.7H16.7V30.7h30.5l.1 24.5z"/></svg>