<svg version="1.1" id="icon-payment-02" xmlns="http://www.w3.org/2000/svg" x="0" y="0" width="64" height="64" viewBox="0 0 64 64" xml:space="preserve"><style>.st0{fill:#455a64}</style><path id="Path_1516" class="st0" d="M32 7c-7.5 0-13.6 6-13.6 13.5v8.3c0 .6.5 1 1 1h4.2c.6 0 1-.5 1-1v-8.3c0-4 3.3-7.3 7.3-7.3s7.3 3.3 7.3 7.3v8.3c0 .6.5 1 1 1h4.2c.6 0 1-.5 1-1v-8.3C45.6 13 39.5 7 32 7z"/><path id="Path_1517" d="M19.5 27.8h25c2.9 0 5.2 2.3 5.2 5.2v18.8c0 2.9-2.3 5.2-5.2 5.2h-25c-2.9 0-5.2-2.3-5.2-5.2V33c0-2.8 2.3-5.2 5.2-5.2z" fill="#ffc107"/><path id="Path_1518" class="st0" d="M37.2 39.3c0-2.9-2.3-5.2-5.2-5.2-2.9 0-5.2 2.3-5.2 5.2 0 2 1.1 3.8 2.9 4.7l-.8 5.6c-.1.6.3 1.1.9 1.2h4.3c.6 0 1-.5 1.1-1v-.2l-.9-5.6c1.8-.9 2.9-2.7 2.9-4.7z"/></svg>