<svg xmlns="http://www.w3.org/2000/svg" width="64" height="64" viewBox="0 0 64 64"><path fill="#FFC15A" d="M16.1 40.6L36.8 52l20.8-11.4V17.8L36.9 6.4 16.1 17.8v22.8z"/><path fill="#FFCB7C" d="M57.6 17.8v22.8L36.8 52V29.2l20.8-11.4z"/><path fill="#FFE6C0" d="M57.6 17.8L36.9 29.2 16.1 17.8 36.9 6.4l20.7 11.4z"/><path fill="#FFF" d="M24.3 13.3l20.8 11.4 4.4-2.5-20.7-11.4-4.5 2.5z"/><path fill="#FFF" d="M45.1 24.7v7.1l4.4-2.4v-7.2l-4.4 2.5z"/><path fill="#91DEF5" d="M32 44.8c0 7.1-5.7 12.8-12.8 12.8-7.1 0-12.8-5.7-12.8-12.8 0-7.1 5.7-12.8 12.8-12.8C26.3 32 32 37.7 32 44.8z"/><path d="M58.1 16.9L37.3 5.5c-.3-.2-.7-.2-1 0l-7.8 4.3c-.2 0-.3.1-.4.2l-12.5 6.9c-.3.2-.5.5-.5.9v13.8C7.7 33.9 3.7 41.7 6 49c.2.7.5 1.3.8 1.9.3.5.9.7 1.4.4.5-.3.7-.9.5-1.4-2.9-5.8-.5-12.8 5.3-15.7 5.8-2.9 12.9-.4 15.7 5.4 2.9 5.8.4 12.9-5.4 15.7-3.3 1.6-7.1 1.6-10.3 0-.5-.2-1.1 0-1.4.5-.2.5 0 1.1.5 1.4 6.9 3.4 15.2.5 18.5-6.4.1-.1.1-.3.2-.4l4.5 2.5c.3.2.7.2 1 0l20.8-11.4c.3-.2.5-.5.5-.9v-7.2c0-.6-.5-1-1-1s-1 .5-1 1V40L37.9 50.2V29.8l6.2-3.4v5.4c0 .6.5 1 1 1 .2 0 .3 0 .5-.1l4.5-2.5c.3-.2.5-.5.5-.9v-6.5l6-3.3V25c0 .6.5 1 1 1s1-.5 1-1v-7.2c.1-.4-.2-.7-.5-.9zM36.8 7.6l18.6 10.2-5.8 3.2L31 10.8l5.8-3.2zm0 20.4L18.3 17.8l6.1-3.3L43 24.7 36.8 28zm8.3-4.5L26.5 13.3l2.3-1.3 18.6 10.2-2.3 1.3zM29 35c-2.6-2.6-6.1-4.1-9.8-4.1-.7 0-1.4.1-2.1.2V19.6l18.7 10.3v20.4l-3.2-1.8c.3-1.2.5-2.4.5-3.7 0-3.7-1.5-7.2-4.1-9.8zm19.5-6.3L46.1 30v-4.7l2.4-1.3v4.7z"/><path d="M57.6 28.1c-.6 0-1 .5-1 1 0 .6.5 1 1 1 .6 0 1-.5 1-1 0-.3-.1-.5-.3-.7-.2-.2-.4-.3-.7-.3zM15.7 45.8c.6 0 1-.5 1-1 0-.3-.1-.5-.3-.7l-.7-.7h6.1c1.5 0 2.7 1.2 2.7 2.7 0 1.5-1.2 2.7-2.7 2.7h-3.6c-.6 0-1.1.4-1.1 1s.4 1.1 1 1.1h3.7c2.6 0 4.8-2.1 4.8-4.8 0-2.6-2.1-4.8-4.8-4.8h-6.1l.7-.7c.4-.4.4-1.1 0-1.5-.4-.4-1.1-.4-1.5 0l-2.5 2.5c-.4.4-.4 1.1 0 1.5l2.5 2.5c.3.1.5.2.8.2zm-5.6 9.1c-.3 0-.6-.1-.8-.4-.3-.4-.3-1.1.2-1.4.4-.4 1.1-.3 1.5.1.4.4.3 1.1-.1 1.5-.3.1-.5.2-.8.2z"/></svg>