<svg version="1.1" id="icon-satisfaction" xmlns="http://www.w3.org/2000/svg" x="0" y="0" width="64" height="64" viewBox="0 0 64 64" xml:space="preserve"><style>.st0{fill:#2d3748}</style><path class="st0" d="M32 57.4c-11.4 0-21.4-7.7-24.2-18.8-.1-.5.2-.9.6-1.1.5-.1.9.2 1.1.6C12.1 48.5 21.4 55.7 32 55.7c12.8 0 23.3-10.4 23.3-23.3 0-.5.4-.9.9-.9s.9.4.9.9c-.1 13.8-11.3 25-25.1 25zm-24.2-25c-.4 0-.8-.4-.8-.8 0-13.8 11.2-25 25-25 11.4 0 21.4 7.7 24.2 18.8.1.5-.2.9-.6 1.1-.5.1-.9-.2-1.1-.6C51.9 15.5 42.6 8.3 32 8.3 19.2 8.3 8.7 18.7 8.7 31.6c0 .4-.4.8-.9.8z"/><path class="st0" d="M7.8 32.4c-.2 0-.4-.1-.6-.3l-2.6-2.6c-.3-.3-.3-.9 0-1.2.4-.3.9-.3 1.3.1L8.5 31c.3.3.3.9 0 1.2-.2.1-.4.2-.7.2z"/><path class="st0" d="M7.8 32.4c-.2 0-.4-.1-.6-.3-.3-.3-.3-.9 0-1.2l2.6-2.6c.3-.3.9-.3 1.2 0 .3.3.3.9 0 1.2l-2.6 2.6c-.1.2-.3.3-.6.3zM58.7 35c-.2 0-.4-.1-.6-.3l-2.6-2.6c-.3-.3-.3-.9 0-1.2.3-.3.9-.3 1.2 0l2.6 2.6c.3.3.3.9 0 1.2-.1.2-.3.3-.6.3z"/><path class="st0" d="M53.6 35c-.2 0-.4-.1-.6-.3-.3-.3-.3-.9 0-1.2l2.6-2.6c.3-.3.9-.3 1.2 0 .3.3.3.9 0 1.2l-2.6 2.6c-.2.2-.4.3-.6.3zM16.5 51.8c-.5 0-.9-.4-.9-.9V29c0-.5.4-.9.9-.9s.9.4.9.9v22c-.1.4-.5.8-.9.8zm31 0c-.5 0-.9-.4-.9-.9V29c0-.5.4-.9.9-.9s.9.4.9.9v22c0 .4-.4.8-.9.8z"/><path class="st0" d="M47.5 29.8h-31c-.5 0-.9-.4-.9-.9s.4-.9.9-.9h31.1c.5 0 .9.4.9.9-.1.5-.5.9-1 .9z"/><path class="st0" d="M16.5 29.8c-.2 0-.3 0-.4-.1-.4-.2-.5-.8-.3-1.2l2.6-4.3c.2-.4.8-.5 1.2-.3.4.2.5.8.3 1.2l-2.6 4.3c-.3.3-.5.4-.8.4zm31 0c-.3 0-.6-.1-.7-.4l-2.6-4.3c-.2-.4-.1-.9.3-1.2.4-.2.9-.1 1.2.3l2.6 4.3c.2.4.1.9-.3 1.2-.2.1-.3.1-.5.1z"/><path class="st0" d="M44.9 25.5H19.1c-.5 0-.9-.4-.9-.9s.4-.9.9-.9H45c.5 0 .9.4.9.9-.1.5-.5.9-1 .9z"/><path class="st0" d="M28.5 29.8h-.2c-.5-.1-.8-.5-.7-1l.9-4.3c.1-.5.5-.8 1-.7.5.1.8.5.7 1l-.9 4.3c0 .5-.3.7-.8.7zm6.9 0c-.4 0-.8-.3-.8-.7l-.9-4.3c-.1-.5.2-.9.7-1 .5-.1.9.2 1 .7l.9 4.3c.1.5-.2.9-.7 1h-.2z"/><path class="st0" d="M28.5 35c-.5 0-.9-.4-.9-.9V29c0-.5.4-.9.9-.9s.9.4.9.9v5.2c0 .4-.4.8-.9.8zm7 0c-.5 0-.9-.4-.9-.9V29c0-.5.4-.9.9-.9s.9.4.9.9v5.2c-.1.4-.5.8-.9.8z"/><path class="st0" d="M35.5 35h-.2l-3.5-.9c-.5-.1-.7-.6-.6-1 .1-.5.6-.7 1-.6l3.5.9c.5.1.7.6.6 1-.1.4-.5.6-.8.6z"/><path class="st0" d="M28.5 35c-.4 0-.7-.3-.8-.7-.1-.5.2-.9.6-1l3.5-.9c.5-.1.9.2 1 .6.1.5-.2.9-.6 1l-3.4 1h-.3zm11.3 10.4H24.2c-.5 0-.9-.4-.9-.9s.4-.9.9-.9h15.5c.5 0 .9.4.9.9s-.4.9-.8.9zm0-3.5H24.2c-.5 0-.9-.4-.9-.9s.4-.9.9-.9h15.5c.5 0 .9.4.9.9s-.4.9-.8.9zm-4.3 6.9h-6.9c-.5 0-.9-.4-.9-.9s.4-.9.9-.9h6.9c.5 0 .9.4.9.9-.1.5-.5.9-.9.9z"/></svg>