<svg version="1.1" id="icon-quality-04" xmlns="http://www.w3.org/2000/svg" x="0" y="0" width="64" height="64" viewBox="0 0 64 64" xml:space="preserve"><style>.st0{fill:#2a4054}</style><g id="Group_1550" transform="translate(26.156 7.133)"><g id="Group_1549"><path id="Path_1532" class="st0" d="M17.7 11.7h-2.4c-.7 0-1.2.5-1.2 1.2s.5 1.2 1.2 1.2h2.4c.7 0 1.2-.5 1.2-1.2 0-.6-.5-1.1-1.2-1.2z"/></g></g><g id="Group_1552" transform="translate(14.266)"><g id="Group_1551"><path id="Path_1533" class="st0" d="M17.6 14.8l-1.2-2.4c-.3-.6-1-.8-1.6-.5s-.8 1-.5 1.6l1.2 2.4c.3.6 1 .8 1.6.5s.8-1 .5-1.6z"/></g></g><g id="Group_1554" transform="translate(22.588)"><g id="Group_1553"><path id="Path_1534" class="st0" d="M17.1 11.9c-.6-.3-1.3-.1-1.6.5l-1.2 2.4c-.3.6-.1 1.3.5 1.6.6.3 1.3.1 1.6-.5l1.2-2.4c.3-.6.1-1.3-.5-1.6z"/></g></g><g id="Group_1556" transform="translate(9.511 7.133)"><g id="Group_1555"><path id="Path_1535" class="st0" d="M17.7 11.7h-2.4c-.7 0-1.2.5-1.2 1.2s.5 1.2 1.2 1.2h2.4c.7 0 1.2-.5 1.2-1.2 0-.6-.5-1.1-1.2-1.2z"/></g></g><g id="Group_1558" transform="translate(0 19.101)"><g id="Group_1557"><path id="Path_1536" class="st0" d="M20.1 11.7h-4.8c-.7 0-1.2.5-1.2 1.2v19c0 .7.5 1.2 1.2 1.2h4.8c.7 0 1.2-.5 1.2-1.2v-19c0-.6-.5-1.2-1.2-1.2z"/></g></g><g id="Group_1560" transform="translate(9.511 7.212)"><g id="Group_1559"><path id="Path_1537" class="st0" d="M40.3 26.8c-.3-1.9-1.9-3.2-3.8-3.2h-9.3c.8-1.4 1.2-5.4 1.2-7-.1-2.7-2.3-4.9-5-4.9h-1c-.7 0-1.2.5-1.2 1.2 0 2.7-1.1 7.7-3.1 9.7-1.2 1.1-2.5 2-4 2.6V43c3.1 1.2 6.4 1.9 9.8 1.9h7.8c2 .1 3.7-1.4 3.8-3.4 0-.5-.1-1-.2-1.5 1.9-.5 3-2.5 2.5-4.4 0-.1-.1-.3-.1-.4 1.9-.5 3-2.5 2.5-4.4-.1-.5-.4-1-.8-1.4.7-.6 1-1.6.9-2.6z"/></g></g></svg>