<svg version="1.1" id="icon-satisfaction" xmlns="http://www.w3.org/2000/svg" x="0" y="0" width="64" height="64" viewBox="0 0 64 64" xml:space="preserve"><style>.st0{fill:#2d3748}</style><path class="st0" d="M12 53.6c0 2.5 2.1 4.6 4.6 4.6H52V5.7H16.6c-2.5 0-4.6 2.1-4.6 4.6v43.3zm36.9 1.6H16.6c-.8 0-1.5-.7-1.5-1.5v-39c.5.2 1 .3 1.5.3h32.3v40.2zM16.6 8.8h32.3v3.1H16.6c-.8 0-1.5-.7-1.5-1.5s.7-1.6 1.5-1.6z"/><path class="st0" d="M32 48.9c7.6 0 13.8-6.2 13.8-13.8S39.6 21.2 32 21.2 18.2 27.4 18.2 35 24.4 48.9 32 48.9zm0-24.6c5.9 0 10.8 4.8 10.8 10.8S37.9 45.8 32 45.8 21.2 41 21.2 35.1 26.1 24.3 32 24.3z"/><path class="st0" d="M30.5 33.5h3.1v9.2h-3.1v-9.2zm0-6.1h3.1v3.1h-3.1v-3.1z"/></svg>