<svg version="1.1" id="icon-quality" xmlns="http://www.w3.org/2000/svg" x="0" y="0" width="64" height="64" viewBox="0 0 64 64" xml:space="preserve"><style>.st0{fill:#2d3748}</style><path class="st0" d="M35 7.9l1.6 1.4c.9.8 2 1.2 3.2 1.2l2.1-.1c2.3-.1 4.3 1.6 4.5 3.8l.3 2.1c.2 1.2.8 2.2 1.7 2.9l1.7 1.3c1.8 1.4 2.3 3.9 1 5.8L50 28.1c-.6 1-.8 2.2-.6 3.3l.5 2.1c.5 2.2-.8 4.5-3 5.1l-2 .6c-1.1.3-2 1.1-2.6 2.2l-1 1.9c-1.1 2-3.5 2.9-5.6 2l-2-.8c-1.1-.4-2.3-.4-3.4 0l-2 .8c-2.1.9-4.5 0-5.6-2l-1-1.9c-.5-1-1.5-1.8-2.6-2.2l-2-.6c-2.2-.7-3.5-2.9-3-5.1l.5-2.1c.3-1.1 0-2.3-.6-3.3l-1-1.7c-1.2-1.9-.8-4.5 1-5.8l1.7-1.3c.9-.7 1.5-1.8 1.7-2.9l.3-2.1c.3-2.3 2.3-3.9 4.5-3.8l2.1.1c1.2.1 2.3-.4 3.2-1.2L29 7.9c1.7-1.5 4.3-1.5 6 0z"/><circle cx="32" cy="26.2" r="13.1" fill="#fff"/><path class="st0" d="M29.7 32.6c-.4 0-.9-.2-1.2-.5l-4.7-4.7c-.7-.7-.7-1.8 0-2.5s1.8-.7 2.5 0l3.5 3.5 8-8c.7-.7 1.8-.7 2.5 0s.7 1.8 0 2.5L31 32.1c-.4.4-.8.5-1.3.5zm-3 14.9c-2.3 0-4.4-1.3-5.4-3.3l-1-1.9c-.3-.6-.9-1.1-1.6-1.3l-1.9-.6-1.8 3.7-4 8c-.2.4-.3.9-.1 1.3.1.4.4.8.8.9l6.8-2.5 2.1 6.9c.4.2.8.2 1.2 0 .4-.2.7-.5 1-.9l4-8 1.3-2.6c-.5.2-1 .3-1.4.3zM49 44.1l-1.8-3.7-1.9.6c-.7.2-1.2.7-1.6 1.3l-1 1.9c-1.1 2-3.1 3.3-5.4 3.3-.5 0-.9-.1-1.4-.2l1.3 2.6 4 8c.2.4.6.7 1 .9.4.2.8.2 1.2 0l2.1-6.9 6.8 2.5c.4-.2.6-.5.8-.9.1-.4.1-.9-.1-1.3l-4-8.1z"/></svg>