<svg xmlns="http://www.w3.org/2000/svg" width="64" height="64" viewBox="0 0 64 64"><path fill="#2D3748" d="M12 53.6c0 2.5 2.1 4.6 4.6 4.6H52V5.7H16.6c-2.5 0-4.6 2.1-4.6 4.6v43.3z"/><path fill="#FFE9B3" d="M48.9 55.2H16.6c-.8 0-1.5-.7-1.5-1.5v-39c.5.2 1 .3 1.5.3h32.3v40.2zM16.6 8.8h32.3v3.1H16.6c-.8 0-1.5-.7-1.5-1.5s.7-1.6 1.5-1.6z"/><circle fill="#2D3748" cx="32" cy="35.1" r="13.8"/><circle fill="#A1E4FF" cx="32" cy="35.1" r="10.8"/><path fill="#2D3748" d="M30.5 33.5h3.1v9.2h-3.1v-9.2zm0-6.1h3.1v3.1h-3.1v-3.1z"/></svg>