<svg version="1.1" id="icon-quality" xmlns="http://www.w3.org/2000/svg" x="0" y="0" width="64" height="64" viewBox="0 0 64 64" xml:space="preserve"><style>.st0{fill:#2d3748}</style><path class="st0" d="M27.3 44.7c0 2.6 2.1 4.7 4.7 4.7s4.7-2.1 4.7-4.7S34.6 40 32 40s-4.7 2.1-4.7 4.7zm4.7-1.6c.9 0 1.6.7 1.6 1.6 0 .9-.7 1.6-1.6 1.6s-1.6-.7-1.6-1.6c0-.9.7-1.6 1.6-1.6z"/><path class="st0" d="M6.7 49.4h11.7l2.9 5.1c.2.4.6.6 1 .7.4.1.8.1 1.2-.2l1.6-.9c.9-.5 2.2.1 2.2 1.2v1.9c0 .9.7 1.6 1.6 1.6h6.3c.9 0 1.6-.7 1.6-1.6v-1.8c0-1.1 1.3-1.8 2.3-1.2l1.5.9c.8.4 1.7.2 2.2-.6l2.9-5.1h11.7c.9 0 1.6-.7 1.6-1.6V6.7c0-.9-.7-1.6-1.6-1.6h-19c-2.6 0-4.9 1.2-6.3 3.2-1.4-1.9-3.7-3.2-6.3-3.2h-19c-.9 0-1.6.7-1.6 1.6v41.2c-.1.8.6 1.5 1.5 1.5zM33.6 13c0-2.6 2.1-4.7 4.7-4.7h17.4v38H44.2l-.6-.3c-1-.6-.9-2 0-2.5l1.6-.9c.8-.4 1-1.4.6-2.2l-3.2-5.5c-.4-.8-1.4-1-2.2-.6l-1.5.9c-1 .6-2.3-.1-2.3-1.2v-1.8c0-.9-.7-1.6-1.6-1.6h-1.6l.2-17.6zm0 20.7v.3c0 3.6 4 5.7 7.1 3.9l.1-.1 1.6 2.7-.2.1c-3 1.8-3.1 6.2 0 8l.3.2-1.6 2.7-.1-.1c-3.1-1.8-7 .4-7 4v.3h-3.2v-.3c0-3.5-3.9-5.7-7-4l-.2.1-1.6-2.7.4-.2c3.1-1.8 2.8-6.2-.2-8l-.2-.1 1.6-2.7.2.1c3.1 1.8 7-.5 7-4v-.3l3 .1zM8.3 8.3h17.4c2.6 0 4.7 2.1 4.7 4.7v17.5h-1.6c-.9 0-1.6.7-1.6 1.6V34c0 1.1-1.3 1.8-2.3 1.3l-1.6-.9c-.8-.4-1.7-.2-2.2.6l-3.2 5.5c-.4.8-.2 1.7.6 2.2l1.5.9c1 .6 1.2 2 .2 2.5l-.7.4H8.3V8.3z"/><path class="st0" d="M13 17.8h12.7c.9 0 1.6-.7 1.6-1.6s-.7-1.6-1.6-1.6H13c-.9 0-1.6.7-1.6 1.6 0 .9.7 1.6 1.6 1.6zm14.3 4.7c0-.9-.7-1.6-1.6-1.6H13c-.9 0-1.6.7-1.6 1.6s.7 1.6 1.6 1.6h12.7c.9 0 1.6-.7 1.6-1.6zm11 1.6H51c.9 0 1.6-.7 1.6-1.6s-.7-1.6-1.6-1.6H38.3c-.9 0-1.6.7-1.6 1.6s.7 1.6 1.6 1.6zm0-6.3H51c.9 0 1.6-.7 1.6-1.6s-.7-1.6-1.6-1.6H38.3c-.9 0-1.6.7-1.6 1.6 0 .9.7 1.6 1.6 1.6z"/></svg>