<svg version="1.1" id="Layer_1" xmlns="http://www.w3.org/2000/svg" x="0" y="0" width="64" height="64" viewBox="0 0 64 64" xml:space="preserve"><style>.st0{fill:#ffd15c}</style><g id="icon-quality-03" transform="translate(-.999 -1.036)"><path id="Path_1525" class="st0" d="M52.3 40.9l-4.7-.7-2.1-4.5c-.4-.7-1.3-.9-2-.5-.2.1-.4.3-.5.5l-2.1 4.5-4.9.7c-.8.1-1.3.8-1.2 1.6 0 .3.2.5.4.8l3.5 3.6-.8 5c-.1.8.4 1.5 1.2 1.6.3 0 .6 0 .9-.2l4.2-2.3 4.2 2.3c.7.4 1.5.1 1.9-.6.1-.3.2-.6.2-.9l-.8-5 3.5-3.6c.5-.6.5-1.4 0-2l-.9-.3z"/><path id="Path_1526" class="st0" d="M29.9 40.9l-4.7-.7-2.1-4.5c-.4-.7-1.3-.9-2-.5-.2.1-.4.3-.5.5l-2.1 4.5-4.7.7c-.8.1-1.3.8-1.2 1.6 0 .3.2.5.4.8l3.5 3.6-.8 5c-.1.8.4 1.5 1.2 1.6.3 0 .6 0 .9-.2L22 51l4.2 2.3c.7.4 1.5.1 1.9-.6.1-.3.2-.6.2-.9l-.8-5 3.5-3.6c.5-.6.5-1.4 0-2-.5-.1-.8-.2-1.1-.3z"/><path id="Path_1527" class="st0" d="M29.9 18.6l-4.7-.7-2.1-4.5c-.4-.7-1.3-.9-2-.5-.2.1-.4.3-.5.5l-2.1 4.5-4.7.7c-.8.1-1.3.8-1.2 1.6 0 .3.2.5.4.8l3.5 3.6-.8 5c-.1.8.4 1.5 1.2 1.6.3 0 .6 0 .9-.2l4.2-2.3 4 2.3c.7.4 1.5.1 1.9-.6.1-.3.2-.6.2-.9l-.8-5 3.5-3.6c.5-.6.5-1.4 0-2-.3-.2-.6-.3-.9-.3z"/><path id="Path_1528" class="st0" d="M38.7 24.5l-.8 5c-.1.8.4 1.5 1.2 1.6.3 0 .6 0 .9-.2l4.2-2.3 4.2 2.3c.7.4 1.5.1 1.9-.6.1-.3.2-.6.2-.9l-.8-5 3.5-3.6c.5-.6.5-1.4 0-2-.2-.2-.5-.3-.8-.4l-4.7-.7-2.1-4.5c-.4-.7-1.3-.9-2-.5-.2.1-.4.3-.5.5L41 17.7l-5 .9c-.8.1-1.3.8-1.2 1.6 0 .3.2.5.4.8l3.5 3.5z"/></g></svg>