<svg version="1.1" id="icon-payment" xmlns="http://www.w3.org/2000/svg" x="0" y="0" width="64" height="64" viewBox="0 0 64 64" xml:space="preserve"><style>.st0{fill:#2d3748}</style><path class="st0" d="M51.8 13.2H10.5c-1.5 0-2.6 1.2-2.6 2.6v27c0 1.5 1.2 2.6 2.6 2.6h28.8c.5 0 .8-.4.8-.8 0-.5-.4-.8-.8-.8H10.5c-.5 0-1-.4-1-1v-27c0-.5.4-1 1-1h41.4c.5 0 1 .4 1 1v11.7c0 .5.4.8.8.8.5 0 .8-.4.8-.8V15.8c0-1.4-1.2-2.6-2.7-2.6z"/><path class="st0" d="M22.2 19.5H15c-1 0-1.7.8-1.7 1.7v5.4c0 1 .8 1.7 1.7 1.7h7.2c1 0 1.7-.8 1.7-1.7v-5.4c0-.9-.8-1.7-1.7-1.7zm-5.4 7.2H15s-.1 0-.1-.1v-5.4s0-.1.1-.1h1.9v5.6zm5.4-.1s0 .1 0 0l-3.7.1v-1.9h1c.5 0 .8-.4.8-.8s-.4-.8-.8-.8h-1v-1.9h3.7s.1 0 .1.1v5.2zm22-8c-1 0-1.9.3-2.7.8-.8-.5-1.7-.8-2.7-.8-2.7 0-4.9 2.2-4.9 4.9s2.2 4.9 4.9 4.9c1 0 1.9-.3 2.7-.8.8.5 1.7.8 2.7.8 2.7 0 4.9-2.2 4.9-4.9s-2.2-4.9-4.9-4.9zm-4 7.7c-.4.2-.9.3-1.4.3-1.8 0-3.2-1.4-3.2-3.2 0-1.8 1.4-3.2 3.2-3.2.5 0 1 .1 1.4.3-.6.8-.9 1.8-.9 2.9 0 1.1.3 2.1.9 2.9zm4 .4c-.5 0-1-.1-1.4-.3.6-.8.9-1.8.9-2.9 0-.5-.4-.8-.8-.8-.5 0-.8.4-.8.8 0 .6-.2 1.2-.5 1.7-.3-.5-.5-1.1-.5-1.7 0-1.8 1.4-3.2 3.2-3.2 1.8 0 3.2 1.4 3.2 3.2-.1 1.7-1.5 3.2-3.3 3.2zM21.3 33h-7.2c-.5 0-.8.4-.8.8 0 .5.4.8.8.8h7.2c.5 0 .8-.4.8-.8 0-.5-.4-.8-.8-.8zm18.8 5.3h-26c-.5 0-.8.4-.8.8 0 .5.4.8.8.8h26.1c.5 0 .8-.4.8-.8s-.4-.8-.9-.8zm-8-5.3h-7.2c-.5 0-.8.4-.8.8 0 .5.4.8.8.8h7.2c.5 0 .8-.4.8-.8s-.4-.8-.8-.8zm8.9 0h-5.4c-.5 0-.8.4-.8.8 0 .5.4.8.8.8H41c.5 0 .8-.4.8-.8.1-.5-.3-.8-.8-.8zm15.3 6.4v-3.8c0-3.4-2.8-6.2-6.2-6.2s-6.2 2.8-6.2 6.2v3.8c-1 .4-1.8 1.3-1.8 2.5V50c0 1.5 1.2 2.6 2.6 2.6h10.8c1.5 0 2.6-1.2 2.6-2.6v-8.1c0-1.2-.8-2.2-1.8-2.5zm-10.8-3.8c0-2.5 2-4.6 4.6-4.6s4.6 2 4.6 4.6v3.7h-9.1l-.1-3.7zM56.4 50c0 .5-.4 1-1 1H44.6c-.5 0-1-.4-1-1v-8.1c0-.5.4-1 1-1h10.8c.5 0 1 .4 1 1V50z"/><path class="st0" d="M50 42.8c-1.2 0-2.2 1-2.2 2.2 0 .9.6 1.7 1.3 2v1.1c0 .5.4.8.8.8.5 0 .8-.4.8-.8V47c.8-.3 1.3-1.1 1.3-2 .2-1.2-.8-2.2-2-2.2zm0 2.7c-.3 0-.5-.2-.5-.5s.2-.5.5-.5.5.2.5.5-.2.5-.5.5z"/></svg>