<svg version="1.1" id="icon-quality-02" xmlns="http://www.w3.org/2000/svg" x="0" y="0" width="64" height="64" viewBox="0 0 64 64" xml:space="preserve"><style>.st1{fill:#40596b}</style><circle id="Ellipse_94" cx="32" cy="26.9" r="19.7" fill="#ffd15c"/><g id="Group_1544" transform="translate(0 31.221)"><path id="Path_1505" class="st1" d="M16 7.2L9.2 19l7.9-.4 3.6 7.1 6.3-11c-4.5-1.1-8.3-3.8-11-7.5z"/><path id="Path_1506" class="st1" d="M48 7.1c-2.7 3.7-6.6 6.4-11 7.6l6.3 10.9 3.6-7.1 7.9.4L48 7.1z"/></g><circle id="Ellipse_95" cx="32" cy="26.9" r="14.3" fill="#f8b64c"/><path id="Path_1507" d="M41.8 25.3c.3-.3.3-.8 0-1.1-.1-.1-.3-.2-.4-.2l-5.6-.8c-.2 0-.5-.2-.6-.4l-2.5-5.1c-.2-.4-.6-.5-1-.3-.1.1-.3.2-.3.3l-2.5 5.1c-.1.2-.3.4-.6.4l-5.6.8c-.4.1-.7.4-.6.9 0 .2.1.3.2.4l4.1 4c.2.2.3.4.2.7l-1 5.6c-.1.4.2.8.6.9.2 0 .3 0 .5-.1l5-2.7c.2-.1.5-.1.7 0l5 2.7c.4.2.8 0 1-.3.1-.1.1-.3.1-.5l-1-5.6c0-.2 0-.5.2-.7l4.1-4z" fill="#fff"/></svg>