<svg xmlns="http://www.w3.org/2000/svg" width="64" height="64" viewBox="0 0 64 64"><path d="M50.4 40.1c-1.2 3.4-3.2 6.6-5.9 9.1-3.3 3.1-7.2 5.4-11.4 6.8-.4.1-.7.2-1.1.2-.2 0-.5 0-.7-.1-.2 0-.3-.1-.5-.1-4.3-1.4-8.2-3.7-11.5-6.8-2.6-2.6-4.6-5.7-5.9-9.1-2.4-6.4-2.2-13.5-2.1-19.2v-1.6c0-2.7 2.2-4.9 4.8-5 5.1-.1 9.9-2.2 13.6-5.7 1.2-1.1 3-1.1 4.2 0 3.6 3.6 8.5 5.6 13.6 5.7 2.7.2 4.8 2.3 4.8 5v1.5c.4 5.8.5 12.9-1.9 19.3z" fill="#00dd80"/><path d="M44.1 32c0 6.6-5.4 12-12 12.1C25.4 44.1 20 38.7 20 32c0-6.7 5.4-12.1 12.1-12.1 6.6.1 12 5.5 12 12.1z" fill="#fff"/><path d="M37.5 30.3l-5.4 5.4-1.2 1.2c-.6.6-1.5.6-2 0l-2.5-2.5c-.6-.6-.6-1.5 0-2s1.5-.6 2 0l1.5 1.5 5.6-5.6c.6-.6 1.5-.6 2 0s.5 1.4 0 2z" fill="#455a64"/></svg>