<svg xmlns="http://www.w3.org/2000/svg" width="42" height="42" viewBox="0 0 42 42"><path fill="#6FA8DC" d="M30.825 12.6c-.7.7-.8 1.7-.3 2.5h-.1l.3.3 2.8 2.8c2.3 2.4 2.3 6.1 0 8.5l-8.3 8.3c-2.1 2.2-5.5 2.5-8 .7-2.6-2-3.1-5.8-1.1-8.5.1-.2.3-.4.5-.5l5.6-5.6c.7-.7 1.8-.9 2.6-.3.9.7 1.1 1.9.4 2.8 0 .1-.1.1-.1.2l-5.6 5.6c-.7.7-.9 1.8-.3 2.6.7.9 1.9 1.1 2.8.4.1 0 .1-.1.2-.1l7.1-7.1c1.6-1.5 1.6-4.1.1-5.6l-.1-.1-12.6-12.6c-.7-.8-2-.8-2.7-.1l-.1.1-9.2 9.2c-3.5 3.5-3.5 9.2 0 12.7l9.9 9.9c3.5 3.5 9.2 3.5 12.7 0l9.9-9.9c3.5-3.5 3.5-9.2 0-12.7l-3.5-3.5c-.8-.8-2.1-.8-2.9 0z"/><path fill="#B8DDFF" d="M19.525 1.3c.7-.8 2-.8 2.7-.1l.1.1 5.7 5.6c.8.7.8 2 .1 2.7l-.1.1c-.7.8-2 .8-2.7.1l-.1-.1-5.7-5.7c-.7-.7-.8-1.8-.1-2.6l.1-.1z"/></svg>