<svg xmlns="http://www.w3.org/2000/svg" width="42" height="42" viewBox="0 0 42 42"><path d="M41.171 17.975h-3.8c-.4-2.3-1.3-4.4-2.6-6.3l2.7-2.7c.3-.3.3-.9 0-1.2l-3.1-3.1c-.3-.3-.9-.3-1.2 0l-2.7 2.7c-1.9-1.3-4.1-2.2-6.3-2.6v-3.8c0-.5-.4-.9-.9-.9h-4.4c-.5 0-.9.4-.9.9v3.8c-2.3.4-4.4 1.3-6.3 2.6l-2.7-2.7c-.3-.3-.9-.3-1.2 0l-3.1 3.1c-.3.3-.3.9 0 1.2l2.7 2.7c-1.3 1.9-2.2 4.1-2.6 6.3h-3.8c-.5 0-.9.4-.9.9v4.4c0 .5.4.9.9.9h3.8c.4 2.3 1.3 4.4 2.6 6.3l-2.7 2.7c-.3.3-.3.9 0 1.2l3.1 3.1c.3.3.9.3 1.2 0l2.7-2.7c1.9 1.3 4.1 2.2 6.3 2.6v3.8c0 .5.4.9.9.9h4.4c.5 0 .9-.4.9-.9v-3.8c1.6-.3 3.2-.8 4.6-1.6l-4-4c-5.9 2-12.4-1.1-14.4-7.1-2-5.9 1.1-12.4 7.1-14.4 5.9-2 12.4 1.1 14.4 7.1.8 2.4.8 5 0 7.4l4 4c.8-1.4 1.3-3 1.6-4.6h3.8c.5 0 .9-.4.9-.9v-4.4c-.2-.5-.6-.9-1-.9z" fill="#8fc6ef"/><path d="M36.871 32.475l-7.9-7.9c2-4.4.1-9.6-4.3-11.6-1.9-.9-4.1-1-6.1-.4l2.1 2.1 2.1 2.1-1.7 4.2-4.2 1.7-2.1-2.1-2.1-2.1c-1.4 4.6 1.3 9.5 5.9 10.9 2 .6 4.2.4 6.1-.4l7.9 7.9c1.2 1.2 3.1 1.2 4.3 0 1.2-1.2 1.2-3.2 0-4.4z" fill="#6fa8dc"/></svg>