<svg version="1.0" xmlns="http://www.w3.org/2000/svg" width="933.333" height="933.333" viewBox="0 0 700 700"><path d="M339.5 102c-9.1 4.7-14.5 13.1-14.1 22 .2 3 1 7.3 2 9.4 1.1 2.8 13.3 15.6 39.9 42.3 40.6 40.7 42.6 42.3 51.8 42.3 7.1 0 12-2.1 17.6-7.5 5.5-5.4 7.6-10.4 7.5-18.3-.2-8.7-1.9-10.7-42.1-50.2-21-20.6-39.6-38.3-41.3-39.4-4.6-2.9-16.1-3.3-21.3-.6z"/><path d="M270.5 171c-4.8 2.3-127.5 125.1-132.1 132-1.6 2.5-3.2 4.7-3.5 5-.4.3-3 5.3-5.8 11.2-9.3 19.2-13 41-10.6 61.8.9 7.9 5 23.1 8 29.6 1.4 3 2.5 5.7 2.5 5.9 0 .8 9 15.4 10.9 17.8 4.1 5.2 16.8 18.2 75.8 77.1 44.4 44.5 65.3 64.8 70.6 68.4 19.3 13.3 43.1 20.7 65.4 20.3 6.4-.1 14.7-.9 17.3-1.6.8-.2 2.9-.7 4.6-1 5.4-.9 16.7-4.6 23.4-7.8 17.2-8 19.6-10.2 91-81.6 37.2-37.2 68.6-68.8 69.8-70.3 27.4-34.3 32.4-80.2 13.2-119.3-2.7-5.5-5.7-11.1-6.7-12.4-7.4-9.7-14.7-17.6-35.9-38.7-26.9-26.8-29.2-28.4-40.1-28.1-5.8.2-12.5 2.8-16.7 6.5-3.9 3.5-6.9 10.2-7.3 16.5-.8 10.8.6 13 23.9 36.6 21.8 22 27.9 29.8 32.4 41.8 9 23.5 5.5 50.6-9 70.8-5.2 7.2-113 114.9-120.2 120.1-24.7 17.8-60.4 18-85.6.6-20-13.8-32.3-40.3-30.3-65.4 1.3-16.6 9.4-36.2 18.5-44.7 1.4-1.3 18.9-18.6 39-38.5 20.9-20.8 38-36.9 40-37.8 9.2-4.3 20.3-2.5 26.9 4.3 5 4.9 8 12.7 7.4 18.8-.8 9.3-3.5 12.6-42.7 52.1-33.8 34-37.4 38-38.8 42.5-5.2 16.3 5.6 31.6 22.2 31.7 11.1.1 12-.6 64.3-53.1 34.6-34.9 48-49 50-52.7 7.4-14.1 7.1-32.7-.8-47.1-3.8-6.9-165.4-168.5-171.2-171.3-5.7-2.7-14.5-2.7-19.8 0z"/></svg>