<?xml version="1.0" encoding="utf-8"?><!DOCTYPE svg PUBLIC "-//W3C//DTD SVG 1.1//EN" "http://www.w3.org/Graphics/SVG/1.1/DTD/svg11.dtd"><svg xmlns="http://www.w3.org/2000/svg" xmlns:xlink="http://www.w3.org/1999/xlink"><symbol viewBox="0 0 24 24" id="icon-access" xmlns="http://www.w3.org/2000/svg"><g><path d="M7.9 9.9c-.3.3-.3.7 0 1l3.6 3.6c.1.1.3.2.5.2s.4-.1.5-.2l3.6-3.6c.3-.3.2-.7 0-1-.3-.2-.7-.2-.9 0l-2.4 2.4V.7c-.1-.4-.4-.7-.8-.7s-.7.3-.7.7v11.6L8.9 9.9c-.3-.3-.7-.3-1 0z"/><path d="M23.1 15.4l-2.4-8.5c-.1-.2-.2-.4-.4-.4h-.1c-.1 0-.2-.1-.3-.1h-4.2c-.4 0-.7.3-.7.7s.3.7.7.7h3.8l2 7.2h-5.3c-.4 0-.7.3-.7.7v.6c0 .9-.7 1.6-1.6 1.6H9.8c-.9 0-1.6-.7-1.6-1.6v-.6c0-.4-.3-.7-.7-.7h-5l2-7.2h3.8c.4 0 .7-.3.7-.7s-.4-.8-.7-.8H4c-.1 0-.2 0-.3.1h-.1c-.1.1-.2.3-.3.5L.9 15.4V19.2c0 2.7 2.2 4.9 4.9 4.9h12.4c2.7 0 4.9-2.2 4.9-4.9v-3.5-.3zm-1.4 3.7c0 1.9-1.6 3.5-3.5 3.5H5.8c-1.9 0-3.5-1.6-3.5-3.5v-2.9h4.6c0 1.6 1.4 2.9 3 2.9H14c1.6 0 2.9-1.3 3-2.9h4.8l-.1 2.9z"/></g></symbol><symbol viewBox="0 0 24 24" id="icon-facebook" xmlns="http://www.w3.org/2000/svg"><path d="M17.6 0v3.9s-2.9-.3-3.6.7c-.4.6-.1 2.4-.1 3.6h3.7c-.3 1.5-.6 2.4-.8 3.7h-3v12H8.6V12H6.4V8.3h2.3c.1-2.7.1-5.5 1.5-6.9C11.8-.1 13.1 0 17.6 0z"/></symbol><symbol viewBox="0 0 24 24" id="icon-guides" xmlns="http://www.w3.org/2000/svg"><g><path d="M3.7 2.8c-.2 0-.4.1-.6.2-.2.2-.3.5-.3.7v12.9c0 .5.4.9.9.9 2 0 5.3.4 7.7 2.8V6.8c0-.2 0-.3-.1-.4-2-3.1-5.6-3.6-7.6-3.6zM21.2 16.6V3.7c0-.2-.1-.4-.3-.6-.2-.2-.4-.2-.6-.2-2 0-5.6.5-7.5 3.5-.1.1-.1.3-.1.4v13.5c2.3-2.4 5.7-2.8 7.7-2.8.4-.1.8-.5.8-.9z"/><path d="M23.1 5.8h-.6v10.8c0 1.2-1 2.2-2.2 2.2-2.4-.1-4.7.7-6.5 2.2 3-.6 6.1-.6 9.1.2.5.1.9-.2 1-.6V6.7c.1-.5-.3-.9-.8-.9zM1.5 16.6V5.8H.9c-.5 0-.9.4-.9.9v13.6c0 .5.4.9.9.9h.2c3-.7 6.1-.8 9.1-.2a9.51 9.51 0 00-6.5-2.2c-1.2 0-2.2-1-2.2-2.2z"/></g></symbol><symbol viewBox="0 0 24 24" id="icon-instagram" xmlns="http://www.w3.org/2000/svg"><path d="M12.2 2.1H17c.8 0 1.5.2 2.3.5.5.2 1 .5 1.4.9.4.3.8.8.9 1.4.2.7.4 1.5.5 2.3v9.7c0 .8-.2 1.5-.5 2.3-.2.5-.5 1-.9 1.4-.3.4-.8.8-1.4.9-.7.2-1.5.4-2.3.5H7.3c-.8 0-1.5-.2-2.3-.5-.5-.2-1-.5-1.4-.9-.3-.6-.7-1-.8-1.6-.2-.7-.4-1.5-.5-2.3V7.1c0-.8.2-1.5.5-2.3.2-.5.5-1 .9-1.4.3-.4.8-.7 1.4-.8.7-.2 1.5-.3 2.3-.3 1.5-.2 3.1-.3 4.8-.2m0-2.1h-5c-1 0-2 .2-2.9.6-.8.3-1.5.8-2.1 1.4C1.5 2.6 1 3.4.7 4.2.4 5.2.2 6.1.1 7.1v10c0 1 .2 2 .6 2.9.3.7.7 1.4 1.3 2s1.3 1.1 2.1 1.4c1 .3 1.9.5 2.9.6h10c1 0 2-.2 2.9-.6 1.6-.6 2.9-1.9 3.5-3.5.3-.9.5-1.9.6-2.9V7c0-1-.2-2-.6-2.9-.4-.7-.8-1.4-1.4-2S20.7 1 19.9.7C18.9.4 18 .2 17 .2c-1.6-.2-3.2-.3-4.8-.2z"/><path d="M12.2 5.9C8.7 5.9 6 8.7 6 12.1s2.8 6.2 6.2 6.2 6.2-2.8 6.2-6.2-2.7-6.2-6.2-6.2zm0 10.3c-2.3 0-4.1-1.8-4.1-4.1S9.9 8 12.2 8s4.1 1.8 4.1 4.1c-.1 2.2-1.9 4-4.1 4.1z"/><circle cx="18.6" cy="5.6" r="1.5"/></symbol><symbol viewBox="0 0 24 24" id="icon-lock" xmlns="http://www.w3.org/2000/svg"><path d="M18 8.5h-1v-2c0-2.8-2.2-5-4.9-5.1-2.8 0-5.1 2.2-5.1 5v2.1H6c-1.1 0-2 .9-2 2v10c0 1.1.9 2 2 2h12c1.1 0 2-.9 2-2v-10c0-1.1-.9-2-2-2zm-6 9c-1.1 0-2-.9-2-2s.9-2 2-2 2 .9 2 2-.9 2-2 2zm3.1-9H8.9v-2c0-1.7 1.4-3.1 3.1-3.1 1.7 0 3.1 1.4 3.1 3.1v2z"/></symbol><symbol viewBox="0 0 24 24.002" id="icon-manuals" xmlns="http://www.w3.org/2000/svg"><path data-name="Path 574" d="M23.765 20.299l-4.777-4.775 3.408-1.968a.8.8 0 00-.1-1.441l-15.2-6.062a.8.8 0 00-1.043 1.046l6.061 15.2a.8.8 0 001.441.1l1.968-3.408 4.776 4.777a.8.8 0 001.135 0l2.331-2.331a.8.8 0 000-1.138z"/><path data-name="Path 575" d="M3.524 2.389a.803.803 0 00-1.135 1.135l1.783 1.785a.803.803 0 101.135-1.135z"/><path data-name="Path 576" d="M4.128 7.938a.8.8 0 00-.8-.8H.803a.802.802 0 100 1.605h2.522a.8.8 0 00.803-.805z"/><path data-name="Path 577" d="M3.801 10.418l-1.784 1.784a.803.803 0 001.135 1.135l1.784-1.784a.803.803 0 10-1.135-1.135z"/><path data-name="Path 578" d="M7.937 4.128a.8.8 0 00.8-.8V.8a.801.801 0 00-1.603 0v2.525a.8.8 0 00.803.803z"/><path data-name="Path 579" d="M10.981 5.173a.8.8 0 00.568-.235l1.783-1.784a.803.803 0 10-1.135-1.135l-1.78 1.784a.8.8 0 00.568 1.37z"/></symbol><symbol viewBox="0 0 24 24" id="icon-offer" xmlns="http://www.w3.org/2000/svg"><g><path d="M15.5.5h-13v23h19v-17l-6-6zm.5 2.6l3.4 3.4H16V3.1zM4 22V2h10.5v5.2c0 .4.3.8.8.8H20v14H4z"/><path d="M7.5 9.5h9V11h-9zM7.5 12.5h9V14h-9zM7.5 15.5h9V17h-9z"/></g></symbol><symbol viewBox="0 0 24 24" id="icon-pinterest" xmlns="http://www.w3.org/2000/svg"><path d="M12 0C5.4 0 .1 5.3.1 11.9c0 4.9 3 9.3 7.6 11-.1-1.1-.1-2.3 0-3.4.1-.9 1.3-6 1.3-6-.2-.5-.3-1.1-.3-1.6 0-1.6.9-2.8 2.1-2.8.8 0 1.5.6 1.5 1.4v.2c-.2 1.4-.5 2.7-1 4-.2.9.3 1.8 1.2 2 .2 0 .4.1.6 0 2.1 0 3.7-2.2 3.7-5.5.1-2.6-2-4.8-4.6-4.9h-.3c-2.9 0-5.3 2.2-5.4 5v.3c0 1 .3 1.9.9 2.7.1.1.2.3.1.4-.1.4-.2.9-.3 1.3 0 .1-.1.3-.4.1-1.5-.7-2.4-2.8-2.4-4.6 0-3.7 2.7-7.2 7.9-7.2 4.2 0 7.3 3 7.3 6.9 0 4.2-2.5 7.5-6.3 7.5-1.1.1-2.1-.4-2.7-1.3 0 0-.6 2.2-.7 2.8-.4 1.1-.9 2.1-1.5 3.1 1.2.5 2.4.7 3.6.7 6.6 0 12-5.4 12-12S18.6 0 12 0z"/></symbol><symbol viewBox="0 0 24 24" id="icon-support" xmlns="http://www.w3.org/2000/svg"><path data-name="Path 581" d="M12 0a9.187 9.187 0 00-9.177 9.177v8.47a2.118 2.118 0 104.235 0v-7.059A2.12 2.12 0 004.94 8.47a2.094 2.094 0 00-.676.121 7.757 7.757 0 0115.47-.006 2.08 2.08 0 00-.676-.115 2.12 2.12 0 00-2.118 2.118v7.059a2.12 2.12 0 002.118 2.118 2.093 2.093 0 00.706-.13v.836a.707.707 0 01-.706.706h-5.069a2.118 2.118 0 100 1.412h5.071a2.12 2.12 0 002.118-2.118V9.177A9.187 9.187 0 0012 0zm0 0"/><path data-name="Path 582" d="M22.588 10.015v8.21A2.114 2.114 0 0024 16.237v-4.235a2.115 2.115 0 00-1.412-1.987zm0 0"/><path data-name="Path 583" d="M0 11.999v4.235a2.114 2.114 0 001.412 1.988v-8.208A2.114 2.114 0 000 12zm0 0"/></symbol><symbol viewBox="0 0 32 32" id="icon-twitter" xmlns="http://www.w3.org/2000/svg"><path d="M21.3 4c1.8-.1 3.6.6 4.8 2 1.1-.2 2.2-.5 3.2-1.1.3-.2.5-.3.8-.4-.5 1.1-1.2 2.1-2.1 2.9-.1.2-.5.3-.6.4 1.2-.1 2.4-.4 3.5-.9-.5.9-1.2 1.7-2.1 2.4-.3.3-.6.4-.9.8.1 1.3 0 2.6-.3 3.9-1.5 6.8-5.6 11.4-11.9 13.4-2.8.9-5.7 1-8.6.3-1.2-.3-2.4-.7-3.6-1.2-.6-.3-1.1-.6-1.7-.9-.2-.1-.3-.1-.6-.3.6.1 1.3.1 2 0 .6-.3 1.2-.1 1.8-.3 1.3-.3 2.5-.7 3.6-1.4.4-.3 1.4-.6 1.7-1.1-.6 0-1.2-.1-1.8-.3-1.8-.6-3.3-2.1-3.9-3.9.9.1 1.8.1 2.7-.1-.7-.1-1.4-.3-2-.8-1.8-1.1-2.9-3.1-2.9-5.3.2.1.5.1.6.3.4.2.8.3 1.2.3.2 0 .6.1.9 0-.5 0-.9-.3-1.2-.6-1.3-1.5-1.8-3.6-1.3-5.6.1-.4.4-.9.6-1.5.2.3.4.4.6.8.5.6 1.1 1.2 1.8 1.6 2.1 1.8 4.6 3 7.4 3.6.9.2 1.8.3 2.7.3-.2-.9-.2-1.9 0-2.9.4-1.8 1.7-3.3 3.5-4l1.2-.4h.9z"/></symbol></svg>