<?xml version="1.0" encoding="UTF-8" standalone="no"?>
<!-- Created with Inkscape (http://www.inkscape.org/) by Marsupilami -->
<svg
   xmlns:svg="http://www.w3.org/2000/svg"
   xmlns="http://www.w3.org/2000/svg"
   version="1.0"
   width="1024"
   height="167"
   viewBox="0 0 238.83624 38.90625"
   id="svg2274">
  <defs
     id="defs2276">
    <clipPath
       id="clipPath2466">
      <path
         d="M 0,297 L 419.04,297 L 419.04,0 L 0,0 L 0,297 z "
         id="path2468" />
    </clipPath>
    <clipPath
       id="clipPath2460">
      <path
         d="M -1,298 L 421,298 L 421,-2 L -1,-2 L -1,298 z "
         id="path2462" />
    </clipPath>
    <clipPath
       id="clipPath2454">
      <path
         d="M 23.2,274.32 L 397.38,274.32 L 397.38,228.97 L 23.2,228.97 L 23.2,274.32 z "
         id="path2456" />
    </clipPath>
  </defs>
  <g
     transform="translate(-212.01045,-410.05191)"
     id="layer1">
    <g
       transform="matrix(1.25,0,0,-1.25,68.856696,740.11816)"
       id="g2450">
      <g
         clip-path="url(#clipPath2454)"
         id="g2452">
        <g
           clip-path="url(#clipPath2460)"
           id="g2458">
          <g
             clip-path="url(#clipPath2466)"
             id="g2464">
            <path
               d="M 164.5,0 C 155.40501,0 138.65625,0.625 138.65625,19.46875 C 138.65625,38.312499 155.405,38.90625 164.5,38.90625 C 173.59501,38.90625 190.375,38.3125 190.375,19.46875 C 190.375,0.62499939 173.595,0 164.5,0 z M 190.21875,1.25 L 204.53125,18.59375 L 188,37.65625 L 206.40625,37.65625 L 213.40625,28.28125 L 220.40625,37.65625 L 238.84375,37.65625 L 222.28125,18.59375 L 236.625,1.25 L 219.09375,1.25 L 213.40625,8.78125 L 207.75,1.25 L 190.21875,1.25 z M 0,1.3125 L 0,37.65625 L 13.65625,37.65625 L 13.65625,11.96875 L 23.78125,37.65625 L 34.6875,37.65625 L 44.25,11.96875 L 44.25,37.65625 L 57.625,37.65625 L 57.625,1.3125 L 34.6875,1.3125 L 28.96875,17.15625 L 22.6875,1.3125 L 0,1.3125 z M 64.53125,1.3125 L 64.53125,37.65625 L 79.53125,37.65625 L 79.53125,1.3125 L 64.53125,1.3125 z M 86.46875,1.3125 L 86.46875,37.65625 L 100.65625,37.65625 L 100.65625,18.53125 L 117.59375,37.65625 L 133.6875,37.65625 L 133.6875,1.3125 L 119.21875,1.3125 L 119.21875,19.90625 L 103.125,1.3125 L 86.46875,1.3125 z M 164.5,9.4375 C 170.61626,9.4375003 174.5,12.2575 174.5,19.4375 C 174.50001,26.617499 170.61625,29.4375 164.5,29.4375 C 158.38376,29.437501 154.5,26.6175 154.5,19.4375 C 154.50001,12.257499 158.38375,9.4375 164.5,9.4375 z "
               transform="matrix(0.8,0,0,-0.8,114.523,264.053)"
               style="fill:#ed232a;fill-opacity:1;fill-rule:nonzero;stroke:none"
               id="path2470" />
          </g>
        </g>
      </g>
    </g>
  </g>
</svg>
