<?xml version="1.0" encoding="utf-8"?>
<!-- Generator: Adobe Illustrator 23.0.3, SVG Export Plug-In . SVG Version: 6.00 Build 0)  -->
<svg version="1.1"
	 id="svg2" xmlns:cc="http://creativecommons.org/ns#" xmlns:dc="http://purl.org/dc/elements/1.1/" xmlns:inkscape="http://www.inkscape.org/namespaces/inkscape" xmlns:rdf="http://www.w3.org/1999/02/22-rdf-syntax-ns#" xmlns:sodipodi="http://sodipodi.sourceforge.net/DTD/sodipodi-0.dtd" xmlns:svg="http://www.w3.org/2000/svg"
	 xmlns="http://www.w3.org/2000/svg" xmlns:xlink="http://www.w3.org/1999/xlink" x="0px" y="0px" width="426px" height="327px"
	 viewBox="0 0 426 327" enable-background="new 0 0 426 327" xml:space="preserve">
<sodipodi:namedview  bordercolor="#666666" borderopacity="1" gridtolerance="10" guidetolerance="10" id="namedview78" inkscape:current-layer="layer1" inkscape:cx="353.90537" inkscape:cy="67.829884" inkscape:pageopacity="0" inkscape:pageshadow="2" inkscape:window-height="1028" inkscape:window-maximized="1" inkscape:window-width="1920" inkscape:window-x="-8" inkscape:window-y="-8" inkscape:zoom="1.0206557" objecttolerance="10" pagecolor="#ffffff" showgrid="false">
	</sodipodi:namedview>
<g id="layer1" transform="translate(-12.59423,-46.636963)" inkscape:groupmode="layer" inkscape:label="Layer 1">
	<g id="g19319" transform="matrix(13.05826,0,0,-13.05826,148.81408,220.3562)">
		<path id="path19321" inkscape:connector-curvature="0" d="M0,0v-8.7l1.5,1.1v6.1L0,0z"/>
	</g>
	<g id="g19323" transform="matrix(13.05826,0,0,-13.05826,189.94237,246.86316)">
		<path id="path19325" inkscape:connector-curvature="0" d="M0,0l1.9,0.4l0.8,0.6v1.1L0,0z"/>
	</g>
	<g id="g19327" transform="matrix(13.05826,0,0,-13.05826,186.81231,66.34055)">
		<path id="path19329" inkscape:connector-curvature="0" d="M0,0l-2.7,1.2l2.4-2.7l0.9,0.9L0,0z"/>
	</g>
	<g id="g19331" transform="matrix(13.05826,0,0,-13.05826,12.59423,342.22763)">
		<path id="path19333" inkscape:connector-curvature="0" d="M0,0h0.8l0.3-1.4h0L1.4,0h0.8v-2.3H1.7v1.5h0L1.3-2.3H0.9L0.6-0.8h0
			v-1.5H0V0z"/>
	</g>
	<g id="g19337" transform="matrix(13.05826,0,0,-13.05826,67.71837,361.04197)">
		<path id="path19339" inkscape:connector-curvature="0" d="M0,0c0-0.7-0.3-1-0.9-1s-0.9,0.3-0.9,1v1.4h0.6V0.2c0-0.2,0-0.5,0.3-0.5
			c0.3,0,0.3,0.3,0.3,0.5v1.3H0V0z"/>
	</g>
	<g id="g19341" transform="matrix(13.05826,0,0,-13.05826,77.74058,362.58938)">
		<path id="path19343" inkscape:connector-curvature="0" d="M0,0c0-0.1,0-0.1,0-0.2c0-0.1,0.2-0.2,0.3-0.2c0.1,0,0.2,0,0.2,0.2
			C0.6,0,0.5,0,0.1,0.2c-0.3,0.1-0.7,0.2-0.7,0.7c0,0.5,0.4,0.8,0.8,0.8c0.4,0,0.8-0.2,0.8-0.8H0.5c0,0.1,0,0.1-0.1,0.2
			c0,0-0.1,0.1-0.2,0.1C0.2,1.1,0,1.1,0,0.9c0-0.2,0.3-0.2,0.6-0.3C0.9,0.5,1.1,0.4,1.1,0c0-0.6-0.5-0.8-0.9-0.8
			C0-0.8-0.6-0.8-0.6,0H0z"/>
	</g>
	<path id="path19345" inkscape:connector-curvature="0" d="M95.2,342.2h7.8v30.7h-7.8V342.2z"/>
	<g id="g19347" transform="matrix(13.05826,0,0,-13.05826,122.62313,353.65753)">
		<path id="path19349" inkscape:connector-curvature="0" d="M0,0c0,0.1-0.1,0.3-0.3,0.3c-0.3,0-0.4-0.3-0.4-0.6
			c0-0.3,0.1-0.6,0.4-0.6C-0.1-0.9,0-0.8,0-0.6h0.6c0-0.5-0.3-1-0.9-1c-0.6,0-1,0.5-1,1.2c0,0.7,0.4,1.2,1,1.2
			c0.5,0,0.8-0.3,0.9-0.9H0z"/>
	</g>
	<g id="g19351" transform="matrix(13.05826,0,0,-13.05826,150.43983,350.0874)">
		<path id="path19353" inkscape:connector-curvature="0" d="M0,0h-0.5v0.6h1.7V0H0.6v-1.7H0V0z"/>
	</g>
	<g id="g19355" transform="matrix(13.05826,0,0,-13.05826,167.53179,342.22763)">
		<path id="path19357" inkscape:connector-curvature="0" d="M0,0h1.6v-0.6h-1v-0.3h0.9v-0.6H0.6v-0.3h1v-0.6H0V0z"/>
	</g>
	<g id="g19359" transform="matrix(13.05826,0,0,-13.05826,191.1816,342.22763)">
		<path id="path19361" inkscape:connector-curvature="0" d="M0,0h0.6v-1.7h0.9v-0.6H0V0z"/>
	</g>
	<g id="g19363" transform="matrix(13.05826,0,0,-13.05826,212.04348,342.22763)">
		<path id="path19365" inkscape:connector-curvature="0" d="M0,0h1.6v-0.6h-1v-0.3h0.9v-0.6H0.6v-0.3h1v-0.6H0V0z"/>
	</g>
	<g id="g19367" transform="matrix(13.05826,0,0,-13.05826,251.58128,372.91063)">
		<path id="path19369" inkscape:connector-curvature="0" d="M0,0h-0.7l-0.6,2.3h0.6l0.3-1.4h0L0,2.3h0.6L0,0z"/>
	</g>
	<path id="path19371" inkscape:connector-curvature="0" d="M262.4,342.2h7.8v30.7h-7.8V342.2z"/>
	<g id="g19373" transform="matrix(13.05826,0,0,-13.05826,280.95453,362.58938)">
		<path id="path19375" inkscape:connector-curvature="0" d="M0,0c0-0.1,0-0.1,0-0.2c0-0.1,0.2-0.2,0.3-0.2c0.1,0,0.2,0,0.2,0.2
			C0.6,0,0.5,0,0.1,0.2c-0.3,0.1-0.7,0.2-0.7,0.7c0,0.5,0.4,0.8,0.8,0.8c0.4,0,0.8-0.2,0.8-0.8H0.5c0,0.1,0,0.1-0.1,0.2
			c0,0-0.1,0.1-0.2,0.1C0.2,1.1,0,1.1,0,0.9c0-0.2,0.3-0.2,0.6-0.3C0.9,0.5,1.1,0.4,1.1,0c0-0.6-0.5-0.8-0.9-0.8
			C0-0.8-0.6-0.8-0.6,0H0z"/>
	</g>
	<path id="path19377" inkscape:connector-curvature="0" d="M298.4,342.2h7.8v30.7h-7.8V342.2z"/>
	<g id="g19379" transform="matrix(13.05826,0,0,-13.05826,321.62583,341.49898)">
		<path id="path19381" inkscape:connector-curvature="0" d="M0,0c0.6,0,1-0.5,1-1.2S0.6-2.5,0-2.5c-0.6,0-1,0.5-1,1.2S-0.6,0,0,0
			 M0-1.9c0.2,0,0.4,0.1,0.4,0.6S0.2-0.6,0-0.6c-0.2,0-0.4-0.1-0.4-0.6S-0.2-1.9,0-1.9"/>
	</g>
	<g id="g19383" transform="matrix(13.05826,0,0,-13.05826,337.31003,342.22763)">
		<path id="path19385" inkscape:connector-curvature="0" d="M0,0h0.6l0.6-1.3h0V0h0.6v-2.3H1.2L0.6-1.1h0v-1.3H0V0z"/>
	</g>
	<g id="g19391" transform="matrix(13.05826,0,0,-13.05826,430.22093,84.6626)">
		<path id="path19393" inkscape:connector-curvature="0" d="M0,0c-0.2,0.2-0.7,0.3-1.1,0.2C-1.5,0.2-1.8,0-2-0.2
			c0,0-0.6-0.6-0.6-0.6l-0.2-0.3c0,0-0.5-0.7-0.5-0.7s0,0,0,0v3.7l-1.6,1l0-6.6l0,0l-0.4-0.5v7.1h-10l-3.6-3.5l-3.2,3.5H-32v-22h10
			v9.7l3-3.1l3.6,3.1v-9.7h10l0,9.3c0.1,0.1,0.1,0.2,0.1,0.2c0,0,0.1,0.1,0.1,0.1c0,0,0.1,0.1,0.2,0.3l0-9.9l1.6,1.1v11.7
			C-3.3-6.1-3.1-6-3.1-6c0,0,0.2,0.4,0.2,0.4c0,0,0.4,0.5,0.4,0.5c0,0,0.1,0.2,0.1,0.2L-2-4.4C-2-4.2-1.8-4.1-1.7-4.1l0,0l0,0
			l0.2,0.2c0,0,0.3,0.3,0.3,0.3l0.5,0.2l0.5,0.3c0,0,0.4,0.6,0.4,0.6l0.2,0.7c0,0,0.1,0.7,0.1,0.7C0.6-0.7,0.3-0.2,0,0 M-12-6
			c0-0.1,0-0.7,0-0.8c0-0.3,0-0.7,0-0.8c0-0.1,0-0.5,0-0.5c0-0.3,0.1-0.6,0.1-0.7c0-0.2,0-0.7,0-0.9c0,0,0-0.3,0-0.3
			c0-0.1,0-0.3,0-0.4c0-0.1,0-0.3,0-0.4c0-0.2,0-0.4,0-0.6c0,0,0-0.4,0-0.4c0-0.3-0.1-0.7,0-1c0-0.1,0-0.3,0-0.3
			c0-0.1,0.1-0.3,0.1-0.4c0-0.1,0.1-0.5,0.1-0.6c0-0.1,0.2-0.5,0.2-0.6c0.1-0.2,0.1-0.5,0.1-0.7c-0.1-0.2-0.2-0.6-0.2-0.7
			c-0.1-0.1-0.2-0.2-0.2-0.2c0-0.1-0.1-0.1-0.2-0.2c-0.2-0.1-0.6-0.1-0.9,0c-0.1,0-0.3,0-0.6,0.2c-0.2,0.1-0.3,0.4-0.3,0.6
			c0,0.1,0,0.3,0,0.3c0,0-0.1,0.4-0.1,0.5c0,0.1,0,0.3,0,0.4c0,0.2-0.1,0.5-0.1,0.5c0,0.1-0.1,0.4-0.1,0.4c-0.1,0.2-0.1,0.4-0.1,0.5
			c0,0.3,0,0.5,0.1,0.8c0,0.1,0.1,0.2,0.1,0.4c0,0.1-0.1,0.5,0,0.6c0,0.1,0,0.2,0.1,0.3c0,0.1,0,0.4,0,0.5c0,0.1,0,0.3,0,0.6
			c0,0.1,0,0.2,0,0.3c0,0.1,0,0.4,0,0.5c0,0.2,0,0.4,0,0.4c0,0.2,0,0.4,0,0.6c0,0,0,0.4,0,0.5c0,0.1,0,0.5,0,0.5
			c-0.1,1-0.2,1.2-0.3,1.2c-0.1,0-0.2,0-0.3,0c-0.1,0-0.2-0.2-0.4-0.3c-0.1-0.1-0.4-0.2-0.5-0.3c-0.1-0.1-0.3-0.2-0.6-0.4
			c-0.1,0-0.1-0.1-0.2-0.2c-0.1-0.1-0.3-0.3-0.6-0.5c-0.2-0.1-0.3-0.2-0.4-0.3c0,0-0.2-0.3-0.3-0.5C-17.9-8.5-18-8.7-18-8.7
			C-18-8.9-18.1-9-18.2-9.1c-0.2-0.1-0.6-0.2-0.9-0.1c-0.2,0.1-0.5,0.3-0.6,0.6c-0.1,0.4,0,0.8,0.3,1.1c0.2,0.2,0.5,0.3,0.7,0.4
			c0.2,0,0.3,0.1,0.5,0.2c0.1,0,0.3,0.2,0.3,0.2c0.1,0,0.3,0.1,0.3,0.2c0,0,0.3,0.2,0.4,0.3c0.3,0.1,0.5,0.3,0.6,0.3
			c0,0,0.4,0.2,0.6,0.4c0.1,0.1,0.3,0.1,0.5,0.3c0.1,0,0.3,0.1,0.4,0.1c0,0,0.2,0.2,0.3,0.2c0.2,0.1,0.3,0.3,0.3,0.6
			c0,0.1-0.1,0.2,0,0.4c0,0,0.1,0.3,0.1,0.4c0,0.1,0.1,0.1,0.1,0.1c0,0.1,0.2,0.1,0.3,0.2c0.1,0.1,0.2,0.1,0.3,0.1
			c0.3,0.1,0.7-0.2,0.8-0.2c0.1,0,0.3,0,0.4,0c0,0,0.1,0.1,0.2,0.1c0.1,0,0.3,0.1,0.3,0.1c0.1,0,0.4,0.2,0.4,0.2
			c0.1,0,0.3,0.1,0.3,0.1c0.1,0.1,0.4,0.2,0.5,0.3c0.1,0.1,0.3,0.3,0.3,0.4c0.1,0.1,0.3,0.3,0.4,0.3c0.1,0.1,0.3,0.2,0.5,0.3
			c0.1,0,0.3,0,0.4,0c0.1,0,0.3,0,0.5-0.2C-8.7-1.8-8.6-1.9-8.5-2c0.1-0.5-0.3-1-0.5-1.1c0,0-0.2-0.1-0.2-0.1
			c-0.1,0-0.2-0.1-0.3-0.1c-0.2,0-0.2-0.1-0.3-0.2c-0.1,0-0.3-0.2-0.3-0.2c-0.1,0-0.1-0.2-0.3-0.2c-0.1,0-0.3-0.1-0.5-0.3
			c-0.1-0.1-0.4-0.1-0.5-0.1c0,0-0.4-0.2-0.4-0.4c0-0.2,0-0.3-0.1-0.6C-12.1-5.6-12-5.8-12-6 M0.3-1.7c0-0.1-0.1-0.5-0.2-0.7
			c0-0.1-0.2-0.4-0.4-0.5C-0.4-3-0.6-3.1-0.7-3.1c-0.1,0-0.5-0.2-0.6-0.3c-0.2-0.1-0.3-0.2-0.4-0.3c0-0.1-0.1-0.1-0.2-0.2
			c0,0-0.4-0.2-0.5-0.4c-0.1-0.2-0.4-0.5-0.5-0.6C-2.8-5.1-3-5.3-3.1-5.4c0,0-0.1-0.1-0.1-0.2c0-0.1-0.1-0.1-0.1-0.2c0,0,0,0,0-0.1
			c-0.1-0.1-0.2-0.3-0.2-0.3c-0.1-0.1-0.2-0.3-0.3-0.5c0-0.1-0.2-0.4-0.3-0.6c0-0.1-0.2-0.4-0.2-0.4C-4.4-7.7-4.7-8-4.7-8
			c0-0.1-0.1-0.2-0.1-0.3c0-0.1-0.1-0.3-0.1-0.3C-5-8.7-5-8.7-5-8.8c0,0,0,0,0,0c0-0.1-0.1-0.1-0.1-0.2c-0.1-0.1-0.1-0.2-0.2-0.3
			c0,0-0.1-0.1-0.1-0.1c0-0.1-0.4-0.7-0.5-0.8c0-0.1-0.1-0.1-0.1-0.2c-0.1-0.2-0.2-0.3-0.3-0.5c0-0.1-0.1-0.3-0.1-0.3
			c-0.1-0.3-0.2-0.7-0.2-0.8c0-0.2,0-0.3,0-0.5c0-0.2,0-0.3,0-0.5c-0.1-0.3-0.2-0.5-0.3-0.7c0-0.1-0.2-0.2-0.3-0.4
			c-0.1-0.1-0.3-0.1-0.6-0.2c-0.5,0-0.7,0.2-0.9,0.5c0,0.1-0.1,0.2-0.2,0.4c-0.1,0.3-0.2,0.5-0.3,0.8c0,0.1-0.1,0.2-0.1,0.3
			c0,0.1-0.1,0.4-0.1,0.5c0,0.1-0.1,0.4-0.1,0.4c0,0.2-0.1,0.4-0.2,0.6c-0.1,0.2-0.1,0.4-0.1,0.6c0,0.2-0.1,0.5-0.2,0.7
			c0,0-0.1,0.5-0.2,0.6c-0.1,0.2-0.3,0.8-0.3,0.8c-0.1,0.2-0.3,0.7-0.3,0.8C-11-6.5-11-6-10.9-5.8c0.1,0.1,0.2,0.2,0.4,0.3
			c0,0,0.3,0.2,0.3,0.2c0.1,0,0.4,0.1,0.6,0c0,0,0.3,0,0.4-0.1c0.3-0.2,0.4-0.5,0.4-1.1c0,0,0.1-0.6,0.1-0.8c0-0.2,0-0.3,0.1-0.5
			c0-0.1,0-0.2,0-0.4c0-0.2,0.1-0.6,0.1-0.6C-8.5-9-8.5-9.2-8.2-9.4c0.1,0,0.2,0,0.3,0c0.2,0.1,0.4,0.4,0.5,0.8c0,0,0,0.1,0.1,0.1
			C-7.3-8.3-7.2-8.2-7.2-8C-7.2-7.9-7-7.7-7-7.6c0.1,0.1,0.2,0.2,0.2,0.3c0,0,0.3,0.5,0.3,0.5s0.1,0.3,0.2,0.4
			c0.1,0.1,0.1,0.2,0.1,0.3C-6.1-6-6-5.8-5.9-5.7c0.2,0.2,0.3,0.6,0.3,0.6c0,0.1,0.1,0.2,0.2,0.4c0,0,0,0,0,0v0c0,0,0,0,0,0
			c0,0.1,0.1,0.1,0.1,0.2l0.3,0.3C-4.9-4.1-4.8-4-4.8-3.9c0.1,0.1,0.2,0.2,0.3,0.4c0.1,0.1,0.2,0.3,0.3,0.4c0.1,0.1,0.5,0.6,0.5,0.7
			c0,0,0.2,0.2,0.3,0.3c0,0,0,0,0,0C-3.2-2-3.1-1.9-3.1-1.9C-3-1.8-2.9-1.7-2.8-1.5s0.2,0.2,0.3,0.3c0,0,0.1,0.2,0.2,0.3
			c0.1,0.1,0.5,0.5,0.5,0.5C-1.7-0.2-1.4-0.1-1.1,0c0.4,0,0.8,0,1-0.2c0.3-0.2,0.5-0.6,0.5-0.8C0.4-1.3,0.4-1.4,0.3-1.7"/>
	</g>
</g>
</svg>
