<svg xmlns="http://www.w3.org/2000/svg" width="126.541" height="20.134" viewBox="0 0 126.541 20.134">
  <g id="logo-siemens" transform="translate(0 -893.261)">
    <g id="g5329" transform="translate(0 893.261)">
      <path id="path4166" d="M894.375,1359.054v3.769a15.019,15.019,0,0,0-5.212-1.11,4.175,4.175,0,0,0-2.158.49,1.413,1.413,0,0,0-.815,1.2c0,.629.609,1.188,1.836,1.688l3.543,1.724c2.865,1.366,4.286,3.179,4.286,5.457a5.322,5.322,0,0,1-2.275,4.522,9.926,9.926,0,0,1-6.074,1.688,28.184,28.184,0,0,1-3.148-.156,24.336,24.336,0,0,1-3.19-.6v-3.944a18.738,18.738,0,0,0,5.946,1.11c2.13,0,3.19-.618,3.19-1.864,0-.62-.434-1.121-1.315-1.513l-3.935-1.677a8.1,8.1,0,0,1-3.237-2.395,5.418,5.418,0,0,1-1.048-3.287,5,5,0,0,1,2.186-4.217,9.709,9.709,0,0,1,5.818-1.591,21.616,21.616,0,0,1,2.69.2C892.47,1358.681,893.44,1358.848,894.375,1359.054Z" transform="translate(-769.313 -1358.348)" fill="#099" fill-rule="evenodd"/>
      <path id="path4168" d="M13.6,1359.054v3.769a15.006,15.006,0,0,0-5.209-1.11,4.167,4.167,0,0,0-2.158.49,1.413,1.413,0,0,0-.815,1.2c0,.629.617,1.188,1.844,1.688l3.543,1.724c2.854,1.366,4.278,3.179,4.278,5.457a5.343,5.343,0,0,1-2.267,4.522,9.96,9.96,0,0,1-6.083,1.688,28.235,28.235,0,0,1-3.151-.156,24.517,24.517,0,0,1-3.187-.6v-3.944a18.815,18.815,0,0,0,5.944,1.11c2.13,0,3.19-.617,3.19-1.864,0-.62-.431-1.121-1.3-1.513l-3.935-1.677a7.947,7.947,0,0,1-3.237-2.395A5.349,5.349,0,0,1,0,1364.155a4.982,4.982,0,0,1,2.189-4.217A9.659,9.659,0,0,1,8,1358.348a21.8,21.8,0,0,1,2.7.2C11.7,1358.681,12.669,1358.848,13.6,1359.054Z" transform="translate(0 -1358.348)" fill="#099" fill-rule="evenodd"/>
      <path id="polygon4170" d="M179.5,50.072V69.5H173.73V50.072Z" transform="translate(-156.069 -49.719)" fill="#099" fill-rule="evenodd"/>
      <path id="polygon4172" d="M268.917,69.5h-14.3V50.072h14.129v3.591h-8.575v4.308H267.6v3.237h-7.437v4.522h8.75Z" transform="translate(-226.717 -49.719)" fill="#099" fill-rule="evenodd"/>
      <path id="polygon4174" d="M392.861,69.5V50.072h7.045l4.809,11.893,5.031-11.893h6.692V69.5H411.05V56.686l-5.59,12.991h-3.326l-5.376-12.991V69.5Z" transform="translate(-347.471 -49.719)" fill="#099" fill-rule="evenodd"/>
      <path id="polygon4176" d="M628.694,69.5h-14.3V50.072h14.129v3.591h-8.528v4.308h7.437v3.237h-7.437v4.522h8.7Z" transform="translate(-540.968 -49.719)" fill="#099" fill-rule="evenodd"/>
      <path id="polygon4178" d="M769.522,69.5H763.4l-6.869-12.46V69.5h-3.894V50.072h6.3l6.692,12.246V50.072h3.893Z" transform="translate(-661.721 -49.719)" fill="#099" fill-rule="evenodd"/>
    </g>
  </g>
</svg>
