<?xml version="1.0" encoding="utf-8"?>
<!-- Generator: Adobe Illustrator 23.0.3, SVG Export Plug-In . SVG Version: 6.00 Build 0)  -->
<svg version="1.1" id="Layer_1" xmlns="http://www.w3.org/2000/svg" xmlns:xlink="http://www.w3.org/1999/xlink" x="0px" y="0px"
	 width="220px" height="199px" viewBox="0 0 220 199" enable-background="new 0 0 220 199" xml:space="preserve">
<g>
	<polygon fill-rule="evenodd" clip-rule="evenodd" fill="#FDB827" points="203.9,184.1 203.9,14.6 16.8,14.6 16.8,184.1 
		203.9,184.1 203.9,184.1 	"/>
	
		<path fill-rule="evenodd" clip-rule="evenodd" fill="#ED1B2E" stroke="#ED1B2E" stroke-width="0.216" stroke-miterlimit="2.6131" d="
		M53.3,99.5c0,1.6,0.1,3.4,2.4,6.8c2.3,3.4,34.6,48.4,34.6,48.4c1.7,2.3,2.4,7-3.2,7c-0.6,0-31.5-0.2-38.4,0c-0.8,0-2-0.1-3.2-0.6
		c-1.7-0.7-3.3-1.9-4.4-3.5c-0.9-1.4-1.8-2.9-1.8-5.6l0,0V47.1l0,0c0.1-2.7,0.9-4.1,1.8-5.6c1.1-1.6,2.7-2.9,4.4-3.5
		c1.2-0.5,2.4-0.6,3.2-0.6c6.9,0.1,37.8,0,38.4,0c5.6,0,4.9,4.7,3.2,7c0,0-32.3,45.1-34.6,48.4C53.3,96.1,53.3,97.9,53.3,99.5
		L53.3,99.5L53.3,99.5L53.3,99.5z"/>
	
		<path fill-rule="evenodd" clip-rule="evenodd" fill="#ED1B2E" stroke="#ED1B2E" stroke-width="0.216" stroke-miterlimit="2.6131" d="
		M181.5,148.4c0,13.9-12.4,13.2-12.4,13.2l0,0h-39.3l0,0c-4.8-0.2-7.2-3.3-9.8-5.4c-9.1-7.6-61.6-53.1-63.1-54.4
		c-1.4-1.3-1.5-1.6-1.5-2.3c0-0.8,0.1-1,1.5-2.4c1.4-1.3,53.9-46.8,63.1-54.4c2.6-2.2,5-5.2,9.8-5.4l0,0h39.3l0,0
		c0,0,12.4-0.7,12.4,13.2l0,0V148.4L181.5,148.4L181.5,148.4z"/>
	
		<polygon fill-rule="evenodd" clip-rule="evenodd" fill="#FDB827" stroke="#FDB827" stroke-width="0.216" stroke-miterlimit="2.6131" points="
		75.4,88.6 82,88.6 82,97.8 89.1,88.6 96.2,88.6 88.7,99.3 96.8,112.2 89.1,112.2 82,101 82,112.2 75.4,112.2 75.4,88.6 75.4,88.6 	
		"/>
	
		<path fill-rule="evenodd" clip-rule="evenodd" fill="#FDB827" stroke="#FDB827" stroke-width="0.216" stroke-miterlimit="2.6131" d="
		M104.4,94.1c6,0,9.2,3.4,9.2,9.4c0,6-3.3,9.4-9.2,9.4c-6,0-9.3-3.4-9.3-9.4C95.1,97.5,98.4,94.1,104.4,94.1L104.4,94.1L104.4,94.1
		L104.4,94.1z M104.3,108.7c2.2,0,3-1.7,3-5.2c0-3.6-0.8-5.3-3-5.3c-2.1,0-2.9,1.7-2.9,5.3C101.4,107,102.2,108.7,104.3,108.7
		L104.3,108.7L104.3,108.7L104.3,108.7z"/>
	
		<path fill-rule="evenodd" clip-rule="evenodd" fill="#FDB827" stroke="#FDB827" stroke-width="0.216" stroke-miterlimit="2.6131" d="
		M127.2,111.5c-1.3,1-3.4,1.2-5.8,1.2c-4.3,0-6.9-3.2-6.9-8.9c0-5.8,2.6-8.7,7.2-9.1c2.9-0.3,4.7,0.4,5.2,0.9l0,0v-7h5.8l0,0
		c0,0,0,21.9,0,23.6l0,0h-4.9L127.2,111.5L127.2,111.5L127.2,111.5z M123.9,108.9c1.9,0,3.2-1.9,3.2-5.3c0-3.4-1.3-5.3-3.4-5.3
		c-2,0-3,1.8-3,5.3C120.7,107.2,121.7,108.9,123.9,108.9L123.9,108.9L123.9,108.9L123.9,108.9z"/>
	
		<path fill-rule="evenodd" clip-rule="evenodd" fill="#FDB827" stroke="#FDB827" stroke-width="0.216" stroke-miterlimit="2.6131" d="
		M145.6,110.8c-0.7,0.4-2.1,1.9-5.9,1.9c-3.6,0.1-5.8-2.2-5.8-5.3c0-3.7,3.4-5.4,6.2-5.9c0.6-0.1,4.6-0.9,5.3-1.2
		c0,0,0.1-2.3-2.7-2.3c-2.3,0-2.4,2-2.4,2.1l0,0h-4.6l0,0c0-1.6,0-5.5,0-5.5s7,0,10,0c5.3,0,5.8,2.9,5.8,5.9l0,0l0,8.1l0,0
		c0,1.3,0,2.5,0.2,3.7l0,0h-5.7l0,0C145.9,111.8,145.7,111.2,145.6,110.8L145.6,110.8L145.6,110.8L145.6,110.8z M144.5,103.8
		c-3.2,0.2-4.8,1.3-4.6,3.1c0.1,1.3,1.2,2.2,2.7,2.1c2.1-0.1,3.1-1.6,2.9-4.4c0-0.2,0-0.5-0.1-0.8
		C145.1,103.8,144.8,103.8,144.5,103.8L144.5,103.8L144.5,103.8L144.5,103.8z"/>
	
		<polygon fill-rule="evenodd" clip-rule="evenodd" fill="#FDB827" stroke="#FDB827" stroke-width="0.216" stroke-miterlimit="2.6131" points="
		153,88.6 159.3,88.6 159.3,100.6 163.9,95 170,95 164.4,101.9 170.6,112.2 164,112.2 159.3,104.4 159.3,112.2 153,112.2 153,88.6 
		153,88.6 	"/>
</g>
</svg>
