<?xml version="1.0" encoding="utf-8"?>
<!-- Generator: Adobe Illustrator 23.0.3, SVG Export Plug-In . SVG Version: 6.00 Build 0)  -->
<svg version="1.1" id="svg10338" xmlns:svg="http://www.w3.org/2000/svg"
	 xmlns="http://www.w3.org/2000/svg" xmlns:xlink="http://www.w3.org/1999/xlink" x="0px" y="0px" width="1024px" height="212px"
	 viewBox="0 0 1024 212" enable-background="new 0 0 1024 212" xml:space="preserve">
<path id="logo-sonos" d="M554.2,13.2h35.5v189.9L469.8,91.5v105.8h-35.5V7.9l119.9,111.7C554.2,119.7,554.2,13.2,554.2,13.2z
	 M378.2,105.6c0,54.8-44.6,99.4-99.4,99.4c-54.8,0-99.4-44.6-99.4-99.4c0-54.8,44.6-99.4,99.4-99.4
	C333.6,6.2,378.2,50.8,378.2,105.6L378.2,105.6z M341.8,105.6c0-35.2-28.3-63.8-63.1-63.8c-34.8,0-63,28.6-63,63.8
	s28.3,63.8,63,63.8C313.5,169.4,341.8,140.8,341.8,105.6L341.8,105.6z M118.8,107.2c-9.4-7.2-21.9-12.9-40.3-18.9
	c-36-11.5-36-20.5-36-24.9c0-10.2,11.3-20.8,30.5-20.8c16.1,0,28.6,8,33.2,11.5l2.6,1.9l28.6-19.4l-3.2-3.7
	c-0.9-1.1-23-26.9-61.4-26.9c-18.4,0-35.3,5.9-47.6,16.6C13,33.5,6,48.2,6,63.6c0,16.3,7.2,30.1,21.3,40.8
	c9.4,7.2,21.9,12.9,40.3,18.8c36,11.4,36,20.5,36,24.9c0,10.2-11.3,20.8-30.5,20.8c-16.1,0-28.6-8-33.2-11.5l-2.6-1.9L8.5,174.8
	l3.2,3.7c1,1.1,23,26.7,61.2,26.7c18.4,0,35.3-5.9,47.6-16.6c12.3-10.7,19.3-25.6,19.3-40.8C139.9,131.6,132.9,118.1,118.8,107.2z
	 M646.1,106.4c0-54.8,44.6-99.4,99.4-99.4c54.8,0,99.4,44.6,99.4,99.4c0,54.8-44.6,99.4-99.4,99.4
	C690.7,205.8,646.1,161.2,646.1,106.4z M682.4,106.4c0,35.2,28.3,63.8,63,63.8c34.8,0,63-28.6,63-63.8s-28.3-63.8-63-63.8
	C710.7,42.6,682.4,71.2,682.4,106.4L682.4,106.4z M905.3,104.6c9.4,7.2,21.9,13,40.3,18.9c36,11.5,36,20.5,36,24.9
	c0,10.2-11.3,20.8-30.5,20.8c-16.1,0-28.6-8-33.2-11.5l-2.6-1.9l-28.6,19.3l3.2,3.7c1,1.1,23,26.7,61.2,26.7
	c18.4,0,35.3-5.9,47.6-16.6c12.3-10.7,19.3-25.4,19.3-40.8c0-16.3-7.2-30.1-21.3-40.8c-9.4-7.2-21.9-13-40.3-18.9
	c-36-11.5-36-20.5-36-24.9c0-10.2,11.3-20.8,30.5-20.8c16.1,0,28.6,8,33.2,11.5l2.6,1.9l28.6-19.3l-3.2-3.7
	c-1-1.1-23-26.7-61.2-26.7c-18.4,0-35.3,5.9-47.6,16.6c-12.3,10.7-19.3,25.6-19.3,40.8C884.2,80.2,891.3,93.9,905.3,104.6
	L905.3,104.6z"/>
</svg>
