<?xml version="1.0" encoding="utf-8"?>
<!-- Generator: Adobe Illustrator 23.0.1, SVG Export Plug-In . SVG Version: 6.00 Build 0)  -->
<svg version="1.1" id="Layer_1" xmlns="http://www.w3.org/2000/svg" xmlns:xlink="http://www.w3.org/1999/xlink" x="0px" y="0px"
	 width="189px" height="63px" viewBox="0 0 189 63" style="enable-background:new 0 0 189 63;" xml:space="preserve">
<style type="text/css">
	.st0{fill-rule:evenodd;clip-rule:evenodd;}
</style>
<g>
	<polygon class="st0" points="108.6,22.8 101.9,22.8 101.9,47 108.6,47 	"/>
	<path class="st0" d="M108.7,15.5c0,1.9-1.6,3.5-3.5,3.5s-3.5-1.6-3.5-3.5s1.6-3.5,3.5-3.5C107.2,12,108.7,13.5,108.7,15.5
		L108.7,15.5z"/>
	<polygon class="st0" points="157.9,22.8 151.2,22.8 151.2,47 157.9,47 	"/>
	<path class="st0" d="M158,15.5c0,1.9-1.6,3.5-3.5,3.5s-3.5-1.6-3.5-3.5s1.6-3.5,3.5-3.5C156.5,12,158,13.5,158,15.5L158,15.5z"/>
	<path class="st0" d="M42.2,32.6c0-6.5-4.6-11.8-10.3-11.8c-2.7,0-5.2,1.2-7,3.1c-1.8-1.9-4.3-3.1-7-3.1c-5.7,0-10.3,5.3-10.3,11.8
		V47h6.6v-3.4V32.7c0-3,1.6-5,3.7-5c2,0,3.7,1.9,3.7,5v10.9V47h6.6v-3.4V32.7c0-3,1.7-5,3.7-5s3.7,1.9,3.7,5v10.9V47h6.6L42.2,32.6
		L42.2,32.6L42.2,32.6L42.2,32.6z"/>
	<path class="st0" d="M147.5,32.6c0-6.5-4.6-11.8-10.3-11.8c-2.7,0-5.2,1.2-7,3.1c-1.8-1.9-4.3-3.1-7-3.1c-5.7,0-10.3,5.3-10.3,11.8
		V47h6.6v-3.4V32.7c0-3,1.6-5,3.7-5c2,0,3.7,1.9,3.7,5v10.9V47h6.6v-3.4V32.7c0-3,1.7-5,3.7-5s3.7,1.9,3.7,5v10.9V47h6.6V32.6
		L147.5,32.6L147.5,32.6L147.5,32.6z"/>
	<path class="st0" d="M57.4,20.8c-7.5,0-13.5,6-13.5,13.5s6,13.5,13.5,13.5c1.5,0,2.9-0.2,4.2-0.7v-7.5c-1.2,0.9-2.6,1.5-4.2,1.5
		c-3.8,0-6.8-3-6.8-6.8s3-6.8,6.8-6.8s6.8,3,6.8,6.8c0,0.1,0,12.7,0,12.7h6.7V34.3C70.9,26.8,64.8,20.8,57.4,20.8L57.4,20.8z"/>
	<path class="st0" d="M183.3,28.5v-6.4c-4.4,0-8.2,2-10.7,5c-2.5-3-6.3-5-10.7-5v6.4c3.8,0,6.8,2.9,6.8,6.4c0,3.6-3,6.4-6.8,6.4v6.4
		c4.4,0,8.2-2,10.7-5c2.5,3,6.3,5,10.7,5v-6.4c-3.8,0-6.8-2.9-6.8-6.4C176.5,31.4,179.5,28.5,183.3,28.5L183.3,28.5z"/>
	<path class="st0" d="M86.2,20.8c-7.5,0-13.5,6-13.5,13.5s6,13.5,13.5,13.5c1.5,0,2.9-0.2,4.2-0.7v-7.5c-1.2,0.9-2.6,1.5-4.2,1.5
		c-3.8,0-6.8-3-6.8-6.8s3-6.8,6.8-6.8s6.8,3,6.8,6.8c0,0,0,8.3,0,11c0,3.8-3,6.8-6.8,6.8s-7.2-0.8-9.6-2v6.7c2.4,1.2,5.9,2,9.6,2
		c6.9,0,12.6-5.2,13.4-11.8l0.1-1.7v-11C99.7,26.8,93.7,20.8,86.2,20.8L86.2,20.8z"/>
</g>
</svg>
