<?xml version="1.0" encoding="utf-8"?>
<!-- Generator: Adobe Illustrator 23.0.3, SVG Export Plug-In . SVG Version: 6.00 Build 0)  -->
<svg version="1.1" id="svg2" xmlns:svg="http://www.w3.org/2000/svg"
	 xmlns="http://www.w3.org/2000/svg" xmlns:xlink="http://www.w3.org/1999/xlink" x="0px" y="0px" width="800px" height="350px"
	 viewBox="0 0 800 350" enable-background="new 0 0 800 350" xml:space="preserve">
<g id="layer1">
	<rect id="rect3427" x="4.4" y="4.5" fill="#DF0100" width="786.2" height="340.2"/>
	<path id="text3422" fill="#FFFFFF" d="M41.2,300V44.4h50.9c19.9,0,33.8,1.3,41.7,3.9c7.8,2.6,14.6,7,20.3,13.2
		c6.4,7,11.4,15.9,14.8,26.7c3.5,10.8,5.2,22.7,5.2,35.8c0,19.8-3.4,35.9-10.2,48.3c-6.8,12.4-16.7,20.6-29.7,24.7l54.3,103h-55
		L86.9,200v100H41.2z M86.9,165.2h9c10.5,0,18.2-2.6,23-7.7c4.8-5.1,7.3-13.1,7.3-24.1c0-12.8-2.3-21.9-6.8-27.3
		c-4.5-5.4-12.1-8.1-22.8-8.1h-9.8V165.2z M201.3,300V44.4h109.5v56h-62v44.3h58.4v54.8h-58.4v43.1h62V300H201.3z M377.2,299.8
		L312.4,44.4h46.4c10.3,59.1,27.1,106.3,37,165.4L436,44.4h44.6l-66.3,255.4H377.2z M485.6,44.3h48.6v159.3
		c1.8,21.4-6.6,55.4,24.8,55.2c32.3-0.2,22-32.2,24.3-55.2V44.3h48.4v135.1c0,28-1.2,59.9-3.5,73.2c-5.7,37.2-31,52.7-69.2,54.2
		c-39.9,0.2-62.2-18.2-69.7-54.2c-2.4-13.3-3.6-45.1-3.6-73.2v-26.5V44.3z M645.7,300.1V44.5h109.5v56h-62v44.3h58.4v54.8h-58.4
		v43.1h62v57.3H645.7z"/>
</g>
</svg>
