<?xml version="1.0" encoding="utf-8"?>
<!-- Generator: Adobe Illustrator 19.2.1, SVG Export Plug-In . SVG Version: 6.00 Build 0)  -->
<svg version="1.1" id="layer" xmlns="http://www.w3.org/2000/svg" xmlns:xlink="http://www.w3.org/1999/xlink" x="0px" y="0px"
	 viewBox="0 0 652 652" style="enable-background:new 0 0 652 652;" xml:space="preserve">
<style type="text/css">
	.st0{fill:#8A8A8D;}
	.st1{font-family:'ArialMT';}
	.st2{font-size:9.0744px;}
	.st3{fill:#EA7200;}
</style>
<g>
	<g>
		<path class="st0" d="M333.8,353.7c-5-0.3-9.6-2.1-13.1-6c-3-3.4-4.4-7.3-4.8-11.5v-28.4c0.6-4.7,2.6-9.3,6.3-12.7
			c3.3-3.1,7.3-4.3,11.6-4.6h43.7c5.5,0.5,10.2,2.8,14.1,6.9c2.8,3.5,4.3,7.6,4.6,12.1v25.3c-0.3,5.7-2.4,10.7-6.8,14.6
			c-3.3,2.9-7.1,4.1-11.3,4.4H333.8z M381.1,341.1c2.3-1.7,3-3.6,3.2-5.8v-26.2c-0.1-1.9-1.1-3.5-2.4-4.9c-1.2-1.2-2.9-1.9-4.2-2
			h-44.1c-1.8,0-2.8,0.7-3.9,1.9c-1.8,2-2.2,4.6-2.3,5.5v25c0.2,2.9,1,4.3,2.7,5.8c1.3,1.2,1.9,1.4,3.7,1.5H378
			C378,342,379.8,342.1,381.1,341.1"/>
	</g>
	<text transform="matrix(1 0 0 1 606.5586 299.0658)" class="st0 st1 st2">TM</text>
	<g>
		<path class="st0" d="M195.6,297.3c-4.1-4.2-8.9-6.5-14.4-6.8H125c-0.1,0-0.1,0-0.2,0c-3,0.2-5.5,2.7-5.5,5.8c0,3,2.2,5.4,5.1,5.8
			c0.1,0,0.1,0.1,0.2,0.1h56.9c1.6,0.3,3.1,0.9,4.5,2c1.3,1.3,2,2.7,2.1,4.2v3.3c-0.1,1.3-0.5,2.4-1.2,3.3c-1.4,1.7-3.2,2.6-5.2,2.9
			h-55.8c-0.1,0-0.2,0-0.3,0c-0.1,0-0.2,0-0.3,0h-0.3c-0.1,0-0.3,0.1-0.4,0.1c0,0-0.1,0-0.1,0c-0.3,0.1-0.6,0.1-0.8,0.3
			c-2.1,0.8-3.6,2.7-3.7,5c0,0,0,0.1,0,0.1v24.5c0,1.2,0.4,2.4,1.1,3.3l0,0.1c0.1,0.1,0.2,0.1,0.3,0.2c1.1,1.3,2.6,2.1,4.4,2.1
			c0.8,0,1.6-0.2,2.4-0.5l0.1,0c0.1,0,0.1-0.1,0.1-0.1c1.9-1,3.2-2.9,3.2-5.2c0-0.1,0-0.2,0-0.2v-17.9h50.2c4.4,0,8.3-1.7,11.7-4.4
			c4.5-3.6,6.6-8.4,6.9-13.8v-3.1C199.7,304.4,198.2,300.6,195.6,297.3"/>
		<path class="st0" d="M292.8,341.9C292.8,341.9,292.8,342,292.8,341.9c-0.1,0-0.1,0-0.1,0h-63.4v-45.3c0-0.1,0-0.2,0-0.4
			c0-3.2-2.6-5.8-5.8-5.8c-3.2,0-5.8,2.6-5.8,5.8c0,0.1,0,0.1,0,0.2c0,0,0,0,0,0v51.4l0,0c0,0,0,0,0,0c0,3.2,2.6,5.8,5.8,5.8
			c0.1,0,0.2,0,0.3,0h68.8c0,0,0,0,0,0c0,0,0.1,0,0.1,0c3.2,0,5.9-2.6,5.9-5.9C298.7,344.6,296.1,341.9,292.8,341.9"/>
		<path class="st3" d="M97.1,342.6l-27.7-21.8l24.4-19.5c0.2-0.2,0.4-0.3,0.7-0.5l0.1-0.1c0,0,0,0,0,0c1.2-1.1,1.9-2.6,1.9-4.3
			c0-3.2-2.6-5.9-5.9-5.9c-1.2,0-2.4,0.4-3.3,1.1c0,0,0,0,0,0l-27.3,21.6l-26.4-20.9c-1.1-1.2-2.6-1.9-4.4-1.9c-3.3,0-6,2.7-6,6
			c0,2.2,1.1,4,2.9,5.1l24.5,19.1l-28.7,22.8c0,0-0.1,0.1-0.1,0.1c-1.2,1.1-2,2.6-2,4.4c0,3.3,2.7,5.9,5.9,5.9
			c1.5,0,2.8-0.6,3.8-1.5c0,0,0,0.1-0.1,0.1L60,328.2l30.7,24.2c1,0.7,2.2,1.2,3.5,1.2c3.3,0,5.9-2.7,5.9-5.9
			C100.1,345.5,98.9,343.6,97.1,342.6"/>
		<path class="st0" d="M495.6,328.8c-1.3-3.1-3.1-5.4-5.2-6.9c2.2-2.7,3.3-6.3,3.5-10.8c0,0,0-1.6-0.1-2.1c-0.1-1-0.2-2.3-0.2-2.3
			c-0.7-3.4-2.1-6.5-4.2-9.3c-4.1-4.3-8.9-6.6-14.7-6.9h-52.1c-3.2,0-5.9,2.6-5.9,5.9c0,3.1,2.4,5.6,5.4,5.8c0,0,0.1,0,0.1,0.1h53
			c1.7,0.1,3.4,0.9,4.5,2c1.3,1.4,2.1,3,2.2,4.8v2.2c0,1.5-0.6,2.7-1.4,3.9c-1.4,1.7-3.4,2.9-5.1,2.9h-53.1c-0.1,0-0.2,0-0.3,0.1
			c-2.8,0.3-5,2.5-5.2,5.3c0,0,0,0.1-0.1,0.1v23.8c0,0.2-0.1,0.5-0.1,0.7c0,3.2,2.6,5.9,5.9,5.9c3.2,0,5.9-2.6,5.9-5.9
			c0-0.2,0-0.5-0.1-0.7v-17.4h48.5h2.4c1.4,0.1,2.6,0.6,3.7,1.5c1.3,1.3,2,2.7,2.2,4.3v11.9c0,0.1,0,0.2,0,0.4
			c0,3.3,2.7,5.9,5.9,5.9c1.5,0,2.8-0.5,3.8-1.4c0.1-0.1,0.2-0.2,0.3-0.3c0,0,0.1-0.1,0.1-0.1c0.5-0.5,0.9-1,1.2-1.7
			c0-0.1,0.1-0.2,0.1-0.3c0.1-0.2,0.1-0.4,0.2-0.6c0-0.2,0.1-0.4,0.1-0.6c0-0.2,0.1-0.3,0.1-0.5v-12.1
			C497.1,333.4,496.6,331,495.6,328.8"/>
		<path class="st0" d="M592.5,342c-0.1,0-0.2,0-0.3,0c-0.1,0-0.1,0-0.1,0h-63v-15.6h56.4c0.1,0,0.2-0.1,0.3-0.1
			c3.1-0.1,5.6-2.7,5.6-5.9c0-3.3-2.6-5.9-5.9-5.9h-61.9c0,0-0.1,0-0.1,0c0,0-0.1,0-0.1,0c-3.3,0-5.9,2.7-5.9,5.9
			c0,0.2,0,0.4,0.1,0.6v26.2c0,0.2-0.1,0.4-0.1,0.6c0,3.3,2.6,5.9,5.9,5.9h68.5c0.1,0,0.1,0,0.2,0c0.2,0,0.3,0,0.5,0
			c3.2,0,5.9-2.6,5.9-5.9C598.4,344.6,595.8,342,592.5,342"/>
		<path class="st0" d="M519.1,300.7L519.1,300.7c0.9,0.8,1.9,1.3,3.1,1.5l0.2,0.1h0.6c0,0,0.1,0,0.1,0c0,0,0.1,0,0.1,0H592
			c0,0,0.1,0,0.1,0c3.2,0,5.9-2.6,5.9-5.9c0-3.2-2.6-5.9-5.9-5.9h-69.2c0,0-0.1,0-0.1,0c-3.1,0.2-5.6,2.7-5.6,5.9
			C517.2,298.1,517.9,299.6,519.1,300.7C519.1,300.7,519.1,300.7,519.1,300.7"/>
	</g>
</g>
</svg>
