<?xml version="1.0" encoding="utf-8"?>
<!-- Generator: Adobe Illustrator 23.0.3, SVG Export Plug-In . SVG Version: 6.00 Build 0)  -->
<svg version="1.1" id="Layer_1" xmlns="http://www.w3.org/2000/svg" xmlns:xlink="http://www.w3.org/1999/xlink" x="0px" y="0px"
	 width="1000px" height="300px" viewBox="0 0 1000 300" enable-background="new 0 0 1000 300" xml:space="preserve">
<title>Logo-RGB</title>
<path fill="#FF8A3D" d="M367.1,53h-54.6c-11.9,0-21.5,9.6-21.5,21.5v153.8c-0.4,11.9,9,21.8,20.8,22.2c11.9,0.4,21.8-9,22.2-20.8
	c0-0.4,0-0.9,0-1.3V96h33c14.3-0.3,26.1,11.1,26.3,25.3s-11.1,26.1-25.3,26.3c-0.3,0-0.7,0-1,0c-11.9,0-21.5,9.6-21.5,21.5
	s9.6,21.5,21.5,21.5c38,0,68.8-30.8,68.8-68.9C435.9,83.8,405.1,53,367.1,53L367.1,53z"/>
<path fill="#FF8A3D" d="M529,53h-54.6c-11.9,0-21.5,9.6-21.5,21.5v153.8c0,11.9,9.6,21.5,21.5,21.5s21.5-9.6,21.5-21.5V96H529
	c14.3-0.3,26.1,11.1,26.3,25.3s-11.1,26.1-25.3,26.3c-0.3,0-0.7,0-1,0c-11.9,0-21.5,9.6-21.5,21.5s9.6,21.5,21.5,21.5
	c38-0.5,68.5-31.6,68-69.7C596.6,83.6,566.4,53.5,529,53z"/>
<path fill="#FF8A3D" d="M171.6,206.8h-61l77.2-120.7c6.4-10,3.5-23.3-6.5-29.7c-3.5-2.2-7.5-3.4-11.6-3.4H69.3
	c-11.9-0.4-21.8,9-22.2,20.8S56.2,95.6,68,96c0.4,0,0.9,0,1.3,0h61L53.1,216.7c-6.4,10-3.5,23.3,6.5,29.7c3.5,2.2,7.5,3.4,11.6,3.4
	h100.3c11.9-0.4,21.2-10.3,20.8-22.2C192.1,216.3,182.9,207.1,171.6,206.8L171.6,206.8z"/>
<path fill="#FF8A3D" d="M234,53c-11.9,0-21.5,9.6-21.5,21.5v153.8c0,11.9,9.6,21.5,21.5,21.5s21.5-9.6,21.5-21.5V74.5
	C255.5,62.6,245.9,53,234,53z"/>
<path fill="#FF8A3D" d="M747.1,55.3c-10.6-6.4-24.4-2.9-30.8,7.7c0,0,0,0,0,0l-36.9,61.5l-37.1-61.6c-6.6-10.5-20.4-13.7-30.9-7.1
	c-10.3,6.4-13.6,19.8-7.5,30.3l53.2,88.1v54.1c-0.3,12.4,9.6,22.6,22,22.9c12.4,0.3,22.6-9.6,22.9-22c0-0.3,0-0.6,0-0.9v-54l53-88.2
	C761.2,75.5,757.8,61.7,747.1,55.3C747.2,55.3,747.1,55.3,747.1,55.3z"/>
<path fill="#FF8A3D" d="M808.7,55.8c-10.3-5.8-23.5-2.2-29.3,8.2L769.2,82c-5.8,10.3-2.2,23.5,8.1,29.3c10.3,5.8,23.5,2.2,29.3-8.1
	l10.2-18.1C822.7,74.7,819,61.6,808.7,55.8z"/>
<path fill="#FF8A3D" d="M925.6,152.5l-52-38.3c-4.2-3.1-5.2-9.1-2-13.3c1.8-2.5,4.7-3.9,7.7-3.9H923c12.4-0.3,22.2-10.5,22-22.9
	c-0.3-12-9.9-21.7-22-22h-43.8c-23.6-0.2-44.6,14.9-51.7,37.4c-7.6,22.3,0.3,47,19.5,60.8l52,38.3c4.2,3.1,5.2,9.1,2,13.4
	c-1.8,2.4-4.7,3.9-7.7,3.9h-47.5c-12.4-0.3-22.6,9.6-22.9,22s9.6,22.6,22,22.9c0.3,0,0.6,0,0.9,0h47.5c30.1,0,54.4-24.4,54.4-54.4
	C947.7,179,939.5,162.7,925.6,152.5L925.6,152.5z"/>
</svg>
