<?xml version="1.0" encoding="utf-8"?>
<!-- Generator: Adobe Illustrator 23.0.3, SVG Export Plug-In . SVG Version: 6.00 Build 0)  -->
<svg version="1.1"
	 id="svg1879" xmlns:cc="http://web.resource.org/cc/" xmlns:dc="http://purl.org/dc/elements/1.1/" xmlns:inkscape="http://www.inkscape.org/namespaces/inkscape" xmlns:rdf="http://www.w3.org/1999/02/22-rdf-syntax-ns#" xmlns:sodipodi="http://sodipodi.sourceforge.net/DTD/sodipodi-0.dtd" xmlns:svg="http://www.w3.org/2000/svg"
	 xmlns="http://www.w3.org/2000/svg" xmlns:xlink="http://www.w3.org/1999/xlink" x="0px" y="0px" width="1203.2px"
	 height="312.3px" viewBox="0 0 1203.2 312.3" enable-background="new 0 0 1203.2 312.3" xml:space="preserve">
<sodipodi:namedview  bordercolor="#666666" borderopacity="1.0" id="base" inkscape:current-layer="layer1" inkscape:cx="354" inkscape:cy="250.12182" inkscape:document-units="px" inkscape:pageopacity="0.0" inkscape:pageshadow="2" inkscape:window-height="574" inkscape:window-width="904" inkscape:window-x="161" inkscape:window-y="161" inkscape:zoom="0.35" pagecolor="#ffffff">
	</sodipodi:namedview>
<g id="layer1" transform="translate(168.7594,-199.3103)" inkscape:groupmode="layer" inkscape:label="Ebene 1">
	<g id="g1898">
		<path id="path18026" fill="#221F1F" d="M228.9,239.2h-397.6v36.6h50.3v215.1h59.2V275.8h288.7L228.9,239.2"/>
		<path id="path18028" fill="#221F1F" d="M-19.2,319.9v170.4h40.8V346.1H42c0,0,13.8,0,13.8,25.1c0,24.9-21.7,48-21.7,48l27.6,71.6
			H115L76.2,427c0,0,28.1-16.3,26.3-54.5c-2-40.8-29.9-50.7-57.4-52.7C17.7,317.9-19.2,319.9-19.2,319.9"/>
		<path id="path18030" fill="#221F1F" d="M229.4,319.9h-95.3v170.4h95.3v-27.1h-51.3v-43.2h41.4v-27.1h-40.8v-46.1h50.6V319.9"/>
		<path id="path18032" fill="none" stroke="#221F1F" stroke-width="42.7379" stroke-miterlimit="8" d="M286.3,490.2V220.7"/>
		<path id="path18034" fill="#221F1F" d="M386.6,320.5h-23.9l-47.3,88.2l38.7,82.9l48.1-0.2l-50.4-102.8L386.6,320.5"/>
		<path id="path18042" fill="#221F1F" d="M504.5,291.7l19.2-37.3c0,0-52.7-29.4-85.4-2.5c-36.4,30-25.3,90.3-11,104.5
			c7.7,7.8,2.9,7.3,36.9,24.9c30.3,15.8,33.3,30.4,35,38.5c2.4,11.4-8.2,45.1-49.4,30.2c-13.6-5-18.2-15.4-18.2-15.4l-18.2,33.5
			c0,0,22.1,27.9,67.1,22.1c45.1-5.8,56.6-53.3,55.6-70.5c-1-17.3,1-50.8-59.5-79.6c-39.3-18.8-24.9-43.2-24.9-46.6
			c0-2.8,10.5-17.3,30.2-17.3C496.3,276.3,504.5,291.7,504.5,291.7"/>
		<path id="path18044" fill="#221F1F" d="M534.2,320.1h117.9v28.7h-38.3v142h-41.2v-142h-38.8L534.2,320.1"/>
		<path id="path18046" fill="#221F1F" d="M734.1,320.1c-39.5,0-71.4,38.3-71.4,85.7c0,47.5,32,85.8,71.4,85.8
			c39.5,0,71.4-38.3,71.4-85.8C805.6,358.4,773.6,320.1,734.1,320.1z M733.9,479.2c-17.6,0-31.9-32.8-31.9-73.5
			c0-40.4,14.3-73.3,31.9-73.3s31.9,32.9,31.9,73.3C765.8,446.3,751.5,479.2,733.9,479.2"/>
		<path id="path18048" fill="#221F1F" d="M830.5,320.1v171.2h39.8V345.8l22,0.5c0,0,13,0.5,13,25.9c0,25.4-22.6,48-22.6,48
			l28.2,71.3l52.8-0.3l-38-63.9c0,0,25.4-16.2,25.9-54.6c0.5-38.3-31.5-49.9-45.6-50.3C892.3,321.9,830.5,320.1,830.5,320.1"/>
		<path id="path18050" fill="#221F1F" d="M965.8,240.7h29.1v4.6h-11.7v20.5H977v-20.8H966L965.8,240.7"/>
		<path id="path18052" fill="#221F1F" d="M1001.6,240.7v25.4h5.1v-17.7l11.2,14.4l11.2-14.5v17.5h5.3v-25.1h-4.8l-11.6,14.5
			l-11.2-14.4L1001.6,240.7"/>
	</g>
</g>
</svg>
