<?xml version="1.0" encoding="utf-8"?>
<!-- Generator: Adobe Illustrator 23.0.3, SVG Export Plug-In . SVG Version: 6.00 Build 0)  -->
<svg version="1.1"
	 id="svg8439" xmlns:cc="http://creativecommons.org/ns#" xmlns:dc="http://purl.org/dc/elements/1.1/" xmlns:inkscape="http://www.inkscape.org/namespaces/inkscape" xmlns:rdf="http://www.w3.org/1999/02/22-rdf-syntax-ns#" xmlns:sodipodi="http://sodipodi.sourceforge.net/DTD/sodipodi-0.dtd" xmlns:svg="http://www.w3.org/2000/svg"
	 xmlns="http://www.w3.org/2000/svg" xmlns:xlink="http://www.w3.org/1999/xlink" x="0px" y="0px" width="434.7px" height="304px"
	 viewBox="0 0 434.7 304" enable-background="new 0 0 434.7 304" xml:space="preserve">
<sodipodi:namedview  bordercolor="#666666" borderopacity="1" fit-margin-bottom="2" fit-margin-left="2" fit-margin-right="2" fit-margin-top="2" gridtolerance="10" guidetolerance="10" id="namedview21" inkscape:current-layer="svg8439" inkscape:cx="139.02007" inkscape:cy="48.512912" inkscape:pageopacity="0" inkscape:pageshadow="2" inkscape:window-height="705" inkscape:window-maximized="1" inkscape:window-width="1366" inkscape:window-x="-8" inkscape:window-y="-8" inkscape:zoom="0.78666667" objecttolerance="10" pagecolor="#ffffff" showgrid="false">
	</sodipodi:namedview>
<g id="g36" transform="matrix(1.5165267,0,0,1.5165267,-9.3587294,-72.971014)">
	<g id="g12">
		<path id="path2" inkscape:connector-curvature="0" fill="#CFAF2B" d="M126.9,115.4c7.2-5.2,14.4-10.4,21.6-15.6
			c7.2,5.1,14.3,10.3,21.5,15.4c-2.6-8.4-5.4-16.7-8.1-25c7.2-5.2,14.4-10.4,21.6-15.6c-8.9-0.1-17.8,0-26.8-0.1
			c-2.7-8.4-5.4-16.8-8.2-25.2c-2.8,8.4-5.4,16.8-8.2,25.2c-8.9-0.1-17.7-0.1-26.6,0c7.1,5.3,14.3,10.3,21.4,15.5
			C132.5,98.5,129.7,107,126.9,115.4L126.9,115.4z"/>
		<path id="path4" inkscape:connector-curvature="0" fill="#0097DB" d="M72.5,211.5c-1.2,4.3-2.4,8.6-3.8,12.8
			c74.2-31.5,148.6-62.9,222.8-94.5c-30.8,0.1-61.5,0-92.4,0.1c-4.3,5.9-8.8,11.8-13.2,17.6c1.6-5.9,3.3-11.7,5.1-17.6
			c-3.5,0-7.1,0-10.6,0c-2.9,7.4-6.7,14.5-10.7,21.4c-1.1,1.9-2.4,3.7-4.1,5.3c0-1.9,0.2-3.7,0.7-5.5c2-7.1,4.2-14.1,6.2-21.2
			c-3.4,0-6.8,0-10.2,0c-1.7,4.5-2,9.7-5.3,13.4c-4.1,5.3-8.1,10.7-12.2,16c2.8-9.8,5.8-19.6,8.6-29.5c-3.6,0-7.2,0-10.8,0
			c-1.8,5.8-3.4,11.7-5.2,17.4c-2.9,0.7-5.9,1.5-8.9,2.2c1.9-6.5,3.8-13.1,5.8-19.7c-3.8,0-7.7,0-11.5-0.1
			c-1.8,5.9-3.4,11.7-5.1,17.6c-0.6,2-1,4.3-2.5,5.9c-5.5,6.5-11.1,13-16.6,19.5c-2.2,2.3-4.2,5.8-7.9,5.5c-2.3-4-1.9-8.7-1.4-13.2
			c6.4-3.3,12.6-7.1,17.8-12.1c4.5-4.5,8-10.7,7.1-17.3c-0.3-3.5-3.6-6.3-7.1-6.3c-5.9-0.6-11.5,2.3-15.8,6.1
			c-7.8,7-12.6,16.8-14.9,26.9c-3.3,1.6-6.7,3.3-10,5c-1.3-4.2-3.4-8.2-6.3-11.6c8.1-5.1,15.9-11.4,20.1-20.1
			c1.9-4.2,2.9-9.1,1.3-13.6c-1.5-4-5.6-6.3-9.7-6.5c-9.7-0.9-19.4,3.1-26.7,9.4c-2.1,2-4.6,4.1-5.3,7.1c-1,3.4-2,6.7-2.9,10.1
			c0.7-0.1,1.5-0.1,2.3-0.2c3.7-5,8.1-9.7,13.7-12.4c3-1.4,7.2-1.8,9.6,0.8c2,2.8,0.8,6.5-0.2,9.5c-3.7,8.5-11.1,14.5-18,20.2
			c4.3,3.9,6.3,9.5,7.2,15c-17.5,10-34.3,24-41.5,43.4c-2.5,7.2-3.9,15.4-1,22.6c1.5,3.8,5.3,6.6,9.4,6.4c6.5-0.2,12.3-3.8,17.2-7.9
			c11.7-9.9,20.5-23,26.4-37.1c3.6-8.7,5.8-18.2,5.4-27.8c2.5-1.3,5.1-2.5,7.7-3.8c-0.2,5.4,0,11.2,2.8,16.1
			c1.5,2.7,4.7,4.5,7.8,3.8c4.9-1,8.8-4.6,12.1-8.2c5.1-6.1,9.9-12.5,15-18.7c-1.8,6.5-3.8,12.9-5.6,19.4c4.3-1.3,8.6-2.7,12.8-4.2
			c2-7.1,4-14.2,6.2-21.3c3-0.8,5.9-1.5,8.9-2.3c-1.9,6.8-4,13.7-5.9,20.5c3.4-1.2,7-2.3,10.5-3.4c1.3-0.3,2.1-1.5,2.9-2.5
			c4.1-5.6,8.4-11.1,12.5-16.6c-0.3,2.8-0.6,5.6-0.1,8.4c0.4,2.3,2,4.6,4.5,4.8c3.4,0.5,6.4-1.8,8.3-4.5c3.3-4.6,5.6-9.8,8.4-14.7
			c-1,4.5-1.7,9.1-2.3,13.7c3.9-1.8,9.1-1.6,11.5-5.6c4.3-5.7,8.7-11.3,13.1-16.9c1.8,0,3.6,0,5.4,0c-1.5,4.9-2.9,9.7-4.4,14.5
			c3.6-1.1,7.2-2.4,10.8-3.3c1.4-3.7,2.3-7.5,3.5-11.2c11.3,0.1,22.5,0,33.8,0c-57.8,23.5-115.7,47-173.6,70.5
			C73,209.2,72.9,210.5,72.5,211.5L72.5,211.5z M96.6,141c1-1.6,2.1-3.7,4.2-4c1.6,0.6,1.8,2.7,1.6,4.2c-1,6.8-5.9,12.3-11.5,15.8
			C92.2,151.4,93.9,145.9,96.6,141L96.6,141z M44.8,213c-2.8,6.3-6,12.5-10.8,17.4c-2.2,2.1-5,4.2-8.1,4.2c-2.7-0.7-3.1-4-3.3-6.3
			c0.3-8.8,3.7-17.2,8.5-24.5c5.4-8.3,12.6-15.5,20.8-21C51.4,193.2,48.7,203.4,44.8,213z"/>
		<path id="path6" inkscape:connector-curvature="0" fill="#0097DB" d="M201.5,194.2c-3.2,0-6.4,0-9.6,0c0,1.8,0,3.6,0,5.4
			c1.2,0,2.4,0,3.6,0c0,6.1,0,12.3,0,18.4c2,0,4.1,0,6.1,0C201.6,210,201.8,202.1,201.5,194.2L201.5,194.2z"/>
		<path id="path8" inkscape:connector-curvature="0" fill="#0097DB" d="M242.2,199.2c-1.3-5.8-9.3-7.3-13.7-4.1
			c-2.4,1.6-3.1,4.6-3.7,7.3c2,0.1,3.9,0.1,5.9,0.1c0.2-2.4,1.8-4.3,4.4-4.2c1.5,0.2,2,2.4,1.6,4c-0.6,1.7-1.7,3-2.8,4.4
			c-3.3,3.8-6.4,7.6-9.7,11.4c6-0.1,12,0,18.1,0c0-1.7,0-3.5,0-5.3c-2.3,0-4.6,0-6.8,0C238.7,209,243.8,204.9,242.2,199.2z"/>
		<path id="path10" inkscape:connector-curvature="0" fill="#0097DB" d="M258.9,203.7c-2.1-1.8-5-1.3-7.6-1.3c0.2-1,0.3-2,0.4-3
			c2.9-0.1,5.9-0.1,8.8-0.1c0-1.7,0-3.4,0-5.1c-4.2,0-8.5,0-12.7,0c-0.8,4.2-1.8,8.5-2.5,12.8c2.7-0.8,5.8-1.9,8.5-0.5
			c2.9,1.4,2.3,6.3-0.8,6.9c-3.1,1.1-6-0.8-8.4-2.6c-0.2,1.9-0.3,3.9-0.6,5.9c4.5,2.7,10.7,3,14.7-0.6
			C262.4,213.1,262.6,206.8,258.9,203.7L258.9,203.7z"/>
	</g>
	<g id="g18">
		<path id="path14" inkscape:connector-curvature="0" fill="none" d="M212.3,204.6c0.2,0.2,0.3,0.4,0.6,0.5h0.1
			C212.7,205,212.5,204.7,212.3,204.6z"/>
		<path id="path16" inkscape:connector-curvature="0" fill="#0097DB" d="M222.3,197.2c-2.7-4.1-8.8-4.7-12.9-2.4
			c-4.6,2.7-5.3,9.8-1.5,13.4c1.7,1.6,4.2,1.7,6.5,1.7c-2,2.6-3.8,5.3-5.5,8c2.3,0,4.6,0,6.8,0c2-3,4.2-6,6.1-9.1
			C223.9,205.4,224.5,200.8,222.3,197.2L222.3,197.2z M216.5,198.7c1.3,0.6,2.2,1.9,2.2,3.4c0,1.5-0.9,2.8-2.1,3.3
			c0,0-0.8,0.3-1.1,0.3c-0.2,0-0.3,0.1-0.5,0.1c-0.8,0-1.5-0.2-2.1-0.7h-0.1c-0.2-0.2-0.4-0.3-0.6-0.5c-0.6-0.7-1-1.5-1-2.5
			c0-2,1.6-3.7,3.7-3.7c0.2,0,0.5,0,0.7,0.1C216,198.5,216.5,198.7,216.5,198.7L216.5,198.7z"/>
	</g>
</g>
</svg>
