<svg xmlns="http://www.w3.org/2000/svg" width="105.786" height="20.02" viewBox="0 0 105.786 20.02">
  <g id="logo-casio" transform="translate(209 -415.594)">
    <path id="path5" d="M-119.082,430.292c-.882-.22-1.1-.661-1.212-1.543a32.045,32.045,0,0,1,0-6.5,1.656,1.656,0,0,1,1.212-1.432c.771-.22,7.824-.331,8.6,0a1.423,1.423,0,0,1,.992,1.322,21.434,21.434,0,0,1,0,6.5,1.544,1.544,0,0,1-.992,1.322c-.661.551-7.6.551-8.6.331Zm10.909-14.325a59.71,59.71,0,0,0-13.333,0,6.059,6.059,0,0,0-4.849,4.408,41.593,41.593,0,0,0,0,10.469,5.782,5.782,0,0,0,4.849,4.408,54.785,54.785,0,0,0,13.444-.11,5.761,5.761,0,0,0,4.518-4.3,41.562,41.562,0,0,0,0-10.468A6.077,6.077,0,0,0-108.173,415.967Zm-27.659.11h6.061v19.064h-6.061Zm-9.7,11.791a1.513,1.513,0,0,1,1.212,1.653c0,.661-.11,1.433-1.212,1.543a35.338,35.338,0,0,1-6.832,0c-.661-.11-1.433-.11-1.653-1.322v-.331h-6.061a3.544,3.544,0,0,0,.11.882c.22,2.534,1.212,4.3,4.077,4.849,2.314.441,11.019.551,13.664,0,3.085-.661,3.857-3.416,3.857-5.84,0-2.755-.992-4.628-3.416-5.4a12.7,12.7,0,0,0-2.865-.331c-.551,0-7.052-.22-8.485-.441-.882-.11-1.1-.661-1.1-1.433s.11-1.322,1.212-1.543a37.447,37.447,0,0,1,7.052,0,1.161,1.161,0,0,1,.882,1.212v.441h6.061c0-.441-.11-.771-.11-1.1-.331-2.975-1.983-4.628-4.959-4.849a70.456,70.456,0,0,0-11.9.11c-1.983.441-3.967,1.653-3.967,5.73,0,3.306,1.543,4.959,4.187,5.51.771.11,2.975.22,3.306.22.771.11,6.5.331,6.942.441Zm-23.912-.11h-6.722l2.865-7.6h.992Zm1.322,3.967,1.322,3.416h6.5l-8.154-19.174h-8.815l-8.044,19.174h6.5l1.322-3.526,9.366.11h0Zm-34.6-2.865c.11,1.1.661,1.322,1.212,1.433a51.72,51.72,0,0,0,8.265,0,1.642,1.642,0,0,0,1.433-1.322c0-.331.11-.882.11-1.1h6.281a24.244,24.244,0,0,1-.11,2.534,5.457,5.457,0,0,1-4.518,4.849,71.9,71.9,0,0,1-13.774,0,6.047,6.047,0,0,1-4.849-4.408,40.725,40.725,0,0,1,0-10.358,5.919,5.919,0,0,1,4.738-4.408c2.534-.441,11.46-.551,13.884,0a5.721,5.721,0,0,1,4.3,4.628,21.713,21.713,0,0,1,.11,2.314h-6.281c0-.441.11-1.653-.992-1.984a67.981,67.981,0,0,0-8.375-.11,1.323,1.323,0,0,0-1.322,1.212,27.537,27.537,0,0,0-.11,6.722Z" fill="#003296"/>
  </g>
</svg>
