<?xml version="1.0" encoding="UTF-8" standalone="no"?>
<!-- Created with Inkscape (http://www.inkscape.org/) -->
<svg xmlns:svg="http://www.w3.org/2000/svg" xmlns="http://www.w3.org/2000/svg" version="1.0" width="744.09448" height="150.94489" id="svg23104">
  <defs id="defs23106"/>
  <g transform="translate(-28.3516, -487.709)" id="layer1">
    <g transform="matrix(10.8924, 0, 0, 10.8924, -2717.34, -1810.22)" id="g22661">
      <path d="M 269.94,222.505 L 269.94,212.805 L 271.27,212.805 L 277.15,221.405 L 277.15,212.805 L 278.14,212.805 L 278.14,222.505 L 276.68,222.505 L 270.94,214.035 L 270.94,222.505 L 269.94,222.505" style="fill: rgb(35, 31, 32); fill-rule: evenodd; stroke: none;" id="path22339"/>
      <path d="M 261.93,212.805 L 261.93,222.505 L 268.54,222.505 L 268.54,221.635 L 262.93,221.635 L 262.93,217.915 L 268.11,217.915 L 268.11,217.055 L 262.93,217.055 L 262.93,213.675 L 268.54,213.675 L 268.54,212.805 L 261.93,212.805" style="fill: rgb(35, 31, 32); fill-rule: evenodd; stroke: none;" id="path22347"/>
      <path d="M 253.7,212.805 L 253.7,222.505 L 254.7,222.505 L 254.7,212.805 L 253.7,212.805" style="fill: rgb(35, 31, 32); fill-rule: evenodd; stroke: none;" id="path22349"/>
      <path d="M 256.07,217.375 L 260.97,212.805 L 259.59,212.805 L 254.71,217.355 L 259.92,222.505 L 261.25,222.505 L 256.07,217.375" style="fill: rgb(35, 31, 32); fill-rule: evenodd; stroke: none;" id="path22351"/>
      <path d="M 278.85,212.805 L 283.2,223.195 L 285.16,218.855 L 287.12,223.195 L 291.47,212.805 L 290.4,212.805 L 287.05,220.775 L 285.16,216.655 L 283.27,220.805 L 279.92,212.805 L 278.85,212.805" style="fill: rgb(35, 31, 32); fill-rule: evenodd; stroke: none;" id="path22353"/>
      <path d="M 283.57,212.805 L 286.75,212.805 L 285.16,216.365 L 283.57,212.805" style="fill: rgb(236, 27, 36); fill-rule: evenodd; stroke: none;" id="path22355"/>
      <path d="M 314.11,212.775 L 310.89,212.775 L 310.89,222.465 L 314.64,222.465 C 316.97,222.465 318.76,220.275 318.76,217.455 C 318.76,214.735 316.37,212.775 314.11,212.775 z M 314.48,221.605 L 311.89,221.605 L 311.89,213.635 L 314.01,213.635 C 315.31,213.635 317.76,214.905 317.76,217.555 C 317.76,220.345 315.84,221.605 314.48,221.605" style="fill: rgb(35, 31, 32); fill-rule: evenodd; stroke: none;" id="path22357"/>
      <path d="M 295.47,212.595 C 292.99,212.595 290.99,214.895 290.99,217.735 C 290.99,220.575 292.99,222.875 295.47,222.875 C 297.95,222.875 299.95,220.575 299.95,217.735 C 299.95,214.895 297.95,212.595 295.47,212.595 z M 295.47,221.985 C 293.54,221.985 291.97,220.085 291.97,217.735 C 291.97,215.395 293.54,213.485 295.47,213.485 C 297.4,213.485 298.97,215.395 298.97,217.735 C 298.97,220.085 297.4,221.985 295.47,221.985" style="fill: rgb(35, 31, 32); fill-rule: evenodd; stroke: none;" id="path22359"/>
      <path d="M 305.26,212.595 C 302.78,212.595 300.78,214.895 300.78,217.735 C 300.78,220.575 302.78,222.875 305.26,222.875 C 307.73,222.875 309.74,220.575 309.74,217.735 C 309.74,214.895 307.73,212.595 305.26,212.595 z M 305.26,221.985 C 303.33,221.985 301.76,220.085 301.76,217.735 C 301.76,215.395 303.33,213.485 305.26,213.485 C 307.19,213.485 308.76,215.395 308.76,217.735 C 308.76,220.085 307.19,221.985 305.26,221.985" style="fill: rgb(35, 31, 32); fill-rule: evenodd; stroke: none;" id="path22361"/>
    </g>
  </g>
</svg>