<?xml version="1.0" encoding="utf-8"?>
<!-- Generator: Adobe Illustrator 23.0.3, SVG Export Plug-In . SVG Version: 6.00 Build 0)  -->
<svg version="1.1" id="svg2" xmlns:svg="http://www.w3.org/2000/svg"
	 xmlns="http://www.w3.org/2000/svg" xmlns:xlink="http://www.w3.org/1999/xlink" x="0px" y="0px" width="1133.9px"
	 height="240.2px" viewBox="0 0 1133.9 240.2" enable-background="new 0 0 1133.9 240.2" xml:space="preserve">
<g id="layer1" transform="translate(-1117.437,-43.607386)">
	<g id="g21479" transform="matrix(3.2127708,0,0,3.2127708,-2437.1989,-436.22082)">
		<path id="path2394" d="M1136.7,201.6V172l16.6,13.9h16.8c-0.5-14.2-12.1-25.5-26.3-25.5c-14.6,0-26.4,11.8-26.4,26.4
			s11.8,26.4,26.4,26.4c14.2,0,25.8-11.3,26.3-25.5h-16.9L1136.7,201.6"/>
		<path id="path2410" d="M1399.5,180l-1.7,22.3c-0.2,2.7,1.9,4.9,4.8,4.9h13.7l0.5-5.9h-11c-0.1,0-0.2-0.1-0.2-0.2
			c0,0,0.4-5.3,0.5-6.1c1,0,9.7,0,9.7,0c1.6,0,2.8-1,2.9-2.3l1-12.6c0.2-2.3-6.8-3.3-9.6-3.3C1406.1,176.7,1399.7,177.6,1399.5,180z
			 M1411.9,181.9c0,0.2-0.6,7.8-0.6,8c0,0-0.1,0-0.1,0.1c-0.1,0-4,0-4.8,0c0.1-0.9,0.6-7.8,0.6-8
			C1407.2,181.9,1411.7,181.9,1411.9,181.9"/>
		<path id="path2420" d="M1217,176.7l-0.5,6c0,0,9.7,0,10.6,0c-0.1,0.8-0.3,3.6-0.4,4.5c-0.8-0.1-3-0.3-5.4-0.3
			c-4.6,0-6.9,2.5-7.1,4.9l-0.8,10.5c-0.3,3.5,3.6,4.9,5,4.9h14.4l2-25.5c0.2-2.6-2.2-4.9-5.1-4.9H1217z M1226.5,192.5
			c-0.1,0.9-0.7,8.5-0.7,9.4c-0.9,0-4.7,0-4.8,0c0-0.2,0.7-9.2,0.7-9.4C1221.8,192.5,1225.6,192.5,1226.5,192.5"/>
		<path id="path2430" d="M1288.7,176.7l-0.4,6c0,0,9.7,0,10.6,0c-0.1,0.8-0.3,3.6-0.3,4.5c-0.8-0.1-3-0.3-5.4-0.3
			c-4.6,0-6.9,2.5-7.1,4.9l-0.8,10.5c-0.1,3.5,3.6,4.9,5,4.9h14.5l1.9-25.5c0.2-2.6-2.2-4.9-5.2-4.9H1288.7z M1298.3,192.5
			c-0.1,0.9-0.7,8.5-0.7,9.4c-0.8,0-4.6,0-4.7,0c0-0.2,0.7-9.2,0.7-9.4C1293.8,192.5,1297.5,192.5,1298.3,192.5"/>
		<path id="path2440" d="M1245,176.6c-2.8,0-5.3,2.2-5.5,4.9l-1.6,20.8c-0.2,2.7,1.9,4.9,4.8,4.9h11.9l0.5-6.3c0,0-8.7,0-8.7,0
			c-0.2,0-0.5-0.2-0.5-0.4c0,0,1.3-16.4,1.3-17.4c1,0,8.7,0,8.7,0l0.5-6.4H1245"/>
		<path id="path2446" d="M1352.3,167.2h-7.2c0,0-0.1,0.9-0.2,2.4c0,0-0.5,6.6-0.6,7.6c-1.2-0.1-4.3-0.3-7.1-0.3
			c-3.9,0-6.4,1.8-6.6,4.9l-1.6,20.6c-0.2,2.4,3.6,4.9,6.2,4.9h14.5l3.1-39.9H1352.3z M1338.3,183.3c0-0.4,0.1-0.4,0.3-0.4
			c0,0,4.3,0,5.2,0c-0.1,1-1.4,17.8-1.4,18.8c-0.9,0-5.4,0-5.6,0C1336.9,201.6,1338.3,183.3,1338.3,183.3"/>
		<path id="path2456" d="M1258.5,207.2h8.5c0,0,0.9-11.3,1.1-14.6c1.4,3.1,6,14.6,6,14.6h8.6c0,0-7.5-15.9-8.4-18.1
			c0.4-0.5,10.9-12.4,10.9-12.4h-7.5c-1.8,0-2.7,1.3-2.9,1.5c0,0-6.2,7-6.2,7c0.2-2.8,1.4-18.1,1.4-18.1l-8.5,0L1258.5,207.2"/>
		<path id="path2462" d="M1326.9,176.7c-0.2,0-4.9,0-8.3,1.7c0-0.6,0.1-1.7,0.1-1.7h-7.4l-2.4,30.5h7.7l1.6-21.3
			c0.1-0.8,0.5-1.4,1.1-1.8c2.2-1.6,6.8-1,6.9-1l1.3,0.2l0.5-6.5L1326.9,176.7"/>
		<path id="path2468" d="M1433.5,167.2h-8.4l-3,40.2h8.4L1433.5,167.2"/>
		<path id="path2474" d="M1448.3,167.2h-8.5l-3.1,40.2h8.4L1448.3,167.2"/>
		<path id="path2484" d="M1394.1,183.1l0.8-11.2c0.2-2.7-2-4.9-4.8-4.9h-16.1c0,0-0.1,1.1-0.3,3.7c0,0-0.4,5.5-0.7,9.3h8
			c0.2-2.9,0.5-6.6,0.5-7.1c0.9,0,5.9,0,6.1,0c0,0.2-0.7,10.6-0.7,10.8c-0.1,0-21.8,0-21.8,0l1.5,5.1h5.7l-1.6,18.4l16.7,0
			c2.9,0,5.4-2.2,5.6-4.9l1.1-13.2c0.1-1.5-0.5-2.5-1.7-3C1393.5,185.6,1394,184.5,1394.1,183.1z M1386.5,189.6
			c-0.1,1.1-0.9,10.8-1,11.9c-0.2,0-5,0-5.9,0c0.1-0.6,0.6-7.5,1-12.4c2.4,0,4.4,0,5.3,0C1386.4,189,1386.5,189.3,1386.5,189.6"/>
		<path id="path2494" d="M1208.9,167.2h-16.7l-1,12.9h8c0.2-2.9,0.5-6.4,0.6-7c0.9,0,5.9,0,6.1,0c0,0.2-0.8,10.5-0.8,10.6
			c-0.1,0-21.8,0-21.8,0l1.5,5.1h5.7l-1.4,18.6h8.8c0,0,1.2-17,1.3-17.9c1,0,7.9,0,7.9,0c2.8,0,5.3-2.2,5.5-4.9l1-12.4
			C1213.9,169.4,1211.7,167.2,1208.9,167.2"/>
	</g>
</g>
</svg>
