<svg id="logo-garmin" xmlns="http://www.w3.org/2000/svg" width="99.897" height="26.896" viewBox="0 0 99.897 26.896">
  <g id="Group_889" data-name="Group 889" transform="translate(17.208 12.998)">
    <path id="Path_726" data-name="Path 726" d="M58.579,38.224a1.2,1.2,0,0,0-.979-.6h-.758a1.177,1.177,0,0,0-.968.611l-6.007,12.55c-.167.332.015.57.387.57h1.388a.938.938,0,0,0,.947-.555c.149-.305.48-.969.543-1.1.086-.183.35-.3.722-.3l6.464,0c.372,0,.612.072.722.292.072.143.4.74.565,1.066a1,1,0,0,0,.973.593h2.014c.372,0,.536-.283.4-.545Zm-3.8,9.232a.4.4,0,0,1-.391-.614l2.367-5.071c.158-.338.412-.335.566,0l2.3,5.071a.4.4,0,0,1-.4.615ZM105,38.321v12.45a.619.619,0,0,0,.677.578h1.642a.625.625,0,0,0,.677-.61V38.3a.626.626,0,0,0-.613-.677h-1.706A.642.642,0,0,0,105,38.321Zm-27.508,7.8a.459.459,0,0,1,.26-.748,6.873,6.873,0,0,0,2.1-1.033A3.37,3.37,0,0,0,80.866,41.7a4.147,4.147,0,0,0-.393-1.9,3.244,3.244,0,0,0-1.124-1.253A5.124,5.124,0,0,0,77.6,37.84,11.778,11.778,0,0,0,76,37.65c-.372-.017-.981-.031-1.353-.031H67.827a.678.678,0,0,0-.677.677V50.739a.624.624,0,0,0,.677.61h1.613a.625.625,0,0,0,.677-.61s0-4.949,0-4.949,0,0,0-.006,3.058-.008,3.058-.008a1.471,1.471,0,0,1,1.067.554l3.175,4.47a1.114,1.114,0,0,0,.948.55h2.109a.336.336,0,0,0,.3-.533ZM76.2,43.592a5.639,5.639,0,0,1-.888.115c-.372.016-.98.029-1.353.029H70.8a.679.679,0,0,1-.677-.677V40.539a.679.679,0,0,1,.677-.677h3.16c.372,0,.981.013,1.353.029a5.571,5.571,0,0,1,.888.115,2.776,2.776,0,0,1,.992.4,1.523,1.523,0,0,1,.522.615,1.984,1.984,0,0,1,0,1.545,1.523,1.523,0,0,1-.522.615A2.732,2.732,0,0,1,76.2,43.592Zm48.947-5.973a.625.625,0,0,0-.673.6c0,.172,0,7.959,0,7.959,0,.373-.211.458-.469.19l-7.97-8.266a1.558,1.558,0,0,0-1.147-.486h-1.5c-.471,0-.678.252-.678.506V50.853a.557.557,0,0,0,.615.5h1.5c.371,0,.632-.2.632-.545,0-.172.008-8.385.008-8.385,0-.372.21-.457.468-.188l8.31,8.639a1.494,1.494,0,0,0,1.155.48h1.128a.679.679,0,0,0,.677-.677V38.3a.678.678,0,0,0-.677-.677h-1.385ZM92.658,45.38c-.181.325-.478.324-.656,0l-3.9-7.154a1.074,1.074,0,0,0-.979-.6H85.014a.679.679,0,0,0-.678.677V50.723a.606.606,0,0,0,.678.626h1.313a.59.59,0,0,0,.641-.594c0-.172.006-9.039.02-9.039s4.862,9.036,4.862,9.036a.437.437,0,0,0,.785,0s4.888-9.013,4.9-9.013.01,8.754.01,9.013a.605.605,0,0,0,.66.594h1.513a.613.613,0,0,0,.677-.677V38.3a.678.678,0,0,0-.677-.677H97.7a1.1,1.1,0,0,0-1.013.587Z" transform="translate(-49.805 -37.619)"/>
  </g>
  <g id="Group_890" data-name="Group 890" transform="translate(0 12.73)">
    <path id="Path_727" data-name="Path 727" d="M0,43.965c0,6.7,6.858,7.045,8.233,7.045,4.551,0,6.474-1.23,6.554-1.283a1.2,1.2,0,0,0,.631-1.094V44.005a.775.775,0,0,0-.774-.774H8.927a.721.721,0,0,0-.708.774v.479a.722.722,0,0,0,.708.775h3.307a.579.579,0,0,1,.579.578s0,2.029,0,2.157a11.927,11.927,0,0,1-6.02.566,4.666,4.666,0,0,1,.737-9.236,10.06,10.06,0,0,1,5.741,1.11.748.748,0,0,0,1.051-.369s.43-.872.43-.872a.743.743,0,0,0-.318-1.023,13.926,13.926,0,0,0-6.2-1.327C.231,36.845,0,43.237,0,43.965Z" transform="translate(0 -36.845)"/>
  </g>
  <g id="Group_891" data-name="Group 891" transform="translate(96.178 24.806)">
    <path id="Path_728" data-name="Path 728" d="M278.951,72.007h-.589V71.8H279.8v.212H279.2v1.724h-.253Z" transform="translate(-278.362 -71.795)"/>
    <path id="Path_729" data-name="Path 729" d="M285.086,72.88c-.014-.27-.032-.6-.032-.836h-.006c-.069.224-.147.468-.244.736l-.342.939h-.19l-.316-.922c-.092-.276-.166-.523-.221-.753h-.006c-.006.241-.02.563-.037.856l-.051.83H283.4l.135-1.936h.319l.331.937c.08.238.143.451.2.652h.006c.051-.2.121-.408.207-.652l.345-.937h.319l.121,1.936h-.247Z" transform="translate(-281.661 -71.794)"/>
  </g>
  <g id="Group_893" data-name="Group 893" transform="translate(81.917)">
    <g id="Group_892" data-name="Group 892">
      <path id="Path_730" data-name="Path 730" d="M246.966,9.567h-8.981a.9.9,0,0,1-.776-1.345L241.7.448a.9.9,0,0,1,1.552,0l4.49,7.774a.9.9,0,0,1-.776,1.345Z" transform="translate(-237.086)" fill="#007cc2"/>
    </g>
  </g>
</svg>
