<svg xmlns="http://www.w3.org/2000/svg" width="129" height="23.654" viewBox="0 0 129 23.654">
  <path id="logo-philips" d="M238.394,231.385c0,2.946-1.424,4.94-5.032,4.94h-1.14v-9.381c.405-.023.784-.023,1.14-.023,3.416,0,5.032,1.615,5.032,4.463m-3.7,9.025c6.455,0,10.536-3.326,10.536-9.119,0-6.365-4.367-8.645-11.486-8.645a78.026,78.026,0,0,0-8.448.474v22.705h6.928V240.41Zm92.833-9.025c0,2.946-1.422,4.94-5.031,4.94h-1.137v-9.381c.4-.023.781-.023,1.137-.023,3.416,0,5.031,1.615,5.031,4.463m-3.7,9.025c6.45,0,10.533-3.326,10.533-9.119,0-6.365-4.365-8.645-11.485-8.645a78.053,78.053,0,0,0-8.449.474v22.705h6.932V240.41Zm19.55-11.495c0-1.234,1.236-1.805,3.227-1.805a17.367,17.367,0,0,1,6.171,1.143l-.569-4.941a27.124,27.124,0,0,0-6.36-.665c-5.6,0-9.4,2.209-9.4,6.841,0,7.977,10.823,6.364,10.823,10.068,0,1.424-1.046,2.183-3.61,2.183a20.735,20.735,0,0,1-7.878-1.8l.762,5.226a22.909,22.909,0,0,0,7.213,1.139c5.789,0,10.536-1.9,10.536-7.6,0-7.6-10.918-6.173-10.918-9.784m-34.17-5.795h-6.928v22.705h6.928Zm-28.1,0h-6.929v22.705h6.929Zm12.055,18.144V223.121h-6.93v22.705h12.531l1.043-4.561Zm-24.11-18.144h-6.929v9.025H254.91v-9.025h-6.931v22.705h6.931V236.9h7.214v8.931h6.929Z" transform="translate(-225.294 -222.646)" fill="#0067b6"/>
</svg>
