<svg xmlns="http://www.w3.org/2000/svg" width="110.846" height="22" viewBox="0 0 110.846 22">
  <path id="logo-asus" d="M106.141,2.786A2.277,2.277,0,0,1,108.39.5a2.3,2.3,0,0,1,1.589.66,2.292,2.292,0,0,1,0,3.22,2.233,2.233,0,0,1-3.839-1.589m-.186,0a2.466,2.466,0,0,0,2.456,2.477,2.323,2.323,0,0,0,1.713-.722,2.537,2.537,0,0,0,.722-1.754,2.45,2.45,0,0,0-.722-1.754A2.39,2.39,0,0,0,108.411.31a2.466,2.466,0,0,0-2.456,2.477m1.527,1.465h.351V3.1h.784a.705.705,0,0,1,.31.041.452.452,0,0,1,.186.351l.041.454v.206c.021.041.021.062.041.083h.433V4.169c-.062-.021-.083-.083-.1-.165a.642.642,0,0,1-.021-.227l-.021-.351a.583.583,0,0,0-.083-.33.743.743,0,0,0-.248-.165.627.627,0,0,0,.268-.248.738.738,0,0,0,.083-.392.668.668,0,0,0-.351-.64,1.088,1.088,0,0,0-.475-.083H107.5l-.021,2.683Zm.33-1.465V1.857h.826a.547.547,0,0,1,.289.062.408.408,0,0,1,.186.392c0,.186-.041.31-.144.371a.613.613,0,0,1-.372.1ZM10.03,6.191,0,21.959H6.852L16.51,6.893Zm41.3-.351V0h-19.5a6.32,6.32,0,0,0-4.685,2.353,8.265,8.265,0,0,0-1.445,3.013V.041H15.313a2.476,2.476,0,0,0-2.084,1.114c-.578.764-2.951,4.685-2.951,4.685Zm53.039,0V0H83.5a6.362,6.362,0,0,0-4.685,2.353,8.265,8.265,0,0,0-1.445,3.013v.475ZM58.178.021H52.338v5.82h5.841Zm19.131,0H71.49v5.82h5.82Zm0,7.925-5.737-.351v6.749a1.905,1.905,0,0,1-1.9,1.94H59.85a1.852,1.852,0,0,1-1.672-1.919V6.687L52.4,6.274v10.34a6.326,6.326,0,0,0,5.407,5.345s.454.021.537.041H71.655s5.7-.454,5.7-5.944L77.31,7.946ZM19.75,21.959H47.034a6.4,6.4,0,0,0,5.242-5.283,8.886,8.886,0,0,0,.1-2.332c-.144-.867-1.8-4.705-5.345-5.036C44.908,9.1,25.983,7.595,25.983,7.595A5.926,5.926,0,0,0,27.779,11a7.543,7.543,0,0,0,3.405,1.63l14.591,1.218a1.189,1.189,0,1,1,.083,2.373H25.447V7.553l-5.675-.413C19.75,7.141,19.75,21.959,19.75,21.959Zm57.6.041H98.236a6.371,6.371,0,0,0,5.985-5.283,9.606,9.606,0,0,0,.041-2.373c-.145-1.176-1.816-4.726-5.387-5.077C96.771,9.06,77.722,7.946,77.722,7.946a5.573,5.573,0,0,0,1.9,3.1A6.706,6.706,0,0,0,82.9,12.61l14.735,1.238c.454.021,1.383.062,1.383,1.176a1.247,1.247,0,0,1-.371.867,2.388,2.388,0,0,1-.97.268H77.413Z" fill="#00539b"/>
</svg>
