<svg id="logo-canon" xmlns="http://www.w3.org/2000/svg" width="138.694" height="29.008" viewBox="0 0 138.694 29.008">
  <path id="C" d="M22.645,26.184A11.676,11.676,0,1,1,28.833,4.6l-6.187,9.9L34.294,7.779a15.772,15.772,0,0,0-5.276-5.072A21.741,21.741,0,0,0,18.044,0c-6.128,0-11.5,2.227-14.5,5.562A13.306,13.306,0,0,0,0,14.505a13.321,13.321,0,0,0,3.541,8.95c3.006,3.339,8.3,5.553,14.329,5.553S29.192,26.792,32.2,23.455c.165-.184.324-.369.475-.562l-.454-1.7a11.673,11.673,0,0,1-9.575,4.993" fill="#bf1920"/>
  <path id="a" d="M221.549,51.927,216.66,33.688a6.9,6.9,0,0,0-9.024-4.7l-10.525,3.827h10.825l1.85,6.908a10.223,10.223,0,0,0-6.69-2.484c-5.081,0-9.2,3.405-9.2,7.605s4.114,7.611,9.2,7.611a10.956,10.956,0,0,0,8.889-4.542l1.073,4.01h8.492m-14.913-2.833a4.245,4.245,0,1,1,4.246-4.246A4.243,4.243,0,0,1,206.636,49.094Z" transform="translate(-160.284 -23.621)" fill="#bf1920"/>
  <path id="n1" d="M359.732,28.593a4.2,4.2,0,0,0-1.789.4l-6.758,3.149a4.252,4.252,0,0,0-5.985-3.149l-8.251,3.844h5.8V51.942h8.492V34.959a2.124,2.124,0,1,1,4.247,0V51.942h8.488V32.833a4.242,4.242,0,0,0-4.246-4.24" transform="translate(-278.534 -23.636)" fill="#bf1920"/>
  <path id="o" d="M537.315,40.619a12.027,12.027,0,1,1-12.023-12.026,12.024,12.024,0,0,1,12.023,12.026m-11.525-8.376a2.653,2.653,0,0,0-5.125,1.374l4.124,15.377a2.652,2.652,0,1,0,5.123-1.371l-4.123-15.38Z" transform="translate(-424.277 -23.636)" fill="#bf1920"/>
  <path id="n2" d="M666.876,28.593a4.285,4.285,0,0,0-1.8.4l-6.751,3.149a4.252,4.252,0,0,0-5.985-3.149l-8.247,3.844h5.8V51.942h8.49V34.959a2.123,2.123,0,1,1,4.246,0V51.942h8.495V32.833a4.243,4.243,0,0,0-4.244-4.24" transform="translate(-532.426 -23.636)" fill="#bf1920"/>
</svg>
