<svg xmlns="http://www.w3.org/2000/svg" width="77.667" height="29.914" viewBox="0 0 77.667 29.914">
  <path id="logo-jvc" d="M3.656,30.263A4.5,4.5,0,0,1,.7,27.15a38.89,38.89,0,0,1-.2-5.037V17.83H7.843v5.648H16.5L16.55,12.04,16.6.6h7.343V13.593c0,13.991.013,13.788-.992,15.132a4.668,4.668,0,0,1-1.53,1.13l-1.056.495-8.1.037c-4.453.02-8.328-.036-8.611-.124Zm31.733-.05c-.245-.319-9.482-28.954-9.476-29.375,0-.3.315-.329,3.844-.329,3.481,0,3.852.031,3.971.329.072.181,1.187,3.422,2.476,7.2,3.323,9.739,3.6,10.488,3.725,10.167.062-.155,1.409-4.18,2.993-8.943L45.8.6,49.721.551,53.638.5a82.994,82.994,0,0,1-2.662,8.951C49.6,13.7,47.53,20.136,46.366,23.761l-2.116,6.59-4.339.05c-3.331.039-4.382,0-4.522-.188Zm22.678-.031a4.381,4.381,0,0,1-2.527-2.324l-.532-1.084V15.664c0-9.142.048-11.275.273-12.049A4.56,4.56,0,0,1,58.156.729,77.2,77.2,0,0,1,66.865.508C75.572.508,75.486.5,76.8,1.775c1.18,1.15,1.361,2,1.365,6.452l0,3.86-3.619.051-3.619.051L70.876,9.6,70.824,7l-4.189-.051L62.445,6.9v16.96l4.189-.051,4.189-.051.052-2.593.052-2.593,3.619.051,3.619.051v4.048c0,2.226-.068,4.368-.15,4.758a4.072,4.072,0,0,1-2.2,2.475c-.812.376-1.186.394-8.943.437-6.47.036-8.238-.007-8.8-.213h0Z" transform="translate(-0.5 -0.5)" fill="red"/>
</svg>
