<?xml version="1.0" encoding="utf-8"?>
<!-- Generator: Adobe Illustrator 23.0.1, SVG Export Plug-In . SVG Version: 6.00 Build 0)  -->
<svg version="1.1" id="Layer_1" xmlns="http://www.w3.org/2000/svg" xmlns:xlink="http://www.w3.org/1999/xlink" x="0px" y="0px"
	 width="168.6px" height="187.1px" viewBox="0 0 168.6 187.1" style="enable-background:new 0 0 168.6 187.1;" xml:space="preserve"
	>
<style type="text/css">
	.st0{fill-rule:evenodd;clip-rule:evenodd;fill:#ED1C24;}
	.st1{fill-rule:evenodd;clip-rule:evenodd;}
</style>
<g>
	<polygon class="st0" points="83.9,99.3 27.8,99.3 0,148.1 56.2,148.1 83.9,99.3 83.9,99.3 	"/>
	<polygon class="st0" points="112.4,49.3 84.3,0 56.2,49.3 84.3,98.6 112.4,49.3 112.4,49.3 	"/>
	<polygon class="st0" points="112.3,148.1 168.6,148.1 140.8,99.3 84.7,99.3 112.3,148.1 112.3,148.1 	"/>
	<polygon class="st1" points="109.8,186.4 114,186.4 114,163.9 109.8,163.9 109.8,186.4 109.8,186.4 	"/>
	<polygon class="st1" points="156.9,186.4 161.1,186.4 161.1,163.9 156.9,163.9 156.9,186.4 156.9,186.4 	"/>
	<polygon class="st1" points="30.9,186.4 35.1,186.4 35.1,163.9 30.9,163.9 30.9,186.4 30.9,186.4 	"/>
	<polygon class="st1" points="51.2,163.9 38.2,163.9 38.2,167.8 42.5,167.8 42.5,186.4 46.8,186.4 46.8,167.8 51.2,167.8 
		51.2,163.9 51.2,163.9 	"/>
	<polygon class="st1" points="148.5,172.5 139.1,172.5 139.1,163.9 134.9,163.9 134.9,186.4 139.1,186.4 139.1,176.3 148.5,176.3 
		148.5,186.4 152.7,186.4 152.7,163.9 148.5,163.9 148.5,172.5 148.5,172.5 	"/>
	<polygon class="st1" points="17.4,174 13.4,163.9 8.6,163.9 8.6,186.4 12.8,186.4 12.8,172.5 17.4,183.6 21.8,172.3 21.8,186.4 
		26,186.4 26,163.9 21.3,163.9 17.4,174 17.4,174 	"/>
	<path class="st1" d="M86.7,164h-4.2v16l0,0c0,1.7-2,3.2-3.7,3.2c-1.7,0-3.7-1.4-3.7-3.2l0,0v-16H71l0.1,15.8l0,0
		c0,4,3.8,7.3,7.9,7.3c4,0,7.9-3.3,7.9-7.3l0,0L86.7,164L86.7,164L86.7,164z"/>
	<path class="st1" d="M102.9,174.2c0.6-0.4,2.8-1.7,2.8-4.5c0-3.9-3.1-5.7-5.2-5.8l0,0h-9.7v22.4h8.6l0,0c3.4,0,7.1-1.6,7.1-6
		C106.5,176.7,104.7,175.2,102.9,174.2L102.9,174.2L102.9,174.2L102.9,174.2z M99.6,182.6H95v-14.8h4.4l0,0c1.2,0,2.1,1,2.1,2.2
		s-0.5,2.6-2,2.6l0,0h-1.8v3.8h2l0,0c1.2,0,2.8,1.1,2.8,3.4C102.3,181.7,100.7,182.6,99.6,182.6L99.6,182.6L99.6,182.6L99.6,182.6z"
		/>
	<path class="st1" d="M52.8,179.1c0,0.2,0,0.5,0,0.9c0,3.9,3.1,6.8,7,6.8s7-2.6,7-6.5c0-2-0.8-3.6-2.2-4.9c-1.1-1-4.4-2.6-5.6-3.4
		c-1.2-0.7-1.7-1.3-1.8-2.3c0-1.5,1-2.6,2.6-2.6s2.8,1.2,2.8,2.8c0,0.4,0,0.8,0,1l0,0h3.7v-1l0,0c0-3.6-2.3-6.5-6.5-6.5
		c-3.6,0-6.5,2.5-6.5,6.5c0,1.8,0.8,3.5,2.9,4.8c2.2,1.4,4.9,2.5,5.8,3.4c0.6,0.6,0.9,1.3,0.9,2.2c0,1.7-1.4,2.9-3.1,2.9
		s-3.1-1.5-3.3-2.9c0-0.4-0.2-1-0.1-1.2l0,0H52.8L52.8,179.1L52.8,179.1z"/>
	<path class="st1" d="M123.7,172.1c-1.2-0.7-1.7-1.3-1.8-2.3c0-1.5,1-2.6,2.6-2.6c1.5,0,2.8,1.2,2.8,2.8c0,0.4,0,0.8,0,1l0,0h3.7v-1
		l0,0c0-3.6-2.3-6.5-6.5-6.5c-3.6,0-6.5,2.5-6.5,6.5c0,1.8,0.8,3.5,2.9,4.8c2.2,1.4,4.9,2.5,5.8,3.4c0.6,0.6,0.9,1.3,0.9,2.2
		c0,1.7-1.4,2.9-3.1,2.9c-1.7,0-3.1-1.5-3.3-2.9c0-0.4-0.2-1-0.1-1.2l0,0h-3.6l0,0c0,0.2,0,0.5,0,0.9c0,3.9,3.1,6.8,7,6.8
		c3.9,0,7-2.6,7-6.5c0-2-0.8-3.6-2.2-4.9C128.2,174.4,125,172.8,123.7,172.1L123.7,172.1L123.7,172.1L123.7,172.1z"/>
</g>
</svg>
