<?xml version="1.0" encoding="UTF-8"?>
<!-- Generator: Adobe Illustrator 19.0.0, SVG Export Plug-In . SVG Version: 6.00 Build 0)  -->
<svg version="1.1" id="Calque_1" xmlns="http://www.w3.org/2000/svg" xmlns:xlink="http://www.w3.org/1999/xlink" x="0px" y="0px" width="220px" height="150px" viewBox="-264 593 220 150" style="enable-background:new -264 593 220 150;" xml:space="preserve">
<style type="text/css">
	.st0{fill:#3D3D3B;}
	.st1{fill:#E30613;}
</style>
<path class="st0" d="M-171,649.2c1,0,1.4,0.4,1.4,1.4v5.9h1.4c0.6,0,1-0.1,1.2-0.5l3.4-6.7h2.4l-3.7,7.2c-0.4,0.8-0.9,1-0.9,1v0  c0,0,0.4,0.1,0.9,0.9l2.3,3.6c0.2,0.4,1.5,2.3,1.5,2.3h-1.2c-1.2,0-1.6-0.2-2.1-1.1l-2.6-4.3c-0.3-0.5-0.7-0.6-1.3-0.6h-1.3v6h-2  v-15.1L-171,649.2L-171,649.2L-171,649.2z M-159.8,649.2h5.2c2.7,0,4.5,1.7,4.5,4.4c0,2.5-1.6,3.8-2.7,4v0c0,0,0.4,0.2,0.6,0.7  l1.8,3.6c0.2,0.4,1.3,2.3,1.3,2.3h-1c-1.2,0-1.6-0.2-2.1-1.1l-2.1-4.1c-0.4-0.7-0.7-0.8-1.5-0.8h-2v6h-2.1L-159.8,649.2  L-159.8,649.2z M-154.9,656.4c1.6,0,2.6-1,2.6-2.7c0-1.7-1-2.7-2.5-2.7h-2.8v5.4C-157.6,656.4-154.9,656.4-154.9,656.4z   M-141.1,648.9c4.4,0,7.8,3.4,7.8,7.7c0,4.4-3.4,7.9-7.8,7.9c-4.4,0-7.7-3.5-7.7-7.9C-148.9,652.3-145.5,648.9-141.1,648.9  L-141.1,648.9z M-141.1,662.5c3.1,0,5.5-2.6,5.5-5.9c0-3.2-2.5-5.7-5.5-5.7c-3.1,0-5.5,2.5-5.5,5.7  C-146.6,659.9-144.2,662.5-141.1,662.5L-141.1,662.5z M-131.7,649.2h1.9l7.9,11.6v-10.2c0-1,0.4-1.4,1.4-1.4h0.8v15.1h-1.9  l-7.9-11.6v10.2c0,1-0.4,1.4-1.4,1.4h-0.8L-131.7,649.2L-131.7,649.2L-131.7,649.2z M-110.3,648.9c4.4,0,7.8,3.4,7.8,7.7  c0,4.4-3.4,7.9-7.8,7.9c-4.4,0-7.7-3.5-7.7-7.9C-118,652.3-114.6,648.9-110.3,648.9z M-110.3,662.5c3.1,0,5.5-2.6,5.5-5.9  c0-3.2-2.5-5.7-5.5-5.7c-3.1,0-5.5,2.5-5.5,5.7C-115.8,659.9-113.3,662.5-110.3,662.5L-110.3,662.5z M-102.1,662.8l8.6-11.8v0  l-8.4,0v-0.4c0-1,0.4-1.4,1.4-1.4h9.7v1.4l-8.6,11.9v0l8.9,0v0.4c0,1-0.4,1.4-1.4,1.4h-10.1L-102.1,662.8L-102.1,662.8z"/>
<path class="st0" d="M-142.4,718l-1.6-0.7l-45.8-68.2c0,0-1.2-2.2,0.8-3.4c2-1.2,3.3,1,3.3,1l43.3,69.6  C-142.3,716.3-142.4,718-142.4,718z"/>
<path class="st1" d="M-154.4,618l-0.1,1.3l-34.2,49.9c0,0-1.2,1.4-2.5,0.4c-1.3-1-0.2-2.6-0.2-2.6l35.9-48.6L-154.4,618L-154.4,618z  "/>
<path class="st0" d="M-217.4,664.2v-15.1h2.3l4.3,9.9h0l4.3-9.9h2.3l0,15.1h-0.6c-1,0-1.2-0.4-1.3-1.4v-10.2h0l-4,8.8h-1.5l-4-8.9h0  v10.2c-0.1,1-0.3,1.4-1.3,1.4L-217.4,664.2L-217.4,664.2L-217.4,664.2z M-198.3,657.7l-4.5-8.5h0.9c1,0,1.3,0.2,1.9,1.2l2.8,5.5h0  l2.7-5.5c0.6-1,0.9-1.2,1.9-1.2h0.9l-4.5,8.5v6.6h-2.1L-198.3,657.7L-198.3,657.7z"/>
</svg>