<?xml version="1.0" encoding="utf-8"?>
<!-- Generator: Adobe Illustrator 23.0.3, SVG Export Plug-In . SVG Version: 6.00 Build 0)  -->
<svg version="1.1" id="layer" xmlns="http://www.w3.org/2000/svg" xmlns:xlink="http://www.w3.org/1999/xlink" x="0px" y="0px"
	 width="652px" height="184px" viewBox="0 0 652 184" enable-background="new 0 0 652 184" xml:space="preserve">
<radialGradient id="SVGID_1_" cx="-158.0062" cy="-691.6817" r="41.7144" gradientTransform="matrix(0.7071 -0.7071 0.7071 0.7071 343.8489 114.5128)" gradientUnits="userSpaceOnUse">
	<stop  offset="0" style="stop-color:#1A1A1A"/>
	<stop  offset="1" style="stop-color:#000000"/>
</radialGradient>
<path fill="url(#SVGID_1_)" d="M69,63.2c-7.8,7.8-9.1,19.3-3.1,26.6c7.5-1.4,14.4-5,19.8-10.3c5.3-5.2,8.9-12,10.3-19.3
	C88.5,54,76.9,55.3,69,63.2z"/>
<radialGradient id="SVGID_2_" cx="-158.0315" cy="-691.6803" r="41.7173" gradientTransform="matrix(0.7071 -0.7071 0.7071 0.7071 343.8489 114.5128)" gradientUnits="userSpaceOnUse">
	<stop  offset="0" style="stop-color:#009435"/>
	<stop  offset="1" style="stop-color:#006A28"/>
</radialGradient>
<path fill="url(#SVGID_2_)" d="M39.9,33.9c14.1-14,36.8-14,50.9,0c0.5,0.4,0.9,0.9,1.3,1.4c-1.7-3.2-3.9-6.2-6.5-8.8
	c-14.4-14.6-37.9-14.8-52.5-0.4c-0.1,0.1-0.2,0.2-0.4,0.4c-14.6,14.6-14.6,38.3,0,53c2.5,2.5,5.4,4.6,8.5,6.4
	c-0.4-0.3-0.8-0.7-1.1-1.1C26,70.8,25.9,48.1,39.8,34C39.8,34,39.9,34,39.9,33.9z"/>
<radialGradient id="SVGID_3_" cx="-401.6857" cy="-458.2707" r="41.7173" gradientTransform="matrix(1 0 0 1 0 252)" gradientUnits="userSpaceOnUse">
	<stop  offset="0" style="stop-color:#1A1A1A"/>
	<stop  offset="1" style="stop-color:#000000"/>
</radialGradient>
<path fill="url(#SVGID_3_)" d="M58.8,52.8C47.9,63.7,46,80,54.5,90.3c3.7,0.4,7.5,0.3,11.2-0.3l-0.4-0.4c-8.4-8.3-8.4-21.8-0.1-30.1
	s21.8-8.4,30.1-0.1c0,0,0,0,0.1,0.1l0.7,0.7c0.7-3.8,0.9-7.7,0.4-11.6C86.1,40,69.8,41.7,58.8,52.8z"/>
<radialGradient id="SVGID_4_" cx="-401.6857" cy="-458.2707" r="41.7159" gradientTransform="matrix(1 0 0 1 0 252)" gradientUnits="userSpaceOnUse">
	<stop  offset="0" style="stop-color:#1A1A1A"/>
	<stop  offset="1" style="stop-color:#000000"/>
</radialGradient>
<path fill="url(#SVGID_4_)" d="M46.5,40.4c-13.3,13.3-15.6,33-5.1,45.6c4,2.2,8.5,3.6,13,4.1l-0.8-0.9
	c-11.5-11.6-11.4-30.3,0.2-41.8c11.5-11.4,30-11.4,41.5,0c0.4,0.3,0.7,0.7,1,1.1c-0.5-4.6-1.9-9.1-4.1-13.2
	C79.7,24.7,59.9,27,46.5,40.4z"/>
<radialGradient id="SVGID_5_" cx="-158.0315" cy="-691.6803" r="41.7159" gradientTransform="matrix(0.7071 -0.7071 0.7071 0.7071 343.8489 114.5128)" gradientUnits="userSpaceOnUse">
	<stop  offset="0" style="stop-color:#FFFFFF"/>
	<stop  offset="0.265" style="stop-color:#FCFCFC"/>
	<stop  offset="0.482" style="stop-color:#F2F2F2"/>
	<stop  offset="0.681" style="stop-color:#E1E1E1"/>
	<stop  offset="0.868" style="stop-color:#C9C9C9"/>
	<stop  offset="1" style="stop-color:#FFFFFF"/>
</radialGradient>
<path fill="url(#SVGID_5_)" d="M46.5,40.4C60,26.9,79.8,24.7,92.4,35.3v-0.1c-0.4-0.4-0.8-1-1.3-1.4c-14.2-14-37-14-51.1,0.2
	c-13.9,14.1-14,36.7-0.1,50.8c0.4,0.3,0.8,0.7,1.1,1.1l0.1,0.1C30.9,73.4,33.1,53.7,46.5,40.4z"/>
<radialGradient id="SVGID_6_" cx="-158.0315" cy="-691.6803" r="41.7159" gradientTransform="matrix(0.7071 -0.7071 0.7071 0.7071 343.8489 114.5128)" gradientUnits="userSpaceOnUse">
	<stop  offset="0" style="stop-color:#FFFFFF"/>
	<stop  offset="0.265" style="stop-color:#FCFCFC"/>
	<stop  offset="0.482" style="stop-color:#F2F2F2"/>
	<stop  offset="0.681" style="stop-color:#E1E1E1"/>
	<stop  offset="0.868" style="stop-color:#C9C9C9"/>
	<stop  offset="1" style="stop-color:#FFFFFF"/>
</radialGradient>
<path fill="url(#SVGID_6_)" d="M53.5,47.5C42,58.9,41.9,77.6,53.3,89.1c0.1,0.1,0.1,0.1,0.2,0.2l0.8,0.8h0.1
	c-8.5-10.3-6.8-26.5,4.2-37.5s27.3-12.7,37.5-4.1v-0.1c-0.3-0.4-0.7-0.7-1-1.1C83.7,35.8,65,36,53.5,47.5z"/>
<radialGradient id="SVGID_7_" cx="-401.6806" cy="-458.2707" r="41.71" gradientTransform="matrix(1 0 0 1 0 252)" gradientUnits="userSpaceOnUse">
	<stop  offset="0" style="stop-color:#FFFFFF"/>
	<stop  offset="0.265" style="stop-color:#FCFCFC"/>
	<stop  offset="0.482" style="stop-color:#F2F2F2"/>
	<stop  offset="0.681" style="stop-color:#E1E1E1"/>
	<stop  offset="0.868" style="stop-color:#C9C9C9"/>
	<stop  offset="1" style="stop-color:#FFFFFF"/>
</radialGradient>
<path fill="url(#SVGID_7_)" d="M65.3,59.4c-8.2,8.3-8.2,21.7,0,30l0.4,0.4h0.1c-5.9-7.4-4.7-18.8,3.1-26.6c7.9-7.9,19.5-9.1,26.9-3
	l-0.7-0.7C87,51.3,73.7,51.2,65.3,59.4C65.4,59.4,65.3,59.4,65.3,59.4z"/>
<path fill="#808080" d="M142.6,33.9c-4-2.2-8.6-3.4-13.2-3.4c-5.7,0-9.6,3.3-9.6,7.8c0,4.1,2,5.7,8.9,7.5c9.2,2.4,11.6,3.5,14.6,7.1
	c3.2,3.8,4.9,8.5,4.8,13.5c0,12.7-9.5,21.4-23.8,21.4c-5.9-0.1-11.7-1.2-17.3-3.3V70.3c7.8,3.3,12.5,4.5,17.4,4.5
	c5.8,0,9.5-3.1,9.5-7.8c0.1-2.6-1.4-5-3.8-5.9c-2.2-0.9-4.6-1.6-6.9-2c-7.6-2-11.9-4.7-14.6-9.3c-1.8-3.1-2.7-6.7-2.7-10.3
	c0-7.4,3.8-14.4,10.1-18.4c4-2.2,8.6-3.3,13.2-3.1c4.5,0,9,0.7,13.3,2v14h0.1V33.9z M202.3,73.3c0.2,3.1-0.2,6.2-1.1,9.2
	c-2.2,4.5-7.5,6.4-12,4.2c-1.4-0.7-2.7-1.8-3.6-3.1c-1.1-1.6-1.1-1.6-3.1-5.9l-15.7-34.4v43.5h-13.9V33.4c0-6.8,0.1-7.4,1.1-9.6
	c1.5-3.4,4.9-5.6,8.6-5.5c4.8,0,7.2,2.4,10.9,10.3l14.7,32.3V19h13.9v54.4L202.3,73.3z M277.1,53.5c0,18.8-15.9,34.4-35,34.4
	c-19.4,0-35-15.8-35-35.1c0-19.4,15.8-35,35.1-35l0,0C261.8,17.8,277.1,33.6,277.1,53.5L277.1,53.5z M220.8,52.8
	c-0.3,11.7,9,21.4,20.7,21.7c11.7,0.3,21.4-9,21.7-20.7c0-0.2,0-0.4,0-0.6c0-12-9.5-22-21.1-22C230.3,31.3,220.8,40.9,220.8,52.8
	C220.8,52.7,220.8,52.7,220.8,52.8z M350.6,53.5c0,18.8-15.9,34.4-35,34.4c-19.4,0-35-15.8-35-35.1c0-19.4,15.8-35,35.1-35l0,0
	C335.3,17.8,350.6,33.6,350.6,53.5L350.6,53.5z M294.4,52.8c-0.3,11.7,9,21.4,20.7,21.7c11.7,0.3,21.4-9,21.7-20.7
	c0-0.2,0-0.4,0-0.6c0-12-9.5-22-21.1-22C303.8,31.3,294.3,40.9,294.4,52.8C294.4,52.7,294.4,52.7,294.4,52.8z M355.4,86.8V33.3
	c0-11,3.8-14.4,15.9-14.4c9.2,0,14.3,1.6,18.4,5.5c3.9,3.9,6,9.1,5.9,14.6c0,8.9-5.8,17.1-13.7,19.5c-4.2,1.1-8.5,1.6-12.7,1.4v26.9
	H355.4z M370.9,46.7c2.3,0.2,4.5-0.1,6.7-0.8c2.6-1.2,4.2-3.7,4.2-6.5c0-2.9-1.8-5.5-4.5-6.7c-1.6-0.6-2.7-0.6-6.5-0.6h-1.6v14.6
	H370.9L370.9,46.7z M433.3,32.1h-20v12.7h18.6v12.9h-18.6v15.6h20v13.3h-19.8c-6.2,0-9.1-1-11.3-4c-1.8-2.4-2.7-5.4-2.7-10.3V33.2
	c0-5.7,1.1-9.2,3.7-11.6c2.4-2.1,4.8-2.7,10.3-2.7h19.8V32.1z M461.1,32.1h-7.4v54.7h-13.9V30.7c-0.1-2.9,0.8-5.8,2.5-8.1
	c1.8-2.3,4.5-3.6,7.4-3.7l12.7,0.1c5.3,0,10.4,2.1,14.2,5.8c5.8,5.3,7.6,13.7,4.4,20.8c-1,2.3-2.6,4.3-4.5,5.9
	c-2.1,1.8-4.5,3.2-6.9,4.4l17.6,30.7h-16.7L455.3,58c-0.5-1.3-0.8-2.6-0.9-4c-0.1-2.8,1.6-5.4,4.2-6.4c1.6-0.6,1.6-0.6,4-1.6
	c0.9-0.4,1.8-0.8,2.7-1.3c1.9-1.2,3.1-3.4,3.1-5.7C468.4,35.2,465.1,32,461.1,32.1L461.1,32.1z"/>
<path fill="#00A625" d="M108.2,155.6v-17.7h11.2v2.5H111v5.1h6.8v2.5H111v5.2h8.4v2.5h-11.2V155.6z M130,142.7h2.8v13H130v-0.9
	c-1.1,0.7-2.3,1.1-3.5,1.1c-1.8,0-3-0.4-3.5-1.4c-0.7-1.6-1-3.4-0.8-5.1v-6.8h2.8v6.8c-0.1,1.1,0.1,2.1,0.4,3.1
	c0.3,0.6,0.8,0.9,1.8,0.9c0.9,0,1.8-0.1,2.5-0.6l0.4-0.1v-10.1H130V142.7z M136.3,155.6v-13h2.8v1.6c1.3-0.9,2.8-1.5,4.4-1.8v2.8
	c-1.3,0.2-2.6,0.6-3.8,1.1l-0.6,0.3v9.1h-2.8V155.6z M146.3,144c1.2-1.3,2.8-1.9,4.5-1.7c1.7-0.2,3.4,0.5,4.5,1.7
	c1.7,3.2,1.7,7,0,10.2c-2.6,2.3-6.5,2.3-9.1,0c-1-1.5-1.4-3.3-1.3-5.1C144.8,147.3,145.2,145.5,146.3,144z M148.5,152.5
	c0.4,0.7,1.1,1,2.4,1c0.9,0.1,1.8-0.3,2.4-1c0.5-1.1,0.7-2.2,0.6-3.4c0.1-1.2-0.2-2.3-0.7-3.4c-1.2-1.3-3.1-1.3-4.4-0.2
	c-0.1,0.1-0.1,0.1-0.2,0.2c-0.5,1.1-0.8,2.2-0.7,3.4C147.7,150.3,147.9,151.4,148.5,152.5z M159.4,161.3v-18.6h2.8v0.8
	c1-0.7,2.2-1.1,3.4-1.1c1.4-0.1,2.9,0.5,3.8,1.6c0.8,1,1.1,2.8,1.1,5.2c0,2.4-0.4,4.2-1.4,5.2c-1.2,1.1-2.9,1.7-4.5,1.6
	c-0.8,0-1.6-0.1-2.4-0.3v5.5L159.4,161.3L159.4,161.3z M165,144.8c-0.8,0-1.7,0.2-2.4,0.6l-0.4,0.1v7.6c0.7,0.1,1.5,0.2,2.3,0.1
	c0.9,0.1,1.8-0.3,2.4-1c0.5-1.1,0.8-2.2,0.7-3.4C167.6,146.3,166.7,144.8,165,144.8z M182.6,153.3l0.7-0.1v2.1
	c-1.7,0.4-3.5,0.6-5.2,0.6c-1.5,0.1-3.1-0.4-4.1-1.6c-1-1.5-1.4-3.3-1.3-5.1c0-4.7,1.8-6.9,5.7-6.9c3.7,0,5.5,2,5.5,5.9l-0.1,2h-8.1
	c0,0.9,0.2,1.7,0.7,2.4c0.4,0.6,1.3,0.7,2.5,0.7C180.1,153.4,181.4,153.4,182.6,153.3z M181,148.1c0.1-0.9-0.1-1.9-0.6-2.7
	c-0.6-0.6-1.3-0.8-2.1-0.7c-0.8-0.1-1.6,0.2-2.1,0.8c-0.5,0.8-0.8,1.7-0.7,2.7L181,148.1L181,148.1L181,148.1z M186,143.7l1.1-6.1h3
	l-2,6.1H186z M201.3,145.3c-1.5-0.2-2.9-0.4-4.4-0.4c-0.7,0-1.3,0.1-2,0.3c-0.4,0.2-0.6,0.6-0.6,1c-0.1,0.4,0.2,0.8,0.6,1
	c0.9,0.3,1.8,0.5,2.7,0.7c1.1,0.2,2.2,0.6,3.1,1.1c0.6,0.8,0.9,1.8,0.8,2.8c0.1,1.1-0.4,2.3-1.3,3c-1.1,0.8-2.5,1.1-3.8,1
	c-1.3,0-2.7-0.2-4-0.4l-0.8-0.1l0.1-2.4c1.5,0.2,3,0.4,4.5,0.4c0.7,0,1.3-0.1,2-0.3c0.6-0.5,0.8-1.4,0.3-2c-0.1-0.1-0.2-0.2-0.3-0.3
	c-0.9-0.3-1.8-0.5-2.7-0.7c-1.1-0.1-2.2-0.5-3.1-1.1c-0.7-0.7-1.1-1.7-1-2.7c-0.1-1.2,0.5-2.3,1.4-3c1-0.7,2.3-1.1,3.5-1
	c1.4,0,2.8,0.2,4.1,0.4l0.8,0.1L201.3,145.3z M210.2,155.6v-18.4h2.8v18.4H210.2z M225.9,153.3l0.7-0.1v2.1
	c-1.7,0.4-3.5,0.6-5.2,0.6c-1.5,0.1-3.1-0.4-4.1-1.6c-1-1.5-1.4-3.3-1.3-5.1c0-4.7,1.8-6.9,5.7-6.9c3.7,0,5.5,2,5.5,5.9l-0.1,2H219
	c0,0.9,0.2,1.7,0.7,2.4c0.4,0.6,1.3,0.7,2.5,0.7C223.5,153.4,224.7,153.4,225.9,153.3L225.9,153.3z M224.4,148.1
	c0.1-0.9-0.1-1.9-0.6-2.7c-0.6-0.6-1.3-0.8-2.1-0.7c-0.8-0.1-1.6,0.2-2.1,0.9c-0.5,0.8-0.8,1.7-0.7,2.7h5.5L224.4,148.1L224.4,148.1
	z M239.5,146.7v5.9c-0.1,0.5,0.3,1.1,0.8,1.1c0.1,0,0.2,0,0.3,0l-0.1,2.1c-1.2,0.1-2.4-0.2-3.4-1c-1.3,0.7-2.8,1-4.2,1
	c-2.5,0-3.8-1.4-3.8-4.1c-0.1-1,0.2-2.1,1-2.8c1-0.7,2.1-1.1,3.3-1.1l3.4-0.3v-1c0.1-0.5-0.1-1-0.4-1.4c-0.4-0.3-0.8-0.5-1.3-0.4
	c-1.1,0-2.5,0-4.1,0.1h-0.8l-0.1-1.8c1.7-0.4,3.5-0.7,5.2-0.7c1.2-0.1,2.4,0.2,3.4,1C239.3,144.2,239.6,145.5,239.5,146.7
	L239.5,146.7z M233.7,149.9c-1,0-1.8,0.8-1.8,1.8c0,0.1,0,0.1,0,0.2c0,1.1,0.6,1.8,1.6,1.8c0.9,0,1.8-0.1,2.7-0.4l0.4-0.1v-3.4
	L233.7,149.9z M253.7,137.2v18.4h-2.8v-0.7c-1.1,0.6-2.3,1-3.5,1c-1.4,0.1-2.8-0.5-3.7-1.6c-0.8-1-1.1-2.7-1.1-5.1
	c-0.1-1.8,0.3-3.7,1.3-5.2c1-1.2,2.5-1.8,4.1-1.7c0.6,0,1.6,0.1,3,0.3V137h2.8L253.7,137.2z M250.4,152.9l0.4-0.1v-7.6
	c-0.9-0.2-1.9-0.3-2.8-0.3c-1.7,0-2.7,1.4-2.7,4.4c-0.1,1.1,0.1,2.2,0.6,3.3c0.4,0.7,1.2,1,2,1C248.8,153.4,249.6,153.3,250.4,152.9
	z M257.2,140.4v-3h2.8v3H257.2z M257.2,155.6v-13h2.8v13H257.2z M266.3,155.6h-2.8v-13h2.8v0.9c1.1-0.7,2.3-1.1,3.5-1.1
	c1.3-0.2,2.7,0.3,3.5,1.4c0.7,1.5,1.1,3.2,1,4.8v6.9h-2.8v-6.9c0.1-1-0.1-2-0.4-3c-0.4-0.6-1.1-0.9-1.8-0.9c-0.9,0-1.8,0.2-2.5,0.6
	l-0.4,0.1v10.2H266.3z M289,157.4c0,2.8-2.1,4.2-6.2,4.2c-1.5,0.1-3-0.2-4.4-0.9c-1-0.6-1.6-1.8-1.4-3c0-0.6,0.1-1.2,0.4-1.7
	c0.4-0.6,1-1.1,1.6-1.6c-0.6-0.4-0.9-1.1-0.9-1.8c0.1-0.6,0.4-1.2,0.7-1.7l0.3-0.4c-1.3-0.8-2.1-2.4-1.8-4c-0.1-1.3,0.4-2.6,1.4-3.4
	c1.1-0.8,2.5-1.2,3.8-1.1c0.8,0,1.5,0.1,2.3,0.3l0.4,0.1l4-0.1v2.3l-2.1-0.1c0.5,0.6,0.7,1.4,0.7,2.1c0.1,1.3-0.3,2.6-1.3,3.5
	c-1.2,0.8-2.6,1.1-4,1c-0.4,0-0.8,0-1.1-0.1c-0.3,0.4-0.4,0.9-0.4,1.4c0,0.3,0.1,0.6,0.4,0.7c0.7,0.2,1.5,0.2,2.3,0.1
	c1.5-0.2,3,0.1,4.2,0.8C288.7,155,289.1,156.2,289,157.4L289,157.4z M279.8,157.7c0,0.5,0.3,1,0.7,1.3c0.8,0.4,1.7,0.5,2.5,0.4
	c2.1,0,3.1-0.6,3.1-1.8c0-0.7-0.1-1.1-0.6-1.3c-0.7-0.2-1.5-0.3-2.3-0.3l-2.5-0.1c-0.4,0.2-0.6,0.5-0.8,0.9
	C279.9,157,279.8,157.3,279.8,157.7L279.8,157.7z M280.6,148.7c1.1,0.8,2.6,0.8,3.7,0c0.4-0.5,0.6-1.1,0.6-1.7
	c0-0.8-0.1-1.4-0.6-1.7c-0.5-0.4-1.2-0.6-1.8-0.6c-1.6,0-2.4,0.7-2.4,2.3C280,147.6,280.2,148.2,280.6,148.7z M306.1,145.3
	c-1.5-0.2-2.9-0.4-4.4-0.4c-0.7,0-1.3,0.1-2,0.3c-0.4,0.2-0.6,0.6-0.6,1c-0.1,0.4,0.2,0.8,0.6,1c0.9,0.3,1.8,0.5,2.7,0.7
	c1.1,0.2,2.2,0.6,3.1,1.1c0.6,0.8,0.9,1.8,0.9,2.8c0.1,1.1-0.4,2.3-1.3,3c-1.1,0.8-2.5,1.1-3.8,1c-1.3,0-2.7-0.2-4-0.4l-0.9-0.1
	l0.1-2.4c1.5,0.2,3,0.4,4.5,0.4c0.7,0,1.3-0.1,2-0.3c0.6-0.5,0.8-1.4,0.3-2c-0.1-0.1-0.2-0.2-0.3-0.3c-0.9-0.3-1.8-0.5-2.7-0.7
	c-1.1-0.1-2.2-0.5-3.1-1.1c-0.7-0.7-1.1-1.7-1-2.7c-0.1-1.2,0.5-2.3,1.4-3c1-0.7,2.3-1.1,3.5-1c1.4,0,2.8,0.2,4.1,0.4l0.9,0.1
	L306.1,145.3z M317.2,142.7h2.8v13h-2.8v-0.9c-1.1,0.7-2.3,1.1-3.5,1.1c-1.8,0-3-0.4-3.5-1.4c-0.7-1.6-1-3.4-0.8-5.1v-6.8h2.8v6.8
	c-0.1,1.1,0.1,2.1,0.4,3.1c0.3,0.6,0.9,0.9,1.8,0.9s1.8-0.1,2.5-0.6l0.4-0.1v-10.1h-0.1V142.7z M323.4,161.3v-18.6h2.8v0.8
	c1-0.7,2.2-1.1,3.4-1.1c1.4-0.1,2.9,0.5,3.8,1.6c0.8,1,1.1,2.8,1.1,5.2c0,2.4-0.4,4.2-1.4,5.2c-1.2,1.1-2.9,1.7-4.5,1.6
	c-0.8,0-1.6-0.1-2.4-0.3v5.5L323.4,161.3L323.4,161.3z M329.1,144.8c-0.8,0-1.7,0.2-2.4,0.6l-0.4,0.1v7.6c0.7,0.1,1.5,0.2,2.3,0.1
	c0.9,0.1,1.8-0.3,2.4-1c0.5-1.1,0.8-2.2,0.7-3.4C331.6,146.3,330.8,144.8,329.1,144.8z M337.4,161.3v-18.6h2.8v0.8
	c1-0.7,2.2-1.1,3.4-1.1c1.4-0.1,2.9,0.5,3.8,1.6c0.9,1,1.1,2.8,1.1,5.2c0,2.4-0.4,4.2-1.4,5.2c-1.2,1.1-2.9,1.7-4.5,1.6
	c-0.8,0-1.6-0.1-2.4-0.3v5.5L337.4,161.3L337.4,161.3z M343.1,144.8c-0.8,0-1.7,0.2-2.4,0.6l-0.4,0.1v7.6c0.7,0.1,1.5,0.2,2.3,0.1
	c0.9,0.1,1.8-0.3,2.4-1c0.5-1.1,0.8-2.2,0.7-3.4C345.6,146.3,344.8,144.8,343.1,144.8z M351.5,155.6v-18.4h2.8v18.4H351.5z
	 M358,140.4v-3h2.8v3H358z M358,155.6v-13h2.8v13H358z M373.4,153.3l0.7-0.1v2.1c-1.7,0.4-3.5,0.6-5.2,0.6c-1.5,0.1-3.1-0.4-4.1-1.6
	c-1-1.5-1.4-3.3-1.3-5.1c0-4.7,1.8-6.9,5.7-6.9c3.7,0,5.5,2,5.5,5.9l-0.1,2h-8.1c0,0.9,0.2,1.7,0.7,2.4c0.4,0.6,1.3,0.7,2.5,0.7
	C371,153.4,372.2,153.4,373.4,153.3L373.4,153.3z M371.9,148.1c0.1-0.9-0.1-1.9-0.6-2.7c-0.6-0.6-1.3-0.8-2.1-0.7
	c-0.8-0.1-1.6,0.2-2.1,0.8c-0.5,0.8-0.8,1.7-0.7,2.7L371.9,148.1L371.9,148.1L371.9,148.1z M377.4,155.6v-13h2.8v1.6
	c1.3-0.9,2.8-1.5,4.4-1.8v2.8c-1.3,0.2-2.6,0.6-3.8,1.1l-0.6,0.3v9.1h-2.8V155.6z M393.2,144c1.2-1.3,2.8-1.9,4.5-1.7
	c1.7-0.2,3.4,0.5,4.5,1.7c1.7,3.2,1.7,7,0,10.2c-2.6,2.3-6.5,2.3-9.1,0C391.5,151,391.5,147.2,393.2,144L393.2,144z M395.4,152.5
	c0.4,0.7,1.1,1,2.4,1c0.9,0.1,1.8-0.3,2.4-1c0.5-1.1,0.7-2.2,0.6-3.4c0.1-1.2-0.2-2.3-0.7-3.4c-1.2-1.3-3.1-1.3-4.4-0.2
	c-0.1,0.1-0.1,0.1-0.2,0.2c-0.5,1.1-0.8,2.2-0.7,3.4C394.7,150.3,394.9,151.4,395.4,152.5z M409.7,145.1v10.6h-2.8v-10.6h-1.6v-2.4
	h1.6v-0.8c-0.1-1.3,0.2-2.7,0.9-3.8c0.7-0.7,1.8-1.1,2.8-1l2.8,0.3v2.3h-2.1c-0.6,0-1,0.1-1.1,0.6c-0.2,0.6-0.3,1.2-0.3,1.8v0.8h3.4
	v2.4h-3.5L409.7,145.1L409.7,145.1z M431.6,137.2v18.4h-2.8v-0.7c-1.1,0.6-2.3,1-3.5,1c-1.4,0.1-2.8-0.5-3.7-1.6
	c-0.8-1-1.1-2.7-1.1-5.1c-0.1-1.8,0.3-3.7,1.3-5.2c1-1.2,2.5-1.8,4.1-1.7c0.6,0,1.6,0.1,3,0.3V137h2.8L431.6,137.2L431.6,137.2z
	 M428.4,152.9l0.4-0.1v-7.6c-0.9-0.2-1.9-0.3-2.8-0.3c-1.7,0-2.7,1.4-2.7,4.4c-0.1,1.1,0.1,2.2,0.6,3.3c0.4,0.7,1.2,1,2,1
	C426.7,153.4,427.6,153.3,428.4,152.9L428.4,152.9z M435,155.6v-13h2.8v1.6c1.3-0.9,2.8-1.5,4.4-1.8v2.8c-1.3,0.2-2.6,0.6-3.8,1.1
	l-0.6,0.3v9.1H435V155.6z M444.5,140.4v-3h2.8v3H444.5z M444.5,155.6v-13h2.8v13H444.5z M449.5,142.7h3l2.5,10.6h0.9l2.5-10.6h2.8
	l-3.4,13h-5.1L449.5,142.7z M463.5,140.4v-3h2.8v3H463.5z M463.5,155.6v-13h2.8v13H463.5z M472.7,155.6h-2.8v-13h2.8v0.8
	c1.1-0.7,2.3-1.1,3.5-1.1c1.3-0.2,2.7,0.3,3.5,1.4c0.7,1.5,1.1,3.2,1,4.8v6.9H478v-6.9c0.1-1-0.1-2-0.4-3c-0.4-0.6-1.1-0.9-1.8-0.8
	c-0.9,0-1.8,0.2-2.5,0.6l-0.4,0.1L472.7,155.6L472.7,155.6z M495.4,157.4c0,2.8-2.1,4.2-6.2,4.2c-1.5,0.1-3-0.2-4.4-0.8
	c-1-0.6-1.6-1.8-1.4-3c0-0.6,0.1-1.2,0.4-1.7c0.4-0.6,1-1.1,1.6-1.6c-0.6-0.4-0.9-1.1-0.9-1.8c0.1-0.6,0.4-1.2,0.7-1.7l0.3-0.4
	c-1.3-0.8-2.1-2.4-1.8-4c-0.1-1.3,0.4-2.6,1.4-3.4c1.1-0.8,2.5-1.2,3.8-1.1c0.8,0,1.5,0.1,2.3,0.3l0.4,0.1l4-0.1v2.3l-2.1-0.1
	c0.5,0.6,0.7,1.4,0.7,2.1c0.1,1.3-0.3,2.6-1.3,3.5c-1.2,0.8-2.6,1.1-4,1c-0.4,0-0.8,0-1.1-0.1c-0.3,0.4-0.4,0.9-0.4,1.4
	c0,0.3,0.1,0.6,0.4,0.7c0.7,0.2,1.5,0.2,2.3,0.1c1.5-0.2,3,0.1,4.2,0.8C495.1,155.1,495.5,156.2,495.4,157.4L495.4,157.4z
	 M486.2,157.7c0,0.5,0.3,1,0.7,1.3c0.8,0.4,1.7,0.5,2.5,0.4c2.1,0,3.1-0.6,3.1-1.8c0-0.7-0.1-1.1-0.6-1.3c-0.7-0.2-1.5-0.3-2.3-0.3
	l-2.5-0.1c-0.4,0.2-0.6,0.5-0.9,0.8C486.3,157,486.2,157.3,486.2,157.7z M487,148.7c1.1,0.8,2.6,0.8,3.7,0c0.4-0.5,0.6-1.1,0.6-1.7
	c0-0.9-0.1-1.4-0.6-1.7c-0.5-0.4-1.2-0.6-1.8-0.6c-1.6,0-2.4,0.7-2.4,2.3C486.4,147.6,486.6,148.2,487,148.7z M512.7,153.3l0.7-0.1
	v2.1c-1.7,0.4-3.5,0.6-5.2,0.6c-1.5,0.1-3.1-0.4-4.1-1.6c-1-1.5-1.4-3.3-1.3-5.1c0-4.7,1.8-6.9,5.7-6.9c3.7,0,5.5,2,5.5,5.9l-0.1,2
	h-8.1c0,0.9,0.2,1.7,0.7,2.4c0.4,0.6,1.3,0.7,2.5,0.7C510.2,153.4,511.4,153.4,512.7,153.3L512.7,153.3z M511.1,148.1
	c0.1-0.9-0.1-1.9-0.6-2.7c-0.6-0.6-1.3-0.8-2.1-0.7c-0.8-0.1-1.6,0.2-2.1,0.8c-0.5,0.8-0.8,1.7-0.7,2.7L511.1,148.1L511.1,148.1
	L511.1,148.1z M516.8,155.6v-18.4h2.8v18.4H516.8z M532.5,153.3l0.7-0.1v2.1c-1.7,0.4-3.5,0.6-5.2,0.6c-1.5,0.1-3.1-0.4-4.1-1.6
	c-1-1.5-1.4-3.3-1.3-5.1c0-4.7,1.8-6.9,5.7-6.9c3.7,0,5.5,2,5.5,5.9l-0.1,2h-8.1c0,0.9,0.2,1.7,0.7,2.4c0.4,0.6,1.3,0.7,2.5,0.7
	C530,153.4,531.3,153.4,532.5,153.3L532.5,153.3z M530.9,148.1c0.1-0.9-0.1-1.9-0.6-2.7c-0.6-0.6-1.3-0.8-2.1-0.7
	c-0.8-0.1-1.6,0.2-2.1,0.8c-0.5,0.8-0.8,1.7-0.7,2.7L530.9,148.1L530.9,148.1L530.9,148.1z M541.3,142.4c1.1,0,2.2,0.2,3.3,0.4
	l0.7,0.1l-0.1,2.3c-1-0.1-2-0.1-3-0.1c-1-0.1-2,0.2-2.7,0.9c-0.6,1-0.8,2.2-0.7,3.4c-0.1,1.2,0.2,2.4,0.7,3.4c0.7,0.7,1.7,1.1,2.7,1
	l3-0.1l0.1,2.3c-1.3,0.2-2.6,0.4-4,0.4c-1.5,0.2-3.1-0.4-4.1-1.6c-1-1.6-1.4-3.4-1.3-5.2c-0.1-1.8,0.3-3.7,1.3-5.2
	C538.1,142.9,539.7,142.2,541.3,142.4z M554.9,145.1h-3.5v5.7c0,0.7,0.1,1.4,0.3,2.1c0.1,0.4,0.6,0.6,1.1,0.6l2.1-0.1l0.1,2.3
	c-0.9,0.2-1.8,0.3-2.7,0.3c-1.4,0-2.5-0.3-3-1c-0.6-1.2-0.9-2.5-0.8-3.8V145h-1.7v-2.4h1.7v-3.8h2.8v3.8h3.5v2.5H554.9z
	 M557.3,155.6v-13h2.8v1.6c1.3-0.9,2.8-1.5,4.4-1.8v2.8c-1.3,0.2-2.6,0.6-3.8,1.1l-0.6,0.3v9.1h-2.8V155.6z M567.2,144
	c1.2-1.3,2.8-1.9,4.5-1.7c1.7-0.2,3.4,0.5,4.5,1.7c1,1.5,1.5,3.3,1.3,5.1c0.1,1.8-0.3,3.6-1.3,5.1c-2.6,2.3-6.5,2.3-9.1,0
	C565.5,151,565.5,147.2,567.2,144L567.2,144z M569.3,152.5c0.4,0.7,1.1,1,2.4,1c1.3,0,2-0.3,2.4-1c0.5-1.1,0.7-2.2,0.6-3.4
	c0.1-1.2-0.2-2.3-0.7-3.4c-1.2-1.3-3.1-1.3-4.4-0.2c-0.1,0.1-0.1,0.1-0.2,0.2c-0.5,1.1-0.8,2.2-0.7,3.4
	C568.7,150.2,568.9,151.4,569.3,152.5z M583.2,155.6h-2.8v-13h2.8v0.8c1.1-0.7,2.3-1.1,3.5-1.1c1.3-0.2,2.7,0.3,3.5,1.4
	c0.7,1.5,1.1,3.2,1,4.8v6.9h-2.8v-6.9c0.1-1-0.1-2-0.4-3c-0.4-0.6-1.1-0.9-1.8-0.9c-0.9,0-1.8,0.2-2.5,0.6l-0.4,0.1L583.2,155.6
	L583.2,155.6z M594.6,140.4v-3h2.8v3H594.6z M594.6,155.6v-13h2.8v13H594.6z M605.7,142.4c1.1,0,2.2,0.2,3.3,0.4l0.7,0.1l-0.1,2.3
	c-1-0.1-2-0.1-3-0.1c-1-0.1-2,0.2-2.7,0.9c-0.6,1-0.8,2.2-0.7,3.4c-0.1,1.2,0.2,2.4,0.7,3.4c0.7,0.7,1.7,1.1,2.7,1l3-0.1l0.1,2.3
	c-1.3,0.2-2.6,0.4-4,0.4c-1.5,0.2-3.1-0.4-4.1-1.6c-1-1.6-1.4-3.4-1.3-5.2c-0.1-1.8,0.3-3.7,1.3-5.2
	C602.3,142.9,603.8,142.4,605.7,142.4z M621.3,145.3c-1.5-0.2-2.9-0.4-4.4-0.4c-0.6,0-1.3,0.1-1.8,0.3c-0.3,0.2-0.6,0.6-0.6,1
	c-0.1,0.4,0.2,0.8,0.6,1c0.9,0.3,1.8,0.5,2.7,0.7c1.1,0.2,2.2,0.6,3.1,1.1c0.6,0.8,0.9,1.8,0.8,2.8c0.1,1.1-0.4,2.3-1.3,3
	c-1.2,0.7-2.5,1-3.8,1s-2.7-0.2-4-0.4l-0.8-0.1l0.1-2.4c1.5,0.2,3,0.4,4.5,0.4c0.7,0,1.3-0.1,2-0.3c0.4-0.1,0.6-0.6,0.6-1.1
	c0.1-0.5-0.2-0.9-0.6-1.1c-0.9-0.3-1.8-0.5-2.7-0.7c-1.1-0.1-2.2-0.5-3.1-1.1c-0.7-0.7-1.1-1.7-1-2.7c-0.1-1.2,0.5-2.3,1.4-3
	c1-0.7,2.3-1.1,3.5-1c1.4,0,2.8,0.2,4.1,0.4l0.8,0.1L621.3,145.3z"/>
<path fill="#9D9EA0" d="M108.1,122.1v-18.4h11.4v2.6H111v6.2h7v2.6h-7v7L108.1,122.1z M122.5,110.1c1.2-1.3,2.9-1.9,4.6-1.7
	c1.7-0.2,3.4,0.5,4.6,1.8c1,1.5,1.5,3.4,1.4,5.2c0.1,1.9-0.3,3.7-1.3,5.3c-1.2,1.3-2.9,2-4.7,1.8c-1.7,0.2-3.5-0.5-4.7-1.8
	c-1-1.6-1.5-3.4-1.3-5.3C120.9,113.5,121.4,111.7,122.5,110.1z M124.7,118.9c1.2,1.3,3.3,1.4,4.6,0.2c0.1-0.1,0.2-0.2,0.2-0.2
	c0.5-1.1,0.7-2.3,0.6-3.5c0.1-1.2-0.1-2.4-0.7-3.5c-1.3-1.3-3.3-1.4-4.6-0.1l-0.1,0.1c-0.5,1.1-0.8,2.3-0.7,3.5
	C124,116.6,124.2,117.8,124.7,118.9z M136.2,122.1v-13.5h2.9v1.6c1.4-0.9,2.9-1.6,4.6-1.9v2.9c-1.4,0.2-2.7,0.6-4,1.2l-0.6,0.2v9.4
	L136.2,122.1z M152.3,127.9v-19.2h2.9v0.8c1-0.7,2.2-1.1,3.5-1.1c1.5-0.1,2.9,0.5,3.9,1.6c1,1.6,1.4,3.6,1.2,5.5
	c0.2,1.9-0.3,3.8-1.4,5.4c-1.2,1.2-2.9,1.7-4.6,1.6c-0.9,0-1.7-0.1-2.6-0.2v5.7L152.3,127.9z M158.1,111c-0.9,0-1.7,0.2-2.5,0.6
	l-0.4,0.2v7.9c0.8,0.1,1.6,0.2,2.4,0.2c1,0.1,1.9-0.3,2.5-1.1c0.6-1.1,0.8-2.3,0.7-3.6C160.8,112.4,159.9,111,158.1,111z
	 M166.9,122.1v-13.5h2.9v1.6c1.4-0.9,2.9-1.6,4.6-1.9v2.9c-1.4,0.2-2.7,0.6-4,1.2l-0.6,0.2v9.4L166.9,122.1z M177.5,110.1
	c2.6-2.3,6.6-2.3,9.2,0c1,1.5,1.5,3.4,1.4,5.2c0.1,1.9-0.3,3.7-1.3,5.3c-2.7,2.4-6.7,2.4-9.3,0c-1-1.6-1.5-3.4-1.3-5.3
	C176,113.5,176.5,111.7,177.5,110.1z M179.7,118.9c1.2,1.3,3.3,1.4,4.6,0.2c0.1-0.1,0.2-0.2,0.2-0.2c0.5-1.1,0.7-2.3,0.6-3.5
	c0.1-1.2-0.1-2.4-0.7-3.5c-1.3-1.3-3.3-1.4-4.6-0.1l-0.1,0.1c-0.5,1.1-0.8,2.3-0.7,3.5C179,116.6,179.2,117.8,179.7,118.9
	L179.7,118.9z M194.8,111.2v11h-2.9v-11h-1.6v-2.5h1.6v-0.9c-0.1-1.4,0.2-2.8,0.8-4c0.8-0.8,1.9-1.2,3-1.1l2.9,0.3v2.4
	c-0.9,0-1.6-0.1-2.2-0.1c-0.5-0.1-0.9,0.1-1.2,0.5c-0.3,0.6-0.4,1.3-0.4,1.9v0.8h3.6v2.5L194.8,111.2z M210.2,119.7l0.8-0.1l0.1,2.2
	c-1.8,0.4-3.6,0.6-5.4,0.6c-1.6,0.2-3.2-0.5-4.3-1.6c-1-1.6-1.5-3.4-1.3-5.2c0-4.8,1.9-7.2,5.8-7.2c3.8,0,5.7,2.1,5.7,6.2l-0.2,2.1
	h-8.3c-0.1,0.9,0.2,1.7,0.7,2.4c0.7,0.6,1.7,0.9,2.6,0.8C207.5,119.9,208.9,119.8,210.2,119.7z M208.6,114.4c0.1-1-0.1-1.9-0.6-2.8
	c-0.6-0.6-1.3-0.9-2.1-0.8c-0.8-0.1-1.6,0.2-2.2,0.8c-0.5,0.8-0.8,1.8-0.7,2.7L208.6,114.4z M223.8,111.4c-1.5-0.2-3.1-0.4-4.6-0.4
	c-0.7-0.1-1.4,0.1-2,0.3c-0.4,0.2-0.6,0.6-0.6,1.1c0,0.4,0.2,0.8,0.6,1c0.9,0.3,1.9,0.6,2.9,0.7c1.2,0.1,2.3,0.5,3.2,1.2
	c0.7,0.8,1.1,1.9,0.9,3c0.1,1.2-0.4,2.4-1.4,3.1c-1.2,0.7-2.6,1.1-4,1c-1.4,0-2.8-0.2-4.1-0.5l-0.8-0.1l0.1-2.5
	c1.5,0.2,3.1,0.4,4.7,0.4c0.7,0,1.4-0.1,2-0.4c0.4-0.2,0.6-0.7,0.6-1.2s-0.2-0.9-0.6-1.1c-0.9-0.3-1.8-0.6-2.8-0.7
	c-1.1-0.1-2.2-0.5-3.2-1.1c-0.8-0.7-1.1-1.8-1-2.9c-0.1-1.2,0.4-2.4,1.4-3.1c1.1-0.7,2.3-1.1,3.6-1c1.4,0,2.8,0.2,4.2,0.4l0.8,0.2
	L223.8,111.4z M236.7,111.4c-1.5-0.2-3.1-0.4-4.6-0.4c-0.7-0.1-1.4,0.1-2,0.3c-0.4,0.2-0.6,0.6-0.6,1.1c0,0.4,0.2,0.8,0.6,1
	c0.9,0.3,1.9,0.6,2.9,0.7c1.2,0.1,2.3,0.5,3.2,1.2c0.7,0.8,1.1,1.9,0.9,3c0.1,1.2-0.4,2.4-1.4,3.1c-1.2,0.7-2.6,1.1-4,1
	c-1.4,0-2.8-0.2-4.1-0.5l-0.8-0.1l0.1-2.5c1.5,0.2,3.1,0.4,4.7,0.4c0.7,0,1.4-0.1,2-0.4c0.4-0.2,0.6-0.7,0.6-1.2s-0.2-0.9-0.6-1.1
	c-0.9-0.3-1.8-0.6-2.8-0.7c-1.1-0.1-2.2-0.5-3.2-1.1c-0.8-0.7-1.1-1.8-1-2.9c-0.1-1.2,0.4-2.4,1.4-3.1c1.1-0.7,2.3-1.1,3.6-1
	c1.4,0,2.8,0.2,4.2,0.4l0.8,0.2L236.7,111.4z M240.2,106.4v-3.1h2.9v3.1H240.2z M240.2,122.1v-13.5h2.9v13.5H240.2z M247.6,110.1
	c2.6-2.3,6.6-2.3,9.2,0c1,1.5,1.5,3.4,1.4,5.2c0.1,1.9-0.3,3.7-1.3,5.3c-2.7,2.4-6.7,2.4-9.3,0c-1-1.6-1.5-3.4-1.3-5.3
	C246.1,113.5,246.6,111.7,247.6,110.1L247.6,110.1z M249.8,118.9c1.2,1.3,3.3,1.4,4.6,0.2c0.1-0.1,0.2-0.2,0.2-0.2
	c0.5-1.1,0.7-2.3,0.6-3.5c0.1-1.2-0.1-2.4-0.7-3.5c-1.3-1.3-3.3-1.4-4.6-0.1l-0.1,0.1c-0.5,1.1-0.8,2.3-0.7,3.5
	C249.1,116.6,249.3,117.8,249.8,118.9L249.8,118.9z M264.3,122.1h-2.9v-13.5h2.9v0.8c1.1-0.7,2.4-1.1,3.7-1.1
	c1.4-0.2,2.8,0.4,3.7,1.5c0.8,1.6,1.1,3.3,1,5v7.2h-2.9v-7c0.1-1.1-0.1-2.1-0.5-3.1c-0.4-0.7-1.2-1-1.9-0.9c-0.9,0-1.8,0.2-2.6,0.5
	l-0.4,0.2v10.4H264.3z M286.2,112.8v6.1c0,0.3,0.1,0.6,0.3,0.9c0.2,0.2,0.6,0.3,0.9,0.4l-0.1,2.2c-1.3,0.1-2.5-0.3-3.6-1
	c-1.4,0.6-2.8,1-4.3,1c-2.7,0-4-1.4-4-4.3c-0.1-1.1,0.3-2.2,1.1-3c1-0.7,2.1-1.1,3.4-1.1l3.5-0.3v-1c0.2-0.9-0.4-1.7-1.3-1.9
	c-0.2,0-0.4,0-0.6,0c-1.1,0-2.6,0.1-4.3,0.2l-0.9,0.1l-0.1-2.1c1.8-0.4,3.6-0.7,5.4-0.7c1.3-0.1,2.6,0.3,3.6,1.1
	C286,110.4,286.3,111.6,286.2,112.8L286.2,112.8z M280.2,116.2c-1,0-1.8,0.8-1.9,1.8c0,0.1,0,0.2,0,0.3c0,1.2,0.5,1.9,1.6,1.9
	c1,0,1.9-0.2,2.9-0.4l0.5-0.2V116L280.2,116.2z M290.3,122.1V103h2.9v19.1H290.3z M314.3,103.1v19.1h-2.9v-0.7c-1.1,0.6-2.3,1-3.6,1
	c-1.5,0.1-2.9-0.5-3.9-1.6c-1-1.6-1.4-3.5-1.2-5.3c-0.2-1.9,0.3-3.8,1.4-5.4c1.1-1.2,2.6-1.8,4.2-1.7c1,0,2.1,0.2,3.1,0.4v-5.7
	L314.3,103.1z M310.9,119.3l0.5-0.2v-8c-1-0.2-2-0.3-3-0.3c-1.8,0-2.7,1.5-2.7,4.5c-0.1,1.2,0.1,2.4,0.6,3.4c0.5,0.7,1.2,1,2,1
	C309.2,119.8,310.1,119.7,310.9,119.3z M318,122.1v-13.5h2.9v1.6c1.4-0.9,2.9-1.6,4.6-1.9v2.9c-1.4,0.2-2.7,0.6-4,1.2l-0.6,0.2v9.4
	L318,122.1z M328,106.4v-3.1h2.9v3.1H328z M328,122.1v-13.5h2.9v13.5H328z M333.4,108.7h3.1l2.6,11h0.9l2.7-11h3l-3.5,13.5H337
	L333.4,108.7z M348.1,106.4v-3.1h2.9v3.1H348.1z M348.1,122.1v-13.5h2.9v13.5H348.1z M357.8,122.1h-2.9v-13.5h2.9v0.8
	c1.1-0.7,2.4-1.1,3.7-1.1c1.4-0.2,2.8,0.4,3.7,1.5c0.8,1.6,1.1,3.3,1,5v7.2h-2.9v-7c0.1-1.1-0.1-2.1-0.5-3.1c-0.4-0.7-1.2-1-1.9-0.9
	c-0.9,0-1.8,0.2-2.6,0.5l-0.4,0.2L357.8,122.1z M381.5,124c0,2.9-2.1,4.4-6.4,4.4c-1.6,0.1-3.1-0.2-4.6-0.8c-1-0.6-1.6-1.8-1.5-3
	c0-0.6,0.2-1.2,0.5-1.7c0.4-0.6,1-1.1,1.6-1.5c-0.6-0.5-1-1.2-0.9-2c0.1-0.6,0.4-1.2,0.7-1.8l0.2-0.4c-1.3-0.9-2.1-2.4-1.9-4
	c-0.1-1.3,0.4-2.7,1.5-3.6c1.1-0.8,2.5-1.2,3.9-1.1c0.8,0,1.6,0.1,2.3,0.3l0.4,0.1l4.2-0.1v2.4l-2.2-0.1c0.5,0.6,0.7,1.4,0.7,2.2
	c0.2,1.4-0.3,2.7-1.3,3.6c-1.2,0.8-2.7,1.1-4.2,1c-0.4,0-0.8,0-1.2-0.1c-0.2,0.4-0.3,0.9-0.4,1.4c0,0.3,0.2,0.6,0.5,0.7
	c0.8,0.2,1.6,0.2,2.4,0.2c1.5-0.1,3,0.2,4.4,0.9C381.2,121.6,381.6,122.8,381.5,124L381.5,124z M372,124.2c0,0.6,0.3,1.1,0.8,1.3
	c0.8,0.3,1.7,0.5,2.6,0.4c2.2,0,3.3-0.6,3.3-1.9c0-0.7-0.2-1.1-0.6-1.3c-0.7-0.2-1.5-0.4-2.3-0.3l-2.6-0.2c-0.3,0.3-0.6,0.6-0.8,0.9
	C372,123.5,372,123.9,372,124.2L372,124.2z M372.8,114.9c0.5,0.4,1.2,0.6,1.9,0.6c0.7,0.1,1.4-0.1,1.9-0.6c0.4-0.5,0.6-1.2,0.6-1.8
	c0.1-0.7-0.2-1.3-0.6-1.8c-0.5-0.4-1.2-0.6-1.9-0.6c-1.2-0.2-2.3,0.6-2.5,1.8c0,0.2,0,0.4,0,0.6
	C372.1,113.7,372.3,114.4,372.8,114.9L372.8,114.9z M400.2,112.8v6.1c0,0.3,0.1,0.6,0.3,0.9c0.2,0.2,0.6,0.3,0.9,0.4l-0.1,2.2
	c-1.3,0.1-2.5-0.3-3.6-1c-1.4,0.6-2.8,1-4.3,1c-2.7,0-4-1.4-4-4.3c-0.1-1.1,0.3-2.2,1.1-3c1-0.7,2.1-1.1,3.4-1.1l3.5-0.3v-1
	c0.2-0.9-0.4-1.7-1.3-1.9c-0.2,0-0.4,0-0.6,0c-1.1,0-2.6,0.1-4.3,0.2l-0.9,0.1l-0.1-2.1c1.8-0.4,3.6-0.7,5.4-0.7
	c1.3-0.1,2.6,0.3,3.6,1.1C399.9,110.4,400.3,111.6,400.2,112.8z M394.1,116.2c-1,0-1.8,0.8-1.9,1.8c0,0.1,0,0.2,0,0.3
	c0,1.2,0.5,1.9,1.6,1.9c1,0,1.9-0.2,2.9-0.4l0.5-0.2V116L394.1,116.2z M407,122.1h-2.9v-13.5h2.9v0.8c1.1-0.7,2.4-1.1,3.7-1.1
	c1.4-0.2,2.8,0.4,3.7,1.5c0.8,1.6,1.1,3.3,1,5v7.2h-2.9v-7c0.1-1.1-0.1-2.1-0.5-3.1c-0.4-0.7-1.2-1-1.9-0.9c-0.9,0-1.8,0.2-2.6,0.5
	l-0.4,0.2L407,122.1z M430,103.1v19.1h-2.9v-0.7c-1.1,0.6-2.3,1-3.6,1c-1.5,0.1-2.9-0.5-3.9-1.6c-1-1.6-1.4-3.5-1.2-5.3
	c-0.2-1.9,0.3-3.8,1.4-5.4c1.1-1.2,2.6-1.8,4.2-1.7c1,0,2.1,0.2,3.1,0.4v-5.7L430,103.1z M426.6,119.3l0.5-0.2v-8
	c-1-0.2-2-0.3-3-0.3c-1.8,0-2.7,1.5-2.7,4.5c-0.1,1.2,0.1,2.4,0.6,3.4c0.5,0.7,1.2,1,2,1C424.9,119.8,425.7,119.7,426.6,119.3
	L426.6,119.3z M440.6,110.1c2.6-2.3,6.6-2.3,9.2,0c1,1.5,1.5,3.4,1.4,5.2c0.1,1.9-0.3,3.7-1.3,5.3c-2.7,2.4-6.7,2.4-9.3,0
	c-1-1.6-1.5-3.4-1.3-5.3C439.1,113.5,439.6,111.7,440.6,110.1L440.6,110.1z M442.8,118.9c1.2,1.3,3.3,1.4,4.6,0.2
	c0.1-0.1,0.2-0.2,0.2-0.2c0.5-1.1,0.7-2.3,0.6-3.5c0.1-1.2-0.1-2.4-0.7-3.5c-1.3-1.3-3.3-1.4-4.6-0.1l-0.1,0.1
	c-0.5,1.1-0.8,2.3-0.7,3.5C442.1,116.6,442.3,117.8,442.8,118.9L442.8,118.9z M462.5,108.7h2.9v13.5h-2.9v-0.8
	c-1.1,0.7-2.3,1.1-3.6,1.1c-1.4,0.2-2.8-0.4-3.7-1.5c-0.8-1.6-1.1-3.4-0.9-5.2v-7h2.9v7.1c-0.1,1.1,0.1,2.2,0.4,3.3
	c0.3,0.6,0.9,0.8,1.9,0.8c0.9,0,1.8-0.2,2.7-0.5l0.4-0.2L462.5,108.7z M476.4,111.2h-3.7v5.9c0,0.7,0,1.5,0.2,2.2
	c0.2,0.4,0.6,0.5,1.2,0.5l2.2-0.1l0.1,2.3c-0.9,0.2-1.8,0.3-2.7,0.4c-1.1,0.1-2.3-0.2-3.1-1.1c-0.7-1.2-1-2.6-0.8-4v-6.2h-1.7v-2.5
	h1.7v-3.9h2.9v3.9h3.7L476.4,111.2z M490,103.1v19.1h-2.9v-0.7c-1.1,0.6-2.3,1-3.6,1c-1.5,0.1-2.9-0.5-3.9-1.6
	c-1-1.6-1.4-3.5-1.2-5.3c-0.2-1.9,0.3-3.8,1.4-5.4c1.1-1.2,2.6-1.8,4.2-1.7c1,0,2.1,0.2,3.1,0.4v-5.7L490,103.1z M486.6,119.3
	l0.5-0.2v-8c-1-0.2-2-0.3-3-0.3c-1.8,0-2.7,1.5-2.7,4.5c-0.1,1.2,0.1,2.4,0.6,3.4c0.5,0.7,1.2,1,2,1
	C484.9,119.8,485.8,119.7,486.6,119.3L486.6,119.3z M494.5,110.1c2.6-2.3,6.6-2.3,9.2,0c1,1.5,1.5,3.4,1.4,5.2
	c0.1,1.9-0.3,3.7-1.3,5.3c-2.7,2.4-6.7,2.4-9.3,0c-1-1.6-1.5-3.4-1.3-5.3C493,113.5,493.5,111.7,494.5,110.1L494.5,110.1z
	 M496.7,118.9c1.2,1.3,3.3,1.4,4.6,0.2c0.1-0.1,0.2-0.2,0.2-0.2c0.5-1.1,0.7-2.3,0.6-3.5c0.1-1.2-0.1-2.4-0.7-3.5
	c-1.3-1.3-3.3-1.4-4.6-0.1l-0.1,0.1c-0.5,1.1-0.8,2.3-0.7,3.5C496,116.6,496.2,117.8,496.7,118.9L496.7,118.9z M509,110.1
	c2.6-2.3,6.6-2.3,9.2,0c1,1.5,1.5,3.4,1.4,5.2c0.1,1.9-0.3,3.7-1.3,5.3c-2.7,2.4-6.7,2.4-9.3,0c-1-1.6-1.5-3.4-1.3-5.3
	C507.5,113.5,508,111.7,509,110.1L509,110.1z M511.2,118.9c1.2,1.3,3.3,1.4,4.6,0.2c0.1-0.1,0.2-0.2,0.2-0.2
	c0.5-1.1,0.7-2.3,0.6-3.5c0.1-1.2-0.1-2.4-0.7-3.5c-1.3-1.3-3.3-1.4-4.6-0.1l-0.1,0.1c-0.5,1.1-0.8,2.3-0.7,3.5
	C510.5,116.6,510.7,117.8,511.2,118.9L511.2,118.9z M522.7,122.1v-13.5h2.9v1.6c1.4-0.9,2.9-1.6,4.6-1.9v2.9c-1.4,0.2-2.7,0.6-4,1.2
	l-0.6,0.2v9.4L522.7,122.1z"/>
</svg>
