<svg xmlns="http://www.w3.org/2000/svg" width="41" height="41.001" viewBox="0 0 41 41.001">
  <path id="logo-hp" d="M21.35,41.85c-.2,0-.407,0-.609-.01l4.19-11.514H30.7A2.827,2.827,0,0,0,33.165,28.6L37.71,16.113a2.594,2.594,0,0,0-2.6-3.716h-8L20.4,30.839h0l-3.8,10.454a20.505,20.505,0,0,1-.775-39.687L11.889,12.4h0L5.362,30.327H9.706l5.55-15.236h3.265l-5.55,15.236h4.343l5.172-14.214a2.593,2.593,0,0,0-2.6-3.716H16.235L20.429.872c.306-.014.613-.022.921-.022a20.5,20.5,0,0,1,0,41Zm12.4-26.77H30.489L25.918,27.623h3.264Z" transform="translate(-0.85 -0.85)" fill="#4987ce"/>
</svg>
