<?xml version="1.0" encoding="utf-8"?>
<!-- Generator: Adobe Illustrator 23.0.3, SVG Export Plug-In . SVG Version: 6.00 Build 0)  -->
<svg version="1.1"
	 id="svg16724" xmlns:cc="http://creativecommons.org/ns#" xmlns:dc="http://purl.org/dc/elements/1.1/" xmlns:rdf="http://www.w3.org/1999/02/22-rdf-syntax-ns#" xmlns:svg="http://www.w3.org/2000/svg"
	 xmlns="http://www.w3.org/2000/svg" xmlns:xlink="http://www.w3.org/1999/xlink" x="0px" y="0px" width="300px" height="79px"
	 viewBox="0 0 300 79" enable-background="new 0 0 300 79" xml:space="preserve">
<title  id="title16753">Pantech Logo</title>
<g id="layer1" transform="matrix(2.3532642,0,0,2.3532642,-677.61318,-1370.576)">
	<g id="g16697" transform="matrix(0,-1.25,-1.25,0,758.61982,697.37754)">
		<path id="path14037" fill="#0086A4" d="M73.1,329.7v-2.2h13.7v3.2h-9.5l9.5,6.6v2.8H73.1V337h8.6l-7.3-5.1
			C73.5,331.2,73.1,330.5,73.1,329.7"/>
		<path id="path14039" fill="#0086A4" d="M86.8,313.5v12.4h-2.4v-4.6c-0.3,0-11.3,0-11.3,0v-3.1c0,0,11.1,0,11.3,0v-4.6L86.8,313.5"
			/>
		<path id="path14041" fill="#0086A4" d="M73.1,309.7v-8.9h2.4v7.8h3.4v-5.6h2.4c0,0,0,5.3,0,5.6h3.1c0-0.2,0-7.6,0-7.6h2.4v10.8
			H74.9C74.6,311.7,73.1,311.6,73.1,309.7"/>
		<path id="path14043" fill="#0086A4" d="M75.3,287.3L77,289c-1.1,0.8-1.8,2.2-1.8,3.8c0.1,2.7,2.2,4.4,4.8,4.3
			c2.5-0.1,4.5-2,4.4-4.6c0-1.3-0.5-2.4-1.3-3.1l1.9-1.6c1.3,1.2,2.1,2.9,2.2,4.9c0.2,4.3-3,7.3-7.1,7.4c-4.1,0.2-7.5-2.6-7.6-6.9
			C72.4,290.7,73.5,288.6,75.3,287.3"/>
		<path id="path14045" fill="#0086A4" d="M86.8,277.7c0,0-5.2,0-5.4,0c0,0.2,0,5,0,5.2c0.2,0,5.4,0,5.4,0v3.1H73.1v-3.1
			c0,0,5.3,0,5.9,0v-5.2c-0.5,0-5.9,0-5.9,0v-3.1h13.7V277.7"/>
		<path id="path14047" fill="#0086A4" d="M73.1,354.7l3-1.4v-7.5l-3-1.4v-3.2l13.7,6.3v4.2l-13.7,6.3V354.7z M84.3,349.5l-5.9-2.7
			v5.4L84.3,349.5"/>
		<path id="path14049" fill="#0086A4" d="M82.5,357.2c5.6,0,9.4,4.6,9.4,9.9c0,5.3-4.2,9.3-9.3,9.4v0H68.4l-3.2-3.3h17.4
			c3.4,0,6.2-2.9,6.2-6.3c0-3.5-2.8-6.3-6.2-6.3s-6.2,2.8-6.2,6.3v4.7h-3.2v-4.4C73.1,361.5,76.6,357.2,82.5,357.2"/>
	</g>
</g>
</svg>
