<?xml version="1.0" encoding="utf-8"?>
<!-- Generator: Adobe Illustrator 23.0.3, SVG Export Plug-In . SVG Version: 6.00 Build 0)  -->
<svg version="1.1" id="Layer_1" xmlns="http://www.w3.org/2000/svg" xmlns:xlink="http://www.w3.org/1999/xlink" x="0px" y="0px"
	 width="400px" height="200px" viewBox="0 0 400 200" enable-background="new 0 0 400 200" xml:space="preserve">
<path id="path3455" fill="#C41230" d="M345,179.6c-1.5-0.8-3.1-1.2-4.7-1.2c-1.6,0-3.1,0.4-4.6,1.2c-1.5,0.9-2.7,2-3.6,3.6
	c-0.9,1.6-1.2,3.2-1.2,4.8c0,1.7,0.4,3.2,1.2,4.8c0.9,1.5,2,2.7,3.5,3.6c1.5,0.9,3,1.3,4.7,1.3c1.6,0,3.2-0.4,4.7-1.3
	c1.5-0.8,2.7-2,3.5-3.6c0.8-1.5,1.3-3.1,1.3-4.8c0-1.7-0.4-3.3-1.3-4.8C347.6,181.7,346.4,180.5,345,179.6 M347.1,192
	c-0.7,1.3-1.7,2.3-3,3c-1.2,0.7-2.5,1.1-3.9,1.1c-1.4,0-2.7-0.4-3.9-1.1c-1.3-0.7-2.2-1.7-3-3c-0.7-1.2-1-2.5-1-4c0-1.4,0.3-2.7,1-4
	c0.7-1.3,1.7-2.3,2.9-3c1.3-0.7,2.5-1,3.9-1c1.3,0,2.6,0.3,3.9,1c1.2,0.7,2.2,1.7,3,3c0.7,1.3,1,2.6,1,4
	C348.1,189.5,347.8,190.8,347.1,192 M341.9,189.3c-0.2-0.2-0.5-0.4-0.9-0.5c0.9-0.1,1.6-0.4,2.2-1c0.5-0.6,0.8-1.2,0.8-2
	c0-0.5-0.2-1.1-0.5-1.5c-0.3-0.4-0.7-0.8-1.3-1c-0.5-0.2-1.4-0.3-2.5-0.3h-3.5v10.3h1.6V189h1c0.6,0,1,0.1,1.3,0.3
	c0.4,0.3,1,1.1,1.7,2.4l0.9,1.6h2l-1.2-2C342.8,190.4,342.4,189.7,341.9,189.3 M339.8,187.5h-2v-3.1h1.9c0.8,0,1.3,0.1,1.6,0.2
	c0.3,0.2,0.6,0.3,0.7,0.5c0.2,0.3,0.2,0.5,0.2,0.8c0,0.5-0.2,0.8-0.5,1.2C341.4,187.4,340.7,187.5,339.8,187.5 M2.7,2.7l37.9,179
	l2.9-1.5c40.3-21.1,80.5-19.9,107.1-15.1c28.9,5.2,48.6,15.5,48.8,15.6l1,0.6l1.1-0.5c47.5-21.1,86.8-19.9,111.3-15.2
	c26.6,5.2,42.2,15.4,42.4,15.6l3,2l0.8-3.5L397.7,2.7L2.7,2.7z"/>
<path id="path3457" fill="#FFFFFF" d="M276.3,42.9v13.5h7l-3.5,10.1h3.2l7.7-9.3h0V42.9H276.3z M141.7,51.1
	c-21,0-33.5,11.7-33.5,31.3c0,19.6,12,31.4,34.8,31.4c20.7,0,30.1-7.9,32.4-21.3h-18.5c-1,5.2-5.9,7-12.2,7
	c-7.4,0-12.1-5.1-12.1-13.5h42.4c0.2-1,0.3-2.3,0.3-3.6C175.2,65.5,164.1,51.1,141.7,51.1z M322.8,51.3c-18.6,0-30.6,7.5-30.6,20.3
	c0,23.9,35.4,15.8,35.4,24.3c0,3.2-2.6,4.9-7.6,4.9c-5.7,0-9.7-2.6-9.7-7.7h-18.6v0.3c0,10.8,7.6,19.8,27.9,19.8
	c23,0,31.7-9.1,31.7-20.8c0-24.3-37.1-15.2-37.1-24.5c0-1.9,2.4-4.1,8.5-4.1c6,0,9.6,2.8,9.6,5.7h17
	C349.5,59.6,339.4,51.3,322.8,51.3z M248,52.5v59.3h22.2V52.5H248z M169.1,52.6l29.1,59.3h18.3l28.2-59.3h-18.3l-15.6,34.2h-0.4
	l-15.6-34.2H169.1z M51.4,53.1v58.7h55.7v-15H73.5V53.1H51.4z M141.9,63.8c6.3,0,8.5,5.2,8.5,11.7h-16.9
	C133.4,69.7,135.6,63.8,141.9,63.8z"/>
</svg>
