<?xml version="1.0" encoding="utf-8"?>
<!-- Generator: Adobe Illustrator 23.0.3, SVG Export Plug-In . SVG Version: 6.00 Build 0)  -->
<svg version="1.1" id="Layer_1" xmlns="http://www.w3.org/2000/svg" xmlns:xlink="http://www.w3.org/1999/xlink" x="0px" y="0px"
	 width="194px" height="132px" viewBox="0 0 194 132" enable-background="new 0 0 194 132" xml:space="preserve">
<g>
	<path fill-rule="evenodd" clip-rule="evenodd" d="M96.1,47.3c11.4,0,20.7-7.4,20.7-16.6s-9.3-16.6-20.7-16.6s-20.7,7.4-20.7,16.6
		S84.7,47.3,96.1,47.3L96.1,47.3z"/>
	<path fill-rule="evenodd" clip-rule="evenodd" d="M45.8,54.7c-1.7-0.2-4.1-0.2-4.1-0.2v1.6c3.5,0,3.7,2.6,3.7,2.6s0,10,0,15.2
		c0,5.2-3.8,4.4-3.8,4.4v1.6c0,0,2.3-0.1,4.2-0.3c2.5-0.4,4.4,0.3,8.4,0.3v-1.6c-3.2,0-3.3-4.4-3.3-4.4v-6.2c0.6,0,1.3,0,2.2,0
		c2.9,0,3.1,4.7,4.1,8.5c0.7,2.6,2.3,3.7,2.3,3.7s2.4-0.3,4.9,0c2.5,0.3,3.3,0.2,5.3-0.1c2.8-0.5,2.8,0.1,6.9,0.1v-1.6
		c-4.3,0-2.7-4-2.7-4l1.3-3.6h7.1c0.7,1.9,1.4,3.6,1.7,4.6c1.1,3.2-2.4,3-2.4,3v1.6c0,0,1.4,0.2,3.8-0.3c3.6-0.8,4.1,0.3,8.6,0.3
		v-1.6c-3.2,0-4-3.1-4-3.1l-8.5-20.9h-1.8c0,0-7.1,17.5-8.2,20.1c-1,2.6-1.9,3.9-4.5,3.9c-3.3,0-3.5-2.8-4.6-6.4s-4.5-4.7-4.5-4.7
		c2.7-0.7,6.2-1.7,6.2-7.1c0-5.9-10.4-5.6-10.4-5.6C48.6,54.7,47.7,55,45.8,54.7L45.8,54.7z"/>
	<path fill-rule="evenodd" clip-rule="evenodd" d="M105.6,79.9v-1.6c-4.9,0-4.6-5.3-4.6-5.3V62.9l15.5,17h1.7c0,0,0-14.7,0-19.4
		s4.4-4.4,4.4-4.4v-1.9c-4.3,0-4.6,1.1-6.8,0.5c-2.2-0.5-3.9-0.5-3.9-0.5v1.9c4.8,0,4.5,4.3,4.5,4.3v10.7l-15.4-16.9h-7.4v1.9
		c4,0,5.1,5.2,5.1,5.2v13c0,4.4-4.1,4.1-4.1,4.1v1.5c0,0,2,0.1,3.8-0.2C101.7,79.1,100.6,79.9,105.6,79.9L105.6,79.9z"/>
	<path fill-rule="evenodd" clip-rule="evenodd" d="M88.7,112.4c3.4-0.6,2.8,0.1,6.9,0.1v-1.6c-4.3,0-2.7-4-2.7-4l1.3-3.6h7.1
		c0.7,1.9,1.4,3.6,1.7,4.6c1.1,3.2-2.4,3-2.4,3v1.6c0,0,1.4,0.2,3.8-0.3c3.6-0.8,4.1,0.3,8.6,0.3v-1.6c-3.2,0-4-3.1-4-3.1l-8.5-20.9
		h-1.8c0,0-7.1,17.5-8.2,20.1s-1.9,3.9-4.5,3.9v1.6C86.1,112.5,87.7,112.6,88.7,112.4L88.7,112.4z"/>
	<path fill-rule="evenodd" clip-rule="evenodd" d="M70.5,112.5v-1.6c-4.9,0-4.6-5.3-4.6-5.3V95.5l15.5,17h1.7c0,0,0-14.7,0-19.4
		s4.4-4.4,4.4-4.4v-1.9c-4.3,0-4.6,1.1-6.8,0.5c-2.2-0.5-3.9-0.5-3.9-0.5v1.9c4.8,0,4.5,4.3,4.5,4.3v10.7L66.1,86.9h-7.4v1.9
		c4,0,5.1,5.2,5.1,5.2v13c0,4.4-4.1,4.1-4.1,4.1v1.5c0,0,2,0.1,3.8-0.2C66.7,111.7,65.5,112.5,70.5,112.5L70.5,112.5z"/>
	<path fill-rule="evenodd" clip-rule="evenodd" d="M136.3,54.6c-3.8,0-5.3,0.5-8.4,0.3c-2.4-0.1-4.3-0.6-4.3-0.6v1.8
		c1,0.2,1.9,0.3,2.8,0.4c0,3.3,0,14.8,0,18.4c0,4.2-4.4,3.5-4.4,3.5v1.6c0,0,13.7,0,17,0s12.6-1.4,12.6-12.6
		C151.6,56.2,140.1,54.6,136.3,54.6L136.3,54.6z"/>
	<path fill-rule="evenodd" clip-rule="evenodd" d="M49.9,112.4c1.8,0,3.2-1.4,3.2-3.2c0-1.8-1.4-3.2-3.2-3.2c-1.8,0-3.2,1.4-3.2,3.2
		C46.7,110.9,48.1,112.4,49.9,112.4L49.9,112.4z"/>
	<path fill-rule="evenodd" clip-rule="evenodd" d="M17.7,86.9l9,16.6l7.1-16.6h10v1.3c0,0-3.9-0.3-3.9,3.9c0,4.1,0,15.8,0,15.8
		s-0.1,2.8,3.6,2.8v1.9c0,0-2.5,0.2-4.8-0.4c-2.3-0.5-3.1-0.2-5,0.2c-1.9,0.4-3.4,0.1-3.4,0.1v-1.9c0,0,3.9,0.5,3.9-3.8
		s0-15.4,0-15.4l-8.9,20.7h-0.9l-9.5-19l-0.1,14.5c0,0-0.2,2.9,3.5,3v1.9c0,0-1.9-0.1-3.2-0.5c-1.3-0.3-2.1-0.3-3.7,0
		c-1.6,0.3-1.8,0.4-2.8,0.4v-1.9c0,0,4.3-0.1,4.3-3.1S13,91,13,91s0-2.4-4.1-2.6v-1.6L17.7,86.9L17.7,86.9z"/>
	<path fill-rule="evenodd" clip-rule="evenodd" d="M56.4,86.9h0.9l0.6,5.9h-1c0,0-1.4-4.6-5-4.6s-4.5,3-4.5,6.4
		c0,3.5,1.2,7.7,4.9,7.7s5.1-3.8,5.1-3.8l1.2,0.6c0,0-2.3,5.1-7,5.1s-8.8-2.7-8.8-8.5s4.6-9.1,8.2-9.1
		C54.9,86.5,55.9,89.1,56.4,86.9L56.4,86.9z"/>
	<path fill-rule="evenodd" clip-rule="evenodd" d="M122.2,112.3c-1.6-0.2-4.5-0.1-5.8,0c-1.6,0.2-2.7,0.2-2.7,0.2v-1.6
		c0,0,3.6-0.1,3.6-5.1c0-5,0-14.1,0-14.1s0-3.2-3.7-3.2v-1.6h13.2v1.7c0,0-4-0.2-4,3.3c0,3.5,0,17.6,0,17.6s0.1,1.5,2.5,1.5
		s6.8,0.3,10.5-7.4l1.4,0.4l-2.2,8.6C134.9,112.5,128.8,113.1,122.2,112.3L122.2,112.3z"/>
	<path fill-rule="evenodd" clip-rule="evenodd" d="M146,112.3c-1.6-0.2-4.5-0.1-5.8,0c-1.6,0.2-2.7,0.2-2.7,0.2v-1.6
		c0,0,3.6-0.1,3.6-5.1c0-5,0-14.1,0-14.1s0-3.2-3.7-3.2v-1.6h13.2v1.7c0,0-4-0.2-4,3.3c0,3.5,0,17.6,0,17.6s0.1,1.5,2.5,1.5
		c2.3,0,6.8,0.3,10.5-7.4l1.4,0.4l-2.2,8.6C158.7,112.5,152.6,113.1,146,112.3L146,112.3z"/>
	<path fill-rule="evenodd" clip-rule="evenodd" d="M164.5,112.5v-1.6c0,0,3.6-0.3,3.6-2.9c0-2.6,0-6.1,0-6.1l-7.5-11.4
		c0,0-1.5-2.2-3.6-2.2v-1.5c0,0,2.5-0.1,4.1,0.3c1.6,0.4,2.7,0.5,4.5,0.1c1.8-0.4,4.1-0.4,4.1-0.4v1.3c0,0-3.9,0-2.2,3
		s4.5,7.5,4.5,7.5l4.9-7.2c0,0,1.8-2.4-1.9-3.2v-1.4c0,0,1.9-0.1,3.1,0.2c1.1,0.4,1.9,0.4,3.2,0.1c1.3-0.3,2.9-0.3,2.9-0.3v1.8
		c0,0-2.5-0.8-5.4,3.5c-2.9,4.2-5.4,7.7-5.4,7.7v8.3c0,0-0.1,2.7,3.2,2.7v1.6c0,0-2.4,0-4-0.3c-1.7-0.4-2.1-0.5-4,0
		C167.5,112.5,164.5,112.5,164.5,112.5L164.5,112.5z"/>
	<path fill-rule="evenodd" clip-rule="evenodd" fill="#FFFFFF" d="M95.4,22.5c0-0.4,0.3-0.7,0.7-0.7c0.4,0,0.7,0.3,0.7,0.7
		s-0.3,0.7-0.7,0.7C95.7,23.2,95.4,22.9,95.4,22.5L95.4,22.5z"/>
	<path fill-rule="evenodd" clip-rule="evenodd" fill="#FFFFFF" d="M96.4,34.7c1.9,0,3.6,0.2,5.2,0.5l-1.3-3.3H92l-1.3,3.4
		C92.4,34.9,94.3,34.7,96.4,34.7L96.4,34.7z"/>
	<path fill-rule="evenodd" clip-rule="evenodd" fill="#FFFFFF" d="M96.4,27.5c-0.9,0-1.8,0-2.6-0.1l-1.1,3h7.1l-1.1-3
		C97.9,27.4,97.1,27.5,96.4,27.5L96.4,27.5z"/>
	<path fill-rule="evenodd" clip-rule="evenodd" fill="#FFFFFF" d="M96.4,26c0.6,0,1.1,0,1.6-0.1l-0.5-1.4c-0.4,0.2-0.9,0.4-1.4,0.4
		c-0.5,0-0.9-0.1-1.3-0.4l-0.5,1.3C95,25.9,95.7,26,96.4,26L96.4,26z"/>
	<path fill-rule="evenodd" clip-rule="evenodd" fill="#FFFFFF" d="M96.1,40.8c-2.8,0-5.2,1.7-6.1,4c1.9,0.5,4,0.8,6.1,0.8
		s4.2-0.3,6.1-0.8C101.3,42.5,98.9,40.8,96.1,40.8L96.1,40.8z"/>
	<path fill-rule="evenodd" clip-rule="evenodd" fill="#FFFFFF" d="M104,17.1c2.6,0.9,5,2.3,6.8,4.1c-1.5,1.3-4.9,3.6-10.3,4.5
		c-0.6-1.5-1-2.7-1.3-3.4C101.5,21.3,103.3,19.4,104,17.1L104,17.1z"/>
	<path fill-rule="evenodd" clip-rule="evenodd" fill="#FFFFFF" d="M101,27.1c5.6-0.9,9.1-3.3,10.8-4.8c2,2.3,3.2,5.1,3.3,8h-12.9
		C101.9,29.2,101.4,28.1,101,27.1L101,27.1z"/>
	<path fill-rule="evenodd" clip-rule="evenodd" fill="#FFFFFF" d="M89.8,16.6c2-0.6,4.1-0.9,6.4-0.9s4.4,0.3,6.4,0.9
		c-0.5,2-2,3.5-3.9,4.3c-0.3-0.4-0.8-0.9-1.6-1.1v-2.3c0-0.4-0.4-0.7-0.8-0.7c-0.4,0-0.8,0.3-0.8,0.7v2.3c-0.8,0.2-1.3,0.7-1.6,1.1
		C91.8,20.2,90.3,18.6,89.8,16.6L89.8,16.6z"/>
	<path fill-rule="evenodd" clip-rule="evenodd" fill="#FFFFFF" d="M91.8,25.6c-5.2-0.9-8.6-3.2-10.3-4.5c1.8-1.7,4.1-3.1,6.7-4
		c0.7,2.3,2.5,4.3,4.8,5.2C92.8,22.9,92.4,24.1,91.8,25.6L91.8,25.6z"/>
	<path fill-rule="evenodd" clip-rule="evenodd" fill="#FFFFFF" d="M102.8,31.8h12.2c-0.3,2.9-1.6,5.5-3.6,7.7
		c-1.4-1.1-3.7-2.7-7.1-3.7C104,34.9,103.5,33.5,102.8,31.8L102.8,31.8z"/>
	<path fill-rule="evenodd" clip-rule="evenodd" fill="#FFFFFF" d="M104.9,37.6c2.5,0.9,4.3,2.1,5.4,3c-1.8,1.6-4,2.9-6.6,3.8
		c-1.1-2.9-4.1-5.1-7.6-5.1s-6.5,2.1-7.6,5.1c-2.5-0.9-4.7-2.1-6.5-3.7c1.1-0.9,2.9-2,5.4-2.9c-0.1,1.3,0.5,1.7,0.5,1.7
		c-0.7,1.8,0.5,1.9,0.5,1.9l1.7-4.4c1.8-0.5,3.9-0.8,6.3-0.8c2.2,0,4.1,0.3,5.8,0.6l1.7,4.5c0,0,1.2-0.1,0.5-1.9
		C104.4,39.4,105.1,39,104.9,37.6L104.9,37.6z"/>
	<path fill-rule="evenodd" clip-rule="evenodd" fill="#FFFFFF" d="M90,30.3H77.1c0.1-3,1.3-5.8,3.4-8.1c1.7,1.4,5.3,3.8,10.8,4.8
		C90.9,28.1,90.4,29.2,90,30.3L90,30.3z"/>
	<path fill-rule="evenodd" clip-rule="evenodd" fill="#FFFFFF" d="M87.9,36c-3.3,1.1-5.6,2.6-7,3.6c-2.1-2.2-3.4-4.9-3.7-7.8h12.3
		C88.8,33.5,88.2,35.1,87.9,36L87.9,36z"/>
	<path fill-rule="evenodd" clip-rule="evenodd" fill="#FFFFFF" d="M52.7,66h-1.9v-9.8c0,0,0.9,0,2.6,0s4,0.5,4,4.9
		C57.4,66.4,52.7,66,52.7,66L52.7,66z"/>
	<path fill-rule="evenodd" clip-rule="evenodd" fill="#FFFFFF" d="M75.9,68.7l2.7-7.4c0,0,1.4,3.7,2.8,7.4H75.9L75.9,68.7z"/>
	<path fill-rule="evenodd" clip-rule="evenodd" fill="#FFFFFF" d="M95,101.3l2.7-7.4c0,0,1.4,3.7,2.8,7.4H95L95,101.3z"/>
	<path fill-rule="evenodd" clip-rule="evenodd" fill="#FFFFFF" d="M136.1,78.3c-3.9,0-3.6-2.6-3.6-2.6V56.3c0.9-0.1,1.9-0.1,3-0.1
		c4.6,0,8.9,3.3,8.9,12C144.3,76.8,139.9,78.3,136.1,78.3L136.1,78.3z"/>
</g>
</svg>
