<svg id="logo-sauter" xmlns="http://www.w3.org/2000/svg" width="136.477" height="20.424" viewBox="0 0 136.477 20.424">
  <path id="Path_723" data-name="Path 723" d="M97.812,20.216V16.565H96.4V5.83h2.175V7.223h3.335V1.91H86.03V7.223H89.4V5.83h2.17V16.565H90.159v3.651Zm19.863,0V14.864h-3.339v1.43h-3.792V12.75h3.337V9.279h-3.337V5.83h3.692V7.223h3.313V1.91H104.37V5.855h1.423v10.71H104.37v3.651h13.3ZM135.1,13.572v2.281a.858.858,0,0,0,.946.9h.432v3.466h-4.133a2.113,2.113,0,0,1-1.963-2.062V14.3c0-1.01-.605-1.265-1.816-1.265h-1.812v3.53h1.368v3.651h-7.579V16.565h1.411V5.856h-1.411V1.91h8.543c2.772.11,4.38.865,5.242,1.832a4.443,4.443,0,0,1,.6,4.783,4.684,4.684,0,0,1-2.87,2.356c1.955.2,2.961,1.146,3.038,2.691m-6.313-4.293c2.121,0,2.188-3.449,0-3.449h-2.032V9.279ZM68.522,16.293c0,5.995,13.938,6.074,13.938,0V5.856h1.454V1.91h-7.27V5.83h1.438v9.056c-.028,2.527-4.725,2.444-4.725,0V5.83H74.8V1.91H67.071V5.856h1.456ZM54.394,11.837l1.824-6.483,1.836,6.483Zm9.961,4.728L60.157,1.91H52.949L48.743,16.565H47.319v3.651h7.163V16.565H53.057l.453-1.678h5.425l.539,1.678h-1.5v3.651h7.871V16.565ZM41.332,6.838H44.75V1.91H41.392V3.236a6.924,6.924,0,0,0-4.824-1.807c-2.64,0-4.908,1.393-5.63,3.334a5.4,5.4,0,0,0,2.738,6.881c1.6.746,3.067,1.251,3.845,1.646,1.5.612,2.861,1.355,2.557,2.628-.331,1.4-1.83,1.53-3.164,1.41-2.163-.2-3.434-1.334-3.4-2.821H30.122v5.706h3.371v-1.48c.938,1.168,3.135,2.034,5.664,2.04,2.666.01,5.2-1.209,5.806-3.684.626-2.565-.1-5.295-3.551-6.81-1.213-.574-3.748-1.719-4.551-2.1-1.2-.552-1.515-1.2-1.383-1.846.2-1,1.363-1.522,2.725-1.5,1.815.031,3.132.842,3.125,2.023ZM15.81,18.175A14.337,14.337,0,0,1,1.788.871,13.255,13.255,0,0,0,23.493,15.938a14.252,14.252,0,0,1-7.683,2.237" transform="translate(0 -0.396)" fill="#0d88d3"/>
  <path id="Path_724" data-name="Path 724" d="M21.558,14.413a14.258,14.258,0,0,1-13.29-9.1c0,.024,0,.049,0,.073A11.826,11.826,0,0,0,20.092,17.213a12.475,12.475,0,0,0,10.417-5.97,15.169,15.169,0,0,1-8.951,3.169" transform="translate(-3.754 -2.413)" fill="#80cdf2"/>
  <path id="Path_725" data-name="Path 725" d="M23.487,6.114A14.285,14.285,0,0,1,13.54,2.1a11.458,11.458,0,0,0,10.5,6.874A11.461,11.461,0,0,0,35.228,0a14.315,14.315,0,0,1-11.74,6.114" transform="translate(-6.149)" fill="#fee011"/>
</svg>
