<?xml version="1.0" encoding="utf-8"?>
<!-- Generator: Adobe Illustrator 23.0.3, SVG Export Plug-In . SVG Version: 6.00 Build 0)  -->
<svg version="1.1" id="Layer_1" xmlns="http://www.w3.org/2000/svg" xmlns:xlink="http://www.w3.org/1999/xlink" x="0px" y="0px"
	 width="221.1px" height="180.5px" viewBox="0 0 221.1 180.5" enable-background="new 0 0 221.1 180.5" xml:space="preserve">
<g>
	<path fill-rule="evenodd" clip-rule="evenodd" fill="#006CB6" d="M0.6,114.9H14v16l12.6-16.5h9.7l-21,27.3l0,3.5l22.4,25.3
		l-9.2,0.5L14,156.1V171H0.6V114.9L0.6,114.9z M125.4,111.2h14.6v14h-14.6V111.2L125.4,111.2z M125.4,127.9h14.6v42.5h-14.6V127.9
		L125.4,127.9z M202.3,124.7L202.3,124.7h6.6c6.2,0,11.3,5.1,11.3,11.3v34.2c0,0,0,0.1,0,0.1h-13.5h-0.6h-10.6
		c-6,0-10.9-4.7-11.2-10.6h0c0,0,0-0.1,0-0.1v-5.6c0-6.2,5.1-11.3,11.3-11.3h10.8l0.1-7.6l-4,0.1v0L198,135l0,2.5h0.1l0,1.9h-14
		v-1.9v-1.6c0-6.2,5.1-11.3,11.3-11.3H202.3L202.3,124.7z M198,159.7l0,0.3l8.1-0.1l0-6.8L198,153l0.3,6.7H198L198,159.7z
		 M150.7,124.9h21.2c4.9,0,8.9,3.8,8.9,8.4v6.9h-13.6v-4.5h-11.9v23.6h11.9v-7.7h13.6V162c0,4.6-4,8.4-8.9,8.4h-21.2
		c-4.9,0-8.9-3.8-8.9-8.4v-28.7C141.8,128.7,145.8,124.9,150.7,124.9L150.7,124.9z M87,124.7h24.7c6.2,0,11.3,5.1,11.3,11.3v34.2
		c0,0,0,0.1,0,0.1h-14.1l0.3-35.3l-9.1,0.2v35.1H87V124.7L87,124.7z M53,124.9h21.2c4.9,0,8.9,3.8,8.9,8.4V162c0,4.6-4,8.4-8.9,8.4
		H53c-4.9,0-8.9-3.8-8.9-8.4v-28.7C44.1,128.7,48.1,124.9,53,124.9L53,124.9z M57.5,135.7h11.9v23.6H57.5V135.7L57.5,135.7z
		 M38.6,114.5h8.1l-20.6,28.6l22,26.9l-8.3-0.1l-22.5-26.1l-0.3-1.8L38.6,114.5L38.6,114.5z"/>
	<polygon fill="#EC1C24" points="1.3,178.4 221.1,178.4 221.1,180.5 1.3,180.5 1.3,178.4 	"/>
	<path fill-rule="evenodd" clip-rule="evenodd" fill="#B01117" d="M214.4,73c0.2,0.4,0.3,0.8,0.5,1.1c3.5,10,5.7,20.7,6.2,31.7
		H115.5L214.4,73L214.4,73z"/>
	<path fill-rule="evenodd" clip-rule="evenodd" fill="#D71921" d="M214.1,71.9c0.1,0.3,0.2,0.6,0.3,0.9l-98.2,33h-2.8L198,43.2
		C204.6,51.7,210.2,61.6,214.1,71.9L214.1,71.9z"/>
	<path fill-rule="evenodd" clip-rule="evenodd" fill="#EC1C24" d="M173.3,19.9c0.1,0,0.5,0.2,0.6,0.3c9.1,6.4,17.2,14.2,24.1,23
		l-84.5,62.8h-1.2L173.3,19.9L173.3,19.9z"/>
	<path fill-rule="evenodd" clip-rule="evenodd" fill="#F27052" d="M168.3,16.5c1.6,1.1,3.3,2.2,5,3.4l-61,86h-0.6L143.9,5.2
		C152.6,8,160.7,11.8,168.3,16.5L168.3,16.5z"/>
	<path fill-rule="evenodd" clip-rule="evenodd" fill="#F59579" d="M143.9,5.2l-32.1,100.7h-0.5L110.3,0C122,0,133.3,1.8,143.9,5.2
		L143.9,5.2z"/>
	<path fill-rule="evenodd" clip-rule="evenodd" fill="#FFF100" d="M110.3,0l1,105.9h-0.5L78,4.8C88.2,1.7,99,0,110.2,0
		C110.3,0,110.3,0,110.3,0L110.3,0z"/>
	<path fill-rule="evenodd" clip-rule="evenodd" fill="#00A551" d="M77.6,4.9l33.3,101h-0.7L48.7,18.7C57.5,12.8,67.3,8.1,77.6,4.9
		L77.6,4.9z"/>
	<path fill-rule="evenodd" clip-rule="evenodd" fill="#00ADEE" d="M48.7,18.7l61.5,87.2h-1.4L24,41.3C30.8,32.9,39.8,24.8,48.7,18.7
		L48.7,18.7z"/>
	<path fill-rule="evenodd" clip-rule="evenodd" fill="#8680BC" d="M24.1,41.2l84.7,64.7h-3l-99-35C11,60.1,16.8,50.1,24.1,41.2
		L24.1,41.2z"/>
	<path fill-rule="evenodd" clip-rule="evenodd" fill="#2E3191" d="M0,105.9c0.4-3.9,0.5-8.2,0.7-12.5C1.9,85.6,4,78.1,6.8,70.9
		l99,35H0L0,105.9z"/>
</g>
</svg>
