<?xml version="1.0" encoding="utf-8"?>
<!-- Generator: Adobe Illustrator 19.2.1, SVG Export Plug-In . SVG Version: 6.00 Build 0)  -->
<svg version="1.1" id="layer" xmlns="http://www.w3.org/2000/svg" xmlns:xlink="http://www.w3.org/1999/xlink" x="0px" y="0px"
	 viewBox="0 0 652 652" style="enable-background:new 0 0 652 652;" xml:space="preserve">
<g>
	<polygon points="76.5,330.9 57.7,288.7 20.1,288.7 20.1,354.3 40.7,354.3 40.7,305.1 43.9,305.1 68.6,354.3 85.4,354.3 
		110.1,305.1 113.4,305.1 113.4,354.3 132.9,354.3 132.9,288.7 96.3,288.7 	"/>
	<rect x="143.7" y="324.1" width="35.4" height="13.5"/>
	<path d="M217,288.7l-35.2,65.7h23.6l6.2-11.6h42.9l6.5,11.6h23.6l-35.9-65.7C248.6,288.7,217,288.7,217,288.7z M217.3,328.6
		l13.2-24.6h3.5l12.3,24.6H217.3z"/>
	<path d="M353.7,326.6c0,8.4-3.1,11.6-11.8,11.6h-21c-8.6,0-11.8-3.3-11.8-11.6v-37.9H288V331c0,16.4,8.8,24.1,28.3,24.1h30.3
		c19.4,0,28.3-7.8,28.3-24.1v-42.3h-21.2L353.7,326.6L353.7,326.6z"/>
	<path d="M446.6,288.7h-60.7v65.7h60.7c21.2,0,27.5-6.6,27.5-22.9v-20C474.2,295.3,467.8,288.7,446.6,288.7z M454,325.6
		c0,9.4-3.5,11.8-12.6,11.8h-35.5v-32.5h35.5c9,0,12.6,2.5,12.6,11.8V325.6z"/>
	<rect x="486.2" y="288.7" width="21.2" height="65.7"/>
	<path d="M580.4,287.9h-33.9c-19,0-28.3,4.5-28.3,23.7v19.6c0,19.2,9.3,23.7,28.3,23.7h33.9c19,0,28.3-4.5,28.3-23.7v-19.6
		C608.8,292.4,599.5,287.9,580.4,287.9z M588.1,325c0,9.6-1.1,13.2-11,13.2h-27c-10,0-11-3.6-11-13.2v-7.1c0-8.2,1.1-13.2,12.2-13.2
		h24.7c11.1,0,12.2,5,12.2,13.2L588.1,325L588.1,325z"/>
	<path d="M617.3,291.6c0-1.2-1-1.5-2.1-1.5h-2.6v5.6h0.8v-2.5h1.1l1.7,2.5h0.9l-1.7-2.5C616.5,293.2,617.3,292.7,617.3,291.6z
		 M615,292.6h-1.6v-1.8h1.6c0.6,0,1.5,0.1,1.5,0.8C616.5,292.2,616.2,292.6,615,292.6z"/>
	<path d="M614.9,287.9c-2.9,0-5.2,2.2-5.2,5s2.3,5,5.2,5c2.9,0,5.2-2.2,5.2-5S617.8,287.9,614.9,287.9z M614.9,297.1
		c-2.5,0-4.4-1.8-4.4-4.2c0-2.3,1.9-4.1,4.4-4.1c2.4,0,4.4,1.8,4.4,4.1S617.3,297.1,614.9,297.1z"/>
</g>
</svg>
