<svg xmlns="http://www.w3.org/2000/svg" width="84.839" height="32.113" viewBox="0 0 84.839 32.113">
  <g id="logo-aeg" transform="translate(-5 -4.742)">
    <path id="A" d="M13.691,4.742l1.927,4.925L5,36.416H9.212l3.012-7.59H23.116l2.971,7.59h8.567L22.258,4.742H13.691ZM13.67,25.185,17.709,15.01l3.982,10.175Z" fill="#cf1430"/>
    <path id="E" d="M54.365,18.553v-10H66.926L68.44,4.742h-22.1V36.416H67.253L68.767,32.6h-14.4V22.254H64.38l1.47-3.7Z" transform="translate(-8.033 0)" fill="#cf1430"/>
    <path id="G" d="M91,22.254h5.286V32.972a8.075,8.075,0,0,1-2.124.275c-7.126,0-9.212-6.605-9.212-12.448,0-5.606,1.789-12.243,8.678-12.243h7.342l1.513-3.813H92.764c-9.435,0-16.1,6.52-16.1,16.057,0,9.419,6.4,16.057,16.315,16.057a30.324,30.324,0,0,0,10.781-1.862V18.553h-11.3L91,22.254Z" transform="translate(-13.926 0)" fill="#cf1430"/>
  </g>
</svg>
