<svg xmlns="http://www.w3.org/2000/svg" width="136.317" height="24" viewBox="0 0 136.317 24">
  <path id="logo-sony" d="M49.564,25c-4.938,0-9.522-1.481-12.582-4.227a10.321,10.321,0,0,1-3.422-7.794,10.475,10.475,0,0,1,3.422-7.767C39.824,2.622,44.84,1,49.564,1c5.227,0,9.411,1.317,12.609,4.219a10.364,10.364,0,0,1,3.376,7.76,10.807,10.807,0,0,1-3.376,7.794C59.195,23.537,54.515,25,49.564,25V21.834a9.487,9.487,0,0,0,6.75-2.594,8.393,8.393,0,0,0,2.472-6.261A8.713,8.713,0,0,0,56.314,6.7,10.139,10.139,0,0,0,42.8,6.7a8.753,8.753,0,0,0-2.465,6.274A8.772,8.772,0,0,0,42.8,19.24a9.6,9.6,0,0,0,6.761,2.594V25ZM13.472,1.011A20.708,20.708,0,0,0,5.279,2.644C2.926,3.694,1,5.393,1,8.208a5.777,5.777,0,0,0,1.567,3.979A8.731,8.731,0,0,0,7.24,14.524c1.289.282,4.046.715,6.791,1,2.725.287,5.406.561,6.5.837.868.221,2.325.522,2.325,2.157a2.443,2.443,0,0,1-1.8,2.234,13.547,13.547,0,0,1-5.42.951,22.989,22.989,0,0,1-6.456-1.118,7.788,7.788,0,0,1-3.739-2.5,4.294,4.294,0,0,1-.775-2.369h-3v8.4H5V22.982a.476.476,0,0,1,.721-.408,26.285,26.285,0,0,0,4.874,1.575,20.823,20.823,0,0,0,5.057.629,21.691,21.691,0,0,0,6.779-.955,11.858,11.858,0,0,0,4.026-1.989,5.515,5.515,0,0,0,2.157-4.419,6.184,6.184,0,0,0-1.743-4.347A7.61,7.61,0,0,0,24.708,11.6a15.857,15.857,0,0,0-2.651-.926c-1.717-.422-5.6-.942-7.456-1.136a51.6,51.6,0,0,1-6.674-.9A1.608,1.608,0,0,1,6.685,7.147,2.053,2.053,0,0,1,7.82,5.4a13.066,13.066,0,0,1,6.131-1.215,17.764,17.764,0,0,1,7.1,1.387,7.805,7.805,0,0,1,1.691,1.007A5.084,5.084,0,0,1,24.41,9.37H27.1V2.059h-3v.85c0,.274-.283.631-.819.336a22.821,22.821,0,0,0-9.807-2.234M79.313,2.34,93.969,15.566l-.151-8.905c-.015-1.168-.23-1.655-1.493-1.655H89.57V2.342H102.1V5.006H99.413c-1.288,0-1.369.412-1.385,1.655l.227,17.016H93.964L77.083,8.611l0,10.692c.015,1.162.069,1.71,1.267,1.71h3.01v2.663H69.056V21.013h2.877c1.075,0,1.032-1.025,1.032-1.77V6.763c0-.806-.113-1.755-1.8-1.755H68.83V2.34Zm37.108,18.668a5.779,5.779,0,0,0,.742-.046.919.919,0,0,0,.576-.512,2.97,2.97,0,0,0,.057-.577l0-4.21c0-.1-.007-.145-.179-.371-.189-.246-7.677-8.732-8.019-9.106a3.141,3.141,0,0,0-2.308-1.181h-2.6V2.341h14.7V5h-1.772c-.41,0-.682.389-.332.821,0,0,4.944,5.914,4.991,5.976s.085.078.148.021,5.068-5.943,5.108-5.989a.513.513,0,0,0-.437-.825h-1.817V2.341h12.044V5.006h-2.691a2.291,2.291,0,0,0-2.108,1.011c-.336.38-7.9,9.018-8.109,9.252a.568.568,0,0,0-.1.394v4.209a2.963,2.963,0,0,0,.057.575.917.917,0,0,0,.578.512,5.617,5.617,0,0,0,.734.047h2.752v2.664h-14.62V21.006l2.609,0Z" transform="translate(-1 -1)"/>
</svg>
