<?xml version="1.0" encoding="utf-8"?>
<!-- Generator: Adobe Illustrator 23.0.3, SVG Export Plug-In . SVG Version: 6.00 Build 0)  -->
<svg version="1.1" id="svg2" xmlns:svg="http://www.w3.org/2000/svg"
	 xmlns="http://www.w3.org/2000/svg" xmlns:xlink="http://www.w3.org/1999/xlink" x="0px" y="0px" width="1323.8px" height="250px"
	 viewBox="0 0 1323.8 250" enable-background="new 0 0 1323.8 250" xml:space="preserve">
<g id="g12" transform="matrix(1.25,0,0,-1.25,-492.10622,337.84124)">
	<path id="path320" fill="#100F0D" d="M1376,175.5h38.6l9.2,44.4h-38.6l10.2,49.2h-56.6l-29.4-142.3c-1.7-8-2.4-14.7-2.2-20.3
		c0.3-6.9,2.9-13.2,7.9-18.8c4.5-5,9.4-8.6,14.6-10.6c5-1.9,11-2.9,18.5-2.9h44l8.9,42.6h-22.5c-5.5,0-9.7,1-11.8,2.8
		c-0.7,0.6-1.9,1.6-1.1,5.4L1376,175.5L1376,175.5z"/>
	<path id="path322" fill="#100F0D" d="M434.1,270.3l-9.8-47.1h61.3l9.7,47.1H434.1z"/>
	<path id="path324" fill="#100F0D" d="M620.6,144.1l37.8-68.7H729l-43.7,76.8c8.6,4.8,16.1,10.7,20,14c7.9,6.8,18.2,22.7,21.1,36.6
		c3.9,18.6,0.5,34.6-10.1,47.7c-11.8,14.5-34.4,19.7-50.2,19.7H521.8l-9.7-47.1h62.4h7.1l51.6,0.1c9.9,0,17.3-1.7,21.8-5
		c2.4-1.8,4.5-4.3,3.3-10.1c-1.1-5.3-5.2-9.6-12.4-13.3c-7-3.5-14.1-5.2-21.7-5.2h-56.4l4.5,19.1H509L480.8,75.4h10.7h45.3h7.1
		l14.2,68.7L620.6,144.1L620.6,144.1z"/>
	<path id="path326" fill="#100F0D" d="M421.8,208.8L393.7,75.4h61.6l27.8,133.3H421.8z"/>
	<path id="path328" fill="#100F0D" d="M845.3,150.6c-2.5-11.8-7.3-21.1-14.4-27.6c-7-6.3-15.9-9.4-27.5-9.4
		c-9.6,0-16.5,2.8-21.1,8.5c-4.6,5.8-5.9,13.5-3.7,23.7c1.9,9.2,6.5,16.5,14.1,22.4c7.7,6.1,16.3,9,26.3,9c10.3,0,17.6-2.5,22.2-7.7
		C845.6,164.5,846.9,158.5,845.3,150.6 M893.5,202.5c-14.7,12.7-36.2,19.2-64,19.2c-24.6,0-47-5.8-66.7-17.2
		c-22.8-13-36.7-31-41.4-53.7c-5.8-27.7,0.5-49,18.4-63.3c14.6-11.5,36.2-17.3,64.4-17.3c25.8,0,48.1,5.6,66.3,16.7
		c20.3,12.4,33,30,37.6,52.4l1.6,7.5C914.6,170.3,909.2,189,893.5,202.5"/>
	<path id="path330" fill="#100F0D" d="M1242.8,150.6c-2.5-12-7.2-21-14.4-27.6c-7-6.3-15.9-9.4-27.5-9.4c-9.6,0-16.5,2.8-21.1,8.5
		c-4.6,5.8-5.9,13.5-3.7,23.7c1.9,9.2,6.5,16.5,14.1,22.4c7.8,6.1,16.3,9,26.3,9c10.3,0,17.6-2.5,22.2-7.7
		C1243.1,164.5,1244.4,158.5,1242.8,150.6 M1287.1,202.5c-14.7,12.7-36.2,19.2-64,19.2c-24.6,0-47-5.8-66.7-17.2
		c-22.7-13-36.7-31-41.3-53.7c-5.8-27.7,0.5-49,18.4-63.3c14.6-11.5,36.2-17.3,64.4-17.3c25.8,0,48.1,5.6,66.3,16.7
		c20.3,12.4,33,30,37.6,52.4l1.5,7.5C1308.3,170.3,1302.8,189,1287.1,202.5"/>
	<path id="path332" fill="#100F0D" d="M1044.6,150.6c-2.4-11.9-7.3-21.1-14.4-27.6c-6.9-6.3-15.9-9.4-27.5-9.4
		c-9.6,0-16.5,2.8-21.1,8.5c-1.1,1.3-1.1,3.2-1.1,7.7c0.1,7.2,4.3,25.6,6.3,30.4c1.7,4.1,2.7,6.1,5.1,8.1c7.7,6.1,16.3,9,26.3,9
		c10.4,0,17.7-2.5,22.2-7.7C1044.9,164.5,1046.2,158.5,1044.6,150.6 M1088.8,202.6c-15.2,12.6-36.7,19.1-63.8,19.1
		c-10.4,0-21-1.3-30.6-3.4l12.3,51.9h-60.1l-22.3-100.2c-0.7-3.4-7.1-33.7-6.9-45.9c0.2-14.3,6.8-27.6,18.1-36.6
		c14.6-11.5,36.2-17.3,64.4-17.3c25.8,0,48.1,5.6,66.3,16.7c20.3,12.4,33,30,37.6,52.4l0-0.3C1104,140.9,1113.6,182.1,1088.8,202.6"
		/>
	<path id="path334" fill="#100F0D" d="M1432.3,254.1h4.9c1.3,0,2.2,0.3,2.8,1c0.6,0.6,0.9,1.4,0.9,2.3c0,1-0.3,1.7-1,2.2
		c-0.7,0.5-1.5,0.7-2.5,0.7h-5.2L1432.3,254.1L1432.3,254.1z M1444.2,243.8h-3.1l-3.6,8.1h-5.2v-8.1h-2.8v18.8h8
		c2.1,0,3.8-0.5,4.8-1.6s1.6-2.3,1.6-3.7c0-1-0.3-1.9-0.9-2.9c-0.6-0.9-1.5-1.6-2.7-2L1444.2,243.8L1444.2,243.8z M1450.4,253.2
		c0,3.8-1.4,7.1-4.1,9.8c-2.7,2.7-6,4.1-9.8,4.1s-7.1-1.4-9.8-4.1c-2.7-2.7-4.1-6-4.1-9.8c0-3.8,1.3-7.1,4.1-9.8
		c2.7-2.7,6-4.1,9.8-4.1c3.8,0,7.1,1.4,9.8,4.1C1449.1,246.2,1450.4,249.4,1450.4,253.2 M1452.7,253.2c0-4.4-1.6-8.2-4.7-11.4
		c-3.2-3.2-7-4.7-11.4-4.7c-4.4,0-8.2,1.6-11.4,4.7c-3.2,3.2-4.7,7-4.7,11.4c0,4.4,1.6,8.2,4.7,11.4c3.2,3.2,7,4.8,11.4,4.8
		c4.4,0,8.2-1.6,11.4-4.8C1451.1,261.5,1452.7,257.7,1452.7,253.2"/>
</g>
</svg>
