<?xml version="1.0" encoding="utf-8"?>
<!-- Generator: Adobe Illustrator 23.0.3, SVG Export Plug-In . SVG Version: 6.00 Build 0)  -->
<svg version="1.1" id="Layer_1" xmlns="http://www.w3.org/2000/svg" xmlns:xlink="http://www.w3.org/1999/xlink" x="0px" y="0px"
	 width="575px" height="205px" viewBox="0 0 575 205" enable-background="new 0 0 575 205" xml:space="preserve">
<g>
	<g>
		<g>
			<path d="M0,2.8c5.6-1,13-1.9,22.3-1.9c11.5,0,19.9,3,25.2,8.3c4.9,4.7,7.9,12,7.9,20.8c0,9-2.4,16.1-6.9,21.3
				C42.3,58.5,32.3,62.2,21,62.2c-3.5,0-6.7-0.1-9.3-0.9v39.9H0V2.8z M11.6,50.8c2.5,0.7,5.7,1,9.6,1c14,0,22.6-7.5,22.6-21.3
				c0-13.1-8.4-19.5-21.2-19.5c-5.1,0-8.9,0.4-11,1L11.6,50.8L11.6,50.8z"/>
			<path d="M77.3,3c5.9-1.3,14.3-2.1,22.3-2.1c12.4,0,20.4,2.5,26,8.1c4.5,4.4,7.1,11.2,7.1,18.9c0,13.1-7.5,21.9-17,25.4v0.4
				c6.9,2.7,11.1,9.7,13.2,20.1c2.9,13.9,5.1,23.5,6.9,27.3h-12c-1.5-2.8-3.5-11.4-6-23.8c-2.7-13.7-7.5-18.9-18-19.3h-11v43.1H77.3
				L77.3,3L77.3,3z M88.9,48.3h11.9c12.4,0,20.3-7.5,20.3-18.9c0-12.8-8.4-18.5-20.7-18.6c-5.6,0-9.6,0.6-11.5,1.2
				C88.9,12,88.9,48.3,88.9,48.3z"/>
			<path d="M233.8,50.3c0,34.3-18.8,52.4-41.8,52.4c-23.8,0-40.5-20.4-40.5-50.5c0-31.6,17.8-52.3,41.8-52.3
				C217.9,0,233.8,20.8,233.8,50.3z M163.9,52c0,21.3,10.4,40.3,28.7,40.3c18.4,0,28.8-18.8,28.8-41.3c0-19.8-9.4-40.5-28.7-40.5
				C173.5,10.5,163.9,30.1,163.9,52z"/>
			<path d="M255.5,85.5c5.2,3.5,12.8,6.5,20.8,6.5c11.9,0,18.8-6.9,18.8-17c0-9.3-4.8-14.6-17-19.8C263.6,49.5,254.5,41,254.5,27
				c0-15.5,11.6-27,29.1-27c9.2,0,15.9,2.4,19.9,4.9l-3.2,10.5c-2.9-1.8-8.9-4.7-17.1-4.7c-12.3,0-17,8.1-17,14.9
				c0,9.3,5.5,13.9,17.9,19.2c15.2,6.5,23,14.6,23,29.2c0,15.4-10.3,28.6-31.5,28.6c-8.7,0-18.2-2.8-23-6.3L255.5,85.5z"/>
			<path d="M393.2,97.9c-4.3,2.4-12.8,4.7-23.8,4.7c-25.4,0-44.5-17.7-44.5-50.3c0-31.2,19.1-52.3,47-52.3c11.2,0,18.3,2.7,21.4,4.4
				l-2.8,10.5c-4.4-2.4-10.7-4.1-18.2-4.1c-21.1,0-35.1,14.9-35.1,41c0,24.4,12.7,40,34.6,40c7.1,0,14.3-1.6,19-4.1L393.2,97.9z"/>
			<path d="M431.1,69.8l-9.4,31.3h-12l30.6-99.5h14l30.7,99.5h-12.4L463,69.8H431.1z M460.6,59.8l-8.8-28.6
				c-2-6.5-3.3-12.4-4.7-18.2h-0.3c-1.3,5.9-2.8,12-4.5,18l-8.8,28.8L460.6,59.8L460.6,59.8z"/>
			<path d="M505.5,101.1V1.6h12.7L547.1,52c6.7,11.7,11.9,22.1,16.2,32.3l0.3-0.1c-1.1-13.3-1.3-25.4-1.3-40.9V1.6h11v99.5h-11.8
				l-28.6-50.5c-6.3-11.1-12.3-22.4-16.8-33.2l-0.4,0.1c0.7,12.6,0.9,24.5,0.9,41v42.5L505.5,101.1L505.5,101.1z"/>
		</g>
	</g>
	<g>
		<g>
			<path d="M197,135.5c0.1,6.6,4.1,9.4,8.6,9.4c3.3,0,5.3-0.6,7-1.4l0.8,3.5c-1.6,0.8-4.4,1.7-8.4,1.7c-7.7,0-12.4-5.5-12.4-13.6
				c0-8.2,4.5-14.6,11.8-14.6c8.2,0,10.4,7.8,10.4,12.7c0,1-0.1,1.8-0.2,2.3L197,135.5L197,135.5z M210.4,132c0.1-3.1-1.2-8-6.3-8
				c-4.6,0-6.7,4.6-7,8H210.4z"/>
			<path d="M222.5,128.4c0-2.8-0.1-5.1-0.2-7.3h4.1l0.3,4.5h0.1c1.2-2.6,4.2-5.1,8.3-5.1c3.5,0,8.9,2.2,8.9,11.5v16.1h-4.6v-15.6
				c0-4.4-1.5-8-5.8-8c-3,0-5.4,2.3-6.1,5c-0.2,0.6-0.3,1.5-0.3,2.3v16.3h-4.6L222.5,128.4L222.5,128.4z"/>
			<path d="M255.9,135.5c0.1,6.6,4.1,9.4,8.6,9.4c3.3,0,5.2-0.6,7-1.4l0.8,3.5c-1.6,0.8-4.4,1.7-8.4,1.7c-7.7,0-12.4-5.5-12.4-13.6
				c0-8.2,4.5-14.6,11.8-14.6c8.2,0,10.4,7.8,10.4,12.7c0,1-0.1,1.8-0.2,2.3L255.9,135.5L255.9,135.5z M269.3,132
				c0.1-3.1-1.2-8-6.3-8c-4.6,0-6.7,4.6-7,8H269.3z"/>
			<path d="M280.4,129.5c0-3.2-0.1-5.9-0.2-8.4h4l0.2,5.3h0.2c1.1-3.6,3.9-5.9,7-5.9c0.5,0,0.9,0.1,1.3,0.2v4.6
				c-0.5-0.1-0.9-0.2-1.6-0.2c-3.2,0-5.5,2.6-6.1,6.3c-0.1,0.7-0.2,1.5-0.2,2.3v14.4h-4.5L280.4,129.5L280.4,129.5z"/>
			<path d="M320.6,121.1c-0.1,2-0.2,4.1-0.2,7.4v15.7c0,6.2-1.1,10-3.6,12.3c-2.4,2.5-6,3.2-9.1,3.2c-3,0-6.3-0.8-8.4-2.2l1.1-3.7
				c1.7,1.1,4.3,2.1,7.4,2.1c4.7,0,8.1-2.6,8.1-9.4v-3h-0.1c-1.4,2.5-4.1,4.5-8,4.5c-6.2,0-10.7-5.7-10.7-13.2
				c0-9.2,5.6-14.4,11.3-14.4c4.4,0,6.8,2.5,7.9,4.7h0.1l0.2-4.1L320.6,121.1L320.6,121.1z M315.9,131.8c0-0.8-0.1-1.6-0.3-2.2
				c-0.8-2.9-3.1-5.2-6.4-5.2c-4.4,0-7.5,4-7.5,10.2c0,5.3,2.5,9.7,7.4,9.7c2.8,0,5.4-1.9,6.3-5c0.3-0.8,0.4-1.8,0.4-2.6
				L315.9,131.8L315.9,131.8z"/>
			<path d="M331.7,121.1l5.5,16c0.6,1.8,1.2,3.9,1.6,5.5h0.1c0.5-1.6,1-3.7,1.6-5.6l5-15.9h4.8l-6.9,19.3c-3.3,9.3-5.5,14-8.6,16.9
				c-2.2,2.1-4.5,3-5.6,3.2l-1.1-4.1c1.1-0.4,2.6-1.2,4-2.4c1.2-1.1,2.8-3,3.8-5.5c0.2-0.5,0.4-0.9,0.4-1.2c0-0.3-0.1-0.7-0.3-1.3
				l-9.3-24.9L331.7,121.1L331.7,121.1z"/>
			<path d="M368.9,143.1c1.4,0.9,3.7,2,6,2c3.3,0,4.9-1.8,4.9-4c0-2.3-1.3-3.6-4.7-5c-4.5-1.7-6.7-4.4-6.7-7.7
				c0-4.4,3.3-7.9,8.7-7.9c2.5,0,4.8,0.8,6.2,1.7l-1.1,3.6c-1-0.7-2.8-1.6-5.1-1.6c-2.7,0-4.2,1.7-4.2,3.7c0,2.2,1.5,3.2,4.8,4.6
				c4.4,1.8,6.6,4.1,6.6,8.2c0,4.7-3.4,8.1-9.4,8.1c-2.8,0-5.3-0.7-7.1-1.8L368.9,143.1z"/>
			<path d="M413.9,134.4c0,10-6.4,14.4-12.5,14.4c-6.8,0-12.1-5.4-12.1-13.9c0-9.1,5.5-14.4,12.5-14.4
				C409,120.5,413.9,126.1,413.9,134.4z M393.9,134.7c0,5.9,3.2,10.4,7.6,10.4c4.4,0,7.6-4.4,7.6-10.5c0-4.6-2.1-10.4-7.5-10.4
				C396.2,124.2,393.9,129.5,393.9,134.7z"/>
			<path d="M421.6,108.5h4.6v39.7h-4.6V108.5z"/>
			<path d="M456.9,140.8c0,2.8,0.1,5.3,0.2,7.4h-4.1l-0.3-4.4h-0.1c-1.2,2.2-3.8,5-8.3,5c-4,0-8.7-2.3-8.7-11.8v-15.8h4.6v15
				c0,5.1,1.5,8.6,5.6,8.6c3.1,0,5.2-2.3,6-4.5c0.3-0.7,0.4-1.6,0.4-2.5v-16.6h4.6L456.9,140.8L456.9,140.8z"/>
			<path d="M472,113.3v7.8h6.5v3.7H472v14.6c0,3.4,0.9,5.3,3.4,5.3c1.2,0,2.1-0.2,2.6-0.3l0.2,3.7c-0.9,0.4-2.3,0.7-4.1,0.7
				c-2.1,0-3.8-0.7-4.9-2.1c-1.3-1.5-1.8-3.9-1.8-7v-14.8h-3.9v-3.7h3.9v-6.5L472,113.3z"/>
			<path d="M490.8,113.5c0.1,1.7-1.1,3-2.9,3c-1.6,0-2.8-1.3-2.8-3c0-1.7,1.2-3.1,2.9-3.1C489.7,110.4,490.8,111.8,490.8,113.5z
				 M485.7,148.1v-27h4.6v27H485.7z"/>
			<path d="M522.7,134.4c0,10-6.4,14.4-12.5,14.4c-6.8,0-12.1-5.4-12.1-13.9c0-9.1,5.5-14.4,12.5-14.4
				C517.8,120.5,522.7,126.1,522.7,134.4z M502.7,134.7c0,5.9,3.2,10.4,7.6,10.4c4.4,0,7.6-4.4,7.6-10.5c0-4.6-2.1-10.4-7.5-10.4
				C505.1,124.2,502.7,129.5,502.7,134.7z"/>
			<path d="M530.4,128.4c0-2.8-0.1-5.1-0.2-7.3h4.1l0.3,4.5h0.1c1.2-2.6,4.2-5.1,8.3-5.1c3.5,0,8.9,2.2,8.9,11.5v16.1h-4.6v-15.6
				c0-4.4-1.5-8-5.8-8c-3,0-5.4,2.3-6.1,5c-0.2,0.6-0.3,1.5-0.3,2.3v16.3h-4.6L530.4,128.4L530.4,128.4z"/>
			<path d="M559.7,143.1c1.4,0.9,3.7,2,6,2c3.3,0,4.9-1.8,4.9-4c0-2.3-1.3-3.6-4.7-5c-4.5-1.7-6.7-4.4-6.7-7.7
				c0-4.4,3.3-7.9,8.7-7.9c2.5,0,4.8,0.8,6.2,1.7l-1.1,3.6c-1-0.7-2.8-1.6-5.1-1.6c-2.7,0-4.2,1.7-4.2,3.7c0,2.2,1.5,3.2,4.8,4.6
				c4.4,1.8,6.6,4.1,6.6,8.2c0,4.7-3.4,8.1-9.4,8.1c-2.8,0-5.3-0.7-7.1-1.8L559.7,143.1z"/>
		</g>
	</g>
	<path fill="#00FF00" d="M187.8,152.9c1.9,1.9,24.9,4.7,24.9,4.7s-31,47.4-91.2,47.4s-97.8-47.6-97.8-92.4c0-17.7,3.7-27,3.7-27
		s1.2,4.7,3.2,6.7c0,0-2.8,11.5-2.8,21c0,38.9,32.2,79.6,83.3,79.6C162,192.9,187.8,152.9,187.8,152.9z"/>
</g>
</svg>
