<svg xmlns="http://www.w3.org/2000/svg" width="128.285" height="28.195" viewBox="0 0 128.285 28.195">
  <g id="logo-takara" transform="translate(-12.799 -472.888)">
    <path id="Path_740" data-name="Path 740" d="M49.328,497.45c-.17-.086-.289.074-.419.143a22.453,22.453,0,0,1-5.53,2.222,6.016,6.016,0,0,1-3.042.053,3.462,3.462,0,0,1-.512-.191c-1.179-.559-1.594-1.532-1.318-3.043a2.97,2.97,0,0,0,.152-.895c-.2-.089-.352.05-.509.139a56.668,56.668,0,0,1-7.306,3.527,9.665,9.665,0,0,1-2.676.624,3,3,0,0,1-2.2-.734,1.466,1.466,0,0,1-.377-2,9.616,9.616,0,0,1,1.92-2.566,31.264,31.264,0,0,1,11.66-7.656,14.87,14.87,0,0,1,3.695-.844,2.148,2.148,0,0,1,2.131.922.823.823,0,0,0,.726-.118,1.855,1.855,0,0,1,2.112.4c.324.245.32.549.009.917-.514.611-1.061,1.185-1.565,1.808a15.918,15.918,0,0,0-2.467,3.978,5.824,5.824,0,0,0-.5,1.76c-.057.674.19,1.064.734,1.158a2.632,2.632,0,0,0,1.269-.156,29.562,29.562,0,0,0,5.865-2.878,3.077,3.077,0,0,0,.959-.928,142.018,142.018,0,0,1,8.942-11.54,20.389,20.389,0,0,1,3.209-3.024,2.1,2.1,0,0,1,2.1-.351,5.808,5.808,0,0,1,1.444.753.635.635,0,0,1,.1,1.03,1.662,1.662,0,0,1-.22.228,51.991,51.991,0,0,0-6.952,7.787c-.827,1.088-1.629,2.2-2.383,3.371a.82.82,0,0,0-.223.487c.239.063.422-.11.614-.219a71.349,71.349,0,0,1,9.555-4.552,10.667,10.667,0,0,1,4.1-.85,2.035,2.035,0,0,1,1.349.39c.5.419.513.786.034,1.225a3.308,3.308,0,0,1-2.32,1.045,12.81,12.81,0,0,0-5.784,1.548c-.863.409-1.706.871-2.54,1.354-.89.516-.944.715-.508,1.769a7.94,7.94,0,0,0,2.368,3.249,3.106,3.106,0,0,0,3.046.6,20.934,20.934,0,0,0,4.208-2.091,16.937,16.937,0,0,0,2.938-2.251,30.568,30.568,0,0,1,6.485-4.448,19.945,19.945,0,0,1,6.206-2.254c.286-.048.576-.077.864-.117a2.152,2.152,0,0,1,2.207.92,1.112,1.112,0,0,0,.852-.176,1.906,1.906,0,0,1,2.024.5.631.631,0,0,1,.137.185.821.821,0,0,1,.06.176,1.212,1.212,0,0,1-.427.731,23.033,23.033,0,0,0-3.146,4.151,10.248,10.248,0,0,0-1.08,2.553,4.5,4.5,0,0,0-.117.589c-.079.681.192,1.1.754,1.192a2.784,2.784,0,0,0,1.308-.171,28.657,28.657,0,0,0,5.526-2.692c.1-.058.2-.124.3-.183,1.227-.742,1.228-.741,1.906-2.212.4-.867.786-1.744,1.189-2.609a4.088,4.088,0,0,1,1.75-1.94,10.356,10.356,0,0,1,2.786-1.107,2.346,2.346,0,0,1,1.352.053,1.5,1.5,0,0,1,.576.387.946.946,0,0,1,.01,1.385c-.227.244-.485.447-.726.673-.219.2-.435.414-.65.624-.1.094-.181.2-.31.347a.9.9,0,0,0,.639-.229,25.794,25.794,0,0,1,4.355-2.322,7.093,7.093,0,0,1,3.789-.566,1.763,1.763,0,0,1,.952.457.773.773,0,0,1,.124,1.021l-.024.04a3.951,3.951,0,0,1-3.278,1.66,5.029,5.029,0,0,0-3.25.45,21.836,21.836,0,0,0-5.961,4.008,2.512,2.512,0,0,0-.475.69c-.6,1.232-1.216,2.454-1.819,3.685a2.152,2.152,0,0,1-2.043,1.425,3.373,3.373,0,0,1-2.379-.85c-.537-.5-.571-.875-.123-1.512a1,1,0,0,0,.244-.383c-.162-.088-.259.04-.365.1a23.539,23.539,0,0,1-6.1,2.533,6.065,6.065,0,0,1-2.961.07c-.133-.038-.268-.077-.4-.128-1.345-.527-1.826-1.612-1.472-3.282a1.4,1.4,0,0,0,.1-.755c-.206-.068-.363.089-.53.181A54.394,54.394,0,0,1,76.5,499.52a8.866,8.866,0,0,1-2.443.511,3,3,0,0,1-2.077-.715,1.608,1.608,0,0,1-.646-1.157,22.8,22.8,0,0,1-2.818,1.236,14.276,14.276,0,0,1-3.738.812,5.48,5.48,0,0,1-4.672-2.244,22.177,22.177,0,0,1-1.831-2.547c-.4-.653-.744-.783-1.362-.441a6.161,6.161,0,0,0-2.309,2.168,1.631,1.631,0,0,0-.147.245,3.626,3.626,0,0,1-2.717,2.219,10.091,10.091,0,0,1-1.056.237,3.031,3.031,0,0,1-.827.009c-.945-.131-1.211-.746-.788-1.783.086-.209.168-.418.251-.629l.058-.057c-.047-.01-.088-.017-.048.065m38.26-7.491a1.04,1.04,0,0,0-.909-.841,2.1,2.1,0,0,0-1.29.277,23.515,23.515,0,0,0-6.974,5.151,4.949,4.949,0,0,0-.787,1.035.823.823,0,0,0-.091.8.859.859,0,0,0,.8,0,16.884,16.884,0,0,0,4.079-2.057,31.291,31.291,0,0,0,4.519-3.26,1.789,1.789,0,0,0,.65-1.1m-45.981.021a.984.984,0,0,0-.63-.783,1.526,1.526,0,0,0-1.256.069,22.28,22.28,0,0,0-7.731,5.81,2.446,2.446,0,0,0-.407.635.7.7,0,0,0-.011.685.945.945,0,0,0,.791-.021,16.784,16.784,0,0,0,4.153-2.1,30.171,30.171,0,0,0,4.443-3.214,1.816,1.816,0,0,0,.648-1.082" transform="translate(1.831 0.751)" fill="#333"/>
    <path id="Path_741" data-name="Path 741" d="M39.4,480.25c-.975.079-1.952.144-2.927.237-2,.19-3.991.4-5.98.666-2.238.293-4.471.612-6.7.977-1.956.322-3.908.67-5.859,1.032a3.012,3.012,0,0,1-1.441-.047,1.74,1.74,0,0,1-.5-.234,1.193,1.193,0,0,1-.192-1.813,2.184,2.184,0,0,1,1.219-.7c4.762-1.173,9.546-2.184,14.347-3.068q6.02-1.11,12.069-1.933c4.392-.589,8.791-1.057,13.2-1.327q5.957-.366,11.919-.611,6.562-.277,13.125-.415c2.43-.05,4.86-.061,7.289-.1,3.743-.071,7.484.021,11.226.088q6.273.115,12.543.492c3.695.22,7.389.509,11.073.905,3.327.359,6.653.742,9.975,1.175,2.224.289,4.447.582,6.662.938a1.391,1.391,0,0,1,.49.14.751.751,0,0,1-.017.62,1.522,1.522,0,0,1-1.552,1.14c-2.547-.252-5.089-.525-7.635-.769-1.721-.167-3.443-.307-5.165-.442q-3.721-.3-7.441-.563c-1.861-.131-3.722-.238-5.585-.341-3.765-.212-7.532-.386-11.3-.475-4.887-.116-9.775-.185-14.663-.068-2.83.068-5.66.157-8.485.339-3.309.213-6.612.532-9.906.986a101.433,101.433,0,0,0-12.089,2.4,93.029,93.029,0,0,0-16.459,6.071,117.912,117.912,0,0,0-15.534,9.044c-2.4,1.638-4.764,3.346-7.084,5.143a5.672,5.672,0,0,1-2.871,1.341,2.271,2.271,0,0,1-2.269-1.648,1.347,1.347,0,0,1,0-.974,3.705,3.705,0,0,1,.878-1.327,34.04,34.04,0,0,1,4.255-3.594c3.394-2.508,6.914-4.725,10.463-6.878s7.154-4.232,10.781-6.216a1.266,1.266,0,0,0,.137-.1c0-.029,0-.06,0-.088" transform="translate(0)" fill="#333"/>
    <path id="Path_742" data-name="Path 742" d="M117.195,486.13a1.347,1.347,0,0,0,.88-.2,1.919,1.919,0,0,1,1.986.505.6.6,0,0,1,.137.186,1.078,1.078,0,0,1,.065.168,1.164,1.164,0,0,1-.423.738,25.529,25.529,0,0,0-2.679,3.379,12.181,12.181,0,0,0-1.5,3.131,4.223,4.223,0,0,0-.174.832c-.062.626.2,1.046.714,1.143a2.7,2.7,0,0,0,1.348-.164,26.377,26.377,0,0,0,5.08-2.427,54.381,54.381,0,0,0,4.984-3.3,1.272,1.272,0,0,1,.689-.312c.17-.007.338-.009.433.253a2.546,2.546,0,0,1-.582,1.169,14.2,14.2,0,0,1-2.7,2.493,29.8,29.8,0,0,1-8.744,4.74,8.059,8.059,0,0,1-3.682.477,3.026,3.026,0,0,1-1.759-.809,2.256,2.256,0,0,1-.651-1.96c.05-.485.174-.946.254-1.434-.225-.162-.388.015-.551.107a61.443,61.443,0,0,1-6.594,3.261,10.265,10.265,0,0,1-3.554.894,2.919,2.919,0,0,1-2.059-.778,1.459,1.459,0,0,1-.351-1.931,7.7,7.7,0,0,1,1.3-1.9,30.045,30.045,0,0,1,8.209-6.474,21.835,21.835,0,0,1,6.318-2.5c.5-.1,1.012-.164,1.52-.226a2.1,2.1,0,0,1,2.092.941m-13.481,9.188a.537.537,0,0,0,.495.1,6.074,6.074,0,0,0,1.352-.453,36.805,36.805,0,0,0,5.352-3.171,17.746,17.746,0,0,0,2.248-1.8,1.581,1.581,0,0,0,.622-1.1,1.036,1.036,0,0,0-.942-.825,2.369,2.369,0,0,0-1.4.345,24.225,24.225,0,0,0-6.159,4.393,8.91,8.91,0,0,0-1.376,1.6.994.994,0,0,0-.188.9" transform="translate(12.35 1.79)" fill="#333"/>
  </g>
</svg>
