<?xml version="1.0" encoding="utf-8"?>
<!-- Generator: Adobe Illustrator 23.0.3, SVG Export Plug-In . SVG Version: 6.00 Build 0)  -->
<svg version="1.1" id="Layer_1" xmlns="http://www.w3.org/2000/svg" xmlns:xlink="http://www.w3.org/1999/xlink" x="0px" y="0px"
	 width="300px" height="100px" viewBox="0 0 300 100" enable-background="new 0 0 300 100" xml:space="preserve">
<path fill="#FFFFFF" d="M147.8,90.9c5.5,5.3,13,8.7,21.3,8.7l130.9,0l-28.3-84.3C267.9,6.3,258.8,0,247.9,0
	c-10.8,0-20,6.5-23.7,15.4l-9.4,27.5l0-41.5l-45.7,0c-8.3,0-15.7,3.2-21.2,8.6l0-8.5h-46.8c-8.7,0-16.6,3.7-22.2,9.6V1.4l-44.1,0
	C15.7,1.4,0.1,16.3,0.1,36c0,9.1,4,17.4,9.9,23.5l-9.9,0v40.1l44.4,0c12.5,0,24.9-7.5,29.2-16.6l0.1-0.4c5,10,15.3,17,27.3,17
	l46.7,0L147.8,90.9"/>
<path fill="#0060A8" d="M6.9,92.7l37.5,0c15.3,0,27.8-12.4,27.8-27.7c0-15.3-12.4-27.7-27.8-27.7l-9.7,0.1c-0.8,0-1.4-0.6-1.4-1.4
	s0.6-1.4,1.4-1.4l37.4,0l0-11.7H34.6c-7.2,0-13.1,5.9-13.1,13.1c0,7.2,5.9,13.1,13.1,13.1l9.8,0.1c8.8,0,15.9,7.1,15.9,15.8
	c0,8.7-7.1,15.8-15.9,15.8H6.9L6.9,92.7"/>
<path fill="#0060A8" d="M6.9,78.1h37.5c7.3,0,13.1-5.9,13.1-13.1c0-7.2-5.9-13.1-13.1-13.1l-9.8-0.1c-8.8,0-15.9-7.1-15.9-15.9
	c0-8.7,7.1-15.8,15.9-15.8l37.4,0l0-11.8H34.6C19.3,8.3,6.9,20.7,6.9,36s12.4,27.7,27.8,27.7l9.7,0c0.7,0,1.4,0.6,1.4,1.4
	c0,0.7-0.6,1.3-1.4,1.3l-37.4,0L6.9,78.1"/>
<path fill="#0060A8" d="M101.2,80.9c-6.5,0-11.8-5.2-11.8-11.8V31.7c0-6.4,5.3-11.6,11.8-11.6l40,0V8.3h-40
	c-13,0-23.6,10.5-23.6,23.5v37.3c0,13,10.5,23.5,23.6,23.5l39.8,0l0-11.7L101.2,80.9"/>
<path fill="#0060A8" d="M92.2,31.8c0-5,4-9,9-9h40v11.8h-34.5c-2.8,0-2.8,2.7-2.8,2.7h28.8V49H92.2L92.2,31.8"/>
<path fill="#0060A8" d="M101.2,78c-5,0-9-4-9-8.9V51.8h40.5v11.7h-28.8c0,2.8,2.8,2.8,2.8,2.8H141l0,11.7L101.2,78"/>
<path fill="#0060A8" d="M169.2,80.9c-6.5,0-11.8-5.3-11.8-11.8V31.8c0-6.5,5.3-11.7,11.7-11.7h38.7V8.3h-38.8
	c-13,0-23.6,10.5-23.6,23.5v37.3c0,13,10.6,23.5,23.6,23.5l38.7,0V37.3h-33.3V49h21.5v31.8L169.2,80.9"/>
<path fill="#0060A8" d="M160.2,69.1c0,5,4,9,9,9h24.2V51.8h-18.7v11.8h6.9l0,2.8h-6.9c-1.5,0-2.7-1.3-2.7-2.8l-0.1-26.3
	c0,0,0-2.7,2.8-2.8h33.3l0-11.7l-38.7,0c-5,0-9,4-9,9L160.2,69.1"/>
<path fill="#0060A8" d="M244.3,22.6c0.5-1.5,1.9-2.6,3.6-2.6c1.7,0,3.1,1.1,3.6,2.6l18.8,55.6h-27.5l0-13.1h9.2l-4.1-12.3
	l-13.5,39.8h-13.9L244.3,22.6"/>
<path fill="#0060A8" d="M274.2,80.9h-31.3v11.7h47.6l-24.8-73.3c-2.2-7.1-9.3-12.4-17.8-12.4c-8.5,0-15.6,5.2-17.8,12.4l-25,73.3
	h12.5l24.3-71.2c1-2.4,3.3-4,6-4c2.7,0,5.1,1.7,6,4L274.2,80.9"/>
<path fill="#231F20" d="M281.5,17.6c2.2,0,4.3-0.9,5.9-2.4c1.6-1.6,2.4-3.6,2.4-5.9c0-2.2-0.9-4.3-2.4-5.8c-1.6-1.5-3.6-2.4-5.9-2.4
	c-4.6,0-8.3,3.7-8.3,8.2c0,2.2,0.9,4.3,2.4,5.9C277.2,16.8,279.3,17.6,281.5,17.6 M274.4,9.4c0-1.9,0.7-3.7,2.1-5
	c1.4-1.3,3.1-2.1,5-2.1c1.9,0,3.7,0.7,5.1,2.1c1.3,1.3,2.1,3.1,2.1,5c0,3.9-3.2,7.1-7.1,7.1c-1.9,0-3.7-0.7-5-2.1
	C275.1,13,274.4,11.3,274.4,9.4z"/>
<path fill="#231F20" d="M279.4,10.1V14h-1.2V4.8h3.4c1.3,0,2,0,2.7,0.6c0.7,0.5,1,1.3,1,2.1c0,2.1-1.7,2.4-2.2,2.5l2.6,4h-1.4
	l-2.5-3.9L279.4,10.1 M279.4,9.1h2.4c0.4,0,0.8,0,1.1-0.1c0.9-0.2,1.2-0.8,1.2-1.5c0-0.2,0-0.9-0.5-1.3c-0.5-0.4-1.1-0.4-1.8-0.4
	h-2.4V9.1z"/>
</svg>
