<svg xmlns="http://www.w3.org/2000/svg" width="131.711" height="28.258" viewBox="0 0 131.711 28.258">
  <g id="logo-grundig" transform="translate(745.512 -380.177)">
    <path id="path17528" d="M-631.414,408.406c0-.016.3-.674.676-1.461l.676-1.432-1.02-1.956c-.561-1.076-1.073-2.06-1.138-2.188l-.117-.232.551.015.55.015.816,1.6a17.7,17.7,0,0,0,.87,1.6,17.054,17.054,0,0,0,.813-1.6l.759-1.6.475-.016c.342-.011.469,0,.454.047s-.786,1.676-1.721,3.648l-1.7,3.585h-.473A1.92,1.92,0,0,1-631.414,408.406Zm-45.66-2.152a2.443,2.443,0,0,1-1.723-2.518,2.618,2.618,0,0,1,1.4-2.448,1.532,1.532,0,0,1,.946-.173,1.9,1.9,0,0,1,1.465.467l.346.265v-.705h.918v5.079h-.918v-.766l-.245.252a2.311,2.311,0,0,1-.6.418,1.731,1.731,0,0,1-.85.184A2.748,2.748,0,0,1-677.074,406.254Zm1.559-.9a1.625,1.625,0,0,0,.789-.8,1.771,1.771,0,0,0,.115-.844,1.7,1.7,0,0,0-.123-.864,1.646,1.646,0,0,0-1.77-.945,1.679,1.679,0,0,0-1.226,1.008,1.649,1.649,0,0,0-.12.8,1.545,1.545,0,0,0,.141.842,1.627,1.627,0,0,0,1.1.921A2.1,2.1,0,0,0-675.515,405.357Zm5.605.874a2.456,2.456,0,0,1-1.631-2.685,2.5,2.5,0,0,1,.95-1.995,2.28,2.28,0,0,1,2.937.075l.257.226v-4.332h.918v8.7h-.918v-.351a1.17,1.17,0,0,0-.027-.351,1.532,1.532,0,0,0-.241.214,2.1,2.1,0,0,1-.431.324A2.6,2.6,0,0,1-669.91,406.232Zm1.628-.917a1.863,1.863,0,0,0,.8-.955,2.573,2.573,0,0,0-.076-1.561,1.574,1.574,0,0,0-1.461-.87c-1,0-1.594.682-1.594,1.835a1.41,1.41,0,0,0,.177.848,1.463,1.463,0,0,0,.8.773A2.322,2.322,0,0,0-668.282,405.315Zm5.816.934a2.341,2.341,0,0,1-1.664-1.525,3.056,3.056,0,0,1,.352-2.722,2.245,2.245,0,0,1,2.05-.9,1.707,1.707,0,0,1,.939.224,2.087,2.087,0,0,1,.637.458,2.829,2.829,0,0,1,.644,1.805v.26H-663.4l.031.257a1.6,1.6,0,0,0,1.032,1.31,1.517,1.517,0,0,0,1.046.021,1.344,1.344,0,0,0,.66-.465l.367-.378.2.142c.11.078.258.19.327.249l.127.106-.2.272a2.659,2.659,0,0,1-1.1.816A3.146,3.146,0,0,1-662.467,406.249Zm2.039-3.261a2.046,2.046,0,0,0-.507-.9,1.455,1.455,0,0,0-2.217.524c-.253.507-.341.475,1.292.475C-660.5,403.087-660.427,403.082-660.427,402.988Zm13.765,3.257a2.549,2.549,0,0,1-1.858-1.827,3.236,3.236,0,0,1,.031-1.5,2.465,2.465,0,0,1,1.052-1.405,2.566,2.566,0,0,1,1.49-.424,2.491,2.491,0,0,1,2.35,1.422,2.692,2.692,0,0,1-.432,3.028A2.806,2.806,0,0,1-646.662,406.245Zm1.277-.891a1.841,1.841,0,0,0,.956-.873,2.227,2.227,0,0,0,.005-1.528,1.939,1.939,0,0,0-.848-.87,1.784,1.784,0,0,0-1.789.271,1.9,1.9,0,0,0-.373,2.244A1.661,1.661,0,0,0-645.385,405.353Zm21.643.889a2.51,2.51,0,0,1-1.87-1.954,2.658,2.658,0,0,1,.755-2.487,2.55,2.55,0,0,1,1.849-.714,2.543,2.543,0,0,1,2.615,2.645,2.354,2.354,0,0,1-.724,1.817,2.766,2.766,0,0,1-2.624.693Zm1.2-.852a1.723,1.723,0,0,0,1.128-1.135,3,3,0,0,0,.055-.613,1.715,1.715,0,0,0-.939-1.552,1.683,1.683,0,0,0-1.418.018,1.737,1.737,0,0,0-.848.844,2.236,2.236,0,0,0,0,1.518A1.718,1.718,0,0,0-622.542,405.391Zm5.829.853a1.813,1.813,0,0,1-1.314-1.1c-.115-.288-.121-.387-.139-2.152l-.019-1.85h.926v1.638c0,1.92.023,2.056.4,2.4a1.312,1.312,0,0,0,1.741-.052c.313-.344.316-.365.334-2.247l.017-1.742h.966v1.364c0,2.227-.11,2.812-.6,3.254A2.619,2.619,0,0,1-616.712,406.243Zm-71.324-2.562v-2.539h.919v.539l.284-.215a1.674,1.674,0,0,1,1.121-.378,1.54,1.54,0,0,1,1.162.442l.294.268.167-.191a1.688,1.688,0,0,1,1.249-.51,1.62,1.62,0,0,1,1.642.755l.16.289.016,2.04.016,2.04h-.917l-.017-1.878c-.015-1.658-.028-1.9-.11-2.048a1.1,1.1,0,0,0-1.883.111c-.092.2-.1.381-.1,2.019v1.8h-.973v-1.759a17.235,17.235,0,0,0-.06-2,.907.907,0,0,0-.714-.647,1.189,1.189,0,0,0-1.234.65,11.443,11.443,0,0,0-.088,1.959l-.019,1.8h-.911v-2.539Zm35.389.405v-2.134h-.756v-.81h.747l.024-1.337a9.878,9.878,0,0,1,.092-1.553,1.3,1.3,0,0,1,.809-.751,2.915,2.915,0,0,1,1.157-.053l.251.034v.945l-.2-.072a.9.9,0,0,0-1.063.264c-.1.141-.113.24-.13,1.337l-.018,1.185h1.36v.81h-1.351v4.268h-.919Zm11.508-.405v-2.539h.973v.773l.313-.3a1.387,1.387,0,0,1,1.59-.456c.4.152.405.186.15.652l-.224.408-.15-.111a1.063,1.063,0,0,0-1.251.133,1.67,1.67,0,0,0-.288.413c-.106.227-.114.351-.13,1.9l-.017,1.661h-.966v-2.539Zm-97.873-9.33a7.074,7.074,0,0,1-6.492-6.824,6.821,6.821,0,0,1,5.129-7.049c1.071-.292,1.2-.3,6.942-.3h5.308v2.972h-3.255c-1.79,0-3.535.024-3.877.053a4.832,4.832,0,0,0-3.084,1.233,3.953,3.953,0,0,0-.818,4.792,3.469,3.469,0,0,0,.688.873,2.952,2.952,0,0,0,1.057.765c.978.47,1.61.562,3.723.538l1.378-.015.014-2.445.014-2.445h5.618v7.888l-6.092-.008c-3.35,0-6.165-.018-6.254-.029Zm98.359-7.068v-7.1h5.781v14.21h-5.781Zm-82.61,0v-7.051h6.335c4.287,0,6.492.019,6.821.06a4.319,4.319,0,0,1,3.84,2.939,3.311,3.311,0,0,1,.172,1.137,3.75,3.75,0,0,1-.432,2.078,3.91,3.91,0,0,1-1.374,1.463l-.333.192.318.258c.683.553,1.1,1.292,2.069,3.653.31.758.652,1.58.759,1.828s.194.461.194.473-1.321.022-2.935.022h-2.935l-.858-1.85c-.472-1.018-.935-1.973-1.029-2.124a2.016,2.016,0,0,0-.938-.792c-.288-.115-.385-.121-2.179-.139l-1.878-.019v4.924h-5.619v-7.051Zm10.174-1a1.555,1.555,0,0,0,.63-.359,1.25,1.25,0,0,0,.515-1.1,1.077,1.077,0,0,0-.166-.7,1.868,1.868,0,0,0-1.048-.821,7.878,7.878,0,0,0-2.364-.139l-2.013-.021v3.251h2.047A8.57,8.57,0,0,0-713.089,386.284Zm13.84,7.973a4.005,4.005,0,0,1-3.343-2.669c-.3-.842-.3-.888-.3-6.337v-5.018h5.727v4.88a44.072,44.072,0,0,0,.082,5.157,1.861,1.861,0,0,0,.9.992l.285.129h4.484l.014-5.578.014-5.578h5.619v14.1l-6.524-.005C-697.216,394.325-698.921,394.307-699.249,394.256Zm16.886-7v-7.079l6.794.015,6.794.015.432.121a3.9,3.9,0,0,1,2.75,2.4c.336.929.322.665.342,6.379l.019,5.227h-5.623v-4.718c0-4.757-.014-5.156-.2-5.509a1.94,1.94,0,0,0-.725-.716c-.406-.206-.82-.24-2.9-.241h-1.958v11.184h-5.727v-7.079Zm20.531.028v-7.051h5.5c5.628,0,6.18.017,7.224.218a7.144,7.144,0,0,1,6,5.915,6.688,6.688,0,0,1-.269,3.144c-.911,2.721-3.281,4.436-6.587,4.765-.383.038-2.567.059-6.227.059h-5.637Zm8.833,4.077a4.254,4.254,0,0,0,3.616-2.517,4.045,4.045,0,0,0-.771-4.246,4.4,4.4,0,0,0-2.357-1.3,11.1,11.1,0,0,0-2.095-.136l-1.607-.031v8.281h1.364C-654.1,391.416-653.266,391.391-653,391.361Zm26.749,2.914a7.035,7.035,0,0,1-6.182-4.731,6.283,6.283,0,0,1-.357-2.342,6.277,6.277,0,0,1,.325-2.247,6.777,6.777,0,0,1,4.793-4.478c1.071-.292,1.2-.3,6.942-.3h5.308v2.972h-3.228c-3.371,0-4.184.037-4.9.218a5.367,5.367,0,0,0-1.73.832,3.907,3.907,0,0,0-1.544,3.188,3.826,3.826,0,0,0,2.19,3.483,7.284,7.284,0,0,0,3.705.534l1.324-.017.014-2.445.014-2.445h5.726v7.834l-5.984-.007c-3.291,0-6.176-.027-6.411-.052Z" transform="translate(0)" fill="#135798"/>
  </g>
</svg>
