<?xml version="1.0" encoding="utf-8"?>
<!-- Generator: Adobe Illustrator 23.0.3, SVG Export Plug-In . SVG Version: 6.00 Build 0)  -->
<svg version="1.1" id="Layer_1" xmlns="http://www.w3.org/2000/svg" xmlns:xlink="http://www.w3.org/1999/xlink" x="0px" y="0px"
	 width="1707px" height="341px" viewBox="0 0 1707 341" enable-background="new 0 0 1707 341" xml:space="preserve">
<g id="Layer_x0020_1">
	<path fill-rule="evenodd" clip-rule="evenodd" d="M177,41c16,0,34,2,42,6c10,5,15,16,15,29v45c0,14-5,21-15,26c-8,5-26,6-42,6H39
		V41C85,41,131,41,177,41z M1440,265L1440,265c0,13-5,19-14,19h-9c-9,0-14-6-14-19V93c0-13,5-19,14-19h9c9,0,14,6,14,19V265z
		 M405,79L405,79c0,13-5,19-14,19h-17c-28,0-42,10-42,29v138c0,13-5,19-14,19h-10c-9,0-14-6-14-19l1-138c0-26,9-45,28-57
		c14-10,32-14,53-14h15c9,0,14,6,14,18V79z M650,174L650,174c0,14-4,21-11,21H455c0,31,16,47,48,47h27c10,0,14,6,14,19v4
		c0,13-4,19-14,19h-23c-24,0-43-4-59-12c-21-13-32-32-32-60v-84c0-26,11-46,32-59c16-9,35-14,57-14h70c18,0,35,5,48,13
		c18,12,27,29,27,51V174z M614,151L614,151v-28c0-9-8-15-22-20c-10-3-20-5-29-5h-54c-37,0-56,9-56,27v26H614z M754,98L754,98
		c-14,0-23,0-25,1c-13,2-19,7-19,15v12c0,9,4,14,12,17c7,3,18,4,34,4h62c46,0,69,20,69,62v10c0,43-25,65-74,65H687c-9,0-13-6-13-19
		v-4c0-13,4-19,13-19h127c23,0,34-8,34-23v-9c0-13-10-20-32-20h-60c-23,0-41-4-54-10c-19-9-29-27-29-53v-13c0-39,27-58,80-58h166V18
		c0-12,4-18,13-18h10c9,0,14,6,14,18v40h59c9,0,14,6,14,18v5c0,12-5,17-14,17h-59v167c0,13-5,19-14,19h-10c-9,0-13-6-13-19V98H754z
		 M1095,265L1095,265c0,13-4,19-13,19h-10c-9,0-14-6-14-19V93c0-13,5-19,14-19h10c9,0,13,6,13,19V265z M1365,277L1365,277
		c0,26-12,40-36,52c-17,9-38,12-61,12h-16c-9,0-13-6-13-18v-5c0-13,4-19,13-19h27c7,0,23-1,31-5c9-3,17-7,17-12h-102
		c-24,0-43-4-59-12c-23-12-34-31-34-58v-85c0-24,9-42,27-55c16-11,34-16,56-16h55c24,0,44,4,60,13c24,12,35,32,35,59V277z M1328,241
		L1328,241V130c0-12-7-21-21-26c-10-4-20-6-31-6h-59c-13,0-23,1-29,3c-13,4-19,12-19,25v85c0,20,19,30,55,30H1328z M1707,213
		L1707,213c0,27-10,46-30,59c-13,8-31,12-52,12h-62c-40,0-66-13-79-40c-5-10-7-20-7-31v-84c0-19,6-35,19-48c16-17,38-25,67-25h62
		c55,0,82,24,82,73V213z M1669,213L1669,213v-88c0-18-15-27-45-27h-61c-11,0-21,2-29,5c-14,6-20,14-20,26v84c0,11,6,19,20,24
		c9,3,18,5,29,5h61c9,0,18-2,27-5C1663,231,1669,224,1669,213z M273,77L273,77c0-29-10-51-32-64c-15-9-42-13-66-13H13C4,0,0,6,0,18
		v247c0,13,4,19,13,19h12c9,0,14-6,14-19v-70h136c24,0,51-4,66-14c22-13,32-29,32-58V77z"/>
	<path fill-rule="evenodd" clip-rule="evenodd" fill="#0D0909" d="M1074,8h6c11,0,20,9,20,20l0,0c0,11-9,20-20,20h-6
		c-11,0-20-9-20-20l0,0C1054,17,1063,8,1074,8z"/>
	<path fill-rule="evenodd" clip-rule="evenodd" fill="#0D0909" d="M1419,8h6c11,0,20,9,20,20l0,0c0,11-9,20-20,20h-6
		c-11,0-20-9-20-20l0,0C1399,17,1408,8,1419,8z"/>
</g>
</svg>
