<?xml version="1.0" encoding="utf-8"?>
<!-- Generator: Adobe Illustrator 23.0.3, SVG Export Plug-In . SVG Version: 6.00 Build 0)  -->
<svg version="1.1" id="svg2434" xmlns:svg="http://www.w3.org/2000/svg"
	 xmlns="http://www.w3.org/2000/svg" xmlns:xlink="http://www.w3.org/1999/xlink" x="0px" y="0px" width="744.1px" height="298.7px"
	 viewBox="0 0 744.1 298.7" enable-background="new 0 0 744.1 298.7" xml:space="preserve">
<g id="layer1" transform="translate(-45.035529,-246.39333)">
	<g id="g2451" transform="matrix(1.4304475,0,0,1.4304475,-1.6688977,-201.60614)">
		<path id="path2314" fill="#EC1B24" d="M45,476.4h16.7V363.9H45V476.4z"/>
		<path id="path2316" fill="#EC1B24" d="M45.1,344.8h16.7v-19.2H45.1V344.8z"/>
		<path id="path2318" fill="#EC1B24" d="M182.1,476.4h16.7V363.9h-16.7V476.4z"/>
		<path id="path2320" fill="#EC1B24" d="M182.2,344.8h16.7v-19.2h-16.7V344.8z"/>
		<path id="path2322" fill="#EC1B24" d="M101.7,509.6V401.9c0.1-6.1,5.6-36.2,53.8-38.6v15.2c-10.1,0.2-37.1,6.2-37.5,28.3v102.9
			H101.7"/>
		<path id="path2324" fill="#EC1B24" d="M486.7,476.1v-74.2c0.1-6.1,5.6-36.2,53.8-38.6v15.2c-10.1,0.2-37.1,6.2-37.4,28.3v69.3
			H486.7"/>
		<path id="path2326" fill="#EC1B24" d="M224.4,364.2h17.7l36.2,90.3l38.1-90.4H334l-47.3,112.3h-16.5L224.4,364.2"/>
		<path id="path2328" fill="#EC1B24" d="M455,440.8c-8.4,22.4-29.7,38.3-54.9,38.3c-32.3,0-58.5-26.4-58.5-58.9
			c0-32.6,26.2-58.9,58.5-58.9c32.4,0,58.5,26.4,58.5,58.9c0,2.1-0.1,4.3-0.3,6.3l0-0.3h-70.8v-14.7h54.6
			c-2.9-20.3-20.7-36.4-41.7-36.4c-23.7,0-42.9,20-42.9,44.7c0,24.6,19.2,44.6,42.9,44.6c16.5,0,30.6-9.4,37.8-23.7H455"/>
	</g>
</g>
</svg>
