<?xml version="1.0" encoding="UTF-8" standalone="no"?>
<svg
   xmlns:dc="http://purl.org/dc/elements/1.1/"
   xmlns:cc="http://creativecommons.org/ns#"
   xmlns:rdf="http://www.w3.org/1999/02/22-rdf-syntax-ns#"
   xmlns:svg="http://www.w3.org/2000/svg"
   xmlns="http://www.w3.org/2000/svg"
   viewBox="0 0 426.09895 425.50686"
   height="112.58202mm"
   width="112.73869mm"
   id="svg815"
   version="1.1">
  <metadata
     id="metadata821">
    <rdf:RDF>
      <cc:Work
         rdf:about="">
        <dc:format>image/svg+xml</dc:format>
        <dc:type
           rdf:resource="http://purl.org/dc/dcmitype/StillImage" />
        <dc:title></dc:title>
      </cc:Work>
    </rdf:RDF>
  </metadata>
  <defs
     id="defs819" />
  <path
     style="font-style:normal;font-variant:normal;font-weight:normal;font-stretch:normal;font-size:medium;line-height:0;font-family:'Eras Bold ITC';-inkscape-font-specification:'Eras Bold ITC';text-align:center;letter-spacing:0px;word-spacing:0px;text-anchor:middle;fill:#833275;fill-opacity:1;stroke:none;stroke-width:3.05560517"
     id="path872"
     d="m 287.89509,413.11673 c -0.32252,-47.70542 0.26217,-89.81897 0,-132.3734 26.01145,-0.21311 45.16581,-0.7989 68.88894,0 43.8562,-0.64224 55.68117,33.66553 54.38868,70.47036 -0.83581,23.80062 -7.961,45.42057 -24.47996,54.63849 -13.26887,7.85336 -26.20632,6.35431 -47.59685,7.26455 -10.8604,0.36233 -35.6437,0.64247 -51.20081,0 z m 41.03689,-36.09739 h 23.83003 c 25.90294,-7.64675 24.31058,-50.40521 0.17854,-55.47183 0,0 -13.53294,-0.4332 -24.22634,-0.009 -0.15521,25.14757 0.15521,30.17107 0,55.31863 z" />
  <path
     style="fill:#833275;fill-opacity:1;stroke:#000000;stroke-width:0;stroke-linecap:butt;stroke-linejoin:miter;stroke-miterlimit:4;stroke-dasharray:none;stroke-opacity:1"
     d="M 251.77619,413.11673 V 372.82097 H 214.0811 c -20.99739,-4.32789 -28.61416,-43.43464 -0.75466,-51.65803 h 38.44975 v -40.41961 h -48.94978 c -61.23131,0 -65.80741,126.62923 1.04248,132.3734 z"
     id="path876" />
  <text
     xml:space="preserve"
     style="font-style:normal;font-variant:normal;font-weight:normal;font-stretch:normal;font-size:64px;line-height:0;font-family:'Eras Bold ITC';-inkscape-font-specification:'Eras Bold ITC';text-align:center;letter-spacing:0px;word-spacing:0px;text-anchor:middle;fill:#000000;fill-opacity:1;stroke:none"
     x="-686.13782"
     y="97.761093"
     id="text852"><tspan
       id="tspan850"
       x="-686.13782"
       y="113.47688" /></text>
  <path
     style="fill:#1b928e;fill-opacity:1;stroke:#000000;stroke-width:0;stroke-linecap:butt;stroke-linejoin:miter;stroke-miterlimit:4;stroke-dasharray:none;stroke-opacity:1"
     d="m 12.004576,156.98745 v 93.21184 H 172.06332 C 157.84306,202.0384 114.09894,163.26528 12.004576,156.98745 Z"
     id="path842" />
  <path
     style="fill:#1b938f;fill-opacity:1;stroke:#000000;stroke-width:0;stroke-linecap:butt;stroke-linejoin:miter;stroke-miterlimit:4;stroke-dasharray:none;stroke-opacity:1"
     d="m 12.004576,106.55247 v 25.53054 c 95.909244,12.97422 175.474464,38.72022 188.725574,117.66198 h 71.32029 C 255.56999,177.89419 190.06259,106.24298 12.004576,106.55247 Z"
     id="path844" />
  <path
     style="fill:#1b928e;fill-opacity:1;stroke:#000000;stroke-width:0;stroke-linecap:butt;stroke-linejoin:miter;stroke-miterlimit:4;stroke-dasharray:none;stroke-opacity:1"
     d="M 12.004576,56.692828 V 81.021929 C 136.29943,90.122527 259.30841,100.23123 299.08278,250.19929 h 73.28766 C 338.76841,116.55744 207.60026,51.88912 12.004576,56.692828 Z"
     id="path846" />
  <path
     style="font-style:normal;font-variant:normal;font-weight:normal;font-stretch:normal;font-size:medium;line-height:0;font-family:'Eras Bold ITC';-inkscape-font-specification:'Eras Bold ITC';text-align:center;letter-spacing:0px;word-spacing:0px;text-anchor:middle;opacity:1;fill:#833275;fill-opacity:1;stroke:none;stroke-width:3.15158439"
     d="m 51.9375,279.29102 c -7.030793,-0.0166 -28.220721,0.52906 -39.720703,0.48828 0.298218,40.031 0.592608,28.29959 0,133.33789 h 0.642578 c 13.680012,-0.25461 32.078433,-0.17252 45.783203,0 -0.02807,-13.80526 -0.05187,-26.87883 -0.06641,-40.0918 22.511501,-1.34574 37.452746,0.48195 48.921822,-5.39327 11.46908,-5.87522 20.82887,-21.27056 20.36574,-38.89048 -0.52316,-19.9037 -5.59855,-34.91638 -16.64443,-42.71953 -11.04588,-7.80315 -29.425132,-6.57957 -59.2818,-6.73109 z m 37.624287,50.07021 c 0.476059,18.09555 -17.415691,15.47891 -30.809834,15.46104 -0.06363,-5.65498 -0.127253,-26.29043 -0.109375,-30.90821 13.092854,0.0567 30.42087,-3.49526 30.919209,15.44717 z"
     id="path866" />
  <path
     style="display:inline;fill:#823174;fill-opacity:1;stroke:#000000;stroke-width:0;stroke-linecap:butt;stroke-linejoin:miter;stroke-miterlimit:4;stroke-dasharray:none;stroke-opacity:1"
     d="m 12.004576,11.338583 v 16.82012 C 367.69192,36.398433 384.81929,178.36341 399.10241,250.19929 h 15.33797 V 11.338583 Z"
     id="path848" />
</svg>
