<svg xmlns="http://www.w3.org/2000/svg" width="98.487" height="23.726" viewBox="0 0 98.487 23.726">
  <g id="logo-acer" transform="translate(-120.403 -168.813)">
    <path id="path19" d="M218.658,169.86c-.349-.465-.7-.814-2.442-.93-.465,0-1.861-.117-4.3-.117-6.4,0-10.816,1.977-13.026,5.815.581-3.838-3.14-5.815-11.281-5.815-9.537,0-15.584,3.838-18.027,11.63a10.707,10.707,0,0,0-.233,7.094H167.02c-1.745.117-4.071.233-5.582.233-3.489,0-5.7-.581-6.513-1.745-.7-1.047-.7-3.024.233-5.931,1.512-4.768,5.117-6.862,10.932-6.862a56.68,56.68,0,0,1,5.931.349h0c.349,0,.581-.465.581-.814l-.117-.349-.232-1.628c-.117-1.047-.93-1.628-2.326-1.861-1.279-.117-2.326-.117-3.722-.117h-.117c-7.56,0-12.91,2.559-15.817,7.443,1.047-5-2.442-7.443-10.467-7.443a90.567,90.567,0,0,0-9.653.349c-1.512.232-2.442.814-2.791,1.861l-.7,2.093c-.117.349.117.581.582.581h0c.349,0,1.744-.233,4.071-.349,3.14-.233,5.35-.349,6.862-.349,4.419,0,6.4,1.163,5.7,3.373a1.251,1.251,0,0,1-1.047.93c-4.187.7-7.56,1.163-10,1.512-6.978.93-11.049,3.024-12.1,6.513-1.512,4.768,2.21,7.094,11.165,7.094a62.3,62.3,0,0,0,11.281-.814c1.745-.349,2.675-.7,3.024-1.861l1.628-5.35c-.117,5.35,3.489,8.025,11.165,8.025a65.812,65.812,0,0,0,7.909-.349c1.512-.233,2.326-.581,2.675-1.745l.349-1.628c1.628,2.559,5.234,3.838,10.7,3.838,5.815,0,9.188-.117,10.118-.465a2.145,2.145,0,0,0,1.512-1.279.427.427,0,0,1,.117-.349l.7-2.21c.117-.349-.117-.581-.581-.581l-3.722.233c-2.442.117-4.419.233-5.815.233a18.6,18.6,0,0,1-5.466-.582,3,3,0,0,1-2.093-3.373l11.746-1.512c5.234-.7,8.839-2.326,10.583-4.885l-4.071,13.607a.511.511,0,0,0,.117.581,1.112,1.112,0,0,0,.814.233h4.885a1.235,1.235,0,0,0,1.279-.814l4.3-15c.582-1.977,2.326-2.907,5.582-2.907,2.908,0,5,0,6.4.117h.117a1.268,1.268,0,0,0,1.047-.7l.7-2.093a1.253,1.253,0,0,0-.233-.93ZM140.27,187.77a46.209,46.209,0,0,1-6.513.349c-5,0-7.094-1.047-6.513-3.024.465-1.4,1.744-2.326,3.838-2.559l11.281-1.512Zm51.987-12.1q-.7,2.268-6.629,3.14l-9.42,1.279.233-.814c.814-2.559,1.861-4.187,3.256-5.117s3.722-1.4,6.978-1.4c4.3.117,6.164,1.047,5.582,2.907Z" transform="translate(0)" fill="#83b81a"/>
  </g>
</svg>
