<svg xmlns="http://www.w3.org/2000/svg" xmlns:xlink="http://www.w3.org/1999/xlink" width="145.859" height="24.486" viewBox="0 0 145.859 24.486">
  <defs>
    <clipPath id="clip-path">
      <path id="path3017" d="M2633.94-2372.728H2779.8v-24.486H2633.94Z" transform="translate(-2633.94 2397.213)"/>
    </clipPath>
  </defs>
  <g id="logo-medicana" transform="translate(4.988 -445.838)">
    <g id="g3011" transform="translate(-4.988 445.838)">
      <g id="g3013" transform="translate(0 0)" clip-path="url(#clip-path)">
        <g id="g3019" transform="translate(0 0)">
          <path id="path3021" d="M-124.369,0c-3.573,6.332-6.827,12.487-10.188,18.537C-138.342,12.275-141.739,5.625-144.569,0h-.919c-.354,3.714-2.476,18.5-3.4,24.2.424-.036.813-.106,1.273-.106.389,0,.778.071,1.238.106,0-4.351.955-11.355,1.733-18.254,2.406,4.6,4.882,9.2,7.146,13.867l1.945,4h.389c2.122-4.882,5.165-10.542,9.268-17.864.5,3.5,1.2,11.143,1.8,18.254.53-.036,1.1-.106,1.662-.106.531,0,1.026.071,1.663.106-.955-6.757-1.946-15.459-2.866-24.2Z" transform="translate(148.884)" fill="#00a679"/>
        </g>
        <g id="g3023" transform="translate(32.299 6.155)">
          <path id="path3025" d="M-11.758-6.279H-9.73l2.634.053a18.341,18.341,0,0,1,2.371.29,7.877,7.877,0,0,1-.079-.79c0-.263.053-.5.079-.79h-9.35V10.419h9.508c-.026-.263-.079-.527-.079-.79s.053-.5.079-.79a18.816,18.816,0,0,1-2.423.237c-1.58.053-3.161.158-4.767.106V1.491h4.083c.79,0,1.554.105,2.344.131-.026-.29-.079-.527-.079-.737A5.462,5.462,0,0,1-5.332.2c-.79.027-1.554.132-2.344.132h-4.083Z" transform="translate(14.076 7.517)" fill="#00a679"/>
        </g>
        <g id="g3027" transform="translate(46.598 6.142)">
          <path id="path3029" d="M0-91.057H5.136c2.792,0,5.715-.053,7.954-2a9.669,9.669,0,0,0,3.318-7.77,8.327,8.327,0,0,0-2.817-6.584c-2.213-1.844-4.872-1.58-7.612-1.58H0ZM2.318-107.94c1.133-.026,2.238-.105,3.319-.105,5.9,0,8.191,2.028,8.191,7.611,0,3.213-.948,6.137-3.793,7.559-2.133,1.081-5.4.764-7.717.633Z" transform="translate(0 109.006)" fill="#00a679" fill-rule="evenodd"/>
        </g>
        <g id="g3031" transform="translate(46.598 6.142)">
          <path id="path3033" d="M0-91.057H5.136c2.792,0,5.715-.053,7.954-2a9.669,9.669,0,0,0,3.318-7.77,8.327,8.327,0,0,0-2.817-6.584c-2.213-1.844-4.872-1.58-7.612-1.58H0ZM2.318-107.94c1.133-.026,2.238-.105,3.319-.105,5.9,0,8.191,2.028,8.191,7.611,0,3.213-.948,6.137-3.793,7.559-2.133,1.081-5.4.764-7.717.633Z" transform="translate(0 109.006)" fill="#00a679"/>
        </g>
        <g id="g3035" transform="translate(67.531 6.155)">
          <path id="path3037" d="M0-91.394c.368-.026.764-.079,1.159-.079.369,0,.737.053,1.159.079v-18.015c-.421.026-.79.079-1.159.079-.4,0-.79-.053-1.159-.079Z" transform="translate(0 109.409)" fill="#00a679"/>
        </g>
        <g id="g3039" transform="translate(74.898 5.76)">
          <path id="path3041" d="M-2.535-75.359a12.067,12.067,0,0,1-.5,2.345,6.781,6.781,0,0,0,4.292,1.527c3.582,0,6.505-2.239,6.505-6.005,0-5.61-8.3-3.661-8.3-8.507a3.111,3.111,0,0,1,3.318-3.081,3.377,3.377,0,0,1,3.266,2.291h.264a14.71,14.71,0,0,1,.711-2.159,5.916,5.916,0,0,0-3.767-1.264c-3.161,0-5.847,1.659-5.847,5.057,0,5.952,8.243,3.793,8.243,8.691A3.712,3.712,0,0,1,1.994-72.62c-2.054,0-3.24-1.054-4.266-2.739Z" transform="translate(3.035 90.213)" fill="#00a679"/>
        </g>
        <g id="g3043" transform="translate(87.616 5.76)">
          <path id="path3045" d="M-54.784-51.709h-5.794l2.871-6.742ZM-56.759-61.9h-.605l-8.218,18.41c.29-.026.58-.079.922-.079.316,0,.605.053.974.079.738-2.476,1.686-4.794,2.607-7.111h6.69c1.054,2.4,2,4.925,2.766,7.111.447-.026.9-.079,1.4-.079.449,0,.87.053,1.37.079Z" transform="translate(65.582 61.902)" fill="#00a679" fill-rule="evenodd"/>
        </g>
        <g id="g3047" transform="translate(87.616 5.76)">
          <path id="path3049" d="M-54.784-51.709h-5.794l2.871-6.742ZM-56.759-61.9h-.605l-8.218,18.41c.29-.026.58-.079.922-.079.316,0,.605.053.974.079.738-2.476,1.686-4.794,2.607-7.111h6.69c1.054,2.4,2,4.925,2.766,7.111.447-.026.9-.079,1.4-.079.449,0,.87.053,1.37.079Z" transform="translate(65.582 61.902)" fill="#00a679"/>
        </g>
        <g id="g3051" transform="translate(107.446 6.155)">
          <path id="path3053" d="M-77.5,0c-.263.026-.5.079-.737.079A6.327,6.327,0,0,1-78.972,0V13.564h-.264L-91.746,0h-1.027V18.015a6.321,6.321,0,0,1,.738-.079c.236,0,.474.053.737.079V3.819h.263l11.378,12.589c.552.606,1.079,1.238,1.369,1.607h.79Z" transform="translate(92.773)" fill="#00a679"/>
        </g>
        <g id="g3055" transform="translate(125.245 5.76)">
          <path id="path3057" d="M-54.781-51.709h-5.794l2.871-6.742ZM-56.756-61.9h-.605l-8.217,18.41c.29-.026.579-.079.922-.079.316,0,.605.053.974.079.738-2.476,1.686-4.794,2.608-7.111h6.69c1.053,2.4,2,4.925,2.765,7.111.448-.026.9-.079,1.4-.079.448,0,.87.053,1.37.079Z" transform="translate(65.579 61.902)" fill="#00a679" fill-rule="evenodd"/>
        </g>
        <g id="g3059" transform="translate(125.245 5.76)">
          <path id="path3061" d="M-54.781-51.709h-5.794l2.871-6.742ZM-56.756-61.9h-.605l-8.217,18.41c.29-.026.579-.079.922-.079.316,0,.605.053.974.079.738-2.476,1.686-4.794,2.608-7.111h6.69c1.053,2.4,2,4.925,2.765,7.111.448-.026.9-.079,1.4-.079.448,0,.87.053,1.37.079Z" transform="translate(65.579 61.902)" fill="#00a679"/>
        </g>
        <g id="g3063" transform="translate(139.658 5.821)">
          <path id="path3065" d="M-12.255-8.581h.759c.392.018.584.2.584.541,0,.375-.3.645-.776.645h-.567Zm0,1.448h.2l.41.453.618.741c.105.14.21.279.324.428.1-.009.2-.026.3-.026s.192.018.3.026l-.1-.122-.244-.27-1.072-1.273c.523-.088,1.064-.357,1.064-.925,0-.488-.349-.741-1.152-.741h-1.1v3.331a1.779,1.779,0,0,1,.226-.026,2.247,2.247,0,0,1,.227.026Zm.7,2.625a2.678,2.678,0,0,1-2.634-2.669,2.677,2.677,0,0,1,2.634-2.66A2.655,2.655,0,0,1-8.95-7.177a2.657,2.657,0,0,1-2.608,2.669m0,.436a3.091,3.091,0,0,0,3.087-3.1,3.088,3.088,0,0,0-3.087-3.1,3.105,3.105,0,0,0-3.113,3.1,3.108,3.108,0,0,0,3.113,3.1" transform="translate(14.671 10.273)" fill="#00a679" fill-rule="evenodd"/>
        </g>
      </g>
    </g>
  </g>
</svg>
