<svg xmlns="http://www.w3.org/2000/svg" width="126.456" height="42.617" viewBox="0 0 126.456 42.617">
  <g id="logo-doro" transform="translate(-269.894 -243.063)">
    <g id="Group_884" data-name="Group 884" transform="translate(269.894 243.062)">
      <path id="Path_702" data-name="Path 702" d="M518.787,271.178a7.238,7.238,0,0,0,6.67,7.026,6.023,6.023,0,0,0,6.689-5.994,7.255,7.255,0,0,0-6.689-7.026,6.018,6.018,0,0,0-6.67,6" transform="translate(-415.956 -256.031)" fill="#009b3b"/>
      <path id="Path_703" data-name="Path 703" d="M516.357,297.955a16.466,16.466,0,0,0-5.157-1.732.884.884,0,0,0-1.042.509,11.047,11.047,0,0,1-10.815,5.745,13.256,13.256,0,0,1-9.768-5.665,2.154,2.154,0,0,0-2.089-.9,38.119,38.119,0,0,0-10.751,2.774c-.051.028-.2.1-.229.112-1.1.575-1.42,1.112-1.032,2.561a21.31,21.31,0,0,0,41.415-2.145,1.2,1.2,0,0,0-.532-1.256" transform="translate(-390.445 -274.066)" fill="#009b3b"/>
      <path id="Path_704" data-name="Path 704" d="M479.684,256.134a42.768,42.768,0,0,1,9.409-2.271,1.722,1.722,0,0,0,1.457-.88,11.07,11.07,0,0,1,10.54-5.274,13.2,13.2,0,0,1,9.552,5.371,3.126,3.126,0,0,0,1.522,1.136,30.073,30.073,0,0,1,3.777,1.1c.723.234,1.089.249.82-.43a21.314,21.314,0,0,0-38.262.189c-.45,1.023-.216,1.6,1.185,1.06" transform="translate(-392.191 -243.062)" fill="#009b3b"/>
      <g id="Group_883" data-name="Group 883" transform="translate(0 7.464)">
        <path id="Path_705" data-name="Path 705" d="M289.842,286.628H287.43v-3.307h-.067a8.882,8.882,0,0,1-7.34,3.757,9.894,9.894,0,1,1,0-19.783,8.888,8.888,0,0,1,7.34,3.722h.067v-9.888h2.412Zm-9.819-1.724a7.72,7.72,0,1,0-7.718-7.65A7.476,7.476,0,0,0,280.024,284.9Z" transform="translate(-269.894 -261.128)" fill="#009b3b"/>
        <path id="Path_706" data-name="Path 706" d="M337.095,276.054a9.892,9.892,0,1,1-9.824,10.03A10,10,0,0,1,337.095,276.054Zm.036,17.609a7.725,7.725,0,0,0,0-15.44,7.725,7.725,0,0,0,0,15.44Z" transform="translate(-303.566 -269.887)" fill="#009b3b"/>
        <path id="Path_707" data-name="Path 707" d="M383.818,276.537h2.413v2.726h.071c1.139-2.653,3.271-3.07,5.306-3.209v2.55a5.783,5.783,0,0,0-4.064,1.864,6.16,6.16,0,0,0-1.313,3.893v11.026h-2.413Z" transform="translate(-336.75 -269.887)" fill="#009b3b"/>
        <path id="Path_708" data-name="Path 708" d="M415.664,276.054a9.892,9.892,0,1,1-9.825,10.03A10,10,0,0,1,415.664,276.054Zm.035,17.609a7.725,7.725,0,0,0,0-15.44,7.725,7.725,0,0,0,0,15.44Z" transform="translate(-349.673 -269.887)" fill="#009b3b"/>
      </g>
    </g>
    <path id="Path_709" data-name="Path 709" d="M455.849,278.245a1.6,1.6,0,1,1-1.6-1.634,1.588,1.588,0,0,1,1.6,1.634m-3.587,0a1.982,1.982,0,1,0,1.986-1.948,1.952,1.952,0,0,0-1.986,1.948m1.571-.838h.466c.4,0,.5.121.5.34,0,.247-.134.369-.553.369h-.416Zm0,.989h.39l.6.985h.377l-.641-.993a.59.59,0,0,0,.591-.62c0-.445-.264-.645-.8-.645h-.863v2.259h.347Z" transform="translate(-107.022 -19.504)" fill="#009b3b"/>
  </g>
</svg>
