<?xml version="1.0" encoding="utf-8"?>
<!-- Generator: Adobe Illustrator 23.0.3, SVG Export Plug-In . SVG Version: 6.00 Build 0)  -->
<svg version="1.1" id="Capa_1" xmlns="http://www.w3.org/2000/svg" xmlns:xlink="http://www.w3.org/1999/xlink" x="0px" y="0px"
	 width="365px" height="75.2px" viewBox="0 0 365 75.2" enable-background="new 0 0 365 75.2" xml:space="preserve">
<g>
	<g>
		<path fill="#FFA400" d="M18.3,25.3c-4.9,0-8.9-4-8.9-8.9s4-8.9,8.9-8.9s8.9,4,8.9,8.9C27.1,21.4,23.2,25.3,18.3,25.3"/>
		<path fill="#FFDB00" d="M57.5,46.3c0,4.9-4,8.9-8.9,8.9s-8.9-4-8.9-8.9s4-8.9,8.9-8.9C53.6,37.5,57.5,41.5,57.5,46.3 M69.9,46.3
			c0-11.7-9.5-21.3-21.3-21.3c-11.7,0-21.3,9.5-21.3,21.3c0,11.7,9.5,21.3,21.3,21.3S69.9,58.1,69.9,46.3"/>
		<path fill="#383A35" d="M104.3,39.6c-1.6-2.3-3.9-3.5-6.6-3.5c-1.1,0-2.2,0.3-3.3,0.8c-1.1,0.6-1.6,1.5-1.6,2.7
			c0,1,0.4,1.8,1.3,2.3s2,0.9,3.4,1.2s2.8,0.7,4.4,1c1.6,0.4,3,0.9,4.4,1.6c1.4,0.7,2.5,1.7,3.4,3s1.3,3,1.3,5.2
			c0,2-0.4,3.7-1.3,5.1c-0.9,1.4-2,2.5-3.4,3.3s-2.9,1.5-4.7,1.8c-1.7,0.4-3.5,0.6-5.2,0.6c-2.6,0-5.1-0.4-7.3-1.1
			c-2.1-0.6-4.1-2-5.8-4l5.6-5.3c1.1,1.2,2.2,2.2,3.5,3c1.2,0.8,2.8,1.2,4.5,1.2c0.6,0,1.2-0.1,1.9-0.2c0.7-0.1,1.3-0.4,1.8-0.7
			c0.6-0.3,1-0.7,1.4-1.2s0.5-1.1,0.5-1.7c0-1.2-0.4-2-1.3-2.6s-2-1-3.4-1.4s-2.8-0.7-4.4-1s-3-0.8-4.4-1.5s-2.5-1.6-3.4-2.9
			c-0.9-1.2-1.3-2.9-1.3-5.1c0-1.9,0.4-3.5,1.2-4.9c0.8-1.4,1.8-2.5,3.1-3.4c1.3-0.9,2.7-1.6,4.4-2c1.6-0.4,3.3-0.6,5-0.6
			c2.3,0,4.5,0.4,6.7,1.2c2.2,0.8,4,2.1,5.4,4L104.3,39.6z"/>
		<path fill="#383A35" d="M144.9,64h-8v-5.4h-0.1c-0.8,1.7-2,3.2-3.7,4.4c-1.6,1.2-3.9,1.9-6.7,1.9c-2.3,0-4.2-0.4-5.7-1.1
			c-1.6-0.7-2.9-1.7-3.8-3c-1-1.2-1.7-2.7-2.1-4.3s-0.6-3.3-0.6-5V30.2h8.5v17.1c0,0.9,0,2,0.1,3.1c0.1,1.2,0.3,2.2,0.7,3.2
			c0.4,1,1,1.9,1.8,2.5c0.8,0.7,2,1,3.5,1c1.4,0,2.6-0.2,3.6-0.7s1.8-1.1,2.4-1.9c0.6-0.8,1.1-1.7,1.4-2.7c0.3-1,0.4-2.1,0.4-3.2
			V30.2h8.5V64H144.9z"/>
		<path fill="#383A35" d="M151,30.2h8v5.4h0.1c0.8-1.7,2-3.2,3.7-4.4c1.6-1.2,3.9-1.9,6.7-1.9c2.3,0,4.2,0.4,5.7,1.1
			c1.6,0.8,2.9,1.7,3.8,3c1,1.2,1.7,2.6,2.1,4.2c0.4,1.6,0.6,3.3,0.6,5V64h-8.5V46.9c0-0.9,0-2-0.1-3.1c-0.1-1.2-0.3-2.2-0.7-3.2
			s-1-1.9-1.9-2.5c-0.8-0.7-2-1-3.5-1c-1.4,0-2.6,0.2-3.6,0.7s-1.8,1.1-2.4,1.9c-0.6,0.8-1.1,1.7-1.4,2.7c-0.3,1-0.4,2.1-0.4,3.2V64
			H151V30.2z"/>
		<path fill="#383A35" d="M205.9,39.6c-1.6-2.3-3.9-3.5-6.6-3.5c-1.1,0-2.2,0.3-3.3,0.8c-1.1,0.6-1.6,1.5-1.6,2.7
			c0,1,0.4,1.8,1.3,2.3c0.9,0.5,2,0.9,3.4,1.2s2.8,0.7,4.4,1c1.6,0.4,3,0.9,4.4,1.6c1.4,0.7,2.5,1.7,3.4,3s1.3,3,1.3,5.2
			c0,2-0.4,3.7-1.3,5.1c-0.9,1.4-2,2.5-3.4,3.3s-2.9,1.5-4.7,1.8c-1.7,0.4-3.5,0.6-5.2,0.6c-2.6,0-5.1-0.4-7.3-1.1
			c-2.2-0.8-4.2-2.1-5.9-4.1l5.6-5.3c1.1,1.2,2.2,2.2,3.5,3c1.2,0.8,2.8,1.2,4.5,1.2c0.6,0,1.2-0.1,1.9-0.2c0.7-0.1,1.3-0.4,1.8-0.7
			c0.6-0.3,1-0.7,1.4-1.2s0.5-1.1,0.5-1.7c0-1.2-0.4-2-1.3-2.6c-0.9-0.6-2-1-3.4-1.4s-2.8-0.7-4.4-1c-1.6-0.3-3-0.8-4.4-1.5
			s-2.5-1.6-3.4-2.9c-0.9-1.2-1.3-2.9-1.3-5.1c0-1.9,0.4-3.5,1.2-4.9s1.8-2.5,3.1-3.4s2.7-1.6,4.4-2c1.6-0.4,3.3-0.6,5-0.6
			c2.3,0,4.5,0.4,6.7,1.2c2.2,0.8,4,2.1,5.4,4L205.9,39.6z"/>
		<path fill="#383A35" d="M213.1,37.4v-7.2h7v-8.6h8.5v8.6h9.3v7.2h-9.3v14.8c0,1.7,0.3,3,1,4c0.6,1,1.9,1.5,3.8,1.5
			c0.8,0,1.6-0.1,2.5-0.2c0.9-0.2,1.6-0.4,2.1-0.8v7.1c-0.9,0.4-2,0.7-3.3,0.9s-2.4,0.2-3.4,0.2c-2.3,0-4.1-0.2-5.5-0.7
			s-2.6-1.2-3.4-2.3c-0.8-1-1.4-2.3-1.7-3.8s-0.5-3.2-0.5-5.2V37.4H213.1z"/>
		<path fill="#383A35" d="M265.1,43.7c0-2.5-0.8-4.5-2.3-5.9s-3.6-2.1-6.3-2.1c-2.5,0-4.5,0.7-6,2.2s-2.4,3.4-2.7,5.8H265.1z
			 M247.7,50.1c0.3,2.5,1.3,4.5,3,5.9s3.7,2.1,6.1,2.1c2.1,0,3.9-0.4,5.3-1.3c1.4-0.9,2.7-2,3.8-3.3l6.1,4.6c-2,2.4-4.2,4.2-6.6,5.2
			c-2.4,1-5,1.6-7.7,1.6c-2.5,0-4.9-0.4-7.2-1.3c-2.3-0.8-4.2-2-5.9-3.6c-1.6-1.5-2.9-3.4-3.9-5.6c-1-2.2-1.4-4.6-1.4-7.3
			s0.5-5.1,1.4-7.3c1-2.2,2.3-4.1,3.9-5.6c1.6-1.5,3.6-2.7,5.9-3.6c2.3-0.8,4.7-1.3,7.2-1.3c2.3,0,4.5,0.4,6.4,1.2
			c1.9,0.8,3.6,2,5,3.6c1.4,1.5,2.5,3.5,3.2,5.7c0.8,2.3,1.2,4.9,1.2,7.9V50L247.7,50.1L247.7,50.1z"/>
		<path fill="#383A35" d="M301,40.3c-1-1-2-1.9-3.1-2.5s-2.2-0.9-3.3-0.9c-1.6,0-2.9,0.3-4.2,0.8c-1.2,0.6-2.3,1.3-3.1,2.3
			c-0.9,0.9-1.5,2-2,3.2c-0.4,1.2-0.7,2.5-0.7,3.8s0.2,2.6,0.7,3.8c0.4,1.2,1.1,2.3,2,3.2s1.9,1.7,3.1,2.3s2.6,0.8,4.2,0.8
			c1.3,0,2.5-0.3,3.7-0.8c1.1-0.5,2.1-1.3,2.9-2.4l5.6,6.1c-0.8,0.8-1.8,1.6-2.9,2.2c-1.1,0.6-2.2,1.1-3.3,1.5
			c-1.1,0.4-2.2,0.6-3.2,0.8s-1.9,0.2-2.7,0.2c-2.5,0-4.9-0.4-7.2-1.3c-2.3-0.8-4.2-2-5.8-3.6c-1.6-1.6-2.9-3.4-3.9-5.6
			c-1-2.2-1.4-4.6-1.4-7.3s0.5-5.1,1.4-7.3c1-2.2,2.3-4.1,3.9-5.6c1.6-1.6,3.6-2.7,5.8-3.6c2.3-0.8,4.7-1.3,7.2-1.3
			c2.2,0,4.3,0.4,6.5,1.2c2.2,0.8,4.1,2.1,5.7,3.9L301,40.3z"/>
		<path fill="#383A35" d="M316.8,34.9h0.1c0.7-1.4,1.8-2.7,3.5-3.8c1.7-1.1,3.8-1.7,6.4-1.7c2.3,0,4.2,0.4,5.7,1.1
			c1.6,0.8,2.9,1.7,3.8,3c1,1.2,1.7,2.6,2.1,4.2c0.4,1.6,0.6,3.3,0.6,5V64h-8.5V46.9c0-0.9,0-2-0.1-3.1c-0.1-1.2-0.3-2.2-0.7-3.2
			c-0.4-1-1-1.9-1.9-2.5c-0.8-0.7-2-1-3.5-1c-1.4,0-2.6,0.2-3.6,0.7s-1.8,1.1-2.4,1.9c-0.6,0.8-1.1,1.7-1.4,2.7s-0.4,2.1-0.4,3.2V64
			H308V21.5h8.5v13.4H316.8z"/>
	</g>
	<g>
		<path fill="#383A35" d="M355.6,21.2c0,2.6-2,4.7-4.7,4.7c-2.6,0-4.7-2-4.7-4.7c0-2.6,2.1-4.6,4.7-4.6S355.6,18.6,355.6,21.2z
			 M347.3,21.2c0,2,1.5,3.7,3.6,3.7c2,0,3.5-1.6,3.5-3.6s-1.5-3.7-3.5-3.7C348.8,17.5,347.3,19.2,347.3,21.2z M350.1,23.6H349V19
			c0.4-0.1,1-0.1,1.8-0.1c0.9,0,1.3,0.1,1.6,0.3c0.3,0.2,0.4,0.6,0.4,1c0,0.5-0.4,0.9-1,1.1v0.1c0.4,0.2,0.7,0.5,0.8,1.1
			c0.1,0.7,0.2,1,0.3,1.1H352c-0.1-0.2-0.2-0.6-0.4-1.1c-0.1-0.5-0.4-0.7-1-0.7h-0.5V23.6z M350.2,21h0.5c0.6,0,1.1-0.2,1.1-0.7
			c0-0.4-0.3-0.7-1-0.7c-0.3,0-0.5,0-0.6,0.1V21z"/>
	</g>
</g>
</svg>
