<svg id="logo-alcatel" xmlns="http://www.w3.org/2000/svg" width="118.718" height="30" viewBox="0 0 118.718 30">
  <path id="path5" d="M200.565,30.431H197.34V27.913a9.877,9.877,0,0,1-6.54,2.518,9.764,9.764,0,1,1,9.764-9.764ZM190.846,7.5a12.945,12.945,0,1,0,5.435,24.7l.883.354,6.583,2.738V20.445A12.954,12.954,0,0,0,190.846,7.5" transform="translate(-125.5 -5.291)" fill="#00a1e3"/>
  <path id="path7" d="M11.443,32.139A7.644,7.644,0,1,1,19.087,24.5a7.636,7.636,0,0,1-7.644,7.643m0-19.087a11.443,11.443,0,1,0,7.644,19.971v2.915h3.844V24.5A11.456,11.456,0,0,0,11.443,13.052" transform="translate(0 -9.208)" fill="#00a1e3"/>
  <path id="path9" d="M88.2,26.731H92V0H88.2Z" transform="translate(-62.219)" fill="#00a1e3"/>
  <path id="path11" d="M390.151,26.731h3.8V0h-3.8Z" transform="translate(-275.233)" fill="#00a1e3"/>
  <path id="path13" d="M122.894,32.139a7.644,7.644,0,0,1,0-15.287,7.792,7.792,0,0,1,5.434,2.254l2.7-2.7a11.443,11.443,0,1,0,0,16.17l-2.7-2.7a7.792,7.792,0,0,1-5.434,2.254" transform="translate(-78.623 -9.208)" fill="#00a1e3"/>
  <path id="path15" d="M279.952,3.844V0h-3.8V26.731h3.8V7.644h3.8v-3.8" transform="translate(-194.812)" fill="#00a1e3"/>
  <path id="path17" d="M313.392,16.852a7.677,7.677,0,0,1,7.423,5.744h-14.8a7.663,7.663,0,0,1,7.378-5.744m5.787,12.592a7.529,7.529,0,0,1-5.787,2.7,7.662,7.662,0,0,1-7.378-5.743H324.7a13.094,13.094,0,0,0,.177-1.9,11.509,11.509,0,1,0-1.149,4.948" transform="translate(-213.01 -9.208)" fill="#00a1e3"/>
  <path id="path19" d="M205.826,29.7a6.627,6.627,0,1,0,6.627,6.627,6.619,6.619,0,0,0-6.627-6.627" transform="translate(-140.525 -20.953)" fill="#00a1e3"/>
</svg>
