<?xml version="1.0" encoding="utf-8"?>
<!-- Generator: Adobe Illustrator 23.0.3, SVG Export Plug-In . SVG Version: 6.00 Build 0)  -->
<svg version="1.1"
	 id="svg3521" xmlns:cc="http://creativecommons.org/ns#" xmlns:dc="http://purl.org/dc/elements/1.1/" xmlns:inkscape="http://www.inkscape.org/namespaces/inkscape" xmlns:rdf="http://www.w3.org/1999/02/22-rdf-syntax-ns#" xmlns:sodipodi="http://sodipodi.sourceforge.net/DTD/sodipodi-0.dtd" xmlns:svg="http://www.w3.org/2000/svg"
	 xmlns="http://www.w3.org/2000/svg" xmlns:xlink="http://www.w3.org/1999/xlink" x="0px" y="0px" width="389px" height="77.7px"
	 viewBox="0 0 389 77.7" enable-background="new 0 0 389 77.7" xml:space="preserve">
<sodipodi:namedview  bordercolor="#666666" borderopacity="1.0" fit-margin-bottom="0" fit-margin-left="0" fit-margin-right="0" fit-margin-top="0" id="base" inkscape:current-layer="layer1" inkscape:cx="192.03693" inkscape:cy="48.295755" inkscape:document-units="px" inkscape:pageopacity="0.0" inkscape:pageshadow="2" inkscape:window-height="780" inkscape:window-maximized="1" inkscape:window-width="1280" inkscape:window-x="-8" inkscape:window-y="-8" inkscape:zoom="2.8" pagecolor="#ffffff" showgrid="false">
	</sodipodi:namedview>
<g id="layer1" transform="translate(-355.8907,-618.45298)" inkscape:groupmode="layer" inkscape:label="Layer 1">
	<path id="path186" inkscape:connector-curvature="0" fill="#FF0017" d="M379.4,694.6v-18.3c0,0,13.1,0,16.7,0
		c13.9,0,21.8-5.6,21.8-19.3c0-4.9,0-10.3,0-14.8c0-16.5-7.8-22.5-21.8-22.5c-7.9,0-38.5,0-38.5,0v74.9L379.4,694.6"/>
	<path id="path188" inkscape:connector-curvature="0" fill="#FF0000" d="M425,694.6v-74.9h51.8v14h-30.7v15.6h26v14.1h-26v17.5h30.6
		v13.9L425,694.6"/>
	<path id="path190" inkscape:connector-curvature="0" fill="#FF0017" d="M485.8,694.7v-75l20.6,0l18.4,44.2v-44.2l18.7,0v74.9
		l-21.6,0l-17-41.2v41.2L485.8,694.7"/>
	<path id="path192" inkscape:connector-curvature="0" fill="#FF0017" d="M571.6,694.6v-60.5h-21.5v-14.4h65.2v14.4h-21.9v60.5H571.6
		"/>
	<path id="path194" inkscape:connector-curvature="0" fill="#FF0017" d="M606.1,694.6l23.7-74.9h18.4l25,74.9h-20.5l-3.5-12h-20
		l-3.3,12L606.1,694.6"/>
	<path id="path196" inkscape:connector-curvature="0" fill="#FF0017" d="M673.3,694.6l21.3-39.3l-20.5-35.7h23.1l10.6,22.9l9.9-22.9
		l21.3,0l-18.7,36.2l22.9,38.7l-22.7,0l-12.7-26.1l-11.1,26.1L673.3,694.6"/>
	<path id="path198" inkscape:connector-curvature="0" fill="#FFFFFF" d="M389.4,633.2h-9.9v28.2h8.4c6.9,0,8.3-4.4,8.3-7.6l0-14
		C396.2,635.7,393.4,633.2,389.4,633.2"/>
	<path id="path200" inkscape:connector-curvature="0" fill="#FFFFFF" d="M639.1,643.2l6.6,26.5h-13.1L639.1,643.2"/>
</g>
</svg>
