<svg xmlns="http://www.w3.org/2000/svg" width="141.679" height="20.743" viewBox="0 0 141.679 20.743">
  <g id="logo-samsung" transform="translate(71.742 2.352)">
    <path id="Path_666" data-name="Path 666" d="M14.634,7.3A18.245,18.245,0,0,0,12.4,6.116a17.6,17.6,0,0,1-3.162-1.8,1.838,1.838,0,0,1-.426-2.094,1.309,1.309,0,0,1,1.339-.737s1.415.078,1.415,1.24v1.64h5.07l-.01-2.416s.39-3.957-5.972-4.13c0,0-5-.329-6.438,2.366,0,0-.563.6-.563,2.694V4.389a5,5,0,0,0,.835,2.87A6.609,6.609,0,0,0,6.236,8.81s2.521,1.358,4.033,2.134c0,0,1.528.872,1.326,2.258A1.5,1.5,0,0,1,10,14.569a1.409,1.409,0,0,1-1.348-1.457V11.472h-5.4v2.382s-.152,4.554,6.791,4.554c0,0,6.631.135,6.942-4.675V11.8a5.064,5.064,0,0,0-2.345-4.5Z" transform="translate(-8.686 -0.018)" fill="#0061aa" fill-rule="evenodd"/>
    <path id="Path_667" data-name="Path 667" d="M-14.881-1.541-16.579,9.1h-.4L-18.6-1.446h-8.469l-.424,19.264h5.014l.06-14.515h.394l2.658,14.512h5.275l2.625-14.506h.349l.121,14.509h5.04L-6.5-1.541Z" transform="translate(-5.126 -0.094)" fill="#0061aa" fill-rule="evenodd"/>
    <path id="Path_668" data-name="Path 668" d="M-47.424-1.451-50.76,17.807h5.4l1.976-14.932h.444l1.975,14.932h5.4L-38.905-1.451Z" transform="translate(-2.43 -0.104)" fill="#0061aa" fill-rule="evenodd"/>
    <path id="Path_669" data-name="Path 669" d="M80.248,7.015V9.857h1.384v3.049a1.386,1.386,0,1,1-2.765.1V2.459c0-1.087,1.374-1.145,1.374-1.145a1.288,1.288,0,0,1,1.33,1.3v1.6h5.082c.165-3.13-.458-3.888-.458-3.888C84.934-2.5,80.165-2.35,80.165-2.35c-7.329,0-6.516,5.623-6.516,5.623v10.2c.157,5.274,7.378,4.739,7.5,4.732,3.213-.355,4.183-1.376,4.183-1.376a3.128,3.128,0,0,0,1.124-1.581,9.393,9.393,0,0,0,.318-2.24V7.015Z" transform="translate(-16.838)" fill="#0061aa" fill-rule="evenodd"/>
    <path id="Path_670" data-name="Path 670" d="M60.549,10.244h-.221L55.17-1.536H49V17.822h5.021l-.3-11.779h.224l5.343,11.779h5.985V-1.538H60.188l.362,11.781Z" transform="translate(-13.986 -0.094)" fill="#0061aa" fill-rule="evenodd"/>
    <path id="Path_671" data-name="Path 671" d="M34.023,13s.073,1.589-1.4,1.589a1.453,1.453,0,0,1-1.55-1.549L31.058-1.523H25.549V12.923s-.565,5.468,7.151,5.468c0,0,6.706.08,6.706-5.217v-14.7H34.023V13Z" transform="translate(-11.269 -0.096)" fill="#0061aa" fill-rule="evenodd"/>
    <path id="Path_672" data-name="Path 672" d="M-60.356,7.3a18.208,18.208,0,0,0-2.23-1.182,17.457,17.457,0,0,1-3.16-1.8,1.836,1.836,0,0,1-.426-2.093,1.306,1.306,0,0,1,1.337-.737s1.416.077,1.416,1.24v1.64h5.072l-.011-2.416s.388-3.956-5.972-4.129a11.407,11.407,0,0,0-1.182,0s-3.852.207-5.23,2.32c-.007.015-.019.027-.027.042s-.562.6-.562,2.694V4.389a5,5,0,0,0,.835,2.87A6.589,6.589,0,0,0-68.751,8.81s2.519,1.357,4.032,2.133c0,0,1.529.872,1.327,2.259a1.5,1.5,0,0,1-1.6,1.366,1.409,1.409,0,0,1-1.348-1.457v-1.64h-5.4v2.383s-.151,4.554,6.79,4.554c0,0,6.631.135,6.942-4.675V11.8a5.067,5.067,0,0,0-2.347-4.5Z" transform="translate(0 -0.018)" fill="#0061aa" fill-rule="evenodd"/>
  </g>
</svg>
