<?xml version="1.0" encoding="utf-8"?>
<!-- Generator: Adobe Illustrator 23.0.3, SVG Export Plug-In . SVG Version: 6.00 Build 0)  -->
<svg version="1.1" id="svg1996" xmlns:svg="http://www.w3.org/2000/svg"
	 xmlns="http://www.w3.org/2000/svg" xmlns:xlink="http://www.w3.org/1999/xlink" x="0px" y="0px" width="927.4px" height="114.5px"
	 viewBox="0 0 927.4 114.5" enable-background="new 0 0 927.4 114.5" xml:space="preserve">
<g id="layer1" transform="translate(-365.9421,-784.3699)">
	<g id="g2498" transform="translate(7.080345,7.079058)">
		<path id="path113986" fill="#01267E" d="M365.9,785.5h73.8c25.7,0,31.9,14.3,31.9,33.6v8.5c0,14.5-5.7,31.4-24.9,31.4H393v24.6
			h-27V785.5z M393,834.6h42.2c6.2,0,8.6-4.6,8.6-10.4v-3.7c0-6.7-2.9-10.4-11.1-10.4H393V834.6"/>
		<path id="path113996" fill="#01267E" d="M486,785.5h81.8c20.9,0,26.4,11.6,26.4,29.2v6.2c0,13.2-2.6,20.9-15.2,24.1v0.3
			c8.1,1.6,14.8,5.5,14.8,21.7v16.6h-27v-11.7c0-10.4-2.8-13.7-11.1-13.7h-42.7v25.4h-27V785.5z M513.1,833.7h44.8
			c7.3,0,9.9-3.3,9.9-10.3v-3.3c0-8.6-3.9-10.3-12.4-10.3h-42.4V833.7"/>
		<path id="path114000" fill="#01267E" d="M651.4,785.5h35.2l48.6,98.1H705l-8.3-17.4h-54.9l-8,17.4h-30.1L651.4,785.5z
			 M651.9,845.1h34.7L669,808.3L651.9,845.1"/>
		<path id="path114004" fill="#01267E" d="M744.6,785.5h27v36h12.7l34.1-36h36.8l-47.7,47.9l53.4,50.2h-38.3L783.5,846h-11.9v37.6
			h-27V785.5"/>
		<path id="path114008" fill="#01267E" d="M864.3,785.5h103.1v24.4h-38.1v73.6h-27v-73.6h-38V785.5"/>
		<path id="path114012" fill="#01267E" d="M980.5,785.5h27v98.1h-27V785.5z"/>
		<path id="path114016" fill="#01267E" d="M1025.1,819.9c0-28.7,14.5-35.5,38.8-35.5h31.8c38.6,0,43.7,9.3,43.3,37h-27v-2.6
			c0-7.2-4.6-9.1-12.7-9.1h-29.5c-14.3,0-16.9,7.5-16.9,19.6v10.6c0,14.3,2.6,19.7,15.5,19.7h28.8c12.2,0,16-1.3,16-13.5h27v9.1
			c0,16.6-5.4,29.7-32.6,29.7h-43.7c-24.3,0-38.8-6.8-38.8-35.5V819.9"/>
		<path id="path114020" fill="#01267E" d="M1195.4,785.5h35.2l48.6,98.1H1249l-8.3-17.4h-54.9l-8,17.4h-30.1L1195.4,785.5z
			 M1195.9,845.1h34.5l-17.4-36.8L1195.9,845.1"/>
	</g>
</g>
</svg>
