<?xml version="1.0" encoding="utf-8"?>
<!-- Generator: Adobe Illustrator 23.0.3, SVG Export Plug-In . SVG Version: 6.00 Build 0)  -->
<svg version="1.1" id="svg1187" xmlns:svg="http://www.w3.org/2000/svg"
	 xmlns="http://www.w3.org/2000/svg" xmlns:xlink="http://www.w3.org/1999/xlink" x="0px" y="0px" width="563px" height="171px"
	 viewBox="0 0 563 171" enable-background="new 0 0 563 171" xml:space="preserve">
<title  id="title5683">Mamiya logo</title>
<g id="surface1175" transform="translate(0,-748.33335)">
	<g id="g5681" transform="matrix(1.0077664,0,0,1.0077664,-1.3200003,-10.622412)">
		<g id="g5692" transform="translate(0,34.182267)">
			<path id="path488" fill="#FC001B" d="M381.7,747.4c0,7.5-6.1,13.7-13.7,13.7c-7.6,0-13.7-6.1-13.7-13.7c0-7.6,6.1-13.7,13.7-13.7
				C375.6,733.7,381.7,739.8,381.7,747.4"/>
			<path id="path490" fill="#FC001B" d="M220.5,768.2h-20.9v9.6c-5.5-6.3-13-9.6-21.9-9.6c-20.6,0-36.7,17.1-36.7,38.9
				c0,20.7,16.8,38.3,36.7,38.3c8.7,0,16.3-3.4,21.9-9.6v9.3h22.6v-76.8H220.5z M181.9,824.4c-9.8,0-17.8-8-17.8-17.8
				c0-9.8,8-17.8,17.8-17.8c9.8,0,17.8,8,17.8,17.8C199.7,816.4,191.7,824.4,181.9,824.4"/>
			<path id="path492" fill="#FC001B" d="M137.7,842.9l-17.1-100.3H96.4l-18.9,54.1l-18.9-54.1H34.5L17,845h22.8l9.6-59.4l19.8,59.3
				h16.5l19.8-59.3l9.6,59.4H138L137.7,842.9"/>
			<path id="path494" fill="#FC001B" d="M544,768.2h-20.9v9.6c-5.5-6.3-12.9-9.6-21.9-9.6c-20.6,0-36.7,17.1-36.7,38.9
				c0,20.7,16.8,38.3,36.7,38.3c8.7,0,16.3-3.4,21.9-9.6v9.3h22.7v-76.8H544z M505.4,824.4c-9.8,0-17.8-8-17.8-17.8
				c0-9.8,8-17.8,17.8-17.8s17.8,8,17.8,17.8C523.2,816.4,515.3,824.4,505.4,824.4"/>
			<path id="path496" fill="#FC001B" d="M344.3,843.1v-49.3c0,0,0-1.7-0.1-1.7h-0.1c-0.8-14.1-11-23.9-25.5-23.9
				c-9.2,0-16.5,3.9-20.5,10.7c-4.5-6.8-12.3-10.7-21.3-10.7c-7.7,0-15.2,4.2-19.9,10.6v-10.6h-22.7v76.7h22.7v-44.3
				c0-5.8,4.7-10.5,10.5-10.5c5.6,0,10.1,4.3,10.5,9.8l0,45h23.5V795c1.9-3,5.3-4.9,8.8-4.9c5.8,0,10.5,4.7,10.5,10.4v44.4h23.5
				L344.3,843.1"/>
			<path id="path498" fill="#FC001B" d="M379.4,770v74.9h-22.7v-76.7h22.7V770"/>
			<path id="path500" fill="#FC001B" d="M469.3,768.3h-22.8l-19.8,41.1l-17.1-41.1H384l29.2,69.4l-17.9,37.1H421l51.2-106.5
				L469.3,768.3"/>
		</g>
	</g>
</g>
</svg>
