<?xml version="1.0" encoding="utf-8"?>
<!-- Generator: Adobe Illustrator 23.0.3, SVG Export Plug-In . SVG Version: 6.00 Build 0)  -->
<svg version="1.1" id="svg2835" xmlns:svg="http://www.w3.org/2000/svg"
	 xmlns="http://www.w3.org/2000/svg" xmlns:xlink="http://www.w3.org/1999/xlink" x="0px" y="0px" width="1024px" height="166px"
	 viewBox="0 0 1024 166" enable-background="new 0 0 1024 166" xml:space="preserve">
<g id="layer1" transform="translate(-245.42679,-524.64799)">
	<path id="path19945" fill="#A41A4A" d="M821.6,524.6c-1.2,4.5-2.4,8-7.8,8c-6.8,0-17.7-7.8-36.5-7.8c-44.3,0-51.6,32-51.6,46.2
		c0,10.7,0,30.7,40,49.9l15.6,7.5c15.2,7.2,26.3,12.9,26.3,28.5c0,3-1.2,26.1-29.3,26.1c-29.9,0-43.4-26.4-48.1-50h-6.7v57.7h6.7
		c0.9-3.7,2.1-8,7-8c7.3,0,17.9,8,40.1,8c43.2,0,58.1-28.2,58.1-48.7c0-25.4-17.8-39-25.8-43l-34.4-17c-19.6-9.8-24-14.8-24-27.4
		c0-15.2,12.8-22.3,25-22.3c27.6,0,41.7,26.8,45.9,43.2h6.5v-50.6H821.6z M428.7,524.8c-10.5,0-18.2,8.4-18.2,18.2
		c0,10,7.4,18,18.2,18c10,0,18-7.7,18-18C446.7,532.9,438.7,524.8,428.7,524.8z M1110.5,524.8c-10.5,0-18.3,8.4-18.3,18.2
		c0,10,7.6,18,18.3,18c10,0,17.8-7.7,17.8-18C1128.3,532.9,1120.5,524.8,1110.5,524.8z M246.3,528.2v5.9
		c10.1,1.6,13.5,2.4,19.6,16.4l59.9,139.8h6.4l53.4-137.1c5.1-13.1,8.2-17.5,21-19.1v-5.9h-49.9v5.9c13.3,0.7,20.2,1.6,20.2,10.7
		c0,4.7-2.7,10.9-4.8,16.2l-29.6,76.8L311.8,564c-2.3-5.8-7-15.6-7-20.1c0-8.9,5.5-8.9,20.2-9.9v-5.9H246.3z M1251.3,554.7
		c-9.4,0-17.4,7.2-17.4,17c0,9.9,7.9,17.2,17.4,17.2c9.3,0,17.2-7.3,17.2-17.2C1268.5,562,1260.6,554.7,1251.3,554.7z M1251.3,557.6
		c7.8,0,13.9,6.1,13.9,14.2c0,8.2-6.1,14.3-13.9,14.3c-7.8,0-14-6.1-14-14.3C1237.3,563.7,1243.4,557.6,1251.3,557.6z M1244.6,562.1
		v19.6h3v-8.4h3.5l5.3,8.4h3.3l-5.7-8.6c2.9-0.4,5.1-1.9,5.1-5.4c0-3.9-2.2-5.6-6.8-5.6H1244.6z M1247.6,564.6h4.1
		c2.1,0,4.3,0.4,4.3,2.9c0,3-2.2,3.2-4.8,3.2h-3.7V564.6z M509.3,575.3c-26.9,0-48.1,22.1-48.1,56.7c0,40.1,23.9,57.5,47.5,57.5
		c18.7,0,31.9-7.5,46.2-29.3l-5.6-3.3c-4.4,5.4-12.7,15.8-26.4,15.8c-22.2,0-27.3-23.9-28-43.8h58.9
		C553,616.3,549.9,575.3,509.3,575.3z M897.9,575.3c-32.5,0-52.9,27.1-52.9,57.3c0,30.5,20.3,56.9,52.9,56.9
		c31.8,0,52.6-25.7,52.6-56.9C950.4,600.1,928.5,575.3,897.9,575.3z M1033.1,575.3c-20,0-30,14.3-33.3,19.9h-0.5v-16.9h-44.6v5.4
		c9.4,1.4,12.4,3.3,12.4,13.9v69c0,11.5-4,12.5-12.4,14.2v5.6h56.4v-5.6c-10.8-1.2-11.6-8-11.6-13.4v-62.6
		c0-2.1,10.2-13.7,19.6-13.7c12.7,0,12.9,13,12.9,19.6v56.7c0,8.7-3.2,12.7-11,13.4v5.6h54.9v-5.6c-11.5-0.5-11.5-7.7-11.5-13.4
		v-58.9C1064.5,582.6,1045.9,575.3,1033.1,575.3z M1197.9,575.3c-21.8,0-55.1,14.4-55.1,60.5c0,28.8,20.2,53.7,50,53.7
		c18.4,0,33.8-9.4,44.6-24.7l-4.1-4.1c-5.6,6.3-11.7,13.1-25,13.1c-18.1,0-32.3-19-32.3-51.8c0-10.5,1.7-39.3,19.7-39.3
		c3.5,0,9.4,2.2,9.4,9.2c0,12.6,0.1,24,13.2,24c1.9,0,15.9,0,15.9-15C1234.2,584.1,1214.5,575.3,1197.9,575.3z M400.3,578.3v5.4
		c8.9,1.6,12.4,3.3,12.4,13.9v69c0,11.3-4,12.1-12.4,14.2v5.6h55.9v-5.6c-9.1-0.9-11-6.1-11-13.4v-89H400.3z M558.2,578.3v5.4
		c6.1,1.2,7.3,2.9,13.4,18.2l34.6,87.6h5.7l28.5-71h1.1l23.4,71h5.4l36.3-94c4-10.3,7.2-10.8,11.6-11.8v-5.4h-31.5v5.4
		c6.6,0.7,11.1,1.3,11.1,8.8c0,5.2-11.8,33-18.2,50.8h-0.5C675,625,665,594.6,665,589.6c0-4.9,5.2-5.4,11.3-5.9v-5.4h-54.8v5.4
		c5.6,0.7,8.2,0.8,10.4,5.7c1.2,2.8,2.6,7.5,4.9,15.4l-15.9,40.1c-11.7-31.4-19.7-49.2-19.7-54.2c0-6.1,5.6-6.7,8.9-7.2v-5.4H558.2z
		 M1082,578.3v5.4c8.9,1.6,12.4,3.3,12.4,13.9v69c0,11.3-4,12.1-12.4,14.2v5.6h55.9v-5.6c-9.1-0.9-11-6.1-11-13.4v-89H1082z
		 M510.2,582.6c8.2,0,11.2,6,12.6,11.1c1.9,7.1,1.8,19.2,2.1,26.4h-31.2C493.7,587.8,501.6,582.6,510.2,582.6z M897.9,582.6
		c14.3,0,18.3,13.9,18.3,50c0,29.8-2,49.5-18.2,49.5c-18.8,0-18.6-24.2-18.6-49.5C879.4,605.9,880.5,582.6,897.9,582.6z"/>
</g>
</svg>
