<?xml version="1.0" encoding="utf-8"?>
<!-- Generator: Adobe Illustrator 23.0.3, SVG Export Plug-In . SVG Version: 6.00 Build 0)  -->
<svg version="1.1" id="Layer_1" xmlns="http://www.w3.org/2000/svg" xmlns:xlink="http://www.w3.org/1999/xlink" x="0px" y="0px"
	 width="2500px" height="537.9px" viewBox="0 0 2500 537.9" enable-background="new 0 0 2500 537.9" xml:space="preserve">
<g>
	<path fill-rule="evenodd" clip-rule="evenodd" d="M2475,116.8h-169.2l-193,302.1h104.9l37.8-60.1h115l1.1,60.1h107.7L2475,116.8
		L2475,116.8z M2284.8,314l82.5-131.5l2.3,131.5H2284.8z M223.3,110.7c-91-0.4-145.7,29.9-160.1,99.9
		C40.9,318.2,220.9,272.1,218.4,323c-1.2,24.6-18.9,41.1-48.7,41.1c-44.7-0.3-39.2-23.5-34.3-45.6H21C-2.4,398,55,429,151.1,429
		c100.1,0,166.5-26,181.4-102.6c23.4-120.2-174.1-68.4-158.6-125c6.9-20.3,9.7-28.7,44.6-27.3c35,1.4,32.8,24.9,28.3,39.7h113.3
		C366.8,140.6,347.2,111.3,223.3,110.7L223.3,110.7z M842.5,116.8H734.8l-89.5,302.1h246.2l19.6-68.5H771.1L842.5,116.8z
		 M2068.5,116.8L1979,418.9h104.9l92.3-302.1H2068.5L2068.5,116.8z M1191,116.8l-148.2,242l-2.8-242H937.9l4.2,302.1h166.4
		l193-302.1H1191L1191,116.8z M1546.1,116.8h-169.2l-193,302.1h104.9l37.8-60.1h115l1.1,60.1h107.7L1546.1,116.8L1546.1,116.8z
		 M1355.9,314l82.5-131.5l2.3,131.5H1355.9z M1921.7,116.8L1860.1,321l-33.6-204.2h-153.8l-89.5,302.1h83.9l65.7-219.6l36.4,219.6
		h145.5l92.3-302.1H1921.7z M618.9,116.8L515.4,253.9l-30.8-137.1H372.8l58.7,209.8l-26.6,92.3h106.3l23.8-78.3l183.2-223.8H618.9z"
		/>
</g>
</svg>
