<?xml version="1.0" encoding="utf-8"?>
<!-- Generator: Adobe Illustrator 19.2.1, SVG Export Plug-In . SVG Version: 6.00 Build 0)  -->
<svg version="1.1" id="layer" xmlns="http://www.w3.org/2000/svg" xmlns:xlink="http://www.w3.org/1999/xlink" x="0px" y="0px"
	 viewBox="0 0 652 652" style="enable-background:new 0 0 652 652;" xml:space="preserve">
<style type="text/css">
	.st0{fill:#FF6B00;}
	.st1{fill:#FFFFFF;}
	.st2{fill:#FFC629;}
</style>
<path class="st0" d="M539,139.7c0-9.1-5.3-16.5-12.3-20c0,0-73.3-47.3-234.1-47.3c-162.9,0-243.9,47.3-243.9,47.3
	c-8.8,4.6-12.3,11.2-12.3,19.3v433.4h503L539,139.7z"/>
<path class="st1" d="M133.6,382.6h-30.9c-0.7,0-1.1,0.4-1.4,1.1l-3.2,18.9c0,0.7,0.4,1.1,0.7,1.1h30.9c0.7,0,1.1-0.4,1.4-1.1
	l3.2-18.9C134.6,383,134.3,382.6,133.6,382.6"/>
<path class="st1" d="M457.9,432.4L457.9,432.4l-8.4,47.4c-0.7,4.6-2.5,6.3-6.7,6.3H414c-4.2,0-5.3-1.8-4.6-6.3l8.4-47.4
	c0.7-4.6,2.5-6.3,6.7-6.3h28.8C457.9,426.1,458.6,427.9,457.9,432.4 M471.9,412.4h-60.7c-14.7,0-23.2,7.4-26,23.5l-7.4,40.7
	c-2.8,16.1,3.2,23.5,17.9,23.5h60.7c15.1,0,23.2-7.4,26-23.5l7.4-40.7C492.6,419.8,486.7,412.4,471.9,412.4"/>
<path class="st1" d="M336.8,432.4L336.8,432.4l-8.4,47.4c-0.7,4.6-2.5,6.3-6.7,6.3h-28.8c-4.2,0-5.3-1.8-4.2-6.3l8.4-47.4
	c0.7-4.6,2.5-6.3,6.7-6.3h28.8C336.8,426.1,337.9,427.9,336.8,432.4 M350.8,412.4h-60.7c-14.7,0-23.2,7.4-26,23.5l-7.4,40.7
	c-2.8,16.1,3.2,23.5,17.9,23.5h50.6l-2.1,10.5c-1.4,6.7-3.2,7.4-8.1,7.4h-47.8c-0.7,0-1.1,0.4-1.4,1.1l-6.7,16.1
	c0,0.7,0.4,1.1,0.7,1.1h70.2c0.4,0,0.4,0,0.7,0h0.7c12.3-0.4,21.4-11.2,24.2-27.7l13.3-76.4C370.5,418.4,364.5,412.4,350.8,412.4"/>
<path class="st1" d="M229.4,412.4h-60.7c-14,0-22.1,6.3-25.3,20.3l-11.6,66.3c0,0.7,0.4,1.1,1.1,1.1H163c0.7,0,1.1-0.4,1.4-1.1
	c0-0.4,0.4-2.5,0.7-3.2l10.9-63.5c0.7-4.6,2.5-6.3,6.7-6.3h28.8c4.2,0,5.3,1.8,4.2,6.3l-11.6,66.3c0,0.7,0.4,1.1,0.7,1.1H235
	c0.7,0,1.1-0.4,1.4-1.1c0-0.7,0.4-2.5,0.7-3.2l10.9-60C250.1,419.8,244.1,412.4,229.4,412.4"/>
<path class="st1" d="M129,412.4H98.1c-0.7,0-1.1,0.4-1.4,1.1l-15.1,85.6c0,0.7,0.4,1.1,0.7,1.1h30.9c0.7,0,1.1-0.4,1.4-1.1
	l15.1-85.6C130.1,413.2,129.4,412.4,129,412.4"/>
<path class="st2" d="M305.5,342.7h184.6V194.4C369.4,192.3,319.6,280.6,305.5,342.7"/>
<path class="st2" d="M490.5,157.9c-27.7-31.2-115.5-48.4-204.3-48.4c-87.4,0.4-175.1,16.1-204.3,48V343
	c51.9-75,177.2-173.6,408.5-161.7V157.9z"/>
<g>
	<path class="st0" d="M585,534.1c-9.5,0-17.5,7.7-17.5,17.5c0,9.5,7.7,17.5,17.5,17.5c9.5,0,17.5-7.7,17.5-17.5
		C602.1,541.8,594.4,534.1,585,534.1z M585,572c-11.2,0-20.7-9.1-20.7-20.7c0-11.2,9.1-20.7,20.7-20.7c11.2,0,20.7,9.1,20.7,20.7
		C605.7,562.9,596.2,572,585,572z"/>
</g>
<path class="st0" d="M585.7,551.3c1.4,0,2.5-0.4,3.2-1.1c0.7-0.7,1.1-1.4,1.1-2.5s-0.4-2.1-1.1-2.5c-0.7-0.7-1.8-1.1-3.2-1.1h-5.3v7
	H585.7z M576.9,540.8h9.5c1.4,0,2.5,0.4,3.5,0.7c1.1,0.4,1.8,1.1,2.5,1.4c0.7,0.7,1.1,1.4,1.4,2.1c0.4,0.7,0.4,1.8,0.4,2.5
	c0,0.7,0,1.8-0.4,2.5c-0.4,0.7-0.7,1.4-1.1,1.8c-0.4,0.7-1.1,1.1-1.4,1.4c-0.7,0.4-1.4,0.7-2.1,0.7l5.6,8.1h-4.2l-5.3-7.4h-4.6v7.4
	h-3.5v-21H576.9z"/>
</svg>
