<?xml version="1.0" encoding="utf-8"?>
<!-- Generator: Adobe Illustrator 23.0.3, SVG Export Plug-In . SVG Version: 6.00 Build 0)  -->
<svg version="1.1" id="svg2" xmlns:svg="http://www.w3.org/2000/svg"
	 xmlns="http://www.w3.org/2000/svg" xmlns:xlink="http://www.w3.org/1999/xlink" x="0px" y="0px" width="800px" height="500px"
	 viewBox="0 0 800 500" enable-background="new 0 0 800 500" xml:space="preserve">
<g id="layer1" transform="translate(0,-552.36218)">
	<path id="path2844-1" fill="none" stroke="#000000" stroke-width="9.3727" stroke-linecap="round" d="M540.3,663.7L521,645.5
		c-7.8-7.3-26.1-8.1-38.3,2.4c-12.2,10.5-11.1,34.6,0.4,46.2l46.9,46c11.5,11.5,12.6,35.7,0.4,46.2s-30.5,9.7-38.3,2.4l-31.7-29.7"
		/>
	<path id="path2844-1-7" fill="none" stroke="#000000" stroke-width="8.6346" stroke-linecap="round" d="M641.4,679.9l-14.7-11.5
		c-7.8-6.1-26.4-6.3-38.7,2.6c-12.3,8.8-11.3,29.1,0.4,38.8l42.6,34.4c11.6,9.7,8,23.6-1.6,35.3c-11.1,13.6-35.2,8.7-41.4,1.6
		l-14.6-16.7"/>
	<path id="path3663" fill="none" stroke="#000000" stroke-width="9.3727" stroke-linecap="round" d="M418.4,633.7v159.4"/>
	<path id="path3665" fill="none" stroke="#000000" stroke-width="9.3727" stroke-linecap="round" stroke-linejoin="round" d="
		M367.9,634.9l-67.9,9.5l-1.2,142.8l67.9,3.6"/>
	<path id="path3667" fill="none" stroke="#000000" stroke-width="9.3727" stroke-linecap="round" d="M300.5,707.1l66.7,1.6"/>
	<path id="path3669" fill="none" stroke="#000000" stroke-width="9.3727" stroke-linecap="round" stroke-linejoin="round" d="
		M174.2,668l75.7-16.2l-76.1,125.4l80.9,10.7"/>
	<path id="path3671" fill="#FF0000" stroke="#000000" stroke-width="9.3727" stroke-linecap="round" d="M223.6,857.4v95.5"/>
	<path id="path3671-4" fill="#FF0000" stroke="#000000" stroke-width="9.3727" stroke-linecap="round" d="M275.2,858.6v87.2"/>
	<path id="path3671-9" fill="#FF0000" stroke="#000000" stroke-width="9.3727" stroke-linecap="round" d="M346.6,866.5l-70.2,44.2"
		/>
	<path id="path3671-8" fill="#FF0000" stroke="#000000" stroke-width="9.3727" stroke-linecap="round" d="M306,893.3l37.5,45.8"/>
	<path id="path3731" fill="none" stroke="#000000" stroke-width="9.3727" stroke-linecap="round" stroke-linejoin="round" d="
		M504,946.5v-78.1l78.1,80.5v-90.3"/>
	<path id="path3733" fill="none" stroke="#000000" stroke-width="3" stroke-linecap="round" stroke-linejoin="round" d="M463,904.7
		c0,20.9-18.5,37.9-41.4,37.9c-22.9,0-41.4-16.9-41.5-37.8c0,0,0-0.1,0-0.1c0-20.9,18.5-37.9,41.4-37.9c22.9,0,41.4,16.9,41.5,37.8
		C463,904.7,463,904.7,463,904.7z"/>
	<path id="path3737" fill="none" stroke="#000000" stroke-width="9.3727" d="M31.3,690.4v282.3l51.3,39.1
		c216.6-48.7,430.9-55.4,641.6,0l50.2-39.1V690.4C525.2,568.7,277.5,571.2,31.3,690.4z"/>
	<path id="path3739" fill="none" stroke="#000000" stroke-width="9.3727" d="M30.2,804.3c248.5,37.2,496.9,37.2,745.4,0"/>
</g>
</svg>
