<svg xmlns="http://www.w3.org/2000/svg" width="131.354" height="20.94" viewBox="0 0 131.354 20.94">
  <g id="logo-hitachi" transform="translate(0 -0.5)">
    <path id="path996" d="M79,.936V8.959H89.881V.936h5.3V21.2h-5.3V12.222H79v8.838H73.7V.8H79Z" transform="translate(26.515 0.108)" fill="#231916"/>
    <path id="path1000" d="M46.02.9V4.3H37.862V21.025h-5.3V4.3H24.4V.9H46.02" transform="translate(8.778 0.144)" fill="#231916"/>
    <path id="path1004" d="M62.364,21.061H56.381l-1.768-4.351H44.551l-1.768,4.351H36.8L46.182.8h6.527ZM49.582,4.335,45.91,13.582h7.479C53.389,13.446,49.582,4.335,49.582,4.335Z" transform="translate(13.239 0.108)" fill="#231916"/>
    <path id="path1006" d="M92.7.9H98V21.161H92.7Z" transform="translate(33.351 0.144)" fill="#231916"/>
    <path id="path1018" d="M5.3.936V8.959H16.181V.936h5.3V21.2h-5.3V12.222H5.3v8.838H0V.8H5.3Z" transform="translate(0 0.108)" fill="#231916"/>
    <path id="path1020" d="M18.9.9h5.3V21.161H18.9Z" transform="translate(6.8 0.144)" fill="#231916"/>
    <path id="path1032" d="M55.58,15.593a11.682,11.682,0,0,1-.68-4.351A11.617,11.617,0,0,1,56.26,5.4a9.056,9.056,0,0,1,4.623-3.807A17.307,17.307,0,0,1,66.866.5a18.936,18.936,0,0,1,6.8,1.36,6.549,6.549,0,0,1,3.807,4.623,3.765,3.765,0,0,1,.136,1.224H72.033a4.888,4.888,0,0,0-.272-1.5A3.762,3.762,0,0,0,69.314,3.9,6.352,6.352,0,0,0,67,3.491a7.917,7.917,0,0,0-2.584.408,4.788,4.788,0,0,0-2.856,2.991,14.4,14.4,0,0,0-.68,4.215,14.783,14.783,0,0,0,.544,3.535,4.428,4.428,0,0,0,2.856,3.127,10.591,10.591,0,0,0,2.856.544,7.7,7.7,0,0,0,2.448-.408,3.48,3.48,0,0,0,2.312-2.04,5.637,5.637,0,0,0,.408-2.176H77.88a8.025,8.025,0,0,1-.272,1.9A6.655,6.655,0,0,1,73.8,20.081a17.06,17.06,0,0,1-6.935,1.36,18.172,18.172,0,0,1-5.439-.816,8.087,8.087,0,0,1-5.847-5.031" transform="translate(19.751)" fill="#231916"/>
  </g>
</svg>
