<?xml version="1.0" encoding="UTF-8" standalone="no"?>
<!-- Created with Inkscape (http://www.inkscape.org/) -->
<!DOCTYPE svg PUBLIC "-//W3C//DTD SVG 1.1//EN" "http://www.w3.org/Graphics/SVG/1.1/DTD/svg11.dtd">
<svg xmlns:svg="http://www.w3.org/2000/svg" xmlns="http://www.w3.org/2000/svg" version="1.1" width="400" height="190" id="svg3058">
  <defs id="defs3122"/>
  <g transform="matrix(2.1621611,0,0,2.1621611,-8.3868274,-1415.4555)" id="g3624">
    <g id="g3068" style="fill:#f0a27f;fill-rule:evenodd;stroke-width:0;stroke-linecap:butt;stroke-linejoin:miter;stroke-miterlimit:2.61310005">
	<path d="m 155.57,716.766 c 15.84,0 28.684,-12.84 28.684,-28.68 0,-15.84 -12.844,-28.684 -28.684,-28.684 l -118.3825,0 c -15.8437,0 -28.68359,12.844 -28.68359,28.684 0,15.84 12.83989,28.68 28.68359,28.68 z" id="path3070" style="fill:#00539b;fill-opacity:1"/>

</g>
    <g id="g3072" style="fill:#ffffff;fill-rule:evenodd;stroke-width:0;stroke-linecap:butt;stroke-linejoin:miter;stroke-miterlimit:2.61310005">
	<path d="m 155.129,713.332 c 13.93,0 25.223,-11.289 25.223,-25.223 0,-13.929 -11.293,-25.222 -25.223,-25.222 l -117.6056,0 c -13.9296,0 -25.2226,11.293 -25.2226,25.222 0,13.934 11.293,25.223 25.2226,25.223 z" id="path3074"/>

</g>
    <g id="g3076" style="fill:#f0a27f;fill-rule:evenodd;stroke-width:0;stroke-linecap:butt;stroke-linejoin:miter;stroke-miterlimit:2.61310005">
	<path d="m 155.258,708.012 c 11.012,0 19.937,-8.926 19.937,-19.934 0,-11.012 -8.925,-19.937 -19.937,-19.937 l -117.551,0 c -11.0117,0 -19.9375,8.925 -19.9375,19.937 0,11.008 8.9258,19.934 19.9375,19.934 z" id="path3078" style="fill:#00539b;fill-opacity:1"/>

</g>
    <g id="g3080" style="fill:#ffffff;fill-rule:evenodd;stroke-width:0;stroke-linecap:butt;stroke-linejoin:miter;stroke-miterlimit:2.61310005">
	<path d="m 37.2656,679.547 0.5703,0 c 1.5821,0 2.0704,0.57 2.0704,2.262 l 0,8.804 c 0,1.692 -0.4883,2.262 -2.0704,2.262 l -0.5703,0 z m -8.2031,-5.098 0,4.145 c 0.8438,0.355 0.8984,1.035 0.9258,1.851 l 0,11.367 c -0.0274,0.79 -0.1094,1.501 -0.9258,1.852 l 0,4.145 10.3008,0 c 2.207,0 4.2773,-0.137 5.9414,-1.719 1.7734,-1.66 1.8828,-3.434 1.8828,-5.723 l 0,-8.75 c 0,-2.234 -0.1914,-4.359 -2.1016,-5.859 -1.6601,-1.281 -3.9531,-1.309 -5.9414,-1.309 z" id="path3082"/>

</g>
    <g id="g3084" style="fill:#ffffff;fill-rule:evenodd;stroke-width:0;stroke-linecap:butt;stroke-linejoin:miter;stroke-miterlimit:2.61310005">
	<path d="m 57.9531,686.687 -2.5078,0 0,-0.652 c 0,-0.683 0.1055,-1.746 1.2539,-1.746 1.1446,0 1.2539,1.063 1.2539,1.746 z m -8.9414,4.852 c 0,2.07 0.0821,3.981 1.8789,5.316 1.418,1.063 4.0625,1.5 6.6797,1.309 2.6445,-0.191 5.2891,-0.98 6.7031,-2.207 l 0,-4.309 -6.4296,0 0,0.629 c 0,0.871 -0.0821,1.879 -1.1993,1.879 -1.1211,0 -1.2265,-1.117 -1.1992,-1.965 l 0,-1.578 8.8281,0 0,-4.062 c 0.1094,-4.196 -1.4453,-6.293 -7.7656,-6.266 -6.0234,0.024 -7.6055,1.906 -7.4961,6.594 z" id="path3086"/>

</g>
    <g id="g3088" style="fill:#ffffff;fill-rule:evenodd;stroke-width:0;stroke-linecap:butt;stroke-linejoin:miter;stroke-miterlimit:2.61310005">
	<path d="m 65.7461,697.809 0,-4.145 c 0.875,-0.543 0.793,-1.414 0.793,-2.289 l 0,-10.492 c 0,-0.871 0.082,-1.746 -0.793,-2.289 l 0,-4.145 8.8594,0 0,4.145 c -0.8711,0.543 -0.7891,1.418 -0.7891,2.289 l 0,11.965 0.707,0 c 1.8516,0 1.8243,-1.118 1.8243,-2.59 l 0,-3.789 6.4062,0 0,11.34 z" id="path3090"/>

</g>
    <g id="g3092" style="fill:#ffffff;fill-rule:evenodd;stroke-width:0;stroke-linecap:butt;stroke-linejoin:miter;stroke-miterlimit:2.61310005">
	<path d="m 90.8516,686.852 c 0,-0.954 -0.1641,-2.563 1.2265,-2.563 1.3867,0 1.1992,1.637 1.1992,2.563 l 0,4.96 c 0,0.926 0.0782,2.344 -1.2265,2.344 -1.2813,0 -1.1992,-1.418 -1.1992,-2.344 z m 8.8554,-0.055 c 0,-2.18 -0.1367,-4.254 -2.207,-5.504 -1.5,-0.875 -4.1172,-1.008 -5.8594,-1.008 -1.9336,0 -4.0351,0.16 -5.5898,1.387 -1.6055,1.254 -1.6328,3.273 -1.6328,5.125 l 0,4.469 c 0,2.261 0,4.363 2.0976,5.75 1.5,1.011 4.0078,1.148 5.7774,1.148 1.9648,0 4.2539,-0.164 5.8086,-1.5 1.5507,-1.336 1.6054,-3.488 1.6054,-5.398 z" id="path3094"/>

</g>
    <g id="g3096" style="fill:#ffffff;fill-rule:evenodd;stroke-width:0;stroke-linecap:butt;stroke-linejoin:miter;stroke-miterlimit:2.61310005">
	<path d="m 108.32,681.699 c 1.746,-1.172 3.27,-1.469 4.633,-1.414 1.336,0.051 2.508,0.488 3.16,1.141 1.176,1.117 1.309,2.375 1.309,3.844 l 0,6.433 c 0,0.844 -0.078,1.797 0.766,2.262 l 0,3.844 -6.84,0 c -0.383,-1.746 -0.356,-3.571 -0.356,-5.34 l 0,-5.016 c 0,-0.109 0.082,-0.902 -0.191,-1.527 -0.438,-0.656 -1.145,-1.145 -2.207,-0.656 l 0,6.433 c 0,0.844 -0.082,1.797 0.789,2.262 l 0,3.844 -8.012,0 0,-3.844 c 0.844,-0.488 0.789,-1.281 0.789,-2.153 l 0,-5.207 c 0,-0.925 0.028,-1.527 -0.789,-2.125 l 0,-3.843 6.949,0 z" id="path3098"/>

</g>
    <g id="g3100" style="fill:#ffffff;fill-rule:evenodd;stroke-width:0;stroke-linecap:butt;stroke-linejoin:miter;stroke-miterlimit:2.61310005">
	<path d="m 128.816,692.984 c -0.328,0.192 -0.789,0.301 -1.144,0.301 -1.309,0 -1.309,-1.5 -1.309,-2.426 l 0,-3.789 c 0,-0.98 0,-2.125 1.282,-2.125 0.41,0 0.843,0.133 1.171,0.352 z m 7.223,-12.347 -7.059,0 0,0.98 c -1.226,-0.926 -2.726,-1.332 -4.253,-1.332 -3.84,0 -4.793,2.34 -4.793,6.074 l 0,6.461 c 0,3.762 1.851,5.344 5.097,5.344 1.223,0 2.641,-0.383 3.785,-1.254 l 0,1.09 c 0,0.98 0.164,2.672 -1.253,2.672 -0.516,0 -0.817,-0.274 -1.008,-0.656 -0.164,-0.379 -0.192,-0.871 -0.192,-1.254 l -5.968,0 0,4.117 c 2.507,1.387 4.664,1.824 7.523,1.824 1.961,0 4.441,-0.246 5.914,-1.687 1.5,-1.446 1.418,-4.063 1.418,-6 l 0,-10.411 c 0,-0.871 -0.055,-1.609 0.789,-2.125 z" id="path3102"/>

</g>
    <g id="g3104" style="fill:#ffffff;fill-rule:evenodd;stroke-width:0;stroke-linecap:butt;stroke-linejoin:miter;stroke-miterlimit:2.61310005">
	<path d="m 145.035,681.402 c 1.473,-0.875 2.996,-1.172 4.36,-1.117 1.335,0.051 2.507,0.488 3.164,1.141 1.171,1.117 1.308,2.375 1.308,3.844 l 0,6.433 c 0,0.844 -0.082,1.797 0.762,2.262 l 0,3.844 -6.84,0 c -0.383,-1.746 -0.355,-3.571 -0.355,-5.34 l 0,-5.016 c 0,-0.109 0.082,-0.902 -0.192,-1.527 -0.433,-0.656 -1.144,-1.145 -2.207,-0.656 l 0,6.433 c 0,0.844 -0.082,1.797 0.789,2.262 l 0,3.844 -8.011,0 0,-3.844 c 0.843,-0.488 0.789,-1.281 0.789,-2.153 l 0,-11.257 c 0.027,-0.871 0.082,-1.801 -0.817,-2.262 l 0,-3.844 7.25,0 z" id="path3106"/>

</g>
    <g id="g3108" style="fill:#ffffff;fill-rule:evenodd;stroke-width:0;stroke-linecap:butt;stroke-linejoin:miter;stroke-miterlimit:2.61310005">
	<path d="m 163.406,691.703 c 0,0.871 -0.082,1.746 0.817,2.262 l 0,3.844 -8.039,0 0,-3.844 c 0.843,-0.516 0.789,-1.281 0.789,-2.153 l 0,-5.07 c 0,-0.871 0.082,-1.746 -0.789,-2.262 l 0,-3.843 7.222,0 z m -6.953,-14.855 c 0,-1.852 1.91,-2.618 3.492,-2.618 1.606,0 3.461,0.875 3.461,2.727 0,1.797 -1.828,2.645 -3.41,2.645 -1.687,0 -3.543,-0.817 -3.543,-2.754 z" id="path3110"/>

</g>
    <g id="g3112" style="fill:#ffffff;fill-rule:evenodd;stroke-width:0;stroke-linecap:butt;stroke-linejoin:miter;stroke-miterlimit:2.61310005">
	<path d="m 49.8359,677.074 13.8594,0 0,1.199 -13.8594,0 z" id="path3114"/>

</g>
    <g id="g3116" style="fill:#00539b;fill-opacity:1;fill-rule:evenodd;stroke-width:0;stroke-linecap:butt;stroke-linejoin:miter;stroke-miterlimit:2.61310005">
	<path d="m 169.473,725.078 c 0.347,0.625 0.281,1.594 -0.067,2.774 l -2.152,6.242 -1.664,0 1.875,-5.481 0.414,-1.246 c 0.07,-0.418 0.141,-0.762 0.07,-0.972 -0.07,-0.207 -0.207,-0.415 -0.418,-0.485 -0.207,-0.137 -0.484,-0.207 -0.898,-0.207 -0.418,0 -0.903,0.137 -1.387,0.348 -0.488,0.207 -0.973,0.484 -1.527,0.832 l -2.426,7.211 -1.664,0 3.328,-9.641 1.594,0 -0.348,1.039 c 0.625,-0.414 1.25,-0.762 1.805,-0.969 0.484,-0.207 1.039,-0.347 1.594,-0.347 0.902,0 1.527,0.277 1.871,0.902 z m -16.364,7.906 c 0.899,0 1.664,-0.277 2.286,-0.902 0.625,-0.625 1.179,-1.594 1.668,-2.844 0.414,-1.246 0.484,-2.148 0.207,-2.773 -0.207,-0.625 -0.762,-0.902 -1.594,-0.902 -0.903,0 -1.668,0.277 -2.289,0.902 -0.696,0.625 -1.25,1.527 -1.664,2.773 -0.418,1.25 -0.489,2.153 -0.211,2.774 0.211,0.625 0.765,0.972 1.597,0.972 z m 5.684,-7.492 c 0.488,0.903 0.488,2.153 -0.066,3.746 -0.555,1.664 -1.387,2.914 -2.497,3.817 -1.042,0.898 -2.289,1.316 -3.609,1.316 -1.316,0 -2.219,-0.484 -2.703,-1.387 -0.484,-0.902 -0.418,-2.148 0.137,-3.746 0.558,-1.593 1.39,-2.843 2.5,-3.746 1.039,-0.898 2.285,-1.316 3.605,-1.316 1.317,0 2.149,0.418 2.633,1.316 z m -9.707,-1.039 -3.328,9.641 -1.594,0 3.258,-9.641 z m 0.625,-1.664 -1.875,0 0.625,-1.664 1.805,0 z m -9.016,1.664 0.969,-2.844 1.598,0 -0.903,2.844 2.981,0 -0.485,1.32 -2.98,0 -1.598,4.575 -0.343,1.179 -0.071,0.762 c 0.071,0.211 0.137,0.348 0.344,0.418 0.211,0.07 0.488,0.137 0.836,0.137 l 0.832,-0.067 0.621,-0.211 0.07,0 -0.484,1.457 -1.039,0.211 -0.836,0.067 c -0.898,0 -1.523,-0.278 -1.871,-0.762 -0.348,-0.484 -0.277,-1.316 0.07,-2.426 l 1.871,-5.34 -1.109,0 0.418,-1.32 z m -9.57,4.996 c -0.484,0.137 -0.902,0.344 -1.25,0.621 -0.348,0.278 -0.625,0.625 -0.832,1.11 -0.207,0.554 -0.137,0.972 0.07,1.25 0.207,0.277 0.555,0.414 1.18,0.414 0.484,0 1.039,-0.067 1.523,-0.278 0.489,-0.207 0.973,-0.484 1.457,-0.832 l 0.903,-2.703 -1.528,0.137 z m 5.063,-4.511 c 0.207,0.21 0.347,0.554 0.414,0.972 0,0.485 -0.067,0.973 -0.278,1.594 l -2.219,6.59 -1.664,0 0.348,-1.039 -0.625,0.414 -0.832,0.418 -0.973,0.347 -1.175,0.137 c -0.348,0 -0.696,-0.07 -1.043,-0.207 -0.278,-0.141 -0.485,-0.348 -0.692,-0.625 -0.207,-0.277 -0.277,-0.625 -0.277,-0.973 -0.07,-0.414 0,-0.832 0.137,-1.246 0.211,-0.695 0.554,-1.25 1.043,-1.734 0.414,-0.484 0.968,-0.832 1.73,-1.109 0.625,-0.278 1.32,-0.485 2.082,-0.555 l 2.43,-0.207 0.136,-0.277 c 0.137,-0.348 0.208,-0.696 0.137,-0.903 -0.066,-0.277 -0.137,-0.484 -0.273,-0.555 -0.211,-0.14 -0.418,-0.207 -0.696,-0.277 l -0.902,-0.07 -1.387,0.14 -1.664,0.485 -0.14,0 0.554,-1.594 1.391,-0.348 1.73,-0.14 1.668,0.14 c 0.415,0.137 0.762,0.348 1.04,0.622 z m -7.629,-0.485 -6.934,9.641 -1.457,0 -0.348,-9.641 1.805,0 0.066,7.422 5.204,-7.422 z m -17.336,8.531 c 0.898,0 1.664,-0.277 2.285,-0.902 0.625,-0.625 1.18,-1.594 1.664,-2.844 0.418,-1.246 0.488,-2.148 0.211,-2.773 -0.211,-0.625 -0.766,-0.902 -1.598,-0.902 -0.898,0 -1.664,0.277 -2.289,0.902 -0.691,0.625 -1.246,1.527 -1.664,2.773 -0.414,1.25 -0.484,2.153 -0.207,2.774 0.207,0.625 0.762,0.972 1.598,0.972 z m 5.683,-7.492 c 0.489,0.903 0.489,2.153 -0.066,3.746 -0.555,1.664 -1.391,2.914 -2.5,3.817 -1.039,0.898 -2.285,1.316 -3.606,1.316 -1.316,0 -2.218,-0.484 -2.703,-1.387 -0.484,-0.902 -0.418,-2.148 0.137,-3.746 0.555,-1.593 1.387,-2.843 2.496,-3.746 1.043,-0.898 2.289,-1.316 3.609,-1.316 1.317,0 2.149,0.418 2.633,1.316 z m -10.609,-0.414 c 0.348,0.625 0.277,1.594 -0.07,2.774 l -2.149,6.242 -1.664,0 1.871,-5.481 0.418,-1.246 c 0.067,-0.418 0.137,-0.762 0.067,-0.972 -0.067,-0.207 -0.207,-0.415 -0.415,-0.485 -0.207,-0.137 -0.484,-0.207 -0.902,-0.207 -0.414,0 -0.902,0.137 -1.387,0.348 -0.484,0.207 -0.968,0.484 -1.523,0.832 l -2.4297,7.211 -1.6641,0 3.3281,-9.641 1.5977,0 -0.348,1.039 c 0.625,-0.414 1.246,-0.762 1.801,-0.969 0.488,-0.207 1.043,-0.347 1.598,-0.347 0.898,0 1.523,0.277 1.871,0.902 z m -10.8165,0 c 0.3437,0.625 0.2734,1.594 -0.0703,2.774 l -2.1524,6.242 -1.664,0 1.875,-5.481 0.414,-1.246 c 0.0703,-0.418 0.1406,-0.762 0.0703,-0.972 -0.0703,-0.207 -0.207,-0.415 -0.4179,-0.485 -0.2071,-0.137 -0.4844,-0.207 -0.8985,-0.207 -0.4179,0 -0.9023,0.137 -1.3867,0.348 -0.4883,0.207 -0.9727,0.484 -1.5273,0.832 l -2.4297,7.211 -1.6641,0 3.332,-9.641 1.5938,0 -0.3477,1.039 c 0.625,-0.414 1.25,-0.762 1.8047,-0.969 0.4844,-0.207 1.0391,-0.347 1.5938,-0.347 0.9023,0 1.5273,0.277 1.875,0.902 z m -9.8516,-0.625 -3.3281,9.641 -1.5938,0 3.2578,-9.641 z m 0.625,-1.664 -1.8711,0 0.625,-1.664 1.8008,0 z m -20.043,6.379 c -0.3437,1.043 -0.4843,1.875 -0.2773,2.43 0.2109,0.554 0.6953,0.832 1.457,0.832 0.418,0 0.9024,-0.071 1.3867,-0.278 0.4883,-0.14 0.9727,-0.347 1.4571,-0.695 l 1.8047,-5.269 c -0.3477,-0.208 -0.625,-0.348 -0.9727,-0.415 l -0.9687,-0.14 c -0.8321,0 -1.5977,0.277 -2.2891,0.902 -0.6953,0.625 -1.25,1.457 -1.5977,2.633 z m 8.0469,-4.715 -2.914,8.531 c -0.5547,1.664 -1.3165,2.844 -2.2891,3.606 -0.9688,0.762 -2.2188,1.18 -3.6758,1.18 l -1.4531,-0.141 -1.25,-0.277 0.5547,-1.664 0.1367,0 1.043,0.347 0.7617,0.207 0.832,0.071 c 0.4844,0 0.9727,-0.071 1.3203,-0.208 0.4141,-0.14 0.7617,-0.347 1.0391,-0.554 0.2773,-0.207 0.4844,-0.485 0.625,-0.832 0.207,-0.278 0.3437,-0.625 0.4844,-1.043 l 0.2773,-0.832 c -0.5547,0.347 -1.0391,0.625 -1.5273,0.832 -0.4844,0.211 -1.1094,0.277 -1.7344,0.277 -1.0391,0 -1.8008,-0.414 -2.1485,-1.246 -0.414,-0.832 -0.3476,-2.012 0.2071,-3.539 0.2773,-0.762 0.625,-1.523 1.0429,-2.148 l 1.4532,-1.594 c 0.4883,-0.418 1.0429,-0.696 1.5976,-0.903 0.625,-0.207 1.1797,-0.347 1.6641,-0.347 l 1.2461,0.14 0.9726,0.555 0.2071,-0.418 z m -11.6523,0.625 c 0.3476,0.625 0.2773,1.594 -0.0703,2.774 l -2.1485,6.242 -1.664,0 1.8711,-5.481 0.4179,-1.246 c 0.0703,-0.418 0.1367,-0.762 0.0703,-0.972 -0.0703,-0.207 -0.2109,-0.415 -0.4179,-0.485 -0.2071,-0.137 -0.4844,-0.207 -0.9024,-0.207 -0.414,0 -0.8984,0.137 -1.3867,0.348 -0.4844,0.207 -0.9687,0.484 -1.5234,0.832 l -2.4297,7.211 -1.6641,0 3.3281,-9.641 1.5977,0 -0.3477,1.039 c 0.625,-0.414 1.25,-0.762 1.8047,-0.969 0.4844,-0.207 1.0391,-0.347 1.5938,-0.347 0.9023,0 1.5234,0.277 1.8711,0.902 z m -9.8477,-0.625 -3.3281,9.641 -1.5938,0 3.2579,-9.641 z m 0.625,-1.664 -1.8711,0 0.625,-1.664 1.8008,0 z m -4.4375,1.664 -6.9375,9.641 -1.4531,0 -0.3477,-9.641 1.8008,0 0.0703,7.422 5.2032,-7.422 z m -10.8867,0 -3.332,9.641 -1.5938,0 3.2578,-9.641 z m 0.6211,-1.664 -1.8711,0 0.625,-1.664 1.8008,0 z m -7.2109,9.777 -0.4844,1.528 -7.4922,0 4.3711,-12.899 1.7344,0 -3.8868,11.371 z" id="path3118" style="fill:#00539b;fill-opacity:1"/>

</g>
  </g>
</svg>