<?xml version="1.0" encoding="utf-8"?>
<!-- Generator: Adobe Illustrator 23.0.3, SVG Export Plug-In . SVG Version: 6.00 Build 0)  -->
<svg version="1.1" id="Layer_1" xmlns="http://www.w3.org/2000/svg" xmlns:xlink="http://www.w3.org/1999/xlink" x="0px" y="0px"
	 width="283.4px" height="112.3px" viewBox="0 0 283.4 112.3" enable-background="new 0 0 283.4 112.3" xml:space="preserve">
<g>
	<path fill="#010101" d="M47.1,1.3l5.9-0.7l8.2,22.2l-7.3,2.5C51,17.6,41.6,8.6,34.6,8.6c-5.8,0-10.8,4-13.8,8.1
		c-3,4.1-2.9,10.8-2.9,16.5c0,6,1.2,11.9,4.4,15.6c3.1,3.7,7.3,6.9,12.1,6.9c4,0,10.1-2.4,13.1-5.2c3-2.8,5.8-4.5,6.9-9.4l8.2,4
		C57,58.5,48.6,64.5,33.5,64.5c-10.6,0-18.6-3-24-8.9C4.1,49.6,0,42.5,0,33.4C0,27,0.4,20.8,3.2,16C6,11.1,10.6,6.3,15.3,3.9
		C20,1.4,26.4,0,32.1,0c7,0,12.2,2.4,17,6.2L47.1,1.3z"/>
	<path fill="#010101" d="M100.5,0.2c10.4,0,18.5,3.1,24.5,9.4c6,6.2,8.9,13.8,8.9,22.8c0,9-3,16.6-9,22.8c-6,6.2-14.1,9.3-24.5,9.3
		c-10.8,0-19-3.2-24.8-9.6c-5.8-6.4-8.7-13.9-8.7-22.6c0-8.9,3-16.5,8.9-22.8C81.9,3.3,90.1,0.2,100.5,0.2z M100.5,9.4
		c-4.6,0-8.5,2-11.7,6c-3.2,4-4.8,9.8-4.8,17.6c0,6.8,1.6,12.3,4.8,16.4c3.2,4.1,7.1,6.1,11.8,6.1c4.6,0,8.5-2,11.8-6
		c3.2-4,4.8-9.8,4.8-17.3c0-6.8-1.5-12.2-4.6-16.4C109.4,11.5,105.4,9.4,100.5,9.4z"/>
	<path fill="#010101" d="M138.9,63.7v-8.1c5.3-0.1,7.2-2.4,7.2-2.4V11.9c0,0-2.6-2.6-7.2-2.6V1.3h30.8c6.8,0,11.9,0.4,15.2,1.1
		c3.3,0.7,6.2,2.5,8.6,5.3c2.4,2.8,3.6,6.1,3.6,9.9c0,6.1-3.2,10.4-9.5,12.9c8.1,2.8,12.1,7.8,12.1,14.9c0,4.1-1.3,7.7-3.8,10.6
		c-2.5,2.9-5.7,4.9-9.7,6c-4,1.1-9.5,1.6-16.6,1.6H138.9z M162.3,25.3h6.3c4.4,0,7.6-0.6,9.6-1.7c2.1-1.2,3.1-3.2,3.1-6.1
		c0-2.7-1-4.5-3-5.6c-2-1.1-5.5-1.6-10.4-1.6h-5.5V25.3z M162.3,54.5h6.3c5.7,0,9.6-0.7,11.9-2.1c2.2-1.4,3.4-3.9,3.4-7.5
		c0-3.8-1.2-6.4-3.6-7.9c-2.4-1.5-6.3-2.3-11.6-2.3h-6.3V54.5z"/>
	<path fill="#010101" d="M216.9,63.7v-7.6c0,0,8-0.6,8-2.9c0-2.4,0-16.9,0-16.9s-13.1-21-16.6-24.6c-3.5-3.6-7.8-2.9-7.8-2.9V1.1
		h34.8V9c0,0-8.7-0.1-7,2.8c1.7,2.9,8.7,15.7,8.7,15.7s7.8-13.1,9.4-15.7c1.6-2.6-6.5-3.2-6.5-3.2V1.2h28.2v7.6c0,0-8.2,0.3-9.9,3
		c-1.7,2.6-16.6,24.5-16.6,24.5s-0.1,15.2,0,16.9c0.1,1.7,8.9,2.6,8.9,2.6v8H216.9z"/>
</g>
<g>
	<path fill="#010101" d="M2,90.9V77.4h1.9v13.6H2z"/>
	<path fill="#010101" d="M7.5,90.9V81h1.8v1.9c0.5-0.7,1-1.2,1.6-1.6c0.6-0.4,1.2-0.5,1.9-0.5c0.8,0,1.5,0.3,2.1,0.8
		c0.5,0.5,0.8,1.3,0.8,2.2v7.2h-1.8v-6.6c0-0.7-0.1-1.1-0.2-1.4c-0.1-0.2-0.3-0.4-0.5-0.5c-0.2-0.1-0.5-0.2-0.7-0.2
		c-0.4,0-0.9,0.1-1.4,0.4c-0.5,0.3-1.1,0.9-1.7,1.8v6.5H7.5z"/>
	<path fill="#010101" d="M19.2,90.9V81H21v1.9c0.5-0.7,1-1.2,1.6-1.6c0.6-0.4,1.2-0.5,1.9-0.5c0.8,0,1.5,0.3,2.1,0.8
		c0.5,0.5,0.8,1.3,0.8,2.2v7.2h-1.8v-6.6c0-0.7-0.1-1.1-0.2-1.4c-0.1-0.2-0.3-0.4-0.5-0.5c-0.2-0.1-0.5-0.2-0.7-0.2
		c-0.4,0-0.9,0.1-1.4,0.4c-0.5,0.3-1.1,0.9-1.7,1.8v6.5H19.2z"/>
	<path fill="#010101" d="M34.8,91.2c-0.9,0-1.8-0.2-2.5-0.6c-0.7-0.4-1.3-1-1.7-1.8C30.2,87.9,30,87,30,86c0-1,0.2-1.9,0.6-2.7
		c0.4-0.8,0.9-1.5,1.6-1.9c0.7-0.4,1.6-0.6,2.6-0.6c0.9,0,1.8,0.2,2.5,0.6c0.7,0.4,1.3,1,1.7,1.8c0.4,0.8,0.6,1.8,0.6,2.8
		c0,1-0.2,1.9-0.6,2.7c-0.4,0.8-0.9,1.5-1.6,1.9C36.6,91,35.8,91.2,34.8,91.2z M34.8,89.8c0.9,0,1.6-0.3,2.1-1
		c0.5-0.7,0.7-1.6,0.7-2.9c0-1.2-0.2-2.2-0.7-2.9c-0.5-0.7-1.2-1-2.1-1c-0.9,0-1.6,0.3-2.1,1C32.2,83.8,32,84.7,32,86
		c0,1.2,0.2,2.2,0.7,2.9C33.2,89.5,33.9,89.8,34.8,89.8z"/>
	<path fill="#010101" d="M44.4,90.9l-3.7-10h1.8l2.9,7.8l3.1-7.8h1.7l-3.9,10H44.4z"/>
	<path fill="#010101" d="M57.3,89.7c-0.5,0.5-1.1,0.9-1.6,1.1c-0.5,0.2-1,0.4-1.6,0.4c-0.7,0-1.4-0.2-2-0.7c-0.6-0.5-0.9-1.1-0.9-2
		c0-1,0.4-1.8,1.3-2.4c0.9-0.6,2.2-1,4.1-1h0.4v-1.2c0-0.5-0.1-0.8-0.2-1c-0.1-0.2-0.3-0.4-0.6-0.5c-0.3-0.1-0.6-0.2-1-0.2
		c-1,0-2,0.3-3.1,0.9v-1.5c1.2-0.5,2.4-0.7,3.5-0.7c0.6,0,1.1,0.1,1.6,0.3c0.5,0.2,0.9,0.5,1.2,0.9c0.3,0.4,0.4,1,0.4,1.9v4.5
		c0,0.5,0,0.8,0.1,1c0.1,0.2,0.2,0.3,0.3,0.4c0.1,0.1,0.3,0.1,0.5,0.1c0.1,0,0.2,0,0.3,0l0.1,1c-0.4,0.2-0.9,0.3-1.4,0.3
		c-0.3,0-0.6-0.1-1-0.3C57.7,90.6,57.5,90.2,57.3,89.7z M57.1,88.7v-2.6l-0.6,0c-1,0-1.8,0.2-2.4,0.5c-0.7,0.4-1,0.9-1,1.5
		c0,0.4,0.2,0.8,0.5,1.1c0.3,0.3,0.7,0.4,1.1,0.4c0.4,0,0.8-0.1,1.2-0.2C56.2,89.3,56.6,89,57.1,88.7z"/>
	<path fill="#010101" d="M66.9,90.9c-0.6,0.2-1,0.2-1.5,0.2c-0.9,0-1.6-0.3-2.1-0.8c-0.5-0.5-0.8-1.3-0.8-2.2v-5.9h-1.3V81h1.3v-1.8
		l1.8-0.2v2H67v1.4h-2.6v5.5c0,0.7,0.1,1.2,0.4,1.5c0.3,0.3,0.7,0.5,1.3,0.5c0.2,0,0.5,0,0.9-0.1V90.9z"/>
	<path fill="#010101" d="M69.5,79.2v-1.8h1.8v1.8H69.5z M69.5,90.9V81h1.8v10H69.5z"/>
	<path fill="#010101" d="M78.9,91.2c-0.9,0-1.8-0.2-2.5-0.6c-0.7-0.4-1.3-1-1.7-1.8c-0.4-0.8-0.6-1.8-0.6-2.8c0-1,0.2-1.9,0.6-2.7
		c0.4-0.8,0.9-1.5,1.6-1.9c0.7-0.4,1.6-0.6,2.6-0.6c0.9,0,1.8,0.2,2.5,0.6c0.7,0.4,1.3,1,1.7,1.8c0.4,0.8,0.6,1.8,0.6,2.8
		c0,1-0.2,1.9-0.6,2.7c-0.4,0.8-0.9,1.5-1.6,1.9C80.8,91,79.9,91.2,78.9,91.2z M78.9,89.8c0.9,0,1.6-0.3,2.1-1
		c0.5-0.7,0.7-1.6,0.7-2.9c0-1.2-0.3-2.2-0.7-2.9c-0.5-0.7-1.2-1-2.1-1c-0.9,0-1.6,0.3-2.1,1c-0.5,0.7-0.7,1.6-0.7,2.9
		c0,1.2,0.2,2.2,0.7,2.9C77.3,89.5,78,89.8,78.9,89.8z"/>
	<path fill="#010101" d="M86.5,90.9V81h1.8v1.9c0.5-0.7,1-1.2,1.6-1.6c0.6-0.4,1.2-0.5,1.9-0.5c0.8,0,1.5,0.3,2.1,0.8
		c0.5,0.5,0.8,1.3,0.8,2.2v7.2h-1.8v-6.6c0-0.7-0.1-1.1-0.2-1.4c-0.1-0.2-0.3-0.4-0.5-0.5c-0.2-0.1-0.5-0.2-0.7-0.2
		c-0.4,0-0.9,0.1-1.4,0.4c-0.5,0.3-1.1,0.9-1.7,1.8v6.5H86.5z"/>
	<path fill="#010101" d="M97.8,90.6v-1.7c1.2,0.6,2.2,0.9,3.1,0.9c0.5,0,0.9-0.1,1.3-0.4c0.3-0.3,0.5-0.6,0.5-1.1
		c0-0.3-0.1-0.5-0.3-0.8c-0.2-0.3-0.6-0.5-1.2-0.8l-1.1-0.4c-0.8-0.3-1.4-0.7-1.8-1.2c-0.4-0.4-0.6-1-0.6-1.6c0-0.8,0.3-1.5,0.9-2
		c0.6-0.5,1.4-0.8,2.6-0.8c0.6,0,1.3,0.1,2.1,0.2l0.4,0.1v1.5c-1-0.3-1.8-0.5-2.4-0.5c-0.6,0-1,0.1-1.3,0.4
		c-0.3,0.3-0.4,0.5-0.4,0.9c0,0.3,0.1,0.5,0.3,0.7c0.2,0.2,0.5,0.4,1,0.7l0.9,0.4c1.2,0.5,1.9,1,2.2,1.5c0.3,0.5,0.5,1,0.5,1.6
		c0,0.5-0.1,1-0.4,1.5c-0.3,0.5-0.7,0.8-1.3,1.1c-0.6,0.3-1.2,0.4-1.9,0.4C100,91.2,99,91,97.8,90.6z"/>
	<path fill="#010101" d="M114,90.9v-8.6h-1.4V81h1.4v-1.2c0-0.8,0.1-1.5,0.3-1.9c0.2-0.5,0.6-0.9,1-1.2c0.5-0.3,1.1-0.5,1.9-0.5
		c0.6,0,1.3,0.1,2.1,0.3V78c-0.8-0.3-1.5-0.4-2-0.4c-0.3,0-0.5,0-0.8,0.1c-0.2,0.1-0.4,0.2-0.6,0.5c-0.1,0.2-0.2,0.7-0.2,1.4V81h2.5
		v1.4h-2.5v8.6H114z"/>
	<path fill="#010101" d="M124.5,91.2c-0.9,0-1.8-0.2-2.5-0.6c-0.7-0.4-1.3-1-1.7-1.8c-0.4-0.8-0.6-1.8-0.6-2.8c0-1,0.2-1.9,0.6-2.7
		c0.4-0.8,0.9-1.5,1.6-1.9c0.7-0.4,1.6-0.6,2.6-0.6c0.9,0,1.8,0.2,2.5,0.6c0.7,0.4,1.3,1,1.7,1.8c0.4,0.8,0.6,1.8,0.6,2.8
		c0,1-0.2,1.9-0.6,2.7c-0.4,0.8-0.9,1.5-1.6,1.9C126.4,91,125.5,91.2,124.5,91.2z M124.5,89.8c0.9,0,1.6-0.3,2.1-1
		c0.5-0.7,0.7-1.6,0.7-2.9c0-1.2-0.3-2.2-0.7-2.9c-0.5-0.7-1.2-1-2.1-1c-0.9,0-1.6,0.3-2.1,1c-0.5,0.7-0.7,1.6-0.7,2.9
		c0,1.2,0.2,2.2,0.7,2.9C123,89.5,123.6,89.8,124.5,89.8z"/>
	<path fill="#010101" d="M132.1,90.9V81h1.8v1.9c0.3-0.7,0.8-1.2,1.3-1.5c0.5-0.4,1.1-0.5,1.8-0.5c0.2,0,0.4,0,0.6,0v1.7
		c-0.3-0.1-0.6-0.2-0.8-0.2c-0.6,0-1.1,0.2-1.6,0.5c-0.5,0.3-0.9,0.9-1.3,1.5v6.6H132.1z"/>
	<path fill="#010101" d="M145.7,90.9V77.4h7.6v1.4h-5.7v4.4h4.8v1.4h-4.8v4.9h6.1v1.4H145.7z"/>
	<path fill="#010101" d="M158,90.9l-3.7-10h1.8l2.9,7.8l3.1-7.8h1.7l-3.9,10H158z"/>
	<path fill="#010101" d="M173.1,90.6c-1.2,0.4-2.3,0.5-3.2,0.5c-1.6,0-2.8-0.5-3.7-1.6c-0.9-1-1.4-2.3-1.4-3.7
		c0-0.9,0.2-1.8,0.6-2.7c0.4-0.8,0.9-1.5,1.6-1.9c0.6-0.4,1.4-0.6,2.3-0.6c1.2,0,2.1,0.4,2.8,1.2c0.7,0.8,1,2.1,1,3.7l0,0.6h-6.4
		c0.1,0.9,0.3,1.6,0.6,2c0.3,0.5,0.7,0.9,1.1,1.1c0.5,0.3,1.1,0.4,1.8,0.4c0.4,0,0.7,0,1.1-0.1c0.4-0.1,0.9-0.2,1.7-0.5V90.6z
		 M166.8,84.9h4.5c0-1-0.2-1.7-0.6-2.1c-0.4-0.4-0.9-0.6-1.5-0.6c-0.7,0-1.3,0.2-1.7,0.7C167.1,83.2,166.9,83.9,166.8,84.9z"/>
	<path fill="#010101" d="M176.1,90.9V81h1.8v1.9c0.3-0.7,0.8-1.2,1.3-1.5c0.5-0.4,1.1-0.5,1.8-0.5c0.2,0,0.4,0,0.6,0v1.7
		c-0.3-0.1-0.6-0.2-0.8-0.2c-0.6,0-1.1,0.2-1.6,0.5c-0.5,0.3-0.9,0.9-1.3,1.5v6.6H176.1z"/>
	<path fill="#010101" d="M184.4,94.6l1.6-3.6l-3.9-10h2l2.9,7.5l3-7.5h1.7l-5.4,13.6H184.4z"/>
	<path fill="#010101" d="M199.5,90.9V77.4h1.9v12.1h6v1.4H199.5z"/>
	<path fill="#010101" d="M209.6,79.2v-1.8h1.8v1.8H209.6z M209.6,90.9V81h1.8v10H209.6z"/>
	<path fill="#010101" d="M215.4,90.9v-8.6H214V81h1.4v-1.2c0-0.8,0.1-1.5,0.3-1.9c0.2-0.5,0.6-0.9,1-1.2c0.5-0.3,1.1-0.5,1.9-0.5
		c0.6,0,1.3,0.1,2.1,0.3V78c-0.8-0.3-1.5-0.4-2-0.4c-0.3,0-0.5,0-0.8,0.1c-0.2,0.1-0.4,0.2-0.6,0.5c-0.1,0.2-0.2,0.7-0.2,1.4V81h2.5
		v1.4h-2.5v8.6H215.4z"/>
	<path fill="#010101" d="M229.4,90.6c-1.2,0.4-2.3,0.5-3.2,0.5c-1.6,0-2.8-0.5-3.7-1.6c-0.9-1-1.3-2.3-1.3-3.7
		c0-0.9,0.2-1.8,0.6-2.7c0.4-0.8,0.9-1.5,1.6-1.9c0.6-0.4,1.4-0.6,2.3-0.6c1.2,0,2.1,0.4,2.8,1.2c0.7,0.8,1,2.1,1,3.7l0,0.6H223
		c0.1,0.9,0.3,1.6,0.6,2c0.3,0.5,0.7,0.9,1.1,1.1c0.5,0.3,1.1,0.4,1.8,0.4c0.4,0,0.7,0,1.1-0.1c0.4-0.1,0.9-0.2,1.7-0.5V90.6z
		 M223.1,84.9h4.5c0-1-0.2-1.7-0.6-2.1c-0.4-0.4-0.9-0.6-1.5-0.6c-0.7,0-1.3,0.2-1.7,0.7C223.4,83.2,223.2,83.9,223.1,84.9z"/>
	<path fill="#010101" d="M232.1,90.6v-1.7c1.2,0.6,2.2,0.9,3.1,0.9c0.5,0,0.9-0.1,1.3-0.4c0.3-0.3,0.5-0.6,0.5-1.1
		c0-0.3-0.1-0.5-0.3-0.8c-0.2-0.3-0.6-0.5-1.2-0.8l-1.1-0.4c-0.8-0.3-1.4-0.7-1.8-1.2c-0.4-0.4-0.6-1-0.6-1.6c0-0.8,0.3-1.5,0.9-2
		c0.6-0.5,1.4-0.8,2.6-0.8c0.6,0,1.3,0.1,2.1,0.2l0.4,0.1v1.5c-1-0.3-1.8-0.5-2.4-0.5c-0.6,0-1,0.1-1.3,0.4
		c-0.3,0.3-0.4,0.5-0.4,0.9c0,0.3,0.1,0.5,0.3,0.7c0.2,0.2,0.5,0.4,1,0.7l0.9,0.4c1.2,0.5,1.9,1,2.2,1.5c0.3,0.5,0.5,1,0.5,1.6
		c0,0.5-0.1,1-0.4,1.5s-0.7,0.8-1.3,1.1c-0.6,0.3-1.2,0.4-1.9,0.4C234.2,91.2,233.2,91,232.1,90.6z"/>
	<path fill="#010101" d="M246.5,90.9c-0.6,0.2-1,0.2-1.4,0.2c-0.9,0-1.6-0.3-2.1-0.8c-0.5-0.5-0.8-1.3-0.8-2.2v-5.9h-1.3V81h1.3
		v-1.8l1.8-0.2v2h2.6v1.4h-2.6v5.5c0,0.7,0.1,1.2,0.4,1.5c0.3,0.3,0.7,0.5,1.3,0.5c0.2,0,0.5,0,0.9-0.1V90.9z"/>
	<path fill="#010101" d="M249.6,94.6l1.6-3.6l-3.9-10h2l2.9,7.5l3-7.5h1.7l-5.4,13.6H249.6z"/>
	<path fill="#010101" d="M258.9,90.9V76.5h1.8v14.5H258.9z"/>
	<path fill="#010101" d="M271.7,90.6c-1.2,0.4-2.3,0.5-3.2,0.5c-1.6,0-2.8-0.5-3.7-1.6c-0.9-1-1.3-2.3-1.3-3.7
		c0-0.9,0.2-1.8,0.6-2.7c0.4-0.8,0.9-1.5,1.6-1.9c0.6-0.4,1.4-0.6,2.3-0.6c1.2,0,2.1,0.4,2.8,1.2c0.7,0.8,1,2.1,1,3.7l0,0.6h-6.4
		c0.1,0.9,0.3,1.6,0.6,2c0.3,0.5,0.7,0.9,1.1,1.1c0.5,0.3,1.1,0.4,1.8,0.4c0.4,0,0.7,0,1.1-0.1c0.4-0.1,0.9-0.2,1.7-0.5V90.6z
		 M265.4,84.9h4.5c0-1-0.2-1.7-0.6-2.1c-0.4-0.4-0.9-0.6-1.5-0.6c-0.7,0-1.3,0.2-1.7,0.7C265.8,83.2,265.5,83.9,265.4,84.9z"/>
	<path fill="#010101" d="M275.3,87.3l-0.2-7.2v-2.7h1.8v2.7l-0.2,7.2H275.3z M275,90.9v-1.8h1.8v1.8H275z"/>
</g>
<path fill="#ED2224" d="M1.2,106.5l4,5.8c0,0,16-8.3,36.3-8.1c13,0.1,37.2,0.9,46.2,4.9c9,4-8.1-6.3-22-8.1
	C51.8,99.3,20.4,98.9,1.2,106.5z"/>
<g>
	<path fill="#010101" d="M274.4,67.1c-1.6,0-3.1-0.4-4.5-1.2c-1.4-0.8-2.5-1.9-3.3-3.3c-0.8-1.4-1.3-2.9-1.3-4.6
		c0-1.6,0.4-3.1,1.2-4.5c0.8-1.4,1.9-2.5,3.3-3.3c1.4-0.8,2.9-1.2,4.5-1.2c1.6,0,3.1,0.4,4.5,1.2c1.4,0.8,2.5,1.9,3.3,3.3
		c0.8,1.4,1.2,2.9,1.2,4.5c0,1.6-0.4,3.2-1.3,4.6c-0.8,1.4-1.9,2.5-3.3,3.3C277.4,66.7,276,67.1,274.4,67.1z M274.4,65.1
		c1.1,0,2.3-0.3,3.4-0.9c1.1-0.6,2-1.4,2.6-2.6c0.7-1.1,1-2.3,1-3.6c0-1.2-0.3-2.4-0.9-3.5c-0.6-1.1-1.5-2-2.6-2.6
		c-1.1-0.6-2.3-0.9-3.5-0.9c-1.2,0-2.3,0.3-3.5,0.9c-1.1,0.6-2,1.5-2.6,2.6c-0.6,1.1-0.9,2.3-0.9,3.5c0,1.3,0.3,2.4,1,3.6
		c0.7,1.1,1.5,2,2.6,2.6C272.1,64.8,273.2,65.1,274.4,65.1z M270.7,62.4v-9.6h2.9c1.1,0,1.9,0.1,2.4,0.3c0.5,0.2,0.8,0.4,1.1,0.8
		c0.3,0.4,0.4,0.8,0.4,1.4c0,0.6-0.2,1.1-0.5,1.6c-0.3,0.5-0.9,0.9-1.6,1.2l2.4,4.3h-2.2l-2.2-3.9h-0.9v3.9H270.7z M272.7,57.2h0.8
		c0.7,0,1.2-0.2,1.5-0.5c0.3-0.3,0.5-0.7,0.5-1.2c0-0.4-0.1-0.7-0.4-1c-0.3-0.2-0.8-0.4-1.5-0.4h-0.9V57.2z"/>
</g>
</svg>
