<svg xmlns="http://www.w3.org/2000/svg" width="98.23" height="36.001" viewBox="0 0 98.23 36.001">
  <g id="logo-wilko" transform="translate(1595.359 219.404)">
    <g id="g3295" transform="translate(-1595.359 -219.404)">
      <g id="g2997" transform="translate(0 0)">
        <path id="path3271" d="M-186.166,30.108h7.148l4.23,11.607,4.033-11.541h5.508l3.967,11.475,4.3-11.541h6.951l-8.721,22.23h-5.049l-4.459-12.2-4.262,12.2h-5.115l-8.525-22.23Z" transform="translate(186.166 -16.862)" fill="#b30938" fill-rule="evenodd"/>
        <path id="path3273" d="M-110.074,52.338V30.108h6.689v22.23Z" transform="translate(147.517 -16.862)" fill="#b30938" fill-rule="evenodd"/>
        <path id="path3275" d="M-90.484,38.733V3.323H-83.8v35.41Z" transform="translate(137.567 -3.257)" fill="#b30938" fill-rule="evenodd"/>
        <path id="path3279" d="M-64.207,38.733H-70.9V3.323h6.689V24.7l6.164-8.2h7.869l-8.4,9.869,8.138,12.361h-7.541l-6.23-10.623Z" transform="translate(127.617 -3.257)" fill="#b30938" fill-rule="evenodd"/>
        <path id="path3281" d="M-103.46,8.271a5.084,5.084,0,0,1-5.082,5.082,5.084,5.084,0,0,1-5.082-5.082,5.084,5.084,0,0,1,5.082-5.082A5.084,5.084,0,0,1-103.46,8.271Zm-2.361,0a2.722,2.722,0,0,1-2.721,2.721,2.722,2.722,0,0,1-2.721-2.721,2.722,2.722,0,0,1,2.721-2.721A2.722,2.722,0,0,1-105.82,8.271Z" transform="translate(149.32 -3.189)" fill="#ffe14f" fill-rule="evenodd"/>
        <path id="path3289" d="M-10.364,40.983A11.545,11.545,0,0,1-21.905,52.524,11.545,11.545,0,0,1-33.446,40.983,11.545,11.545,0,0,1-21.905,29.442,11.545,11.545,0,0,1-10.364,40.983Zm-6.1,0a5.445,5.445,0,0,1-5.443,5.443,5.445,5.445,0,0,1-5.443-5.443,5.445,5.445,0,0,1,5.443-5.443A5.445,5.445,0,0,1-16.462,40.983Z" transform="translate(108.595 -16.524)" fill="#b30938" fill-rule="evenodd"/>
      </g>
    </g>
  </g>
</svg>
