<?xml version="1.0" encoding="utf-8"?>
<!-- Generator: Adobe Illustrator 23.0.1, SVG Export Plug-In . SVG Version: 6.00 Build 0)  -->
<svg version="1.1" id="Layer_1" xmlns="http://www.w3.org/2000/svg" xmlns:xlink="http://www.w3.org/1999/xlink" x="0px" y="0px"
	 width="2500px" height="856.5px" viewBox="0 0 2500 856.5" style="enable-background:new 0 0 2500 856.5;" xml:space="preserve">
<style type="text/css">
	.st0{fill-rule:evenodd;clip-rule:evenodd;}
	.st1{fill-rule:evenodd;clip-rule:evenodd;fill:#4A494B;}
	.st2{fill-rule:evenodd;clip-rule:evenodd;fill:#656668;}
	.st3{fill-rule:evenodd;clip-rule:evenodd;fill:#7E7F82;}
	.st4{fill-rule:evenodd;clip-rule:evenodd;fill:#96989A;}
	.st5{fill-rule:evenodd;clip-rule:evenodd;fill:#B0B2B4;}
	.st6{fill-rule:evenodd;clip-rule:evenodd;fill:#CCCDCF;}
	.st7{fill-rule:evenodd;clip-rule:evenodd;fill:#E6E6E7;}
</style>
<g>
	<path class="st0" d="M138.7,270.9c5.8,19.2,12.6,34.4,20.4,45.9c13.6,19.9,30.5,29.8,50.7,29.8c10.9,0,20.3-4.3,28.3-12.9
		c8-8.6,12-20.6,12-36.1c0-13.9-4-26-12-36.3c-5.2-6.5-16.3-16.3-33.1-29.4l-29.3-22.7c-8.8-6.9-15.9-14-21.1-21
		c-9.7-13.5-14.6-28.4-14.6-44.6c0-21.5,5.7-39.5,17.2-53.8C168.8,75.4,184,68.3,203,68.3c7.8,0,17.2,2.4,28.1,7.3
		c11,4.7,17.3,7.1,18.9,7.1c4.2,0,7.1-1.2,8.7-3.7c1.7-2.5,3-6,3.8-10.6h7l7.5,90.9h-8.2c-5.6-27.4-14.6-46.5-26.9-57.3
		c-12.3-10.8-24.4-16.3-36.5-16.3c-9.4,0-17.6,3.5-24.6,10.4c-6.9,6.8-10.4,16.3-10.4,28.5c0,11,2.7,20.4,8,28.1
		c5.4,7.9,13.6,16.2,24.9,24.8l30.1,23.2c18.9,14.4,32.1,27.7,39.8,39.8c7.6,12.2,11.4,26.7,11.4,43.4c0,22.4-6.8,41.1-20.4,56.1
		c-13.5,15-30.8,22.5-51.9,22.5c-10.6,0-21.7-2.5-33.3-7.5c-11.5-5-18.1-7.5-19.7-7.5c-4,0-6.8,1.5-8.2,4.6
		c-1.4,3.1-2.3,6.4-2.7,9.8h-7.5l-10.2-90.9L138.7,270.9L138.7,270.9L138.7,270.9z M363.5,164.6v15h-34.1l-0.3,120
		c0,10.6,0.7,18.6,2.2,24c2.7,9.6,7.9,14.4,15.7,14.4c4,0,7.5-1.2,10.4-3.5c3-2.4,6.4-6.1,10.2-11.2l4.4,4.6l-3.7,6.3
		c-5.8,9.7-11.9,16.6-18.4,20.6c-6.5,4-12.7,6-18.7,6c-13.2,0-22.1-7.3-26.8-21.9c-2.6-7.9-3.9-18.9-3.9-32.9V179.6h-18.2
		c-0.5-0.3-0.9-0.8-1.3-1.2c-0.3-0.5-0.4-1.1-0.3-1.7c-0.1-1.1,0.2-2.2,0.7-3.1c0.6-0.8,2.2-2.6,4.9-5.4
		c7.7-7.9,13.2-14.3,16.6-19.2c3.4-5,11.5-18.1,24.1-39.2c1.4,0,2.3,0.1,2.5,0.4c0.3,0.3,0.5,1.3,0.5,3.1v51.3L363.5,164.6
		L363.5,164.6z"/>
	<path class="st0" d="M370.5,190c14.2-19.2,32.3-28.8,54.5-28.8c22.1,0,40.4,9,54.9,27.1c14.5,18.1,21.8,42.1,21.8,72.1
		c0,27.7-7,51.7-21.1,72.1c-14,20.4-32.2,30.6-54.5,30.6c-21.4,0-39.5-9.8-54.4-29.4c-14.8-19.6-22.2-44.2-22.2-73.8
		C349.4,232.4,356.5,209.1,370.5,190L370.5,190z M397.4,184.6c-11.2,12.7-16.7,34.5-16.7,65.4c0,24.7,4.4,47.8,13.4,69.2
		c9,21.4,21.5,32.1,37.5,32.1c12.5,0,22.1-7.1,28.8-21.5c6.8-14.3,10.2-33.1,10.2-56.3c0-24-4.3-46.7-12.9-67.9
		c-8.6-21.3-21-31.9-37.3-31.9C411.5,173.7,403.9,177.4,397.4,184.6z"/>
	<path class="st0" d="M482.7,349.9c10.2-1.1,17.1-3.3,20.4-6.7c3.3-3.5,5-10.8,5-21.9v-94c0-13.7-1.1-23.6-3.2-29.4
		c-2-6-5.8-8.9-11.2-9c-1.1,0-2.6,0.2-4.5,0.6c-1.9,0.3-3.8,0.7-5.7,1.2V184l19.6-8.5c6.7-2.9,11.3-5,13.9-6.3
		c5.6-2.6,11.3-5.6,17.2-9c0.8,0,1.2,0.4,1.3,1.1c0.2,0.7,0.3,2.2,0.3,4.4v34.2c7.1-12.3,14-22,20.6-29c6.7-7,13.6-10.4,20.8-10.4
		c5.7,0,10.3,2.1,13.9,6.5c3.6,4.2,5.3,9.4,5.3,15.8c0,5.7-1.4,10.5-4.2,14.4c-2.7,3.9-6.1,5.8-10.2,5.8c-4.2,0-8.5-2.4-12.9-7.3
		c-4.2-4.9-7.6-7.3-10-7.3c-3.9,0-8.7,4-14.4,11.9c-5.7,7.8-8.5,15.8-8.5,24.2v94c0,12,2.2,20.3,6.7,25c4.5,4.6,11.9,6.7,22.2,6.5
		v6.9h-82.5L482.7,349.9L482.7,349.9z"/>
	<path class="st0" d="M684.2,181.7c11.8,13.5,17.7,32.7,17.7,57.5H595.8c1.1,32.3,7,55.7,17.6,70.5c10.6,14.7,23.1,22.1,37.6,22.1
		c11.7,0,21.6-3.8,29.6-11.4c8-7.7,15.4-18.5,22.2-32.5l5.8,2.5c-4.6,17.7-13.2,34-25.8,49c-12.5,15-27.8,22.5-46,22.5
		c-21,0-37.2-9.9-48.7-29.6c-11.4-19.7-17.1-42.5-17.1-68.2c0-27.9,6.6-52,19.9-72.3c13.3-20.3,30.6-30.4,51.9-30.4
		C658.7,161.2,672.4,168,684.2,181.7L684.2,181.7z M604.1,197.5c-3.6,7.5-6.1,17-7.7,28.4H667c-1.2-13.9-3.3-24.3-6.4-31.1
		c-5.5-12.2-14.6-18.3-27.4-18.3C620.5,176.4,610.8,183.5,604.1,197.5L604.1,197.5z"/>
	<path class="st0" d="M765,165.2v5.8c-4.3,0.2-7.9,0.9-10.9,2.3c-2.9,1.2-4.3,4-4.3,8.1c0,2.7,3,10.1,8.9,22.3
		c3.1,6.4,7.1,14.2,11.9,23.6c5.2-8.7,10.1-17.5,14.7-26.5c5.4-10.3,8.2-16.9,8.2-20c0-3.6-1.2-6.1-3.5-7.3
		c-2.3-1.2-5.6-2.1-9.9-2.5v-5.8h53.9v5.8c-5.7,0.6-11.2,2.6-15.9,5.8c-5,3.2-9.1,7.7-11.9,12.9l-28.6,51.5l44.2,83.4
		c5.7,10.8,10.5,17.8,14.4,21c4,3.2,8.6,4.9,13.7,5.2v5.8h-69.1v-5.8l4.9-0.4c2.4-0.2,4.6-1.2,6.4-2.9c1.7-1.6,2.7-3.9,2.7-6.3
		c0-2.6-2.1-8.5-6.4-17.5c-2.8-6.1-5.9-12.2-9-18.1c-2.7-5.3-5.6-10.5-8.5-15.6c-3.7-6.7-6.8-12.3-9.4-17.1l-27,52.3
		c-3.2,6.3-5.2,10.4-6,12.5c-0.7,1.7-1.1,3.4-1.2,5.2c0,2.6,0.8,4.4,2.5,5.2c1.8,0.8,5.6,1.8,11.4,2.7v5.8h-49.5v-5.8
		c6-1.5,10.5-3.5,13.4-5.8c2.9-2.4,6.7-7.9,11.5-16.5l39-70.7l-32.1-60.6c-6.5-12.1-10.9-19.2-13.4-21.5c-2.4-2.2-7.8-3.8-16.1-4.8
		v-5.8L765,165.2L765,165.2z M886.5,349c14-1.3,23-3.8,27.1-7.7c4.1-4,6.2-14.3,6.2-30.8V120.6c0-15.7-2.1-25.8-6.2-30.2
		c-4.1-4.6-13.2-7.3-27.1-8.1v-7.9h101.4v7.9c-13.9,0.8-23,3.5-27.1,8.1c-4.1,4.4-6.2,14.5-6.2,30.2v189.9c0,16.5,2,26.8,6.2,30.8
		c4.1,3.9,13.2,6.5,27.1,7.7v7.7H886.5V349z"/>
	<path class="st0" d="M970.5,350.9c7.9-1.3,13.4-3.7,16.5-7.3c3.2-3.7,4.9-12,4.9-24.8V213.2c0-8.9-0.7-15.1-2-18.8
		c-2.1-5.3-6.5-7.9-13.1-7.9c-1,0-2,0.1-3.2,0.2c-1.3,0.2-2.6,0.4-3.8,0.6V180c10.9-4.2,21.7-8.5,32.4-12.9l15.7-6.5
		c0.8,0,1.2,0.4,1.3,1.1c0.2,1,0.3,1.9,0.3,2.9v30.6c10.3-12,18.3-20.2,24.1-24.6c8.7-6.8,17.7-10.2,27.1-10.2
		c7.6,0,14.5,2.7,20.8,8.1c12,10.6,18.1,29.4,18.1,56.5v97.3c0,10,1.6,17.2,4.9,21.7c3.2,4.4,8.6,6.7,16.2,6.9v5.8h-71.4v-5.8
		c8.1-1.4,13.8-4.2,17.1-8.3c3.2-4.3,4.8-13.6,4.9-27.7v-89c0-11.9-1.8-21.8-5.4-29.6c-3.6-7.9-10.1-11.9-19.7-11.9
		c-6.6,0-13.3,2.8-20.1,8.4c-3.8,3.2-8.7,8.5-14.7,15.8v116.7c0,10,1.8,16.7,5.4,20.2c3.6,3.3,9.2,5.1,16.9,5.4v5.8h-73.1
		L970.5,350.9L970.5,350.9L970.5,350.9z"/>
	<path class="st0" d="M1208.3,166.5c4.5,2.9,8.8,6.9,12.9,12.1v-66.3c0-8.5-0.8-14.3-2.3-17.5c-1.4-3.2-5-4.8-10.7-4.8
		c-1.3,0-2.5,0.1-3.5,0.2c-1,0.2-3.2,0.4-6.7,0.8v-6.9l13.7-4.4c5-1.7,10.1-3.4,15.1-5.2c5-1.8,9.4-3.5,13.2-5.2
		c1.8-0.7,4.7-2,8.9-4l1,0.4l-0.3,21.9l-0.3,24.6c-0.1,8.3-0.2,16.6-0.2,24.8l-0.3,170.3c0,9,0.9,15.4,2.7,18.9
		c1.8,3.6,6.5,5.4,14.2,5.4h3.7c1.2-0.1,2.5-0.3,3.7-0.6v6.9c-0.7,0.3-8.8,3.7-24.3,10.4l-26.3,12.3l-1.2-1.9v-25.6
		c-6.3,8.5-11.7,14.5-16.2,18.1c-8.1,6.2-17.5,9.4-28.3,9.4c-18.9,0-34.4-9.1-46.2-27.3c-11.7-18.3-17.5-39.5-17.5-63.6
		c0-30.1,7-56,21.1-77.5c14.2-21.7,31.4-32.5,51.9-32.5C1194,159.8,1201.5,162,1208.3,166.5L1208.3,166.5z M1213.2,328.6
		c5.3-6.4,8-12.4,8-18.1v-89.4c0-18.1-3.9-30.8-11.7-38.2c-7.7-7.5-15.2-11.2-22.6-11.2c-14,0-25,7.8-32.8,23.3
		c-7.8,15.4-11.7,34.5-11.7,57.1c0,22.4,4.1,42.3,12.4,59.8c8.4,17.5,20.8,26.3,37.3,26.3C1200.8,338.2,1207.8,335,1213.2,328.6
		L1213.2,328.6z"/>
	<path class="st0" d="M1298.3,163.7v133.4c0,9.5,1.1,17,3.2,22.7c4.1,10.6,11.7,15.8,22.7,15.8c7.6,0,15-3.1,22.2-9.4
		c4.1-3.5,8.3-8.2,12.5-14.4V197.7c0-10.7-1.7-17.7-5-21.1c-3.4-3.3-10.1-5.3-20.1-6v-6.9h54.1v146.7c0,9.5,1.3,16,4,19.6
		c2.8,3.5,8.6,5,17.4,4.6v5.8c-6.2,2.1-10.7,3.7-13.6,4.8c-2.9,1-7.8,2.9-14.6,5.6c-6.4,2.9-12.8,5.9-19.1,9c-0.6,0-0.9-0.4-1-1.1
		c-0.1-0.7-0.2-1.4-0.2-2.1v-33.5c-7.6,11.2-14.5,19.6-20.7,25c-9.5,8.3-19.5,12.5-30.1,12.5c-9.7,0-18.8-4.3-27.4-12.9
		c-8.7-8.5-13.1-22.7-13.1-42.7V196.9c0-11.1-1.9-18.5-5.7-22.3c-2.5-2.3-7.7-4-15.7-5v-5.8L1298.3,163.7L1298.3,163.7z"/>
	<path class="st0" d="M1403.4,291.1h5.5c2.6,15.8,6,28,10.4,36.5c7.8,15.6,19.2,23.3,34.3,23.3c8.4,0,14.9-2.9,19.7-8.5
		c4.9-5.8,7.4-13.3,7.4-22.5c0-5.8-1.4-11.5-4.2-16.9c-2.8-5.4-7.7-10.7-14.7-15.8l-18.7-13.3c-13.7-9.2-23.8-18.4-30.3-27.7
		c-6.5-9.3-9.7-20.3-9.7-32.9c0-15.6,4.5-28.4,13.4-38.4c8.9-10,20.1-15,33.6-15c5.9,0,12.4,1.4,19.4,4.2c7.1,2.8,11.1,4.2,12.1,4.2
		c2,0,3.4-0.3,4.3-1.1c1-0.9,1.8-2,2.3-3.3h4l1.2,58.1h-5.2c-2.2-13.5-5.2-24-9-31.5c-6.9-13.9-16.9-20.8-29.9-20.8
		c-7.8,0-14,3-18.4,9c-4.5,6-6.7,13-6.7,21.1c0,12.8,7.7,24.2,23.1,34.2l22.1,14.8c23.7,16.1,35.6,34.9,35.6,56.3
		c0,16.4-4.9,29.8-14.9,40.2c-9.8,10.4-22.7,15.6-38.6,15.6c-6.7,0-14.3-1.4-22.8-4.2c-8.5-2.8-13.5-4.2-15-4.2
		c-1.3,0-2.5,0.6-3.5,1.9c-1.1,1.2-1.9,2.6-2.4,4.2h-4.3L1403.4,291.1L1403.4,291.1L1403.4,291.1z"/>
	<path class="st0" d="M1575.4,164.6v15h-34.1l-0.3,120c0,10.6,0.7,18.6,2.2,24c2.7,9.6,7.9,14.4,15.7,14.4c4,0,7.5-1.2,10.4-3.5
		c3-2.4,6.4-6.1,10.2-11.2l4.4,4.6l-3.7,6.3c-5.8,9.7-11.9,16.6-18.4,20.6c-6.5,4-12.7,6-18.7,6c-13.2,0-22.1-7.3-26.8-21.9
		c-2.6-7.9-3.8-18.9-3.8-32.9V179.6h-18.2c-0.5-0.3-1-0.8-1.3-1.2c-0.2-0.5-0.4-1.1-0.3-1.7c-0.1-1.1,0.2-2.2,0.7-3.1
		c0.6-0.8,2.2-2.6,4.8-5.4c7.7-7.9,13.2-14.3,16.6-19.2c3.4-5,11.5-18.1,24.1-39.2c1.4,0,2.3,0.1,2.5,0.4c0.3,0.3,0.5,1.3,0.5,3.1
		v51.3L1575.4,164.6L1575.4,164.6z"/>
	<path class="st0" d="M1554.1,349.9c10.3-1.1,17.1-3.3,20.4-6.7c3.3-3.5,5-10.8,5-21.9v-94c0-13.7-1.1-23.6-3.2-29.4
		c-2-6-5.7-8.9-11.2-9c-1.1,0-2.6,0.2-4.5,0.6c-1.9,0.3-3.8,0.7-5.7,1.2V184l19.6-8.5c4.7-2,9.3-4.1,13.9-6.3
		c5.6-2.6,11.3-5.6,17.2-9c0.8,0,1.2,0.4,1.3,1.1c0.2,0.7,0.3,2.2,0.3,4.4v34.2c7.1-12.3,14-22,20.6-29c6.7-7,13.6-10.4,20.8-10.4
		c5.7,0,10.3,2.1,13.9,6.5c3.6,4.2,5.4,9.4,5.4,15.8c0,5.7-1.4,10.5-4.2,14.4c-2.7,3.9-6.1,5.8-10.2,5.8c-4.2,0-8.5-2.4-12.9-7.3
		c-4.2-4.9-7.6-7.3-10-7.3c-3.9,0-8.7,4-14.4,11.9c-5.7,7.8-8.5,15.8-8.5,24.2v94c0,12,2.2,20.3,6.7,25c4.5,4.6,11.9,6.7,22.3,6.5
		v6.9h-82.5L1554.1,349.9L1554.1,349.9L1554.1,349.9z"/>
	<path class="st0" d="M1669,72.2c3.3-4.3,7.5-6.4,12.4-6.5c4.8,0,8.9,2.2,12.2,6.5c3.4,4.2,5.2,9.3,5.2,15.4c0,6-1.8,11.1-5.2,15.4
		c-3.4,4.2-7.4,6.3-12.2,6.3c-4.9,0-9-2.1-12.4-6.3c-3.3-4.3-5-9.4-5-15.4C1664,81.7,1665.6,76.6,1669,72.2z M1642.5,350.9
		c11.9-1.4,19.5-3.9,22.6-7.5c3.1-3.8,4.7-13.7,4.7-30V214c0-9-0.5-15.3-1.5-18.8c-1.7-5.7-5.2-8.5-10.5-8.5c-1.2,0-2.5,0.1-3.7,0.4
		c-1.1,0.3-4.5,1.4-10.1,3.3V184l7.2-2.9c19.5-7.9,33.1-13.9,40.8-17.9c3.1-1.6,5.1-2.5,6-2.5c0.2,1,0.3,2,0.3,3.1v149.6
		c0,15.9,1.5,25.8,4.5,29.8c3.1,4,10.1,6.6,20.9,7.7v5.8h-81.3L1642.5,350.9L1642.5,350.9z"/>
	<path class="st0" d="M1820,181.7c11.8,13.5,17.7,32.7,17.7,57.5h-106.2c1.1,32.3,7,55.7,17.6,70.5c10.6,14.7,23.1,22.1,37.6,22.1
		c11.7,0,21.6-3.8,29.6-11.4c8-7.7,15.4-18.5,22.2-32.5l5.8,2.5c-4.6,17.7-13.2,34-25.7,49c-12.5,15-27.8,22.5-46,22.5
		c-20.9,0-37.2-9.9-48.7-29.6c-11.4-19.7-17-42.5-17-68.2c0-27.9,6.6-52,19.9-72.3c13.3-20.3,30.6-30.4,51.9-30.4
		C1794.4,161.2,1808.1,168,1820,181.7L1820,181.7z M1739.8,197.5c-3.6,7.5-6.2,17-7.7,28.4h70.6c-1.2-13.9-3.3-24.3-6.4-31.1
		c-5.4-12.2-14.6-18.3-27.4-18.3C1756.2,176.4,1746.5,183.5,1739.8,197.5L1739.8,197.5z"/>
	<path class="st0" d="M1839.2,291.1h5.5c2.6,15.8,6,28,10.4,36.5c7.8,15.6,19.2,23.3,34.3,23.3c8.4,0,14.9-2.9,19.7-8.5
		c4.9-5.8,7.4-13.3,7.4-22.5c0-5.8-1.4-11.5-4.2-16.9c-2.8-5.4-7.7-10.7-14.7-15.8l-18.7-13.3c-13.7-9.2-23.8-18.4-30.3-27.7
		c-6.5-9.3-9.7-20.3-9.7-32.9c0-15.6,4.5-28.4,13.4-38.4c8.9-10,20.1-15,33.6-15c5.9,0,12.4,1.4,19.4,4.2c7.1,2.8,11.2,4.2,12.1,4.2
		c2,0,3.4-0.3,4.3-1.1c1.1-0.9,1.9-2,2.4-3.3h4l1.2,58.1h-5.2c-2.2-13.5-5.2-24-9-31.5c-6.9-13.9-16.9-20.8-30-20.8
		c-7.8,0-13.9,3-18.4,9c-4.5,6-6.7,13-6.7,21.1c0,12.8,7.7,24.2,23.1,34.2l22.1,14.8c23.8,16.1,35.6,34.9,35.6,56.3
		c0,16.4-5,29.8-14.9,40.2c-9.8,10.4-22.7,15.6-38.6,15.6c-6.7,0-14.3-1.4-22.7-4.2c-8.5-2.8-13.5-4.2-15-4.2
		c-1.3,0-2.5,0.6-3.5,1.9c-1.1,1.2-1.9,2.6-2.4,4.2h-4.3L1839.2,291.1L1839.2,291.1z M1982.6,349c12.6-1.7,20.8-4.4,24.4-8.4
		c3.8-4,5.7-14.1,5.7-30.2V120.6c0-15.1-1.9-25-5.5-29.6c-3.7-4.7-11.9-7.6-24.6-8.8v-7.9h96.9v7.9c-12.6,0.8-21.1,3.4-25.4,7.7
		c-4.2,4.3-6.4,13.6-6.4,27.7v205.1c0,4.7,0.6,8.5,1.9,11.2c1.3,2.6,4.2,4.3,8.5,5c2.6,0.4,5.2,0.7,8,0.8c2.9,0.1,8.3,0.2,16.1,0.2
		c30.4,0,51-3.1,61.7-9.4c10.7-6.3,21.1-22.2,31.1-47.9h8.7l-16.7,74h-184.4L1982.6,349L1982.6,349L1982.6,349z"/>
	<path class="st0" d="M2244.4,164.6v15h-34.1l-0.3,120c0,10.6,0.7,18.6,2.2,24c2.7,9.6,7.9,14.4,15.7,14.4c4,0,7.5-1.2,10.4-3.5
		c3-2.4,6.4-6.1,10.2-11.2l4.4,4.6l-3.7,6.3c-5.8,9.7-11.9,16.6-18.4,20.6c-6.5,4-12.7,6-18.7,6c-13.2,0-22.1-7.3-26.8-21.9
		c-2.6-7.9-3.9-18.9-3.9-32.9V179.6h-18.2c-0.5-0.4-1-0.8-1.3-1.2c-0.2-0.5-0.3-1.1-0.3-1.7c-0.1-1.1,0.2-2.2,0.7-3.1
		c0.6-0.8,2.2-2.6,4.9-5.4c7.7-7.9,13.2-14.3,16.6-19.2c3.4-5,11.5-18.1,24.1-39.2c1.4,0,2.3,0.1,2.5,0.4c0.3,0.3,0.5,1.3,0.5,3.1
		v51.3L2244.4,164.6L2244.4,164.6z"/>
	<path class="st0" d="M2325.1,166.5c4.5,2.9,8.7,6.9,12.9,12.1v-66.3c0-8.5-0.8-14.3-2.4-17.5c-1.4-3.2-5-4.8-10.7-4.8
		c-1.3,0-2.5,0.1-3.5,0.2c-1,0.2-3.2,0.4-6.7,0.8v-6.9l13.7-4.4c5-1.7,10.1-3.4,15-5.2c5-1.8,9.4-3.5,13.2-5.2c1.8-0.7,4.7-2,8.9-4
		l1,0.4l-0.3,21.9c-0.1,7.9-0.2,16.1-0.4,24.6c-0.1,8.3-0.2,16.6-0.2,24.8l-0.3,170.3c0,9,0.9,15.4,2.7,18.9
		c1.8,3.6,6.5,5.4,14.2,5.4h3.7c1.2-0.1,2.5-0.3,3.7-0.6v6.9c-0.7,0.3-8.8,3.7-24.2,10.4l-26.3,12.3l-1.1-1.9v-25.6
		c-6.3,8.5-11.7,14.5-16.2,18.1c-8.1,6.2-17.6,9.4-28.3,9.4c-19,0-34.4-9.1-46.2-27.3c-11.7-18.3-17.6-39.5-17.6-63.6
		c0-30.1,7-56,21.1-77.5c14.2-21.7,31.5-32.5,51.9-32.5C2310.8,159.8,2318.3,162,2325.1,166.5L2325.1,166.5z M2330,328.6
		c5.4-6.4,8.1-12.4,8.1-18.1v-89.4c0-18.1-3.9-30.8-11.7-38.2c-7.7-7.5-15.2-11.2-22.6-11.2c-14.1,0-25,7.8-32.8,23.3
		c-7.8,15.4-11.7,34.5-11.7,57.1c0,22.4,4.1,42.3,12.4,59.8c8.4,17.5,20.8,26.3,37.3,26.3C2317.6,338.2,2324.6,335,2330,328.6
		L2330,328.6z M110.3,441.1h350.1v350H110.3V441.1z"/>
	<path class="st1" d="M584.4,441.1H876v350H584.4V441.1z"/>
	<path class="st2" d="M996.2,441.1h260v350h-260V441.1z"/>
	<path class="st3" d="M1376.4,441.1h197v350h-197V441.1z"/>
	<path class="st4" d="M1693.6,441.1h139.9v350h-139.9V441.1z"/>
	<path class="st5" d="M1953.6,441.1H2060v350h-106.4V441.1z"/>
	<path class="st6" d="M2178.2,441.1h49.3v350h-49.3V441.1z"/>
	<path class="st7" d="M2344.6,441.1h22.6v350h-22.6V441.1z"/>
</g>
</svg>
