<?xml version="1.0" encoding="UTF-8"?>
<!-- Generator: Adobe Illustrator 22.0.1, SVG Export Plug-In . SVG Version: 6.00 Build 0)  -->
<svg version="1.1" id="Layer_1" xmlns="http://www.w3.org/2000/svg" xmlns:xlink="http://www.w3.org/1999/xlink" x="0px" y="0px" viewBox="0 0 49.1 27" style="enable-background:new 0 0 49.1 27;" xml:space="preserve">
<style type="text/css">
	.st0{fill:#505353;}
	.st1{fill:#00BEDF;}
</style>
<g>
	<polygon class="st0" points="6.4,0.4 6.4,16.5 9,16.5 9,10.9 9,10.9 12.9,16.5 16,16.5 11.6,10.2 15.7,5.4 12.6,5.4 9,9.6 9,0.4     "/>
	<path class="st0" d="M20.7,14.9c1.9,0,2.1-1.9,2.1-4c0-2.1-0.3-4-2.1-4c-1.9,0-2.1,1.9-2.1,4C18.6,13,18.8,14.9,20.7,14.9    M15.8,10.9c0-3.6,1.7-5.8,4.9-5.8c3.2,0,4.9,2.2,4.9,5.8c0,3.6-1.7,5.8-4.9,5.8C17.5,16.7,15.8,14.6,15.8,10.9"/>
	<path class="st0" d="M31.6,14.9c1.7,0,1.9-2.2,1.9-4c0-2-0.2-4.1-1.9-4.1c-1.6,0-2,2.3-2,4.1C29.6,13.7,30,14.9,31.6,14.9    M29.6,6.7L29.6,6.7c0.4-0.6,1.2-1.6,2.9-1.6c2.7,0,3.8,2.3,3.8,5.8c0,3.1-1.1,5.8-4.7,5.8c-2.9,0-4.6-1.7-4.6-5V0.4h2.6V6.7z"/>
	<path class="st0" d="M42.5,14.9c1.9,0,2.1-1.9,2.1-4c0-2.1-0.3-4-2.1-4c-1.9,0-2.1,1.9-2.1,4C40.3,13,40.6,14.9,42.5,14.9    M37.6,10.9c0-3.6,1.7-5.8,4.9-5.8c3.2,0,4.9,2.2,4.9,5.8c0,3.6-1.7,5.8-4.9,5.8C39.3,16.7,37.6,14.6,37.6,10.9"/>
	<path class="st1" d="M37.7,20.3c-3,0-5.1,0.1-6.2,0.2c-1.1,0.2-2.1,0.5-3,1c-1.1,0.6-1.8,1.5-2.1,2.5h-0.3   c-0.2-0.9-0.8-1.7-1.8-2.3c-0.8-0.5-1.7-0.8-2.8-1.1c-1.1-0.2-2.5-0.3-4.2-0.3l-4,0H8c-1.1,0-2,0-2.9,0L0.4,23   c1.2,0.1,2.5,0.2,4,0.2l4.2,0l6.3-0.1l4.6-0.1c2,0,3.5,0.3,4.5,0.8c1,0.5,1.6,1.4,1.8,2.7h0.8c0.2-0.9,0.6-1.6,1.1-2.2   c0.5-0.5,1.1-0.8,1.9-1.1c0.8-0.2,1.9-0.3,3.3-0.3l3.9,0l2.9,0v-2.8L37.7,20.3z"/>
	<rect x="41.5" y="20.3" class="st1" width="2.8" height="2.8"/>
	<rect x="45.9" y="20.3" class="st1" width="2.8" height="2.8"/>
</g>
</svg>