<?xml version="1.0" encoding="utf-8"?>
<!-- Generator: Adobe Illustrator 23.0.3, SVG Export Plug-In . SVG Version: 6.00 Build 0)  -->
<svg version="1.1" id="Layer_1" xmlns="http://www.w3.org/2000/svg" xmlns:xlink="http://www.w3.org/1999/xlink" x="0px" y="0px"
	 width="2500px" height="1618px" viewBox="0 0 2500 1618" enable-background="new 0 0 2500 1618" xml:space="preserve">
<radialGradient id="SVGID_1_" cx="752.1913" cy="693.8066" r="139.754" gradientTransform="matrix(8.6369 0 0 -8.6369 -5292.6079 7137.9424)" gradientUnits="userSpaceOnUse">
	<stop  offset="0" style="stop-color:#FFFFFF"/>
	<stop  offset="0.135" style="stop-color:#E4E99D"/>
	<stop  offset="0.36" style="stop-color:#89BF7E"/>
	<stop  offset="0.562" style="stop-color:#75B552"/>
	<stop  offset="0.764" style="stop-color:#003713"/>
	<stop  offset="1" style="stop-color:#33A457"/>
</radialGradient>
<path fill="url(#SVGID_1_)" d="M1638.1,150.8c231.2,200,244.9,519.8,44.2,743.4c-200.8,223.7-483.1,267.6-714.2,67.6
	c-231.2-200.1-255.9-543.5-55.1-767.2C1113.8-29,1406.9-49.2,1638.1,150.8L1638.1,150.8z"/>
<radialGradient id="SVGID_2_" cx="737.2243" cy="708.1226" r="124.255" gradientTransform="matrix(8.6369 0 0 -8.6369 -5279.9785 7137.9424)" gradientUnits="userSpaceOnUse">
	<stop  offset="0" style="stop-color:#FFFFFF"/>
	<stop  offset="0.135" style="stop-color:#A4CA82"/>
	<stop  offset="0.149" style="stop-color:#9CC77D"/>
	<stop  offset="0.222" style="stop-color:#74B669"/>
	<stop  offset="0.285" style="stop-color:#54AC5E"/>
	<stop  offset="0.335" style="stop-color:#3CA658"/>
	<stop  offset="0.365" style="stop-color:#33A457"/>
	<stop  offset="0.551" style="stop-color:#6CB476"/>
	<stop  offset="0.579" style="stop-color:#63AA6E"/>
	<stop  offset="0.631" style="stop-color:#52955D"/>
	<stop  offset="0.703" style="stop-color:#367444"/>
	<stop  offset="0.789" style="stop-color:#084A25"/>
	<stop  offset="0.832" style="stop-color:#00320C"/>
	<stop  offset="1" style="stop-color:#38704A"/>
</radialGradient>
<path fill="url(#SVGID_2_)" d="M951.2,260.6c-192.5,168.2-206.8,463.6-31.8,659.9c175,196.4,472.9,219.2,665.5,51
	c192.3-168,206.6-463.6,31.6-659.9C1441.6,115.4,1143.6,92.6,951.2,260.6L951.2,260.6z"/>
<radialGradient id="SVGID_3_" cx="479.453" cy="788.2478" r="78.139" gradientTransform="matrix(8.3294 0 0 -8.3294 -2918.8013 6917.8296)" gradientUnits="userSpaceOnUse">
	<stop  offset="0" style="stop-color:#FFFFFF"/>
	<stop  offset="0.129" style="stop-color:#B1D29D"/>
	<stop  offset="0.286" style="stop-color:#7CBA74"/>
	<stop  offset="0.477" style="stop-color:#33A457"/>
	<stop  offset="0.73" style="stop-color:#045229"/>
	<stop  offset="1" style="stop-color:#196535"/>
</radialGradient>
<path fill="url(#SVGID_3_)" d="M1509.7,842.8c-160.1,126.8-396.8,104-528.7-50.9c-131.9-155-109-383.5,51-510.3
	c159.9-126.7,396.7-103.9,528.7,51C1692.5,487.5,1669.6,716.1,1509.7,842.8z"/>
<g>
	<path fill="#FFFFFF" d="M1104.6,147.4c17,4.5,27.5,21.8,23.1,38.6c-4.5,16.6-21.9,26.5-39,22c-17.1-4.6-27.5-21.9-23.1-38.6
		C1069.9,152.7,1087.4,142.8,1104.6,147.4L1104.6,147.4z M1138.9,211.2c11.8,3.1,18.8,15,15.8,26.4c-3.1,11.6-15.1,18.4-26.8,15.3
		c-11.7-3.2-18.9-14.9-15.8-26.5C1115.2,214.9,1127.1,208,1138.9,211.2L1138.9,211.2z M1179.2,270.9c7.7,2,12.3,9.8,10.4,17.3
		c-1.9,7.5-9.9,12-17.7,9.9c-7.7-1.9-12.3-9.7-10.4-17.4C1163.5,273.3,1171.5,268.8,1179.2,270.9L1179.2,270.9z"/>
</g>
<radialGradient id="SVGID_4_" cx="808.1355" cy="761.953" r="118.604" gradientTransform="matrix(7.0867 0 0 -7.0867 -4312.23 5626.1216)" gradientUnits="userSpaceOnUse">
	<stop  offset="0" style="stop-color:#F8FCFE"/>
	<stop  offset="0.172" style="stop-color:#ECEEF0"/>
	<stop  offset="0.393" style="stop-color:#E4E4E5"/>
	<stop  offset="1" style="stop-color:#5D6469"/>
</radialGradient>
<path fill="url(#SVGID_4_)" d="M841.5,242.8c-173,253.6-107.7,599.4,145.9,772.4c253.6,173,599.4,107.7,772.4-145.8
	c173-253.6,107.7-599.4-145.8-772.4C1360.4-76.1,1014.6-10.8,841.5,242.8L841.5,242.8z M1721.5,611.4
	c-2.3,70.6-25.8,137.2-75.2,207.8c-141.6,202.1-440.5,246.7-645.7,106.7c-134.6-91.5-209.4-248.5-195.6-410.7
	c20.3,54.8,108.7,104.5,176.7,104.8c92.5,0.4,195.7-41.4,286.4-106.7c109.9-79.1,196.8-129.5,276.6-123.2
	C1620.3,396.1,1725.9,474.5,1721.5,611.4z M1309.8,279.2C1186.1,432.6,1082.7,493,984.3,510.6C912,523.5,813,460.3,842.9,366.7
	c9.6-30.1,23.4-58.6,41.1-84.7c84.5-123.9,219.2-193.3,359-200.1C1341.2,77,1419.9,142.7,1309.8,279.2L1309.8,279.2z"/>
<g>
	<path fill="#6D6E70" d="M1522.6,1547.4c-22.7-4-36-15.1-39.7-35.1c-0.7-3.7-1-8.3-1-33.8v-38c0-21.8,0.4-28.1,1.1-31.9
		c3.6-17.2,15.8-29.3,39.1-34c6.9-1.4,13.4-2.1,54.2-2.1h54.4v33.6h-56.3c-30.6,0-34.8,0.6-37.7,1.6c-5.7,1.9-8.9,5.5-10.5,10.2
		c-0.9,2.5-1.2,7.8-1.2,23v36.1c0,19.4,0.4,24.7,1.4,27.2c1.6,4.3,4.9,7.4,10.5,9.2c3.8,1.3,8.7,1.9,38.8,1.9h58.1v33.6h-60.9
		C1535.6,1549.1,1529.1,1548.6,1522.6,1547.4L1522.6,1547.4z M1238.9,1442.4c0-31,0.7-33.7,2.1-38c4.4-13.8,15.5-23.8,31-28.6
		c6.8-2.1,14.6-3.2,51.6-3.2h26.8v33.9h-27.8c-25,0-29,0.6-31.6,1.7c-3.9,1.6-6,3.9-7.2,6.3c-1.2,2.3-1.4,5.3-1.4,22.9v111.8h-43.6
		L1238.9,1442.4L1238.9,1442.4z M1954.5,1474.6c-21.3,0-31.7-0.7-38.4-2.1c-20.1-4.1-33.4-14.6-37.5-31.8c-0.9-3.7-1.3-11-1.3-16.8
		v-1.5c0-10.8,0.8-16.8,2.3-21.2c5.1-14.8,18.5-23.3,38.4-26.8c8.7-1.3,20.8-1.9,55.5-1.9h65.9v33.8h-98.1c-18,0-21.2,5.4-21.2,17.2
		c0,10.5,2.5,17.6,21.6,17.6h26.2c24.6,0,30.8,0.6,37.1,1.9c24.7,4.7,36.1,17.7,39.8,33.1c1,4.1,1.4,11.9,1.4,18.4v2.1
		c0,7.6-0.4,14.6-1.2,18.5c-3.6,17.6-12.3,28.6-36.4,32.5c-6.8,1.1-11.9,1.3-43.4,1.3h-86.5v-33.7h99.3c18.3,0,25-2.1,25-20.5
		c0-16.1-7.6-20.3-25.3-20.3L1954.5,1474.6L1954.5,1474.6z M1747.7,1474.6c-21.4,0-31.7-0.7-38.4-2.1c-20.1-4.1-33.5-14.6-37.5-31.8
		c-0.9-3.7-1.3-11-1.3-16.8v-1.5c0-10.8,0.8-16.8,2.3-21.2c5.1-14.8,18.5-23.3,38.4-26.8c8.8-1.3,20.9-1.9,55.6-1.9h65.9v33.8h-98
		c-17.9,0-21.2,5.4-21.2,17.2c0,10.5,2.5,17.6,21.5,17.6h26.3c24.6,0,30.8,0.6,37.1,1.9c24.7,4.7,36.1,17.7,39.8,33.1
		c1,4.1,1.4,11.9,1.4,18.4v2.1c0,7.6-0.4,14.6-1.2,18.5c-3.6,17.6-12.2,28.6-36.3,32.5c-6.9,1.1-12,1.3-43.5,1.3H1672v-33.7h99.3
		c18.3,0,24.9-2.1,24.9-20.5c0-16.1-7.6-20.3-25.3-20.3L1747.7,1474.6L1747.7,1474.6z M112.4,1513.5c21.6,0,31-5.6,34.1-14.9
		c0.8-2.5,1.5-6,1.5-14.8v-5.1c0-8-0.7-12.4-1.5-15.1c-3.3-10.6-13.6-14.8-33.7-14.8l-43.1-0.1c-40.5,0-64.3-19.1-68.8-45.7
		c-0.5-3.2-0.8-10.1-0.8-20.8v-2.7c0-9.4,0.2-17,0.6-19.8c3.5-27,23.8-42.2,58.3-46.1c8.4-1.1,24.3-1,33.4-1h87.6v36l-102-0.1
		c-17.5,0-27.8,3.6-31.1,13.4c-0.8,2.4-1.4,8.9-1.4,16.4v3.1c0,8.1,0.5,13.7,1,16.1c3,11.9,13.7,15.6,33.5,15.6l42.3-0.1
		c45.2,0,66.8,14.7,71,43.5c0.5,3.5,0.7,13.7,0.7,17.6v9.5c0,3.8-0.2,13.9-0.7,17.4c-3.5,27.1-20.5,43-52,46.9
		c-5.3,0.7-20.3,1-40.7,1H3.8v-35.6H112.4z M420.2,1408.9c-4.3-18.1-15.9-29.9-40.8-34.4c-6.3-1-13.3-1.9-44.7-1.9h-16.1
		c-22.1,0-32.8,0.6-40.2,1.4c-26.1,3.3-39.5,14.5-44.1,33.7c-1.3,5.2-1.5,12.3-1.5,34.2v33.7c0,21.8,0.9,33.3,2.6,38.4
		c5.1,15,15.9,26.2,34.2,31.6c7.9,2.3,20.2,3.6,51.2,3.6h15.7c29.2,0,38.5-1,45.8-2.9c19.7-5.1,32.3-17,37.3-34.8
		c1.3-4.6,2-14.2,2-31.8v-33.4C421.7,1423,421.2,1413,420.2,1408.9 M379.4,1481c0,15.9-0.5,22-1.4,24.4c-1.6,4.1-4.9,7.4-9.1,9
		c-3.4,1.4-9.8,2.1-30.2,2.1h-20.8c-21.2,0-30.6-0.7-33.7-2.2c-3.5-1.8-6.2-4.7-7.7-8.9c-0.9-2.6-1.4-12.5-1.4-31.4v-28.6
		c0-18.2,0.4-27.3,1.2-29.5c1.6-4.4,5-7.4,10.3-9.1c3.3-1.1,10.8-1.5,28.2-1.5h23.2c13.9,0,25.6,0.4,28.8,1.2
		c6.7,1.8,10.1,5.2,11.7,10.3c0.7,2.3,1,11.9,1,29.7L379.4,1481L379.4,1481z M2272.8,1408.9c-4.4-18.1-15.9-29.9-40.8-34.4
		c-6.3-1-13.3-1.9-44.7-1.9h-16.1c-22,0-32.8,0.6-40.3,1.4c-26.1,3.3-39.4,14.5-44.1,33.7c-1.3,5.2-1.4,12.3-1.4,34.2v33.7
		c0,21.8,0.9,33.3,2.6,38.4c5.1,15,15.9,26.2,34.2,31.6c7.9,2.3,20.1,3.6,51.2,3.6h15.8c29.2,0,38.5-1,45.8-2.9
		c19.7-5.1,32.4-17,37.3-34.8c1.3-4.6,2-14.2,2-31.8v-33.4C2274.3,1423,2273.8,1413,2272.8,1408.9 M2232,1481
		c0,15.9-0.5,22-1.5,24.4c-1.6,4.1-4.9,7.4-9.1,9c-3.4,1.4-9.7,2.1-30.2,2.1h-20.8c-21.2,0-30.5-0.7-33.6-2.2
		c-3.7-1.8-6.5-5-7.7-8.9c-0.9-2.6-1.4-12.5-1.4-31.4v-28.6c0-18.2,0.4-27.3,1.2-29.5c1.6-4.4,5-7.4,10.3-9.1
		c3.4-1.1,10.8-1.5,28.2-1.5h23.1c13.9,0,25.6,0.4,28.8,1.2c6.6,1.8,10.1,5.2,11.6,10.3c0.7,2.3,1,11.9,1,29.7L2232,1481L2232,1481z
		 M1054.9,1546.7c-24.1-5-45.1-17.9-50.2-42.5c-0.8-3.7-1.2-10.8-1.2-38.1v-65.3c0-32,0.4-40.4,1.6-45.5c3.6-15.3,15-34.3,48.6-40.6
		c7.3-1.4,15.8-2.2,60.6-2.2h81.8v36h-87.3c-32,0-38.4,0.6-42.6,1.9c-6.2,2-10,5.4-11.9,10.5c-0.9,2.4-1.4,5.5-1.4,26.3v24.4h131.9
		v34.9h-131.9v25.8c0,23.6,0.5,26.6,1.6,29.2c2.1,4.9,6,8,12.1,9.9c4.4,1.3,9.8,1.9,42.2,1.9h88.8v35.5h-80
		C1070.8,1549.1,1063,1548.3,1054.9,1546.7L1054.9,1546.7z M461.4,1444c0-21.9,0.4-30.7,1.3-34.5c4-17.8,17.2-29.8,38.1-34.5
		c6.8-1.6,15.6-2.4,43.8-2.4h21c26.4,0,37.4,1,44.1,2.7c23.2,5.7,32.5,19.5,36.1,31c1.8,5.9,2.2,11.8,2.2,32.6v110.2h-43.2v-111.3
		c0-13.4-0.3-19-0.8-21.1c-1.1-4.3-3.5-7-7.1-8.5c-2.8-1.2-11.6-1.7-34.3-1.7h-15.6c-22.7,0-31.8,0.6-34.6,1.8
		c-3,1.3-5.3,3.8-6.4,6.9c-0.7,2.1-1.1,5.8-1.1,22.6v111.4h-43.4C461.4,1545.7,461.4,1444,461.4,1444z M1392.1,1372.7v176.4h43.5
		v-176.4H1392.1z M1392.1,1312.6v36.1h43.5v-36.1H1392.1z M832,1379v97.6c0,17.6-0.4,24-1.2,26.3c-1.7,4.8-5.4,8.3-11.5,10
		c-2.9,0.9-7.4,1.4-25,1.4h-25.8c-20.2,0-24.6-0.8-27.9-2.4c-2.8-1.3-5.2-3.4-6.7-6.2c-1.2-2.4-1.8-6.4-1.8-24.9V1379H689v95.7
		c0,31.4,0.4,34.6,1.1,38.2c3.7,18.2,16.5,28.2,35.4,32.4l0.2,0.1c10.9,2.4,14.9,2.4,44.8,2.4h19.9c37.7,0,42.2-10.2,42.6-11.4v20.1
		c0,11.6-0.3,15.1-1,17.7c-1.3,4.7-4.2,8.1-10.9,9.8c-3.6,1-10,1.5-37.1,1.5h-75.4v32.5h78c40,0,46.3-0.8,52.6-2.4
		c20.7-5.2,31.1-18.2,34.4-33.3c0.9-4,1.4-11.5,1.4-37.3V1379L832,1379L832,1379z M2356.9,1546.3v-108.6c0-16.7,0.3-20.5,1-22.6
		c1-3.1,3.4-5.6,6.4-6.9c2.9-1.3,12-1.8,34.6-1.8h15.6c22.7,0,31.5,0.5,34.4,1.7c3.6,1.5,5.9,4.2,7.1,8.5c0.5,2.1,0.8,7.7,0.8,21.1
		v108.6h43.2v-107.5c0-20.8-0.4-26.7-2.3-32.6c-3.6-11.5-12.9-25.3-36.1-31c-6.8-1.7-17.8-2.7-44.2-2.7h-21
		c-28.2,0-37.1,0.8-43.8,2.4c-20.8,4.7-34,16.7-38,34.5c-0.9,3.8-1.3,12.6-1.3,34.5v102.3L2356.9,1546.3L2356.9,1546.3z"/>
</g>
</svg>
