<?xml version="1.0" encoding="utf-8"?>
<!-- Generator: Adobe Illustrator 23.0.3, SVG Export Plug-In . SVG Version: 6.00 Build 0)  -->
<svg version="1.1" id="svg5047" xmlns:svg="http://www.w3.org/2000/svg"
	 xmlns="http://www.w3.org/2000/svg" xmlns:xlink="http://www.w3.org/1999/xlink" x="0px" y="0px" width="1024px" height="181px"
	 viewBox="0 0 1024 181" enable-background="new 0 0 1024 181" xml:space="preserve">
<g id="layer1" transform="translate(-417.78125,-612.96875)">
	<path id="path4061" d="M726.9,613c-20.2,0-29.8,2.1-40.3,6.2l-1.9,0.7l11.4,20.3l1.4-0.5c7.8-3.2,16.4-4.3,32.5-4.3H747
		c25,0,39.3,12.4,39.3,34.3V737c0,21.9-14.3,34.3-39.3,34.3h-27.9c-25.6,0-38.1-10.3-38.1-31.6c0-21.2,12.5-31.4,38.1-31.4H758
		v-22.6h-40c-38,0-59.8,19.8-59.8,54.2c0,33.3,22.9,54,59.8,54h30.1c42,0,61.2-28,61.2-54v-73.1c0-26-19.2-53.8-61.2-53.8H726.9z
		 M896,613c-42,0-61.2,27.9-61.2,53.8v73.1c0,26,19.2,54,61.2,54h26c21.4,0,35.4-3.1,46.6-10.4l1.4-1l-13-19l-1.4,0.9
		c-8.4,5.1-19,7-36.6,7h-22c-25.3,0-39.3-12.1-39.3-34.3v-67.3c0-22.2,14-34.3,39.3-34.3h22c17.5,0,28.1,2.1,36.6,7.2l1.4,0.9
		l13-19.1l-1.4-0.9c-11.2-7.3-25.2-10.4-46.6-10.4H896z M1045.9,613c-42.1,0-61.3,27.9-61.3,53.8v73.1c0,26,19.2,54,61.2,54h30.1
		c42,0,61-28,61-54v-73.1c0-26-19.2-53.8-61.3-53.8H1045.9z M1223.4,613.3c-36.2,0-59.6,20.6-59.6,52.3v127.5h22.9V668.5
		c0-22,12.3-32.8,37.8-32.8c24.1,0,37.4,11,37.4,30.8v126.6h22.9V666.5c0-19.8,13.3-30.8,37.4-30.8c25.5,0,37.9,10.8,37.9,32.8
		v124.6h22.7V665.6c0-31.7-23.4-52.3-59.6-52.3c-24.2,0-38.8,6-49.9,20.3C1262.2,619.3,1247.6,613.3,1223.4,613.3z M417.8,614.2
		v127.5c0,31.7,23.4,52.3,59.6,52.3c24.1,0,38.8-6,49.9-20.3c11.1,14.4,25.7,20.3,49.9,20.3c36.2,0,59.6-20.6,59.6-52.3V614.2h-22.7
		v124.6c0,22-12.5,32.6-37.9,32.6c-24.1,0-37.4-10.8-37.4-30.6V614.2H516v126.6c0,19.7-13.3,30.6-37.4,30.6
		c-25.4,0-37.9-10.6-37.9-32.6V614.2H417.8z M1424.4,614.2c-4.8,0-8.9,1.7-12.3,5.1c-3.4,3.4-5.1,7.5-5.1,12.3
		c0,4.9,1.8,9.1,5.1,12.5c3.4,3.4,7.5,5.1,12.3,5.1c4.8,0,8.9-1.7,12.3-5.1c3.4-3.4,5.1-7.6,5.1-12.5c0-4.8-1.7-8.9-5.1-12.3
		C1433.2,615.9,1429.2,614.2,1424.4,614.2z M1424.4,616.6c4.2,0,7.7,1.5,10.6,4.4c2.9,2.9,4.4,6.6,4.4,10.8c0,4.2-1.5,7.6-4.4,10.6
		c-2.9,3-6.4,4.4-10.6,4.4c-4.2,0-7.7-1.5-10.6-4.4c-2.9-3-4.4-6.4-4.4-10.6c0-4.2,1.5-7.8,4.4-10.8
		C1416.7,618.1,1420.2,616.6,1424.4,616.6z M1417.3,622.1v19.1h3.2v-7.5h2.7c1.8,0,3,0.3,3.8,0.7c1.2,0.7,1.7,2.1,1.7,4.3v1.5
		l0.2,0.7c0,0.1,0,0.1,0,0.2s0,0.1,0,0.2h3.2l-0.2-0.2c-0.1-0.2-0.1-0.5-0.2-1c0-0.5,0-0.9,0-1.4v-1.5c0-1-0.3-1.9-1-2.9
		c-0.7-1-1.7-1.6-3.2-1.9c1.2-0.2,2.1-0.4,2.7-0.9c1.3-0.8,1.9-2.2,1.9-3.9c0-2.4-1.1-4-3.1-4.8c-1.1-0.5-2.7-0.7-5.1-0.7H1417.3z
		 M1420.6,624.3h2.9c1.9,0,3.2,0.4,4.1,0.9c0.9,0.5,1.4,1.3,1.4,2.7c0,1.5-0.7,2.5-2.1,3.1c-0.7,0.3-1.8,0.3-3.2,0.3h-3.1V624.3z
		 M1046.7,635.4h27.9c25,0,39.3,12.4,39.3,34.3V737c0,21.9-14.3,34.3-39.3,34.3h-27.9c-25.4,0-39.3-12.1-39.3-34.3v-67.3
		C1007.4,647.8,1021.8,635.4,1046.7,635.4z"/>
</g>
</svg>
