<svg xmlns="http://www.w3.org/2000/svg" xmlns:xlink="http://www.w3.org/1999/xlink" width="120.06" height="55.101" viewBox="0 0 120.06 55.101">
  <defs>
    <linearGradient id="linear-gradient" x1="0.004" y1="0.605" x2="0.919" y2="0.456" gradientUnits="objectBoundingBox">
      <stop offset="0" stop-color="#fff"/>
      <stop offset="0.323" stop-color="#fdfdfd"/>
      <stop offset="0.488" stop-color="#f5f5f5"/>
      <stop offset="0.617" stop-color="#e8e8e8"/>
      <stop offset="0.727" stop-color="#d5d5d6"/>
      <stop offset="0.826" stop-color="#bcbdbe"/>
      <stop offset="0.915" stop-color="#9fa0a1"/>
      <stop offset="0.997" stop-color="#7b7d7e"/>
      <stop offset="1" stop-color="#7a7c7d"/>
    </linearGradient>
    <linearGradient id="linear-gradient-2" x1="0.183" y1="0.351" x2="0.817" y2="0.649" gradientUnits="objectBoundingBox">
      <stop offset="0" stop-color="#fff"/>
      <stop offset="0.136" stop-color="#f8f8f9"/>
      <stop offset="0.329" stop-color="#e6e6e6"/>
      <stop offset="0.556" stop-color="#c8c8c9"/>
      <stop offset="0.806" stop-color="#9e9fa0"/>
      <stop offset="1" stop-color="#787a7b"/>
    </linearGradient>
    <linearGradient id="linear-gradient-3" x1="0.879" y1="0.674" x2="0.1" y2="0.441" gradientUnits="objectBoundingBox">
      <stop offset="0" stop-color="#fff"/>
      <stop offset="0.129" stop-color="#dfe0e0"/>
      <stop offset="0.306" stop-color="#babbbc"/>
      <stop offset="0.484" stop-color="#9d9f9f"/>
      <stop offset="0.659" stop-color="#898a8b"/>
      <stop offset="0.832" stop-color="#7c7e7f"/>
      <stop offset="1" stop-color="#787a7b"/>
    </linearGradient>
  </defs>
  <g id="logo-thomson" transform="translate(127.979 -200.265)">
    <g id="g2402" transform="translate(-127.979 200.265)">
      <g id="g2956" transform="translate(0 0)">
        <path id="polyline2595" d="M24.559,41.921l-.816,3.885H16.375l.817-3.885H.492L0,44.25H5.058l-1.8,8.576H6.132L7.938,44.25h5.885l-1.806,8.576H14.9l.959-4.557h7.37l-.962,4.557h2.879l2.293-10.906H24.559" transform="translate(0 -15.644)" fill="#fe0000"/>
        <path id="path2597" d="M345.932,295.41a4.046,4.046,0,0,1-3.214-1.164,2.593,2.593,0,0,1-.434-2.241c.434-2.059,2.511-3.445,5.167-3.445a4.05,4.05,0,0,1,3.225,1.184,2.547,2.547,0,0,1,.442,2.2c-.443,2.1-2.479,3.464-5.186,3.464m5.415.571a6.462,6.462,0,0,0,2.71-3.976A4.18,4.18,0,0,0,353,288.017a7.249,7.249,0,0,0-5.114-1.8A10.208,10.208,0,0,0,342.048,288a6.449,6.449,0,0,0-2.7,3.945,4.191,4.191,0,0,0,1.04,4.018,7.087,7.087,0,0,0,5.114,1.791A10.23,10.23,0,0,0,351.347,295.98Z" transform="translate(-311.639 -260.261)" fill="#fe0000"/>
        <path id="path2599" d="M421.874,295.41a4.049,4.049,0,0,1-3.215-1.164,2.593,2.593,0,0,1-.434-2.24c.435-2.06,2.512-3.445,5.167-3.445a4.051,4.051,0,0,1,3.225,1.183,2.55,2.55,0,0,1,.443,2.2c-.444,2.1-2.48,3.464-5.185,3.464m5.415.572a6.462,6.462,0,0,0,2.71-3.976,4.181,4.181,0,0,0-1.061-3.988,7.247,7.247,0,0,0-5.113-1.805A10.211,10.211,0,0,0,417.99,288a6.443,6.443,0,0,0-2.7,3.946,4.191,4.191,0,0,0,1.039,4.018,7.089,7.089,0,0,0,5.115,1.792A10.24,10.24,0,0,0,427.288,295.981Z" transform="translate(-339.979 -260.261)" fill="#fe0000"/>
        <path id="polyline2601" d="M82.781,41.921l-5.76,5.546L73.6,41.921H70.377l-2.3,10.906h2.879l1.547-7.346,3.713,5.982L82.4,45.527l-1.538,7.3h2.88l2.3-10.906H82.781" transform="translate(-25.406 -15.644)" fill="#fe0000"/>
        <path id="path2603" d="M391.05,295.7a9.759,9.759,0,0,0,6.576,2.056c3.962,0,6.632-1.441,7.139-3.856a2.231,2.231,0,0,0-.277-1.866c-.565-.768-1.9-1.178-4.037-1.348-.741-.06-1.3-.086-1.752-.1a10.541,10.541,0,0,1-2.185-.283c-.816-.2-.738-.561-.713-.677.121-.578,1.319-1.1,3.663-1.1a8.291,8.291,0,0,1,4.422,1.108l1.923-1.794c-1.349-1.057-3.252-1.619-6.026-1.619-3.756,0-6.379,1.379-6.848,3.6a2.008,2.008,0,0,0,.306,1.737c.731.941,2.469,1.283,5.475,1.413,1.752.076,2.782.2,3.078.584a.5.5,0,0,1,.072.429c-.163.777-1.482,1.463-3.683,1.463a8.824,8.824,0,0,1-5.262-1.565L391.05,295.7" transform="translate(-330.981 -260.26)" fill="#fe0000"/>
        <path id="polyline2605" d="M156.582,41.921l-1.568,7.452-5.493-7.452h-3.2l-2.3,10.906H146.9l1.566-7.422,5.486,7.422h3.212l2.3-10.906h-2.881" transform="translate(-53.747 -15.644)" fill="#fe0000"/>
        <g id="g2607" transform="translate(91.808 0)">
          <g id="g2609" transform="translate(0 0)">
            <g id="g2611">
              <g id="g2613">
                <path id="use2637" d="M146.467,15.412a80.155,80.155,0,0,1,9.554,2.13,24.87,24.87,0,0,1,3.56,1.333c1.269.594,2.421,1.175,3.986,2.041a31.634,31.634,0,0,1,7.086,5.362,27.507,27.507,0,0,0-1.389-9.37,27.165,27.165,0,0,0-5.2-9.415,31.806,31.806,0,0,0-4.677-4.3c-.523-.374-1.29-.881-2.056-1.344-.615-.373-1.231-.718-1.719-.949C155.09.66,155.09.66,153.673,0a18.6,18.6,0,0,1-.987,8.142c-1.712,3.856-3.026,5-6.22,7.268" transform="translate(-146.467 -0.002)" fill="url(#linear-gradient)"/>
              </g>
            </g>
          </g>
        </g>
        <g id="g2642" transform="translate(97.963 45.834)">
          <g id="g2644" transform="translate(0 0)">
            <g id="g2646">
              <g id="g2648">
                <path id="use2666" d="M156.285,82.388a20.636,20.636,0,0,0,2.376-.85,13.391,13.391,0,0,0,2.2-1.186,20.63,20.63,0,0,0,2.133-1.6c.343-.293.645-.569.878-.8,1.118-1.038,1.837-1.838,2.546-2.607.484-.524,1.093-1.279,1.837-2.219-.264.081-.934.356-1.287.477-.651.224-1.149.421-2.326.738a19.513,19.513,0,0,1-2.872.561c-.861.129-1.47.191-2.7.272a19.406,19.406,0,0,1-.576,3.212,12.411,12.411,0,0,1-2.213,4.006" transform="translate(-156.285 -73.121)" fill="url(#linear-gradient-2)"/>
              </g>
            </g>
          </g>
        </g>
        <g id="g2671" transform="translate(110.18 26.509)">
          <g id="g2673" transform="translate(0 0)">
            <g id="g2675">
              <g id="g2677">
                <path id="use2697" d="M175.776,61.428a27.283,27.283,0,0,0,3.341-1.438c.191-.105.379-.212.563-.32a15.9,15.9,0,0,0,3.03-2.271,15.48,15.48,0,0,0,1.318-1.561,12.5,12.5,0,0,0,.778-1.268,7.953,7.953,0,0,0,.65-1.922,11.589,11.589,0,0,0,.2-1.913,10.271,10.271,0,0,0-1.264-4.673,16.955,16.955,0,0,0-1.818-2.731c-.219-.253-.087-.1-.275-.324-.211-.246-.427-.489-.66-.718a22.919,22.919,0,0,1-.354,3.744c-.222,1.333-.5,2.615-.693,3.463a33.349,33.349,0,0,1-1.727,5.613c-.373,1-.851,2.122-1.385,3.226a30.045,30.045,0,0,1-1.7,3.092" transform="translate(-175.776 -42.291)" fill="url(#linear-gradient-3)"/>
              </g>
            </g>
          </g>
        </g>
        <g id="g2720" transform="translate(31.597 39.042)">
          <path id="path2844" d="M-62-10.525h.958l-.185.872h-.957Zm-.608,7.154h-.853l1.059-5h.854l-1.059,5" transform="translate(63.464 10.525)" fill="#706d6e"/>
          <path id="path2846" d="M-56.658-2.15l.734-3.469c.107-.5.059-.97-.628-.97a1.257,1.257,0,0,0-.81.338,1.745,1.745,0,0,0-.353.732l-.712,3.369h-.854l.838-3.964c.073-.347.126-.692.168-1.04h.906l-.132.626h.021a1.613,1.613,0,0,1,1.464-.726c.478,0,.99.189,1.091.644a1.6,1.6,0,0,1,1.385-.644c.552,0,1.41.119,1.161,1.3l-.8,3.805h-.853L-53.3-5.62c.107-.5.06-.97-.627-.97a.929.929,0,0,0-.685.189,1.578,1.578,0,0,0-.478.882l-.713,3.369h-.853" transform="translate(61.903 9.304)" fill="#706d6e"/>
          <path id="path2848" d="M-8.081-4.377A2.336,2.336,0,0,1-9.9-3.668a1.546,1.546,0,0,1-1.2-.443.939.939,0,0,1-.187-.842c.182-.821.9-1.191,1.681-1.592ZM-9.134-7.354l-.237-.322a1.208,1.208,0,0,1-.388-.955,1.085,1.085,0,0,1,1.087-.794.8.8,0,0,1,.632.231.659.659,0,0,1,.106.578C-8.044-8.115-8.544-7.721-9.134-7.354Zm-.873.377c-.984.467-1.98.894-2.237,2.06A1.376,1.376,0,0,0-12-3.666a2.434,2.434,0,0,0,1.881.637,3.315,3.315,0,0,0,2.406-.849l.5.716h1.047L-7.1-4.582A5.035,5.035,0,0,0-6.052-7.075h-.817a6.142,6.142,0,0,1-.61,1.962L-8.715-6.881c1.049-.653,1.62-1.231,1.746-1.8a.962.962,0,0,0-.166-.875A1.751,1.751,0,0,0-8.482-10c-.451,0-1.944.093-2.213,1.311a2.292,2.292,0,0,0,.687,1.716" transform="translate(44.369 10.33)" fill="#706d6e"/>
          <path id="path2850" d="M-46.142-3.638c-.1.487.055.923.627.923.52,0,1.231-.308,1.488-1.924C-44.84-4.629-45.918-4.7-46.142-3.638Zm1.764.764H-44.4a1.645,1.645,0,0,1-1.5.821c-1.113,0-1.291-.683-1.088-1.644.321-1.516,1.9-1.586,3.086-1.556.162-.664.325-1.387-.591-1.387a.963.963,0,0,0-1.011.891h-.926a1.855,1.855,0,0,1,2.1-1.506c1.353,0,1.566.665,1.389,1.506l-.51,2.409a7.62,7.62,0,0,0-.147,1.189h-.937l.153-.723" transform="translate(57.341 9.304)" fill="#706d6e"/>
          <path id="path2852" d="M-36.7-6.581c-.967,0-1.233,1.11-1.374,1.775-.34,1.6-.035,1.982.6,1.982,1.03,0,1.245-1.159,1.391-1.854C-35.927-5.419-35.63-6.581-36.7-6.581Zm1.121-.574h.853l-1.165,5.511C-36.13-.525-36.967-.256-38.123-.256-39-.256-39.7-.674-39.432-1.6h.958c-.088.466.18.724.648.724a1.054,1.054,0,0,0,1.1-.864l.221-1.04h-.031a1.687,1.687,0,0,1-1.287.625c-1.426,0-1.459-1.168-1.145-2.656.486-2.3,1.735-2.449,2.161-2.449a1,1,0,0,1,1.077.714h.021l.13-.614" transform="translate(54.518 9.304)" fill="#706d6e"/>
          <path id="path2854" d="M-27.661-5c.308-1.457-.081-1.634-.706-1.634-.541,0-1.041.247-1.345,1.634Zm-2.18.614c-.3,1.4.041,1.676.707,1.676a1.194,1.194,0,0,0,1.117-.951h.936a2,2,0,0,1-2.173,1.614c-1.114,0-1.931-.317-1.464-2.525.31-1.467.743-2.677,2.564-2.677,1.5,0,1.708.784,1.358,2.439l-.09.424h-2.956" transform="translate(51.294 9.304)" fill="#706d6e"/>
          <path id="path2856" d="M-21.528-2.052c-1.134,0-1.741-.476-1.466-1.625h.967c-.061.289-.193.963.671.963a1,1,0,0,0,1.067-.764c.2-.945-2.419-.966-2.113-2.407a1.9,1.9,0,0,1,2.1-1.369c.937,0,1.648.427,1.365,1.418h-.947c.122-.525-.111-.8-.652-.8a.908.908,0,0,0-.954.674c-.187.882,2.44.863,2.117,2.389a1.957,1.957,0,0,1-2.154,1.524" transform="translate(48.386 9.304)" fill="#706d6e"/>
          <path id="path2858" d="M4.008-3.935c1.072,0,1.3-1.091,1.462-1.844.283-1.336.305-2.031-.611-2.031-.947,0-1.215,1.07-1.355,1.734C3.342-5.313,2.957-3.935,4.008-3.935Zm-1.077.564H2.078l1.514-7.154h.853L3.883-7.871h.031a1.713,1.713,0,0,1,1.283-.6c1.7,0,1.434,1.437,1.17,2.687C5.9-3.59,4.981-3.273,4.139-3.273a1.021,1.021,0,0,1-1.061-.692H3.057l-.126.594" transform="translate(39.006 10.525)" fill="#706d6e"/>
          <path id="path2860" d="M13.842-5c.308-1.457-.081-1.634-.7-1.634-.541,0-1.041.247-1.345,1.634Zm-2.179.614c-.3,1.4.041,1.676.707,1.676a1.2,1.2,0,0,0,1.117-.951h.937A2,2,0,0,1,12.25-2.052c-1.114,0-1.931-.317-1.464-2.525.31-1.467.743-2.677,2.564-2.677,1.5,0,1.708.784,1.358,2.439l-.091.424H11.662" transform="translate(35.806 9.304)" fill="#706d6e"/>
          <path id="path2862" d="M20.3-3.024h.021L22.439-7.1h.926L19.523-.2h-.885l.994-1.894-.722-5H19.9l.4,4.072" transform="translate(32.825 9.245)" fill="#706d6e"/>
          <path id="path2864" d="M29.549-4.926c.29-1.366-.1-1.664-.751-1.664s-1.166.3-1.455,1.664C27-3.3,27.095-2.715,27.979-2.715S29.206-3.3,29.549-4.926Zm-3.174.348c.31-1.467.743-2.677,2.564-2.677s1.742,1.21,1.432,2.677C29.9-2.37,28.952-2.052,27.839-2.052s-1.932-.317-1.464-2.525" transform="translate(29.988 9.304)" fill="#706d6e"/>
          <path id="path2866" d="M36.9-2.15l.733-3.469c.113-.534.008-.97-.72-.97-.937,0-1.24.793-1.385,1.476L34.906-2.15h-.853l.838-3.964c.073-.347.126-.692.168-1.04h.906l-.136.644h.041a1.761,1.761,0,0,1,1.562-.744c1.124,0,1.269.644,1.059,1.635L37.758-2.15H36.9" transform="translate(27.073 9.304)" fill="#706d6e"/>
          <path id="path2868" d="M45.1-7.81c-.916,0-1.188.695-1.47,2.031-.159.753-.39,1.844.682,1.844.957,0,1.2-1.131,1.41-2.141C45.864-6.74,46.049-7.81,45.1-7.81Zm1.562-2.714h.854L46-3.371h-.853l.126-.594h-.021a1.667,1.667,0,0,1-1.354.692c-.844,0-1.63-.317-1.164-2.516.264-1.25.61-2.687,2.305-2.687a1.061,1.061,0,0,1,1.027.6H46.1l.562-2.653" transform="translate(23.883 10.525)" fill="#706d6e"/>
        </g>
      </g>
    </g>
  </g>
</svg>
