<?xml version="1.0" encoding="utf-8"?>
<!-- Generator: Adobe Illustrator 15.0.1, SVG Export Plug-In . SVG Version: 6.00 Build 0)  -->
<!DOCTYPE svg PUBLIC "-//W3C//DTD SVG 1.1//EN" "http://www.w3.org/Graphics/SVG/1.1/DTD/svg11.dtd">
<svg version="1.1" id="Layer_1" xmlns="http://www.w3.org/2000/svg" xmlns:xlink="http://www.w3.org/1999/xlink" x="0px" y="0px"
	 width="470px" height="80px" viewBox="0 0 470 80" enable-background="new 0 0 470 80" xml:space="preserve">
<g>
	<polyline fill="#1C2F5E" points="10,68.475 10,28.39 33.432,68.475 10,68.475 	"/>
	<path fill-rule="evenodd" clip-rule="evenodd" fill="#1C2F5E" d="M174.982,12.46h28.172c14.273,0,36.087,9.762,36.087,26.559v2.328
		c0,2.376-1.464,7.849-3.025,10.481c-6.729,11.255-20.257,14.45-20.257,14.45s-5.378,2.196-8.965,2.196h-32.012V12.46
		 M196.17,27.133v26.565h3.96c8.146,0,16.996-4.711,16.996-12.351v-2.095c0-8.316-10.504-12.12-17.929-12.12H196.17z"/>
	<polyline fill="#1C2F5E" points="245.763,12.46 266.512,12.46 266.521,68.475 245.763,68.439 245.763,12.46 	"/>
	<polyline fill-rule="evenodd" clip-rule="evenodd" fill="#1C2F5E" points="359.748,12.46 379.563,12.46 411.494,43.249 
		411.73,43.249 411.73,12.46 432.471,12.46 432.471,68.434 412.892,68.434 392.851,50.008 393.077,50.008 380.724,37.884 
		380.488,37.884 380.488,68.434 359.748,68.434 359.748,12.46 	"/>
	<polyline fill="#1C2F5E" points="165.819,26.96 144.14,26.96 144.14,33.26 164.653,33.26 164.653,47.716 144.14,47.716 
		144.14,54.016 165.819,54.016 165.819,68.475 123.161,68.475 123.161,12.497 165.819,12.497 165.819,26.96 	"/>
	<path fill="#1C2F5E" d="M19.031,12.474H46.77l15.614,26.358c1.493-1.495,10.727-13.529,10.727-13.529
		c9.508-11.033,9.043-12.83,10.722-12.83h31.698l-0.032,56.001H89.642l0.018-22.41c-0.47,0.138-18.775,22.41-18.775,22.41H53.523
		L19.031,12.474"/>
	<path fill-rule="evenodd" clip-rule="evenodd" fill="#1C2F5E" d="M272.603,40.482c0-16.299,18.081-29.52,40.382-29.52
		c22.302,0,40.383,13.22,40.383,29.52c0,16.301-18.081,29.517-40.383,29.517C290.684,70,272.603,56.784,272.603,40.482
		 M295.33,40.482c0,7.443,8.16,13.479,18.218,13.479c10.057,0,18.207-6.036,18.207-13.479c0-7.45-8.15-13.486-18.207-13.486
		C303.49,26.997,295.33,33.033,295.33,40.482z"/>
	<path fill-rule="evenodd" clip-rule="evenodd" fill="#1C2F5E" d="M453.065,16.15c0,0.985-0.636,1.489-2.088,1.489h-0.635v-3.141
		h0.635C452.43,14.498,453.065,15.07,453.065,16.15 M455.126,23.611l-3.204-4.915c1.716-0.177,2.532-1.257,2.532-2.528
		c0-1.58-1.062-2.832-3.431-2.832h-2.016v10.275h1.335V18.8h0.172l3.014,4.811H455.126z M458.947,18.61
		c0,4.166-3.386,7.543-7.552,7.543s-7.552-3.377-7.552-7.543c0-4.175,3.386-7.552,7.552-7.552S458.947,14.435,458.947,18.61z
		 M460,18.61c0-4.747-3.866-8.609-8.604-8.609s-8.596,3.862-8.596,8.609c0,4.738,3.857,8.6,8.596,8.6S460,23.348,460,18.61z"/>
</g>
</svg>
