<?xml version="1.0" encoding="utf-8"?>
<!-- Generator: Adobe Illustrator 23.0.3, SVG Export Plug-In . SVG Version: 6.00 Build 0)  -->
<svg version="1.1" id="Layer_1" xmlns="http://www.w3.org/2000/svg" xmlns:xlink="http://www.w3.org/1999/xlink" x="0px" y="0px"
	 width="1280px" height="344px" viewBox="0 0 1280 344" enable-background="new 0 0 1280 344" xml:space="preserve">
<g>
	<path fill-rule="evenodd" clip-rule="evenodd" d="M366.5,198.3H416c24.5,0,26.2,20,27.9,39.2c0.8,10.4,2,25.4,5.1,35.6H511
		c-5.6-9.3-5.9-37.8-6.8-47.7c-2.3-25.1-5.9-45.6-35.9-53.6c13.3-3.5,41.9-15.8,41.9-53.9c0-38.1-44.4-49.6-71.2-49.6H304.4v204.8
		h62.1V198.3L366.5,198.3z M366.5,110H412c23.7,0,32.5,10.7,32.5,23.4c0,18.1-17.5,21.7-29.1,21.7h-48.9V110L366.5,110z"/>
	<path fill-rule="evenodd" clip-rule="evenodd" d="M1155.9,132.6h51.6c-6.1-48.9-38-65.7-99.8-65.7c-45.3,0-88.8,20-88.8,66.6
		c0,40.6,40.9,53.2,76.3,59.5c40.7,7.3,53.1,11.6,53.1,22c0,20.6-24.3,20.6-35.4,20.6c-19.6,0-33.1-4.8-38-16.9
		c-1.5-3.7-2.5-8.2-2.5-13.3h-62.1c0.6,64.3,71.8,72.5,96.8,72.5c49,0,104-14.7,104-67.1c0-37-33.1-50.2-64.2-58.1
		c-31.1-7.9-66.6-8.7-66.6-26c0-11.3,15.4-19.2,31.7-19.2C1127.4,107.6,1147.3,108.1,1155.9,132.6L1155.9,132.6z"/>
	<polygon fill-rule="evenodd" clip-rule="evenodd" points="67.8,68.3 67.8,273.1 129.2,273.1 129.2,179.8 200.3,273.1 282.2,273.1 
		191.2,157.1 278.8,68.3 205.4,68.3 129.2,145.7 129.2,68.3 67.8,68.3 	"/>
	<path fill-rule="evenodd" clip-rule="evenodd" d="M656.4,276.5c84.7,0,112.6-26.7,112.6-67.1V68.3h-61.4v124
		c0,28.4-21,39.8-51.2,39.8c-30.1,0-51.2-11.4-51.2-39.8v-124h-61.4v141.1C543.8,249.8,571.7,276.5,656.4,276.5L656.4,276.5z"/>
	<path fill-rule="evenodd" clip-rule="evenodd" d="M861.8,200.3l73.4,0c36.4,0,66-29.5,66-66c0-36.4-29.5-66-66-66H800.3v204.7h61.4
		V200.3L861.8,200.3z M861.8,108.1l52,0.2c14.3,0,25.9,11.6,25.9,25.9c0,14.3-11.6,25.9-25.9,25.9h-52V108.1L861.8,108.1z"/>
</g>
</svg>
