<?xml version="1.0" encoding="UTF-8" standalone="no"?>
<svg
   xmlns:dc="http://purl.org/dc/elements/1.1/"
   xmlns:cc="http://creativecommons.org/ns#"
   xmlns:rdf="http://www.w3.org/1999/02/22-rdf-syntax-ns#"
   xmlns:svg="http://www.w3.org/2000/svg"
   xmlns="http://www.w3.org/2000/svg"
   viewBox="0 0 90.844666 30.565201"
   height="30.565201"
   width="90.844666"
   xml:space="preserve"
   id="svg48"
   version="1.1"><metadata
     id="metadata54"><rdf:RDF><cc:Work
         rdf:about=""><dc:format>image/svg+xml</dc:format><dc:type
           rdf:resource="http://purl.org/dc/dcmitype/StillImage" /><dc:title></dc:title></cc:Work></rdf:RDF></metadata><defs
     id="defs52"><clipPath
       id="clipPath64"
       clipPathUnits="userSpaceOnUse"><path
         id="path62"
         d="M 0,22.924 H 68.134 V 0 H 0 Z" /></clipPath></defs><g
     transform="matrix(1.3333333,0,0,-1.3333333,0,30.5652)"
     id="g56"><g
       id="g58"><g
         clip-path="url(#clipPath64)"
         id="g60"><g
           transform="translate(2.9828,15.1245)"
           id="g66"><path
             id="path68"
             style="fill:#000000;fill-opacity:1;fill-rule:nonzero;stroke:none"
             d="M 0,0 C 0,4.214 1.197,7.122 3.331,7.798 -0.402,7.173 -2.983,4.117 -2.983,0 c 0,-4.54 2.943,-7.799 7.323,-7.799 2.918,0 4.594,1.602 5.545,3.232 C 8.715,-6.376 7.069,-7.324 5.077,-7.324 1.897,-7.324 0,-4.649 0,0" /></g><g
           transform="translate(12.4505,17.8593)"
           id="g70"><path
             id="path72"
             style="fill:#000000;fill-opacity:1;fill-rule:nonzero;stroke:none"
             d="M 0,0 V 4.863 L -0.813,3.812 -0.963,3.919 C -1.669,4.413 -2.941,4.972 -4.505,5.065 -2.583,4.705 -1.008,2.921 0,0" /></g><g
           transform="translate(55.7316,15.1245)"
           id="g74"><path
             id="path76"
             style="fill:#000000;fill-opacity:1;fill-rule:nonzero;stroke:none"
             d="M 0,0 C 0,4.312 1.244,7.085 3.461,7.798 1.856,7.568 0.42,6.795 -0.74,5.688 -2.259,4.235 -3.028,2.433 -3.028,0 c 0,-2.235 0.799,-4.337 2.309,-5.754 C 0.44,-6.842 1.924,-7.592 3.539,-7.8 1.3,-7.115 0,-4.23 0,0" /></g><g
           transform="translate(65.104,15.1245)"
           id="g78"><path
             id="path80"
             style="fill:#000000;fill-opacity:1;fill-rule:nonzero;stroke:none"
             d="M 0,0 C 0,4.312 -1.244,7.085 -3.462,7.798 -1.855,7.568 -0.419,6.795 0.741,5.688 2.258,4.235 3.03,2.433 3.03,0 3.03,-2.235 2.231,-4.337 0.72,-5.754 -0.439,-6.842 -1.923,-7.592 -3.541,-7.8 -1.301,-7.115 0,-4.23 0,0" /></g><g
           transform="translate(49.3859,9.0567)"
           id="g82"><path
             id="path84"
             style="fill:#000000;fill-opacity:1;fill-rule:nonzero;stroke:none"
             d="m 0,0 v 12.134 c 0,0.653 0.271,1.089 0.813,1.291 0.086,0.031 0.19,0.061 0.308,0.089 h -4.715 c 0.116,-0.028 0.222,-0.058 0.307,-0.089 0.543,-0.202 0.816,-0.638 0.816,-1.291 V 0 c 0,-0.653 -0.273,-1.087 -0.816,-1.29 -0.085,-0.032 -0.191,-0.061 -0.307,-0.091 H 1.121 C 1.003,-1.351 0.899,-1.322 0.813,-1.29 0.271,-1.087 0,-0.653 0,0" /></g><g
           transform="translate(41.4772,9.4377)"
           id="g86"><path
             id="path88"
             style="fill:#000000;fill-opacity:1;fill-rule:nonzero;stroke:none"
             d="m 0,0 c -0.12,0.474 -0.212,0.937 -0.309,1.424 -0.117,0.61 -0.255,1.238 -0.43,1.923 -0.605,2.41 -4.502,2.34 -4.502,2.34 0,0 5.301,0.532 5.301,4.168 0,0.769 -0.361,3.278 -5.044,3.278 h -0.447 c 1.599,-0.324 2.53,-1.659 2.53,-3.705 0,-2.12 -1.127,-3.499 -3.118,-3.741 2.206,-0.184 2.643,-2.182 2.87,-4.125 0.32,-2.533 1.18,-3.676 2.97,-3.676 1.506,0 2.409,0.721 2.737,1.979 C 2.273,-0.838 1.749,-1.168 1.249,-1.168 0.817,-1.168 0.247,-0.964 0,0" /></g><g
           transform="translate(33.5982,9.0567)"
           id="g90"><path
             id="path92"
             style="fill:#000000;fill-opacity:1;fill-rule:nonzero;stroke:none"
             d="m 0,0 v 13.514 h -3.592 c 0.116,-0.028 0.221,-0.058 0.306,-0.089 0.541,-0.202 0.816,-0.638 0.816,-1.291 V 0 c 0,-0.653 -0.275,-1.087 -0.816,-1.29 -0.085,-0.032 -0.19,-0.061 -0.306,-0.091 H 1.12 C 1.006,-1.351 0.9,-1.322 0.816,-1.29 0.273,-1.087 0,-0.653 0,0" /></g><g
           transform="translate(21.8824,7.8007)"
           id="g94"><path
             id="path96"
             style="fill:#000000;fill-opacity:1;fill-rule:nonzero;stroke:none"
             d="m 0,0 c -2.693,0 -4.081,1.346 -4.081,4.206 v 9.184 c 0,0.653 0.27,1.089 0.813,1.29 0.087,0.03 0.19,0.061 0.308,0.091 h -4.714 c 0.116,-0.03 0.222,-0.061 0.306,-0.091 0.541,-0.201 0.816,-0.637 0.816,-1.29 V 4.206 c 0,-2.892 2.195,-4.687 5.859,-4.687 2.618,0 5.212,1.381 5.452,4.451 C 4.514,1.571 2.691,0 0,0" /></g><g
           transform="translate(25.035,22.5714)"
           id="g98"><path
             id="path100"
             style="fill:#000000;fill-opacity:1;fill-rule:nonzero;stroke:none"
             d="m 0,0 c 0.309,-0.084 0.613,-0.199 0.841,-0.357 0.52,-0.378 0.72,-1.24 0.765,-2.698 0.045,1.458 0.247,2.32 0.767,2.698 0.229,0.158 0.53,0.273 0.84,0.357 z" /></g><g
           transform="translate(7.1368,0.9309)"
           id="g102"><path
             id="path104"
             style="fill:#000000;fill-opacity:1;fill-rule:nonzero;stroke:none"
             d="m 0,0 h -1.059 l 0.532,1.186 z M -0.392,1.53 H -0.656 L -1.745,-0.877 -1.751,-0.89 h 0.295 l 0.283,0.63 H 0.113 L 0.391,-0.885 0.393,-0.89 h 0.31 L -0.39,1.525 Z" /></g><g
           transform="translate(11.6601,0.6145)"
           id="g106"><path
             id="path108"
             style="fill:#000000;fill-opacity:1;fill-rule:nonzero;stroke:none"
             d="m 0,0 -0.007,-0.006 c -0.215,-0.205 -0.427,-0.342 -0.764,-0.342 -0.512,0 -0.913,0.429 -0.913,0.976 v 0.007 c 0,0.552 0.392,0.969 0.913,0.969 0.188,0 0.441,-0.038 0.744,-0.325 L -0.02,1.272 0.176,1.484 0.169,1.49 C -0.04,1.687 -0.298,1.87 -0.768,1.87 -1.105,1.87 -1.414,1.741 -1.64,1.504 -1.861,1.272 -1.983,0.962 -1.983,0.628 V 0.621 c 0,-0.705 0.519,-1.235 1.206,-1.235 0.479,0 0.755,0.213 0.96,0.421 l 0.007,0.007 -0.184,0.18 z" /></g><g
           transform="translate(13.8441,0.2663)"
           id="g110"><path
             id="path112"
             style="fill:#000000;fill-opacity:1;fill-rule:nonzero;stroke:none"
             d="m 0,0 c -0.523,0 -0.931,0.429 -0.931,0.977 v 0.006 c 0,0.552 0.397,0.969 0.924,0.969 0.522,0 0.932,-0.429 0.932,-0.975 V 0.969 C 0.925,0.417 0.527,0 0,0 m 0,2.218 c -0.346,0 -0.661,-0.132 -0.889,-0.373 -0.219,-0.231 -0.34,-0.54 -0.34,-0.868 V 0.969 c 0,-0.329 0.12,-0.637 0.337,-0.866 0.226,-0.238 0.54,-0.369 0.885,-0.369 0.345,0 0.661,0.133 0.888,0.373 0.221,0.232 0.341,0.541 0.341,0.87 V 0.983 C 1.222,1.312 1.103,1.621 0.885,1.849 0.66,2.087 0.345,2.218 0,2.218" /></g><g
           transform="translate(16.4908,2.4442)"
           id="g114"><path
             id="path116"
             style="fill:#000000;fill-opacity:1;fill-rule:nonzero;stroke:none"
             d="m 0,0 h -0.287 v -2.403 h 1.63 v 0.267 H 0 Z" /></g><g
           transform="translate(18.8909,2.4442)"
           id="g118"><path
             id="path120"
             style="fill:#000000;fill-opacity:1;fill-rule:nonzero;stroke:none"
             d="m 0,0 h -0.287 v -2.403 h 1.63 v 0.267 H 0 Z" /></g><g
           transform="translate(21.2921,1.1208)"
           id="g122"><path
             id="path124"
             style="fill:#000000;fill-opacity:1;fill-rule:nonzero;stroke:none"
             d="M 0,0 H 1.302 V 0.264 H 0 V 1.06 H 1.455 V 1.323 H -0.287 V -1.08 h 1.759 v 0.263 H 0 Z" /></g><g
           transform="translate(25.7502,0.6145)"
           id="g126"><path
             id="path128"
             style="fill:#000000;fill-opacity:1;fill-rule:nonzero;stroke:none"
             d="m 0,0 -0.006,-0.006 c -0.215,-0.205 -0.427,-0.342 -0.764,-0.342 -0.513,0 -0.915,0.429 -0.915,0.976 v 0.007 c 0,0.552 0.394,0.969 0.915,0.969 0.357,0 0.584,-0.174 0.743,-0.325 L -0.02,1.272 0.177,1.484 0.17,1.49 C -0.039,1.687 -0.298,1.87 -0.766,1.87 -1.104,1.87 -1.414,1.741 -1.64,1.504 -1.861,1.272 -1.982,0.962 -1.982,0.628 V 0.621 c 0,-0.705 0.519,-1.235 1.206,-1.235 0.478,0 0.753,0.213 0.96,0.421 l 0.006,0.007 -0.184,0.18 z" /></g><g
           transform="translate(26.7088,2.1774)"
           id="g130"><path
             id="path132"
             style="fill:#000000;fill-opacity:1;fill-rule:nonzero;stroke:none"
             d="M 0,0 H 0.8 V -2.136 H 1.091 V 0 H 1.892 V 0.267 H 0 Z" /></g><path
           id="path134"
           style="fill:#000000;fill-opacity:1;fill-rule:nonzero;stroke:none"
           d="m 29.602,0.041 h 0.287 v 2.403 h -0.287 z" /><g
           transform="translate(32.2792,0.2663)"
           id="g136"><path
             id="path138"
             style="fill:#000000;fill-opacity:1;fill-rule:nonzero;stroke:none"
             d="m 0,0 c -0.258,0 -0.496,0.102 -0.669,0.287 -0.169,0.181 -0.263,0.426 -0.263,0.69 v 0.006 c 0,0.552 0.398,0.969 0.925,0.969 0.521,0 0.931,-0.429 0.931,-0.975 V 0.969 C 0.924,0.417 0.527,0 0,0 m 0,2.218 c -0.345,0 -0.66,-0.132 -0.889,-0.373 -0.219,-0.231 -0.34,-0.54 -0.34,-0.868 V 0.969 c 0,-0.329 0.12,-0.637 0.337,-0.866 0.225,-0.238 0.539,-0.369 0.885,-0.369 0.345,0 0.66,0.133 0.889,0.373 0.219,0.232 0.34,0.541 0.34,0.87 V 0.983 C 1.222,1.312 1.103,1.621 0.885,1.849 0.659,2.087 0.345,2.218 0,2.218" /></g><g
           transform="translate(36.2978,0.5499)"
           id="g140"><path
             id="path142"
             style="fill:#000000;fill-opacity:1;fill-rule:nonzero;stroke:none"
             d="M 0,0 -1.487,1.891 -1.489,1.894 H -1.755 V -0.51 h 0.28 V 1.43 L 0.049,-0.506 0.053,-0.51 H 0.281 V 1.894 H 0 Z" /></g><g
           transform="translate(39.8091,1.1252)"
           id="g144"><path
             id="path146"
             style="fill:#000000;fill-opacity:1;fill-rule:nonzero;stroke:none"
             d="m 0,0 h 0.744 c 0.403,0 0.624,-0.142 0.624,-0.401 v -0.006 c 0,-0.258 -0.221,-0.417 -0.576,-0.417 L 0,-0.824 Z M 1.236,0.672 C 1.236,0.411 1.034,0.255 0.697,0.255 H 0 v 0.803 h 0.717 c 0.325,0 0.519,-0.141 0.519,-0.379 z M 1.165,0.16 c 0.17,0.08 0.362,0.239 0.362,0.55 v 0.007 c 0,0.15 -0.052,0.281 -0.157,0.388 -0.143,0.14 -0.36,0.214 -0.63,0.214 h -1.024 v -2.403 h 1.069 c 0.539,0 0.874,0.253 0.874,0.66 v 0.006 c 0,0.282 -0.161,0.472 -0.494,0.578" /></g><g
           transform="translate(43.269,1.2589)"
           id="g148"><path
             id="path150"
             style="fill:#000000;fill-opacity:1;fill-rule:nonzero;stroke:none"
             d="m 0,0 -0.797,1.181 -0.002,0.004 h -0.349 l 0.999,-1.452 v -0.951 h 0.291 v 0.953 L 1.13,1.171 1.14,1.185 H 0.806 Z" /></g><g
           transform="translate(48.2558,1.3842)"
           id="g152"><path
             id="path154"
             style="fill:#000000;fill-opacity:1;fill-rule:nonzero;stroke:none"
             d="m 0,0 h -1.359 v 1.06 h -0.286 v -2.403 h 0.286 v 1.072 H 0 V -1.343 H 0.287 V 1.06 H 0 Z" /></g><path
           id="path156"
           style="fill:#000000;fill-opacity:1;fill-rule:nonzero;stroke:none"
           d="m 49.906,0.041 h 0.287 v 2.403 h -0.287 z" /><g
           transform="translate(51.8422,2.4442)"
           id="g158"><path
             id="path160"
             style="fill:#000000;fill-opacity:1;fill-rule:nonzero;stroke:none"
             d="m 0,0 h -0.286 v -2.403 h 1.629 v 0.267 H 0 Z" /></g><g
           transform="translate(53.5404,2.1774)"
           id="g162"><path
             id="path164"
             style="fill:#000000;fill-opacity:1;fill-rule:nonzero;stroke:none"
             d="M 0,0 H 0.8 V -2.136 H 1.092 V 0 H 1.891 V 0.267 H 0 Z" /></g><g
           transform="translate(57.1703,0.2663)"
           id="g166"><path
             id="path168"
             style="fill:#000000;fill-opacity:1;fill-rule:nonzero;stroke:none"
             d="m 0,0 c -0.523,0 -0.932,0.429 -0.932,0.977 v 0.006 c 0,0.552 0.398,0.969 0.925,0.969 0.521,0 0.932,-0.429 0.932,-0.975 V 0.969 C 0.925,0.417 0.527,0 0,0 m 0,2.218 c -0.345,0 -0.66,-0.132 -0.889,-0.373 -0.219,-0.231 -0.34,-0.54 -0.34,-0.868 V 0.969 c 0,-0.329 0.119,-0.637 0.337,-0.866 0.226,-0.238 0.54,-0.369 0.885,-0.369 0.345,0 0.66,0.133 0.89,0.373 0.218,0.232 0.339,0.541 0.339,0.87 V 0.983 C 1.222,1.312 1.103,1.621 0.885,1.849 0.659,2.088 0.345,2.218 0,2.218" /></g><g
           transform="translate(61.1928,2.4442)"
           id="g170"><path
             id="path172"
             style="fill:#000000;fill-opacity:1;fill-rule:nonzero;stroke:none"
             d="M 0,0 V -1.895 L -1.486,-0.004 -1.49,0 h -0.266 v -2.403 h 0.281 v 1.939 L 0.049,-2.4 0.052,-2.403 H 0.28 V 0 Z" /></g><g
           transform="translate(62.8466,2.4308)"
           id="g174"><path
             id="path176"
             style="fill:#000000;fill-opacity:1;fill-rule:nonzero;stroke:none"
             d="M 0,0 H 0.13 L 0.32,-0.3 0.512,0 H 0.638 V -0.634 H 0.52 v 0.451 L 0.325,-0.488 H 0.313 L 0.117,-0.183 V -0.634 H 0 Z M -0.452,-0.111 H -0.648 V 0 h 0.513 v -0.111 h -0.196 v -0.523 h -0.121 z" /></g></g></g></g></svg>