<?xml version="1.0" encoding="UTF-8"?>
<!-- Generator: Adobe Illustrator 22.0.1, SVG Export Plug-In . SVG Version: 6.00 Build 0)  -->
<svg version="1.1" id="Layer_1" xmlns="http://www.w3.org/2000/svg" xmlns:xlink="http://www.w3.org/1999/xlink" x="0px" y="0px" viewBox="0 0 159.1 36" style="enable-background:new 0 0 159.1 36;" xml:space="preserve">
<style type="text/css">
	.st0{fill:#DE0029;}
	.st1{fill:#FFFFFF;}
	.st2{fill:none;stroke:#000000;stroke-width:5.200000e-02;}
</style>
<rect x="3.4" y="8.4" class="st0" width="22.5" height="21.9"/>
<path class="st1" d="M18.1,13.6l2.2,2.8l4.6,5.9l0,0l-9.1-7.7c-0.4-0.3-0.8-0.6-1.1-0.9l-3.5,2.9l-5.7,4.7c-0.4,0.3-0.8,0.6-1.2,1  l0.2-0.3l5-6.4l2.5-3.2c0.2-0.2,0.3-0.5,0.5-0.7l2.1-2.7C15.8,10.6,16.9,12.2,18.1,13.6"/>
<polyline class="st1" points="19.7,22.6 24.9,29.3 19.7,24.9 15.4,21.3 14.7,20.7 14.2,21.1 11.7,23.2 6.6,27.6 4.4,29.4 6.7,26.4   11.9,19.6 14.7,16.1 15.4,17 19.7,22.6 "/>
<path class="st2" d="M15.8,18.3"/>
<path d="M12.7,21.4"/>
<path d="M16,18.1"/>
<path d="M49.3,25.4c-0.9,1.6-2.2,2.8-3.8,3.8c-1.6,0.9-3.3,1.4-5.2,1.4c-2.9,0-5.4-1-7.4-3.1c-2-2.1-3.1-4.6-3.1-7.5  c0-2.9,1-5.4,3.1-7.5c2-2.1,4.5-3.1,7.4-3.1c1.9,0,3.6,0.5,5.2,1.4c1.6,0.9,2.9,2.2,3.8,3.8l-3.8,2.3c-0.5-0.9-1.3-1.6-2.2-2.1  c-0.9-0.5-1.9-0.8-3-0.8c-1.7,0-3.1,0.6-4.3,1.8c-1.2,1.2-1.8,2.6-1.8,4.3c0,1.7,0.6,3.1,1.8,4.3c1.2,1.2,2.6,1.8,4.3,1.8  c1.1,0,2.1-0.3,3-0.8c0.9-0.5,1.7-1.3,2.2-2.2L49.3,25.4"/>
<rect x="51.7" y="10" width="4.5" height="20.1"/>
<polyline points="69.1,14.3 69.1,30.1 64.6,30.1 64.6,14.3 58,14.3 58,10 75.7,10 75.7,14.3 69.1,14.3 "/>
<path d="M90,30.1h5.1l-5.3-7.6c1.4-0.4,2.5-1.1,3.3-2.1c0.8-1,1.1-2.4,1.1-4.1c0-2.2-0.6-3.8-1.9-4.9c-1.2-1-2.9-1.5-5.2-1.5h-9.5  v20.1h4.3v-7.2h3.4L90,30.1 M87,13.8c1,0,1.7,0.2,2.2,0.6c0.5,0.4,0.7,1.1,0.7,2c0,1-0.3,1.7-0.8,2.1c-0.5,0.4-1.2,0.6-2.1,0.6h-5.1  v-5.3H87z"/>
<path d="M114,12.6c-2-2.1-4.5-3.1-7.4-3.1c-2.9,0-5.4,1-7.4,3.1c-2,2.1-3.1,4.6-3.1,7.5c0,2.9,1,5.4,3.1,7.5c2,2.1,4.5,3.1,7.4,3.1  c2.9,0,5.4-1,7.4-3.1c2-2.1,3.1-4.6,3.1-7.5C117.1,17.1,116.1,14.6,114,12.6 M110.9,24.3c-1.2,1.2-2.6,1.8-4.3,1.8  c-1.7,0-3.1-0.6-4.3-1.8c-1.2-1.2-1.8-2.6-1.8-4.3c0-1.7,0.6-3.1,1.8-4.4c1.2-1.2,2.6-1.8,4.3-1.8c1.7,0,3.1,0.6,4.3,1.8  c1.2,1.2,1.8,2.7,1.8,4.4C112.7,21.7,112.1,23.1,110.9,24.3z"/>
<path d="M134.7,30.1h-15.1V10h15.1v4h-10.8v3.8h9.6v3.7h-9.6v4.5h10.8V30.1 M125.7,7.5c0,0.5-0.2,0.9-0.5,1.2  c-0.3,0.3-0.7,0.5-1.2,0.5c-0.5,0-0.9-0.2-1.3-0.5c-0.3-0.3-0.5-0.7-0.5-1.2c0-0.5,0.2-0.9,0.5-1.3c0.3-0.4,0.8-0.6,1.2-0.6  c0.5,0,0.9,0.2,1.2,0.6C125.5,6.5,125.7,7,125.7,7.5z M132.1,7.5c0,0.5-0.2,0.9-0.5,1.2c-0.3,0.3-0.7,0.5-1.2,0.5  c-0.5,0-0.9-0.2-1.2-0.5c-0.3-0.3-0.5-0.7-0.5-1.3c0-0.5,0.2-0.9,0.5-1.3c0.3-0.4,0.8-0.6,1.2-0.6c0.5,0,0.9,0.2,1.2,0.6  C131.9,6.6,132.1,7,132.1,7.5z"/>
<polyline points="150,30.1 142,16.9 142,30.1 137.7,30.1 137.7,10 142.9,10 151.2,23.8 151.2,10 155.6,10 155.6,30.1 150,30.1 "/>
</svg>