<?xml version="1.0" encoding="utf-8"?>
<!-- Generator: Adobe Illustrator 19.2.1, SVG Export Plug-In . SVG Version: 6.00 Build 0)  -->
<svg version="1.0" id="Ebene_1" xmlns="http://www.w3.org/2000/svg" xmlns:xlink="http://www.w3.org/1999/xlink" x="0px" y="0px"
	 viewBox="0 0 546.5 131" style="enable-background:new 0 0 546.5 131;" xml:space="preserve">
<style type="text/css">
	.st0{fill:#EF7D00;}
</style>
<path class="st0" d="M90.1,72.6h19.1c0.4,0,0.8,0.3,0.8,0.8l2,31.8c0,0.4,0.5,0.5,0.7,0.3l34.6-39c0.2-0.2,0.1-0.4,0-0.6L108,28.1
	c-0.3-0.3-0.7-0.1-0.7,0.3l2,31.7c0,0.5-0.4,0.9-0.8,0.9H91c-0.5,0-0.9-0.4-0.8-0.9l2-31.4c0-0.4-0.4-0.6-0.7-0.3L50.6,65.8
	c-0.2,0.2-0.2,0.4,0,0.6l36,38.9c0.3,0.3,0.7,0.1,0.7-0.3l2-31.7C89.3,72.9,89.7,72.6,90.1,72.6z"/>
<g>
	<path d="M178.1,44.9h9.9l12.5,26l5-26H217l-8.8,45.7H199l-13-26.8l-5.1,26.8h-11.5L178.1,44.9z"/>
	<path d="M243.5,44.9h13.4l6.6,45.7h-12l-1-9.6h-14.7l-4.7,9.6h-12.5L243.5,44.9z M249.9,72.4l-1.7-16.9l-8.2,16.9H249.9z"/>
	<path d="M274.7,44.9h12.3l3.6,32l15.6-32h12.5L294,90.6h-12.3L274.7,44.9z"/>
	<path d="M330.3,44.9h11.6l-8.8,45.7h-11.6L330.3,44.9z"/>
	<path d="M423.8,91.2c-2.9,0-5.6-0.5-8.1-1.4c-2.5-0.9-4.6-2.3-6.5-4c-1.8-1.7-3.3-3.8-4.3-6.3c-1-2.5-1.5-5.2-1.5-8.2
		c0-3.7,0.7-7.3,2-10.7c1.3-3.4,3.1-6.4,5.4-9c2.3-2.6,5.1-4.7,8.4-6.2c3.2-1.5,6.8-2.3,10.7-2.3c2.9,0,5.6,0.5,8.1,1.4
		c2.5,0.9,4.6,2.3,6.5,4c1.8,1.8,3.2,3.9,4.2,6.3s1.5,5.2,1.5,8.2c0,3.8-0.6,7.4-1.8,10.8c-1.2,3.4-3,6.4-5.2,8.9
		c-2.3,2.6-5.1,4.6-8.3,6.1C431.6,90.5,427.9,91.2,423.8,91.2z M428.8,54.2c-2.1,0-3.9,0.4-5.6,1.3c-1.6,0.9-3,2.1-4.2,3.5
		c-1.2,1.4-2.1,3.1-2.7,5c-0.6,1.9-0.9,3.8-0.9,5.8c0,1.5,0.2,2.8,0.6,4.1c0.4,1.3,1,2.4,1.7,3.3c0.8,0.9,1.7,1.7,2.9,2.2
		c1.2,0.5,2.5,0.8,4.1,0.8c2.1,0,3.9-0.4,5.6-1.3s3-2.1,4.2-3.5c1.2-1.4,2.1-3.1,2.7-5c0.6-1.9,0.9-3.8,0.9-5.8c0-1.4-0.2-2.8-0.6-4
		c-0.4-1.3-1-2.4-1.7-3.4c-0.8-1-1.7-1.7-2.9-2.3C431.7,54.4,430.4,54.2,428.8,54.2z"/>
	<path d="M465.7,44.4h9.9l12.5,26l5-26h11.5l-8.8,45.7h-9.3l-13-26.8l-5.1,26.8h-11.5L465.7,44.4z"/>
	<path d="M380.4,65.1l-1.7,7.7h4.1l-0.1,0.4l-1,5.3c-1.3,0.9-2.6,1.5-3.9,1.7c-1.3,0.3-2.9,0.4-4.9,0.4c-1.6,0-2.9-0.3-4.1-0.9
		c-1.2-0.6-2.1-1.4-2.9-2.4c-0.8-1-1.3-2.2-1.7-3.5c-0.4-1.3-0.5-2.7-0.5-4c0-2,0.3-3.9,0.9-5.8c0.6-1.9,1.5-3.5,2.6-5
		c1.1-1.4,2.5-2.6,4.1-3.5c1.6-0.9,3.4-1.3,5.4-1.3c2.3,0,4.1,0.4,5.5,1.2c1.4,0.8,2.6,2.1,3.7,4l9.5-5.3c-1.5-3.4-3.7-6.1-6.7-8.1
		c-2.9-1.9-6.7-2.9-11.3-2.9c-3.7,0-7.1,0.7-10.2,2.2c-3.2,1.5-5.9,3.5-8.2,6c-2.3,2.5-4.2,5.5-5.5,8.9c-1.3,3.4-2,7-2,10.9
		c0,3.1,0.5,5.9,1.5,8.4c1,2.5,2.5,4.6,4.3,6.3c1.8,1.8,4,3.1,6.5,4c2.5,0.9,5.3,1.4,8.3,1.4c3.6,0,6.9-0.5,10.1-1.6
		c3.2-1.1,6-2.5,8.3-4.3l4.4-20.3H380.4z"/>
</g>
</svg>
