<?xml version="1.0" encoding="utf-8"?>
<!-- Generator: Adobe Illustrator 23.0.3, SVG Export Plug-In . SVG Version: 6.00 Build 0)  -->
<svg version="1.1" id="svg4403" xmlns:svg="http://www.w3.org/2000/svg"
	 xmlns="http://www.w3.org/2000/svg" xmlns:xlink="http://www.w3.org/1999/xlink" x="0px" y="0px" width="1024px" height="219px"
	 viewBox="0 0 1024 219" enable-background="new 0 0 1024 219" xml:space="preserve">
<path id="path2534" fill="#DA0112" d="M982.6,212.5c1.7,0,3.1-1.4,3.1-3.1v-21.3c0-1.7-1.4-3.1-3.1-3.1h-28.4
	c-6.6,0-24.2-0.3-33.8-5.1c-3.1-1.6-5.5-3.3-7.1-5.4c-1.4-1.9-2.2-4.3-2.2-7.3V10c0-1.7-1.4-3.1-3.1-3.1H845c-1.7,0-3,1.4-3,3.1
	v152.3c0,8,1.8,15.5,5.3,20.7c3.8,5.6,9.6,11.3,17.2,15.4c23.4,12.7,65.9,14.2,82,14.1H982.6"/>
<path id="path2536" fill="#DA0112" d="M558.7,6.9c-16.1-0.1-58.6,1.4-82,14.1c-7.6,4.2-13.4,9.8-17.2,15.4
	c-3.5,5.2-5.3,12.6-5.3,22.6v151.2c0,0,1.3,1.4,3,1.4h63.1c1.7,0,3.1-1.4,3.1-3.1V89h37.9c1.7,0,3.1-1.4,3.1-3.1V64.7
	c0-1.7-1.4-3.1-3.1-3.1h-37.9v-9.5c0-3,0.7-5.4,2.2-7.3c1.6-2.1,3.9-3.8,7.1-5.4c9.7-4.7,27.2-5.1,33.8-5.1h28.4
	c1.7,0,3.1-1.4,3.1-3.1V10c0-1.7-1.4-3.1-3.1-3.1H558.7"/>
<path id="path2538" fill="#DA0112" d="M150.2,211.6c1.7,0,3.1-1.4,3.1-3.1V34.7h75.2c1.7,0,3.1-1.4,3.1-3.1V10.4
	c0-1.7-1.4-3.1-3.1-3.1H9.3c-1.7,0-3.1,1.4-3.1,3.1v21.3c0,1.7,1.4,3.1,3.1,3.1h75v173.8c0,1.7,1.4,3.1,3.1,3.1H150.2"/>
<path id="path2540" fill="#DA0112" d="M422.1,211.6c1.7,0,3.1-1.4,3.1-3.1v-21.3c0-1.7-1.4-3.1-3.1-3.1H301.1
	c-6.7,0-24.2-0.3-33.8-5.1c-3.2-1.5-5.5-3.3-7.1-5.4c-1.4-1.9-2.2-4.4-2.2-7.3V155h61.8c16.1,0,58.6-0.8,82-12.3
	c7.6-3.7,13.4-8,17.2-13c8-10.7,8.7-32.2,0.1-43.9c-3.8-5-9.5-9.3-17.2-13c-23.4-11.5-65.9-12.3-82-12.3h-26.5
	c-16.1,0-58.6,1.2-82,12.7c-7.6,3.7-13.4,8.9-17.2,13.9c-3.5,4.7-5.3,11.4-5.3,18.6v60.5c0,7.3,1.8,14,5.3,18.6
	c3.8,5.1,9.6,10.2,17.2,13.9c23.4,11.5,65.9,12.8,82,12.7H422.1z M355,109.8c0,3-0.7,5.4-2.2,7.4c-1.6,2.1-3.9,3.8-7.1,5.4
	c-9.7,4.7-27.2,5.1-33.8,5.1h-54.1v-23.7c0-3,0.7-5.4,2.2-7.3c1.6-2.1,3.9-3.8,7.1-5.4c9.7-4.7,27.2-5.1,33.8-5.1h10.9
	c6.7,0,24.2,0.3,33.8,5.1c3.2,1.5,5.5,3.3,7.1,5.4c1.4,1.9,2.2,4.4,2.2,7.3V109.8"/>
<path id="path2542" fill="#DA0112" d="M801.4,88.2c-3.8-5.1-9.5-10.2-17.2-13.9c-23.4-11.5-65.9-12.8-82-12.7l-33.1,0l0,0h-72.7
	c-1.7,0-3.1,1.4-3.1,3.1v21.3c0,1.7,1.4,3.1,3.1,3.1h97.9c6.7,0,24.2,0.3,33.8,5.1c3.2,1.5,5.5,3.3,7.1,5.4c1.4,1.9,2.2,4.4,2.2,7.3
	V117h-61.8c-16.1,0-58.6,0.8-82,12.3c-7.6,3.7-13.4,8-17.2,13.1c-8.6,11.5-8.6,33.4-0.1,44.9c3.8,5.1,9.6,9.3,17.2,13.1
	c23.4,11.5,65.9,12.3,82,12.3h26.5c16.1,0,58.6-1.2,82-12.7c7.7-3.7,13.4-8.9,17.2-13.9c3.5-4.7,5.3-11.4,5.3-18.6v-60.5
	C806.7,99.6,804.9,92.9,801.4,88.2z M737.6,169.2c0,3-0.7,5.4-2.2,7.3c-1.6,2.1-3.9,3.8-7.1,5.4c-9.7,4.7-27.2,5.1-33.8,5.1h-10.9
	c-6.7,0-24.2-0.3-33.8-5.1c-3.1-1.6-5.5-3.3-7.1-5.4c-1.4-1.9-2.2-4.3-2.2-7.3v-7c0-3,0.7-5.4,2.2-7.3c1.6-2.1,3.9-3.8,7.1-5.4
	c9.7-4.7,27.2-5.1,33.8-5.1h54.1V169.2"/>
<path id="path2544" fill="#DA0112" d="M998.6,21.5v-4.9h3.6c1.7,0,3.4,0.1,3.4,2.2c0,2.5-1.5,2.6-3.6,2.6H998.6z M998.6,24.2h2.3
	l4.5,7.2h3.6l-4.9-7.4c3.2-0.4,4.5-2.4,4.5-4.9c0-3.2-1.9-5.1-5.6-5.1h-7.7v17.4h3.1V24.2"/>
<path id="path2546" fill="#DA0112" d="M1001.6,6.4c-9,0-16.2,7.3-16.2,16.2s7.3,16.2,16.2,16.2c9,0,16.3-7.3,16.3-16.2
	S1010.5,6.4,1001.6,6.4z M1001.6,35.8c-7.3,0-13.2-5.9-13.2-13.2s5.9-13.2,13.2-13.2c7.3,0,13.2,5.9,13.2,13.2
	S1008.9,35.8,1001.6,35.8"/>
</svg>
