<?xml version="1.0" encoding="utf-8"?>
<!-- Generator: Adobe Illustrator 23.0.3, SVG Export Plug-In . SVG Version: 6.00 Build 0)  -->
<svg version="1.1"
	 id="svg2" xmlns:cc="http://creativecommons.org/ns#" xmlns:dc="http://purl.org/dc/elements/1.1/" xmlns:inkscape="http://www.inkscape.org/namespaces/inkscape" xmlns:rdf="http://www.w3.org/1999/02/22-rdf-syntax-ns#" xmlns:sodipodi="http://sodipodi.sourceforge.net/DTD/sodipodi-0.dtd" xmlns:svg="http://www.w3.org/2000/svg"
	 xmlns="http://www.w3.org/2000/svg" xmlns:xlink="http://www.w3.org/1999/xlink" x="0px" y="0px" width="92px" height="23.4px"
	 viewBox="0 0 92 23.4" enable-background="new 0 0 92 23.4" xml:space="preserve">
<defs>
	
	
		<inkscape:perspective  id="perspective10" inkscape:persp3d-origin="372.04724 : 350.78739 : 1" inkscape:vp_x="0 : 526.18109 : 1" inkscape:vp_y="0 : 1000 : 0" inkscape:vp_z="744.09448 : 526.18109 : 1" sodipodi:type="inkscape:persp3d">
		</inkscape:perspective>
	
		<inkscape:perspective  id="perspective2824" inkscape:persp3d-origin="0.5 : 0.33333333 : 1" inkscape:vp_x="0 : 0.5 : 1" inkscape:vp_y="0 : 1000 : 0" inkscape:vp_z="1 : 0.5 : 1" sodipodi:type="inkscape:persp3d">
		</inkscape:perspective>
</defs>
<sodipodi:namedview  bordercolor="#666666" borderopacity="1.0" id="base" inkscape:current-layer="layer1" inkscape:cx="42.253842" inkscape:cy="7.9225953" inkscape:document-units="px" inkscape:pageopacity="0.0" inkscape:pageshadow="2" inkscape:window-height="1000" inkscape:window-maximized="1" inkscape:window-width="1680" inkscape:window-x="-8" inkscape:window-y="-8" inkscape:zoom="12.960629" pagecolor="#ffffff" showgrid="false">
	</sodipodi:namedview>
<g id="layer1" transform="translate(-364.09377,-261.6911)" inkscape:groupmode="layer" inkscape:label="Layer 1">
	<path id="path3236" fill="#2461AA" d="M440.6,272v1c6,1,9.6,2.4,9.6,3.8c0,3.2-17.9,5.9-40,5.9c-5.7,0-11.1-0.2-16-0.5
		c-0.1-0.8-0.8-1.4-1.7-1.4c-0.8,0-1.4,0.5-1.6,1.2c-12.4-1-20.7-2.9-20.7-5.1c0-1.4,3.6-2.8,9.5-3.8v-1c-8.9,1.2-14.5,2.9-14.5,4.8
		c0,2.6,10.5,4.9,25.6,6c0.1,0.8,0.8,1.4,1.7,1.4c0.8,0,1.4-0.5,1.6-1.2c5,0.3,10.4,0.4,16,0.4c24.9,0,45-3,45-6.6
		C455.2,274.9,449.6,273.2,440.6,272z"/>
	<path id="path3238" d="M379.3,263.2h2l2,6l2-6h2.1v14.2h-1.9v-9.7l-2.1,6.3h-0.1l-2.1-6.3v9.7h-1.9L379.3,263.2"/>
	<path id="path3240" d="M391.5,263.1h2.1l2.8,14.3h-2l-0.6-3.2h-2.7l-0.6,3.2h-2L391.5,263.1L391.5,263.1z M393.6,272.4l-1-5.7
		l-1,5.7H393.6"/>
	<path id="path3242" d="M403.8,265h-2.1c-1.5,0-2.6,1.6-2.6,5v0.6c0,3.8,1.2,5.1,2.5,5.1l0.5,0v-4.3h-1.5v-1.8h3.3v7.9l-2.4,0
		c-2.4,0-4.4-2.1-4.4-7V270c0-4.6,2-7,4.6-7h2.2L403.8,265"/>
	<path id="path3244" d="M405.9,263.2h5.3v1.9h-3.2v4.2h2.9v1.9h-2.9v4.3h3.3v1.9h-5.3L405.9,263.2"/>
	<path id="path3246" d="M412.9,263.2h2v12.3h2.9v1.9h-4.9L412.9,263.2"/>
	<path id="path3248" d="M419.3,263.2h2v12.3h2.9v1.9h-4.9V263.2"/>
	<path id="path3250" d="M427.8,263.1h2.1l2.8,14.3h-2l-0.6-3.2h-2.7l-0.6,3.2h-1.9L427.8,263.1z M429.8,272.4l-1-5.7l-1,5.7H429.8"
		/>
	<path id="path3252" d="M434,263.2h1.9l3.1,8.6v-8.6h2v14.2h-1.8l-3.2-8.9v8.9h-2V263.2"/>
	<g enable-background="new    ">
		<path d="M445.6,262.8c0.6,0,1.1,0.1,1.7,0.4c0.6,0.3,1,0.7,1.3,1.3c0.3,0.6,0.5,1.1,0.5,1.7c0,0.6-0.2,1.2-0.5,1.7
			c-0.3,0.5-0.7,1-1.3,1.3c-0.5,0.3-1.1,0.5-1.7,0.5c-0.6,0-1.2-0.2-1.7-0.5s-1-0.7-1.3-1.3c-0.3-0.5-0.5-1.1-0.5-1.7
			c0-0.6,0.2-1.2,0.5-1.7s0.7-1,1.3-1.3C444.5,263,445.1,262.8,445.6,262.8z M445.6,263.4c-0.5,0-1,0.1-1.4,0.4
			c-0.5,0.2-0.8,0.6-1.1,1.1c-0.3,0.5-0.4,0.9-0.4,1.4c0,0.5,0.1,1,0.4,1.4s0.6,0.8,1.1,1.1s0.9,0.4,1.4,0.4c0.5,0,1-0.1,1.4-0.4
			c0.5-0.3,0.8-0.6,1.1-1.1c0.3-0.5,0.4-0.9,0.4-1.4c0-0.5-0.1-1-0.4-1.4c-0.3-0.5-0.6-0.8-1.1-1.1S446.1,263.4,445.6,263.4z
			 M444.1,268.2v-3.7h1.3c0.4,0,0.8,0,0.9,0.1s0.4,0.2,0.5,0.4s0.2,0.4,0.2,0.5c0,0.3-0.1,0.5-0.3,0.7c-0.2,0.2-0.5,0.3-0.8,0.3
			c0.1,0.1,0.2,0.1,0.3,0.2c0.1,0.1,0.3,0.4,0.5,0.7l0.5,0.7h-0.7l-0.3-0.6c-0.3-0.5-0.5-0.7-0.6-0.9c-0.1-0.1-0.3-0.1-0.5-0.1h-0.4
			v1.6H444.1z M444.7,266.1h0.7c0.3,0,0.6-0.1,0.7-0.2s0.2-0.2,0.2-0.4c0-0.1,0-0.2-0.1-0.3c-0.1-0.1-0.1-0.2-0.3-0.2
			c-0.1,0-0.3-0.1-0.6-0.1h-0.7V266.1z"/>
	</g>
</g>
</svg>
