<?xml version="1.0" encoding="utf-8"?>
<!-- Generator: Adobe Illustrator 23.0.3, SVG Export Plug-In . SVG Version: 6.00 Build 0)  -->
<svg version="1.1"
	 id="svg8" xmlns:cc="http://creativecommons.org/ns#" xmlns:dc="http://purl.org/dc/elements/1.1/" xmlns:inkscape="http://www.inkscape.org/namespaces/inkscape" xmlns:rdf="http://www.w3.org/1999/02/22-rdf-syntax-ns#" xmlns:sodipodi="http://sodipodi.sourceforge.net/DTD/sodipodi-0.dtd" xmlns:svg="http://www.w3.org/2000/svg"
	 xmlns="http://www.w3.org/2000/svg" xmlns:xlink="http://www.w3.org/1999/xlink" x="0px" y="0px" width="202.8px" height="38.4px"
	 viewBox="0 0 202.8 38.4" enable-background="new 0 0 202.8 38.4" xml:space="preserve">
<sodipodi:namedview  bordercolor="#666666" borderopacity="1.0" fit-margin-bottom="0" fit-margin-left="0" fit-margin-right="0" fit-margin-top="0" id="base" inkscape:current-layer="layer1" inkscape:cx="100.9155" inkscape:cy="18.687005" inkscape:document-units="mm" inkscape:pageopacity="0.0" inkscape:pageshadow="2" inkscape:window-height="744" inkscape:window-maximized="1" inkscape:window-width="1280" inkscape:window-x="-4" inkscape:window-y="-4" inkscape:zoom="3.9736213" pagecolor="#ffffff" showgrid="false" units="px">
	</sodipodi:namedview>
<g id="layer1" transform="translate(136.31365,-247.18996)" inkscape:groupmode="layer" inkscape:label="Layer 1">
	<g id="g16" transform="matrix(0.26458333,0,0,0.26458333,-136.18135,247.32286)">
		<path id="path12" inkscape:connector-curvature="0" fill-rule="evenodd" clip-rule="evenodd" fill="#960014" d="M243.4,32.8
			l-57.7,0.5l-2.6,15.6l20.6-0.2l-13.5,64.8l16.4-0.1l13.5-64.8l19.9-0.2L243.4,32.8z M289.6,46.6c0,0-19.6-12.4-31.3,18.1l3.3-18.5
			l-14,0.1l-13.1,66.9l14.3-0.1l8.1-35.7c0,0,7.5-23.1,27.5-13.8L289.6,46.6z M306.5,103.4c-3.9,0-6.7-2.4-6.7-6.2
			c0-3.8,4.1-7.7,8.3-9.9c4.2-2.1,17.8-6.8,17.8-6.8C326,96.6,310.4,103.4,306.5,103.4 M324.6,42.5c0,0-18.2,1.5-28.9,11.7l-2,15.8
			c0,0,11.4-12.3,23-12.4c11.5-0.1,19,10.4,0.5,16.4c-18.5,6.1-33.5,9.3-33.3,27.9c0.2,18.5,28.5,16.9,37.8-0.7l-1.6,11.2l14-0.1
			l9.8-48C343.6,64.3,349.4,42.3,324.6,42.5 M397.6,42.2c-19.6,0.2-28.1,21.9-28.1,21.9l3.7-18.9l-15,0.1l-12.4,67.6l15-0.1
			l8.4-39.9c0,0,4.1-14.4,17-14.5c12.9-0.1,9.2,12.9,8.5,17.1c-0.7,4.2-7.8,36.8-7.8,36.8l15.7-0.1l9.7-50.4
			C412.4,61.7,417.1,42.1,397.6,42.2 M447.6,42.2c-14.3,0.1-27.9,12.4-27.8,26.4c0.1,14,15.8,15.9,18.3,16.6
			c2.5,0.7,7.7,2.4,7.8,7.6c0,5.2-13.2,18.3-30.1-1.1l-2.3,15.4c0,0,5.9,7.3,17.8,7.2c11.9-0.1,29-9.3,28.8-25.1
			c-0.1-15.7-19.4-16.3-24.3-20.4c-4.9-4.2,2-12.6,10.4-12.7c8.4-0.1,15.8,8.9,15.8,8.9l3.4-15C465.4,50.1,461.9,42.1,447.6,42.2
			 M502.7,41.4c-14.7,0.1-37.6,15.7-37.3,44.3c0.2,28.7,27.9,39.3,47.3,15.7l1.3-11.6c0,0-8.6,12-21.2,12.1
			c-12.6,0.1-13.7-14.9-13.1-19.8c0.7-4.9,5-24.8,21.5-25c16.4-0.1,18.2,11,18.2,11l3.4-16.8C522.8,51.4,517.4,41.3,502.7,41.4
			 M570.8,71.3L538,71.5c0,0,4.7-15.1,20.1-15.2C573.5,56.2,570.8,71.3,570.8,71.3 M559,41.6c-18.2,0.1-37.9,21.6-37.7,46.1
			c0.2,24.5,28.4,37.4,51.5,13.9l1.3-11.2c0,0-6.2,11.6-23.3,11.7c-17.1,0.1-15.2-18-15.2-18l42.3-0.3c0,0,4.8-14.4,3.3-23.1
			C579.7,51.9,577.2,41.5,559,41.6 M634.9,42.8c-19.5,0.2-28.1,21.9-28.1,21.9l3.7-18.9l-15,0.1L583,113.5l15-0.1l8.4-39.9
			c0,0,4-14.4,17-14.5c12.9-0.1,9.1,12.9,8.5,17c-0.7,4.2-7.7,36.8-7.7,36.8l15.7-0.1l9.7-50.4C649.7,62.2,654.4,42.6,634.9,42.8
			 M702.1,71.4c0.2,19.4-13.9,29.7-20.8,29.8c-6.8,0-12.1-5.7-12.2-14.9c-0.1-9.1,6.3-27.5,20.5-27.7
			C703.7,58.5,702.1,71.4,702.1,71.4z M711.1,29.1l-6.3,30.5c0,0-0.9-17-17.4-16.9c-16.5,0.1-33.6,22-33.4,45.6
			c0.2,23.6,23.9,41,43.9,9.6l-3.5,14.7l14.9-0.1L726.3,29L711.1,29.1z M746.8,42.1h1.2c1.7,0,2.8-0.1,3.3-0.2s0.8-0.4,1-0.7
			c0.3-0.3,0.4-0.7,0.4-1.1c0-0.4-0.1-0.8-0.4-1.1c-0.3-0.3-0.6-0.6-1-0.7c-0.4-0.1-1.5-0.2-3.2-0.2h-1.2V42.1L746.8,42.1z
			 M743.8,50.5V35.7h3c2.8,0,4.4,0,4.8,0c1,0.1,1.8,0.3,2.3,0.6c0.5,0.3,1,0.8,1.4,1.4c0.4,0.6,0.6,1.3,0.6,2.1c0,1.1-0.3,2-1,2.8
			c-0.7,0.7-1.7,1.2-2.9,1.4c0.4,0.2,0.8,0.4,1,0.6c0.4,0.3,0.7,0.7,1,1.1c0.1,0.1,0.5,0.8,1.1,1.8l1.7,3H753l-1.2-2.4
			c-0.8-1.6-1.5-2.6-2.1-3.1c-0.6-0.4-1.2-0.6-2.1-0.6h-0.8v6.1H743.8z M750.1,31.7c-1.9,0-3.9,0.5-5.6,1.5c-1.8,1-3.2,2.3-4.2,4.1
			c-1,1.8-1.5,3.7-1.5,5.7c0,2,0.5,3.8,1.5,5.6c1,1.8,2.4,3.2,4.2,4.2c3.5,2,7.8,2,11.3,0c1.8-1,3.2-2.4,4.2-4.2
			c1-1.8,1.5-3.7,1.5-5.6c0-2-0.5-3.9-1.5-5.7c-1-1.8-2.4-3.2-4.2-4.1C754,32.3,752.1,31.8,750.1,31.7L750.1,31.7z M750.1,28.9
			c2.4,0,4.7,0.6,6.9,1.8c2.2,1.2,4,3,5.2,5.2c1.2,2.1,1.9,4.6,1.9,7.1c0,2.5-0.6,4.8-1.9,7c-1.2,2.2-3,4-5.2,5.2
			c-2.1,1.2-4.5,1.9-7,1.9c-2.5,0-4.9-0.6-7-1.9c-2.2-1.2-4-3-5.2-5.2c-1.2-2.1-1.9-4.5-1.9-7c0-2.5,0.6-4.8,1.9-7.1
			c1.2-2.2,3-4,5.2-5.2C745.4,29.6,747.7,28.9,750.1,28.9L750.1,28.9z M150.4,38.5c-0.4-0.9-0.7-1.8-1.1-2.6
			C133.9,2.4,89.6-8.6,50.2,11.3C27.6,22.8,11.6,41.9,4.9,62.4h57.8l-11.4,57h29.6l11.4-57h19.4l5.9-28l-80.7-0.1
			C56.1,12.6,84.6,1.9,108.2,9.7c14.2,4.7,24.1,15.3,28.8,28.8H150.4z"/>
		<path id="path14" inkscape:connector-curvature="0" fill-rule="evenodd" clip-rule="evenodd" fill="#960014" d="M124.4,48.4
			l-6,28.1h18.9c-1.3,4.7-3.1,9.2-5.2,13.6c-16.7,34.4-54.6,54.2-84.5,44.3c-24.6-8.2-36.2-33.9-30.3-62h-15
			c-2.1,12.2-0.9,24.6,4.2,35.8c15.3,33.5,59.7,44.5,99.1,24.6c34.7-17.5,53.9-53.2,47.6-84.4L124.4,48.4z"/>
	</g>
</g>
</svg>
