<?xml version="1.0" encoding="UTF-8" standalone="no"?>
<!-- Created with Inkscape (http://www.inkscape.org/) by Marsupilami -->
<svg xmlns:svg="http://www.w3.org/2000/svg" xmlns="http://www.w3.org/2000/svg" version="1.0" width="1024" height="170" viewBox="0 0 160.565 26.68125" id="svg4623">
  <defs id="defs4625">
    <clipPath id="clipPath5889">
      <path d="M 0,792.015 L 1224,792.015 L 1224,0.015 L 0,0.015 L 0,792.015 z " id="path5891"/>
    </clipPath>
    <clipPath id="clipPath5883">
      <path d="M 0,792 L 1224,792 L 1224,0 L 0,0 L 0,792 z " id="path5885"/>
    </clipPath>
    <clipPath id="clipPath5877">
      <path d="M 1058.04,774.99 L 1212.11,774.99 L 1212.11,723.97 L 1058.04,723.97 L 1058.04,774.99 z " id="path5879"/>
    </clipPath>
  </defs>
  <g transform="translate(-577.68,-37.58625)" id="layer1">
    <g transform="matrix(1.25,0,0,-1.25,-765,990)" id="g5873">
      <g clip-path="url(#clipPath5877)" id="g5875">
        <g clip-path="url(#clipPath5883)" id="g5881">
          <g clip-path="url(#clipPath5889)" id="g5887">
            <path d="M 0,0.5625 L 0,26.6875 L 13.71875,26.6875 L 26.125,26.6875 L 26.125,0.5625 L 7.59375,0.5625 L 7.59375,5.96875 C 7.59375,5.96875 9.0112501,5.9687501 13.0625,5.96875 C 17.1125,5.96875 20.468751,9.4649999 20.46875,13.34375 C 20.46875,17.22125 17.36375,20.8125 13.0625,20.8125 C 8.7625,20.8125 5.65625,17.435 5.65625,13.25 C 5.65625,9.065 5.65625,0.56249999 5.65625,0.5625 L 0,0.5625 z M 31.46875,0.5625 L 31.46875,26.6875 C 31.46875,26.6875 53.67625,26.6875 55.75,26.6875 C 57.823752,26.6875 60.125,25.615 60.125,22.3125 C 60.124999,19.01 60.125,20.26625 60.125,18.25 C 60.124999,16.233749 59.38125,14.8525 57.53125,13.84375 C 57.320002,13.72875 57.24375,13.4275 57.53125,13.3125 C 57.820002,13.1975 60.125,12.4275 60.125,8.875 C 60.125,5.3237495 60.125,7.0725 60.125,4.90625 C 60.125,2.7412501 59.245,0.5625 55.75,0.5625 C 52.255002,0.56249999 41.15625,0.5625 41.15625,0.5625 L 41.15625,6.78125 C 41.15625,6.78125 52.67375,6.78125 53,6.78125 C 53.326252,6.78125 53.65625,7.0525 53.65625,7.4375 C 53.656252,7.8212501 53.65625,9.16625 53.65625,9.53125 C 53.656252,9.8962503 53.4625,10.15625 53,10.15625 C 52.538752,10.15625 41.15625,10.15625 41.15625,10.15625 L 41.15625,16.625 C 41.15625,16.624999 52.65375,16.625 53,16.625 C 53.346252,16.624999 53.65625,16.935 53.65625,17.28125 C 53.656252,17.62625 53.65625,19.31125 53.65625,19.65625 C 53.656252,20.002501 53.40375,20.3125 53,20.3125 C 52.597502,20.312499 38.76625,20.3125 38.34375,20.3125 C 37.920001,20.312499 37.6875,20.0975 37.6875,19.65625 C 37.687499,19.215001 37.6875,0.5625 37.6875,0.5625 L 31.46875,0.5625 z M 67.375,0.5625 C 64.97125,0.5625 63.031249,2.5025001 63.03125,4.90625 L 63.03125,22.3125 C 63.03125,24.7175 64.971248,26.6875 67.375,26.6875 L 76.125,26.6875 L 85.15625,26.6875 C 87.56125,26.6875 89.53125,24.7175 89.53125,22.3125 L 89.53125,4.90625 C 89.53125,2.5025 87.561253,0.56249999 85.15625,0.5625 L 67.375,0.5625 z M 96.8125,0.5625 C 94.128747,0.56249999 92.4375,2.6375 92.4375,4.90625 C 92.4375,7.1762501 92.4375,9.83125 92.4375,12.5 C 92.4375,15.16875 94.7925,16.84 96.8125,16.84375 C 98.832497,16.847499 112.24875,16.84375 112.59375,16.84375 C 112.93875,16.843749 113.25,17.135 113.25,17.5 C 113.25,17.86375 113.25,19.29125 113.25,19.65625 C 113.25,20.021251 113.11125,20.3125 112.59375,20.3125 C 112.075,20.312499 99.6775,20.3125 99.3125,20.3125 C 98.947502,20.312499 98.65625,20.0025 98.65625,19.65625 C 98.656248,19.311251 98.65625,18.625 98.65625,18.625 L 92.4375,18.625 C 92.4375,18.625 92.4375,19.6825 92.4375,22.3125 C 92.4375,24.9425 94.13875,26.6875 96.8125,26.6875 C 99.484997,26.6875 112.68625,26.6875 115.125,26.6875 C 117.56375,26.6875 119.465,25.3075 119.46875,22.3125 C 119.4725,19.3175 119.465,17.12625 119.46875,14.75 C 119.4725,12.37375 118.14,10.40625 115.125,10.40625 C 112.11125,10.40625 99.6775,10.40625 99.3125,10.40625 C 98.947502,10.40625 98.65625,10.095 98.65625,9.75 C 98.656248,9.4037496 98.65625,7.84 98.65625,7.4375 C 98.656248,7.0337501 98.87125,6.78125 99.3125,6.78125 C 99.755002,6.78125 112.22875,6.78125 112.59375,6.78125 C 112.9575,6.78125 113.25,7.11 113.25,7.4375 C 113.25,7.7625001 113.25,8.34375 113.25,8.34375 L 119.46875,8.34375 C 119.46875,8.3437497 119.465,7.495 119.46875,4.90625 C 119.4725,2.3200001 117.98625,0.5625 115.125,0.5625 C 112.265,0.56249999 99.495,0.5625 96.8125,0.5625 z M 127,0.5625 C 124.31625,0.56249999 122.65625,2.6375 122.65625,4.90625 C 122.65625,7.1762501 122.65625,9.83125 122.65625,12.5 C 122.65625,15.16875 124.98125,16.84 127,16.84375 C 129.02125,16.847499 142.46625,16.84375 142.8125,16.84375 C 143.15751,16.843749 143.46875,17.135 143.46875,17.5 C 143.46874,17.86375 143.46875,19.29125 143.46875,19.65625 C 143.46874,20.021251 143.32875,20.3125 142.8125,20.3125 C 142.29376,20.312499 129.89625,20.3125 129.53125,20.3125 C 129.1675,20.312499 128.875,20.0025 128.875,19.65625 C 128.87501,19.311251 128.875,18.625 128.875,18.625 L 122.65625,18.625 C 122.65625,18.625 122.65625,19.6825 122.65625,22.3125 C 122.65625,24.9425 124.32625,26.6875 127,26.6875 C 129.67375,26.6875 142.875,26.6875 145.3125,26.6875 C 147.75124,26.6875 149.68375,25.3075 149.6875,22.3125 C 149.6925,19.3175 149.68375,17.12625 149.6875,14.75 C 149.6925,12.37375 148.3275,10.40625 145.3125,10.40625 C 142.29874,10.40625 129.89625,10.40625 129.53125,10.40625 C 129.1675,10.40625 128.875,10.095 128.875,9.75 C 128.87501,9.4037496 128.875,7.84 128.875,7.4375 C 128.87501,7.0337501 129.08875,6.78125 129.53125,6.78125 C 129.9725,6.78125 142.4475,6.78125 142.8125,6.78125 C 143.17626,6.78125 143.46875,7.11 143.46875,7.4375 C 143.46874,7.7625001 143.46875,8.34375 143.46875,8.34375 L 149.6875,8.34375 C 149.68751,8.3437497 149.68375,7.495 149.6875,4.90625 C 149.6925,2.3200001 148.17375,0.5625 145.3125,0.5625 C 142.45249,0.56249999 129.68375,0.5625 127,0.5625 z M 2.03125,2.59375 L 3.84375,2.59375 C 3.84375,2.59375 3.8437501,9.0599998 3.84375,13.4375 C 3.84375,17.815 7.26875,22.500001 12.875,22.5 C 18.48,22.5 22.125,18.06625 22.125,13.34375 C 22.125,8.62 18.23,4.2499998 12.96875,4.25 C 9.4175,4.25 9.4062504,4.2499998 9.40625,4.25 L 9.40625,2.59375 L 24.0625,2.59375 L 24.0625,24.65625 L 13.71875,24.65625 L 2.03125,24.65625 L 2.03125,2.59375 z M 69.90625,6.78125 L 82.65625,6.78125 C 83.01625,6.78125 83.312497,7.0775001 83.3125,7.4375 L 83.3125,19.65625 C 83.3125,20.0175 83.016252,20.312499 82.65625,20.3125 L 76.125,20.3125 L 69.90625,20.3125 C 69.54625,20.3125 69.249996,20.017501 69.25,19.65625 L 69.25,7.4375 C 69.25,7.0775 69.546251,6.78125 69.90625,6.78125 z " transform="matrix(0.8,0,0,-0.8,1074.144,761.931)" style="fill:#000000;fill-opacity:1;fill-rule:nonzero;stroke:none" id="path5893"/>
            <path d="M 1196.004,758.636 C 1196.004,760.455 1197.479,761.931 1199.3,761.931 C 1201.119,761.931 1202.596,760.455 1202.596,758.636 C 1202.596,756.815 1201.119,755.34 1199.3,755.34 C 1197.479,755.34 1196.004,756.815 1196.004,758.636 z M 1199.3,755.618 C 1200.967,755.618 1202.318,756.969 1202.318,758.636 C 1202.318,760.302 1200.967,761.654 1199.3,761.654 C 1197.633,761.654 1196.281,760.302 1196.281,758.636 C 1196.281,756.969 1197.633,755.618 1199.3,755.618 z M 1198.316,756.66 L 1197.783,756.66 L 1197.783,760.605 L 1199.607,760.605 C 1200.256,760.605 1200.904,760.38 1200.904,759.545 C 1200.904,758.963 1200.607,758.748 1200.355,758.6 C 1200.58,758.507 1200.805,758.408 1200.828,757.858 L 1200.86,757.144 C 1200.865,756.924 1200.893,756.842 1201.058,756.748 L 1201.058,756.66 L 1200.404,756.66 C 1200.328,756.902 1200.31,757.501 1200.31,757.65 C 1200.31,757.973 1200.245,758.353 1199.607,758.353 L 1198.316,758.353 L 1198.316,756.66 z M 1198.316,758.809 L 1199.553,758.809 C 1199.943,758.809 1200.355,758.908 1200.355,759.49 C 1200.355,760.1 1199.91,760.15 1199.646,760.15 L 1198.316,760.15 L 1198.316,758.809" style="fill:#000000;fill-opacity:1;fill-rule:nonzero;stroke:none" id="path5903"/>
          </g>
        </g>
      </g>
    </g>
  </g>
</svg>