<?xml version="1.0" encoding="utf-8"?>
<!-- Generator: Adobe Illustrator 23.0.3, SVG Export Plug-In . SVG Version: 6.00 Build 0)  -->
<svg version="1.1" id="Layer_1" xmlns="http://www.w3.org/2000/svg" xmlns:xlink="http://www.w3.org/1999/xlink" x="0px" y="0px"
	 width="157.9px" height="46.4px" viewBox="0 0 157.9 46.4" enable-background="new 0 0 157.9 46.4" xml:space="preserve">
<g id="XMLID_1_">
	<g>
		<path d="M157.7,19c0,2.1,0,3.3,0,3.3h-7.1c0,0,0.9-4.7-2.1-4.7c-3,0-4-0.5-4.9,0.4c-0.9,0.9-1.3,0.1-1.3,3.5c0,3.4,0,14,0,16
			c0,2.6,3.5,2.6,3.5,2.6v5.5h-12.2V41l1.9-1.9V18.8h-2.7v-7.5c0,0,10.6,0.1,17.5,0.1C157.2,11.4,157.7,17,157.7,19z"/>
		<path d="M131.6,39.6v6c0,0-16.9,0-19.5,0c-2.6,0-6.6-2-6.6-7.3c0-1.9,0-4.1,0-5.8c0-1.7,1-6.9,6.5-6.9c5.4,0,5.8,0,7.3,0
			c1.4,0,2.2-1.7,2.2-3.2c0-1.6,0.3-4.8-3.6-4.8c-3.9,0-11.9,0-11.9,0v-6c0,0,10.9,0,14.9,0c4,0,7.7,1.8,7.7,7.7
			c0,3.8,0.1,20.4,0.1,20.4L131.6,39.6L131.6,39.6z M121.8,38.4c0-0.9,0-2.9,0-4.4c0-1.6-0.6-2.7-2.1-2.7c-1.4,0-3,0-4.9,0
			c-1.6,0-2.6,0.9-2.6,1.6c0,0.6,0,2.3,0,4.5c0,2.2,0.9,3.4,2.3,3.4c1.4,0,3,0,5.1,0C121.6,40.7,121.8,39.3,121.8,38.4z"/>
		<path d="M103.8,39.7v5.8c0,0-3,0-5.6,0c-2.6,0-6.6-1.2-6.6-8.6c0-3.5,0-11.8,0-19.6h5.3c0,8.1,0,16.3,0,17.5
			c0,2.6,0.8,4.5,2.6,4.5C101.4,39.5,103.8,39.7,103.8,39.7z"/>
		<path d="M102,11.5v5.8h-5.1c0-2,0-4,0-5.8C96.9,11.5,102,11.5,102,11.5z"/>
		<path d="M96.9,11.5c0,1.9,0,3.8,0,5.8h-5.3c0-2,0-4,0-5.8C91.6,11.5,96.9,11.5,96.9,11.5z"/>
		<path d="M96.9,0.3c0,0,0,5,0,11.3h-5.3c0-6.3,0-11.3,0-11.3H96.9z"/>
		<path d="M91.6,11.5c0,1.9,0,3.8,0,5.8h-4.8v-5.8C86.8,11.5,91.6,11.5,91.6,11.5z"/>
		<polygon points="87,40 87,46.1 75,46.1 75,40 77.4,40 77.4,18 74.2,18 74.2,11.9 84.3,11.9 84.3,40 		"/>
		<rect x="75.9" y="1" width="8.1" height="6.4"/>
		<polygon points="72.2,11.2 72.2,17.4 70.1,17.4 64.5,45.8 56.2,45.8 48.3,17.4 45.8,17.4 45.8,11.3 52.8,11.3 59.3,38.7 
			60.1,38.7 65.4,11.2 		"/>
		<polygon points="47.6,39.5 47.6,45.5 35.6,45.5 35.6,39.5 38,39.5 38,17.4 34.8,17.4 34.8,11.3 44.9,11.3 44.9,39.5 		"/>
		<rect x="36.5" y="0.4" width="8" height="6.4"/>
		<polygon points="34.5,0.3 34.5,6.6 32.3,6.6 24.5,45.5 13.8,45.5 4,6.6 0.3,6.6 0.3,0.4 9.9,0.4 18.3,34.5 19.3,34.5 26.2,0.3 		
			"/>
	</g>
</g>
</svg>
