<svg id="logo-lg" xmlns="http://www.w3.org/2000/svg" width="98.621" height="43.248" viewBox="0 0 98.621 43.248">
  <path id="Path_697" data-name="Path 697" d="M21.641,43.248A21.624,21.624,0,1,0,0,21.629,21.631,21.631,0,0,0,21.641,43.248" fill="#a50034"/>
  <path id="Path_698" data-name="Path 698" d="M37.1,21.676V40.65h6.032V38.944H38.834V21.676Z" transform="translate(-16.325 -9.539)" fill="#fff"/>
  <path id="Path_699" data-name="Path 699" d="M24.271,26.843a2.595,2.595,0,1,0-2.592-2.592,2.594,2.594,0,0,0,2.592,2.592" transform="translate(-9.54 -9.529)" fill="#fff"/>
  <path id="Path_700" data-name="Path 700" d="M25.281,6.284c-.226-.011-.656-.025-.862-.025A18.111,18.111,0,1,0,42.53,24.374v-.806H29.592v1.667H40.8c0,.036,0,.213-.008.259a16.417,16.417,0,0,1-27.99,10.483A16.412,16.412,0,0,1,24.42,7.959c.189,0,.65,0,.862.011Z" transform="translate(-2.773 -2.754)" fill="#fff"/>
  <path id="Path_701" data-name="Path 701" d="M101.256,12.677h-6.5V40.829h19.974v-5.48H101.256ZM129.032,30.1h5.3v4.922a14.99,14.99,0,0,1-4.693.742c-5.853,0-7.8-2.973-7.8-9.01,0-5.758,1.857-9.153,7.71-9.153,3.253,0,5.11,1.022,6.641,2.974l4.043-3.717c-2.463-3.528-6.783-4.6-10.823-4.6-9.107,0-13.89,4.97-13.89,14.445,0,9.429,4.32,14.538,13.844,14.538,4.366,0,8.64-1.114,10.961-2.74V24.85H129.032Z" transform="translate(-41.698 -5.397)" fill="#6b6b6b"/>
</svg>
