<?xml version="1.0" encoding="utf-8"?>
<!-- Generator: Adobe Illustrator 23.0.3, SVG Export Plug-In . SVG Version: 6.00 Build 0)  -->
<svg version="1.1"
	 id="svg10" xmlns:cc="http://creativecommons.org/ns#" xmlns:dc="http://purl.org/dc/elements/1.1/" xmlns:inkscape="http://www.inkscape.org/namespaces/inkscape" xmlns:rdf="http://www.w3.org/1999/02/22-rdf-syntax-ns#" xmlns:sodipodi="http://sodipodi.sourceforge.net/DTD/sodipodi-0.dtd" xmlns:svg="http://www.w3.org/2000/svg"
	 xmlns="http://www.w3.org/2000/svg" xmlns:xlink="http://www.w3.org/1999/xlink" x="0px" y="0px" width="1841.4px"
	 height="593.1px" viewBox="0 0 1841.4 593.1" enable-background="new 0 0 1841.4 593.1" xml:space="preserve">
<sodipodi:namedview  bordercolor="#666666" borderopacity="1" fit-margin-bottom="0" fit-margin-left="0" fit-margin-right="0" fit-margin-top="0" gridtolerance="10" guidetolerance="10" id="namedview12" inkscape:current-layer="svg10" inkscape:cx="1392.9741" inkscape:cy="404.4558" inkscape:pageopacity="0" inkscape:pageshadow="2" inkscape:window-height="1001" inkscape:window-maximized="1" inkscape:window-width="1920" inkscape:window-x="-9" inkscape:window-y="-9" inkscape:zoom="0.25" objecttolerance="10" pagecolor="#ffffff" showgrid="false">
	</sodipodi:namedview>
<path id="path4" inkscape:connector-curvature="0" fill-rule="evenodd" clip-rule="evenodd" fill="#E1001A" d="M926.7,0l-98.9,137.4
	h198.8L926.7,0z"/>
<path id="path6" inkscape:connector-curvature="0" fill-rule="evenodd" clip-rule="evenodd" d="M1836,397.1
	c-9.4-35.5-31.2-62.3-58.8-80.5c-28.5-18.5-62-27.9-96-26.8c-34.9,0.9-71.3,12.3-98.7,32.8c-27.4,20.6-45.8,50.4-53.9,83.4
	c-8.2,33-6.1,69.3,7.6,99.7c13.7,30.4,38.9,55.1,65.6,69.2c26.8,14.1,55.2,17.8,80.8,18c25.6,0.3,48.4-3,74-15.6
	c25.7-12.6,54.4-34.7,70.2-67.8C1842.6,476.6,1845.5,432.6,1836,397.1 M1776,476.3c-5.8,19.2-16.5,35.9-33.1,48
	c-16.7,12.1-39.3,19.5-60.3,19.8c-21,0.5-40.4-6.1-56-17.6c-16.1-12.1-27.8-29.1-33.3-48.5c-6.1-20.3-6.4-44.4-2.3-65.6
	c4.1-21.1,12.6-39.4,28.7-53.1c16-13.7,39.6-22.9,62.6-23.1c22.9-0.1,45.1,8,62.6,22.8c16.8,14.4,27.6,34.5,32.7,55.4
	C1782.7,435.3,1781.8,457.1,1776,476.3 M899.3,299.3c-0.7-0.8-1.6-1.3-2.7-1.5h-51.9c-1.2,0.3-2.3,0.8-3.3,1.5c-0.5,0.6-1,1.3-1.2,2
	c-0.4,1.3-0.6,2.7-0.6,4V482c0,0.4-0.6,6.2-1.1,10.4c-0.4,4.1-0.7,6.8-1.4,10.1c-0.9,4.1-2.4,8.1-4.4,11.7
	c-2.6,4.1-5.8,7.7-9.5,10.7c-3.3,2.8-6.8,5.2-10.5,7.3c-4.5,2.5-9.7,5.1-15.4,6.8c-5.9,1.8-12.3,2.8-17.9,3.3
	c-5.1,0.4-9.6,0.5-14.6,0.2c-5.3-0.3-11.2-1-16.6-2.2c-10-2.3-19.4-6.9-27.3-13.5c-5.2-4.9-9.3-10.9-11.7-17.6
	c-1.7-4.5-3.7-11.2-3.7-15.2V305.4c0-1.2-0.2-2.5-0.6-3.7c-0.1-0.6-0.4-1.2-0.8-1.8c-0.3-0.4-0.7-0.7-1.2-1c-0.5-0.3-1-0.4-1.5-0.5
	h-52c-0.6,0.2-1.3,0.4-1.9,0.7c-0.5,0.2-1,0.5-1.4,0.8c-0.6,0.7-1,1.5-1.3,2.3c-0.4,1.2-0.5,2.5-0.6,3.8v192.5
	c0,4.8,0.4,9.3,1.2,14.2c0.9,5.3,2.3,11,4,16.1c1.6,4.9,3.5,9.2,6.3,13.5c3.1,4.8,7.2,9.6,11.8,14.1c9.6,9.4,20.8,16.9,33.1,22.1
	c6.1,2.7,12.3,5,18.9,6.9c7.1,2,14.6,3.6,22.1,4.9c7.3,1.3,14.5,2.1,21.2,2.3c6.4,0.2,12.4-0.3,19-1.1c7.2-0.9,15.2-2.2,21.8-3.4
	c11.4-2,22.6-5.2,33.3-9.5c7.2-2.8,14.2-6.2,20.7-10.4c6.2-4,11.7-8.8,16.9-14.1c5.1-5.1,9.9-10.6,13.5-15.8
	c3.1-4.5,5.3-8.8,6.9-14.1c1.8-5.8,2.8-13,3.5-18.9c1-10.7,1.8-21.3,2.3-32V304.8c0-0.8-0.3-2.5-0.6-3.7
	C900,300.5,899.8,299.9,899.3,299.3 M1503.7,297.7H1262c-1.5,0-3.9-0.1-5.5,1.3c-0.9,0.9-1.5,2-1.9,3.2v36c0,1.8,0.4,3.8,1.7,4.7
	c1.3,0.9,3.5,0.9,5.7,0.9h79.1c3,0,7.1,0.4,9.3,3.3c1.4,2.3,2.2,5,2.3,7.7V580c0,1.4-0.3,3.9,1,5c1.1,0.8,3.4,0.7,3.4,0.7h49.8
	c1.5,0,3.3-0.2,4.3-1.8c0.8-1.5,1.2-3.1,1.3-4.8V353c0-0.3,0.2-4.7,2.3-7.1c2.5-2.9,7.8-2.7,10.9-2.7h76.4c8.1-0.3,8.9-2.8,8.9-6.8
	v-33.6C1511.2,299.2,1509.7,297.6,1503.7,297.7 M1209.9,301c-0.2-1-0.8-1.8-1.7-2.3c-1-0.7-2.2-1.1-3.5-1.2H1157
	c-1.6,0-3.3-0.1-4.6,0.8c-0.9,0.6-1.6,1.5-1.9,2.5c-0.7,1.8-0.5,3.9-0.5,5.2v172.6c-0.2,2.3-0.5,3.1-1.1,3.6
	c-0.3,0.3-0.7,0.5-1.1,0.5c-0.6,0.1-1.2,0-1.8-0.4c-1-0.7-1.9-1.6-2.7-2.5L1012.5,302c-0.5-0.2-1.4-1.9-3.5-3
	c-2.2-1-4.7-1.5-7.1-1.3h-40.3c-1.2,0.2-2.5-0.1-3.9,0.5c-1.3,0.5-2.4,1.4-3.3,2.5c-1.5,2-1.1,4.2-1.4,7.3v270c0,1.7-0.3,4,1.1,5.6
	c1.2,1.4,3.8,2.1,3.8,2.1h46c2.2,0,5.6,0.4,7.4-1.6c1.1-1.5,1.8-3.3,2.1-5.1V399.4c0-1,0-3.8,0.5-5.2c0.3-0.9,0.8-1.3,1.3-1.4
	c0.5-0.2,1.1-0.1,1.9,0.7c1.3,1.1,3.1,3.8,3,3.9l133.6,183.9c0.8,1,2.3,3.2,3.9,3.8c1.4,0.5,2.6,0.6,2.7,0.6h44c1,0,1.9-0.3,2.8-0.6
	c0.9-0.4,1.4-0.4,2.3-1.8c0.6-1.3,1-2.7,1-4.2V304.6C1210.2,303.4,1210.1,302.2,1209.9,301 M277.2,475.4c-0.9-3.3-2.2-6.6-3.7-9.6
	c-1.6-3-3.5-5.9-5.6-8.6c-1.7-2.5-3.5-4.8-5.6-7c-2.5-2.6-5.2-5-8.1-7.2c-6.4-4.8-13.2-9-20.5-12.4c-3.5-1.6-7-3.1-10.6-4.5
	c-4.3-1.7-8.8-3.1-13.3-4.2c-5.9-1.5-11.9-2.8-17.9-3.9c-6.7-1.3-13.4-2.5-20.1-3.6c-7-1.2-14-2.4-21-3.5c-7-1.1-13.9-2.1-19.7-3.1
	c-5.9-1-10.7-2-15.5-3.1c-4.5-0.9-8.9-1.9-13.3-3.1c-6.3-1.8-12.1-4.7-17.3-8.6c-1.3-0.9-2.4-2.1-3.4-3.4c-2.1-3.2-3.4-6.9-4-10.7
	c-0.6-4.8-0.2-9.7,1.3-14.3c0.6-2,1.4-3.8,2.6-5.5c1.2-1.7,2.7-3.3,4.4-5c1.8-1.6,3.8-3.2,5.9-4.6c2.2-1.5,4.6-2.8,7-4
	c6.8-3.5,14.2-6,21.7-7.3c4.3-0.8,9.2-1.4,13.5-1.7c4.2-0.3,8.3-0.3,12.5-0.1c4.5,0.3,9.9,0.8,14.4,1.6c4.5,0.8,8.1,1.7,12,3
	c3.9,1.3,8.1,3,11.9,4.5c3.8,1.6,7,3.1,10.5,5.2c6.6,4,12.6,8.8,17.9,14.4c2,2.1,3.7,4,4.9,5.2c0.7,0.8,1.5,1.5,2.4,2
	c0.7,0.4,1.4,0.6,2.2,0.7c1.2,0,2.4-0.2,3.5-0.8l39.2-27.5c0.7-0.6,1.3-1.3,1.8-2.1c0.4-0.8,0.6-1.6,0-2.8
	c-2-3.9-11.9-12.5-20.9-18.9c-7.6-5.4-15.6-10.1-24-14.1c-6-3-12.2-5.6-18.6-7.6c-9.2-2.9-18.6-5-28.2-6.5c-9-1.5-18-2.1-27.1-2
	c-10.4,0.3-20.7,1-31,2.3c-8.7,1-16.2,2-24.3,3.9c-9.5,2.3-18.7,5.4-27.6,9.3c-9.7,4.2-19.3,9.6-26.8,16c-5.9,5.2-11,11.1-15.2,17.8
	c-2.7,4.1-5.1,8.5-7.1,13c-1.5,3.2-2.6,6.6-3.4,10.1c-0.8,4-1.3,8.7-1.7,11.9c-0.3,2.4-0.6,4-0.6,6.7c0,4.5,0.7,12,2,17.8
	c1.1,5,2.7,8.6,5.1,12.7c2.9,5,7,10.8,12.5,16.1c6.1,6,13.9,11.3,21.1,14.9c6.4,3.3,12.2,5.3,19.1,7.4c8.3,2.5,18.1,5.1,28.5,7.1
	c11,2,22.5,3.4,33,4.7c9.2,1.2,17.6,2.4,25.6,3.7c7.3,1.2,14.4,2.3,20.6,4c5.2,1.4,9.9,3,13.8,4.8c3.4,1.5,6.3,3,9.3,5.4
	c3.5,2.6,7.2,6.3,9.3,10.4c1.9,3.8,2.5,7.9,2.8,11.9c0.3,3.6,0.1,7-0.6,10.4c-0.7,3.8-2.2,7.4-4.5,10.5c-3.6,4.8-8.1,8.8-13.2,11.9
	c-5.1,3.1-10.3,5-16.3,6.5c-6.6,1.7-14.1,3-20.3,3.7c-5.3,0.6-9.5,0.8-15,0.6c-6.3-0.3-14.1-1.1-20-1.7c-4.4-0.4-8.9-1.1-13.2-2
	c-6.4-1.3-12.7-3.1-18.8-5.3c-4.4-1.6-7.5-3.3-11-5.1c-4.1-2.1-8.8-4.2-14.1-8.5c-6.1-4.8-13.1-12.4-15.4-14.6
	c-0.4-0.4-0.8-0.8-1.3-1c-0.5-0.2-1.1-0.3-1.7-0.4c-0.8-0.1-1.6-0.1-2.4,0L0.8,537c-0.6,0.8-0.9,1.8-0.8,2.8c0.1,0.8,0.4,1.4,2,3.3
	c1.5,1.8,4.4,4.8,7,7.5c2.5,2.6,4.9,4.8,8.1,7.5c3.3,2.7,7.5,5.8,12.6,8.8c5.1,3,11,6.1,17.5,8.9c14.1,6,28.8,10.6,43.9,13.6
	c7.7,1.4,15.5,2.2,23.3,2.8c7.8,0.6,15.8,1,23,0.9c15-0.4,30-2.1,44.8-5c7.6-1.5,15.2-3.5,22.6-5.9c7.2-2.3,13.9-5,20.2-7.9
	c6.2-3,11.9-6.4,16.3-9.2c4.4-2.8,7.6-5.1,11-8.2c6.5-6.2,12.4-13,17.4-20.4c2.1-3.3,3.8-6.8,5.3-10.4c2.7-6.8,4.3-14,4.7-21.3
	c0.6-6.5,0.5-13-0.3-19.4C278.8,482,278.1,478.7,277.2,475.4 M589.4,299.4c-0.7-0.8-1.6-1.4-2.7-1.5h-51.9c-0.7,0.2-1.3,0.4-1.9,0.7
	c-0.5,0.2-1,0.5-1.4,0.8c-0.5,0.6-1,1.3-1.2,2c-0.4,1.3-0.6,2.7-0.7,4v176.7c0,0.4-0.6,6.2-1.1,10.4c-0.4,4.1-0.7,6.8-1.4,10.1
	c-0.9,4.1-2.4,8.1-4.4,11.7c-2.6,4.1-5.8,7.7-9.5,10.7c-3.3,2.8-6.6,5.1-10.5,7.3c-4.9,2.8-10,5.1-15.4,6.8
	c-5.9,1.8-12.3,2.8-17.9,3.3c-5.1,0.4-9.6,0.5-14.6,0.2c-5.6-0.3-11.2-1-16.6-2.2c-5-1.1-9.8-2.8-14.3-5.1c-4.7-2.2-9-5.1-12.9-8.5
	c-5.2-4.9-9.2-10.9-11.7-17.6c-1.7-4.5-3.7-11.2-3.7-15.2V305.4c0-0.8-0.3-2.5-0.6-3.7c-0.2-0.6-0.5-1.2-0.9-1.8
	c-0.3-0.4-0.7-0.7-1.2-1c-0.5-0.3-1-0.4-1.5-0.5h-51.9c-0.6,0.2-1.1,0.2-1.7,0.5c-0.6,0.2-1.2,0.6-1.6,1c-0.6,0.7-1.1,1.5-1.3,2.4
	c-0.4,1.2-0.5,2.5-0.6,3.8v192.5c0,4.8,0.4,9.3,1.2,14.2c0.9,5.3,2.3,11,4,16.1c1.6,4.9,3.5,9.2,6.3,13.5c3,4.8,7.2,9.6,11.7,14.1
	c9.5,9.4,20.7,16.9,33,22.1c6.1,2.7,12.3,5,18.9,6.9c7.1,2,14.7,3.6,22.1,4.9c7.3,1.3,14.5,2.1,21.2,2.3c6.4,0.2,12.3-0.3,18.9-1.1
	c7.2-0.9,15.2-2.2,21.9-3.4c11.4-2.1,22.6-5.2,33.3-9.5c7-2.8,14.2-6.2,20.7-10.4c6.2-4,11.7-8.8,16.9-14.1
	c5.1-5.1,9.9-10.6,13.5-15.8c3.1-4.5,5.3-8.8,6.9-14.1c1.8-5.8,2.8-13,3.5-18.9c0.7-5.6,1-10.3,1.4-16.9c0.4-6.3,0.9-14.4,0.9-15.1
	V304.8c0-0.8-0.3-2.5-0.6-3.7C590,300.5,589.7,299.9,589.4,299.4"/>
</svg>
