<?xml version="1.0" encoding="utf-8"?>
<!-- Generator: Adobe Illustrator 23.0.3, SVG Export Plug-In . SVG Version: 6.00 Build 0)  -->
<svg version="1.1" id="layer" xmlns="http://www.w3.org/2000/svg" xmlns:xlink="http://www.w3.org/1999/xlink" x="0px" y="0px"
	 width="652px" height="140px" viewBox="0 0 652 140" enable-background="new 0 0 652 140" xml:space="preserve">
<g>
	<g>
		<path fill="#8A8A8D" d="M333.8,97.7c-5-0.3-9.6-2.1-13.1-6c-3-3.4-4.4-7.3-4.8-11.5V51.8c0.6-4.7,2.6-9.3,6.3-12.7
			c3.3-3.1,7.3-4.3,11.6-4.6h43.7c5.5,0.5,10.2,2.8,14.1,6.9c2.8,3.5,4.3,7.6,4.6,12.1v25.3c-0.3,5.7-2.4,10.7-6.8,14.6
			c-3.3,2.9-7.1,4.1-11.3,4.4L333.8,97.7L333.8,97.7z M381.1,85.1c2.3-1.7,3-3.6,3.2-5.8V53.1c-0.1-1.9-1.1-3.5-2.4-4.9
			c-1.2-1.2-2.9-1.9-4.2-2h-44.1c-1.8,0-2.8,0.7-3.9,1.9c-1.8,2-2.2,4.6-2.3,5.5v25c0.2,2.9,1,4.3,2.7,5.8c1.3,1.2,1.9,1.4,3.7,1.5
			H378C378,86,379.8,86.1,381.1,85.1"/>
	</g>
	<text transform="matrix(1 0 0 1 606.5586 43.0658)" fill="#8A8A8D" font-family="'ArialMT'" font-size="9.0744px">TM</text>
	<g>
		<path fill="#8A8A8D" d="M195.6,41.3c-4.1-4.2-8.9-6.5-14.4-6.8H125c-0.1,0-0.1,0-0.2,0c-3,0.2-5.5,2.7-5.5,5.8
			c0,3,2.2,5.4,5.1,5.8c0.1,0,0.1,0.1,0.2,0.1h56.9c1.6,0.3,3.1,0.9,4.5,2c1.3,1.3,2,2.7,2.1,4.2v3.3c-0.1,1.3-0.5,2.4-1.2,3.3
			c-1.4,1.7-3.2,2.6-5.2,2.9h-55.8c-0.1,0-0.2,0-0.3,0c-0.1,0-0.2,0-0.3,0H125c-0.1,0-0.3,0.1-0.4,0.1h-0.1
			c-0.3,0.1-0.6,0.1-0.8,0.3c-2.1,0.8-3.6,2.7-3.7,5v0.1v24.5c0,1.2,0.4,2.4,1.1,3.3v0.1c0.1,0.1,0.2,0.1,0.3,0.2
			c1.1,1.3,2.6,2.1,4.4,2.1c0.8,0,1.6-0.2,2.4-0.5h0.1c0.1,0,0.1-0.1,0.1-0.1c1.9-1,3.2-2.9,3.2-5.2c0-0.1,0-0.2,0-0.2V73.7h50.2
			c4.4,0,8.3-1.7,11.7-4.4c4.5-3.6,6.6-8.4,6.9-13.8v-3.1C199.7,48.4,198.2,44.6,195.6,41.3"/>
		<path fill="#8A8A8D" d="M292.8,85.9C292.8,85.9,292.8,86,292.8,85.9c-0.1,0-0.1,0-0.1,0h-63.4V40.6c0-0.1,0-0.2,0-0.4
			c0-3.2-2.6-5.8-5.8-5.8s-5.8,2.6-5.8,5.8c0,0.1,0,0.1,0,0.2l0,0v51.4l0,0l0,0c0,3.2,2.6,5.8,5.8,5.8c0.1,0,0.2,0,0.3,0h68.8l0,0
			h0.1c3.2,0,5.9-2.6,5.9-5.9C298.7,88.6,296.1,85.9,292.8,85.9"/>
		<path fill="#EA7200" d="M97.1,86.6L69.4,64.8l24.4-19.5c0.2-0.2,0.4-0.3,0.7-0.5l0.1-0.1l0,0c1.2-1.1,1.9-2.6,1.9-4.3
			c0-3.2-2.6-5.9-5.9-5.9c-1.2,0-2.4,0.4-3.3,1.1l0,0L60,57.2L33.6,36.3c-1.1-1.2-2.6-1.9-4.4-1.9c-3.3,0-6,2.7-6,6
			c0,2.2,1.1,4,2.9,5.1l24.5,19.1L21.9,87.4l-0.1,0.1c-1.2,1.1-2,2.6-2,4.4c0,3.3,2.7,5.9,5.9,5.9c1.5,0,2.8-0.6,3.8-1.5
			c0,0,0,0.1-0.1,0.1L60,72.2l30.7,24.2c1,0.7,2.2,1.2,3.5,1.2c3.3,0,5.9-2.7,5.9-5.9C100.1,89.5,98.9,87.6,97.1,86.6"/>
		<path fill="#8A8A8D" d="M495.6,72.8c-1.3-3.1-3.1-5.4-5.2-6.9c2.2-2.7,3.3-6.3,3.5-10.8c0,0,0-1.6-0.1-2.1c-0.1-1-0.2-2.3-0.2-2.3
			c-0.7-3.4-2.1-6.5-4.2-9.3c-4.1-4.3-8.9-6.6-14.7-6.9h-52.1c-3.2,0-5.9,2.6-5.9,5.9c0,3.1,2.4,5.6,5.4,5.8c0,0,0.1,0,0.1,0.1h53
			c1.7,0.1,3.4,0.9,4.5,2c1.3,1.4,2.1,3,2.2,4.8v2.2c0,1.5-0.6,2.7-1.4,3.9c-1.4,1.7-3.4,2.9-5.1,2.9h-53.1c-0.1,0-0.2,0-0.3,0.1
			c-2.8,0.3-5,2.5-5.2,5.3c0,0,0,0.1-0.1,0.1v23.8c0,0.2-0.1,0.5-0.1,0.7c0,3.2,2.6,5.9,5.9,5.9c3.2,0,5.9-2.6,5.9-5.9
			c0-0.2,0-0.5-0.1-0.7V74h48.5h2.4c1.4,0.1,2.6,0.6,3.7,1.5c1.3,1.3,2,2.7,2.2,4.3v11.9c0,0.1,0,0.2,0,0.4c0,3.3,2.7,5.9,5.9,5.9
			c1.5,0,2.8-0.5,3.8-1.4c0.1-0.1,0.2-0.2,0.3-0.3l0.1-0.1c0.5-0.5,0.9-1,1.2-1.7c0-0.1,0.1-0.2,0.1-0.3c0.1-0.2,0.1-0.4,0.2-0.6
			c0-0.2,0.1-0.4,0.1-0.6s0.1-0.3,0.1-0.5V80.4C497.1,77.4,496.6,75,495.6,72.8"/>
		<path fill="#8A8A8D" d="M592.5,86c-0.1,0-0.2,0-0.3,0s-0.1,0-0.1,0h-63V70.4h56.4c0.1,0,0.2-0.1,0.3-0.1c3.1-0.1,5.6-2.7,5.6-5.9
			c0-3.3-2.6-5.9-5.9-5.9h-61.9h-0.1h-0.1c-3.3,0-5.9,2.7-5.9,5.9c0,0.2,0,0.4,0.1,0.6v26.2c0,0.2-0.1,0.4-0.1,0.6
			c0,3.3,2.6,5.9,5.9,5.9h68.5c0.1,0,0.1,0,0.2,0c0.2,0,0.3,0,0.5,0c3.2,0,5.9-2.6,5.9-5.9C598.4,88.6,595.8,86,592.5,86"/>
		<path fill="#8A8A8D" d="M519.1,44.7L519.1,44.7c0.9,0.8,1.9,1.3,3.1,1.5l0.2,0.1h0.6h0.1h0.1H592h0.1c3.2,0,5.9-2.6,5.9-5.9
			c0-3.2-2.6-5.9-5.9-5.9h-69.2h-0.1c-3.1,0.2-5.6,2.7-5.6,5.9C517.2,42.1,517.9,43.6,519.1,44.7L519.1,44.7"/>
	</g>
</g>
</svg>
