<?xml version="1.0" encoding="utf-8"?>
<!-- Generator: Adobe Illustrator 23.0.3, SVG Export Plug-In . SVG Version: 6.00 Build 0)  -->
<svg version="1.1"
	 id="svg2" xmlns:cc="http://creativecommons.org/ns#" xmlns:dc="http://purl.org/dc/elements/1.1/" xmlns:inkscape="http://www.inkscape.org/namespaces/inkscape" xmlns:rdf="http://www.w3.org/1999/02/22-rdf-syntax-ns#" xmlns:sodipodi="http://sodipodi.sourceforge.net/DTD/sodipodi-0.dtd" xmlns:svg="http://www.w3.org/2000/svg"
	 xmlns="http://www.w3.org/2000/svg" xmlns:xlink="http://www.w3.org/1999/xlink" x="0px" y="0px" width="320px" height="154.6px"
	 viewBox="0 0 320 154.6" enable-background="new 0 0 320 154.6" xml:space="preserve">
<sodipodi:namedview  bordercolor="#666666" borderopacity="1.0" fit-margin-bottom="0" fit-margin-left="0" fit-margin-right="0" fit-margin-top="0" id="base" inkscape:current-layer="layer1" inkscape:cx="924.96213" inkscape:cy="1013.2286" inkscape:document-units="px" inkscape:pageopacity="0.0" inkscape:pageshadow="2" inkscape:window-height="837" inkscape:window-maximized="1" inkscape:window-width="1600" inkscape:window-x="-8" inkscape:window-y="-8" inkscape:zoom="0.175" pagecolor="#ffffff" showgrid="false">
	</sodipodi:namedview>
<g id="layer1" transform="translate(1198.5336,-1795.3029)" inkscape:groupmode="layer" inkscape:label="Ebene 1">
	<path id="path3722" inkscape:connector-curvature="0" fill="#00BFFE" d="M-1189.3,1949.8c-3.3-0.4-6.4-2.6-8-5.5
		c-1.5-2.9-1.6-6.3-0.4-9.2c0.2-0.5,10.9-17.4,23.8-37.6c12.9-20.2,28.1-44.2,33.9-53.3c5.8-9.1,10.7-17,10.9-17.5
		c0.8-2,0.6-4.5-0.5-6.4c-0.6-1-2-2.4-3-2.9c-1.7-0.9-0.7-0.9-26.9-0.9c-27.2,0-25.5,0.1-28.1-1.2c-4.5-2.2-6.8-7.6-5.4-12.4
		c0.8-2.7,3-5.4,5.4-6.5c2.5-1.2-1.3-1.1,46.6-1.1l43.1,0l1.1,0.4c3.2,1.1,5.9,3.8,6.9,7c0.3,0.9,0.4,1.6,0.4,3.2
		c0,2.2-0.3,3.6-1.2,5.1c-0.2,0.4-15.6,24.6-34.2,53.8c-18.6,29.2-33.9,53.3-34.1,53.7c-0.4,1-0.6,3-0.3,4.2
		c0.5,2.2,2.1,4.1,4.2,5.1l1.3,0.6l27.7,0.1c30.9,0.1,28.3,0,30.9,1.3c1.7,0.8,3.5,2.7,4.4,4.3c2.6,5,1.1,10.8-3.5,13.9
		c-1.4,0.9-2.8,1.5-4.6,1.7C-1100.4,1950-1187.8,1950-1189.3,1949.8L-1189.3,1949.8z M-960.8,1949.7c-1.4-0.2-3.3-1.1-4.4-2
		c-1.1-0.9-2.4-2.4-3-3.7c-1.2-2.4-1.1,4.1-1-71.8l0-68.6l0.5-1.3c0.6-1.6,1.7-3.3,3-4.4c1.1-1,3.6-2.2,4.9-2.5
		c0.7-0.1,12.3-0.2,37.1-0.2c35.4,0,36.1,0,37.4,0.3c2,0.5,3.2,1.2,4.8,2.8c1.1,1.1,1.6,1.7,2,2.7c1.2,2.5,1.4,5.5,0.5,8.1
		c-0.6,1.7-1.1,2.6-2.3,3.9c-1.3,1.4-2.7,2.3-4.4,2.9l-1.3,0.5l-24.8,0.1c-23.5,0.1-24.9,0.1-25.7,0.4c-3.7,1.2-6.6,4.3-7.4,7.8
		c-0.4,1.6-0.4,27.3,0,28.9c0.9,3.8,4,6.9,7.9,7.9c1.2,0.3,1.9,0.3,21.3,0.3c22.3,0,21.2-0.1,23.8,1.2c2.5,1.3,4.6,3.7,5.5,6.6
		c0.5,1.6,0.4,4.5-0.2,6.2c-1,3.1-3.7,5.8-6.8,6.8l-1.1,0.4l-20.9,0.1l-20.9,0.1l-1.4,0.5c-2.8,1-5,2.9-6.2,5.3
		c-1.2,2.5-1.2,1.8-1.2,16.8c0,12.8,0,13.5,0.3,14.7c1,3.8,3.8,6.6,7.8,7.8c0.9,0.3,2.8,0.3,24.4,0.2c16.7,0,23.8,0,24.9,0.1
		c4.7,0.6,8.3,3.9,9.2,8.4c0.3,1.6,0.3,2.7,0,4.3c-0.8,3.8-3.4,6.8-7.2,8l-1.4,0.5l-36.1,0C-952.9,1949.9-959.8,1949.9-960.8,1949.7
		L-960.8,1949.7z M-1031.5,1949.7c-0.9-0.2-2.6-0.8-3.7-1.4c-1.4-0.8-3.8-3.1-4.6-4.6c-0.3-0.6-0.8-1.6-1-2.3l-0.4-1.2l-0.1-57.4
		c-0.1-52.3-0.1-57.5-0.4-58.3c-1.2-3.8-3.5-6.3-7.1-7.5l-1.3-0.5l-11.4-0.1c-10.4-0.1-11.4-0.1-12.3-0.4c-3.8-1.2-6.5-4.2-7.4-7.9
		c-0.3-1.2-0.2-3.8,0.1-5c0.9-3.3,3.4-6.1,6.8-7.4l1.3-0.5l42.9,0c30.3,0,43.2,0,44,0.1c1.5,0.2,3.9,1.4,5.1,2.5
		c1.3,1.1,2.5,3,3,4.5c0.4,1.1,0.4,1.6,0.4,3.5c0,1.9-0.1,2.4-0.4,3.3c-1.1,3.1-3.7,5.7-6.9,6.7c-1.1,0.4-1.3,0.4-12.5,0.5
		c-12.7,0.1-12,0-14.4,1.3c-2.4,1.3-4.3,3.6-5.3,6.5c-0.2,0.6-0.2,10.6-0.3,58.1c-0.1,54.5-0.1,57.5-0.4,58.4
		c-1.3,4.4-4.5,7.6-8.6,8.6C-1027.5,1949.8-1030.3,1949.9-1031.5,1949.7L-1031.5,1949.7z"/>
</g>
</svg>
