<svg id="logo-pioneer" xmlns="http://www.w3.org/2000/svg" width="137.505" height="19.985" viewBox="0 0 137.505 19.985">
  <path id="Path_716" data-name="Path 716" d="M22.992,7.276c-.507,1.431-3.7,2.926-11.552,1.151l1.021,4.635c7.849,1.427,12.5.253,15.159-2.536,1.968-2.068,2.354-4.742.737-6.789C26.646,1.571,22.857,0,18.072,0,11.227,0,6.35,1.983,3.642,9.424L0,19.429H6.37L9.994,9.311C11.48,5.149,14.6,4.46,18.072,4.46,21.708,4.46,23.463,5.957,22.992,7.276Z" fill="#a90533"/>
  <path id="Path_717" data-name="Path 717" d="M229.366,25.707l-.247-.106a12.257,12.257,0,0,1,4.51-.876,10.368,10.368,0,0,1,3.882.658c.213.12.408.307.3.541C237.428,26.795,231.746,26.746,229.366,25.707ZM241,23.367a16.153,16.153,0,0,0-6.416-1.546c-5.036-.208-10.777,1.511-11.921,5.571-.66,2.335,1.6,5.49,7.5,6.385A26.728,26.728,0,0,0,241.167,33l1.259-3.466c-6.838,2.35-15.775,1.668-15.476-1.852,3.309,2.122,8.136,1.921,11.71,1.335C244.852,28.007,244.761,25.376,241,23.367Z" transform="translate(-143.3 -14.04)" fill="#a90533"/>
  <path id="Path_718" data-name="Path 718" d="M291.355,25.707l-.244-.106a12.247,12.247,0,0,1,4.507-.876,10.364,10.364,0,0,1,3.883.658c.212.12.407.307.3.541C299.418,26.795,293.738,26.746,291.355,25.707Zm11.637-2.34a16.144,16.144,0,0,0-6.416-1.546c-5.034-.208-10.775,1.511-11.921,5.571-.658,2.335,1.606,5.49,7.5,6.385A26.734,26.734,0,0,0,303.158,33l1.26-3.466c-6.838,2.35-15.774,1.668-15.476-1.852,3.309,2.122,8.136,1.921,11.708,1.335C306.84,28.007,306.753,25.376,302.992,23.367Z" transform="translate(-183.214 -14.04)" fill="#a90533"/>
  <path id="Path_719" data-name="Path 719" d="M344.833,27.2l-2.526,7.125h5.832l1.944-5.482c.478-1.391.883-2.431,2.584-2.431h4.1l1.148-3.283h-7.548A5.518,5.518,0,0,0,344.833,27.2Z" transform="translate(-220.407 -14.892)" fill="#a90533"/>
  <path id="Path_720" data-name="Path 720" d="M75.078,34.324h6.038l4.081-11.2H79.158Z" transform="translate(-48.342 -14.892)" fill="#a90533"/>
  <path id="Path_721" data-name="Path 721" d="M170.584,27.383a3.881,3.881,0,0,1,3.745-2.253c1.473,0,2.884.868,2.338,2.368l-2.156,5.91h5.831l2.188-6c1.135-3.118-1.324-5.7-6.83-5.7-6.13,0-9.6,2-10.944,5.672l-2.2,6.031h5.829Z" transform="translate(-104.671 -13.975)" fill="#a90533"/>
  <path id="Path_722" data-name="Path 722" d="M113.837,25.317c2.357.1,4.256,1.285,3.917,2.825-.325,1.485-2.621,2.5-5,2.394-2.356-.1-4.253-1.289-3.917-2.828C109.158,26.226,111.454,25.213,113.837,25.317Zm.822-3.48c-6.073-.258-11.485,2.339-12.213,5.658-.717,3.267,3.385,6.263,9.482,6.521,6.072.258,11.485-2.337,12.214-5.658C124.857,25.091,120.755,22.092,114.658,21.836Z" transform="translate(-65.911 -14.049)" fill="#a90533"/>
</svg>
