<?xml version="1.0" encoding="UTF-8" standalone="no"?>
<!-- Created with Inkscape (http://www.inkscape.org/) -->
<svg xmlns:svg="http://www.w3.org/2000/svg" xmlns="http://www.w3.org/2000/svg" version="1.0" width="1133.8583" height="208.70078" id="svg2">
  <defs id="defs4"/>
  <g transform="translate(-260.26503,119.23425)" id="layer1">
    <g transform="matrix(3.2753557,0,0,3.2753557,-556.76244,-7.2270291)" id="g89293" style="fill:#054baa;fill-opacity:1">
      <path d="M 260.26503,-22.8187 L 300.37628,-22.8187 L 300.37628,17.82005 L 260.26503,17.82005 L 260.26503,-22.8187 z M 264.78378,13.4613 L 295.62003,13.4613 L 295.62003,-17.8487 L 264.78378,-17.8487 L 264.78378,13.4613 z M 272.47253,-12.5387 L 269.54003,-2.7887 L 272.47253,6.6438 L 275.08878,-1.2037 L 277.22878,-1.2037 L 280.16253,10.0513 L 283.65003,-1.2037 L 285.79128,-1.2037 L 288.32753,6.6438 L 291.10128,-2.7887 L 288.32753,-12.5387 L 285.79128,-4.4537 L 283.65003,-4.4537 L 280.16253,-15.62995 L 277.22878,-4.4537 L 275.08878,-4.4537 L 272.47253,-12.5387 z" id="path88387" style="fill:#054baa;fill-opacity:1;stroke:none"/>
      <path d="M 349.20878,-20.86245 C 349.20878,-20.86245 347.54253,-20.54495 343.42128,-21.4162 L 343.42128,-21.4162 C 339.30003,-22.2887 335.49378,-22.44745 335.49378,-22.44745 L 335.49378,-22.44745 C 335.49378,-22.44745 324.87128,-23.5562 317.34003,-19.8312 L 317.34003,-19.8312 C 309.81003,-16.1037 309.81003,-9.60495 309.81003,-9.60495 L 309.81003,-9.60495 C 309.81003,-9.60495 309.01628,-4.9287 314.24878,-1.2037 L 314.24878,-1.2037 C 319.48003,2.5213 329.54753,2.7588 329.54753,2.7588 L 329.54753,2.7588 C 329.54753,2.7588 336.60253,2.99755 341.51753,3.79005 L 341.51753,3.79005 C 346.43253,4.58255 347.14628,6.6438 347.14628,6.6438 L 347.14628,6.6438 C 348.73253,11.6388 337.71378,13.14505 337.71378,13.14505 L 337.71378,13.14505 C 327.25003,13.6988 321.78003,10.84505 321.78003,10.84505 L 321.78003,10.84505 C 312.58378,7.35755 310.20628,-0.01495 310.20628,-0.01495 L 310.20628,-0.01495 L 310.36503,18.21755 C 310.36503,18.21755 311.87128,15.83755 314.88253,15.76005 L 314.88253,15.76005 C 317.89503,15.68005 322.01753,16.79005 322.01753,16.79005 L 322.01753,16.79005 C 322.01753,16.79005 326.61628,18.29755 334.54128,18.53505 L 334.54128,18.53505 C 342.47003,18.7713 349.52503,16.23505 349.52503,16.23505 L 349.52503,16.23505 C 349.52503,16.23505 355.39003,14.2538 357.76878,9.4188 L 357.76878,9.4188 C 360.14753,4.58255 357.76878,0.30255 357.76878,0.30255 L 357.76878,0.30255 C 357.76878,0.30255 356.97628,-1.8387 352.22003,-4.6112 L 352.22003,-4.6112 C 347.46503,-7.38495 335.01753,-7.8612 335.01753,-7.8612 L 335.01753,-7.8612 L 328.83503,-8.1787 C 328.83503,-8.1787 322.96878,-8.57495 321.06628,-10.3187 L 321.06628,-10.3187 C 319.16378,-12.06245 321.30378,-14.5187 321.30378,-14.5187 L 321.30378,-14.5187 C 321.30378,-14.5187 323.84128,-18.4837 336.12753,-17.45245 L 336.12753,-17.45245 C 348.41503,-16.4212 354.83628,-7.7812 354.83628,-7.7812 L 354.83628,-7.7812 L 354.83628,-23.39745 C 351.82378,-20.9412 349.20878,-20.86245 349.20878,-20.86245" id="path88411" style="fill:#054baa;fill-opacity:1;stroke:none"/>
      <path d="M 382.50128,-22.2087 C 372.75128,-20.7037 367.67753,-16.9762 367.67753,-16.9762 L 367.67753,-16.9762 C 367.67753,-16.9762 359.91003,-12.3012 359.51378,-2.70995 L 359.51378,-2.70995 C 359.11753,6.8813 365.37878,11.6388 365.37878,11.6388 L 365.37878,11.6388 C 365.37878,11.6388 370.45253,17.3438 386.30628,18.6138 L 386.30628,18.6138 C 402.16128,19.88255 411.51503,9.57755 411.51503,9.57755 L 411.51503,9.57755 L 411.51503,6.17005 C 400.97253,11.71755 395.58253,12.3513 395.58253,12.3513 L 395.58253,12.3513 C 383.21503,14.65005 377.98253,9.26005 377.98253,9.26005 L 377.98253,9.26005 C 377.98253,9.26005 375.20878,7.2788 373.54503,3.0763 L 373.54503,3.0763 C 371.88003,-1.1237 373.54503,-6.82995 373.54503,-6.82995 L 373.54503,-6.82995 C 373.54503,-6.82995 376.63628,-16.73995 389.31878,-17.3737 L 389.31878,-17.3737 C 402.00253,-18.0062 411.83253,-7.8612 411.83253,-7.8612 L 411.83253,-7.8612 L 411.75253,-21.9712 C 409.61253,-18.8012 406.20378,-19.5137 405.25253,-19.8312 L 405.25253,-19.8312 C 404.30253,-20.14745 400.97253,-21.25745 400.97253,-21.25745 L 400.97253,-21.25745 C 400.97253,-21.25745 395.86378,-22.69745 389.09503,-22.69745 L 389.09503,-22.69745 C 387.02003,-22.69745 384.79003,-22.56245 382.50128,-22.2087" id="path88435" style="fill:#054baa;fill-opacity:1;stroke:none"/>
      <path d="M 444.45753,-22.5012 C 420.94878,-22.76745 415.39878,-10.74495 415.39878,-10.74495 L 415.39878,-10.74495 C 415.39878,-10.74495 408.79503,-0.3062 417.11878,9.34005 L 417.11878,9.34005 C 425.44253,18.98505 443.40253,18.58255 443.40253,18.58255 L 443.40253,18.58255 C 464.53753,19.63755 472.46128,8.1513 472.46128,8.1513 L 472.46128,8.1513 C 472.46128,8.1513 480.25253,-1.89245 472.32628,-12.59245 L 472.32628,-12.59245 C 465.42253,-21.9137 449.40503,-22.51495 445.38628,-22.5137 L 445.38628,-22.5137 C 444.79003,-22.5137 444.45753,-22.5012 444.45753,-22.5012 M 427.81503,4.9788 C 422.66253,-5.0637 430.45753,-12.7262 430.45753,-12.7262 L 430.45753,-12.7262 C 430.45753,-12.7262 435.20753,-17.48245 445.11753,-17.0862 L 445.11753,-17.0862 C 445.11753,-17.0862 461.75753,-17.6162 461.89253,-2.8187 L 461.89253,-2.8187 C 462.02628,11.98005 447.62753,13.1688 447.62753,13.1688 L 447.62753,13.1688 C 447.62753,13.1688 446.56378,13.30255 444.90628,13.30255 L 444.90628,13.30255 C 440.41503,13.30255 431.57878,12.3138 427.81503,4.9788" id="path88459" style="fill:#054baa;fill-opacity:1;stroke:none"/>
      <path d="M 477.48003,-21.4462 L 477.48003,-6.3837 C 491.21878,-20.38995 496.62878,-13.9162 496.62878,-13.9162 L 496.62878,-13.9162 L 496.62878,9.7388 L 488.84003,17.52755 L 518.29503,17.52755 L 510.10503,9.34005 L 510.10503,-13.5187 C 516.05003,-20.7862 528.85753,-7.3062 528.85753,-7.3062 L 528.85753,-7.3062 L 528.72878,-21.57495 L 477.48003,-21.4462 z" id="path88483" style="fill:#054baa;fill-opacity:1;stroke:none"/>
      <path d="M 533.43003,-21.4162 L 533.43003,-6.3562 C 547.16753,-20.3612 552.57878,-13.8862 552.57878,-13.8862 L 552.57878,-13.8862 L 552.57878,9.7713 L 544.79003,17.5588 L 574.24503,17.5588 L 566.05503,9.36755 L 566.05503,-13.4887 C 572.00003,-20.75745 584.80753,-7.2762 584.80753,-7.2762 L 584.80753,-7.2762 L 584.67878,-21.54495 L 533.43003,-21.4162 z" id="path88507" style="fill:#054baa;fill-opacity:1;stroke:none"/>
    </g>
  </g>
</svg>