<?xml version="1.0" encoding="utf-8"?>
<!-- Generator: Adobe Illustrator 23.0.3, SVG Export Plug-In . SVG Version: 6.00 Build 0)  -->
<svg version="1.1" id="Layer_1" xmlns="http://www.w3.org/2000/svg" xmlns:xlink="http://www.w3.org/1999/xlink" x="0px" y="0px"
	 width="728.7px" height="132.2px" viewBox="0 0 728.7 132.2" enable-background="new 0 0 728.7 132.2" xml:space="preserve">
<rect x="459.5" y="2.5" width="31.5" height="127.6"/>
<polygon points="415,60.9 372.2,60.9 372.2,2.5 340.7,2.5 340.7,130.1 372.2,130.1 372.2,73 415,73 415,130.1 446.5,130.1 
	446.5,2.5 415,2.5 "/>
<path d="M178.9,2.5l-54.2,127.6h16.8l9.2-21.8h43.9l9.8,21.8h31.9L178.9,2.5z M156.2,96.1l16-37.8L189,96.1H156.2z"/>
<polygon points="147.3,2.5 91.9,68.8 34.8,2.5 0,2.5 67.8,82.1 67,130.1 99.5,130.1 99.5,82.3 166.6,2.5 "/>
<path d="M671.2,2.5l-54.1,127.6h16.8l9.2-21.8H687l9.8,21.8h31.9L671.2,2.5z M648.5,96.1l16-37.8l16.8,37.8H648.5z"/>
<path d="M567.4,0.4c-32.3,0-65.9,18.5-65.9,68c0,36.1,32.5,62.8,65.3,62.8c22.5,0,41.6-11.9,49.7-24.8l0-20.8
	c-5.7,8.4-19.8,32.3-44.1,32.3c-25.6,0-42.4-27.7-42.4-49.5s8-56.2,42.8-56.2c24.1,0,39.6,25.3,43.7,34l0-21
	C609.4,16.5,598.6,0.4,567.4,0.4z"/>
<path d="M308.3,60.9c-9.7-5.5-34.3-12.4-42.4-18.9c-6.3-5-5-10.9-5-14.3s3.8-17.2,21.8-16.8c18,0.4,34.4,16.8,43.2,30.6V20.1
	C319.2,12.6,303.7,0,281.8,0s-43.2,12.2-43.2,36.5s13.4,29.4,23.5,34.4c4.1,2,28.5,8,35.7,16c7.1,8,5.9,11.3,5.9,15.5
	s-5.4,19.9-20.6,18.5c-17.2-1.7-31.5-11.3-44.5-33.2v21.8c3.8,5,18.5,22.7,47,22.7s42.8-18.7,44.1-36.1
	C330.9,78.9,317.9,66.3,308.3,60.9z"/>
</svg>
