<?xml version="1.0" encoding="UTF-8"?>
<!-- Generator: Adobe Illustrator 13.0.2, SVG Export Plug-In . SVG Version: 6.00 Build 14948)  -->
<!DOCTYPE svg PUBLIC "-//W3C//DTD SVG 1.0//EN" "http://www.w3.org/TR/2001/REC-SVG-20010904/DTD/svg10.dtd">
<svg version="1.0" id="Layer_1" xmlns="http://www.w3.org/2000/svg" xmlns:xlink="http://www.w3.org/1999/xlink" x="0px" y="0px" width="175.748px" height="93.688px" viewBox="0 0 175.748 93.688" enable-background="new 0 0 175.748 93.688" xml:space="preserve">
<g>
	<path d="M136.854,38.182c-4.883,0-8.547,3.43-8.547,8.72c0,5.235,3.547,8.836,8.547,8.836c5.059,0,8.256-3.485,8.256-8.777   C145.108,41.729,141.912,38.182,136.854,38.182L136.854,38.182L136.854,38.182L136.854,38.182L136.854,38.182L136.854,38.182z    M139.646,51.205c0,1.567-1.279,2.791-2.791,2.791s-2.731-1.224-2.731-2.791l0,0v-8.836l0,0c0-1.513,1.221-2.733,2.731-2.733   c1.512,0,2.791,1.222,2.791,2.733l0,0V51.205L139.646,51.205L139.646,51.205z"/>
	<path d="M118.831,38.472c-1.221,0-2.906,0.233-3.777,1.454l0,0v-1.569l0,0c-2.21,0.407-2.56,0.522-7.675,0.522l0,0v1.745l0,0   c1.687,0,2.731,0.116,2.731,1.976l0,0v16.395l0,0c-0.059,2.094,0.291,3.604-2.789,3.604l0,0v1.861h10.929V62.6h-0.349l0,0   c-2.094,0-2.85-1.104-2.85-2.326l0,0V54.17l0,0c0.988,1.338,2.325,1.629,3.547,1.629c4.709-0.062,7.268-3.199,7.268-8.838   C125.866,41.844,123.772,38.472,118.831,38.472L118.831,38.472L118.831,38.472L118.831,38.472L118.831,38.472L118.831,38.472z    M120.054,51.67c0,1.279-0.99,2.326-2.269,2.326c-1.279,0-2.326-1.047-2.326-2.326l0,0v-8.837l0,0c0-1.279,1.047-2.269,2.326-2.269   c1.278,0,2.269,0.989,2.269,2.269l0,0V51.67L120.054,51.67L120.054,51.67z"/>
	<path fill="#FDB727" d="M81.74,45.217c-0.93,0.93-1.802,1.86-2.674,2.732l0,0v-3.257l0,0c0.814-0.813,1.57-1.568,2.326-2.323   c0.175,0.23,0.349,0.348,0.349,1.046l0,0L81.74,45.217L81.74,45.217L81.74,45.217z"/>
	<path fill="#FDB727" d="M95.17,32.717c-1.802,1.512-3.487,3.023-5.175,4.593l0,0v-1.395l0,0c-0.521,0.407-2.325,0.813-3.022,0.871   c2.268-2.268,4.592-4.418,6.977-6.453l0,0v2.325L95.17,32.717L95.17,32.717L95.17,32.717z"/>
	<path fill="#FDB727" d="M101.563,27.31c10.931-8.836,22.791-16.685,34.94-22.034c8.256-3.372,13.022-4.767,16.396-1.046   c3.373,3.663-3.896,15.581-5.407,17.093c-1.86-0.582-2.558,0.349-2.558,0.349c0.696-0.232,1.918,0.291,1.104,2.151   c-0.348,0.696-1.743,1.686-2.325,0.058c-0.696,1.744-2.383,4.709-4.418,7.442c-6.86,9.359-16.396,18.371-30.289,30.754   c-22.731,20.231-34.475,24.766-42.382,28.08c-5.698,2.149-20.174,5.291-10.697-12.209c1.977-4.533,7.267-12.093,14.825-20.813l0,0   h-2.325V56.32l0,0c-5.582,6.513-11.046,13.662-14.65,20.757C50.87,82.25,45.231,98.586,66.16,92.25   c6.86-2.15,25.289-11.047,45.58-29.244c21.452-19.184,32.323-32.789,36.045-37.265c0.755-0.872,1.511-2.269,0.93-3.314   c3.663-5.465,8.722-16.859,5.058-20.348c-4.068-3.896-12.092-1.337-15.174-0.176c-4.824,1.92-23.313,10.814-41.102,25.406l0,0   H101.563L101.563,27.31L101.563,27.31z"/>
	<path d="M64.59,17.369c-0.175,0.756-0.64,1.86-3.43,3.547c-7.093,4.127-18.836,4.535-28.022,4.302   c-14.127-0.349-19.999-3.604-21.452-4.883c-0.814-0.756-0.698-1.454,0.232-2.152c2.616-1.977,11.86-2.674,17.964-2.674   s13.08,1.395,13.022,3.023c0,1.686-3.372,1.918-4.128,1.976c-0.523,0.059-1.104-0.174-1.104-0.465   c0.117-0.465,0.93-0.465,1.337-0.581c0.349-0.059,0.523-0.35,0.523-0.756c0-0.523-1.512-1.046-2.732-1.222   c-3.546-0.93-8.198-0.639-10.639-0.464c-4.36,0.291-7.384,1.627-7.384,2.674c0,0.988,2.558,3.953,15.29,4.36   c16.395,0.523,24.069-2.268,27.79-4.94c2.558-1.978,0.64-3.314-1.802-4.535c-6.686-3.141-19.36-3.431-25.697-3.488   c-7.15-0.116-19.069,0.755-24.127,1.686c-1.104,0.291-0.872,1.222,0.698,0.873c1.86-0.291,14.883-1.221,21.22-0.873   c6.337,0.291,14.069,0.117,21.22,3.663c1.22,0.756,1.627,2.094-0.233,3.14c-1.802,0.988-6.453,3.256-17.325,3.313   c-10,0.116-11.278-1.569-12.15-2.268c-0.349-0.29-0.407-1.163,0.93-1.861c1.162-0.522,2.208-0.639,2.964-0.639   c0.814,0,1.105,0.873,0.233,0.931c-0.872,0.232-1.802,0.35-1.802,0.988c0,0.523,0.582,0.582,1.221,0.813   c0.581,0.232,3.662,0.931,7.558,0.931c5.697,0,10.058-0.813,12.616-2.325c1.046-0.523,1.337-2.209-0.465-2.791   c-2.791-0.93-7.791-2.558-18.197-2.558c-7.15,0-20.463,1.104-24.3,2.15C3.082,16.671,0,17.543,0,19.171   c0,1.627,2.093,2.383,3.082,2.731c5.639,1.978,21.568,4.36,27.848,4.42c17.499,0.174,27.324-1.279,33.37-6.454   c0.465-0.582,1.279-1.453,1.395-2.325C65.811,16.381,64.823,16.323,64.59,17.369L64.59,17.369L64.59,17.369L64.59,17.369z"/>
	<path d="M47.789,29.229c4.36,0,5.523-0.116,7.325-0.581l0,0v12.209l0,0c1.57-2.616,3.605-2.616,5.931-2.616   c1.976,0,4.535,1.802,4.535,5.813l0,0v5.117l0,0c0,3.256,0.174,4.535,2.326,4.535l0,0h0.058v1.512h-9.127v-1.512l0,0   c1.627,0,1.744-1.861,1.744-3.373l0,0l0.058-1.162v-4.941l0,0c0-2.093-0.698-3.313-2.035-3.313c-2.733,0-3.489,2.209-3.489,5.116   l0,0v3.662l0,0c0.117,2.443,0,4.013,2.035,4.013l0,0v1.512h-9.534v-1.512l0,0l0,0c2.035,0,2.558-1.162,2.558-3.431l0,0V32.95l0,0   c0-1.687,0.058-2.094-1.163-1.86c-1.57,0.465-2.035,1.279-2.733,3.43l0,0l-6.802,21.513h-1.511L32.79,41.497L27.5,56.032h-1.512   l-9.476-22.966l0,0c-0.582-1.859-2.035-2.034-3.896-2.15l0,0v-1.688h11.977v1.688h-0.466l0,0c-1.279,0-1.22,0.407-1.22,1.221   c0,0.465,0.058,0.872,0.407,2.093l0,0l5.116,13.953l3.488-9.767l-1.453-3.605l0,0c-0.872-2.791-1.105-3.895-3.779-3.895l0,0v-1.688   h10.813v1.688l-0.581,0.058l0,0c-0.872,0.116-0.988,0.523-0.988,1.337c0,0.407,0.058,0.64,0.407,1.687l0,0l4.07,13.196   l4.535-14.358l0,0c0.291-1.396-1.105-1.918-1.861-1.978l0,0V29.23L47.789,29.229L47.789,29.229L47.789,29.229z"/>
	<path d="M77.554,33.415c0,1.512-1.279,2.791-2.849,2.791c-1.511,0-2.732-1.279-2.732-2.791c0-1.57,1.279-2.791,2.732-2.791   C76.275,30.624,77.554,31.845,77.554,33.415L77.554,33.415L77.554,33.415L77.554,33.415z"/>
	<path d="M69.939,55.217h9.592v-1.512v-0.117l0,0c-2.093,0-2.268-1.045-2.268-4.359l0,0V38.124l0,0   c-1.569,0.523-3.546,0.582-7.732,0.582l0,0v1.686h0.698l0,0c1.86,0,2.151,1.979,2.151,2.035l0,0v6.803l0,0   c0,3.256-0.291,4.359-2.441,4.359l0,0V55.217L69.939,55.217L69.939,55.217z"/>
	<path d="M88.774,39.81c1.569-1.918,4.187-1.337,4.418-1.337c1.687,0,2.559,1.803,2.559,3.024c0,1.686-1.104,2.964-2.615,2.964   c-1.453,0-2.559-0.93-2.559-2.384c0-0.465,0.059-0.755,0.232-0.988c0.174-0.174,0.174-0.231,0.174-0.291   c0-0.058,0.06-0.464-0.059-0.464c-0.232,0-0.64-0.233-1.162,0.464c-0.931,1.104-0.988,2.035-0.988,3.488l0,0v6.978l0,0   c0.115,0.756,0.291,1.627,1.048,2.092c0.405,0.232,0.464,0.351,1.336,0.351l0,0l0,0v1.512h-9.592v-1.629l0,0l0,0   c2.093,0,2.267-0.988,2.267-4.244l0,0V42.37l0,0c0-2.095-0.988-1.979-2.791-1.979l0,0v-1.627l0,0c4.07,0,5.755-0.058,7.73-0.465   l0,0v1.51H88.774L88.774,39.81z"/>
	<path d="M172.957,49.578c0,3.254,0.696,3.776,2.791,4.067l0,0l0,0V55.1h-10.581v-1.512l0,0l0,0c2.093-0.232,2.79-0.756,2.79-4.01   l0,0V33.24l0,0c0-1.629-0.988-2.384-2.209-2.441l0,0l-0.581,0.058v-1.686l0,0c4.127,0,5.697,0.058,7.79-0.466l0,0V49.578   L172.957,49.578L172.957,49.578z"/>
	<path d="M155.981,38.182c-4.885,0-8.547,3.43-8.547,8.72c0,5.235,3.488,8.836,8.487,8.836c5.058,0,8.313-3.485,8.313-8.777   C164.235,41.729,160.979,38.182,155.981,38.182L155.981,38.182L155.981,38.182L155.981,38.182L155.981,38.182L155.981,38.182z    M158.713,51.205c0,1.567-1.221,2.791-2.731,2.791c-1.512,0-2.791-1.224-2.791-2.791l0,0v-8.836l0,0   c0-1.513,1.279-2.733,2.791-2.733s2.731,1.222,2.731,2.733l0,0V51.205L158.713,51.205L158.713,51.205z"/>
	<path d="M103.774,49.578c0,3.254,0.697,3.776,2.789,4.067l0,0l0,0V55.1h-10.58v-1.512l0,0l0,0c2.093-0.232,2.85-0.756,2.85-4.01   l0,0V33.24l0,0c-0.059-1.629-1.047-2.384-2.268-2.441l0,0l-0.582,0.058v-1.686l0,0c4.187,0,5.697,0.058,7.791-0.466l0,0V49.578   L103.774,49.578L103.774,49.578z"/>
</g>
<g>
	<path d="M127.663,61.627v0.721c-0.496,0.262-1.067,0.394-1.716,0.394c-0.527,0-0.975-0.103-1.341-0.307   c-0.367-0.207-0.658-0.489-0.872-0.85s-0.32-0.75-0.32-1.169c0-0.667,0.244-1.227,0.734-1.682c0.49-0.454,1.094-0.681,1.813-0.681   c0.495,0,1.046,0.125,1.651,0.376v0.704c-0.552-0.305-1.092-0.457-1.618-0.457c-0.541,0-0.988,0.164-1.347,0.495   c-0.356,0.331-0.534,0.746-0.534,1.244c0,0.501,0.175,0.915,0.526,1.238s0.801,0.484,1.348,0.484   C126.56,62.139,127.117,61.969,127.663,61.627z"/>
	<path d="M130.81,58.047c0.729,0,1.336,0.224,1.82,0.672c0.485,0.447,0.729,1.009,0.729,1.685c0,0.674-0.246,1.232-0.735,1.675   s-1.106,0.663-1.851,0.663c-0.712,0-1.304-0.221-1.777-0.663s-0.711-0.996-0.711-1.662c0-0.685,0.239-1.25,0.716-1.697   C129.477,58.271,130.08,58.047,130.81,58.047z M130.836,58.669c-0.54,0-0.983,0.165-1.331,0.492   c-0.348,0.328-0.521,0.745-0.521,1.255c0,0.493,0.175,0.903,0.523,1.231c0.349,0.327,0.785,0.491,1.309,0.491   c0.527,0,0.966-0.167,1.318-0.502c0.353-0.333,0.528-0.749,0.528-1.247c0-0.485-0.176-0.894-0.528-1.224   C131.781,58.835,131.35,58.669,130.836,58.669z"/>
	<path d="M134.209,62.689v-4.576h1.183c0.477,0,0.856,0.114,1.136,0.344c0.281,0.23,0.421,0.539,0.421,0.932   c0,0.266-0.068,0.496-0.205,0.69c-0.139,0.194-0.335,0.339-0.592,0.436c0.15,0.097,0.299,0.228,0.442,0.393   c0.144,0.166,0.347,0.456,0.608,0.868c0.164,0.26,0.296,0.457,0.395,0.587l0.25,0.327h-0.804l-0.205-0.301   c-0.008-0.011-0.021-0.029-0.041-0.056l-0.132-0.18l-0.209-0.335l-0.226-0.357c-0.14-0.188-0.268-0.337-0.384-0.448   c-0.115-0.111-0.221-0.191-0.314-0.241c-0.094-0.049-0.251-0.073-0.473-0.073h-0.175v1.991H134.209z M135.088,58.669h-0.203v1.444   h0.257c0.342,0,0.577-0.027,0.703-0.084c0.128-0.057,0.228-0.143,0.298-0.258c0.071-0.114,0.106-0.245,0.106-0.392   c0-0.145-0.039-0.273-0.118-0.392c-0.078-0.117-0.189-0.199-0.333-0.247C135.655,58.694,135.419,58.669,135.088,58.669z"/>
	<path d="M138.33,62.689v-4.583h1.496c0.45,0,0.81,0.119,1.078,0.354c0.267,0.235,0.401,0.553,0.401,0.95   c0,0.266-0.069,0.502-0.206,0.707c-0.138,0.206-0.326,0.354-0.563,0.447c-0.239,0.093-0.582,0.139-1.028,0.139h-0.499v1.985H138.33   z M139.708,58.69h-0.699v1.432h0.739c0.275,0,0.486-0.063,0.636-0.188c0.148-0.126,0.223-0.306,0.223-0.54   C140.606,58.924,140.307,58.69,139.708,58.69z"/>
	<path d="M144.209,58.047c0.729,0,1.336,0.224,1.821,0.672c0.484,0.447,0.728,1.009,0.728,1.685c0,0.674-0.245,1.232-0.735,1.675   c-0.489,0.442-1.106,0.663-1.851,0.663c-0.712,0-1.304-0.221-1.777-0.663s-0.711-0.996-0.711-1.662c0-0.685,0.239-1.25,0.716-1.697   C142.876,58.271,143.479,58.047,144.209,58.047z M144.235,58.669c-0.54,0-0.983,0.165-1.331,0.492   c-0.348,0.328-0.521,0.745-0.521,1.255c0,0.493,0.175,0.903,0.523,1.231c0.349,0.327,0.785,0.491,1.309,0.491   c0.527,0,0.966-0.167,1.318-0.502c0.353-0.333,0.528-0.749,0.528-1.247c0-0.485-0.176-0.894-0.528-1.224   C145.181,58.835,144.749,58.669,144.235,58.669z"/>
	<path d="M147.609,62.689v-4.576h1.182c0.477,0,0.856,0.114,1.136,0.344c0.281,0.23,0.421,0.539,0.421,0.932   c0,0.266-0.068,0.496-0.205,0.69c-0.139,0.194-0.335,0.339-0.592,0.436c0.15,0.097,0.299,0.228,0.442,0.393   c0.144,0.166,0.347,0.456,0.608,0.868c0.164,0.26,0.296,0.457,0.395,0.587l0.25,0.327h-0.804l-0.205-0.301   c-0.008-0.011-0.021-0.029-0.041-0.056l-0.132-0.18l-0.209-0.335l-0.226-0.357c-0.14-0.188-0.268-0.337-0.384-0.448   c-0.115-0.111-0.221-0.191-0.314-0.241c-0.093-0.049-0.251-0.073-0.472-0.073h-0.176v1.991H147.609z M148.487,58.669h-0.203v1.444   h0.257c0.342,0,0.577-0.027,0.704-0.084s0.227-0.143,0.297-0.258c0.071-0.114,0.106-0.245,0.106-0.392   c0-0.145-0.039-0.273-0.118-0.392c-0.078-0.117-0.189-0.199-0.332-0.247C149.055,58.694,148.818,58.669,148.487,58.669z"/>
	<path d="M153.274,58.086h0.474l2.117,4.603h-0.692l-0.629-1.356h-2.014l-0.59,1.356h-0.693L153.274,58.086z M154.267,60.75   l-0.762-1.657l-0.706,1.657H154.267z"/>
	<path d="M155.287,58.106h3.941v0.584h-1.646v3.999h-0.679V58.69h-1.617V58.106z"/>
	<path d="M159.873,58.113h0.676v4.576h-0.676V58.113z"/>
	<path d="M163.912,58.047c0.729,0,1.335,0.224,1.82,0.672c0.485,0.447,0.728,1.009,0.728,1.685c0,0.674-0.245,1.232-0.734,1.675   s-1.106,0.663-1.851,0.663c-0.712,0-1.304-0.221-1.777-0.663s-0.711-0.996-0.711-1.662c0-0.685,0.238-1.25,0.716-1.697   C162.579,58.271,163.183,58.047,163.912,58.047z M163.938,58.669c-0.54,0-0.983,0.165-1.331,0.492   c-0.349,0.328-0.521,0.745-0.521,1.255c0,0.493,0.174,0.903,0.522,1.231c0.35,0.327,0.785,0.491,1.31,0.491   c0.526,0,0.966-0.167,1.318-0.502c0.352-0.333,0.528-0.749,0.528-1.247c0-0.485-0.177-0.894-0.528-1.224   C164.884,58.835,164.452,58.669,163.938,58.669z"/>
	<path d="M171.04,58.113h0.643v4.576h-0.582l-3.154-3.524v3.524h-0.635v-4.576h0.547l3.182,3.556V58.113z"/>
</g>
</svg>