<?xml version="1.0" encoding="UTF-8"?>
<!-- Generator: Adobe Illustrator 16.0.1, SVG Export Plug-In . SVG Version: 6.00 Build 0)  -->
<!DOCTYPE svg PUBLIC "-//W3C//DTD SVG 1.1//EN" "http://www.w3.org/Graphics/SVG/1.1/DTD/svg11.dtd">
<svg version="1.1" id="レイヤー_1" xmlns="http://www.w3.org/2000/svg" xmlns:xlink="http://www.w3.org/1999/xlink" x="0px" y="0px" width="450px" height="120px" viewBox="0 0 450 120" enable-background="new 0 0 450 120" xml:space="preserve">
<g>
	<path d="M191.995,22.717l-0.003,71.215c0.014,0.012,0.021,3.108,3.123,3.108h8.514c3.104,0,3.097-3.097,3.097-3.097l0.007-71.229   c0-0.004,0-3.105-3.104-3.105h-8.514C192.005,19.612,192.005,22.71,191.995,22.717z"/>
	<path d="M226.544,80.726c0.057,1.711,1.092,3.644,2.73,4.721c7.812,5.135,28.24,3.12,28.299-11.791   c0.004-1.128-1.158-1.713-1.963-1.819c-1.592-0.208-18.885-0.579-25.896,3.116C227.361,76.187,226.467,78.204,226.544,80.726   c0,0-13.93,0.046-13.93,0c-0.059-7.937,5.972-15.571,13.881-16.822c5.457-0.866,8.865-1.61,28.895-2.633   c1.322-0.062,3.668-2.627,1.941-5.089c-2.697-3.833-4.887-5.694-13.207-5.694c-7.514,0-11.523,1.547-14.012,5.691   c-0.473,0.799-2.106,2.174-3.745,2.174l-9.525-0.028c-1.127,0-2.427-1.322-1.974-2.408c4.456-10.754,13.583-16.053,27.559-16.064   c12.492-0.004,28.797,4.625,28.797,22.052l-0.01,32.04c0.01,0,0,3.097-3.096,3.097c0,0-3.938,0.004-5.074,0   c-2.49,0-3.625-0.6-4.424-3.108c-0.318-0.993-1.453-1.694-2.439-0.839c-8.137,7.08-25.973,8.734-35.584,1.928   c-5.542-3.929-7.982-9.089-7.982-14.295C212.615,80.726,226.544,80.712,226.544,80.726z"/>
	<path d="M339.238,93.937V62.533c0-14.047-12.393-22.662-21.455-22.662c-8.996,0-16.639,2.346-22.539,7.087   c-0.518,0.426-1.988,0.887-1.988-0.408l-0.02-3.219c0,0-0.008-3.102-3.107-3.1l-7.338-0.002c0,0-3.104,0-3.102,3.088l-0.008,50.626   c0.006,3.097,3.107,3.104,3.107,3.104l7.348-0.007c3.092,0,3.092-3.097,3.078-3.108l0.014-24.737   c0-6.838,4.621-18.516,19.84-18.516c10.881,0,12.611,7.476,12.611,11.854l0.014,31.41c0.006,3.101,3.109,3.094,3.109,3.094   l7.35,0.003C336.152,97.04,339.25,97.04,339.238,93.937z"/>
	<path d="M214.853,55.893c-0.018,0.105-0.029,0.213-0.029,0.321"/>
	<path d="M152.042,99.038c24.747,0,35.121-16.011,35.107-29.575c-0.019-12.993-10.425-29.6-35.321-29.604   c-24.87-0.007-35.262,16.564-35.262,29.615C116.566,83.297,127.065,99.038,152.042,99.038c0,0.042,0-10.596,0-10.596   c-14.479,0-21.105-10.695-21.105-18.894c0-8.192,6.938-19.016,20.898-19.016c13.959,0,20.938,10.759,20.938,18.946   c0,8.285-6.829,18.963-20.731,18.963V99.038z"/>
	<path d="M359.306,69.342c0,10.951,8.088,19.255,18.688,19.251c10.609-0.004,19.193-7.47,19.162-19.099   c-0.027-11.261-8.574-18.518-19.174-18.518C368.085,50.977,359.298,58.527,359.306,69.342l-13.938-0.019   c-0.053-22.616,30.334-37.896,50.33-22.628c0.908,0.695,1.773,0.143,1.795-1.485l-0.014-22.489   c0.023-3.112,3.127-3.106,3.127-3.106h7.35c0,0,3.088-0.002,3.088,3.096v71.222c0,3.108-3.08,3.108-3.08,3.108h-7.357   c-3.092,0-3.107-3.097-3.104-3.332c0.012-1.628-0.91-2.198-1.805-1.488c-20.305,16.037-50.271,2.4-50.33-22.896L359.306,69.342z"/>
	<path d="M60.187,62.19l0.003-10.268c0.169-0.004-3.097-0.004-3.097-3.1c-0.011-3.797,0-15.876,0-15.876s0-3.096,3.097-3.096h27.488   c0,0,12.088,0.021,12.096,11.039c0.007,11.052-12.096,11.028-12.096,11.025L60.19,51.923c0,0.06,0,10.273,0,10.268l23.03-0.005   c4.072,0,7.552,0.916,9.127,3.101c6.704,9.306,4.49,18.815,7.705,28.625c0.568,1.724,2.172,3.116,5.115,3.116l8.987-0.021   c0.844,0.007,1.472-1.143,1.222-1.677c-3.707-7.849-4.001-16.025-6.444-25.395c-1.35-5.188-1.393-7.661-5.236-10.679   c-0.214-0.166,0.136-0.763,0.586-1.075c5.608-3.921,9.602-10.315,9.602-17.294c0-14.273-11.63-21.298-21.807-21.293l-45.056,0.006   c0,0-3.098,0-3.098,3.09l-0.011,71.221c0.015,3.133,3.129,3.107,3.129,3.107l6.955-0.005c0,0,3.097,0.005,3.097-3.103   c0-5.062-0.021-21.448-0.007-28.632C57.093,62.182,60.187,62.19,60.187,62.19z"/>
</g>
<g>
</g>
<g>
</g>
<g>
</g>
<g>
</g>
<g>
</g>
<g>
</g>
</svg>