<?xml version="1.0" encoding="utf-8"?>
<!-- Generator: Adobe Illustrator 23.0.3, SVG Export Plug-In . SVG Version: 6.00 Build 0)  -->
<svg version="1.1" id="svg2870" xmlns:svg="http://www.w3.org/2000/svg"
	 xmlns="http://www.w3.org/2000/svg" xmlns:xlink="http://www.w3.org/1999/xlink" x="0px" y="0px" width="200px" height="36.1px"
	 viewBox="0 0 200 36.1" enable-background="new 0 0 200 36.1" xml:space="preserve">
<g id="layer1" transform="translate(-219.13624,-147.37412)">
	<g id="g21287" transform="matrix(1.3413911,0,0,-1.3413911,-345.83023,1241.261)">
		<path id="path4448" fill="#D7063B" d="M480,802.1c0-5,3.7-8.7,9.9-8.7c2.6,0,5.1,0.4,7.6,1.6l2.3-3.2c-3.2-1.7-6.3-2.6-11-2.6
			c-9.8,0-17.1,4.7-17.1,12.8v0c0,8,7.2,12.8,17.1,12.8c4.7,0,7.4-0.7,10.7-2.1l-2.4-3.6c-2.5,1.3-4.7,1.6-7.3,1.6
			C483.7,810.8,480,807.1,480,802.1"/>
		<path id="path4450" fill="#D7063B" d="M517.5,814.9c-9.5,0-16.4-4.7-16.4-12.8c0-8,6.9-12.8,16.4-12.8c9.5,0,16.4,4.7,16.4,12.8
			C533.9,810.1,527.1,814.9,517.5,814.9 M517.5,793.3c-5.2,0-8.1,3.9-8.1,8.8s2.9,8.8,8.1,8.8c5.2,0,8.1-3.9,8.1-8.8
			S522.8,793.3,517.5,793.3"/>
		<path id="path4452" fill="#D7063B" d="M558.7,800.3V790h7.9v24.3h-7.9V805h-12v9.3h-7.9V790h7.9v10.3H558.7z"/>
		<path id="path4454" fill="#D7063B" d="M458.7,790h8.3v24.3h-8.3V790z"/>
		<path id="path4456" fill="#D7063B" d="M434.9,803.1l0-2.3c3.9-3,7.9-7,10.8-10.8h9.3c-3.2,3.8-8.2,8.3-11.8,10.6
			c4.3,0.2,9.1,1.9,9.1,6.8c0,6.3-6.7,7.5-13.5,7.5c-5.6,0-10.7-0.3-13.8-0.5V790h7.7v20.7c1.4,0.2,3,0.3,6.1,0.3c4,0,6-1.3,6-3.6
			C444.7,805.4,443.9,803,434.9,803.1"/>
	</g>
</g>
</svg>
