<svg id="logo-yamaha" xmlns="http://www.w3.org/2000/svg" width="123.964" height="27" viewBox="0 0 123.964 27">
  <g id="g8">
    <path id="path4" d="M13.5,0A13.5,13.5,0,1,0,27,13.5,13.5,13.5,0,0,0,13.5,0Zm0,25.466A11.966,11.966,0,1,1,25.466,13.5,11.963,11.963,0,0,1,13.5,25.466Z" fill="#48217a"/>
    <path id="path6" d="M43.006,30.67l-1.953-2.294a.491.491,0,0,0-.093-.077.317.317,0,0,0-.31-.015h0a1.066,1.066,0,0,1-1.488-.759h0a2.681,2.681,0,0,0-1.286-1.813l-.883-.511,4.991-2.883-.62-1.069-5.611,3.239-.635-.341V23.37l5.611-3.239-.62-1.069-4.991,2.867V20.921a2.645,2.645,0,0,0-.93-2.015h0a1.03,1.03,0,0,1,.077-1.643.331.331,0,0,0,.139-.279.264.264,0,0,0-.015-.108l-1.007-2.836a.215.215,0,0,0-.4,0L31.97,16.876a.264.264,0,0,0-.015.108.377.377,0,0,0,.139.279h0a1.03,1.03,0,0,1,.077,1.643,2.621,2.621,0,0,0-.93,2.015v1.007l-4.929-2.867-.62,1.069L31.3,23.37v.775l-.666.387-5.626-3.239-.62,1.069,4.991,2.883-.883.511a2.648,2.648,0,0,0-1.286,1.813h0a1.072,1.072,0,0,1-.5.713,1.087,1.087,0,0,1-.976.047h0a.317.317,0,0,0-.31.015.411.411,0,0,0-.093.077l-1.953,2.294a.207.207,0,0,0-.031.248.187.187,0,0,0,.217.093l2.96-.558a.287.287,0,0,0,.108-.031.38.38,0,0,0,.17-.263,1.105,1.105,0,0,1,.511-.821,1.071,1.071,0,0,1,.868-.077,2.632,2.632,0,0,0,2.2-.2l.883-.511v5.766h1.24V27.88l.666-.387.666.387v6.479h1.24V28.593l.883.511a2.632,2.632,0,0,0,2.2.2,1.071,1.071,0,0,1,.868.077,1,1,0,0,1,.511.821.337.337,0,0,0,.17.263.224.224,0,0,0,.108.031l2.96.558a.2.2,0,0,0,.217-.093.229.229,0,0,0,0-.294ZM31.288,27.121l-1.643.945a.67.67,0,1,1-.666-1.162l1.643-.945.666.387v.775Zm1.24-6.37a.675.675,0,0,1,.666-.682.665.665,0,0,1,.666.682v1.906l-.666.387-.666-.387Zm1.457,4.929-.775.449-.775-.449v-.9l.775-.449.775.449Zm3.689,2.139a.667.667,0,0,1-.914.248l-1.643-.945v-.775l.666-.387,1.643.945A.664.664,0,0,1,37.674,27.818Z" transform="translate(-19.71 -11.746)" fill="#48217a"/>
  </g>
  <g id="g22" transform="translate(29.991 1.751)">
    <path id="polygon10" d="M619.718,20.305h-4.51V11.3H611.1V34.782h4.107V24.475h4.51V34.782h4.2V11.3h-4.2Z" transform="translate(-546.374 -11.3)" fill="#48217a"/>
    <path id="polygon12" d="M193.5,11.3l4.557,14.4v9.083h4.572V25.234L207.372,11.3h-3.859l-3.1,9.145L197.607,11.3Z" transform="translate(-193.5 -11.3)" fill="#48217a"/>
    <path id="polygon14" d="M391.279,11.3,389.3,22.475,387.017,11.3H380.6V34.782h3.673v-17.7l3.146,15.391h3.441l2.79-15.639V34.782h4.309V11.3Z" transform="translate(-351.601 -11.3)" fill="#48217a"/>
    <path id="path16" d="M716.648,11.3h-6.355L706,34.782h3.813l.914-5.471h4.727l.883,5.471h4.2Zm-5.285,14.1L713.114,14.9l1.7,10.509Z" transform="translate(-626.565 -11.3)" fill="#48217a"/>
    <path id="path18" d="M509.093,11.3,504.8,34.782h3.813l.914-5.471h4.727l.883,5.471h4.2L515.464,11.3Zm1.069,14.1L511.914,14.9l1.7,10.509Z" transform="translate(-456.55 -11.3)" fill="#48217a"/>
    <path id="path20" d="M278.493,11.3,274.2,34.782h3.813l.914-5.471h4.727l.883,5.471h4.2L284.864,11.3Zm1.085,14.1L281.33,14.9l1.7,10.509Z" transform="translate(-261.692 -11.3)" fill="#48217a"/>
  </g>
</svg>
