<?xml version="1.0" encoding="UTF-8"?>
<!DOCTYPE svg PUBLIC "-//W3C//DTD SVG 1.1//EN" "http://www.w3.org/Graphics/SVG/1.1/DTD/svg11.dtd">
<!-- Creator: CorelDRAW -->
<svg xmlns="http://www.w3.org/2000/svg" xml:space="preserve" width="185mm" height="38mm" shape-rendering="geometricPrecision" text-rendering="geometricPrecision" image-rendering="optimizeQuality" fill-rule="evenodd" clip-rule="evenodd"
viewBox="0 0 185 15.5161">
 <g id="Ebene_x0020_1">
  <metadata id="CorelCorpID_0Corel-Layer"/>
  <g id="_140144776">
   <path id="_139362256" fill="#0C3C60" fill-rule="nonzero" d="M33.0998 1.59816l-1.94405 0 -4.06153 7.04277 0.0176645 0.000835484 -3.20098 0 -0.355081 1.02884 2.94293 0 0.00107419 0.00107419 -2.43066 4.21287 1.57214 0 2.43424 -4.21024 -0.00549032 -0.0037 2.54512 0 1.05832 0 0.76769 4.21394 2.91524 0 -2.25664 -12.2864zm-2.6708 7.04361l-1.75989 0 0.00632581 -0.0037 2.13776 -3.69666 0.672565 3.70036 -1.05677 0z"/>
   <polygon id="_139040584" fill="#0C3C60" fill-rule="nonzero" points="89.4442,2.68453 89.7585,1.59816 81.7008,1.59816 79.8924,7.3106 79.9001,7.31359 78.101,7.31359 77.7576,8.34219 79.5576,8.34219 79.5679,8.3404 77.8154,13.8845 85.8739,13.8845 86.2154,12.7441 81.2441,12.7441 82.6432,8.34219 85.8739,8.34219 86.2154,7.31359 82.9726,7.31359 82.9715,7.31359 84.4441,2.68453 "/>
   <polygon id="_139944408" fill="#0C3C60" fill-rule="nonzero" points="99.5918,12.786 103.13,1.59816 100.159,1.59816 96.2728,13.8845 99.2301,13.8845 103.386,13.8845 103.744,12.786 "/>
   <polygon id="_139390960" fill="#0C3C60" fill-rule="nonzero" points="137.02,12.786 140.56,1.59816 137.59,1.59816 133.703,13.8845 136.662,13.8845 140.82,13.8845 141.175,12.786 "/>
   <path id="_137767656" fill="#0C3C60" fill-rule="nonzero" d="M159.076 1.59816l-1.94226 0 -4.06129 7.04277 0.0176645 0.000835484 -3.19799 0 -0.359139 1.02884 2.94222 0 0.00107419 0.00107419 -2.42887 4.21287 1.57214 0 2.43436 -4.21024 -0.00477419 -0.0037 2.27264 0 1.32555 0 0.00262581 0 0.768406 4.21394 2.91524 0 -2.2576 -12.2864zm-1.61559 7.04361l-1.13865 0 -1.67359 0 0.00656452 -0.0037 2.13478 -3.69666 0.676384 3.70036 -0.00549032 0z"/>
   <polygon id="_138079384" fill="#0C3C60" fill-rule="nonzero" points="14.2693,1.59816 12.4247,7.42876 7.91227,7.42876 7.91036,7.42876 9.75404,1.59816 6.83963,1.59816 4.99512,7.42876 2.02581,7.42876 1.69746,8.51251 4.65365,8.51251 2.95415,13.8845 5.86951,13.8845 7.56817,8.51251 7.56889,8.51251 12.0824,8.51251 10.3829,13.8845 13.299,13.8845 17.1828,1.59816 "/>
   <path id="_137726384" fill="#0C3C60" fill-rule="nonzero" d="M51.3041 7.13026c-1.09854,-0.789652 -1.75165,-0.995419 -2.61017,-1.4436 -2.95332,-1.30419 -0.0335387,-4.63634 3.53756,-2.26619l0.618616 -1.03063c-5.76436,-3.1962 -9.91982,2.96561 -5.83908,5.66888 0.685694,0.479926 1.64566,0.850165 2.64478,1.51067 2.43806,1.61368 -1.20262,5.22118 -5.04931,1.99155l-0.789652 1.02967c2.92073,2.54035 7.7626,1.63994 8.6549,-2.23146 0.309487,-1.34059 -0.0596774,-2.43281 -1.16765,-3.22891z"/>
   <path id="_138305800" fill="#0C3C60" fill-rule="nonzero" d="M67.7495 7.13026c-1.09866,-0.789652 -1.75082,-0.995419 -2.61017,-1.4436 -2.95248,-1.30419 -0.0344935,-4.63634 3.53947,-2.26619l0.617542 -1.03063c-5.76544,-3.1962 -9.91791,2.96561 -5.83979,5.66888 0.686648,0.479926 1.64638,0.850165 2.64466,1.51067 2.4389,1.61368 -1.20107,5.22118 -5.04847,1.99155l-0.790487 1.02967c2.92085,2.54035 7.7626,1.63994 8.65573,-2.23146 0.308771,-1.34059 -0.0596774,-2.43281 -1.16848,-3.22891z"/>
   <path id="_21712776" fill="#0C3C60" fill-rule="nonzero" d="M120.902 1.59816c-3.59807,0.0037 -4.00018,0 -4.00018,0l-1.89476 5.66136 -1.17767 -0.0037 -0.726394 0 -0.373103 1.1143 1.84833 0 0.0566935 0.00107419 -1.46866 4.38402 -0.378713 1.12934 5.48543 0c5.6271,-0.101452 7.57044,-5.20936 3.31162,-6.19523 4.90429,-1.4985 4.25882,-6.09665 -0.68259,-6.09115zm-2.60003 11.2009l-1.03075 0 -1.05104 -0.0111 1.44742 -4.41852 0.0658839 0 0.547123 0 1.12361 0c3.44005,0.035329 1.12456,4.39059 -1.10224,4.42962zm1.27447 -5.55239l-0.96749 0 -0.53101 0 1.45279 -4.5621 0.685694 0c3.13855,-0.0706581 2.45752,4.49407 -0.639981,4.5621z"/>
   <path id="_140144880" fill="#0C3C60" fill-rule="nonzero" d="M177.876 1.59816l-3.65751 0 -4.00173 12.2864 4.43224 0 0.312829 0c9.58014,-0.33849 11.3839,-12.3924 2.91417,-12.2864zm-3.02863 11.146l-0.198368 0 -1.17278 0 3.4268 -10.0007 0.972981 0c4.57201,0 2.40082,10.0007 -3.02863,10.0007z"/>
  </g>
 </g>
</svg>
