<?xml version="1.0" encoding="utf-8"?>
<!-- Generator: Adobe Illustrator 23.0.1, SVG Export Plug-In . SVG Version: 6.00 Build 0)  -->
<svg version="1.1" id="layer" xmlns="http://www.w3.org/2000/svg" xmlns:xlink="http://www.w3.org/1999/xlink" x="0px" y="0px"
	 width="652px" height="224px" viewBox="0 0 652 224" style="enable-background:new 0 0 652 224;" xml:space="preserve">
<style type="text/css">
	.st0{fill-rule:evenodd;clip-rule:evenodd;fill:#006338;}
	.st1{fill-rule:evenodd;clip-rule:evenodd;fill:#F8992F;}
</style>
<g>
	<path class="st0" d="M59.3,177.9c-2.7-1.1-5.3-1.6-8.6-1.6c-5.9,0-12.3,3.2-12.3,10.7c0,11.8,15.5,9.1,15.5,15.5
		c0,3.2-3.7,4.3-6.4,4.3s-5.3-0.5-7.5-2.1l-1.1,6.4c3.7,1.1,5.3,1.1,9.1,1.1c7,0,13.4-2.7,13.4-10.2c0-11.8-15.5-9.1-15.5-15
		c0-3.7,3.2-4.8,5.4-4.8c2.7,0,4.8,0.5,7.5,1.1L59.3,177.9"/>
	<path class="st0" d="M129.9,205.7c-1.6,0.5-4.8,1.1-8,1.1c-7,0-11.8-5.3-11.8-12.3s4.8-12.3,11.8-12.3c2.7,0,4.8,0,7.5,1.6l0.5-5.9
		c-2.7-1.1-5.3-1.6-8-1.6c-11.8,0-18.7,7-18.7,18.7c0,11.8,7.5,17.1,18.7,17.1c2.7,0,5.4,0,8-1.1V205.7"/>
	<polyline class="st0" points="170.5,211.6 177.5,211.6 177.5,176.9 170.5,176.9 170.5,211.6 	"/>
	<polyline class="st0" points="223.5,211.6 243.8,211.6 243.8,206.3 230.4,206.3 230.4,196.7 242.7,196.7 242.7,191.3 230.4,191.3 
		230.4,182.8 243.8,182.8 243.8,176.9 223.5,176.9 223.5,211.6 	"/>
	<polyline class="st0" points="288.2,211.6 294.6,211.6 294.6,186 308,211.6 316.5,211.6 316.5,176.9 310.1,176.9 310.1,203.1 
		309.6,203.1 296.7,176.9 288.2,176.9 288.2,211.6 	"/>
	<polyline class="st0" points="366.8,211.6 373.7,211.6 373.7,182.8 383.9,182.8 383.9,176.9 356.6,176.9 356.6,182.8 366.8,182.8 
		366.8,211.6 	"/>
	<polyline class="st0" points="428.8,211.6 435.8,211.6 435.8,176.9 428.8,176.9 428.8,211.6 	"/>
	<polyline class="st0" points="481.2,211.6 488.2,211.6 488.2,196.7 499.9,196.7 499.9,191.3 488.2,191.3 488.2,182.8 500.5,182.8 
		500.5,176.9 481.2,176.9 481.2,211.6 	"/>
	<polyline class="st0" points="543.2,211.6 550.2,211.6 550.2,176.9 543.2,176.9 543.2,211.6 	"/>
	<path class="st0" d="M620.2,205.7c-1.6,0.5-4.8,1.1-7.5,1.1c-7.5,0-11.8-5.3-11.8-12.3s4.3-12.3,11.8-12.3c2.1,0,4.8,0,7.5,1.6
		l0.5-5.9c-2.7-1.1-5.9-1.6-8-1.6c-11.8,0-19.2,7-19.2,18.7c0,11.8,8,17.1,19.2,17.1c2.7,0,5.4,0,8-1.1L620.2,205.7"/>
	<path class="st1" d="M33.6,72.6H20.8C21.3,35.2,51.3,4.7,88.7,4.1V17C57.7,17.5,34.2,42.1,33.6,72.6 M54.5,72.6
		C55.6,53.9,70,38.9,89.3,38.4V27.7C64.2,28.2,44.9,48,44.4,72.6H54.5z M72.7,72.6c0-9.1,7-16,16.6-16v-7.5
		c-13.4,0-23.5,10.7-24.1,23.5H72.7"/>
	<path class="st0" d="M94,135.7c-29.9,0-54.5-23.5-55.6-54.5h17.7c0.5,19.8,17.6,38,38.5,38c23.5,0,38-17.6,38-39.6
		c0-20.9-14.4-38-34.2-40.1v-16c29.9,2.1,51.9,25.7,51.9,56.2C150.2,111.6,127.2,135.7,94,135.7"/>
	<path class="st0" d="M226.1,66.2c-4.8-2.7-10.2-3.7-15-3.7c-15,0-25.1,11.8-25.1,28.3v42.8h-16V91.9c0-26.2,17.1-44.4,42.8-44.4
		c6.4,0,12.3,1.1,18.2,3.7L226.1,66.2"/>
	<path class="st0" d="M255,96.1c0,15,11.8,25.1,25.7,25.1c11.8,0,18.2-3.2,25.7-10.7l10.7,10.2c-11.2,11.2-21.9,15-36.9,15
		c-25.1,0-41.7-18.7-41.7-43.9c0-26.2,16.6-44.4,41.2-44.4c26.7,0,40.1,19.3,40.1,46v2.7L255,96.1 M279.6,61.4
		c-13.4,0-23,9.1-24.1,21.9h48.7C303.1,70.5,293.5,61.4,279.6,61.4z"/>
	<path class="st0" d="M379.1,135.7c-27.3,0-44.4-18.2-44.4-44.4c0-25.7,19.3-43.9,45.5-43.9c11.2,0,23,2.7,34.2,14.4L404.2,72
		c-8.6-8.6-16-10.7-24.1-10.7c-18.7,0-28.9,14.4-28.9,30.5c0,16,10.2,29.4,27.8,29.4c10.7,0,23-8,23.5-21.4H380V86.4h38.5v4.3
		C418.6,118.1,402.1,135.7,379.1,135.7"/>
	<path class="st0" d="M478,135.7c-25.7,0-44.4-19.8-44.4-44.4c0-24.1,19.8-43.9,44.4-43.9c25.1,0,43.8,19.8,43.8,43.9
		C521.8,115.9,502.1,135.7,478,135.7 M478,61.9c-16.6,0-27.8,14.4-27.8,29.4c0,15.5,11.2,29.9,27.8,29.9c16,0,27.3-14.4,27.3-29.9
		C505.3,76.3,494,61.9,478,61.9z"/>
	<path class="st0" d="M603.7,133.6V91.4c0-16.6-8.6-28.9-24.6-28.9c-15.5,0-24.6,12.3-24.6,28.9v42.2h-16V91.4
		c0-25.7,15.5-43.9,40.7-43.9c26.2,0,41.2,18.2,41.2,43.9v42.2H603.7"/>
</g>
</svg>
