<?xml version="1.0" encoding="utf-8"?>
<!-- Generator: Adobe Illustrator 23.0.3, SVG Export Plug-In . SVG Version: 6.00 Build 0)  -->
<svg version="1.1" id="icon-access" xmlns="http://www.w3.org/2000/svg" xmlns:xlink="http://www.w3.org/1999/xlink" x="0px"
	 y="0px" width="24px" height="24px" viewBox="0 0 24 24" enable-background="new 0 0 24 24" xml:space="preserve">
<g id="Group_808">
	<path id="Path_655" fill="#AFB7BE" d="M7.9,9.9c-0.3,0.3-0.3,0.7,0,1c0,0,0,0,0,0l3.6,3.6c0.1,0.1,0.3,0.2,0.5,0.2
		c0.2,0,0.4-0.1,0.5-0.2l3.6-3.6c0.3-0.3,0.2-0.7,0-1c-0.3-0.2-0.7-0.2-0.9,0l-2.4,2.4V0.7C12.7,0.3,12.4,0,12,0s-0.7,0.3-0.7,0.7
		v11.6L8.9,9.9C8.6,9.6,8.2,9.6,7.9,9.9C7.9,9.9,7.9,9.9,7.9,9.9z"/>
	<path id="Path_656" fill="#AFB7BE" d="M23.1,15.4l-2.4-8.5c-0.1-0.2-0.2-0.4-0.4-0.4l-0.1,0c-0.1,0-0.2-0.1-0.3-0.1h-4.2
		c-0.4,0-0.7,0.3-0.7,0.7s0.3,0.7,0.7,0.7l0,0h3.8l2,7.2h-5.3c-0.4,0-0.7,0.3-0.7,0.7c0,0,0,0,0,0v0.6c0,0.9-0.7,1.6-1.6,1.6l0,0
		H9.8c-0.9,0-1.6-0.7-1.6-1.6l0,0v-0.6c0-0.4-0.3-0.7-0.7-0.7c0,0,0,0,0,0H2.5l2-7.2h3.8c0.4,0,0.7-0.3,0.7-0.7S8.6,6.3,8.3,6.3H4
		c-0.1,0-0.2,0-0.3,0.1l-0.1,0C3.5,6.5,3.4,6.7,3.3,6.9l-2.4,8.5c0,0.1,0,0.1,0,0.2v3.6c0,2.7,2.2,4.9,4.9,4.9h12.4
		c2.7,0,4.9-2.2,4.9-4.9v-3.5C23.1,15.5,23.1,15.5,23.1,15.4z M21.7,19.1c0,1.9-1.6,3.5-3.5,3.5H5.8c-1.9,0-3.5-1.6-3.5-3.5v-2.9
		h4.6c0,1.6,1.4,2.9,3,2.9H14c1.6,0,2.9-1.3,3-2.9h4.8L21.7,19.1L21.7,19.1z"/>
</g>
</svg>
