<?xml version="1.0" encoding="utf-8"?>
<!-- Generator: Adobe Illustrator 22.1.0, SVG Export Plug-In . SVG Version: 6.00 Build 0)  -->
<!DOCTYPE svg PUBLIC "-//W3C//DTD SVG 1.1//EN" "http://www.w3.org/Graphics/SVG/1.1/DTD/svg11.dtd">
<svg version="1.1" id="Layer_1" xmlns="http://www.w3.org/2000/svg" xmlns:xlink="http://www.w3.org/1999/xlink" x="0px" y="0px"
	 width="24px" height="24px" viewBox="0 0 24 24" enable-background="new 0 0 24 24" xml:space="preserve">
<path id="Path_201" fill="#32B7E9" d="M12.2,2.1H17c0.8,0,1.5,0.2,2.3,0.5c0.5,0.2,1,0.5,1.4,0.9c0.4,0.3,0.8,0.8,0.9,1.4
	c0.2,0.7,0.4,1.5,0.5,2.3v9.7c0,0.8-0.2,1.5-0.5,2.3c-0.2,0.5-0.5,1-0.9,1.4c-0.3,0.4-0.8,0.8-1.4,0.9c-0.7,0.2-1.5,0.4-2.3,0.5H7.3
	c-0.8,0-1.5-0.2-2.3-0.5c-0.5-0.2-1-0.5-1.4-0.9c-0.3-0.6-0.7-1-0.8-1.6c-0.2-0.7-0.4-1.5-0.5-2.3V7.1c0-0.8,0.2-1.5,0.5-2.3
	c0.2-0.5,0.5-1,0.9-1.4C4,3,4.5,2.7,5.1,2.6c0.7-0.2,1.5-0.3,2.3-0.3C8.9,2.1,10.5,2,12.2,2.1 M12.2,0h-5c-1,0-2,0.2-2.9,0.6
	C3.5,0.9,2.8,1.4,2.2,2C1.5,2.6,1,3.4,0.7,4.2c-0.3,1-0.5,1.9-0.6,2.9v10c0,1,0.2,2,0.6,2.9C1,20.7,1.4,21.4,2,22s1.3,1.1,2.1,1.4
	C5.1,23.7,6,23.9,7,24h10c1,0,2-0.2,2.9-0.6c1.6-0.6,2.9-1.9,3.5-3.5C23.7,19,23.9,18,24,17V7c0-1-0.2-2-0.6-2.9
	c-0.4-0.7-0.8-1.4-1.4-2S20.7,1,19.9,0.7c-1-0.3-1.9-0.5-2.9-0.5C15.4,0,13.8-0.1,12.2,0L12.2,0z"/>
<path id="Path_202" fill="#32B7E9" d="M12.2,5.9C8.7,5.9,6,8.7,6,12.1s2.8,6.2,6.2,6.2s6.2-2.8,6.2-6.2S15.7,5.9,12.2,5.9
	C12.2,5.9,12.2,5.9,12.2,5.9z M12.2,16.2c-2.3,0-4.1-1.8-4.1-4.1S9.9,8,12.2,8s4.1,1.8,4.1,4.1C16.2,14.3,14.4,16.1,12.2,16.2
	L12.2,16.2z"/>
<circle id="Ellipse_10" fill="#32B7E9" cx="18.6" cy="5.6" r="1.5"/>
</svg>
