<?xml version="1.0" encoding="utf-8"?>
<!-- Generator: Adobe Illustrator 23.0.3, SVG Export Plug-In . SVG Version: 6.00 Build 0)  -->
<svg version="1.1" id="Layer_1" xmlns="http://www.w3.org/2000/svg" xmlns:xlink="http://www.w3.org/1999/xlink" x="0px" y="0px"
	 width="24px" height="24px" viewBox="0 0 24 24" enable-background="new 0 0 24 24" xml:space="preserve">
<path id="Path_1481" fill="#CF2A28" d="M18,8.5h-1v-2c0-2.8-2.2-5-4.9-5.1C9.3,1.4,7,3.6,7,6.4c0,0,0,0.1,0,0.1v2H6
	c-1.1,0-2,0.9-2,2c0,0,0,0,0,0v10c0,1.1,0.9,2,2,2c0,0,0,0,0,0h12c1.1,0,2-0.9,2-2c0,0,0,0,0,0v-10C20,9.4,19.1,8.5,18,8.5
	C18,8.5,18,8.5,18,8.5z M12,17.5c-1.1,0-2-0.9-2-2c0-1.1,0.9-2,2-2c1.1,0,2,0.9,2,2l0,0C14,16.6,13.1,17.5,12,17.5
	C12,17.5,12,17.5,12,17.5z M15.1,8.5H8.9v-2c0-1.7,1.4-3.1,3.1-3.1c1.7,0,3.1,1.4,3.1,3.1V8.5z"/>
</svg>
