<svg id="icon-manuals" xmlns="http://www.w3.org/2000/svg" width="24" height="24.002" viewBox="0 0 24 24.002">
  <path id="Path_574" data-name="Path 574" d="M91.977,88.5,87.2,83.725l3.408-1.968a.8.8,0,0,0-.1-1.441l-15.2-6.062A.8.8,0,0,0,74.265,75.3l6.061,15.2a.8.8,0,0,0,1.441.1l1.968-3.408,4.776,4.777a.8.8,0,0,0,1.135,0l2.331-2.331A.8.8,0,0,0,91.977,88.5Z" transform="translate(-68.212 -68.201)" fill="#afb7be"/>
  <path id="Path_575" data-name="Path 575" d="M28.025,26.88a.8.8,0,0,0-1.135,1.135L28.673,29.8a.8.8,0,1,0,1.135-1.135Z" transform="translate(-24.501 -24.491)" fill="#afb7be"/>
  <path id="Path_576" data-name="Path 576" d="M4.141,89.086a.8.8,0,0,0-.8-.8H.816a.8.8,0,1,0,0,1.605H3.338A.8.8,0,0,0,4.141,89.086Z" transform="translate(-0.013 -81.148)" fill="#afb7be"/>
  <path id="Path_577" data-name="Path 577" d="M24.1,126.2l-1.784,1.784a.8.8,0,0,0,1.135,1.135l1.784-1.784A.8.8,0,1,0,24.1,126.2Z" transform="translate(-20.299 -115.782)" fill="#afb7be"/>
  <path id="Path_578" data-name="Path 578" d="M89.093,4.128a.8.8,0,0,0,.8-.8V.8A.8.8,0,0,0,88.29.8V3.325A.8.8,0,0,0,89.093,4.128Z" transform="translate(-81.156)" fill="#afb7be"/>
  <path id="Path_579" data-name="Path 579" d="M126.764,25.462a.8.8,0,0,0,.568-.235l1.783-1.784a.8.8,0,1,0-1.135-1.135L126.2,24.092a.8.8,0,0,0,.568,1.37Z" transform="translate(-115.783 -20.289)" fill="#afb7be"/>
</svg>
