<svg id="icon-support" xmlns="http://www.w3.org/2000/svg" width="24" height="24" viewBox="0 0 24 24">
  <path id="Path_581" data-name="Path 581" d="M69.411,0a9.187,9.187,0,0,0-9.177,9.177v8.47a2.118,2.118,0,1,0,4.235,0V10.588a2.12,2.12,0,0,0-2.118-2.118,2.094,2.094,0,0,0-.676.121,7.757,7.757,0,0,1,15.47-.006,2.08,2.08,0,0,0-.676-.115,2.12,2.12,0,0,0-2.118,2.118v7.059a2.12,2.12,0,0,0,2.118,2.118,2.093,2.093,0,0,0,.706-.13v.836a.707.707,0,0,1-.706.706H71.4a2.118,2.118,0,1,0,0,1.412h5.071a2.12,2.12,0,0,0,2.118-2.118V9.177A9.187,9.187,0,0,0,69.411,0Zm0,0" transform="translate(-57.411)" fill="#afb7be"/>
  <path id="Path_582" data-name="Path 582" d="M481.883,213.6v8.21a2.114,2.114,0,0,0,1.412-1.988v-4.235A2.115,2.115,0,0,0,481.883,213.6Zm0,0" transform="translate(-459.295 -203.585)" fill="#afb7be"/>
  <path id="Path_583" data-name="Path 583" d="M0,215.585v4.235a2.114,2.114,0,0,0,1.412,1.988V213.6A2.114,2.114,0,0,0,0,215.586Zm0,0" transform="translate(0 -203.586)" fill="#afb7be"/>
</svg>
