<?xml version="1.0" encoding="utf-8"?>
<!-- Generator: Adobe Illustrator 22.1.0, SVG Export Plug-In . SVG Version: 6.00 Build 0)  -->
<!DOCTYPE svg PUBLIC "-//W3C//DTD SVG 1.1//EN" "http://www.w3.org/Graphics/SVG/1.1/DTD/svg11.dtd">
<svg version="1.1" id="Layer_1" xmlns="http://www.w3.org/2000/svg" xmlns:xlink="http://www.w3.org/1999/xlink" x="0px" y="0px"
	 width="24px" height="24px" viewBox="0 0 24 24" enable-background="new 0 0 24 24" xml:space="preserve">
<path id="icon-pinterest-2" fill="#32B7E9" d="M12,0C5.4,0,0.1,5.3,0.1,11.9c0,4.9,3,9.3,7.6,11c-0.1-1.1-0.1-2.3,0-3.4
	c0.1-0.9,1.3-6,1.3-6c-0.2-0.5-0.3-1.1-0.3-1.6c0-1.6,0.9-2.8,2.1-2.8c0.8,0,1.5,0.6,1.5,1.4c0,0.1,0,0.2,0,0.2
	c-0.2,1.4-0.5,2.7-1,4c-0.2,0.9,0.3,1.8,1.2,2c0.2,0,0.4,0.1,0.6,0c2.1,0,3.7-2.2,3.7-5.5c0.1-2.6-2-4.8-4.6-4.9c-0.1,0-0.2,0-0.3,0
	c-2.9,0-5.3,2.2-5.4,5c0,0.1,0,0.2,0,0.3c0,1,0.3,1.9,0.9,2.7c0.1,0.1,0.2,0.3,0.1,0.4c-0.1,0.4-0.2,0.9-0.3,1.3
	c0,0.1-0.1,0.3-0.4,0.1c-1.5-0.7-2.4-2.8-2.4-4.6c0-3.7,2.7-7.2,7.9-7.2c4.2,0,7.3,3,7.3,6.9c0,4.2-2.5,7.5-6.3,7.5
	c-1.1,0.1-2.1-0.4-2.7-1.3c0,0-0.6,2.2-0.7,2.8c-0.4,1.1-0.9,2.1-1.5,3.1C9.6,23.8,10.8,24,12,24c6.6,0,12-5.4,12-12S18.6,0,12,0
	L12,0z"/>
</svg>
