<?xml version="1.0" encoding="utf-8"?>
<!-- Generator: Adobe Illustrator 23.0.3, SVG Export Plug-In . SVG Version: 6.00 Build 0)  -->
<svg version="1.1" id="icon-guides" xmlns="http://www.w3.org/2000/svg" xmlns:xlink="http://www.w3.org/1999/xlink" x="0px"
	 y="0px" width="24px" height="24px" viewBox="0 0 24 24" enable-background="new 0 0 24 24" xml:space="preserve">
<g id="Group_547">
	<g id="Group_546">
		<path id="Path_566" fill="#AFB7BE" d="M3.7,2.8L3.7,2.8c-0.2,0-0.4,0.1-0.6,0.2C2.9,3.2,2.8,3.5,2.8,3.7v12.9
			c0,0.5,0.4,0.9,0.9,0.9c2,0,5.3,0.4,7.7,2.8V6.8c0-0.2,0-0.3-0.1-0.4C9.3,3.3,5.7,2.8,3.7,2.8z"/>
		<path id="Path_567" fill="#AFB7BE" d="M21.2,16.6V3.7c0-0.2-0.1-0.4-0.3-0.6c-0.2-0.2-0.4-0.2-0.6-0.2l0,0c-2,0-5.6,0.5-7.5,3.5
			c-0.1,0.1-0.1,0.3-0.1,0.4v13.5c2.3-2.4,5.7-2.8,7.7-2.8C20.8,17.4,21.2,17,21.2,16.6z"/>
		<path id="Path_568" fill="#AFB7BE" d="M23.1,5.8h-0.6v10.8c0,1.2-1,2.2-2.2,2.2c-2.4-0.1-4.7,0.7-6.5,2.2c3-0.6,6.1-0.6,9.1,0.2
			c0.5,0.1,0.9-0.2,1-0.6c0-0.1,0-0.1,0-0.2V6.7C24,6.2,23.6,5.8,23.1,5.8z"/>
		<path id="Path_569" fill="#AFB7BE" d="M1.5,16.6V5.8H0.9C0.4,5.8,0,6.2,0,6.7v13.6c0,0.5,0.4,0.9,0.9,0.9c0.1,0,0.1,0,0.2,0
			c3-0.7,6.1-0.8,9.1-0.2c-1.8-1.5-4.1-2.3-6.5-2.2C2.5,18.8,1.5,17.8,1.5,16.6z"/>
	</g>
</g>
</svg>
