<?xml version="1.0" encoding="utf-8"?>
<!-- Generator: Adobe Illustrator 22.1.0, SVG Export Plug-In . SVG Version: 6.00 Build 0)  -->
<!DOCTYPE svg PUBLIC "-//W3C//DTD SVG 1.1//EN" "http://www.w3.org/Graphics/SVG/1.1/DTD/svg11.dtd">
<svg version="1.1" id="Layer_1" xmlns="http://www.w3.org/2000/svg" xmlns:xlink="http://www.w3.org/1999/xlink" x="0px" y="0px"
	 width="32px" height="32px" viewBox="0 0 32 32" enable-background="new 0 0 32 32" xml:space="preserve">
<path id="icon-twitter-2" fill="#32B7E9" d="M21.3,4c1.8-0.1,3.6,0.6,4.8,2c1.1-0.2,2.2-0.5,3.2-1.1c0.3-0.2,0.5-0.3,0.8-0.4
	c-0.5,1.1-1.2,2.1-2.1,2.9c-0.1,0.2-0.5,0.3-0.6,0.4l0,0c1.2-0.1,2.4-0.4,3.5-0.9l0,0c-0.5,0.9-1.2,1.7-2.1,2.4
	c-0.3,0.3-0.6,0.4-0.9,0.8c0.1,1.3,0,2.6-0.3,3.9c-1.5,6.8-5.6,11.4-11.9,13.4c-2.8,0.9-5.7,1-8.6,0.3c-1.2-0.3-2.4-0.7-3.6-1.2
	c-0.6-0.3-1.1-0.6-1.7-0.9c-0.2-0.1-0.3-0.1-0.6-0.3c0.6,0.1,1.3,0.1,2,0C3.8,25,4.4,25.2,5,25c1.3-0.3,2.5-0.7,3.6-1.4
	C9,23.3,10,23,10.3,22.5c-0.6,0-1.2-0.1-1.8-0.3c-1.8-0.6-3.3-2.1-3.9-3.9c0.9,0.1,1.8,0.1,2.7-0.1c-0.7-0.1-1.4-0.3-2-0.8
	c-1.8-1.1-2.9-3.1-2.9-5.3c0.2,0.1,0.5,0.1,0.6,0.3c0.4,0.2,0.8,0.3,1.2,0.3c0.2,0,0.6,0.1,0.9,0l0,0c-0.5,0-0.9-0.3-1.2-0.6
	c-1.3-1.5-1.8-3.6-1.3-5.6C2.7,6.1,3,5.6,3.2,5l0,0c0.2,0.3,0.4,0.4,0.6,0.8C4.3,6.4,4.9,7,5.6,7.4c2.1,1.8,4.6,3,7.4,3.6
	c0.9,0.2,1.8,0.3,2.7,0.3c-0.2-0.9-0.2-1.9,0-2.9c0.4-1.8,1.7-3.3,3.5-4L20.4,4H21.3z"/>
</svg>
